<svg width="298" height="298" viewBox="0 0 298 298" fill="none" xmlns="http://www.w3.org/2000/svg">
<circle cx="149" cy="149" r="149" fill="#7FDBEB"/>
<mask id="mask0_1_16678" style="mask-type:alpha" maskUnits="userSpaceOnUse" x="19" y="19" width="260" height="260">
<circle cx="149" cy="149" r="130" fill="#D9D9D9"/>
</mask>
<g mask="url(#mask0_1_16678)">
<path d="M148.993 -96.2144L108.032 -95.1135L107.878 -85.4877L12.0552 -58.1719C-3.61237 -55.6118 -38.0963 -36.309 -39.6324 0.427757L-69.6107 198.704C-71.3771 272.101 -67.3323 317.952 -57.8345 377.703L-28.6498 371.201C-16.6943 290.994 -8.34851 266.648 -13.1102 204.797C9.21347 180.093 15.9208 120.315 21.1177 56.9538L33.7644 300.313L31.7675 358.477C24.0873 409.678 18.6345 462.825 16.0489 512.081H132.634C135.987 480.336 138.215 443.471 139.879 412.955C142.925 412.955 145.946 413.16 149.018 413.16C152.09 413.16 155.111 413.16 158.157 412.955C159.821 443.471 162.049 480.336 165.377 512.081H282.039C279.479 462.876 274 409.678 266.345 358.477L264.349 300.313L276.97 56.9538C282.09 120.238 288.874 180.093 311.198 204.797C306.436 266.597 314.807 290.943 326.737 371.201L355.845 377.703C365.317 317.952 369.362 272.101 367.596 198.704L337.438 0.427757C335.902 -36.309 301.444 -55.6374 285.776 -58.1719L189.953 -85.4877L189.774 -95.1135L148.993 -96.2144Z" fill="#FFEAC8"/>
<path d="M117.733 169.904C124.261 163.964 129.458 154.185 135.654 147.964C141.26 142.357 186.394 133.295 205.21 120.495C206.004 119.979 206.625 119.236 206.993 118.364C207.361 117.491 207.459 116.529 207.275 115.6C207.09 114.671 206.631 113.819 205.958 113.154C205.284 112.488 204.426 112.04 203.495 111.867C177.075 104.853 144.46 94.8941 119.013 98.171C103.09 100.245 93.9247 93.9212 78.0524 95.9949C70.3722 96.9677 53.6807 102.267 46.8965 119.035C43.1332 128.328 31.3314 141.334 42.6213 169.545C44.5596 175.21 45.2324 181.231 44.5924 187.184C44.6259 188.481 44.978 189.75 45.6174 190.879C46.2569 192.008 47.1642 192.962 48.2594 193.657C49.3545 194.353 50.6039 194.768 51.8976 194.867C53.1912 194.966 54.4893 194.745 55.6775 194.224C64.4329 190.794 72.7531 187.082 82.1229 183.984C92.4143 180.682 104.984 181.578 117.733 169.904Z" fill="#96482B"/>
<path opacity="0.2" d="M66.3799 168.546C64.363 173.117 61.3476 177.177 57.5553 180.429C53.7631 183.68 49.2903 186.041 44.4658 187.337C44.5331 188.613 44.9086 189.854 45.5601 190.953C46.2115 192.053 47.1196 192.978 48.2065 193.649C49.2935 194.321 50.527 194.72 51.8016 194.811C53.0762 194.902 54.3538 194.683 55.5253 194.172C64.2807 190.742 72.6009 187.03 81.9707 183.932C92.4157 180.553 105.011 181.372 117.811 169.775C124.34 163.836 129.537 154.056 135.732 147.835C141.338 142.229 186.472 133.166 205.289 120.366C205.962 119.933 206.512 119.334 206.886 118.627C207.261 117.919 207.446 117.128 207.426 116.328C207.405 115.528 207.179 114.746 206.769 114.059C206.359 113.372 205.778 112.802 205.084 112.404C154.932 126.92 90.8284 110.433 66.3799 168.546Z" fill="#1D1D1B"/>
<path d="M134.503 177.43C131.664 165.436 129.849 153.224 129.076 140.923C128.359 139.003 124.314 140.258 123.111 141.23C123.521 147.963 124.263 154.696 125.313 161.378C122.062 158.951 118.264 157.359 114.253 156.744C114.081 156.092 113.776 155.482 113.357 154.952C111.349 153.234 108.99 151.976 106.445 151.266C102.247 149.397 98.8928 145.992 94.4383 144.738C92.005 144.082 89.4388 144.103 87.0163 144.797C84.5938 145.492 82.4068 146.834 80.6909 148.68C79.1578 150.486 78.2436 152.736 78.0824 155.099C77.9211 157.463 78.5212 159.816 79.7947 161.813C81.2497 163.847 83.241 165.436 85.5464 166.403C87.8519 167.37 90.3809 167.678 92.8511 167.292C96.7424 166.677 100.147 164.45 104.039 163.913C106.544 163.947 109.04 163.593 111.437 162.863C111.877 162.665 112.276 162.387 112.615 162.044C116.604 162.548 120.318 164.347 123.188 167.164C124.727 168.688 125.927 170.521 126.708 172.542C127.489 174.562 127.833 176.726 127.719 178.889L133.71 179.222C133.71 178.71 133.71 178.198 133.71 177.686L134.503 177.43Z" fill="#A8A166"/>
<path d="M98.9691 191.587C94.1306 191.971 91.289 196.707 89.625 200.88C87.0649 206.538 84.7865 213.168 88.1913 218.391C91.0074 222.666 96.7931 224.33 102.092 225.559C121.984 230.142 143.053 233.111 162.868 227.889C170.889 225.514 178.691 222.456 186.19 218.749C197.378 213.629 208.949 208.048 216.553 198.883C220.29 194.403 223.055 189.053 227.945 185.648C230.018 184.214 232.604 182.883 233.065 180.528C226.178 177.968 218.165 179.606 211.484 182.678C204.802 185.75 198.939 190.128 192.258 193.226C177.896 199.856 161.102 200.01 144.999 200.035C139.102 200.165 133.203 199.934 127.335 199.344C120.177 198.498 113.187 196.582 106.598 193.661C104.276 192.325 101.648 191.61 98.9691 191.587Z" fill="#A8A166"/>
<path d="M224.565 145.327C223.475 141.2 221.462 137.374 218.676 134.14C214.883 129.994 210.159 126.809 204.894 124.846C199.629 122.883 193.972 122.199 188.391 122.85C174.132 124.719 165.658 135.215 159.462 144.815C158.285 146.607 157.082 148.425 155.827 150.268C152.231 143.849 150.295 136.633 150.195 129.275L149.606 -117.898L132.889 -115.875L132.223 129.327C132.365 141.576 136.28 153.484 143.436 163.427C140.104 165.752 136.373 167.444 132.428 168.419C121.65 170.979 107.954 168.7 99.9154 174.64C98.323 175.806 97.0399 177.344 96.1778 179.12C88.4183 182.821 82.1838 189.1 78.539 196.887C76.1694 202.432 75.3512 208.517 76.1719 214.492C76.9926 220.467 79.4212 226.106 83.1983 230.807H83.3519L97.7138 221.156C95.7115 218.652 94.4177 215.656 93.9675 212.482C93.5172 209.307 93.9268 206.07 95.1537 203.108C96.4464 200.268 98.4369 197.802 100.939 195.939C102.563 197.576 104.328 199.066 106.213 200.394C126.156 214.705 158.566 217.341 183.015 208.304C207.463 199.267 223.08 179.888 225.486 159.663C226.121 154.87 225.808 149.999 224.565 145.327Z" fill="#F9DE96"/>
<path opacity="0.1" d="M225.487 159.715C223.08 179.913 207.362 199.293 183.015 208.356C158.669 217.418 126.233 214.756 106.214 200.445C104.329 199.118 102.564 197.627 100.94 195.991C98.4374 197.853 96.4469 200.319 95.1542 203.159C93.9273 206.121 93.5177 209.358 93.9679 212.533C94.4182 215.707 95.712 218.703 97.7143 221.207L83.3524 230.859C81.5535 226.06 80.9559 220.894 81.6119 215.812C82.2679 210.729 84.1573 205.884 87.1156 201.7C90.3116 197.164 95.087 193.987 100.505 192.791C107.545 191.459 114.611 194.378 121.472 196.4C139.236 201.534 158.188 200.743 175.463 194.147C192.101 187.736 205.944 175.661 214.555 160.047C216.545 155.535 219.128 151.308 222.235 147.478C222.959 146.696 223.747 145.976 224.591 145.327C225.832 150.018 226.136 154.907 225.487 159.715Z" fill="#1D1D1B"/>
<path d="M254.39 268.391C254.379 271.409 253.289 274.324 251.318 276.609C253.278 278.9 254.366 281.811 254.39 284.826C254.369 286.874 253.864 288.888 252.917 290.703C251.969 292.519 250.605 294.084 248.937 295.271L248.783 296.091C249.514 297.699 249.897 299.444 249.91 301.211C249.907 302.958 249.547 304.686 248.851 306.288C248.155 307.891 247.139 309.334 245.865 310.529L245.583 311.502C246.679 313.376 247.27 315.502 247.298 317.672C247.273 319.968 246.644 322.217 245.476 324.194C244.308 326.171 242.641 327.806 240.642 328.936C241.26 330.439 241.582 332.047 241.589 333.672C241.456 337.337 239.874 340.799 237.192 343.3C234.509 345.8 230.944 347.135 227.279 347.01H227.023C226.264 350.137 224.459 352.911 221.908 354.872C219.356 356.832 216.211 357.861 212.994 357.788C210.525 357.767 208.1 357.143 205.928 355.97C204.565 357.407 202.926 358.554 201.109 359.341C199.292 360.129 197.335 360.541 195.355 360.553C192.653 360.553 190.001 359.828 187.675 358.454C186.308 360.298 184.524 361.791 182.467 362.81C180.411 363.829 178.142 364.345 175.847 364.316C173.136 364.305 170.48 363.553 168.167 362.14V380.291C168.167 385.718 163.047 390.531 158.439 393.552C153.523 396.701 157.389 413.418 154.215 413.418C153.267 413.418 146.534 413.418 145.587 413.418C144.64 413.418 144.64 395.498 143.514 394.96C138.137 392.886 135.833 387.536 135.321 381.98C135.27 381.436 135.27 380.887 135.321 380.342V360.809C135.472 354.529 137.412 348.423 140.913 343.208C144.414 337.993 149.33 333.886 155.085 331.368C159.377 329.359 164.003 328.161 168.73 327.835L202.19 325.045C203.423 324.961 204.621 324.603 205.697 323.995C207.218 323.2 208.4 321.881 209.025 320.283C218.062 295.988 221.007 266.522 217.806 232.55L216.859 233.036C216.272 236.623 214.406 239.875 211.605 242.191C208.805 244.507 205.26 245.729 201.627 245.632C198.934 245.615 196.29 244.91 193.947 243.584C192.593 246.03 190.603 248.063 188.187 249.47C185.771 250.876 183.02 251.602 180.225 251.571C177.636 251.557 175.088 250.916 172.801 249.702C171.316 251.447 169.467 252.844 167.383 253.795C165.3 254.746 163.033 255.228 160.743 255.207C157.787 253.426 154.337 252.644 150.902 252.976C147.467 253.308 144.231 254.736 141.67 257.05C139.556 257.056 137.462 256.64 135.51 255.827C133.558 255.014 131.788 253.819 130.304 252.314H129.587C126.877 254.231 123.639 255.26 120.32 255.258C117.984 255.275 115.673 254.772 113.557 253.784C111.44 252.797 109.57 251.35 108.082 249.549L107.058 249.37C104.58 250.844 101.75 251.622 98.8662 251.622C96.2348 251.652 93.6389 251.015 91.3201 249.77C89.0014 248.526 87.0353 246.715 85.6051 244.506L83.89 244.019C81.2019 260.992 83.89 285.441 90.7765 306.228C90.7613 306.287 90.7613 306.349 90.7765 306.408C92.4428 311.41 94.4264 316.301 96.7157 321.051C98.1608 324.046 98.5116 327.453 97.7073 330.679C96.903 333.906 94.9943 336.749 92.3125 338.716C95.7031 341.607 98.0579 345.526 99.0198 349.877C99.5574 352.535 99.5299 355.276 98.9389 357.923C98.3479 360.569 97.2067 363.061 95.5894 365.238C95.2961 365.637 94.9091 365.957 94.4627 366.172C94.0163 366.386 93.5241 366.487 93.0294 366.467C92.4435 366.464 91.8688 366.305 91.3653 366.006C91.0383 365.83 90.7534 365.586 90.5304 365.289C90.3074 364.992 90.1515 364.651 90.0735 364.288C89.9956 363.925 89.9976 363.55 90.0792 363.188C90.1607 362.826 90.32 362.486 90.546 362.191C91.7485 360.598 92.5986 358.768 93.04 356.822C93.4814 354.875 93.5039 352.857 93.1061 350.901C92.2632 347.075 89.9569 343.731 86.6803 341.583C83.3396 342.579 79.7809 342.579 76.4401 341.583C74.3496 340.968 72.4075 339.93 70.7342 338.534C69.0609 337.138 67.6919 335.414 66.7119 333.467C66.2511 332.571 65.8415 331.547 65.4319 330.626C62.4425 329.785 59.8009 328.009 57.8938 325.558C55.9866 323.108 54.914 320.111 54.8332 317.006C54.8528 314.676 55.4793 312.39 56.6509 310.376C54.0692 309.305 51.8559 307.504 50.2825 305.194C48.7091 302.884 47.8439 300.165 47.7931 297.371C47.8073 295.546 48.1835 293.742 48.8998 292.063C49.6161 290.384 50.6582 288.864 51.966 287.591C49.8138 286.373 48.0191 284.611 46.7612 282.481C45.5033 280.352 44.8263 277.93 44.7979 275.457C44.8132 273.575 45.2088 271.716 45.9612 269.991C46.7135 268.267 47.8069 266.712 49.1756 265.421C47.6741 264.024 46.505 262.307 45.7543 260.398C45.0036 258.49 44.6903 256.437 44.8377 254.391C44.9851 252.345 45.5892 250.358 46.6057 248.576C47.6222 246.795 49.0253 245.264 50.7116 244.096C50.7116 243.609 50.8908 243.123 50.942 242.637C49.0106 240.422 47.9385 237.588 47.921 234.649C47.9748 232.131 48.7614 229.684 50.1845 227.606C51.6077 225.528 53.6057 223.91 55.934 222.95C56.4926 221.485 57.125 220.05 57.8286 218.649C59.7662 215.171 62.8581 212.48 66.5697 211.04C70.2814 209.6 74.3793 209.503 78.1553 210.764C140.953 230.707 176.871 226.483 220.546 194.098C222.874 192.412 225.577 191.316 228.422 190.906C231.267 190.495 234.169 190.783 236.879 191.743C239.482 192.612 241.805 194.163 243.606 196.234C245.407 198.305 246.62 200.82 247.119 203.519C247.375 204.825 247.529 206.079 247.734 207.436C249.071 208.643 250.142 210.115 250.878 211.76C251.614 213.404 251.999 215.183 252.009 216.985C251.998 219.401 251.277 221.76 249.935 223.769C249.935 224.076 249.935 224.383 249.935 224.665C251.358 225.87 252.503 227.367 253.294 229.054C254.085 230.742 254.502 232.581 254.518 234.444C254.501 237.276 253.547 240.022 251.804 242.253C253.103 243.451 254.14 244.906 254.849 246.525C255.559 248.144 255.925 249.893 255.925 251.661C255.925 253.429 255.559 255.177 254.849 256.796C254.14 258.416 253.103 259.87 251.804 261.069C253.423 263.172 254.329 265.737 254.39 268.391Z" fill="#E9B4B4"/>
<path opacity="0.1" d="M231.12 249.801C231.12 261.628 229.84 273.456 229.2 285.283C228.483 298.852 226.23 314.775 213.251 321.38H213.071C210.648 322.567 208.058 323.379 205.391 323.787C206.912 322.991 208.094 321.673 208.719 320.074C217.756 295.78 220.7 266.313 217.5 232.341L216.553 232.828C215.966 236.414 214.1 239.666 211.299 241.982C208.498 244.298 204.953 245.52 201.321 245.423C198.628 245.406 195.984 244.701 193.641 243.375C192.287 245.821 190.297 247.855 187.881 249.261C185.465 250.667 182.714 251.393 179.919 251.363C177.329 251.349 174.782 250.707 172.494 249.494C171.01 251.238 169.161 252.635 167.077 253.586C164.994 254.537 162.727 255.019 160.437 254.998C157.481 253.218 154.03 252.436 150.596 252.768C147.161 253.1 143.924 254.528 141.364 256.841C139.25 256.847 137.155 256.431 135.204 255.618C133.252 254.805 131.482 253.611 129.997 252.105H129.281C126.571 254.022 123.333 255.051 120.013 255.049C117.678 255.066 115.367 254.563 113.25 253.576C111.134 252.588 109.264 251.141 107.776 249.34L106.752 249.161C104.274 250.635 101.444 251.414 98.56 251.414C95.9286 251.443 93.3325 250.806 91.0138 249.561C88.695 248.317 86.7291 246.506 85.299 244.297L83.5838 243.81C80.8957 260.784 83.5838 285.232 90.4703 306.02C90.4551 306.079 90.4551 306.14 90.4703 306.199C92.1366 311.201 94.1202 316.093 96.4095 320.842C97.8546 323.837 98.2054 327.244 97.4011 330.471C96.5968 333.697 94.6881 336.541 92.0063 338.507C95.3969 341.399 97.7517 345.317 98.7136 349.669C99.2512 352.326 99.2237 355.068 98.6327 357.714C98.0417 360.36 96.9003 362.853 95.2831 365.029C94.9898 365.428 94.6029 365.749 94.1565 365.963C93.7101 366.177 93.2178 366.279 92.723 366.258C92.1371 366.256 91.5626 366.097 91.0591 365.797C90.7321 365.621 90.4473 365.377 90.2242 365.08C90.0012 364.784 89.8453 364.442 89.7673 364.079C89.6894 363.716 89.6914 363.341 89.773 362.979C89.8545 362.617 90.0138 362.277 90.2398 361.983C91.4423 360.39 92.2924 358.559 92.7338 356.613C93.1752 354.667 93.1977 352.648 92.7999 350.693C91.957 346.867 89.6507 343.522 86.3741 341.374C83.0334 342.37 79.4747 342.37 76.1339 341.374C80.3068 339.71 87.219 337.508 88.9342 328.574C91.0846 317.489 83.3533 311.14 78.438 292.503C75.0857 280.735 73.076 268.626 72.4474 256.406C72.1658 250.927 73.1131 241.046 77.03 237.001C80.9469 232.956 85.8365 234.21 91.187 236.463C94.5104 238.007 97.9311 239.333 101.427 240.431C131.713 248.367 160.897 247.83 189.8 236.309C194.588 234.389 208.412 226.863 215.401 224.584C216.145 224.325 216.906 224.12 217.679 223.97C223.542 223.1 231.12 226.069 231.12 249.801Z" fill="#1D1D1B"/>
<path d="M218.242 298.393C217.697 299.105 217.116 299.788 216.501 300.441C216.953 301.523 217.329 302.635 217.628 303.769C218.867 307.666 218.722 311.871 217.218 315.673C215.89 318.635 213.573 321.043 210.664 322.483C209.073 323.289 207.327 323.743 205.544 323.814C204.468 324.422 203.27 324.78 202.037 324.864L178.536 326.835L168.577 327.654H168.193C166.836 327.782 165.633 327.961 164.225 328.192C162.817 328.422 162.279 328.601 161.332 328.832C159.136 329.423 156.994 330.202 154.932 331.161C153.202 330.79 151.525 330.205 149.94 329.421C149.581 329.241 149.249 329.088 148.916 328.883C146.908 330.147 144.749 331.153 142.49 331.878C136.284 333.928 129.608 334.079 123.315 332.313C117.839 330.445 112.665 327.789 107.955 324.429C106.624 323.584 105.395 322.739 104.038 321.868C102.552 320.883 101.117 319.823 99.7372 318.694C98.6336 317.808 97.5821 316.859 96.5882 315.852C95.8587 315.396 95.1731 314.873 94.5402 314.291C92.3087 312.122 90.5635 309.504 89.42 306.61C88.3419 303.868 87.6943 300.975 87.5 298.034C87.5 296.882 87.5 295.705 87.5 294.553C87.5 294.143 87.2952 293.708 87.1928 293.273C86.9112 291.967 86.6041 290.713 86.2969 289.305C85.5201 288.493 84.8569 287.58 84.3256 286.591C83.1545 284.578 82.4054 282.348 82.124 280.037C82.124 279.576 82.124 279.064 82.124 278.603C82.0092 274.408 82.3959 270.214 83.2759 266.11C83.2759 265.701 83.2759 265.266 83.2759 264.856C83.2759 263.525 83.276 262.296 83.0968 260.99C82.8547 260.421 82.5812 259.865 82.2775 259.326C80.9974 256.666 80.4242 253.722 80.6135 250.776C80.5861 250.315 80.5861 249.854 80.6135 249.393C80.685 248.272 81.0246 247.185 81.6038 246.223C82.1829 245.261 82.9846 244.452 83.9415 243.864C83.9352 243.906 83.9352 243.949 83.9415 243.992C84.4347 244.092 84.9218 244.221 85.4007 244.376C86.8309 246.585 88.797 248.396 91.1157 249.64C93.4345 250.885 96.0304 251.522 98.6618 251.492H99.1739C100.637 251.447 102.086 251.189 103.475 250.725C104.661 250.378 105.797 249.879 106.854 249.24L107.878 249.419C109.366 251.22 111.236 252.667 113.352 253.654C115.469 254.642 117.779 255.145 120.115 255.128C123.435 255.13 126.673 254.101 129.382 252.184H130.099C130.573 252.66 131.077 253.105 131.61 253.515C132.988 254.625 134.547 255.491 136.218 256.075C139.905 253.999 144.033 252.829 148.261 252.659C152.489 252.49 156.697 253.327 160.538 255.102C161.084 255.14 161.631 255.14 162.177 255.102C166.219 254.745 169.956 252.803 172.571 249.701C173.481 250.176 174.432 250.57 175.412 250.878C176.898 251.331 178.442 251.564 179.995 251.569C182.79 251.6 185.541 250.874 187.957 249.468C190.373 248.061 192.363 246.028 193.717 243.582C195.61 244.652 197.703 245.32 199.866 245.544C202.028 245.769 204.214 245.545 206.287 244.888C207.912 244.407 209.445 243.654 210.818 242.66C212.394 241.532 213.728 240.099 214.739 238.445C215.751 236.792 216.42 234.952 216.706 233.035L217.653 232.548C217.833 234.34 217.884 236.055 218.037 237.822C218.126 236.055 217.997 234.284 217.653 232.548C221.048 237.92 223.145 244.008 223.781 250.331C224.416 256.654 223.572 263.038 221.314 268.978C220.845 270.028 220.493 271.127 220.264 272.255C220.195 272.488 220.152 272.728 220.137 272.971C220.243 275.1 220.765 277.187 221.673 279.116C222.672 282.37 222.881 285.816 222.285 289.168C221.688 292.52 220.303 295.682 218.242 298.393Z" fill="#F9DE96"/>
<path opacity="0.2" d="M110.028 262.115C114.011 262.804 118.074 262.907 122.086 262.422L124.877 262.243C129.877 261.742 134.926 262.336 139.674 263.984C141.793 264.691 143.718 265.883 145.296 267.466C146.874 269.048 148.061 270.976 148.762 273.097C148.975 274.103 149.129 275.12 149.223 276.144C149.29 278.203 149.76 280.23 150.605 282.109C151.291 283.27 152.242 284.253 153.382 284.974C154.521 285.695 155.816 286.134 157.159 286.256H157.697C158.55 286.287 159.399 286.116 160.173 285.755C160.948 285.395 161.626 284.856 162.151 284.183C163.076 282.894 163.461 281.296 163.227 279.728C162.873 277.135 162.094 274.618 160.922 272.278C160.564 271.51 160.231 270.717 159.924 269.923C159.296 268.72 158.947 267.391 158.903 266.035C158.858 264.679 159.12 263.33 159.668 262.089C161.493 259.952 163.878 258.365 166.555 257.507C169.959 255.971 173.8 254.23 175.336 250.748C174.356 250.44 173.405 250.046 172.494 249.571C169.879 252.673 166.142 254.615 162.1 254.972C159.552 256.049 157.36 257.824 155.777 260.092C154.913 261.826 154.464 263.737 154.464 265.673C154.464 267.61 154.913 269.521 155.777 271.254C156.109 272.099 156.468 272.918 156.826 273.814C157.852 275.775 158.536 277.896 158.849 280.086C158.964 280.682 158.864 281.299 158.567 281.827C158.567 281.827 158.337 282.186 157.646 282.134C157.056 282.073 156.489 281.878 155.987 281.563C155.486 281.247 155.063 280.821 154.753 280.317C154.171 278.874 153.841 277.341 153.78 275.786C153.69 274.572 153.519 273.366 153.268 272.176C152.404 269.395 150.889 266.86 148.85 264.781C146.811 262.702 144.306 261.139 141.543 260.22C138.314 258.986 134.909 258.277 131.456 258.121L135.987 256.176L136.218 256.047C134.547 255.463 132.988 254.597 131.61 253.487L121.114 257.993C120.894 258.081 120.694 258.212 120.525 258.377C117.413 258.75 114.264 258.655 111.181 258.096C107.52 257.276 103.782 254.691 103.5 251.311C103.498 251.081 103.446 250.854 103.347 250.646C101.958 251.11 100.509 251.369 99.0459 251.414C99.3531 257.174 104.908 260.988 110.028 262.115Z" fill="#1D1D1B"/>
<path opacity="0.2" d="M220.059 272.841C220.075 272.598 220.118 272.358 220.187 272.124C219.652 271.76 219.077 271.459 218.472 271.228C216.395 270.524 214.214 270.178 212.021 270.204L208.309 270.051C207.897 268.918 207.409 267.815 206.849 266.748C208.576 265.51 210.218 264.159 211.765 262.703C213.449 262.616 215.133 262.886 216.706 263.497C216.989 263.618 217.294 263.679 217.602 263.676C218.03 263.683 218.452 263.569 218.819 263.347C219.186 263.126 219.483 262.805 219.675 262.422C219.786 262.169 219.843 261.896 219.843 261.621C219.843 261.345 219.786 261.072 219.675 260.82C219.564 260.567 219.403 260.34 219.2 260.154C218.997 259.967 218.758 259.824 218.498 259.734C217.372 259.302 216.206 258.984 215.016 258.786C216.669 256.554 217.623 253.881 217.755 251.106C217.752 250.823 217.692 250.543 217.579 250.283C217.466 250.023 217.302 249.788 217.097 249.593C216.892 249.397 216.65 249.244 216.385 249.144C216.119 249.043 215.837 248.997 215.554 249.007C214.992 248.986 214.444 249.186 214.028 249.564C213.611 249.942 213.36 250.468 213.326 251.029C213.326 255.894 208.872 259.99 204.648 263.113C203.931 262.038 203.163 260.962 202.344 259.913C204.988 257.902 207.122 255.297 208.572 252.308C210.022 249.319 210.748 246.031 210.69 242.709C209.316 243.703 207.784 244.456 206.158 244.936C205.841 247.446 204.992 249.858 203.667 252.012C202.343 254.167 200.574 256.014 198.478 257.43C198.205 257.665 197.914 257.879 197.608 258.07C197.172 258.351 196.712 258.633 196.276 258.863C190.72 261.833 184.435 263.165 178.151 262.703C176.513 262.703 172.161 262.422 170.65 265.545C170.134 266.817 170.134 268.241 170.65 269.513C171.188 271.51 171.93 273.532 172.647 275.478C173.537 277.741 174.281 280.058 174.874 282.416C174.874 282.569 175.335 285.821 175.335 285.821C175.271 287.399 175.013 288.964 174.567 290.48C173.542 292.489 172.048 294.221 170.213 295.531C168.377 296.841 166.253 297.69 164.02 298.006C159.057 298.805 153.974 298.365 149.223 296.726C147.131 296.189 145.154 295.279 143.386 294.038C142.646 293.532 142.018 292.878 141.542 292.118L141.184 291.478C140.389 289.107 140.126 286.59 140.416 284.105C140.416 279.958 140.646 275.273 136.602 272.278C132.557 269.283 127.283 270.255 122.982 270.998H122.624C113.913 272.781 104.883 272.18 96.4855 269.257C88.1141 265.955 81.8675 259.222 80.6131 252.053C80.5466 251.644 80.349 251.266 80.05 250.978C79.8608 253.924 80.4338 256.869 81.7139 259.529C82.0175 260.068 82.291 260.623 82.5332 261.193C82.5332 262.447 82.5332 263.753 82.7124 265.059C86.0741 268.559 90.1644 271.277 94.6934 273.02C95.231 273.251 95.7687 273.43 96.3319 273.635C95.1132 276.081 94.7095 278.853 95.1798 281.545C95.2921 282.042 95.5729 282.484 95.9742 282.796C96.3756 283.109 96.8728 283.273 97.3815 283.261H97.7399C98.02 283.235 98.2922 283.154 98.5398 283.02C98.7873 282.887 99.0051 282.704 99.1799 282.484C99.3547 282.264 99.4828 282.01 99.5565 281.739C99.6302 281.467 99.648 281.184 99.6087 280.905C99.2656 278.825 99.6548 276.689 100.71 274.864C108.195 276.403 115.909 276.464 123.417 275.043H123.801C127.565 274.428 131.481 273.737 133.786 275.478C134.489 276.021 135.029 276.747 135.347 277.577C128.998 276.758 122.726 279.344 117.862 281.827L115.635 282.953C111.219 285.662 106.282 287.407 101.145 288.073C94.2327 288.457 87.7557 284.669 81.7395 280.393C82.021 282.705 82.77 284.934 83.9412 286.947C88.7745 290.18 94.4119 292.006 100.223 292.221H101.375C107.195 291.581 112.799 289.657 117.785 286.589L119.961 285.488C119.389 287.384 118.714 289.247 117.939 291.069C117.196 292.989 116.428 294.96 115.814 296.982V297.315C112.024 296.998 108.231 297.894 104.985 299.875C104.669 299.878 104.357 299.938 104.063 300.054C102.777 300.405 101.433 300.491 100.113 300.306C98.7923 300.121 97.5235 299.67 96.3832 298.979C95.1799 298.339 94.0022 297.622 92.799 296.829C91.1228 295.686 89.3595 294.675 87.5253 293.808C87.3605 293.744 87.1885 293.701 87.0133 293.68C87.0133 294.115 87.2436 294.55 87.3205 294.96C87.3205 296.112 87.3205 297.29 87.3205 298.442C88.2933 298.979 89.2149 299.568 90.1877 300.208C91.1605 300.848 92.7478 301.821 94.1047 302.563C96.0316 303.573 98.1192 304.24 100.274 304.535C98.0983 307.837 96.9975 309.296 97.9447 313.085C95.3498 310.87 92.556 308.899 89.5989 307.197L89.1125 306.787C90.256 309.681 92.0012 312.299 94.2326 314.468C94.8656 315.05 95.5512 315.573 96.2806 316.029C97.2746 317.036 98.3261 317.985 99.4296 318.871C100.809 320 102.245 321.06 103.73 322.045C105.011 322.941 106.29 323.786 107.647 324.605C112.357 327.966 117.532 330.622 123.008 332.49C129.3 334.256 135.976 334.105 142.182 332.055C144.441 331.33 146.6 330.324 148.608 329.06C148.941 329.265 149.274 329.418 149.632 329.598C151.218 330.382 152.895 330.967 154.624 331.338C156.687 330.379 158.828 329.6 161.025 329.009C163.276 328.43 165.57 328.036 167.885 327.831C163.522 326.281 159.878 323.184 157.645 319.127C157.341 318.624 156.863 318.25 156.301 318.076C155.74 317.901 155.135 317.938 154.599 318.18C154.341 318.286 154.107 318.446 153.915 318.648C153.722 318.85 153.574 319.09 153.48 319.353C153.386 319.616 153.348 319.896 153.368 320.174C153.389 320.453 153.468 320.724 153.6 320.97C155.053 323.635 157.051 325.963 159.463 327.805C158.11 328.157 156.711 328.295 155.316 328.215C154.215 328.061 153.191 327.575 152.115 327.37C151.537 327.306 150.953 327.306 150.375 327.37C151.284 323.516 150.718 319.461 148.787 316.004C149.427 315.62 150.042 315.236 150.656 314.8C152.272 313.726 153.684 312.374 154.829 310.807C155.652 309.543 156.339 308.196 156.877 306.787C157.133 306.199 157.364 305.635 157.645 305.072C157.405 308.734 158.567 312.349 160.896 315.184C164.231 318.985 168.297 322.076 172.852 324.273C174.593 325.245 176.385 326.244 178.254 327.089L201.755 325.117C202.988 325.034 204.186 324.675 205.262 324.068C207.045 323.997 208.791 323.543 210.382 322.737C210.587 322.455 210.766 322.148 210.946 321.841C211.823 320.064 212.075 318.044 211.662 316.106C210.485 308.426 204.417 301.13 195.688 296.931C195.781 296.799 195.851 296.652 195.893 296.496C196.524 294.633 196.844 292.678 196.84 290.71V290.301C200.7 290.728 204.397 292.088 207.613 294.265C210.829 296.442 213.467 299.369 215.298 302.794C215.49 303.17 215.783 303.485 216.145 303.702C216.508 303.919 216.924 304.03 217.346 304.023C217.047 302.889 216.671 301.777 216.219 300.694C216.834 300.042 217.415 299.358 217.96 298.646C215.965 295.578 213.349 292.962 210.28 290.966C210.337 290.765 210.38 290.559 210.408 290.352C211.227 285.074 210.922 279.682 209.512 274.531H211.637C213.277 274.487 214.913 274.721 216.475 275.222C216.979 275.378 217.437 275.655 217.808 276.03C218.178 276.406 218.451 276.867 218.6 277.372C218.664 277.911 218.929 278.405 219.342 278.756C219.755 279.108 220.286 279.29 220.827 279.267H221.032H221.391C220.517 277.237 220.064 275.051 220.059 272.841ZM128.025 329.828C118.963 329.393 103.833 317.514 103.423 316.618C103.114 315.919 102.849 315.2 102.63 314.468C102.177 312.553 102.271 310.549 102.9 308.685C103.529 306.82 104.668 305.17 106.188 303.92C108.669 301.92 111.815 300.932 114.995 301.155C114.597 303.484 114.757 305.875 115.46 308.131C116.163 310.386 117.389 312.444 119.04 314.135C120.224 315.21 121.583 316.076 123.059 316.695C120.478 317.573 117.808 318.166 115.097 318.461C114.814 318.474 114.537 318.544 114.282 318.666C114.027 318.789 113.799 318.962 113.613 319.175C113.426 319.388 113.285 319.636 113.197 319.905C113.109 320.174 113.076 320.458 113.1 320.74C113.197 321.255 113.475 321.718 113.884 322.046C114.292 322.375 114.804 322.547 115.327 322.532H115.609C120.33 322.047 124.935 320.766 129.229 318.743C131.09 319.13 132.985 319.327 134.886 319.332C138.33 319.336 141.747 318.72 144.973 317.514C146.867 320.765 146.048 323.402 144.615 326.807C140.314 329.598 133.274 330.11 128.025 329.828ZM152.883 305.072C152.457 306.236 151.908 307.352 151.245 308.4C150.367 309.534 149.312 310.519 148.122 311.319C143.163 314.605 137.155 315.919 131.277 315.005C130.411 314.89 129.555 314.71 128.717 314.468C127.949 314.283 127.197 314.043 126.464 313.751C124.91 313.166 123.477 312.298 122.24 311.191C121.055 309.921 120.185 308.391 119.701 306.723C119.216 305.056 119.13 303.297 119.449 301.591C119.586 300.396 119.817 299.215 120.14 298.058C120.152 297.938 120.152 297.818 120.14 297.699C120.678 295.882 121.395 294.064 122.137 292.144C123.424 289.162 124.402 286.057 125.056 282.877C128.401 281.441 132.081 280.97 135.68 281.52L135.885 281.776C135.885 282.416 135.885 283.081 135.885 283.747C135.49 287.105 136.03 290.507 137.446 293.578C134.098 296.467 131.297 299.936 129.177 303.818C129.05 304.064 128.976 304.335 128.959 304.612C128.943 304.888 128.984 305.166 129.08 305.426C129.176 305.686 129.326 305.923 129.519 306.122C129.712 306.322 129.944 306.478 130.201 306.583C130.519 306.712 130.857 306.781 131.2 306.787C131.603 306.796 132.001 306.695 132.352 306.497C132.703 306.299 132.995 306.01 133.197 305.661C135.013 302.316 137.395 299.31 140.237 296.778C142.538 298.468 145.147 299.694 147.917 300.387C150.053 301.042 152.236 301.538 154.445 301.872C153.854 302.912 153.332 303.989 152.883 305.098V305.072ZM207.489 316.362C207.76 317.5 207.652 318.696 207.182 319.767C205.864 321.336 204.064 322.425 202.062 322.865C198.218 324.583 194.083 325.556 189.876 325.732C184.685 325.235 179.693 323.477 175.335 320.612C171.299 318.668 167.682 315.955 164.685 312.624C163.44 311.222 162.631 309.487 162.358 307.631C162.085 305.776 162.36 303.881 163.149 302.179L164.916 301.923C167.866 301.481 170.665 300.332 173.076 298.576C175.487 296.82 177.439 294.508 178.766 291.837C179.523 289.967 179.897 287.965 179.867 285.949C182.515 285.893 185.163 286.082 187.777 286.512H188.161C188.67 286.524 189.167 286.36 189.568 286.048C189.97 285.735 190.25 285.293 190.363 284.797C190.406 284.52 190.393 284.238 190.324 283.966C190.255 283.695 190.132 283.441 189.962 283.218C189.792 282.996 189.579 282.81 189.336 282.672C189.092 282.534 188.823 282.447 188.545 282.416C185.506 281.938 182.43 281.741 179.354 281.827C178.696 279.164 177.841 276.554 176.794 274.019C176.078 272.048 175.386 270.204 174.874 268.387C174.644 267.491 174.67 267.158 174.721 267.055C174.772 266.953 175.156 266.518 177.87 266.646H179.892C179.989 266.734 180.102 266.804 180.225 266.851C184.586 268.693 188.082 272.125 190.004 276.451C191.902 280.809 192.735 285.557 192.436 290.301C192.451 291.847 192.218 293.385 191.745 294.858C191.018 296.499 190.042 298.019 188.852 299.363L187.598 301.002L185.703 303.434L181.403 309.347C181.232 309.563 181.109 309.813 181.042 310.08C180.975 310.347 180.965 310.625 181.013 310.896C181.062 311.167 181.167 311.425 181.323 311.652C181.478 311.88 181.68 312.071 181.915 312.215C182.299 312.476 182.756 312.61 183.22 312.599C183.571 312.602 183.918 312.528 184.236 312.382C184.555 312.236 184.837 312.022 185.063 311.754L187.623 308.426C189.315 311.266 191.847 313.511 194.868 314.852C195.187 314.973 195.526 315.034 195.867 315.031C196.273 315.039 196.674 314.936 197.026 314.733C197.378 314.53 197.668 314.235 197.864 313.879C197.99 313.632 198.063 313.362 198.078 313.086C198.092 312.81 198.049 312.533 197.95 312.275C197.851 312.017 197.699 311.782 197.503 311.586C197.307 311.391 197.072 311.239 196.814 311.14C195.39 310.501 194.111 309.58 193.054 308.431C191.998 307.282 191.187 305.93 190.67 304.458L192.667 301.898L193.793 300.413C201.32 303.869 206.491 309.936 207.489 316.388V316.362ZM206.312 288.355C203.38 286.987 200.238 286.122 197.019 285.795C196.874 281.996 196.005 278.26 194.459 274.787C192.87 271.347 190.472 268.343 187.47 266.031C191.479 265.416 195.345 264.09 198.888 262.114C200.102 263.65 201.198 265.276 202.165 266.979V267.158C202.153 267.243 202.153 267.329 202.165 267.414C202.251 267.591 202.364 267.755 202.497 267.9C205.792 274.19 207.122 281.326 206.312 288.381V288.355Z" fill="#1D1D1B"/>
</g>
</svg>
