<svg width="298" height="298" viewBox="0 0 298 298" fill="none" xmlns="http://www.w3.org/2000/svg">
<circle cx="149" cy="149" r="149" fill="#EEA1B3"/>
<mask id="mask0_1_16640" style="mask-type:alpha" maskUnits="userSpaceOnUse" x="19" y="19" width="260" height="260">
<circle cx="149" cy="149" r="130" fill="#D9D9D9"/>
</mask>
<g mask="url(#mask0_1_16640)">
<path d="M42.8684 208.577H42.7116L40.406 208.137C40.305 208.117 40.2091 208.077 40.1237 208.019C40.0384 207.961 39.9651 207.887 39.9083 207.801C39.8515 207.715 39.8122 207.619 39.7926 207.518C39.773 207.417 39.7736 207.313 39.7942 207.212C39.8109 207.111 39.8481 207.014 39.9036 206.927C39.9591 206.841 40.0317 206.767 40.1169 206.71C40.2021 206.652 40.2982 206.613 40.3992 206.594C40.5001 206.575 40.6038 206.578 40.704 206.6L43.0096 207.039C43.1119 207.058 43.2096 207.097 43.2967 207.154C43.3838 207.211 43.4588 207.285 43.5172 207.371C43.5756 207.457 43.6162 207.554 43.6367 207.656C43.6573 207.758 43.6575 207.863 43.637 207.965C43.5952 208.138 43.4969 208.292 43.3577 208.403C43.2185 208.513 43.0463 208.575 42.8684 208.577Z" fill="white"/>
<path d="M56.0271 144.457C55.891 144.455 55.7568 144.423 55.635 144.362L53.596 143.186C53.415 143.082 53.2828 142.91 53.2284 142.709C53.174 142.507 53.2018 142.293 53.3058 142.112C53.4098 141.931 53.5815 141.798 53.783 141.744C53.9845 141.69 54.1993 141.717 54.3802 141.821L56.4193 142.998C56.5969 143.103 56.7271 143.272 56.7827 143.471C56.8382 143.67 56.8148 143.882 56.7173 144.064C56.6463 144.184 56.5454 144.283 56.4243 144.352C56.3033 144.421 56.1663 144.457 56.0271 144.457Z" fill="white"/>
<path d="M92.2443 101.668C92.1012 101.669 91.9608 101.629 91.8388 101.555C91.7169 101.48 91.6183 101.372 91.5541 101.245L90.4876 99.1428C90.4421 99.0502 90.4153 98.9494 90.4088 98.8464C90.4023 98.7434 90.4162 98.6401 90.4497 98.5424C90.4833 98.4448 90.5357 98.3548 90.6041 98.2774C90.6725 98.2001 90.7555 98.1371 90.8483 98.0919C90.9396 98.0437 91.0396 98.0144 91.1425 98.0057C91.2453 97.997 91.3489 98.0091 91.447 98.0413C91.5451 98.0735 91.6356 98.1251 91.7133 98.1931C91.791 98.2611 91.8542 98.344 91.8991 98.437L92.9501 100.539C92.9983 100.63 93.0276 100.73 93.0363 100.833C93.045 100.936 93.0328 101.039 93.0006 101.137C92.9684 101.236 92.9168 101.326 92.8488 101.404C92.7808 101.482 92.6979 101.545 92.605 101.59C92.4936 101.647 92.3693 101.674 92.2443 101.668Z" fill="white"/>
<path d="M195.498 103.566C195.347 103.573 195.197 103.529 195.074 103.441C194.986 103.387 194.91 103.315 194.85 103.231C194.791 103.147 194.748 103.051 194.727 102.95C194.705 102.849 194.703 102.744 194.723 102.643C194.742 102.541 194.782 102.445 194.839 102.359L196.125 100.382C196.24 100.21 196.418 100.091 196.621 100.05C196.824 100.009 197.035 100.049 197.208 100.163C197.296 100.217 197.372 100.289 197.432 100.373C197.491 100.457 197.533 100.553 197.555 100.654C197.577 100.755 197.579 100.859 197.559 100.961C197.54 101.063 197.5 101.159 197.443 101.245L196.157 103.221C196.082 103.327 195.983 103.413 195.869 103.473C195.754 103.533 195.627 103.565 195.498 103.566Z" fill="white"/>
<path d="M219.934 130.56C219.756 130.561 219.583 130.501 219.444 130.391C219.305 130.281 219.207 130.126 219.167 129.953C219.127 129.78 219.146 129.598 219.223 129.438C219.3 129.277 219.429 129.148 219.589 129.07L221.691 128.004C221.877 127.915 222.09 127.901 222.285 127.965C222.481 128.029 222.645 128.167 222.742 128.349C222.831 128.537 222.845 128.752 222.781 128.951C222.717 129.149 222.579 129.315 222.396 129.415L220.295 130.466C220.185 130.529 220.06 130.561 219.934 130.56Z" fill="white"/>
<path d="M244.607 210.553C244.399 210.58 244.188 210.523 244.022 210.396C243.856 210.268 243.748 210.079 243.72 209.871C243.693 209.663 243.75 209.453 243.878 209.286C244.006 209.12 244.195 209.012 244.403 208.985L246.661 208.342C246.863 208.288 247.078 208.316 247.259 208.418C247.441 208.521 247.575 208.69 247.634 208.891C247.687 209.09 247.659 209.303 247.556 209.482C247.453 209.661 247.284 209.792 247.085 209.847L244.826 210.49L244.607 210.553Z" fill="white"/>
<path d="M262.488 280.475H262.378L260.041 280.146C259.939 280.133 259.842 280.099 259.753 280.047C259.665 279.996 259.588 279.927 259.527 279.845C259.465 279.763 259.421 279.67 259.396 279.571C259.371 279.472 259.366 279.369 259.382 279.268C259.413 279.064 259.522 278.88 259.686 278.754C259.849 278.628 260.055 278.571 260.26 278.593L262.597 278.923C262.7 278.93 262.801 278.957 262.893 279.003C262.986 279.049 263.068 279.113 263.136 279.191C263.204 279.269 263.255 279.36 263.288 279.457C263.321 279.555 263.334 279.659 263.327 279.762C263.319 279.865 263.292 279.965 263.246 280.058C263.2 280.15 263.136 280.232 263.058 280.3C262.98 280.368 262.89 280.42 262.792 280.452C262.694 280.485 262.59 280.498 262.488 280.491V280.475Z" fill="white"/>
<path d="M29.379 276.962C29.171 276.962 28.9715 276.879 28.8244 276.732C28.6773 276.585 28.5947 276.386 28.5947 276.178C28.5947 275.97 28.6773 275.77 28.8244 275.623C28.9715 275.476 29.171 275.393 29.379 275.393L31.716 275.158C31.924 275.137 32.1318 275.2 32.2936 275.332C32.4553 275.465 32.5578 275.656 32.5786 275.864C32.5994 276.072 32.5368 276.28 32.4044 276.441C32.272 276.603 32.0809 276.706 31.8729 276.726L29.5358 276.962H29.379Z" fill="white"/>
<path d="M145.18 68.0713L120.085 68.7458L119.991 74.6432L61.2822 91.379C51.6831 92.9475 30.5556 104.774 29.6145 127.282L11.2475 248.761C10.1652 293.729 12.6434 321.821 18.4625 358.429L36.3433 354.445C43.6681 305.305 48.7814 290.388 45.864 252.494C59.5412 237.358 63.6506 200.734 66.8346 161.914L74.583 311.014L73.3595 346.65C68.654 378.02 65.3132 410.581 63.7291 440.759H135.158C137.213 421.31 138.577 398.724 139.597 380.027C141.463 380.027 143.314 380.153 145.196 380.153C147.078 380.153 148.929 380.153 150.796 380.027C151.815 398.724 153.18 421.31 155.219 440.759H226.695C225.126 410.613 221.77 378.02 217.08 346.65L215.856 311.014L223.589 161.914C226.726 200.687 230.882 237.358 244.56 252.494C241.642 290.357 246.771 305.273 254.08 354.445L271.914 358.429C277.717 321.821 280.196 293.729 279.113 248.761L260.637 127.282C259.696 104.774 238.584 92.9318 228.985 91.379L170.276 74.6432L170.166 68.7458L145.18 68.0713Z" fill="#FFEAC8"/>
<path d="M168.818 35.7922C184.911 22.4287 186.416 -1.69456 184.424 -20.6732C181.946 -44.624 159.689 -52.937 137.213 -52.9997C101.702 -53.0938 96.1812 -29.9587 95.3343 -21.7712C95.0676 -19.3557 93.7658 -8.89389 93.7658 -8.89389C93.4678 -7.48225 92.1973 -1.05149 94.5814 0.438568C95.096 0.697456 95.5207 1.10515 95.8004 1.60866C96.0801 2.11217 96.2019 2.68823 96.1499 3.26187L92.3698 22.0837C92.2449 22.7095 92.26 23.3551 92.4138 23.9744C92.5677 24.5937 92.8566 25.1714 93.2597 25.666C93.6629 26.1606 94.1704 26.5599 94.746 26.8354C95.3216 27.111 95.9509 27.2558 96.589 27.2597H99.726C99.726 27.2597 99.726 30.0673 99.726 34.7257C99.726 36.7177 99.726 39.039 99.8201 41.5956L100.087 43.5406L100.699 47.9166L100.996 50.0811L101.812 55.9786C102.184 57.5828 103.145 58.9887 104.505 59.9182C105.864 60.8477 107.523 61.233 109.153 60.9978L120.414 60.5272L120.258 68.6834L170.339 70.1578L168.818 35.7922Z" fill="#FFEAC8"/>
<path d="M126.029 231.116C130.028 227.477 133.212 221.485 137.008 217.674C140.443 214.239 168.095 208.687 179.624 200.844C180.11 200.528 180.491 200.073 180.716 199.539C180.941 199.004 181.001 198.414 180.888 197.845C180.775 197.276 180.494 196.754 180.081 196.347C179.669 195.939 179.143 195.664 178.573 195.558C162.386 191.261 142.403 185.159 126.813 187.167C117.057 188.437 111.442 184.563 101.717 185.834C97.0115 186.43 86.785 189.677 82.6285 199.95C80.3229 205.644 73.0922 213.612 80.0092 230.896C81.1968 234.367 81.609 238.056 81.2169 241.703C81.2374 242.498 81.4531 243.275 81.8449 243.967C82.2367 244.658 82.7925 245.243 83.4635 245.669C84.1345 246.095 84.9 246.35 85.6926 246.411C86.4851 246.471 87.2805 246.336 88.0084 246.017C93.3727 243.915 98.4703 241.64 104.211 239.743C110.516 237.719 118.217 238.268 126.029 231.116Z" fill="#96482B"/>
<path opacity="0.2" d="M94.5659 230.284C93.3302 233.084 91.4827 235.572 89.1593 237.564C86.8358 239.556 84.0955 241.003 81.1396 241.797C81.1809 242.579 81.4109 243.339 81.8101 244.012C82.2092 244.686 82.7655 245.253 83.4315 245.664C84.0975 246.076 84.8532 246.32 85.6341 246.376C86.415 246.432 87.1978 246.297 87.9155 245.985C93.2797 243.883 98.3773 241.609 104.118 239.711C110.517 237.64 118.234 238.142 126.077 231.037C130.076 227.398 133.26 221.406 137.056 217.595C140.491 214.16 168.144 208.608 179.672 200.765C180.084 200.5 180.421 200.133 180.651 199.7C180.88 199.266 180.994 198.781 180.981 198.291C180.969 197.801 180.83 197.322 180.579 196.901C180.327 196.48 179.972 196.131 179.546 195.887C148.82 204.781 109.545 194.679 94.5659 230.284Z" fill="#1D1D1B"/>
<path d="M136.302 235.727C134.563 228.379 133.451 220.897 132.977 213.36C132.538 212.184 130.06 212.953 129.322 213.549C129.573 217.674 130.028 221.799 130.671 225.893C128.68 224.405 126.353 223.43 123.895 223.054C123.79 222.654 123.603 222.28 123.346 221.956C122.116 220.903 120.671 220.132 119.112 219.697C116.539 218.552 114.485 216.466 111.755 215.697C110.265 215.296 108.692 215.308 107.208 215.734C105.724 216.159 104.384 216.982 103.333 218.113C102.393 219.219 101.833 220.598 101.735 222.046C101.636 223.494 102.003 224.935 102.784 226.159C103.675 227.405 104.895 228.378 106.308 228.971C107.72 229.564 109.27 229.752 110.783 229.516C113.167 229.139 115.253 227.775 117.637 227.445C119.172 227.466 120.701 227.249 122.17 226.802C122.44 226.681 122.684 226.511 122.892 226.3C125.336 226.609 127.611 227.711 129.369 229.437C130.313 230.371 131.048 231.494 131.526 232.732C132.005 233.97 132.216 235.296 132.146 236.621L135.816 236.825C135.816 236.511 135.816 236.197 135.816 235.884L136.302 235.727Z" fill="#A8A166"/>
<path d="M114.532 244.4C111.567 244.636 109.826 247.537 108.807 250.094C107.238 253.56 105.843 257.623 107.929 260.822C109.654 263.442 113.199 264.461 116.445 265.214C128.633 268.022 141.541 269.841 153.681 266.642C158.595 265.186 163.376 263.313 167.97 261.042C174.824 257.905 181.914 254.486 186.572 248.871C188.862 246.126 190.556 242.848 193.552 240.762C194.823 239.883 196.407 239.068 196.689 237.625C192.47 236.056 187.561 237.06 183.467 238.942C179.373 240.824 175.781 243.506 171.687 245.404C162.888 249.467 152.599 249.561 142.733 249.576C139.121 249.656 135.506 249.514 131.911 249.153C127.525 248.634 123.243 247.461 119.206 245.671C117.783 244.852 116.173 244.415 114.532 244.4Z" fill="#A8A166"/>
<path d="M191.482 216.058C190.815 213.53 189.581 211.186 187.875 209.204C185.551 206.664 182.656 204.713 179.431 203.51C176.205 202.308 172.739 201.888 169.32 202.287C160.583 203.432 155.391 209.863 151.596 215.745C150.874 216.843 150.137 217.956 149.368 219.085C147.165 215.152 145.979 210.732 145.918 206.224L145.557 54.7866L135.315 56.0257L134.907 206.255C134.994 213.76 137.392 221.056 141.777 227.147C139.735 228.572 137.449 229.609 135.033 230.206C128.429 231.775 120.038 230.379 115.113 234.017C114.137 234.732 113.351 235.674 112.823 236.762C108.069 239.03 104.249 242.877 102.016 247.648C100.564 251.045 100.063 254.774 100.566 258.434C101.068 262.095 102.556 265.55 104.871 268.43H104.965L113.764 262.517C112.537 260.983 111.744 259.147 111.469 257.202C111.193 255.257 111.444 253.274 112.195 251.459C112.987 249.719 114.207 248.209 115.74 247.067C116.735 248.07 117.816 248.983 118.971 249.796C131.19 258.564 151.047 260.18 166.026 254.643C181.005 249.106 190.573 237.233 192.047 224.842C192.436 221.905 192.244 218.921 191.482 216.058Z" fill="#F9DE96"/>
<path opacity="0.1" d="M192.047 224.873C190.573 237.248 180.942 249.122 166.026 254.674C151.11 260.227 131.237 258.595 118.971 249.828C117.817 249.014 116.735 248.101 115.74 247.098C114.207 248.24 112.988 249.751 112.196 251.49C111.444 253.305 111.193 255.288 111.469 257.233C111.745 259.178 112.537 261.014 113.764 262.548L104.965 268.461C103.863 265.521 103.497 262.356 103.899 259.242C104.3 256.128 105.458 253.16 107.271 250.596C109.229 247.817 112.154 245.871 115.474 245.138C119.787 244.322 124.116 246.11 128.32 247.349C139.203 250.494 150.815 250.01 161.399 245.969C171.593 242.041 180.074 234.643 185.35 225.077C186.569 222.312 188.152 219.722 190.055 217.376C190.498 216.897 190.981 216.456 191.498 216.058C192.259 218.932 192.445 221.927 192.047 224.873Z" fill="#1D1D1B"/>
<path d="M209.755 291.455C209.748 293.304 209.081 295.09 207.872 296.49C209.073 297.894 209.74 299.677 209.755 301.525C209.742 302.779 209.433 304.013 208.852 305.125C208.272 306.238 207.436 307.197 206.414 307.924L206.32 308.426C206.767 309.412 207.002 310.481 207.01 311.563C207.008 312.634 206.788 313.692 206.361 314.674C205.935 315.656 205.312 316.54 204.532 317.272L204.359 317.868C205.03 319.016 205.393 320.319 205.41 321.648C205.394 323.055 205.009 324.433 204.294 325.644C203.578 326.856 202.557 327.857 201.332 328.55C201.711 329.471 201.908 330.456 201.912 331.452C201.83 333.697 200.862 335.818 199.218 337.35C197.574 338.882 195.39 339.7 193.144 339.623H192.988C192.523 341.539 191.417 343.239 189.854 344.44C188.29 345.641 186.363 346.271 184.392 346.227C182.88 346.213 181.394 345.831 180.063 345.113C179.228 345.993 178.224 346.696 177.111 347.178C175.998 347.661 174.799 347.913 173.585 347.921C171.93 347.92 170.305 347.476 168.88 346.634C168.043 347.764 166.949 348.679 165.69 349.304C164.43 349.928 163.04 350.244 161.634 350.226C159.973 350.22 158.345 349.759 156.928 348.893V360.014C156.928 363.339 153.791 366.288 150.968 368.138C147.956 370.068 150.325 380.31 148.38 380.31C147.799 380.31 143.674 380.31 143.094 380.31C142.514 380.31 142.514 369.33 141.824 369.001C138.53 367.731 137.118 364.452 136.804 361.049C136.773 360.715 136.773 360.379 136.804 360.045V348.077C136.897 344.23 138.085 340.489 140.23 337.294C142.375 334.099 145.387 331.582 148.913 330.04C151.542 328.809 154.377 328.075 157.273 327.875L177.773 326.166C178.529 326.115 179.263 325.895 179.922 325.523C180.854 325.035 181.578 324.227 181.961 323.248C187.498 308.363 189.302 290.31 187.341 269.496L186.761 269.794C186.401 271.992 185.258 273.984 183.542 275.403C181.826 276.822 179.654 277.571 177.428 277.511C175.778 277.501 174.159 277.069 172.723 276.257C171.893 277.755 170.674 279.001 169.194 279.863C167.714 280.724 166.028 281.169 164.316 281.15C162.729 281.142 161.168 280.749 159.767 280.005C158.858 281.074 157.725 281.93 156.448 282.513C155.172 283.095 153.783 283.39 152.379 283.377C150.568 282.287 148.455 281.808 146.35 282.011C144.246 282.214 142.263 283.089 140.694 284.507C139.399 284.51 138.116 284.256 136.92 283.758C135.724 283.259 134.64 282.528 133.73 281.605H133.291C131.631 282.78 129.647 283.41 127.613 283.409C126.182 283.419 124.767 283.111 123.47 282.506C122.173 281.901 121.027 281.015 120.116 279.911L119.488 279.801C117.97 280.705 116.236 281.181 114.469 281.182C112.857 281.2 111.267 280.809 109.846 280.047C108.425 279.284 107.221 278.175 106.344 276.821L105.294 276.523C103.647 286.922 105.294 301.901 109.513 314.637C109.504 314.673 109.504 314.711 109.513 314.747C110.534 317.812 111.749 320.809 113.152 323.719C114.037 325.554 114.252 327.641 113.759 329.618C113.266 331.595 112.097 333.337 110.454 334.541C112.531 336.313 113.974 338.714 114.563 341.38C114.893 343.008 114.876 344.688 114.514 346.309C114.152 347.93 113.452 349.457 112.462 350.791C112.282 351.035 112.045 351.232 111.771 351.363C111.498 351.494 111.196 351.556 110.893 351.544C110.534 351.543 110.182 351.445 109.874 351.261C109.673 351.154 109.499 351.004 109.362 350.822C109.225 350.641 109.13 350.431 109.082 350.209C109.034 349.987 109.036 349.757 109.086 349.535C109.136 349.313 109.233 349.105 109.372 348.924C110.108 347.949 110.629 346.827 110.9 345.635C111.17 344.442 111.184 343.206 110.94 342.007C110.424 339.663 109.011 337.614 107.003 336.298C104.956 336.908 102.776 336.908 100.729 336.298C99.4484 335.921 98.2586 335.286 97.2334 334.43C96.2081 333.575 95.3694 332.519 94.769 331.326C94.4867 330.777 94.2357 330.15 93.9848 329.585C92.1532 329.07 90.5348 327.982 89.3663 326.48C88.1979 324.979 87.5407 323.143 87.4912 321.241C87.5032 319.813 87.8871 318.413 88.6049 317.178C87.0231 316.522 85.6671 315.419 84.7031 314.004C83.7391 312.588 83.209 310.923 83.1779 309.21C83.1866 308.092 83.4171 306.987 83.8559 305.958C84.2948 304.93 84.9333 303.999 85.7345 303.219C84.4159 302.472 83.3163 301.393 82.5457 300.088C81.775 298.783 81.3602 297.299 81.3428 295.784C81.3522 294.631 81.5946 293.492 82.0555 292.436C82.5164 291.379 83.1864 290.427 84.0249 289.636C83.105 288.779 82.3887 287.728 81.9288 286.558C81.4688 285.389 81.2769 284.131 81.3672 282.878C81.4575 281.624 81.8276 280.407 82.4504 279.315C83.0732 278.224 83.9328 277.286 84.966 276.57C84.966 276.272 85.0758 275.974 85.1072 275.676C83.9238 274.319 83.267 272.583 83.2563 270.783C83.2892 269.24 83.7711 267.74 84.6431 266.467C85.515 265.194 86.7391 264.203 88.1656 263.615C88.5079 262.717 88.8953 261.838 89.3264 260.979C90.5136 258.849 92.4079 257.2 94.6819 256.318C96.9559 255.436 99.4666 255.376 101.78 256.149C140.255 268.367 162.261 265.779 189.019 245.938C190.446 244.904 192.102 244.233 193.845 243.982C195.588 243.731 197.366 243.906 199.026 244.495C200.621 245.027 202.044 245.977 203.148 247.246C204.251 248.515 204.994 250.056 205.3 251.71C205.457 252.51 205.551 253.278 205.677 254.11C206.496 254.849 207.152 255.751 207.603 256.759C208.054 257.766 208.29 258.856 208.296 259.96C208.289 261.44 207.848 262.886 207.026 264.116C207.026 264.305 207.026 264.493 207.026 264.665C207.897 265.403 208.599 266.321 209.083 267.355C209.568 268.389 209.824 269.515 209.833 270.657C209.823 272.392 209.238 274.074 208.17 275.441C208.967 276.175 209.602 277.067 210.036 278.059C210.471 279.051 210.695 280.122 210.695 281.205C210.695 282.288 210.471 283.359 210.036 284.352C209.602 285.344 208.967 286.235 208.17 286.969C209.163 288.258 209.718 289.829 209.755 291.455Z" fill="#E9B4B4"/>
<path opacity="0.1" d="M195.498 280.068C195.498 287.314 194.714 294.561 194.321 301.807C193.882 310.12 192.502 319.876 184.55 323.923H184.44C182.955 324.65 181.369 325.147 179.735 325.397C180.666 324.91 181.39 324.102 181.774 323.123C187.31 308.238 189.114 290.185 187.154 269.371L186.573 269.669C186.214 271.866 185.07 273.859 183.354 275.278C181.638 276.696 179.466 277.445 177.241 277.386C175.591 277.376 173.971 276.944 172.535 276.131C171.706 277.63 170.487 278.876 169.006 279.737C167.526 280.599 165.841 281.044 164.128 281.025C162.542 281.016 160.981 280.623 159.58 279.88C158.67 280.948 157.537 281.804 156.261 282.387C154.984 282.97 153.595 283.265 152.192 283.252C150.381 282.161 148.267 281.682 146.163 281.886C144.058 282.089 142.075 282.964 140.507 284.381C139.211 284.385 137.928 284.13 136.732 283.632C135.537 283.134 134.452 282.402 133.543 281.48H133.103C131.443 282.654 129.459 283.285 127.426 283.283C125.995 283.294 124.579 282.986 123.282 282.381C121.985 281.776 120.839 280.889 119.928 279.786L119.301 279.676C117.782 280.579 116.048 281.056 114.282 281.056C112.669 281.074 111.079 280.684 109.658 279.921C108.238 279.159 107.033 278.049 106.157 276.696L105.106 276.398C103.459 286.797 105.106 301.776 109.325 314.512C109.316 314.548 109.316 314.586 109.325 314.622C110.346 317.687 111.562 320.683 112.964 323.593C113.849 325.428 114.064 327.516 113.572 329.492C113.079 331.469 111.909 333.211 110.266 334.416C112.344 336.188 113.786 338.589 114.376 341.255C114.705 342.883 114.688 344.562 114.326 346.184C113.964 347.805 113.265 349.332 112.274 350.666C112.094 350.91 111.857 351.107 111.584 351.238C111.31 351.369 111.009 351.431 110.705 351.418C110.347 351.417 109.995 351.32 109.686 351.136C109.486 351.029 109.311 350.879 109.175 350.697C109.038 350.515 108.942 350.306 108.895 350.084C108.847 349.861 108.848 349.631 108.898 349.41C108.948 349.188 109.046 348.979 109.184 348.799C109.921 347.823 110.442 346.702 110.712 345.509C110.982 344.317 110.996 343.08 110.753 341.882C110.236 339.538 108.823 337.489 106.816 336.173C104.769 336.783 102.589 336.783 100.542 336.173C103.098 335.153 107.333 333.804 108.384 328.33C109.702 321.539 104.965 317.649 101.953 306.23C99.8995 299.021 98.6682 291.601 98.2831 284.115C98.1106 280.758 98.691 274.704 101.091 272.226C103.491 269.747 106.486 270.516 109.764 271.896C111.801 272.842 113.896 273.654 116.038 274.327C134.594 279.19 152.474 278.86 170.183 271.802C173.116 270.626 181.585 266.014 185.867 264.618C186.323 264.46 186.789 264.334 187.263 264.242C190.855 263.709 195.498 265.528 195.498 280.068Z" fill="#1D1D1B"/>
<path d="M187.607 309.838C187.273 310.274 186.917 310.693 186.541 311.093C186.817 311.756 187.048 312.437 187.231 313.132C187.99 315.519 187.901 318.095 186.98 320.425C186.166 322.24 184.747 323.715 182.964 324.597C181.989 325.091 180.919 325.369 179.827 325.413C179.168 325.785 178.434 326.005 177.679 326.056L163.28 327.264L157.178 327.766H156.943C156.112 327.844 155.375 327.954 154.512 328.095C153.649 328.236 153.32 328.346 152.74 328.487C151.394 328.849 150.082 329.327 148.818 329.914C147.759 329.687 146.731 329.329 145.76 328.848C145.54 328.738 145.336 328.644 145.132 328.518C143.902 329.293 142.58 329.909 141.196 330.354C137.393 331.609 133.303 331.702 129.448 330.62C126.093 329.476 122.922 327.848 120.037 325.789C119.221 325.272 118.468 324.754 117.637 324.221C116.727 323.617 115.847 322.968 115.002 322.276C114.326 321.733 113.682 321.152 113.073 320.535C112.626 320.255 112.206 319.935 111.818 319.578C110.451 318.249 109.381 316.646 108.681 314.873C108.02 313.192 107.624 311.42 107.505 309.618C107.505 308.912 107.505 308.191 107.505 307.485C107.505 307.234 107.379 306.967 107.316 306.701C107.144 305.901 106.956 305.132 106.767 304.27C106.291 303.773 105.885 303.213 105.56 302.607C104.842 301.374 104.383 300.008 104.211 298.592C104.211 298.309 104.211 297.996 104.211 297.713C104.14 295.143 104.377 292.573 104.917 290.059C104.917 289.808 104.917 289.542 104.917 289.291C104.917 288.475 104.917 287.722 104.807 286.922C104.658 286.573 104.491 286.233 104.305 285.903C103.521 284.273 103.169 282.469 103.285 280.664C103.269 280.382 103.269 280.099 103.285 279.817C103.329 279.13 103.537 278.464 103.892 277.875C104.247 277.285 104.738 276.789 105.324 276.429C105.32 276.455 105.32 276.481 105.324 276.507C105.626 276.569 105.925 276.648 106.218 276.743C107.095 278.096 108.299 279.206 109.72 279.968C111.14 280.731 112.731 281.121 114.343 281.103H114.657C115.553 281.075 116.441 280.917 117.292 280.633C118.019 280.42 118.714 280.115 119.362 279.723L119.99 279.833C120.901 280.936 122.047 281.823 123.344 282.428C124.641 283.033 126.056 283.341 127.487 283.33C129.521 283.332 131.505 282.701 133.165 281.527H133.604C133.894 281.819 134.203 282.091 134.53 282.342C135.374 283.022 136.329 283.553 137.353 283.911C139.612 282.639 142.141 281.922 144.731 281.818C147.322 281.714 149.9 282.227 152.253 283.315C152.588 283.338 152.923 283.338 153.257 283.315C155.734 283.096 158.023 281.906 159.625 280.005C160.183 280.296 160.766 280.538 161.366 280.727C162.276 281.004 163.222 281.147 164.174 281.15C165.886 281.169 167.572 280.724 169.052 279.863C170.532 279.001 171.752 277.755 172.581 276.257C173.741 276.912 175.023 277.321 176.348 277.459C177.673 277.596 179.013 277.459 180.282 277.056C181.278 276.762 182.217 276.301 183.058 275.692C184.024 275.001 184.841 274.122 185.461 273.109C186.081 272.096 186.491 270.969 186.666 269.794L187.246 269.496C187.356 270.594 187.387 271.645 187.482 272.727C187.536 271.645 187.457 270.56 187.246 269.496C189.326 272.788 190.611 276.518 191 280.392C191.39 284.265 190.872 288.177 189.489 291.816C189.202 292.46 188.986 293.133 188.846 293.824C188.804 293.967 188.777 294.114 188.768 294.263C188.833 295.567 189.153 296.846 189.709 298.027C190.321 300.021 190.449 302.132 190.084 304.186C189.719 306.24 188.869 308.177 187.607 309.838Z" fill="#F9DE96"/>
<path opacity="0.2" d="M188.721 294.184C188.731 294.035 188.757 293.888 188.799 293.745C188.472 293.522 188.119 293.338 187.749 293.196C186.476 292.765 185.14 292.553 183.796 292.569L181.522 292.475C181.269 291.781 180.97 291.105 180.628 290.451C181.685 289.693 182.691 288.865 183.639 287.973C184.671 287.919 185.703 288.085 186.666 288.459C186.84 288.533 187.027 288.571 187.215 288.569C187.478 288.573 187.736 288.504 187.961 288.368C188.186 288.232 188.368 288.035 188.486 287.801C188.553 287.646 188.588 287.479 188.588 287.31C188.588 287.141 188.553 286.974 188.486 286.819C188.418 286.664 188.319 286.525 188.195 286.411C188.07 286.296 187.924 286.209 187.764 286.154C187.074 285.889 186.36 285.694 185.631 285.573C186.644 284.206 187.228 282.568 187.309 280.868C187.307 280.694 187.271 280.523 187.201 280.363C187.132 280.204 187.032 280.06 186.906 279.94C186.78 279.821 186.632 279.727 186.47 279.665C186.307 279.604 186.134 279.575 185.961 279.582C185.616 279.569 185.281 279.691 185.025 279.923C184.77 280.154 184.616 280.477 184.596 280.821C184.596 283.801 181.867 286.31 179.279 288.224C178.84 287.565 178.369 286.906 177.867 286.263C179.487 285.032 180.795 283.435 181.683 281.604C182.572 279.773 183.016 277.758 182.98 275.723C182.139 276.332 181.2 276.794 180.204 277.088C180.01 278.625 179.489 280.103 178.678 281.423C177.867 282.743 176.783 283.875 175.499 284.742C175.331 284.886 175.153 285.017 174.965 285.134C174.699 285.307 174.416 285.479 174.15 285.62C170.745 287.44 166.895 288.256 163.045 287.973C162.041 287.973 159.375 287.801 158.449 289.714C158.133 290.494 158.133 291.366 158.449 292.145C158.779 293.369 159.234 294.608 159.673 295.8C160.218 297.186 160.674 298.606 161.037 300.05C161.037 300.144 161.32 302.136 161.32 302.136C161.28 303.104 161.122 304.062 160.849 304.991C160.221 306.222 159.306 307.283 158.181 308.086C157.056 308.888 155.755 309.409 154.387 309.602C151.346 310.092 148.232 309.822 145.321 308.818C144.039 308.489 142.828 307.931 141.745 307.171C141.292 306.861 140.907 306.46 140.616 305.995L140.396 305.603C139.909 304.15 139.748 302.608 139.925 301.086C139.925 298.545 140.067 295.674 137.588 293.839C135.11 292.004 131.879 292.6 129.244 293.055H129.025C123.688 294.147 118.155 293.779 113.01 291.988C107.881 289.965 104.054 285.84 103.286 281.448C103.245 281.197 103.124 280.966 102.941 280.789C102.825 282.594 103.176 284.398 103.96 286.028C104.146 286.358 104.314 286.699 104.462 287.048C104.462 287.816 104.462 288.616 104.572 289.416C106.631 291.56 109.137 293.226 111.912 294.294C112.242 294.435 112.571 294.545 112.916 294.67C112.169 296.169 111.922 297.868 112.21 299.517C112.279 299.821 112.451 300.092 112.697 300.284C112.943 300.475 113.248 300.576 113.559 300.568H113.779C113.95 300.553 114.117 300.503 114.269 300.421C114.421 300.339 114.554 300.227 114.661 300.092C114.768 299.957 114.847 299.802 114.892 299.636C114.937 299.469 114.948 299.296 114.924 299.125C114.714 297.85 114.952 296.542 115.598 295.423C120.184 296.367 124.91 296.404 129.511 295.533H129.746C132.052 295.157 134.451 294.733 135.863 295.8C136.294 296.132 136.625 296.577 136.82 297.086C132.93 296.584 129.087 298.168 126.107 299.69L124.742 300.38C122.037 302.039 119.012 303.108 115.865 303.517C111.63 303.752 107.662 301.431 103.976 298.811C104.148 300.227 104.607 301.594 105.325 302.827C108.286 304.808 111.74 305.926 115.3 306.058H116.006C119.571 305.666 123.005 304.487 126.06 302.607L127.393 301.933C127.043 303.094 126.629 304.236 126.154 305.352C125.699 306.528 125.229 307.736 124.852 308.975V309.179C122.53 308.984 120.207 309.534 118.218 310.747C118.024 310.749 117.833 310.786 117.653 310.857C116.865 311.072 116.041 311.125 115.232 311.011C114.424 310.898 113.646 310.622 112.948 310.198C112.21 309.806 111.489 309.367 110.752 308.881C109.725 308.18 108.644 307.562 107.521 307.03C107.42 306.991 107.314 306.965 107.207 306.952C107.207 307.218 107.348 307.485 107.395 307.736C107.395 308.442 107.395 309.163 107.395 309.869C107.991 310.198 108.556 310.559 109.152 310.951C109.748 311.343 110.72 311.939 111.552 312.394C112.732 313.013 114.011 313.421 115.332 313.602C113.998 315.625 113.324 316.519 113.904 318.841C112.314 317.484 110.603 316.276 108.791 315.233L108.493 314.982C109.194 316.755 110.263 318.359 111.63 319.688C112.018 320.045 112.438 320.365 112.885 320.645C113.494 321.262 114.138 321.843 114.814 322.386C115.659 323.078 116.539 323.727 117.449 324.33C118.233 324.879 119.018 325.397 119.849 325.899C122.734 327.958 125.905 329.585 129.26 330.73C133.115 331.812 137.205 331.719 141.008 330.463C142.392 330.019 143.714 329.402 144.945 328.628C145.148 328.754 145.352 328.848 145.572 328.958C146.543 329.438 147.571 329.797 148.631 330.024C149.894 329.436 151.206 328.959 152.552 328.597C153.931 328.242 155.337 328.001 156.755 327.875C154.082 326.925 151.85 325.028 150.481 322.542C150.295 322.234 150.002 322.005 149.658 321.898C149.314 321.792 148.943 321.814 148.615 321.962C148.457 322.027 148.314 322.125 148.196 322.249C148.078 322.373 147.987 322.52 147.929 322.681C147.872 322.842 147.848 323.014 147.861 323.184C147.874 323.355 147.922 323.521 148.003 323.672C148.893 325.304 150.117 326.731 151.595 327.86C150.766 328.075 149.909 328.16 149.054 328.111C148.38 328.016 147.752 327.718 147.093 327.593C146.739 327.553 146.381 327.553 146.027 327.593C146.584 325.232 146.237 322.747 145.054 320.629C145.447 320.394 145.823 320.158 146.199 319.892C147.189 319.233 148.055 318.405 148.756 317.445C149.26 316.671 149.681 315.845 150.011 314.982C150.168 314.622 150.309 314.276 150.481 313.931C150.334 316.175 151.046 318.39 152.473 320.127C154.517 322.456 157.008 324.349 159.798 325.695C160.865 326.291 161.963 326.903 163.108 327.42L177.506 326.213C178.262 326.162 178.996 325.942 179.655 325.57C180.747 325.526 181.817 325.248 182.792 324.754C182.918 324.581 183.027 324.393 183.137 324.205C183.675 323.117 183.829 321.879 183.576 320.692C182.855 315.986 179.138 311.516 173.789 308.944C173.846 308.863 173.889 308.773 173.915 308.677C174.301 307.535 174.497 306.338 174.495 305.132V304.881C176.86 305.143 179.125 305.976 181.096 307.31C183.066 308.644 184.682 310.437 185.804 312.535C185.921 312.766 186.101 312.959 186.323 313.092C186.545 313.225 186.8 313.293 187.058 313.288C186.876 312.594 186.645 311.912 186.368 311.249C186.745 310.85 187.101 310.431 187.435 309.995C186.212 308.114 184.61 306.512 182.729 305.289C182.765 305.166 182.791 305.04 182.808 304.913C183.31 301.679 183.123 298.376 182.259 295.219H183.561C184.566 295.193 185.568 295.336 186.525 295.643C186.834 295.738 187.114 295.908 187.341 296.138C187.569 296.368 187.735 296.651 187.827 296.96C187.866 297.29 188.029 297.593 188.282 297.808C188.535 298.024 188.86 298.135 189.192 298.121H189.317H189.537C189.001 296.878 188.724 295.538 188.721 294.184ZM132.334 329.099C126.782 328.832 117.512 321.554 117.261 321.005C117.071 320.577 116.909 320.137 116.775 319.688C116.497 318.515 116.555 317.287 116.94 316.145C117.326 315.002 118.023 313.991 118.955 313.226C120.475 312 122.402 311.395 124.35 311.532C124.107 312.959 124.204 314.423 124.635 315.805C125.066 317.187 125.817 318.448 126.829 319.484C127.554 320.143 128.387 320.673 129.291 321.052C127.71 321.591 126.074 321.953 124.413 322.135C124.24 322.142 124.07 322.185 123.914 322.26C123.758 322.335 123.618 322.441 123.504 322.572C123.39 322.702 123.303 322.854 123.249 323.019C123.195 323.184 123.175 323.358 123.19 323.531C123.249 323.846 123.419 324.13 123.67 324.331C123.92 324.532 124.233 324.638 124.554 324.629H124.727C127.619 324.331 130.441 323.546 133.071 322.307C134.211 322.544 135.373 322.665 136.538 322.668C138.648 322.671 140.741 322.293 142.717 321.554C143.878 323.546 143.376 325.162 142.498 327.248C139.863 328.958 135.549 329.271 132.334 329.099ZM147.564 313.931C147.302 314.645 146.966 315.328 146.56 315.97C146.022 316.665 145.376 317.269 144.647 317.759C141.608 319.772 137.927 320.577 134.326 320.017C133.796 319.947 133.271 319.837 132.757 319.688C132.287 319.575 131.826 319.428 131.377 319.249C130.425 318.89 129.548 318.358 128.789 317.68C128.063 316.902 127.531 315.965 127.234 314.943C126.937 313.921 126.884 312.844 127.08 311.798C127.163 311.067 127.305 310.343 127.503 309.634C127.51 309.561 127.51 309.487 127.503 309.414C127.832 308.301 128.272 307.187 128.726 306.011C129.515 304.184 130.114 302.281 130.514 300.333C132.564 299.453 134.819 299.165 137.024 299.501L137.149 299.658C137.149 300.05 137.149 300.458 137.149 300.866C136.907 302.923 137.238 305.008 138.106 306.889C136.055 308.659 134.339 310.785 133.04 313.163C132.962 313.314 132.916 313.48 132.906 313.649C132.896 313.819 132.921 313.989 132.98 314.148C133.039 314.308 133.131 314.453 133.249 314.575C133.367 314.697 133.51 314.793 133.667 314.857C133.862 314.936 134.069 314.978 134.279 314.982C134.526 314.987 134.77 314.926 134.985 314.805C135.2 314.683 135.379 314.506 135.502 314.292C136.615 312.243 138.074 310.401 139.816 308.85C141.226 309.885 142.824 310.636 144.521 311.061C145.83 311.462 147.167 311.766 148.521 311.971C148.158 312.608 147.839 313.268 147.564 313.947V313.931ZM181.02 320.848C181.186 321.546 181.12 322.278 180.832 322.935C180.024 323.896 178.921 324.563 177.695 324.832C175.339 325.885 172.806 326.481 170.229 326.589C167.048 326.284 163.99 325.208 161.32 323.452C158.847 322.261 156.63 320.599 154.795 318.558C154.031 317.699 153.536 316.636 153.369 315.499C153.201 314.362 153.37 313.201 153.854 312.159L154.936 312.002C156.743 311.731 158.458 311.027 159.936 309.952C161.413 308.876 162.609 307.459 163.421 305.822C163.885 304.677 164.115 303.45 164.096 302.215C165.719 302.181 167.341 302.296 168.942 302.56H169.178C169.489 302.568 169.794 302.467 170.04 302.276C170.286 302.084 170.458 301.813 170.527 301.509C170.553 301.34 170.545 301.167 170.503 301C170.461 300.834 170.385 300.678 170.281 300.542C170.177 300.406 170.047 300.292 169.897 300.207C169.748 300.123 169.583 300.069 169.413 300.05C167.551 299.758 165.666 299.637 163.782 299.69C163.379 298.058 162.855 296.459 162.214 294.906C161.774 293.698 161.351 292.569 161.037 291.455C160.896 290.906 160.912 290.702 160.943 290.639C160.975 290.577 161.21 290.31 162.872 290.388H164.112C164.171 290.443 164.24 290.485 164.315 290.514C166.987 291.642 169.129 293.745 170.307 296.396C171.469 299.066 171.98 301.975 171.797 304.881C171.806 305.829 171.663 306.771 171.374 307.673C170.928 308.679 170.33 309.61 169.601 310.434L168.833 311.438L167.672 312.928L165.037 316.551C164.932 316.683 164.857 316.836 164.816 317C164.775 317.163 164.769 317.334 164.798 317.5C164.828 317.666 164.893 317.824 164.988 317.963C165.083 318.102 165.207 318.22 165.351 318.308C165.586 318.467 165.866 318.55 166.151 318.543C166.365 318.545 166.578 318.5 166.773 318.41C166.968 318.321 167.141 318.189 167.28 318.025L168.848 315.986C169.885 317.726 171.436 319.102 173.287 319.923C173.482 319.997 173.69 320.035 173.899 320.033C174.148 320.038 174.393 319.975 174.609 319.851C174.825 319.726 175.002 319.545 175.122 319.327C175.199 319.176 175.244 319.011 175.253 318.841C175.262 318.672 175.236 318.503 175.175 318.344C175.114 318.186 175.021 318.042 174.901 317.923C174.781 317.803 174.638 317.709 174.479 317.649C173.607 317.258 172.823 316.693 172.176 315.989C171.529 315.285 171.031 314.457 170.715 313.555L171.938 311.987L172.628 311.077C177.24 313.194 180.408 316.912 181.02 320.864V320.848ZM180.298 303.689C178.502 302.851 176.577 302.321 174.605 302.121C174.516 299.793 173.983 297.504 173.036 295.376C172.063 293.269 170.593 291.428 168.754 290.012C171.21 289.635 173.579 288.822 175.75 287.612C176.494 288.553 177.165 289.549 177.757 290.592V290.702C177.75 290.754 177.75 290.807 177.757 290.859C177.811 290.968 177.879 291.068 177.961 291.157C179.98 295.011 180.794 299.383 180.298 303.705V303.689Z" fill="#1D1D1B"/>
<path d="M126.813 27.4632C127.142 28.9376 128.585 29.863 129.95 30.6002L137.353 34.8665L144.349 38.8975C144.945 39.2269 145.698 39.5719 146.247 39.1641C146.796 38.7563 146.717 37.9564 146.576 37.3133C145.9 33.242 144.102 29.4398 141.384 26.3339C140.014 24.8068 138.251 23.686 136.287 23.094C134.323 22.502 132.234 22.4616 130.248 22.9773C128.272 23.6831 126.39 25.4712 126.813 27.4632Z" fill="#8CBF93"/>
<path d="M116.964 52.4336C117.008 52.6467 117.116 52.8416 117.272 52.9927C117.429 53.1438 117.628 53.2441 117.842 53.2806C118.268 53.3511 118.703 53.3511 119.128 53.2806C120.494 53.1909 121.86 53.4454 123.101 54.0209C124.343 54.5964 125.42 55.4744 126.234 56.5744C127.018 57.641 127.896 59.084 129.198 58.8801C130.5 58.6762 130.767 57.4214 130.892 56.3235C130.909 54.7804 130.444 53.2706 129.56 52.0052C128.677 50.7397 127.421 49.7817 125.967 49.2653C124.498 48.8034 122.931 48.7552 121.437 49.1259C119.942 49.4967 118.579 50.2721 117.497 51.367C117.338 51.4972 117.208 51.6596 117.116 51.8434C117.025 52.0272 116.973 52.2283 116.964 52.4336Z" fill="#8CBF93"/>
<path d="M124.304 40.9364L122.422 40.309C122.885 38.9353 123.68 37.6971 124.736 36.7039C125.792 35.7108 127.077 34.9934 128.476 34.6154C129.435 34.3966 130.411 34.2601 131.394 34.2076L132.366 34.1292C133.473 34.092 134.553 33.7736 135.503 33.2038C135.874 32.9783 136.174 32.6526 136.369 32.2641C136.563 31.8756 136.643 31.4402 136.601 31.0079L138.562 30.6001C138.683 31.4175 138.568 32.2526 138.228 33.0061C137.889 33.7597 137.341 34.3999 136.648 34.8507C135.432 35.6049 134.046 36.0417 132.617 36.1211L131.597 36.1996C130.732 36.2389 129.871 36.3543 129.025 36.5447C127.941 36.8395 126.945 37.3932 126.123 38.1582C125.301 38.9233 124.676 39.8767 124.304 40.9364Z" fill="#8CBF93"/>
<path d="M128.241 56.715L127.205 55.021C127.923 54.5483 128.474 53.8635 128.784 53.0621C129.093 52.2607 129.144 51.3828 128.931 50.5508C128.631 49.7089 128.208 48.9161 127.676 48.1981C127.394 47.7589 127.096 47.3198 126.845 46.8649C126.316 46.0922 126.017 45.1851 125.984 44.2493C125.95 43.3134 126.184 42.3874 126.656 41.5791L128.225 42.7241C127.996 43.2282 127.904 43.7839 127.959 44.3349C128.014 44.8858 128.214 45.4124 128.539 45.8611C128.774 46.2846 129.04 46.6767 129.291 47.0688C129.965 47.9464 130.495 48.926 130.86 49.9705C131.197 51.2271 131.125 52.5586 130.654 53.7715C130.183 54.9844 129.338 56.0155 128.241 56.715Z" fill="#8CBF93"/>
<path d="M145.557 52.261V70.2986H135.315V52.8414C135.315 52.1328 135.175 51.4312 134.904 50.7766C134.633 50.1219 134.236 49.5272 133.735 49.0261C133.234 48.5251 132.639 48.1277 131.984 47.8565C131.33 47.5854 130.628 47.4458 129.919 47.4458L100.589 47.9791L99.9769 43.603L99.7103 41.6581C99.7103 39.1014 99.6162 36.7801 99.6162 34.7881L130.092 36.7958C132.123 36.7958 134.134 37.1958 136.01 37.973C137.886 38.7502 139.591 39.8894 141.027 41.3254C142.464 42.7615 143.603 44.4664 144.38 46.3427C145.157 48.2191 145.557 50.2301 145.557 52.261Z" fill="#F9DE96"/>
</g>
</svg>
