<svg width="298" height="298" viewBox="0 0 298 298" fill="none" xmlns="http://www.w3.org/2000/svg">
<circle cx="149" cy="149" r="149" fill="#EEA1B3"/>
<mask id="mask0_1_16716" style="mask-type:alpha" maskUnits="userSpaceOnUse" x="19" y="19" width="260" height="260">
<circle cx="149" cy="149" r="130" fill="#D9D9D9"/>
</mask>
<g mask="url(#mask0_1_16716)">
<path d="M142.007 -216.389L101.046 -215.288L100.893 -205.663L5.06982 -178.347C-10.5977 -175.787 -45.0817 -156.484 -46.6177 -119.747L-76.596 78.5293C-78.3625 151.926 -74.3176 197.777 -64.8198 257.528L-35.6351 251.026C-23.6797 170.819 -15.3339 146.473 -20.0956 84.6223C2.22812 59.9177 8.93545 0.140411 14.1324 -63.221L26.7791 180.138L24.7821 238.302C17.102 289.504 11.6492 342.65 9.06351 391.906H125.648C129.002 360.161 131.229 323.296 132.893 292.78C135.94 292.78 138.961 292.985 142.033 292.985C145.105 292.985 148.126 292.985 151.172 292.78C152.836 323.296 155.063 360.161 158.391 391.906H275.053C272.493 342.702 267.015 289.504 259.36 238.302L257.363 180.138L269.984 -63.221C275.104 0.0636139 281.889 59.9177 304.212 84.6223C299.451 146.422 307.822 170.768 319.752 251.026L348.86 257.528C358.332 197.777 362.377 151.926 360.61 78.5293L330.453 -119.747C328.917 -156.484 294.458 -175.812 278.791 -178.347L182.968 -205.663L182.789 -215.288L142.007 -216.389Z" fill="#FFEAC8"/>
<path d="M110.749 49.7294C117.277 43.79 122.474 34.0106 128.669 27.7897C134.276 22.1832 179.41 13.1206 198.226 0.32033C199.02 -0.195683 199.641 -0.93786 200.009 -1.81034C200.377 -2.68282 200.475 -3.64559 200.29 -4.57431C200.106 -5.50303 199.647 -6.35507 198.973 -7.02046C198.299 -7.68584 197.442 -8.13404 196.511 -8.30713C170.091 -15.3217 137.476 -25.2802 112.029 -22.0034C96.1053 -19.9297 86.9403 -26.2531 71.068 -24.1794C63.3878 -23.2066 46.6963 -17.9073 39.9121 -1.13892C36.1489 8.15408 24.347 21.1592 35.6369 49.371C37.5752 55.0359 38.248 61.0568 37.608 67.0098C37.6415 68.3067 37.9936 69.5755 38.633 70.7044C39.2725 71.8332 40.1798 72.7875 41.275 73.483C42.3702 74.1786 43.6196 74.5941 44.9132 74.693C46.2068 74.7918 47.505 74.571 48.6931 74.0499C57.4485 70.6194 65.7687 66.9074 75.1385 63.8097C85.43 60.5072 97.9998 61.4032 110.749 49.7294Z" fill="#96482B"/>
<path opacity="0.2" d="M59.3936 48.371C57.3767 52.9413 54.3613 57.0015 50.569 60.2533C46.7767 63.5051 42.304 65.8658 37.4795 67.1618C37.5468 68.4379 37.9223 69.6786 38.5737 70.7779C39.2252 71.8772 40.1332 72.8023 41.2202 73.4741C42.3072 74.146 43.5407 74.5445 44.8153 74.6356C46.0899 74.7267 47.3675 74.5076 48.539 73.9972C57.2943 70.5667 65.6146 66.8546 74.9844 63.757C85.4294 60.3777 98.0249 61.1969 110.825 49.5999C117.353 43.6605 122.55 33.8811 128.746 27.6602C134.352 22.0536 179.486 12.991 198.302 0.190741C198.975 -0.24219 199.526 -0.84117 199.9 -1.54852C200.274 -2.25586 200.46 -3.04768 200.439 -3.84771C200.419 -4.64774 200.193 -5.42903 199.782 -6.11619C199.372 -6.80336 198.792 -7.37324 198.097 -7.771C147.946 6.74452 83.8421 -9.74226 59.3936 48.371Z" fill="#1D1D1B"/>
<path d="M127.517 57.2549C124.678 45.2616 122.862 33.0489 122.089 20.7484C121.373 18.8284 117.328 20.0828 116.125 21.0556C116.534 27.7886 117.277 34.5216 118.326 41.2034C115.075 38.7758 111.277 37.1846 107.267 36.5697C107.094 35.9171 106.789 35.3071 106.371 34.7776C104.363 33.0596 102.004 31.8014 99.4587 31.0911C95.2602 29.2223 91.9065 25.8174 87.452 24.563C85.0187 23.9072 82.4525 23.9277 80.03 24.6224C77.6075 25.3172 75.4205 26.6597 73.7045 28.5054C72.1715 30.3114 71.2573 32.5611 71.096 34.9246C70.9348 37.2881 71.5348 39.641 72.8084 41.6385C74.2633 43.6718 76.2546 45.2608 78.5601 46.2282C80.8656 47.1956 83.3946 47.5033 85.8648 47.1171C89.7561 46.5027 93.1609 44.2754 97.0522 43.7378C99.5578 43.772 102.053 43.4179 104.451 42.6881C104.891 42.4904 105.29 42.2126 105.628 41.8689C109.618 42.3731 113.332 44.1717 116.201 46.989C117.741 48.5133 118.94 50.346 119.721 52.3668C120.502 54.3876 120.847 56.5507 120.733 58.7141L126.723 59.0469C126.723 58.5349 126.723 58.0229 126.723 57.5109L127.517 57.2549Z" fill="#A8A166"/>
<path d="M91.9837 71.4124C87.1452 71.7964 84.3036 76.5325 82.6396 80.7054C80.0795 86.3631 77.8011 92.9936 81.206 98.2162C84.022 102.491 89.8077 104.155 95.1071 105.384C114.999 109.967 136.068 112.936 155.883 107.714C163.903 105.339 171.706 102.281 179.205 98.5745C190.392 93.4544 201.964 87.8735 209.567 78.7085C213.305 74.2284 216.07 68.8779 220.959 65.473C223.033 64.0394 225.619 62.7082 226.079 60.3529C219.193 57.7928 211.18 59.4313 204.498 62.5033C197.816 65.5754 191.954 69.9532 185.272 73.0508C170.91 79.6814 154.116 79.8349 138.014 79.8605C132.117 79.9897 126.218 79.7589 120.349 79.1693C113.192 78.3229 106.202 76.4071 99.6128 73.486C97.2906 72.1497 94.6628 71.4355 91.9837 71.4124Z" fill="#A8A166"/>
<path d="M217.579 25.1527C216.49 21.0255 214.476 17.1999 211.691 13.9653C207.898 9.81975 203.174 6.63449 197.909 4.67169C192.643 2.70889 186.987 2.02469 181.406 2.6754C167.146 4.54424 158.672 15.0405 152.477 24.6407C151.299 26.4328 150.096 28.2503 148.842 30.0936C145.246 23.6742 143.31 16.4584 143.21 9.10117L142.621 -238.072L125.904 -236.05L125.238 9.15233C125.379 21.4018 129.295 33.3097 136.451 43.2523C133.119 45.5774 129.387 47.2696 125.443 48.2444C114.665 50.8045 100.969 48.526 92.93 54.4654C91.3376 55.6317 90.0546 57.1698 89.1925 58.9455C81.4329 62.6465 75.1985 68.9261 71.5536 76.7122C69.1841 82.2579 68.3659 88.3431 69.1866 94.3177C70.0072 100.292 72.4359 105.932 76.213 110.633H76.3666L90.7284 100.982C88.7261 98.4773 87.4324 95.4817 86.9821 92.3072C86.5318 89.1327 86.9415 85.8954 88.1684 82.9332C89.4611 80.0938 91.4515 77.6278 93.9541 75.765C95.5781 77.4015 97.3428 78.892 99.2278 80.2195C119.171 94.5302 151.581 97.1671 176.03 88.1301C200.478 79.0931 216.094 59.7134 218.501 39.489C219.135 34.696 218.822 29.825 217.579 25.1527Z" fill="#F9DE96"/>
<path opacity="0.1" d="M218.501 39.5394C216.095 59.7382 200.376 79.1178 176.03 88.1804C151.684 97.243 119.248 94.5806 99.2283 80.2699C97.3433 78.9424 95.5786 77.4519 93.9546 75.8154C91.452 77.6782 89.4616 80.1441 88.1689 82.9835C86.942 85.9458 86.5323 89.183 86.9826 92.3576C87.4329 95.5321 88.7266 98.5277 90.7289 101.032L76.3671 110.683C74.5682 105.885 73.9706 100.719 74.6265 95.6364C75.2825 90.5538 77.172 85.709 80.1303 81.5243C83.3262 76.989 88.1016 73.8115 93.5195 72.6153C100.56 71.2841 107.625 74.2026 114.486 76.225C132.25 81.3583 151.203 80.5674 168.478 73.9721C185.116 67.5605 198.959 55.4853 207.57 39.8722C209.56 35.3596 212.143 31.1324 215.25 27.3023C215.973 26.5205 216.761 25.8012 217.605 25.1519C218.847 29.8422 219.151 34.7312 218.501 39.5394Z" fill="#1D1D1B"/>
<path d="M247.404 148.215C247.394 151.233 246.304 154.147 244.332 156.432C246.292 158.724 247.38 161.635 247.404 164.65C247.384 166.698 246.879 168.712 245.931 170.527C244.984 172.342 243.62 173.908 241.951 175.095L241.798 175.914C242.528 177.523 242.912 179.268 242.924 181.034C242.922 182.782 242.561 184.51 241.866 186.112C241.17 187.715 240.154 189.158 238.879 190.353L238.598 191.326C239.694 193.199 240.285 195.325 240.313 197.496C240.287 199.792 239.659 202.041 238.491 204.018C237.323 205.995 235.656 207.63 233.657 208.76C234.275 210.263 234.597 211.871 234.604 213.496C234.471 217.161 232.889 220.623 230.206 223.124C227.523 225.624 223.958 226.958 220.293 226.834H220.037C219.279 229.961 217.474 232.735 214.922 234.695C212.371 236.656 209.225 237.685 206.008 237.612C203.54 237.59 201.115 236.966 198.942 235.794C197.58 237.231 195.941 238.378 194.124 239.165C192.307 239.952 190.35 240.365 188.369 240.377C185.668 240.376 183.015 239.651 180.689 238.277C179.323 240.121 177.538 241.614 175.482 242.634C173.426 243.653 171.157 244.169 168.862 244.14C166.151 244.129 163.495 243.377 161.182 241.964V260.115C161.182 265.542 156.062 270.355 151.453 273.376C146.538 276.525 150.404 293.242 147.229 293.242C146.282 293.242 139.549 293.242 138.602 293.242C137.655 293.242 137.655 275.321 136.528 274.784C131.152 272.71 128.848 267.36 128.336 261.804C128.284 261.259 128.284 260.711 128.336 260.166V240.633C128.487 234.353 130.427 228.247 133.928 223.032C137.428 217.817 142.345 213.709 148.1 211.192C152.391 209.183 157.017 207.985 161.745 207.659L195.205 204.869C196.438 204.785 197.636 204.426 198.712 203.819C200.233 203.023 201.415 201.705 202.04 200.107C211.077 175.812 214.021 146.346 210.821 112.374L209.874 112.86C209.287 116.447 207.421 119.699 204.62 122.015C201.819 124.33 198.274 125.553 194.642 125.456C191.949 125.439 189.305 124.734 186.961 123.408C185.608 125.853 183.618 127.887 181.202 129.293C178.786 130.7 176.035 131.426 173.24 131.395C170.65 131.381 168.103 130.74 165.815 129.526C164.331 131.27 162.482 132.667 160.398 133.619C158.315 134.57 156.048 135.052 153.757 135.03C150.801 133.25 147.351 132.468 143.917 132.8C140.482 133.132 137.245 134.56 134.685 136.874C132.571 136.88 130.476 136.464 128.524 135.651C126.573 134.837 124.803 133.643 123.318 132.137H122.602C119.892 134.055 116.654 135.084 113.334 135.081C110.998 135.099 108.688 134.596 106.571 133.608C104.455 132.62 102.584 131.174 101.097 129.373L100.073 129.193C97.5948 130.668 94.7645 131.446 91.8809 131.446C89.2495 131.476 86.6535 130.838 84.3348 129.594C82.016 128.349 80.0499 126.538 78.6198 124.329L76.9046 123.843C74.2165 140.816 76.9046 165.265 83.7912 186.052C83.776 186.111 83.776 186.173 83.7912 186.231C85.4574 191.234 87.4411 196.125 89.7304 200.875C91.1754 203.87 91.5263 207.276 90.7219 210.503C89.9176 213.73 88.0089 216.573 85.3271 218.539C88.7177 221.431 91.0726 225.35 92.0345 229.701C92.5721 232.359 92.5445 235.1 91.9535 237.746C91.3625 240.393 90.2213 242.885 88.6041 245.061C88.3108 245.46 87.9238 245.781 87.4773 245.995C87.0309 246.21 86.5388 246.311 86.044 246.29C85.4581 246.288 84.8834 246.129 84.3799 245.829C84.053 245.654 83.7681 245.409 83.5451 245.113C83.322 244.816 83.1661 244.474 83.0882 244.112C83.0103 243.749 83.0122 243.373 83.0938 243.011C83.1754 242.649 83.3347 242.309 83.5607 242.015C84.7632 240.422 85.6133 238.592 86.0546 236.645C86.496 234.699 86.5185 232.681 86.1207 230.725C85.2778 226.899 82.9715 223.555 79.695 221.407C76.3542 222.403 72.7955 222.403 69.4548 221.407C67.3642 220.791 65.4222 219.754 63.7488 218.358C62.0755 216.962 60.7065 215.238 59.7266 213.291C59.2658 212.395 58.8562 211.371 58.4465 210.45C55.4572 209.609 52.8156 207.833 50.9084 205.382C49.0013 202.931 47.9287 199.934 47.8479 196.83C47.8675 194.499 48.494 192.214 49.6656 190.199C47.0838 189.129 44.8705 187.328 43.2972 185.018C41.7238 182.708 40.8586 179.989 40.8077 177.194C40.822 175.369 41.1982 173.565 41.9145 171.887C42.6308 170.208 43.6729 168.688 44.9806 167.415C42.8284 166.196 41.0337 164.434 39.7758 162.305C38.5179 160.176 37.841 157.753 37.8125 155.28C37.8278 153.399 38.2235 151.54 38.9758 149.815C39.7281 148.091 40.8216 146.536 42.1903 145.245C40.6887 143.847 39.5196 142.131 38.7689 140.222C38.0182 138.313 37.705 136.26 37.8523 134.214C37.9997 132.169 38.6038 130.182 39.6204 128.4C40.6369 126.619 42.0399 125.087 43.7262 123.92C43.7262 123.433 43.9055 122.947 43.9567 122.46C42.0253 120.246 40.9531 117.411 40.9357 114.473C40.9894 111.955 41.776 109.507 43.1992 107.429C44.6223 105.352 46.6203 103.734 48.9487 102.774C49.5072 101.309 50.1397 99.8735 50.8433 98.4727C52.7809 94.9949 55.8728 92.3035 59.5844 90.8638C63.296 89.424 67.394 89.3263 71.1699 90.5877C133.968 110.53 169.886 106.306 213.56 73.9217C215.888 72.2353 218.591 71.1398 221.436 70.7295C224.282 70.3192 227.184 70.6064 229.893 71.5665C232.497 72.4355 234.82 73.9862 236.621 76.0573C238.421 78.1283 239.634 80.644 240.134 83.3427C240.39 84.6484 240.543 85.9028 240.748 87.2596C242.086 88.4665 243.156 89.9391 243.893 91.5833C244.629 93.2275 245.014 95.0072 245.023 96.8087C245.013 99.2245 244.292 101.584 242.95 103.593C242.95 103.9 242.95 104.207 242.95 104.489C244.372 105.693 245.518 107.19 246.309 108.878C247.1 110.566 247.517 112.404 247.532 114.268C247.516 117.099 246.562 119.845 244.819 122.076C246.118 123.275 247.155 124.73 247.864 126.349C248.573 127.968 248.939 129.717 248.939 131.485C248.939 133.252 248.573 135.001 247.864 136.62C247.155 138.239 246.118 139.694 244.819 140.893C246.438 142.996 247.344 145.561 247.404 148.215Z" fill="#E9B4B4"/>
<path opacity="0.1" d="M224.134 129.629C224.134 141.456 222.854 153.284 222.214 165.111C221.497 178.679 219.245 194.603 206.265 201.208H206.086C203.663 202.395 201.073 203.206 198.406 203.614C199.926 202.819 201.108 201.5 201.734 199.902C210.771 175.607 213.715 146.141 210.515 112.169L209.568 112.655C208.981 116.242 207.114 119.494 204.314 121.81C201.513 124.126 197.968 125.348 194.335 125.251C191.643 125.234 188.999 124.529 186.655 123.203C185.302 125.649 183.311 127.682 180.896 129.089C178.48 130.495 175.728 131.221 172.933 131.19C170.344 131.176 167.797 130.535 165.509 129.321C164.025 131.066 162.175 132.463 160.092 133.414C158.008 134.365 155.741 134.847 153.451 134.825C150.495 133.045 147.045 132.263 143.61 132.595C140.176 132.927 136.939 134.355 134.379 136.669C132.264 136.675 130.17 136.259 128.218 135.446C126.267 134.633 124.497 133.438 123.012 131.933H122.295C119.586 133.85 116.347 134.879 113.028 134.877C110.692 134.894 108.382 134.391 106.265 133.403C104.148 132.416 102.278 130.969 100.791 129.168L99.7669 128.989C97.2886 130.463 94.4584 131.241 91.5747 131.241C88.9433 131.271 86.3472 130.633 84.0284 129.389C81.7097 128.145 79.7437 126.333 78.3136 124.124L76.5984 123.638C73.9103 140.611 76.5984 165.06 83.485 185.847C83.4698 185.906 83.4698 185.968 83.485 186.027C85.1512 191.029 87.1349 195.92 89.4242 200.67C90.8692 203.665 91.2201 207.072 90.4157 210.298C89.6114 213.525 87.7027 216.368 85.0209 218.335C88.4115 221.226 90.7664 225.145 91.7283 229.496C92.2659 232.154 92.2383 234.895 91.6473 237.542C91.0563 240.188 89.915 242.68 88.2977 244.857C88.0044 245.256 87.6176 245.576 87.1711 245.791C86.7247 246.005 86.2324 246.106 85.7377 246.086C85.1518 246.083 84.5772 245.924 84.0737 245.625C83.7468 245.449 83.4619 245.205 83.2389 244.908C83.0158 244.611 82.8599 244.27 82.782 243.907C82.7041 243.544 82.706 243.169 82.7876 242.807C82.8692 242.445 83.0285 242.105 83.2545 241.81C84.457 240.217 85.3071 238.387 85.7485 236.441C86.1898 234.494 86.2123 232.476 85.8145 230.52C84.9716 226.694 82.6653 223.35 79.3888 221.202C76.048 222.198 72.4893 222.198 69.1486 221.202C73.3214 219.538 80.2336 217.336 81.9488 208.402C84.0993 197.316 76.368 190.968 71.4527 172.33C68.1003 160.563 66.0906 148.453 65.4621 136.234C65.1805 130.755 66.1278 120.873 70.0447 116.828C73.9616 112.783 78.8512 114.038 84.2017 116.291C87.525 117.835 90.9457 119.16 94.4419 120.259C124.727 128.195 153.912 127.657 182.815 116.137C187.602 114.217 201.427 106.69 208.416 104.412C209.159 104.153 209.921 103.947 210.694 103.798C216.557 102.927 224.134 105.897 224.134 129.629Z" fill="#1D1D1B"/>
<path opacity="0.1" d="M234.603 213.598C234.469 217.263 232.888 220.725 230.205 223.226C227.522 225.726 223.957 227.06 220.292 226.936H220.036C219.278 230.063 217.473 232.837 214.921 234.797C212.369 236.758 209.224 237.787 206.007 237.714C203.539 237.692 201.113 237.068 198.941 235.896C197.57 237.314 195.927 238.442 194.111 239.212C192.294 239.981 190.341 240.377 188.368 240.376C185.667 240.376 183.014 239.651 180.688 238.277C179.322 240.121 177.537 241.614 175.481 242.633C173.425 243.652 171.156 244.169 168.861 244.139C166.15 244.129 163.494 243.376 161.181 241.963V260.114C161.181 265.541 156.06 270.354 151.452 273.375C146.537 276.524 150.403 293.241 147.228 293.241C146.281 293.241 139.548 293.241 138.601 293.241C137.654 293.241 137.654 275.321 136.527 274.783C131.151 272.71 128.847 267.359 128.335 261.804C130.758 262.309 133.131 263.029 135.426 263.954C138.849 265.538 142.723 265.855 146.358 264.85C151.196 262.956 152.758 257.426 152.809 252.613C152.86 247.8 152.092 242.706 154.55 238.456C158.748 231.262 169.475 230.545 178.359 229.649C193.511 228.17 208.174 223.475 221.367 215.876C225.351 213.327 229.489 211.027 233.758 208.99C234.325 210.459 234.612 212.023 234.603 213.598Z" fill="#1D1D1B"/>
<path d="M211.256 178.218C210.711 178.93 210.13 179.614 209.515 180.266C209.967 181.348 210.343 182.46 210.641 183.594C211.881 187.491 211.736 191.696 210.232 195.499C208.904 198.461 206.587 200.868 203.678 202.308C202.087 203.115 200.34 203.569 198.558 203.64C197.482 204.247 196.283 204.606 195.051 204.689L171.549 206.66L161.591 207.48H161.207C159.85 207.608 158.647 207.787 157.239 208.017C155.831 208.248 155.293 208.427 154.346 208.657C152.149 209.248 150.008 210.028 147.946 210.987C146.216 210.615 144.539 210.031 142.953 209.246C142.595 209.067 142.262 208.913 141.929 208.708C139.921 209.972 137.763 210.978 135.504 211.704C129.298 213.753 122.621 213.905 116.329 212.139C110.853 210.271 105.678 207.615 100.969 204.254C99.6373 203.409 98.4085 202.564 97.0517 201.694C95.5658 200.708 94.1304 199.649 92.7508 198.519C91.6473 197.634 90.5958 196.685 89.6018 195.678C88.8724 195.222 88.1868 194.699 87.5538 194.116C85.3224 191.948 83.5772 189.33 82.4337 186.436C81.3556 183.693 80.708 180.8 80.5137 177.86C80.5137 176.708 80.5137 175.53 80.5137 174.378C80.5137 173.968 80.3089 173.533 80.2065 173.098C79.9249 171.792 79.6177 170.538 79.3105 169.13C78.5337 168.319 77.8706 167.406 77.3392 166.416C76.1681 164.404 75.4191 162.174 75.1376 159.863C75.1376 159.402 75.1376 158.89 75.1376 158.429C75.0229 154.234 75.4095 150.039 76.2895 145.936C76.2895 145.526 76.2895 145.091 76.2895 144.681C76.2895 143.35 76.2897 142.121 76.1105 140.816C75.8683 140.246 75.5948 139.691 75.2912 139.152C74.0111 136.492 73.4379 133.547 73.6271 130.601C73.5998 130.141 73.5998 129.679 73.6271 129.219C73.6987 128.098 74.0383 127.011 74.6175 126.048C75.1966 125.086 75.9983 124.277 76.9552 123.689C76.9489 123.731 76.9489 123.775 76.9552 123.817C77.4483 123.918 77.9355 124.046 78.4144 124.201C79.8446 126.41 81.8106 128.221 84.1294 129.466C86.4481 130.71 89.0441 131.347 91.6755 131.318H92.1875C93.6509 131.273 95.0998 131.014 96.4884 130.55C97.6744 130.203 98.8104 129.704 99.8677 129.065L100.892 129.244C102.379 131.045 104.249 132.492 106.366 133.48C108.483 134.467 110.793 134.971 113.129 134.953C116.448 134.955 119.686 133.927 122.396 132.009H123.113C123.586 132.486 124.091 132.931 124.623 133.34C126.002 134.45 127.561 135.316 129.232 135.9C132.919 133.825 137.047 132.654 141.275 132.485C145.503 132.316 149.711 133.153 153.552 134.928C154.098 134.965 154.645 134.965 155.19 134.928C159.233 134.571 162.969 132.629 165.584 129.526C166.495 130.001 167.446 130.395 168.426 130.704C169.912 131.157 171.455 131.39 173.009 131.395C175.804 131.426 178.555 130.699 180.971 129.293C183.387 127.887 185.377 125.853 186.73 123.407C188.623 124.477 190.717 125.145 192.879 125.37C195.042 125.594 197.228 125.371 199.3 124.713C200.926 124.233 202.458 123.48 203.832 122.486C205.408 121.358 206.742 119.924 207.753 118.271C208.765 116.617 209.433 114.777 209.72 112.86L210.667 112.374C210.846 114.166 210.897 115.881 211.051 117.647C211.14 115.88 211.011 114.109 210.667 112.374C214.061 117.746 216.159 123.834 216.794 130.157C217.43 136.479 216.585 142.863 214.328 148.803C213.859 149.854 213.507 150.953 213.278 152.08C213.209 152.313 213.166 152.554 213.15 152.797C213.256 154.925 213.778 157.013 214.686 158.941C215.685 162.196 215.895 165.642 215.298 168.994C214.702 172.346 213.316 175.508 211.256 178.218Z" fill="#F9DE96"/>
<path opacity="0.2" d="M103.043 141.941C107.026 142.63 111.088 142.733 115.101 142.248L117.891 142.069C122.892 141.568 127.941 142.162 132.689 143.81C134.808 144.517 136.733 145.709 138.311 147.291C139.888 148.874 141.075 150.802 141.777 152.923C141.99 153.929 142.144 154.946 142.238 155.97C142.305 158.029 142.775 160.056 143.62 161.935C144.305 163.096 145.257 164.078 146.396 164.8C147.536 165.521 148.831 165.96 150.174 166.082H150.711C151.565 166.113 152.414 165.942 153.188 165.581C153.962 165.221 154.64 164.682 155.166 164.008C156.09 162.72 156.476 161.122 156.241 159.554C155.887 156.961 155.109 154.444 153.937 152.104C153.579 151.336 153.246 150.543 152.939 149.749C152.311 148.546 151.961 147.217 151.917 145.861C151.873 144.505 152.134 143.156 152.683 141.915C154.508 139.778 156.893 138.191 159.569 137.333C162.974 135.797 166.814 134.056 168.35 130.574C167.37 130.266 166.419 129.872 165.509 129.396C162.893 132.499 159.157 134.441 155.115 134.798C152.566 135.875 150.374 137.65 148.791 139.918C147.928 141.652 147.478 143.562 147.478 145.499C147.478 147.436 147.928 149.346 148.791 151.08C149.124 151.925 149.483 152.744 149.841 153.64C150.866 155.601 151.55 157.722 151.863 159.912C151.979 160.508 151.879 161.125 151.582 161.653C151.582 161.653 151.351 162.012 150.66 161.96C150.071 161.899 149.504 161.704 149.002 161.389C148.501 161.073 148.078 160.647 147.767 160.143C147.185 158.699 146.856 157.167 146.795 155.612C146.705 154.398 146.534 153.192 146.283 152.002C145.418 149.221 143.904 146.686 141.865 144.607C139.826 142.528 137.321 140.964 134.557 140.046C131.329 138.812 127.924 138.103 124.471 137.947L129.002 136.001L129.233 135.873C127.562 135.289 126.003 134.423 124.624 133.313L114.128 137.819C113.909 137.907 113.708 138.037 113.539 138.203C110.428 138.575 107.278 138.481 104.195 137.922C100.534 137.102 96.7966 134.517 96.515 131.137C96.5127 130.907 96.4603 130.68 96.3614 130.472C94.9729 130.936 93.5239 131.195 92.0605 131.24C92.3678 137 97.923 140.814 103.043 141.941Z" fill="#1D1D1B"/>
<path opacity="0.2" d="M213.074 152.669C213.09 152.426 213.132 152.185 213.202 151.952C212.667 151.588 212.091 151.287 211.487 151.056C209.41 150.352 207.228 150.006 205.035 150.032L201.323 149.878C200.911 148.746 200.424 147.643 199.864 146.576C201.591 145.338 203.233 143.987 204.779 142.531C206.464 142.443 208.148 142.714 209.72 143.325C210.004 143.446 210.309 143.507 210.616 143.504C211.045 143.511 211.467 143.397 211.834 143.175C212.201 142.953 212.497 142.633 212.69 142.25C212.801 141.997 212.858 141.724 212.858 141.449C212.857 141.173 212.8 140.9 212.69 140.648C212.579 140.395 212.417 140.168 212.215 139.981C212.012 139.794 211.773 139.651 211.512 139.561C210.387 139.129 209.22 138.812 208.031 138.614C209.684 136.382 210.637 133.709 210.77 130.934C210.767 130.651 210.707 130.371 210.594 130.111C210.481 129.851 210.317 129.616 210.112 129.42C209.906 129.225 209.664 129.072 209.399 128.972C209.134 128.871 208.852 128.825 208.568 128.835C208.006 128.814 207.459 129.014 207.042 129.392C206.626 129.77 206.374 130.296 206.341 130.857C206.341 135.721 201.887 139.817 197.663 142.941C196.946 141.866 196.178 140.79 195.358 139.741C198.003 137.73 200.137 135.125 201.587 132.136C203.037 129.147 203.762 125.859 203.704 122.537C202.331 123.531 200.799 124.284 199.173 124.764C198.856 127.273 198.007 129.686 196.682 131.84C195.358 133.995 193.588 135.842 191.493 137.257C191.22 137.493 190.929 137.707 190.622 137.897C190.187 138.179 189.726 138.461 189.291 138.691C183.735 141.661 177.449 142.993 171.166 142.531C169.528 142.531 165.175 142.25 163.665 145.373C163.148 146.645 163.148 148.069 163.665 149.341C164.203 151.338 164.945 153.36 165.662 155.306C166.552 157.568 167.296 159.886 167.889 162.244C167.889 162.397 168.35 165.648 168.35 165.648C168.286 167.227 168.028 168.792 167.582 170.308C166.557 172.317 165.063 174.049 163.227 175.359C161.391 176.669 159.267 177.518 157.034 177.834C152.072 178.633 146.989 178.193 142.237 176.554C140.146 176.017 138.168 175.107 136.4 173.866C135.661 173.36 135.033 172.706 134.557 171.946L134.199 171.306C133.404 168.935 133.141 166.417 133.431 163.933C133.431 159.786 133.661 155.101 129.616 152.106C125.571 149.11 120.298 150.083 115.997 150.826H115.638C106.928 152.609 97.8973 152.008 89.5001 149.085C81.1288 145.782 74.8822 139.049 73.6278 131.881C73.5612 131.471 73.3637 131.094 73.0646 130.806C72.8754 133.752 73.4484 136.697 74.7286 139.357C75.0322 139.896 75.3057 140.451 75.5478 141.021C75.5478 142.275 75.5478 143.581 75.727 144.886C79.0888 148.387 83.179 151.105 87.7081 152.848C88.2457 153.079 88.7833 153.258 89.3465 153.463C88.1279 155.909 87.7242 158.681 88.1945 161.373C88.3068 161.869 88.5875 162.312 88.9889 162.624C89.3903 162.937 89.8874 163.101 90.3961 163.088H90.7545C91.0347 163.063 91.3069 162.982 91.5544 162.848C91.802 162.715 92.0198 162.532 92.1946 162.312C92.3694 162.092 92.4974 161.838 92.5712 161.567C92.6449 161.295 92.6626 161.012 92.6233 160.733C92.2803 158.653 92.6695 156.517 93.7243 154.691C101.209 156.231 108.923 156.292 116.432 154.871H116.816C120.579 154.256 124.496 153.565 126.8 155.306C127.504 155.849 128.044 156.575 128.362 157.405C122.013 156.586 115.741 159.172 110.877 161.655L108.649 162.781C104.234 165.49 99.2962 167.234 94.1595 167.901C87.2473 168.285 80.7703 164.496 74.7542 160.221C75.0356 162.533 75.7847 164.762 76.9558 166.775C81.7892 170.008 87.4266 171.834 93.2379 172.049H94.3898C100.209 171.409 105.814 169.485 110.8 166.416L112.976 165.316C112.404 167.211 111.729 169.075 110.953 170.897C110.211 172.817 109.443 174.788 108.829 176.81V177.143C105.039 176.826 101.246 177.722 97.9996 179.703C97.6839 179.706 97.3715 179.766 97.078 179.882C95.7918 180.233 94.4476 180.319 93.1273 180.134C91.8069 179.949 90.5382 179.498 89.3978 178.807C88.1946 178.167 87.0169 177.45 85.8137 176.657C84.1374 175.513 82.3741 174.503 80.5399 173.636C80.3752 173.572 80.2032 173.529 80.0279 173.508C80.0279 173.943 80.2583 174.378 80.3351 174.788C80.3351 175.94 80.3351 177.117 80.3351 178.27C81.3079 178.807 82.2295 179.396 83.2024 180.036C84.1752 180.676 85.7625 181.649 87.1193 182.391C89.0463 183.4 91.1338 184.067 93.289 184.362C91.1129 187.665 90.0122 189.124 90.9594 192.913C88.3645 190.698 85.5707 188.727 82.6136 187.025L82.1272 186.615C83.2706 189.509 85.0159 192.127 87.2473 194.295C87.8803 194.878 88.5658 195.401 89.2953 195.857C90.2892 196.864 91.3407 197.813 92.4443 198.699C93.8239 199.828 95.2593 200.888 96.7451 201.873C98.0252 202.769 99.3051 203.614 100.662 204.433C105.372 207.794 110.546 210.45 116.022 212.318C122.315 214.084 128.991 213.933 135.197 211.883C137.456 211.158 139.615 210.152 141.623 208.888C141.956 209.093 142.289 209.246 142.647 209.425C144.233 210.21 145.909 210.795 147.639 211.166C149.702 210.207 151.843 209.428 154.039 208.837C156.29 208.258 158.585 207.864 160.9 207.659C156.536 206.109 152.893 203.012 150.66 198.955C150.355 198.452 149.877 198.078 149.316 197.904C148.755 197.729 148.149 197.766 147.613 198.008C147.355 198.114 147.122 198.273 146.929 198.476C146.737 198.678 146.588 198.918 146.494 199.181C146.4 199.444 146.362 199.724 146.383 200.002C146.404 200.281 146.483 200.552 146.615 200.798C148.068 203.463 150.065 205.791 152.477 207.633C151.125 207.985 149.726 208.123 148.33 208.043C147.229 207.889 146.205 207.403 145.13 207.198C144.552 207.134 143.968 207.134 143.389 207.198C144.299 203.344 143.733 199.289 141.802 195.832C142.442 195.448 143.056 195.064 143.671 194.628C145.286 193.553 146.699 192.201 147.844 190.635C148.667 189.371 149.353 188.024 149.892 186.615C150.148 186.026 150.378 185.463 150.66 184.9C150.419 188.561 151.582 192.177 153.911 195.012C157.246 198.813 161.312 201.904 165.867 204.1C167.608 205.073 169.4 206.072 171.268 206.917L194.77 204.945C196.002 204.862 197.201 204.503 198.277 203.896C200.059 203.825 201.806 203.371 203.397 202.564C203.602 202.283 203.781 201.976 203.96 201.668C204.838 199.892 205.09 197.872 204.677 195.934C203.499 188.254 197.432 180.958 188.702 176.759C188.796 176.627 188.865 176.48 188.907 176.324C189.538 174.46 189.858 172.506 189.854 170.538V170.129C193.714 170.555 197.412 171.916 200.628 174.093C203.844 176.27 206.481 179.197 208.312 182.622C208.504 182.998 208.798 183.312 209.16 183.53C209.522 183.747 209.938 183.858 210.36 183.85C210.062 182.716 209.686 181.604 209.234 180.522C209.849 179.87 210.43 179.186 210.975 178.474C208.98 175.406 206.363 172.789 203.295 170.794C203.352 170.593 203.395 170.387 203.423 170.18C204.242 164.902 203.936 159.51 202.527 154.359H204.651C206.292 154.315 207.928 154.549 209.49 155.05C209.994 155.205 210.452 155.483 210.822 155.858C211.193 156.233 211.465 156.694 211.615 157.2C211.679 157.739 211.944 158.233 212.357 158.584C212.77 158.936 213.3 159.118 213.842 159.095H214.047H214.405C213.531 157.065 213.079 154.879 213.074 152.669ZM121.04 209.656C111.977 209.221 96.8476 197.342 96.438 196.446C96.1286 195.746 95.8636 195.028 95.6443 194.295C95.1919 192.381 95.2855 190.377 95.9145 188.513C96.5435 186.648 97.6827 184.998 99.2027 183.748C101.684 181.748 104.83 180.76 108.009 180.983C107.612 183.312 107.771 185.703 108.474 187.958C109.177 190.214 110.404 192.272 112.054 193.963C113.239 195.038 114.598 195.904 116.074 196.523C113.492 197.401 110.822 197.994 108.112 198.289C107.829 198.302 107.552 198.372 107.297 198.494C107.042 198.617 106.814 198.79 106.628 199.003C106.441 199.216 106.299 199.464 106.211 199.733C106.123 200.002 106.09 200.286 106.115 200.568C106.212 201.083 106.49 201.546 106.898 201.874C107.306 202.203 107.818 202.375 108.342 202.36H108.624C113.345 201.875 117.95 200.594 122.243 198.571C124.104 198.958 126 199.155 127.901 199.16C131.345 199.164 134.762 198.548 137.988 197.342C139.882 200.593 139.063 203.23 137.629 206.635C133.328 209.425 126.288 209.937 121.04 209.656ZM145.898 184.9C145.471 186.064 144.922 187.18 144.26 188.228C143.382 189.362 142.327 190.347 141.136 191.147C136.177 194.432 130.17 195.747 124.291 194.833C123.426 194.718 122.57 194.538 121.731 194.295C120.964 194.111 120.211 193.871 119.478 193.579C117.924 192.994 116.492 192.126 115.254 191.019C114.07 189.749 113.2 188.218 112.715 186.551C112.231 184.883 112.144 183.125 112.464 181.418C112.6 180.224 112.832 179.043 113.155 177.886C113.166 177.766 113.166 177.646 113.155 177.527C113.693 175.709 114.41 173.892 115.152 171.972C116.438 168.99 117.416 165.885 118.07 162.704C121.415 161.268 125.096 160.798 128.695 161.348L128.899 161.604C128.899 162.244 128.899 162.909 128.899 163.575C128.505 166.933 129.045 170.335 130.461 173.405C127.113 176.295 124.312 179.764 122.192 183.646C122.065 183.892 121.991 184.163 121.974 184.439C121.957 184.716 121.998 184.994 122.095 185.254C122.191 185.514 122.34 185.751 122.534 185.95C122.727 186.149 122.959 186.306 123.216 186.411C123.533 186.54 123.872 186.609 124.215 186.615C124.618 186.623 125.016 186.523 125.367 186.325C125.718 186.127 126.01 185.838 126.211 185.489C128.028 182.144 130.41 179.138 133.251 176.605C135.553 178.296 138.161 179.522 140.932 180.215C143.068 180.87 145.25 181.366 147.46 181.7C146.869 182.739 146.347 183.817 145.898 184.926V184.9ZM200.504 196.19C200.775 197.328 200.667 198.524 200.197 199.595C198.878 201.164 197.078 202.253 195.077 202.692C191.233 204.41 187.098 205.383 182.891 205.56C177.699 205.062 172.708 203.305 168.35 200.44C164.314 198.496 160.696 195.783 157.7 192.452C156.454 191.05 155.645 189.315 155.372 187.459C155.099 185.603 155.375 183.709 156.164 182.007L157.93 181.751C160.88 181.308 163.68 180.16 166.091 178.404C168.502 176.648 170.454 174.336 171.78 171.665C172.537 169.795 172.912 167.793 172.881 165.776C175.53 165.721 178.178 165.909 180.792 166.34H181.176C181.684 166.352 182.182 166.188 182.583 165.875C182.985 165.563 183.265 165.121 183.377 164.624C183.421 164.348 183.407 164.066 183.339 163.794C183.27 163.523 183.147 163.268 182.977 163.046C182.807 162.824 182.594 162.638 182.35 162.5C182.107 162.362 181.838 162.275 181.56 162.244C178.521 161.766 175.444 161.569 172.369 161.655C171.711 158.992 170.855 156.382 169.809 153.847C169.092 151.875 168.401 150.032 167.889 148.214C167.659 147.318 167.684 146.986 167.735 146.883C167.787 146.781 168.171 146.346 170.884 146.474H172.907C173.004 146.562 173.117 146.632 173.24 146.678C177.6 148.52 181.097 151.953 183.019 156.279C184.916 160.637 185.75 165.384 185.451 170.129C185.466 171.675 185.232 173.213 184.76 174.685C184.033 176.327 183.057 177.847 181.867 179.191L180.612 180.83L178.718 183.262L174.417 189.175C174.246 189.391 174.123 189.641 174.056 189.908C173.989 190.175 173.98 190.453 174.028 190.724C174.076 190.995 174.182 191.253 174.337 191.48C174.493 191.707 174.694 191.899 174.929 192.043C175.314 192.304 175.77 192.438 176.235 192.427C176.585 192.43 176.932 192.356 177.251 192.21C177.569 192.064 177.852 191.85 178.078 191.582L180.638 188.254C182.33 191.094 184.861 193.339 187.883 194.679C188.202 194.801 188.54 194.862 188.882 194.859C189.288 194.867 189.689 194.764 190.041 194.561C190.393 194.358 190.682 194.063 190.878 193.707C191.004 193.46 191.077 193.19 191.092 192.914C191.107 192.638 191.063 192.361 190.964 192.103C190.865 191.845 190.713 191.61 190.518 191.414C190.322 191.219 190.087 191.066 189.829 190.967C188.405 190.329 187.125 189.407 186.069 188.259C185.013 187.11 184.201 185.758 183.685 184.286L185.681 181.726L186.808 180.241C194.334 183.697 199.506 189.764 200.504 196.216V196.19ZM199.327 168.183C196.394 166.815 193.253 165.949 190.034 165.623C189.888 161.824 189.02 158.088 187.474 154.615C185.885 151.175 183.487 148.171 180.484 145.859C184.493 145.244 188.36 143.918 191.902 141.942C193.117 143.478 194.212 145.104 195.179 146.806V146.986C195.168 147.071 195.168 147.157 195.179 147.242C195.266 147.419 195.378 147.583 195.512 147.728C198.807 154.018 200.136 161.154 199.327 168.208V168.183Z" fill="#1D1D1B"/>
</g>
</svg>
