<svg width="314" height="323" viewBox="0 0 314 323" fill="none" xmlns="http://www.w3.org/2000/svg">
<path d="M73.8594 21.6189L49.1228 2.25089C47.5351 1.00776 45.2403 1.28709 43.9972 2.8748L2.94541 55.3054C1.70228 56.8931 1.98161 59.1879 3.56932 60.4311L28.3058 79.7991C29.8935 81.0422 32.1884 80.7629 33.4315 79.1752L74.4833 26.7446C75.7264 25.1569 75.4471 22.8621 73.8594 21.6189Z" fill="#F5F5F5"/>
<path d="M29.1482 72.7725C29.1061 72.8145 25.0905 69.738 20.178 65.8906C15.2654 62.0432 11.3128 58.8826 11.3479 58.8336C11.3829 58.7845 15.3985 61.868 20.3181 65.7154C25.2377 69.5628 29.1832 72.7234 29.1482 72.7725Z" fill="#E0E0E0"/>
<path d="M66.3533 23.1973C66.3113 23.2463 62.2957 20.1628 57.3831 16.3154C52.4705 12.468 48.511 9.30745 48.5531 9.25839C48.5951 9.20933 52.6037 12.2928 57.5233 16.1402C62.4429 19.9876 66.3884 23.1482 66.3533 23.1973Z" fill="#E0E0E0"/>
<path d="M19.7434 65.2596C19.6943 65.2176 28.195 54.2851 38.721 40.8438C49.247 27.4025 57.8248 16.5261 57.8738 16.5611C57.9229 16.5962 49.4292 27.5286 38.8962 40.977C28.3632 54.4253 19.7924 65.2947 19.7434 65.2596Z" fill="#E0E0E0"/>
<path d="M43.2275 19.9106L45.4631 16.9111L48.2663 19.0135C48.4631 19.16 48.6292 19.3439 48.7548 19.5547C48.8804 19.7655 48.9632 19.9991 48.9983 20.2419C49.0335 20.4848 49.0203 20.7322 48.9597 20.97C48.899 21.2077 48.792 21.4312 48.6447 21.6275C48.3487 22.0246 47.9074 22.2882 47.4174 22.3605C46.9274 22.4327 46.4287 22.3077 46.0307 22.0129L43.2275 19.9106Z" fill="#EBEBEB"/>
<path d="M45.9674 17.2899L43.7319 20.2823L40.9287 18.1799C40.5256 17.8879 40.2549 17.4478 40.1761 16.9564C40.0972 16.4649 40.2167 15.9623 40.5082 15.5589C40.6547 15.362 40.8386 15.196 41.0494 15.0704C41.2602 14.9448 41.4937 14.862 41.7366 14.8269C41.9794 14.7917 42.2269 14.8048 42.4646 14.8655C42.7024 14.9262 42.9259 15.0332 43.1222 15.1804L45.9674 17.2899Z" fill="#E0E0E0"/>
<path d="M57.7061 30.9696L59.9416 27.9702L62.7448 30.0726C63.1424 30.3699 63.4061 30.8124 63.4783 31.3036C63.5506 31.7947 63.4254 32.2945 63.1302 32.6936C62.8319 33.0901 62.3889 33.3524 61.8978 33.4234C61.4067 33.4943 60.9075 33.368 60.5092 33.072L57.7061 30.9696Z" fill="#EBEBEB"/>
<path d="M60.4463 28.3413L58.2107 31.3407L55.4075 29.2383C55.2107 29.0918 55.0446 28.9079 54.919 28.6971C54.7934 28.4863 54.7106 28.2527 54.6755 28.0099C54.6403 27.767 54.6535 27.5196 54.7141 27.2818C54.7748 27.0441 54.8818 26.8206 55.0291 26.6243C55.1756 26.4274 55.3595 26.2614 55.5703 26.1358C55.7811 26.0102 56.0146 25.9274 56.2575 25.8923C56.5003 25.8571 56.7478 25.8703 56.9855 25.9309C57.2233 25.9916 57.4467 26.0986 57.6431 26.2459L60.4463 28.3413Z" fill="#E0E0E0"/>
<path d="M36.9551 28.1801L39.1906 25.1807L41.9938 27.2831C42.3914 27.5803 42.6551 28.0229 42.7274 28.514C42.7996 29.0052 42.6744 29.5049 42.3793 29.904C42.081 30.3005 41.6379 30.5629 41.1468 30.6338C40.6557 30.7047 40.1565 30.5784 39.7583 30.2825L36.9551 28.1801Z" fill="#EBEBEB"/>
<path d="M39.6883 25.5522L37.4597 28.5516L34.6565 26.4492C34.4597 26.3027 34.2937 26.1188 34.1681 25.908C34.0424 25.6972 33.9597 25.4637 33.9245 25.2208C33.8893 24.978 33.9025 24.7306 33.9632 24.4928C34.0238 24.255 34.1309 24.0316 34.2781 23.8352C34.4246 23.6384 34.6085 23.4724 34.8193 23.3468C35.0301 23.2211 35.2637 23.1384 35.5065 23.1032C35.7494 23.0681 35.9968 23.0812 36.2346 23.1419C36.4723 23.2026 36.6958 23.3096 36.8921 23.4568L39.6883 25.5522Z" fill="#E0E0E0"/>
<path d="M51.7627 39.4768L53.9982 36.4844L56.8014 38.5868C57.1986 38.8828 57.4621 39.3241 57.5344 39.8141C57.6066 40.3041 57.4817 40.8027 57.1869 41.2008C57.0403 41.3984 56.8561 41.5652 56.645 41.6915C56.4338 41.8179 56.1998 41.9014 55.9563 41.9372C55.7129 41.973 55.4647 41.9604 55.2262 41.9002C54.9876 41.8399 54.7632 41.7332 54.5659 41.5862L51.7627 39.4768Z" fill="#EBEBEB"/>
<path d="M54.5242 36.8562L52.2957 39.8556L49.4925 37.7532C49.2956 37.6067 49.1296 37.4228 49.004 37.212C48.8784 37.0012 48.7956 36.7676 48.7604 36.5248C48.7253 36.2819 48.7384 36.0345 48.7991 35.7967C48.8598 35.559 48.9668 35.3355 49.114 35.1392C49.41 34.7421 49.8514 34.4785 50.3414 34.4063C50.8314 34.334 51.33 34.459 51.728 34.7538L54.5242 36.8562Z" fill="#E0E0E0"/>
<path d="M30.6973 36.4428L32.9328 33.4434L35.736 35.5458C35.9329 35.6923 36.0989 35.8762 36.2245 36.087C36.3501 36.2978 36.4329 36.5313 36.468 36.7742C36.5032 37.017 36.4901 37.2644 36.4294 37.5022C36.3687 37.74 36.2617 37.9634 36.1144 38.1597C35.8185 38.5569 35.3771 38.8204 34.8871 38.8927C34.3971 38.9649 33.8985 38.84 33.5005 38.5452L30.6973 36.4428Z" fill="#EBEBEB"/>
<path d="M33.4156 33.8355L31.1801 36.8349L28.3769 34.7325C28.1795 34.5865 28.0128 34.403 27.8866 34.1924C27.7603 33.9819 27.6768 33.7485 27.641 33.5056C27.6052 33.2627 27.6177 33.0151 27.6779 32.7771C27.738 32.5391 27.8446 32.3153 27.9914 32.1185C28.287 31.7274 28.7242 31.4679 29.2091 31.3958C29.694 31.3238 30.1878 31.4448 30.5844 31.7331L33.4156 33.8355Z" fill="#E0E0E0"/>
<path d="M45.8203 47.9916L48.0489 44.9922L50.852 47.0946C51.0489 47.2411 51.2149 47.425 51.3405 47.6358C51.4662 47.8466 51.5489 48.0801 51.5841 48.323C51.6192 48.5659 51.6061 48.8133 51.5454 49.051C51.4847 49.2888 51.3777 49.5123 51.2305 49.7086C50.9345 50.1057 50.4931 50.3693 50.0031 50.4415C49.5132 50.5138 49.0145 50.3888 48.6165 50.094L45.8203 47.9916Z" fill="#EBEBEB"/>
<path d="M48.5528 45.3706L46.3173 48.37L43.5141 46.2676C43.3148 46.1226 43.1462 45.9396 43.0179 45.7292C42.8895 45.5188 42.804 45.2851 42.7662 45.0416C42.7285 44.798 42.7392 44.5494 42.7978 44.31C42.8564 44.0706 42.9617 43.8452 43.1076 43.6466C43.4049 43.249 43.8474 42.9853 44.3386 42.9131C44.8297 42.8408 45.3295 42.966 45.7286 43.2612L48.5528 45.3706Z" fill="#E0E0E0"/>
<path d="M23.5635 44.9364L25.792 41.937L28.5952 44.0394C28.7921 44.1859 28.9581 44.3698 29.0837 44.5806C29.2093 44.7914 29.2921 45.025 29.3272 45.2678C29.3624 45.5107 29.3493 45.7581 29.2886 45.9959C29.2279 46.2336 29.1209 46.4571 28.9736 46.6534C28.8271 46.8503 28.6432 47.0163 28.4324 47.1419C28.2216 47.2675 27.9881 47.3503 27.7452 47.3854C27.5024 47.4206 27.255 47.4074 27.0172 47.3468C26.7794 47.2861 26.556 47.1791 26.3597 47.0318L23.5635 44.9364Z" fill="#EBEBEB"/>
<path d="M26.296 42.3084L24.0604 45.3079L21.2572 43.2055C20.8618 42.9061 20.6009 42.4626 20.5313 41.9715C20.4617 41.4805 20.5891 40.9819 20.8858 40.5845C21.1841 40.188 21.6272 39.9256 22.1183 39.8547C22.6094 39.7838 23.1085 39.9101 23.5068 40.2061L26.296 42.3084Z" fill="#E0E0E0"/>
<path d="M38.8262 56.3105L41.0617 53.311L43.8649 55.4134C44.0623 55.5594 44.2289 55.7429 44.3552 55.9535C44.4815 56.164 44.5649 56.3975 44.6007 56.6403C44.6366 56.8832 44.624 57.1308 44.5639 57.3688C44.5038 57.6069 44.3972 57.8307 44.2504 58.0274C44.1039 58.2243 43.9199 58.3903 43.7091 58.5159C43.4983 58.6415 43.2648 58.7243 43.0219 58.7594C42.7791 58.7946 42.5317 58.7815 42.2939 58.7208C42.0561 58.6601 41.8327 58.5531 41.6364 58.4058L38.8262 56.3105Z" fill="#EBEBEB"/>
<path d="M41.5661 53.6893L39.3306 56.6817L36.5274 54.5793C36.1309 54.281 35.8685 53.8379 35.7976 53.3468C35.7267 52.8558 35.853 52.3566 36.1489 51.9583C36.2954 51.7614 36.4793 51.5954 36.6901 51.4698C36.9009 51.3442 37.1345 51.2614 37.3773 51.2263C37.6202 51.1911 37.8676 51.2042 38.1054 51.2649C38.3431 51.3256 38.5666 51.4326 38.7629 51.5799L41.5661 53.6893Z" fill="#E0E0E0"/>
<path d="M17.2695 54.5019L19.4841 51.5024L22.2872 53.6048C22.6837 53.9031 22.9461 54.3462 23.017 54.8373C23.0879 55.3284 22.9616 55.8276 22.6657 56.2258C22.5192 56.4227 22.3353 56.5887 22.1245 56.7143C21.9137 56.8399 21.6801 56.9227 21.4373 56.9579C21.1944 56.993 20.947 56.9799 20.7092 56.9192C20.4715 56.8585 20.248 56.7515 20.0517 56.6043L17.2695 54.5019Z" fill="#EBEBEB"/>
<path d="M20.0097 51.8742L17.7742 54.8596L14.971 52.7572C14.5748 52.4624 14.3112 52.0229 14.2377 51.5345C14.1641 51.0462 14.2867 50.5486 14.5785 50.1502C14.725 49.9533 14.9089 49.7873 15.1197 49.6617C15.3305 49.5361 15.5641 49.4533 15.8069 49.4182C16.0498 49.383 16.2972 49.3961 16.535 49.4568C16.7727 49.5175 16.9962 49.6245 17.1925 49.7718L20.0097 51.8742Z" fill="#E0E0E0"/>
<path d="M31.7969 65.3227L34.0324 62.3232L36.8356 64.4256C37.033 64.5716 37.1996 64.7551 37.3259 64.9657C37.4522 65.1762 37.5356 65.4097 37.5714 65.6525C37.6073 65.8954 37.5947 66.143 37.5346 66.381C37.4745 66.6191 37.3679 66.8429 37.2211 67.0396C37.0746 67.2365 36.8906 67.4025 36.6798 67.5281C36.469 67.6537 36.2355 67.7365 35.9927 67.7716C35.7498 67.8068 35.5024 67.7937 35.2646 67.733C35.0268 67.6723 34.8034 67.5653 34.6071 67.418L31.7969 65.3227Z" fill="#EBEBEB"/>
<path d="M34.5378 62.694L32.3022 65.6934L29.499 63.591C29.1025 63.2927 28.8402 62.8496 28.7693 62.3586C28.6984 61.8675 28.8247 61.3683 29.1206 60.97C29.2671 60.7732 29.451 60.6071 29.6618 60.4815C29.8726 60.3559 30.1062 60.2731 30.349 60.238C30.5919 60.2028 30.8393 60.216 31.0771 60.2766C31.3148 60.3373 31.5383 60.4443 31.7346 60.5916L34.5378 62.694Z" fill="#E0E0E0"/>
<path d="M310.638 197.444L265.619 212.785C265.165 212.939 264.684 213.002 264.206 212.971C263.727 212.94 263.259 212.814 262.829 212.602C262.399 212.39 262.015 212.095 261.699 211.734C261.382 211.374 261.14 210.954 260.986 210.5L229.584 118.317C229.428 117.863 229.364 117.382 229.394 116.903C229.424 116.424 229.549 115.956 229.76 115.525C229.972 115.094 230.266 114.709 230.627 114.392C230.987 114.075 231.407 113.832 231.861 113.678L276.881 98.3442C277.797 98.0323 278.8 98.097 279.668 98.524C280.537 98.9511 281.2 99.7057 281.513 100.622L312.916 192.812C313.071 193.266 313.135 193.745 313.105 194.224C313.075 194.703 312.95 195.17 312.738 195.601C312.527 196.031 312.232 196.415 311.872 196.732C311.511 197.048 311.092 197.29 310.638 197.444Z" fill="#EBEBEB"/>
<path d="M252.444 126.439C252.701 127.191 252.729 128.002 252.525 128.77C252.321 129.537 251.894 130.227 251.298 130.752C250.702 131.277 249.963 131.613 249.176 131.719C248.388 131.824 247.588 131.693 246.874 131.343C246.161 130.993 245.568 130.439 245.17 129.751C244.772 129.064 244.586 128.274 244.637 127.481C244.688 126.689 244.973 125.929 245.456 125.298C245.938 124.667 246.597 124.193 247.349 123.937C248.357 123.594 249.459 123.665 250.414 124.134C251.37 124.603 252.1 125.432 252.444 126.439Z" fill="#FAFAFA"/>
<path d="M274.519 118.92C274.775 119.67 274.802 120.48 274.597 121.246C274.393 122.012 273.966 122.7 273.371 123.223C272.775 123.747 272.038 124.082 271.252 124.186C270.466 124.29 269.667 124.159 268.956 123.809C268.244 123.46 267.652 122.907 267.255 122.221C266.858 121.534 266.673 120.746 266.724 119.955C266.775 119.164 267.059 118.405 267.541 117.776C268.023 117.146 268.681 116.674 269.431 116.418C269.929 116.248 270.456 116.178 270.982 116.212C271.507 116.246 272.021 116.383 272.493 116.615C272.966 116.847 273.388 117.17 273.735 117.566C274.083 117.961 274.349 118.421 274.519 118.92Z" fill="#FAFAFA"/>
<path d="M259.431 146.966C259.687 147.716 259.714 148.525 259.51 149.291C259.305 150.057 258.878 150.746 258.283 151.269C257.687 151.792 256.95 152.127 256.164 152.232C255.378 152.336 254.579 152.205 253.868 151.855C253.156 151.505 252.564 150.952 252.167 150.266C251.77 149.58 251.585 148.792 251.636 148.001C251.687 147.209 251.971 146.451 252.453 145.822C252.935 145.192 253.593 144.72 254.343 144.464C254.842 144.293 255.369 144.222 255.894 144.256C256.42 144.289 256.934 144.426 257.407 144.658C257.879 144.891 258.301 145.214 258.649 145.61C258.996 146.006 259.262 146.467 259.431 146.966Z" fill="#FAFAFA"/>
<path d="M281.513 139.446C281.769 140.197 281.796 141.006 281.592 141.772C281.387 142.538 280.96 143.226 280.365 143.75C279.769 144.273 279.032 144.608 278.246 144.712C277.46 144.817 276.661 144.686 275.95 144.336C275.238 143.986 274.647 143.433 274.249 142.747C273.852 142.061 273.667 141.272 273.718 140.481C273.769 139.69 274.053 138.932 274.535 138.302C275.017 137.673 275.675 137.2 276.425 136.944C276.924 136.774 277.451 136.704 277.976 136.738C278.501 136.772 279.015 136.909 279.487 137.141C279.96 137.374 280.382 137.697 280.729 138.092C281.077 138.488 281.343 138.948 281.513 139.446Z" fill="#FAFAFA"/>
<path d="M266.424 167.499C266.68 168.249 266.707 169.059 266.503 169.825C266.298 170.591 265.871 171.279 265.276 171.802C264.68 172.326 263.943 172.661 263.157 172.765C262.371 172.869 261.572 172.738 260.861 172.388C260.149 172.039 259.558 171.486 259.16 170.8C258.763 170.114 258.578 169.325 258.629 168.534C258.68 167.743 258.965 166.984 259.446 166.355C259.928 165.725 260.586 165.253 261.336 164.997C261.835 164.827 262.362 164.757 262.887 164.791C263.412 164.825 263.926 164.962 264.399 165.194C264.871 165.426 265.293 165.75 265.641 166.145C265.988 166.54 266.254 167.001 266.424 167.499Z" fill="#FAFAFA"/>
<path d="M288.506 159.979C288.762 160.73 288.789 161.539 288.585 162.305C288.38 163.071 287.953 163.759 287.358 164.283C286.762 164.806 286.025 165.141 285.239 165.245C284.453 165.35 283.654 165.219 282.943 164.869C282.231 164.519 281.64 163.966 281.243 163.28C280.845 162.594 280.66 161.805 280.711 161.014C280.762 160.223 281.047 159.465 281.528 158.835C282.01 158.206 282.668 157.733 283.418 157.478C283.917 157.308 284.444 157.238 284.969 157.271C285.494 157.305 286.008 157.442 286.481 157.675C286.953 157.907 287.375 158.23 287.723 158.625C288.07 159.021 288.336 159.481 288.506 159.979Z" fill="#FAFAFA"/>
<path d="M273.418 188.011C273.674 188.762 273.701 189.571 273.497 190.337C273.292 191.103 272.866 191.791 272.27 192.314C271.675 192.838 270.937 193.173 270.151 193.277C269.366 193.382 268.566 193.251 267.855 192.901C267.144 192.551 266.552 191.998 266.155 191.312C265.757 190.626 265.573 189.837 265.624 189.046C265.674 188.255 265.959 187.497 266.441 186.867C266.922 186.238 267.58 185.765 268.331 185.509C268.829 185.339 269.356 185.269 269.881 185.303C270.407 185.337 270.92 185.474 271.393 185.706C271.865 185.939 272.287 186.262 272.635 186.657C272.982 187.053 273.249 187.513 273.418 188.011Z" fill="#FAFAFA"/>
<path d="M295.501 180.506C295.757 181.256 295.784 182.066 295.58 182.832C295.375 183.598 294.949 184.286 294.353 184.809C293.758 185.332 293.02 185.667 292.234 185.772C291.449 185.876 290.649 185.745 289.938 185.395C289.227 185.045 288.635 184.493 288.238 183.806C287.84 183.12 287.656 182.332 287.707 181.541C287.757 180.75 288.042 179.991 288.524 179.362C289.005 178.732 289.663 178.26 290.414 178.004C290.912 177.834 291.439 177.764 291.964 177.798C292.49 177.832 293.003 177.969 293.476 178.201C293.948 178.433 294.37 178.756 294.718 179.152C295.065 179.547 295.332 180.007 295.501 180.506Z" fill="#FAFAFA"/>
<path d="M250.292 124.288C249.865 125.474 249.339 126.622 248.722 127.722C248.202 128.871 247.583 129.973 246.872 131.015C247.3 129.829 247.825 128.681 248.442 127.581C248.96 126.431 249.58 125.329 250.292 124.288Z" fill="#E0E0E0"/>
<path d="M271.912 116.74C271.488 117.929 270.965 119.08 270.349 120.181C269.824 121.328 269.205 122.43 268.499 123.475C268.925 122.287 269.448 121.136 270.062 120.034C270.589 118.888 271.208 117.787 271.912 116.74Z" fill="#E0E0E0"/>
<path d="M257.49 144.814C257.121 146.054 256.653 147.261 256.088 148.424C255.628 149.637 255.065 150.809 254.406 151.928C254.777 150.689 255.246 149.482 255.808 148.318C256.27 147.106 256.833 145.934 257.49 144.814Z" fill="#E0E0E0"/>
<path d="M279.298 137.245C279.004 138.446 278.606 139.618 278.107 140.749C277.706 141.922 277.207 143.059 276.614 144.148C276.909 142.948 277.308 141.775 277.806 140.644C278.21 139.472 278.709 138.335 279.298 137.245Z" fill="#E0E0E0"/>
<path d="M263.825 165.257C263.087 167.5 262.149 169.672 261.021 171.746C261.759 169.503 262.697 167.331 263.825 165.257Z" fill="#E0E0E0"/>
<path d="M286.44 158.08C285.514 160.292 284.393 162.417 283.09 164.429C283.502 163.303 284.015 162.217 284.625 161.185C285.14 160.1 285.748 159.061 286.44 158.08Z" fill="#E0E0E0"/>
<path d="M271.415 186.077C270.957 187.245 270.401 188.373 269.754 189.448C269.199 190.573 268.55 191.65 267.812 192.665C268.824 190.371 270.029 188.167 271.415 186.077Z" fill="#E0E0E0"/>
<path d="M293.447 177.892C293.081 179.209 292.612 180.495 292.046 181.739C291.579 183.022 291.012 184.267 290.35 185.46C290.716 184.143 291.184 182.857 291.751 181.613C292.216 180.329 292.783 179.084 293.447 177.892Z" fill="#E0E0E0"/>
<path d="M301.5 191.516C301.5 191.6 294.766 193.976 286.398 196.828C278.03 199.68 271.212 201.923 271.184 201.839C271.156 201.754 277.918 199.379 286.293 196.526C294.667 193.674 301.472 191.418 301.5 191.516Z" fill="#E0E0E0"/>
<path d="M271.491 108.969C271.491 109.046 264.757 111.428 256.382 114.281C248.008 117.133 241.203 119.375 241.175 119.291C241.147 119.207 247.91 116.832 256.284 113.979C264.659 111.127 271.463 108.885 271.491 108.969Z" fill="#E0E0E0"/>
<path d="M256.767 118.246C256.728 118.257 256.687 118.257 256.648 118.246H256.606L256.914 118.148C256.914 118.197 256.914 118.267 256.802 118.295C256.69 118.323 256.634 118.295 256.613 118.246L256.921 118.148C256.921 118.148 256.921 118.183 256.921 118.19C256.901 118.211 256.877 118.226 256.85 118.236C256.824 118.246 256.795 118.249 256.767 118.246Z" fill="#E0E0E0"/>
<path d="M285.311 196.835C285.227 196.835 278.835 178.32 271.028 155.418C263.222 132.515 256.97 113.916 257.055 113.888C257.139 113.86 263.53 132.403 271.33 155.312C279.13 178.222 285.395 196.807 285.311 196.835Z" fill="#E0E0E0"/>
<path d="M118.485 317.713L120.889 281.618L191.436 286.316C192.601 286.394 193.687 286.931 194.456 287.809C195.225 288.688 195.613 289.835 195.535 291L193.716 318.313C193.639 319.477 193.102 320.563 192.223 321.332C191.345 322.101 190.197 322.489 189.033 322.411L118.485 317.713Z" fill="#F5F5F5"/>
<path d="M140.558 296.395L139.048 319.079L171.479 321.239L172.99 298.555L140.558 296.395Z" fill="#E0E0E0"/>
<path d="M114.322 279.524L111.629 319.969C111.575 320.78 112.189 321.481 113 321.535L122.593 322.174C123.404 322.228 124.106 321.615 124.16 320.804L126.853 280.359C126.907 279.548 126.293 278.847 125.482 278.793L115.889 278.154C115.078 278.1 114.376 278.713 114.322 279.524Z" fill="#EBEBEB"/>
<path d="M124.296 318.822C122.191 318.877 120.084 318.802 117.988 318.598C115.894 318.521 113.807 318.317 111.737 317.988C113.842 317.933 115.949 318.008 118.044 318.212C120.139 318.289 122.226 318.492 124.296 318.822Z" fill="#E0E0E0"/>
<path d="M124.527 315.318C122.434 315.376 120.339 315.301 118.255 315.094C116.161 315.018 114.073 314.814 112.004 314.484C114.097 314.435 116.192 314.51 118.276 314.709C120.37 314.785 122.458 314.989 124.527 315.318Z" fill="#E0E0E0"/>
<path d="M124.765 311.821C122.66 311.876 120.554 311.801 118.458 311.597C116.364 311.521 114.276 311.317 112.207 310.987C114.312 310.932 116.418 311.007 118.514 311.211C120.608 311.288 122.696 311.492 124.765 311.821Z" fill="#E0E0E0"/>
<path d="M124.997 308.317C122.892 308.372 120.785 308.297 118.69 308.093C116.595 308.017 114.508 307.813 112.438 307.484C114.543 307.433 116.65 307.508 118.746 307.708C120.84 307.784 122.927 307.988 124.997 308.317Z" fill="#E0E0E0"/>
<path d="M125.228 304.821C123.134 304.874 121.04 304.799 118.955 304.596C116.859 304.52 114.769 304.316 112.697 303.987C114.802 303.932 116.909 304.007 119.004 304.211C121.089 304.288 123.167 304.492 125.228 304.821Z" fill="#E0E0E0"/>
<path d="M125.466 301.317C123.361 301.371 121.254 301.297 119.158 301.092C117.064 301.016 114.977 300.813 112.907 300.483C115.012 300.432 117.118 300.507 119.214 300.707C121.309 300.784 123.396 300.987 125.466 301.317Z" fill="#E0E0E0"/>
<path d="M125.697 297.82C123.592 297.874 121.486 297.799 119.39 297.595C117.296 297.519 115.208 297.315 113.139 296.986C115.244 296.931 117.35 297.006 119.446 297.21C121.54 297.287 123.628 297.49 125.697 297.82Z" fill="#E0E0E0"/>
<path d="M125.928 294.316C123.823 294.37 121.717 294.295 119.621 294.091C117.527 294.015 115.44 293.811 113.37 293.482C115.475 293.431 117.581 293.506 119.677 293.706C121.771 293.782 123.859 293.986 125.928 294.316Z" fill="#E0E0E0"/>
<path d="M126.16 290.819C124.067 290.872 121.972 290.798 119.888 290.595C117.794 290.518 115.706 290.315 113.637 289.985C115.742 289.93 117.848 290.005 119.944 290.209C122.026 290.287 124.102 290.49 126.16 290.819Z" fill="#E0E0E0"/>
<path d="M126.398 287.315C124.293 287.369 122.187 287.294 120.091 287.09C117.997 287.014 115.909 286.81 113.84 286.481C115.945 286.43 118.051 286.505 120.147 286.705C122.241 286.782 124.329 286.985 126.398 287.315Z" fill="#E0E0E0"/>
<path d="M126.63 283.818C124.525 283.872 122.418 283.797 120.322 283.593C118.228 283.517 116.141 283.313 114.071 282.984C116.176 282.929 118.283 283.004 120.378 283.208C122.473 283.284 124.56 283.488 126.63 283.818Z" fill="#E0E0E0"/>
<path d="M126.861 280.313C124.768 280.367 122.673 280.292 120.589 280.089C118.493 280.013 116.403 279.809 114.331 279.479C116.436 279.425 118.542 279.499 120.638 279.704C122.723 279.781 124.801 279.985 126.861 280.313Z" fill="#E0E0E0"/>
<path d="M186.796 315.333L184.762 315.197C184.205 315.16 183.686 314.904 183.319 314.484C182.952 314.064 182.766 313.516 182.804 312.96L183.265 306.037L189.558 306.456L189.097 313.379C189.078 313.66 189.003 313.934 188.877 314.185C188.75 314.437 188.575 314.66 188.36 314.842C188.145 315.025 187.897 315.162 187.628 315.246C187.359 315.33 187.077 315.36 186.796 315.333Z" fill="#EBEBEB"/>
<path d="M185.231 299.565L187.334 299.712C187.891 299.751 188.411 300.01 188.777 300.432C189.144 300.854 189.328 301.404 189.289 301.961L188.803 308.899L182.496 308.458L182.982 301.52C183.021 300.962 183.28 300.443 183.702 300.076C184.123 299.71 184.674 299.526 185.231 299.565Z" fill="#E0E0E0"/>
<path d="M172.039 293.135L171.508 295.113C171.363 295.654 171.01 296.115 170.525 296.395C170.04 296.675 169.463 296.751 168.922 296.606L162.193 294.802L163.833 288.684L170.562 290.488C170.835 290.561 171.091 290.688 171.314 290.862C171.537 291.035 171.723 291.252 171.861 291.499C171.998 291.746 172.085 292.018 172.116 292.299C172.146 292.58 172.12 292.864 172.039 293.135Z" fill="#EBEBEB"/>
<path d="M156.514 290.402L157.042 288.432C157.186 287.893 157.538 287.434 158.021 287.155C158.504 286.876 159.078 286.8 159.616 286.945L166.318 288.739L164.687 294.832L157.985 293.037C157.713 292.965 157.458 292.838 157.236 292.665C157.014 292.492 156.829 292.276 156.692 292.031C156.555 291.785 156.468 291.514 156.438 291.234C156.407 290.954 156.433 290.671 156.514 290.402Z" fill="#E0E0E0"/>
<path d="M191.731 289.908L192.282 291.866C192.432 292.401 192.364 292.974 192.092 293.459C191.82 293.944 191.366 294.301 190.831 294.452L184.171 296.325L182.468 290.27L189.128 288.397C189.398 288.321 189.681 288.3 189.96 288.335C190.238 288.37 190.507 288.461 190.749 288.602C190.992 288.743 191.204 288.931 191.373 289.155C191.542 289.38 191.663 289.636 191.731 289.908Z" fill="#EBEBEB"/>
<path d="M172.647 296.321L172.096 294.363C171.945 293.828 172.014 293.255 172.286 292.77C172.558 292.285 173.011 291.928 173.547 291.777L180.234 289.897L181.937 295.951L175.277 297.825C175.005 297.905 174.72 297.93 174.439 297.897C174.158 297.864 173.886 297.775 173.64 297.635C173.395 297.494 173.18 297.305 173.009 297.079C172.838 296.854 172.715 296.596 172.647 296.321Z" fill="#E0E0E0"/>
<path d="M175.559 314.981L173.671 314.211C173.155 314.001 172.743 313.594 172.527 313.08C172.311 312.566 172.308 311.987 172.518 311.471L175.139 305.046L180.979 307.429L178.358 313.853C178.148 314.369 177.741 314.78 177.227 314.997C176.713 315.213 176.134 315.216 175.618 315.005L175.559 314.981Z" fill="#EBEBEB"/>
<path d="M180.111 298.412L181.999 299.183C182.516 299.393 182.927 299.8 183.143 300.314C183.36 300.828 183.363 301.407 183.152 301.923L180.532 308.347L174.692 305.965L177.312 299.541C177.418 299.281 177.576 299.044 177.775 298.845C177.974 298.647 178.212 298.49 178.473 298.385C178.734 298.279 179.013 298.228 179.295 298.232C179.576 298.237 179.854 298.298 180.111 298.412Z" fill="#E0E0E0"/>
<path d="M273.341 39.4418L278.078 45.4686C278.165 45.5818 278.204 45.7242 278.187 45.8656C278.17 46.0069 278.098 46.136 277.987 46.2255L271.897 50.9559C271.445 51.3088 270.927 51.569 270.374 51.7216C269.82 51.8743 269.242 51.9163 268.673 51.8454C268.103 51.7744 267.553 51.5919 267.055 51.3082C266.556 51.0245 266.118 50.6452 265.765 50.192C265.412 49.7388 265.152 49.2205 264.999 48.6667C264.846 48.1128 264.804 47.5343 264.875 46.9642C264.946 46.3941 265.129 45.8436 265.413 45.3441C265.696 44.8445 266.076 44.4058 266.529 44.053L272.619 39.3226C272.733 39.2498 272.87 39.2216 273.003 39.2436C273.136 39.2656 273.257 39.3362 273.341 39.4418Z" fill="#EBEBEB"/>
<path d="M276.888 46.3658L272.179 40.3179C272.135 40.2618 272.104 40.1977 272.085 40.1293C272.067 40.0609 272.062 39.9895 272.071 39.9192C272.08 39.8489 272.103 39.7811 272.138 39.7197C272.173 39.6582 272.221 39.6043 272.277 39.5611L278.36 34.8307C278.812 34.4778 279.33 34.2176 279.883 34.0649C280.437 33.9123 281.014 33.8703 281.584 33.9412C282.154 34.0121 282.704 34.1947 283.202 34.4784C283.701 34.7621 284.139 35.1414 284.492 35.5946C284.845 36.0477 285.105 36.566 285.258 37.1199C285.411 37.6737 285.453 38.2522 285.382 38.8223C285.311 39.3924 285.128 39.943 284.844 40.4425C284.561 40.942 284.181 41.3807 283.728 41.7336L277.645 46.4499C277.533 46.5388 277.391 46.5799 277.249 46.5642C277.107 46.5484 276.977 46.4771 276.888 46.3658Z" fill="#E0E0E0"/>
<path d="M3.59016 182.938L10.8014 185.559C10.9369 185.609 11.0469 185.711 11.1073 185.843C11.1677 185.974 11.1736 186.124 11.1237 186.26L8.48875 193.499C8.29307 194.039 7.99276 194.536 7.605 194.96C7.21724 195.385 6.74964 195.728 6.22893 195.972C5.70822 196.215 5.14463 196.354 4.57039 196.379C3.99616 196.404 3.42254 196.316 2.88236 196.12C1.79198 195.723 0.903585 194.91 0.412187 193.859C-0.0792111 192.808 -0.133452 191.605 0.261371 190.514L2.89637 183.274C2.9192 183.206 2.95539 183.143 3.00282 183.089C3.05025 183.036 3.10796 182.992 3.17257 182.96C3.23719 182.929 3.30741 182.911 3.37911 182.907C3.45082 182.903 3.52257 182.914 3.59016 182.938Z" fill="#EBEBEB"/>
<path d="M10.2967 186.939L3.09252 184.318C3.02428 184.295 2.96149 184.258 2.90797 184.21C2.85445 184.161 2.8113 184.103 2.78116 184.037C2.75101 183.972 2.7345 183.901 2.73261 183.828C2.73071 183.756 2.74349 183.685 2.77015 183.618L5.40516 176.371C5.60075 175.831 5.9011 175.334 6.289 174.91C6.67689 174.486 7.14469 174.143 7.66556 173.9C8.18644 173.657 8.75013 173.52 9.32431 173.495C9.8985 173.471 10.4719 173.56 11.0115 173.757C11.5519 173.953 12.0484 174.253 12.4725 174.641C12.8965 175.029 13.2398 175.497 13.4827 176.018C13.7256 176.539 13.8632 177.102 13.8877 177.677C13.9122 178.251 13.8231 178.824 13.6255 179.364L10.9905 186.61C10.9414 186.745 10.8411 186.855 10.7112 186.917C10.5814 186.979 10.4325 186.987 10.2967 186.939Z" fill="#E0E0E0"/>
<path d="M306.111 321.822C306.111 321.927 238.946 322.004 156.14 322.004C73.3335 322.004 6.16895 321.927 6.16895 321.822C6.16895 321.717 73.3195 321.64 156.175 321.64C239.03 321.64 306.111 321.724 306.111 321.822Z" fill="#263238"/>
<path d="M248.848 12.2305H79.9765C76.0674 12.2305 72.8984 15.3994 72.8984 19.3085V246.893C72.8984 250.802 76.0674 253.971 79.9765 253.971H248.848C252.757 253.971 255.926 250.802 255.926 246.893V19.3085C255.926 15.3994 252.757 12.2305 248.848 12.2305Z" fill="#455A64"/>
<path d="M243.662 23.6528H85.1484V237.361H243.662V23.6528Z" fill="white"/>
<path d="M243.669 237.361C243.669 235.904 243.599 150.189 243.501 23.6178L243.669 23.779H85.1698L85.352 23.5968C85.352 103.299 85.352 177.149 85.352 237.34L85.1978 237.186L243.718 237.34L85.1978 237.488H85.0507V237.34C85.0507 177.184 85.0507 103.334 85.0156 23.5968V23.4146H85.2189H243.718H243.88V23.5827C243.74 150.168 243.669 235.904 243.669 237.361Z" fill="#263238"/>
<path d="M188.622 44.3403H161.417V51.075H188.622V44.3403Z" fill="#E0E0E0"/>
<path d="M228.518 48.5943C228.518 48.6994 221.076 48.7765 211.895 48.7765C202.715 48.7765 195.279 48.6994 195.279 48.5943C195.279 48.4892 202.715 48.4121 211.895 48.4121C221.076 48.4121 228.518 48.4962 228.518 48.5943Z" fill="#263238"/>
<path d="M227.895 56.6746C227.895 56.7727 213.01 56.8568 194.656 56.8568C176.302 56.8568 161.417 56.7727 161.417 56.6746C161.417 56.5765 176.295 56.4854 194.656 56.4854C213.017 56.4854 227.895 56.5694 227.895 56.6746Z" fill="#263238"/>
<path d="M227.895 64.5865C227.895 64.6846 213.01 64.7687 194.656 64.7687C176.302 64.7687 161.417 64.6846 161.417 64.5865C161.417 64.4884 176.295 64.4043 194.656 64.4043C213.017 64.4043 227.895 64.4814 227.895 64.5865Z" fill="#263238"/>
<path d="M238.266 85.6951C238.266 85.7932 205.195 85.8773 164.416 85.8773C123.636 85.8773 90.5586 85.7932 90.5586 85.6951C90.5586 85.597 123.615 85.5059 164.416 85.5059C205.216 85.5059 238.266 85.5759 238.266 85.6951Z" fill="#263238"/>
<path d="M238.266 205.153C238.266 205.251 205.195 205.336 164.416 205.336C123.636 205.336 90.5586 205.251 90.5586 205.153C90.5586 205.055 123.615 204.971 164.416 204.971C205.216 204.971 238.266 205.048 238.266 205.153Z" fill="#263238"/>
<path d="M148.298 97.7695H102.725V106.319H148.298V97.7695Z" fill="#E0E0E0"/>
<path d="M122.452 217.347H102.725V225.896H122.452V217.347Z" fill="#E0E0E0"/>
<path d="M188.691 217.347H168.964V225.896H188.691V217.347Z" fill="#E0E0E0"/>
<path d="M155.516 223.269C155.516 223.374 149.356 223.451 141.76 223.451C134.163 223.451 127.996 223.374 127.996 223.269C127.996 223.164 134.156 223.086 141.76 223.086C149.363 223.086 155.516 223.171 155.516 223.269Z" fill="#263238"/>
<path d="M226.352 223.269C226.352 223.374 220.192 223.451 212.596 223.451C204.999 223.451 198.832 223.374 198.832 223.269C198.832 223.164 204.992 223.086 212.596 223.086C220.199 223.086 226.352 223.171 226.352 223.269Z" fill="#263238"/>
<path d="M224.72 119.193C224.72 119.292 197.718 119.376 164.451 119.376C131.184 119.376 104.183 119.292 104.183 119.193C104.183 119.095 131.17 119.011 164.451 119.011C197.732 119.011 224.72 119.088 224.72 119.193Z" fill="#263238"/>
<path d="M227.06 128.948C227.06 129.053 199.54 129.13 165.6 129.13C131.66 129.13 104.133 129.053 104.133 128.948C104.133 128.843 131.646 128.766 165.6 128.766C199.554 128.766 227.06 128.85 227.06 128.948Z" fill="#263238"/>
<path d="M163.722 138.711C163.722 138.809 150.064 138.893 133.223 138.893C116.383 138.893 102.725 138.809 102.725 138.711C102.725 138.612 116.376 138.528 133.223 138.528C150.071 138.528 163.722 138.605 163.722 138.711Z" fill="#263238"/>
<path d="M226.156 174.1C226.156 174.1 226.023 174.156 225.75 174.24L224.558 174.605C223.019 175.063 221.453 175.428 219.87 175.698C218.726 175.899 217.569 176.01 216.408 176.027C215.019 176.055 213.634 175.883 212.294 175.516C210.751 175.075 209.33 174.286 208.139 173.21C206.795 171.983 205.913 170.334 205.637 168.536C205.493 167.565 205.611 166.573 205.98 165.663C206.393 164.716 207.069 163.909 207.928 163.336C208.372 163.028 208.873 162.812 209.401 162.701C209.929 162.589 210.474 162.583 211.005 162.684C211.542 162.816 212.047 163.055 212.49 163.385C212.923 163.747 213.284 164.187 213.556 164.682C214.071 165.707 214.328 166.842 214.306 167.989C214.31 169.163 214.097 170.328 213.675 171.423C212.76 173.691 211.252 175.671 209.309 177.156C207.273 178.738 204.856 179.753 202.301 180.099C200.991 180.286 199.66 180.269 198.355 180.05C197.693 179.943 197.039 179.786 196.4 179.581C195.762 179.345 195.139 179.069 194.536 178.754C193.334 178.083 192.263 177.2 191.375 176.147C190.458 175.072 189.816 173.79 189.504 172.411C189.162 170.995 189.338 169.504 190.002 168.207C190.66 166.894 191.752 165.849 193.092 165.249C193.771 164.942 194.516 164.812 195.258 164.871C195.994 164.944 196.697 165.21 197.297 165.642C198.437 166.545 199.223 167.82 199.519 169.244C199.841 170.607 199.917 172.017 199.743 173.406C199.606 174.768 199.302 176.107 198.839 177.394C197.979 179.934 196.46 182.2 194.438 183.961C192.472 185.647 190.014 186.652 187.43 186.827C185.043 187.07 182.647 186.455 180.672 185.093C178.697 183.73 177.272 181.709 176.652 179.391C176.017 177.322 176.101 175.099 176.89 173.084C177.261 172.123 177.898 171.286 178.726 170.673C179.14 170.37 179.621 170.171 180.128 170.092C180.626 170.018 181.134 170.114 181.571 170.365C181.971 170.626 182.306 170.975 182.549 171.386C182.792 171.796 182.937 172.258 182.973 172.734C183.09 173.605 183.054 174.489 182.868 175.348C182.591 176.914 182.12 178.439 181.466 179.889C180.9 181.148 180.194 182.339 179.364 183.442C178.67 184.376 177.886 185.24 177.023 186.021C175.847 187.118 174.521 188.043 173.085 188.768C172.716 188.964 172.337 189.14 171.949 189.294L171.55 189.448L171.935 189.259C172.188 189.132 172.58 188.978 173.057 188.705C174.468 187.949 175.772 187.006 176.932 185.902C178.772 184.168 180.257 182.092 181.305 179.791C181.959 178.358 182.43 176.849 182.707 175.299C182.878 174.462 182.908 173.602 182.798 172.755C182.764 172.319 182.631 171.896 182.41 171.519C182.189 171.141 181.886 170.819 181.522 170.575C181.134 170.354 180.682 170.27 180.24 170.337C179.785 170.418 179.355 170.606 178.985 170.884C178.199 171.466 177.596 172.261 177.247 173.175C176.488 175.135 176.417 177.294 177.044 179.3C177.653 181.543 179.038 183.497 180.953 184.813C182.868 186.13 185.188 186.724 187.5 186.49C190.006 186.31 192.387 185.327 194.291 183.687C196.265 181.966 197.745 179.75 198.58 177.268C199.03 176.005 199.327 174.692 199.463 173.357C199.63 172.009 199.554 170.642 199.238 169.321C198.961 167.979 198.216 166.779 197.136 165.936C196.585 165.539 195.937 165.297 195.261 165.234C194.584 165.171 193.904 165.29 193.289 165.579C192.023 166.149 190.993 167.139 190.373 168.382C189.751 169.599 189.587 170.999 189.911 172.327C190.249 173.627 190.855 174.842 191.69 175.895C192.526 176.947 193.571 177.813 194.76 178.438C195.343 178.742 195.945 179.008 196.561 179.237C198.411 179.84 200.374 180.015 202.301 179.749C203.552 179.575 204.774 179.238 205.938 178.747C207.075 178.262 208.146 177.635 209.127 176.882C211.027 175.431 212.501 173.494 213.395 171.276C213.805 170.219 214.016 169.095 214.018 167.961C214.043 166.867 213.802 165.782 213.317 164.801C213.064 164.342 212.732 163.932 212.336 163.588C211.933 163.265 211.468 163.027 210.97 162.887C210.477 162.793 209.97 162.798 209.479 162.901C208.989 163.005 208.523 163.205 208.11 163.49C207.294 164.027 206.652 164.789 206.26 165.684C205.904 166.55 205.786 167.496 205.917 168.424C206.183 170.165 207.033 171.764 208.328 172.958C209.49 174.016 210.877 174.795 212.385 175.236C213.703 175.606 215.067 175.786 216.436 175.768C217.589 175.761 218.739 175.662 219.877 175.474C221.457 175.215 223.021 174.874 224.565 174.451L225.771 174.121L226.156 174.1Z" fill="#263238"/>
<path d="M190.857 10.1768H137.961V30.4018H190.857V10.1768Z" fill="#E0E0E0"/>
<path d="M190.857 30.3947C190.857 30.3947 190.857 30.2685 190.857 30.0303C190.857 29.792 190.857 29.4346 190.857 28.9791C190.857 28.047 190.857 26.7015 190.857 24.9635C190.857 21.4595 190.815 16.4348 190.787 10.1766L190.913 10.3028L138.023 10.3588L138.206 10.1766C138.206 17.2407 138.206 24.0735 138.206 30.3947L138.03 30.2195L175.874 30.3036L186.897 30.3526H189.861H190.632H190.899C190.817 30.3596 190.735 30.3596 190.653 30.3526H189.903H186.981L175.993 30.4017L138.002 30.4788H137.827V30.3036C137.827 23.9964 137.827 17.1496 137.827 10.0855L138.009 9.90332L190.899 9.95939H191.025V10.0855C191.025 16.3927 190.976 21.4385 190.955 24.9495C190.955 26.6734 190.955 28.012 190.955 28.937C190.955 29.3785 190.955 29.7219 190.955 29.9672C190.955 30.2125 190.857 30.3947 190.857 30.3947Z" fill="#263238"/>
<path d="M254.21 321.513H219.955C219.22 321.514 218.515 321.225 217.99 320.71C217.466 320.195 217.165 319.494 217.152 318.759L216.325 226.373H256.145L256.972 318.703C256.973 319.441 256.685 320.149 256.168 320.675C255.651 321.201 254.948 321.502 254.21 321.513Z" fill="#2FABC0"/>
<g opacity="0.3">
<path d="M249.172 246.879V318.003C249.172 318.003 254.778 319.867 255.052 314.961C255.325 310.056 255.178 246.865 255.178 246.865L249.172 246.879Z" fill="white"/>
</g>
<path d="M252.388 221.685H220.151C219.594 221.685 219.059 221.906 218.665 222.3C218.27 222.695 218.049 223.229 218.049 223.787V225.854H254.49V223.752C254.481 223.2 254.256 222.675 253.862 222.288C253.469 221.901 252.94 221.684 252.388 221.685Z" fill="#FAFAFA"/>
<path d="M252.388 221.685C252.504 221.668 252.622 221.668 252.738 221.685C253.084 221.728 253.412 221.861 253.691 222.07C253.922 222.241 254.117 222.458 254.262 222.706C254.408 222.954 254.502 223.229 254.539 223.514C254.539 224.215 254.539 224.916 254.539 225.813V225.897H254.448C247.769 225.946 234.868 225.988 220.109 225.988H217.831V223.85C217.82 223.502 217.888 223.156 218.03 222.838C218.172 222.52 218.385 222.238 218.651 222.014C218.918 221.792 219.232 221.634 219.569 221.552C219.893 221.494 220.222 221.473 220.55 221.489H222.414H229.499L241.413 221.531L249.423 221.587L241.413 221.643L229.499 221.685H222.414H220.55C220.25 221.667 219.949 221.686 219.653 221.741C219.371 221.812 219.108 221.943 218.882 222.126C217.873 222.89 218.28 224.362 218.182 225.63L217.999 225.448H220.102C234.882 225.448 247.783 225.483 254.441 225.539L254.35 225.63C254.35 224.768 254.35 223.99 254.35 223.353C254.323 223.08 254.241 222.815 254.11 222.574C253.979 222.334 253.801 222.122 253.586 221.951C253.217 221.759 252.803 221.667 252.388 221.685Z" fill="#263238"/>
<path d="M258.505 224.853H213.998C212.976 224.853 212.147 225.681 212.147 226.703V245.015C212.147 246.036 212.976 246.865 213.998 246.865H258.505C259.527 246.865 260.355 246.036 260.355 245.015V226.703C260.355 225.681 259.527 224.853 258.505 224.853Z" fill="#FAFAFA"/>
<path d="M258.506 246.878C258.506 246.878 258.632 246.878 258.856 246.822C259.192 246.752 259.501 246.586 259.746 246.346C260.566 245.729 260.237 244.243 260.286 242.54C260.286 239.036 260.251 234.026 260.23 227.824C260.23 227.438 260.23 227.046 260.23 226.646C260.218 226.272 260.082 225.912 259.844 225.623C259.596 225.329 259.259 225.122 258.884 225.034C258.479 224.991 258.071 224.979 257.665 224.999H252.381H240.719H214.012C213.745 224.998 213.481 225.06 213.243 225.182C213.005 225.304 212.8 225.482 212.645 225.7C212.495 225.908 212.397 226.148 212.358 226.401C212.344 226.686 212.344 226.971 212.358 227.256V237.558C212.358 239.786 212.358 241.98 212.358 244.131V244.937C212.359 245.179 212.412 245.418 212.512 245.638C212.612 245.856 212.757 246.051 212.939 246.208C213.12 246.365 213.333 246.481 213.563 246.549C213.803 246.616 214.052 246.639 214.299 246.619H216.626L238.442 246.654L253.159 246.717H257.153L253.159 246.752L238.442 246.808L216.626 246.85H214.299C214.021 246.87 213.741 246.842 213.472 246.766C213.194 246.686 212.936 246.547 212.716 246.358C212.496 246.169 212.319 245.936 212.197 245.673C212.078 245.406 212.016 245.117 212.015 244.825V244.019C212.015 241.87 212.015 239.679 212.015 237.446C212.015 235.21 212.015 232.932 212.015 230.627V227.123C212.015 226.821 212.015 226.548 212.015 226.219C212.063 225.896 212.185 225.589 212.372 225.322C212.56 225.056 212.809 224.84 213.098 224.691C213.387 224.543 213.708 224.465 214.033 224.467H240.74H252.402H257.686C258.114 224.445 258.543 224.462 258.968 224.516C259.402 224.625 259.79 224.871 260.075 225.217C260.347 225.556 260.501 225.974 260.517 226.408V227.592C260.517 233.787 260.468 238.805 260.454 242.309C260.454 243.171 260.454 243.942 260.454 244.615C260.475 244.904 260.431 245.194 260.324 245.463C260.217 245.733 260.051 245.975 259.837 246.17C259.579 246.412 259.254 246.571 258.905 246.626C258.791 246.737 258.655 246.823 258.506 246.878Z" fill="#263238"/>
<path d="M214.951 246.5C214.846 246.5 214.769 241.812 214.769 236.037C214.769 230.263 214.846 225.567 214.951 225.567C215.056 225.567 215.133 230.256 215.133 236.037C215.133 241.819 215.049 246.5 214.951 246.5Z" fill="#263238"/>
<path d="M218.595 246.5C218.49 246.5 218.413 241.812 218.413 236.037C218.413 230.263 218.49 225.567 218.595 225.567C218.7 225.567 218.778 230.256 218.778 236.037C218.778 241.819 218.693 246.5 218.595 246.5Z" fill="#263238"/>
<path d="M222.239 246.5C222.141 246.5 222.057 241.812 222.057 236.037C222.057 230.263 222.141 225.567 222.239 225.567C222.337 225.567 222.421 230.256 222.421 236.037C222.421 241.819 222.337 246.5 222.239 246.5Z" fill="#263238"/>
<path d="M225.883 246.5C225.785 246.5 225.701 241.812 225.701 236.037C225.701 230.263 225.785 225.567 225.883 225.567C225.981 225.567 226.066 230.256 226.066 236.037C226.066 241.819 225.988 246.5 225.883 246.5Z" fill="#263238"/>
<path d="M229.535 246.5C229.43 246.5 229.353 241.812 229.353 236.037C229.353 230.263 229.43 225.567 229.535 225.567C229.64 225.567 229.717 230.256 229.717 236.037C229.717 241.819 229.633 246.5 229.535 246.5Z" fill="#263238"/>
<path d="M233.178 246.5C233.073 246.5 232.996 241.812 232.996 236.037C232.996 230.263 233.073 225.567 233.178 225.567C233.283 225.567 233.361 230.256 233.361 236.037C233.361 241.819 233.276 246.5 233.178 246.5Z" fill="#263238"/>
<path d="M236.823 246.5C236.725 246.5 236.641 241.812 236.641 236.037C236.641 230.263 236.725 225.567 236.823 225.567C236.921 225.567 237.005 230.256 237.005 236.037C237.005 241.819 236.921 246.5 236.823 246.5Z" fill="#263238"/>
<path d="M240.467 246.5C240.369 246.5 240.285 241.812 240.285 236.037C240.285 230.263 240.369 225.567 240.467 225.567C240.565 225.567 240.65 230.256 240.65 236.037C240.65 241.819 240.572 246.5 240.467 246.5Z" fill="#263238"/>
<path d="M244.111 246.5C244.013 246.5 243.929 241.812 243.929 236.037C243.929 230.263 244.013 225.567 244.111 225.567C244.209 225.567 244.3 230.256 244.3 236.037C244.3 241.819 244.216 246.5 244.111 246.5Z" fill="#263238"/>
<path d="M247.762 246.5C247.657 246.5 247.58 241.812 247.58 236.037C247.58 230.263 247.657 225.567 247.762 225.567C247.867 225.567 247.944 230.256 247.944 236.037C247.944 241.819 247.86 246.5 247.762 246.5Z" fill="#263238"/>
<path d="M251.407 246.5C251.309 246.5 251.225 241.812 251.225 236.037C251.225 230.263 251.309 225.567 251.407 225.567C251.505 225.567 251.589 230.256 251.589 236.037C251.589 241.819 251.505 246.5 251.407 246.5Z" fill="#263238"/>
<path d="M255.05 246.5C254.952 246.5 254.868 241.812 254.868 236.037C254.868 230.263 254.952 225.567 255.05 225.567C255.148 225.567 255.233 230.256 255.233 236.037C255.233 241.819 255.155 246.5 255.05 246.5Z" fill="#263238"/>
<path d="M258.695 246.5C258.597 246.5 258.513 241.812 258.513 236.037C258.513 230.263 258.597 225.567 258.695 225.567C258.793 225.567 258.877 230.256 258.877 236.037C258.877 241.819 258.8 246.5 258.695 246.5Z" fill="#263238"/>
<path d="M253.936 263.445H219.464V291.05H253.936V263.445Z" fill="white"/>
<path d="M225.386 272.233L224.58 271.07H223.697V272.233H222.716V268.07H224.517C224.845 268.062 225.17 268.127 225.47 268.26C225.727 268.366 225.947 268.547 226.101 268.778C226.251 269.02 226.326 269.3 226.318 269.584C226.326 269.867 226.247 270.146 226.094 270.383C225.939 270.612 225.719 270.79 225.463 270.895L226.395 272.233H225.386ZM225.141 269.045C224.95 268.907 224.717 268.84 224.482 268.855H223.697V270.306H224.482C224.717 270.322 224.95 270.255 225.141 270.117C225.212 270.047 225.269 269.964 225.307 269.872C225.346 269.779 225.366 269.681 225.366 269.581C225.366 269.481 225.346 269.382 225.307 269.29C225.269 269.198 225.212 269.114 225.141 269.045Z" fill="#263238"/>
<path d="M227.488 275.106L226.535 273.74L225.603 275.106H224.559L226.016 273.102L224.615 271.168H225.652L226.556 272.443L227.446 271.168H228.434L227.032 273.067L228.497 275.106H227.488Z" fill="#263238"/>
<path d="M251.406 268.063H231.721V271.056H251.406V268.063Z" fill="#E0E0E0"/>
<path d="M249.171 278.485C249.171 278.583 243.425 278.667 236.333 278.667C229.241 278.667 223.494 278.583 223.494 278.485C223.494 278.387 229.241 278.303 236.333 278.303C243.425 278.303 249.171 278.415 249.171 278.485Z" fill="#263238"/>
<path d="M249.171 281.596C249.171 281.701 243.425 281.778 236.333 281.778C229.241 281.778 223.494 281.701 223.494 281.596C223.494 281.491 229.241 281.414 236.333 281.414C243.425 281.414 249.171 281.498 249.171 281.596Z" fill="#263238"/>
<path d="M234.938 285.5H221.637V288.064H234.938V285.5Z" fill="#E0E0E0"/>
<path d="M253.151 290.194C253.151 290.194 253.151 290.026 253.151 289.704C253.151 289.382 253.151 288.905 253.151 288.302C253.151 287.062 253.151 285.275 253.116 282.997C253.116 278.428 253.067 271.925 253.039 264.076L253.186 264.23H220.144C220.102 264.265 220.487 263.886 220.326 264.055V271.007C220.326 273.291 220.326 275.534 220.326 277.72C220.326 282.1 220.326 286.277 220.326 290.166L220.165 290.005L243.992 290.089L250.762 290.131H252.57H253.2C253.2 290.131 253.158 290.131 253.053 290.131H252.605H250.832L244.097 290.173L220.158 290.258H219.997V290.089C219.997 286.2 219.997 282.023 219.997 277.643C219.997 275.457 219.997 273.214 219.997 270.93V263.978C219.835 264.132 220.221 263.746 220.179 263.788H253.222H253.376V263.943C253.376 271.827 253.313 278.372 253.299 282.962C253.299 285.219 253.264 286.999 253.257 288.232C253.257 288.821 253.257 289.276 253.257 289.634C253.257 289.991 253.151 290.194 253.151 290.194Z" fill="#263238"/>
<path d="M218.595 313.98C218.49 313.98 218.413 299.571 218.413 281.799C218.413 264.027 218.49 249.618 218.595 249.618C218.7 249.618 218.778 264.027 218.778 281.799C218.778 299.571 218.693 313.98 218.595 313.98Z" fill="white"/>
<path d="M253.971 320.014C253.971 320.112 246.452 320.196 237.152 320.196C227.853 320.196 220.333 320.112 220.333 320.014C220.333 319.916 227.853 319.832 237.152 319.832C246.452 319.832 253.971 319.916 253.971 320.014Z" fill="#263238"/>
<path d="M288.136 321.471H260.384C259.789 321.471 259.218 321.236 258.796 320.818C258.373 320.399 258.133 319.831 258.128 319.236L257.427 244.397H289.663L290.329 319.194C290.337 319.786 290.111 320.357 289.7 320.783C289.29 321.209 288.727 321.457 288.136 321.471Z" fill="#455A64"/>
<g opacity="0.3">
<path d="M284.05 260.993V318.627C284.05 318.627 288.591 320.134 288.815 316.16C289.04 312.186 288.913 260.993 288.913 260.993H284.05Z" fill="white"/>
</g>
<path d="M286.257 240.571H260.909C260.351 240.571 259.817 240.793 259.422 241.187C259.028 241.581 258.807 242.116 258.807 242.674V243.928H288.338V242.674C288.338 242.12 288.12 241.588 287.73 241.194C287.34 240.801 286.811 240.577 286.257 240.571Z" fill="#FAFAFA"/>
<path d="M286.258 240.571C286.357 240.557 286.459 240.557 286.559 240.571C286.857 240.596 287.146 240.693 287.4 240.852C287.822 241.108 288.143 241.501 288.311 241.966C288.407 242.262 288.45 242.573 288.437 242.884C288.437 243.213 288.437 243.585 288.437 243.921V244.075H288.346C282.887 244.131 272.634 244.166 260.91 244.166H258.625V243.984C258.625 243.451 258.625 242.968 258.625 242.407C258.705 241.857 258.984 241.355 259.409 240.996C259.833 240.638 260.375 240.446 260.931 240.459H262.416H268.058L277.547 240.494L283.903 240.55L285.627 240.585C285.826 240.582 286.025 240.593 286.222 240.62C286.024 240.635 285.825 240.635 285.627 240.62L283.903 240.655L277.547 240.711L268.058 240.753H260.966C260.501 240.742 260.048 240.899 259.69 241.195C259.324 241.495 259.086 241.924 259.024 242.393C258.982 242.856 259.024 243.409 259.024 243.921L258.842 243.739H260.945C272.669 243.739 282.922 243.774 288.381 243.83L288.29 243.921C288.29 243.557 288.29 243.22 288.29 242.884C288.313 242.591 288.28 242.296 288.192 242.015C288.049 241.572 287.76 241.191 287.372 240.936C287.034 240.728 286.652 240.603 286.258 240.571Z" fill="#263238"/>
<path d="M291.268 243.164H255.913C254.891 243.164 254.062 243.992 254.062 245.014V259.149C254.062 260.171 254.891 260.999 255.913 260.999H291.268C292.29 260.999 293.118 260.171 293.118 259.149V245.014C293.118 243.992 292.29 243.164 291.268 243.164Z" fill="#FAFAFA"/>
<path d="M291.261 260.993C291.633 260.965 291.991 260.84 292.298 260.628C292.654 260.364 292.902 259.981 292.999 259.549C293.043 259.266 293.055 258.979 293.034 258.694C293.034 258.386 293.034 258.049 293.034 257.706C293.034 254.903 292.999 250.845 292.978 245.855C292.978 245.547 292.978 245.218 292.978 244.909C292.959 244.608 292.86 244.318 292.69 244.068C292.516 243.808 292.275 243.6 291.993 243.466C291.711 243.331 291.397 243.276 291.086 243.305H286.825H277.434H255.912C255.48 243.306 255.065 243.475 254.754 243.775C254.444 244.075 254.261 244.484 254.245 244.916C254.245 245.855 254.245 246.788 254.245 247.72V253.214C254.245 255.017 254.245 256.783 254.245 258.512C254.206 258.92 254.247 259.331 254.364 259.724C254.512 260.085 254.776 260.386 255.114 260.579C255.467 260.755 255.863 260.828 256.256 260.79H257.503L275.079 260.832L286.93 260.888H290.154L286.93 260.923L275.079 260.979L257.503 261.021H256.256C255.818 261.099 255.367 261.055 254.952 260.895C254.544 260.662 254.226 260.299 254.048 259.864C253.962 259.641 253.915 259.404 253.908 259.164V258.512C253.908 256.783 253.908 255.017 253.908 253.214V244.944C253.928 244.418 254.151 243.92 254.53 243.554C254.908 243.189 255.414 242.984 255.941 242.982H277.462H286.853H291.114C291.471 242.964 291.828 243.038 292.149 243.196C292.47 243.354 292.746 243.592 292.95 243.886C293.139 244.177 293.248 244.513 293.265 244.86C293.265 245.197 293.265 245.505 293.265 245.82C293.265 250.81 293.216 254.854 293.202 257.671C293.202 258.014 293.202 258.372 293.202 258.659C293.216 258.952 293.197 259.246 293.146 259.535C293.037 259.993 292.759 260.394 292.368 260.656C292.132 260.817 291.86 260.918 291.576 260.951C291.474 260.983 291.368 260.998 291.261 260.993Z" fill="#263238"/>
<path d="M256.354 260.698C256.256 260.698 256.172 256.907 256.172 252.225C256.172 247.544 256.256 243.746 256.354 243.746C256.452 243.746 256.536 247.537 256.536 252.225C256.536 256.914 256.424 260.698 256.354 260.698Z" fill="#263238"/>
<path d="M259.277 260.698C259.179 260.698 259.095 256.907 259.095 252.225C259.095 247.544 259.179 243.746 259.277 243.746C259.375 243.746 259.459 247.537 259.459 252.225C259.459 256.914 259.382 260.698 259.277 260.698Z" fill="#263238"/>
<path d="M262.234 260.698C262.129 260.698 262.052 256.907 262.052 252.225C262.052 247.544 262.129 243.746 262.234 243.746C262.339 243.746 262.416 247.537 262.416 252.225C262.416 256.914 262.332 260.698 262.234 260.698Z" fill="#263238"/>
<path d="M265.184 260.698C265.086 260.698 265.002 256.907 265.002 252.225C265.002 247.544 265.086 243.746 265.184 243.746C265.282 243.746 265.366 247.537 265.366 252.225C265.366 256.914 265.289 260.698 265.184 260.698Z" fill="#263238"/>
<path d="M268.141 260.698C268.036 260.698 267.959 256.907 267.959 252.225C267.959 247.544 268.036 243.746 268.141 243.746C268.246 243.746 268.323 247.537 268.323 252.225C268.323 256.914 268.267 260.698 268.141 260.698Z" fill="#263238"/>
<path d="M271.071 260.698C270.973 260.698 270.889 256.907 270.889 252.225C270.889 247.544 270.973 243.746 271.071 243.746C271.169 243.746 271.253 247.537 271.253 252.225C271.253 256.914 271.197 260.698 271.071 260.698Z" fill="#263238"/>
<path d="M274.049 260.698C273.944 260.698 273.867 256.907 273.867 252.225C273.867 247.544 273.944 243.746 274.049 243.746C274.155 243.746 274.232 247.537 274.232 252.225C274.232 256.914 274.148 260.698 274.049 260.698Z" fill="#263238"/>
<path d="M277 260.698C276.901 260.698 276.817 256.907 276.817 252.225C276.817 247.544 276.901 243.746 277 243.746C277.098 243.746 277.182 247.537 277.182 252.225C277.182 256.914 277.098 260.698 277 260.698Z" fill="#263238"/>
<path d="M279.957 260.698C279.852 260.698 279.768 256.907 279.768 252.225C279.768 247.544 279.852 243.746 279.957 243.746C280.062 243.746 280.139 247.537 280.139 252.225C280.139 256.914 280.055 260.698 279.957 260.698Z" fill="#263238"/>
<path d="M282.908 260.698C282.81 260.698 282.726 256.907 282.726 252.225C282.726 247.544 282.81 243.746 282.908 243.746C283.006 243.746 283.09 247.537 283.09 252.225C283.09 256.914 282.985 260.698 282.908 260.698Z" fill="#263238"/>
<path d="M285.858 260.698C285.76 260.698 285.676 256.907 285.676 252.225C285.676 247.544 285.76 243.746 285.858 243.746C285.956 243.746 286.04 247.537 286.04 252.225C286.04 256.914 285.963 260.698 285.858 260.698Z" fill="#263238"/>
<path d="M288.815 260.698C288.71 260.698 288.633 256.907 288.633 252.225C288.633 247.544 288.71 243.746 288.815 243.746C288.92 243.746 288.997 247.537 288.997 252.225C288.997 256.914 288.913 260.698 288.815 260.698Z" fill="#263238"/>
<path d="M291.765 260.698C291.667 260.698 291.583 256.907 291.583 252.225C291.583 247.544 291.667 243.746 291.765 243.746C291.863 243.746 291.947 247.537 291.947 252.225C291.947 256.914 291.87 260.698 291.765 260.698Z" fill="#263238"/>
<path d="M287.911 274.427H259.984V296.789H287.911V274.427Z" fill="white"/>
<path d="M264.764 281.547L264.119 280.608H263.418V281.547H262.661V278.176H264.063C264.33 278.17 264.595 278.22 264.841 278.324C265.048 278.412 265.223 278.561 265.345 278.751C265.464 278.946 265.527 279.171 265.527 279.399C265.527 279.628 265.464 279.852 265.345 280.048C265.22 280.233 265.042 280.377 264.834 280.461L265.59 281.547H264.764ZM264.567 278.961C264.412 278.853 264.224 278.801 264.035 278.814H263.397V279.984H264.063C264.253 279.999 264.442 279.944 264.595 279.83C264.658 279.777 264.707 279.71 264.739 279.635C264.77 279.559 264.784 279.477 264.778 279.396C264.781 279.313 264.766 279.231 264.732 279.155C264.697 279.079 264.646 279.013 264.581 278.961H264.567Z" fill="#263238"/>
<path d="M266.488 283.874L265.717 282.766L264.96 283.874H264.112L265.29 282.248L264.168 280.685H265.009L265.71 281.715L266.411 280.685H267.21L266.166 282.22L267.35 283.874H266.488Z" fill="#263238"/>
<path d="M285.858 278.169H269.915V280.594H285.858V278.169Z" fill="#E0E0E0"/>
<path d="M284.05 286.607C284.05 286.712 279.396 286.789 273.65 286.789C267.903 286.789 263.25 286.712 263.25 286.607C263.25 286.502 267.903 286.425 273.65 286.425C279.396 286.425 284.05 286.509 284.05 286.607Z" fill="#263238"/>
<path d="M284.05 289.136C284.05 289.234 279.396 289.319 273.65 289.319C267.903 289.319 263.25 289.234 263.25 289.136C263.25 289.038 267.903 288.954 273.65 288.954C279.396 288.954 284.05 289.031 284.05 289.136Z" fill="#263238"/>
<path d="M272.522 292.291H261.744V294.365H272.522V292.291Z" fill="#E0E0E0"/>
<path d="M287.273 296.103C287.273 296.103 287.273 295.956 287.273 295.696C287.273 295.437 287.273 295.038 287.273 294.561C287.273 293.545 287.273 292.094 287.238 290.258C287.238 286.551 287.189 281.288 287.161 274.939L287.308 275.093H260.544L260.727 274.911V277.714C260.727 278.66 260.727 279.592 260.727 280.517V285.955C260.727 289.501 260.727 292.879 260.727 296.04L260.565 295.872L279.858 295.956L285.353 295.998H286.817H287.196H287.329H286.852H285.451L279.992 296.04L260.594 296.124H260.425V295.963C260.425 292.802 260.425 289.424 260.425 285.878V274.806C260.264 274.967 260.65 274.581 260.615 274.623H287.378H287.532V274.911C287.532 281.295 287.469 286.6 287.455 290.328C287.455 292.15 287.42 293.587 287.413 294.589C287.413 295.059 287.413 295.43 287.413 295.703C287.378 295.84 287.331 295.974 287.273 296.103Z" fill="#263238"/>
<path d="M259.277 315.367C259.179 315.367 259.095 303.692 259.095 289.298C259.095 274.903 259.179 263.228 259.277 263.228C259.375 263.228 259.459 274.896 259.459 289.298C259.459 303.699 259.382 315.367 259.277 315.367Z" fill="white"/>
<path d="M287.939 320.252C287.939 320.357 281.842 320.434 274.329 320.434C266.817 320.434 260.727 320.357 260.727 320.252C260.727 320.147 266.817 320.07 274.329 320.07C281.842 320.07 287.939 320.154 287.939 320.252Z" fill="#263238"/>
<path d="M63.8512 291.54L59.2049 308.043C59.2049 308.043 74.0128 318.429 73.4451 321.562L41.9092 313.454L48.1253 287.44L63.8512 291.54Z" fill="#455A64"/>
<path d="M49.7867 304.14C49.4564 304.162 49.1459 304.306 48.9145 304.542C48.6831 304.779 48.547 305.092 48.5322 305.423C48.5335 305.754 48.6613 306.072 48.8893 306.311C49.1173 306.551 49.4283 306.694 49.7586 306.712C50.1097 306.693 50.4407 306.543 50.686 306.291C50.9314 306.039 51.0731 305.704 51.0831 305.353C51.0201 304.687 50.2982 303.993 49.6815 304.154" fill="#E0E0E0"/>
<g opacity="0.6">
<path d="M41.9092 313.453L42.61 310.86L72.5901 319.585C72.5901 319.585 73.8446 320.566 73.4381 321.541L41.9092 313.453Z" fill="white"/>
</g>
<path d="M59.7586 308.008C59.7095 308.169 58.9246 308.008 58.0416 308.352C57.1586 308.695 56.591 309.228 56.4648 309.13C56.3387 309.031 56.7942 308.176 57.8664 307.819C58.9386 307.462 59.8216 307.847 59.7586 308.008Z" fill="#263238"/>
<path d="M62.7224 310.258C62.7224 310.426 62.0216 310.517 61.3208 311.057C60.62 311.597 60.3117 312.255 60.1575 312.206C60.0033 312.157 60.1575 311.246 60.9915 310.602C61.8254 309.957 62.7575 310.111 62.7224 310.258Z" fill="#263238"/>
<path d="M63.6337 314.799C63.4866 314.799 63.4655 313.958 64.0682 313.194C64.6709 312.43 65.4698 312.269 65.5119 312.416C65.5539 312.564 64.9863 312.914 64.4957 313.552C64.0051 314.189 63.7669 314.855 63.6337 314.799Z" fill="#263238"/>
<path d="M60.4109 304.133C60.3057 304.259 59.654 303.86 58.771 303.699C57.888 303.537 57.1381 303.642 57.0891 303.481C57.04 303.32 57.8319 302.935 58.8691 303.138C59.9063 303.341 60.516 304.028 60.4109 304.133Z" fill="#263238"/>
<path d="M52.7932 295.43L52.0924 312.585C52.0924 312.585 68.9116 319.11 69.0377 322.298L36.5137 322.039L36.5838 295.254L52.7932 295.43Z" fill="#455A64"/>
<path d="M42.0147 311.064C41.6979 311.163 41.4283 311.374 41.2566 311.658C41.085 311.942 41.0231 312.279 41.0826 312.606C41.1565 312.928 41.3531 313.208 41.6305 313.387C41.908 313.567 42.2444 313.631 42.5683 313.566C42.9045 313.46 43.1902 313.235 43.3711 312.933C43.552 312.63 43.6154 312.272 43.5494 311.926C43.4376 311.602 43.2033 311.335 42.8968 311.181C42.5902 311.028 42.2358 311.001 41.9096 311.106" fill="#E0E0E0"/>
<g opacity="0.6">
<path d="M36.4775 322.038L36.5897 319.34L67.7332 320.594C67.7332 320.594 69.1768 321.253 69.0016 322.297L36.4775 322.038Z" fill="white"/>
</g>
<path d="M52.5892 312.424C52.5892 312.585 51.7903 312.655 50.9984 313.166C50.2065 313.678 49.7931 314.365 49.6459 314.302C49.4987 314.239 49.744 313.3 50.7111 312.69C51.6782 312.08 52.6243 312.269 52.5892 312.424Z" fill="#263238"/>
<path d="M55.988 313.895C55.988 314.05 55.3363 314.323 54.7897 315.01C54.243 315.696 54.0889 316.411 53.9277 316.411C53.7665 316.411 53.6754 315.479 54.3692 314.645C55.063 313.811 55.988 313.741 55.988 313.895Z" fill="#263238"/>
<path d="M57.894 318.093C57.7468 318.128 57.5366 317.315 57.9501 316.425C58.3635 315.535 59.1064 315.185 59.1765 315.325C59.2465 315.465 58.777 315.934 58.4757 316.663C58.1743 317.392 58.0271 318.079 57.894 318.093Z" fill="#263238"/>
<path d="M52.33 308.492C52.2669 308.639 51.5381 308.408 50.641 308.492C49.744 308.576 49.0362 308.836 48.9591 308.695C48.882 308.555 49.5548 307.995 50.613 307.925C51.6712 307.854 52.4211 308.366 52.33 308.492Z" fill="#263238"/>
<path d="M32.6725 169.867V183.435L36.2256 236.289C36.2256 236.289 34.011 261.931 32.6515 276.41C31.4742 288.975 33.4014 310.868 33.4014 310.868H54.1029L61.5314 237.866L66.1286 192.314L74.1458 171.612L32.6725 169.867Z" fill="#263238"/>
<path d="M87.1877 172.229L83.2212 245.974L62.2813 301.19L61.3142 304.511L48.9521 301.449L58.1466 170.792L87.1877 172.229Z" fill="#263238"/>
<path d="M66.0588 192.874C66.0663 192.977 66.0663 193.08 66.0588 193.182C66.0588 193.407 66.0588 193.701 66.0588 194.079C66.0588 194.892 66.0027 196.056 65.9537 197.541C65.8696 200.541 65.6593 204.879 65.365 210.24C64.7413 220.962 63.578 235.756 61.7559 252.042C59.9338 268.329 57.9926 283.032 56.549 293.67C55.8482 298.968 55.2245 303.264 54.811 306.284C54.6007 307.756 54.4325 308.905 54.3204 309.704C54.2573 310.083 54.2153 310.405 54.1803 310.594C54.1685 310.696 54.1474 310.797 54.1172 310.896V310.587C54.1172 310.37 54.1803 310.076 54.2223 309.697C54.3204 308.891 54.4606 307.742 54.6428 306.263C55.0212 303.271 55.5749 298.968 56.2616 293.649C57.6632 283.004 59.5624 268.301 61.3564 252.014C63.1505 235.728 64.3769 220.962 65.0707 210.247C65.4 204.893 65.6523 200.555 65.7715 197.555C65.8486 196.07 65.9046 194.913 65.9467 194.1C65.9467 193.722 65.9887 193.4 66.0027 193.203C66.0094 193.092 66.0282 192.981 66.0588 192.874Z" fill="#455A64"/>
<path d="M67.3693 174.429C67.3638 174.639 67.2967 174.842 67.1763 175.013C67.056 175.185 66.8878 175.317 66.6927 175.393C66.4976 175.469 66.2844 175.487 66.0796 175.442C65.8749 175.398 65.6877 175.295 65.5415 175.145C65.3954 174.994 65.2966 174.805 65.2578 174.599C65.2189 174.393 65.2416 174.18 65.3229 173.987C65.4043 173.794 65.5408 173.63 65.7153 173.514C65.8898 173.398 66.0946 173.336 66.3041 173.336C66.4461 173.337 66.5865 173.366 66.7172 173.422C66.8478 173.477 66.9662 173.558 67.0653 173.66C67.1644 173.762 67.2423 173.882 67.2945 174.014C67.3467 174.146 67.3721 174.287 67.3693 174.429Z" fill="#455A64"/>
<path d="M85.5691 184.731C85.018 184.337 84.527 183.864 84.1114 183.329C83.0408 182.063 82.1624 180.646 81.5044 179.124C80.8423 177.605 80.4033 175.997 80.201 174.352C80.0836 173.676 80.0671 172.986 80.1519 172.306C80.215 172.306 80.257 173.084 80.4673 174.317C80.75 175.915 81.2205 177.475 81.8689 178.963C82.5207 180.441 83.3465 181.836 84.3287 183.119C85.0715 184.128 85.6111 184.682 85.5691 184.731Z" fill="#455A64"/>
<path d="M83.0957 103.34C83.0957 103.34 87.0552 104.896 88.8913 110.699C90.1668 114.735 96.1376 144.786 96.1376 144.786L87.8121 150.273L84.4272 122.136L83.0957 103.34Z" fill="#E0E0E0"/>
<path d="M51.4336 88.9873L48.8266 93.6126C48.8266 93.6126 31.3977 102.471 31.4608 103.34C31.4608 103.34 32.4349 136.403 32.6171 160.658C32.6872 169.817 32.3508 178.234 32.1686 182.278C31.6851 192.895 31.3066 234.137 31.3066 234.137L94.3785 232.644L83.0957 103.34L74.1955 99.4502L73.0602 97.1306L68.9746 93.8088L51.4336 88.9873Z" fill="#E0E0E0"/>
<path d="M79.0521 232.988C79.0614 232.895 79.0614 232.801 79.0521 232.708C79.0521 232.505 79.052 232.231 79.017 231.888C78.975 231.138 78.9189 230.073 78.8418 228.713C78.6806 225.945 78.4424 221.965 78.141 217.066C77.5453 207.213 76.7394 193.631 75.8214 178.627C74.9033 163.623 74.1745 150.042 73.6068 140.181C73.3475 135.276 73.1303 131.302 72.9831 128.527C72.906 127.168 72.85 126.109 72.8079 125.36C72.8079 125.016 72.7659 124.743 72.7519 124.54C72.7465 124.445 72.7348 124.352 72.7168 124.259C72.709 124.353 72.709 124.446 72.7168 124.54C72.7168 124.743 72.7168 125.016 72.7168 125.367C72.7168 126.109 72.7729 127.175 72.822 128.534C72.9201 131.288 73.0953 135.276 73.3265 140.195C73.7891 150.007 74.5319 163.637 75.4289 178.655C76.3259 193.673 77.1949 207.248 77.8607 217.08C78.1971 221.986 78.4774 225.952 78.6666 228.727C78.7717 230.08 78.8558 231.145 78.9119 231.888L78.982 232.715C78.995 232.808 79.0185 232.9 79.0521 232.988Z" fill="#263238"/>
<path d="M68.9744 93.8097L70.439 103.936L73.06 124.259L61.637 104.651L51.7207 91.6582L68.0633 103.109L68.2666 93.6204" fill="#2FABC0"/>
<path d="M48.749 94.2295C48.8286 94.5029 48.9342 94.7681 49.0644 95.0214C49.3097 95.575 49.632 96.3109 50.0385 97.2149L53.5845 104.924L53.6266 105.022H53.7387H56.1214L56.0093 104.699L54.2573 106.136L54.0961 106.269L54.2433 106.416L57.5651 109.668L68.2522 120.033L71.518 123.137L72.422 123.971C72.5207 124.075 72.6313 124.167 72.7514 124.245C72.6743 124.122 72.5798 124.011 72.4711 123.915L71.6231 123.032L68.4345 119.837L57.8314 109.395C56.6891 108.274 55.5678 107.187 54.5026 106.15V106.423L56.2476 104.98L56.633 104.657H56.1284H53.7457L53.8999 104.755C52.4072 101.644 51.1458 99.0089 50.2277 97.1028C49.7862 96.2128 49.4358 95.4909 49.1695 94.9513C49.0484 94.7001 48.9078 94.4587 48.749 94.2295Z" fill="#263238"/>
<path d="M73.0596 124.238C73.1685 123.824 73.2458 123.403 73.2908 122.977C73.417 122.101 73.5782 120.938 73.7744 119.529C74.1668 116.614 74.6854 112.584 75.2321 108.134L75.7366 103.985V103.824L75.5754 103.782L72.7092 103.081V103.418L75.5825 102.906L75.7787 102.871L75.6946 102.696L73.8024 98.5821C73.5852 98.1406 73.41 97.7691 73.2628 97.4678C73.2106 97.3311 73.1373 97.2034 73.0456 97.0894C73.0749 97.2325 73.1219 97.3714 73.1857 97.5028C73.3119 97.8112 73.466 98.2036 73.6482 98.6521C74.0968 99.7033 74.6994 101.112 75.4213 102.815L75.5334 102.612L72.6531 103.081L71.8262 103.214L72.6391 103.418L75.4983 104.118L75.3582 103.922C75.19 105.24 75.0218 106.634 74.8396 108.064C74.293 112.521 73.8164 116.551 73.4941 119.473C73.3469 120.874 73.2208 122.059 73.1297 122.977C73.0736 123.395 73.0502 123.817 73.0596 124.238Z" fill="#263238"/>
<path d="M63.3114 178.347H62.9049L61.6925 178.424L57.0392 178.76L40.3742 180.043H40.2061V180.211C40.4724 183.344 40.7667 186.749 41.075 190.338C41.2292 192.141 41.3881 193.984 41.5516 195.867C41.6357 196.813 41.7128 197.759 41.7969 198.719C41.8263 199.216 41.9037 199.709 42.0281 200.191C42.176 200.688 42.3981 201.161 42.6869 201.592C43.6301 202.866 45.0381 203.714 46.6043 203.954C48.078 204.137 49.5626 204.216 51.0474 204.192C53.8502 204.2 56.645 203.894 59.3799 203.281C60.0285 203.124 60.6636 202.916 61.2791 202.658C61.5856 202.533 61.881 202.383 62.1621 202.209C62.3046 202.114 62.4383 202.006 62.5615 201.887C62.6746 201.763 62.78 201.631 62.8769 201.494C63.4743 200.395 63.8437 199.187 63.9631 197.941C64.2391 195.754 64.3492 193.55 64.2925 191.347C64.2294 187.31 63.9421 184.058 63.7249 181.816C63.6197 180.695 63.5146 179.833 63.4375 179.244C63.4375 178.964 63.3674 178.746 63.3464 178.543C63.3425 178.466 63.3259 178.39 63.2974 178.319C63.2974 178.319 63.2974 178.396 63.2974 178.55C63.2974 178.704 63.2974 178.943 63.3534 179.251C63.4095 179.868 63.4796 180.73 63.5707 181.83C63.7459 184.072 63.9912 187.324 64.0192 191.347C64.051 193.535 63.9269 195.722 63.6478 197.892C63.5238 199.088 63.1641 200.248 62.5896 201.305C62.2275 201.798 61.7164 202.162 61.1319 202.342C60.5345 202.59 59.9182 202.789 59.2888 202.938C56.5803 203.535 53.814 203.831 51.0404 203.821C49.579 203.843 48.1178 203.763 46.6674 203.583C45.1984 203.359 43.8765 202.566 42.9882 201.375C42.7302 200.984 42.5274 200.56 42.3855 200.114C42.2697 199.654 42.1969 199.185 42.1683 198.712C42.0842 197.752 42.0001 196.799 41.923 195.853C41.7548 193.975 41.5936 192.125 41.4325 190.331C41.1101 186.735 40.8087 183.323 40.5284 180.204L40.3813 180.386L56.9271 178.943L61.6084 178.515L62.8559 178.396C63.0087 178.39 63.1609 178.374 63.3114 178.347Z" fill="#263238"/>
<g opacity="0.3">
<path d="M42.0635 199.742C43.8436 204.381 48.4899 204.648 53.4936 203.947C58.1959 203.246 62.7231 202.272 63.0735 200.927C62.9473 203.386 61.1393 205.272 58.8687 206.26C56.5633 207.141 54.0883 207.488 51.6294 207.276C49.0575 207.157 46.836 207.276 44.7126 205.811C42.5891 204.346 42.0565 201.859 42.0635 199.742Z" fill="black"/>
</g>
<path d="M89.7668 179.784C89.7606 179.725 89.7606 179.667 89.7668 179.608L89.7038 179.104C89.6571 178.637 89.587 177.985 89.4935 177.149C89.3253 175.411 89.0871 172.944 88.7927 169.944C88.2181 163.861 87.4472 155.452 86.6343 146.166C85.8214 136.881 85.1206 128.464 84.651 122.339C84.4198 119.291 84.2516 116.824 84.1535 115.121C84.0974 114.266 84.0764 113.607 84.0623 113.152C84.0623 112.948 84.0623 112.78 84.0623 112.64C84.0521 112.582 84.0521 112.523 84.0623 112.465C84.2305 114.441 85.4009 127.833 86.9987 146.103C87.7976 155.382 88.5264 163.777 89.052 169.895C89.2973 172.916 89.5006 175.369 89.6407 177.107C89.7038 177.933 89.7528 178.592 89.7879 179.069C89.7879 179.272 89.7879 179.44 89.7879 179.58C89.7908 179.649 89.7837 179.717 89.7668 179.784Z" fill="#263238"/>
<path d="M98.9048 145.451C99.1739 146.421 99.2735 147.431 99.1992 148.436C99.052 149.971 98.9819 153.741 94.8963 155.03C90.8106 156.32 88.8274 155.087 87.5729 153.356L86.9492 145.857L91.3222 142.97L98.9048 145.451Z" fill="#E0E0E0"/>
<g opacity="0.3">
<path d="M64.7694 150.272C64.7694 150.272 54.3205 160.595 46.2053 162.081C38.09 163.567 35.1887 160.679 33.0303 153.412L64.7694 150.272Z" fill="black"/>
</g>
<path d="M31.6492 103.088C31.6492 103.088 25.0127 109.241 26.9048 123.811C28.6568 137.35 31.8104 156.202 35.9311 158.395C40.0518 160.589 49.0571 159.489 55.6236 155.767C62.19 152.046 81.2167 141.983 81.2167 141.983L73.3397 127.967L47.9638 137.778C47.9638 137.778 44.6841 115.352 42.7148 111.456" fill="#E0E0E0"/>
<path d="M42.61 111.196C42.61 111.196 42.6801 111.343 42.8063 111.631C42.8623 111.771 42.9464 111.946 43.0305 112.163C43.1146 112.381 43.1847 112.647 43.2828 112.934C43.6542 114.098 44.0957 115.843 44.5793 118.113C45.5604 122.647 46.7447 129.263 47.9922 137.504L47.81 137.392L73.1719 127.511L73.312 127.455L73.3891 127.588C75.8769 132.017 78.526 136.698 81.2731 141.604L81.3642 141.772L81.196 141.863L64.9235 150.63L56.9414 154.926C55.6309 155.627 54.3274 156.363 52.9748 156.944C51.6253 157.515 50.2393 157.995 48.8261 158.381C46.0736 159.152 43.2164 159.483 40.3605 159.362C38.9683 159.3 37.5965 159.004 36.3028 158.486L35.8263 158.276C35.6721 158.199 35.525 158.087 35.3708 157.989C35.1104 157.768 34.8754 157.519 34.67 157.246C34.2529 156.708 33.8935 156.128 33.5978 155.515C32.5044 153.158 31.6499 150.698 31.0469 148.17C30.4091 145.739 29.9046 143.349 29.449 141.029C28.552 136.397 27.8863 132.052 27.3466 128.079C26.807 124.105 26.2954 120.489 26.4426 117.286C26.5118 114.549 26.9986 111.838 27.8863 109.248C28.4616 107.616 29.2713 106.077 30.29 104.679C30.5576 104.317 30.8479 103.973 31.159 103.649C31.2653 103.54 31.3776 103.437 31.4954 103.34L31.187 103.677C30.89 104.009 30.6116 104.358 30.3531 104.721C29.3665 106.129 28.5832 107.67 28.0264 109.297C27.1569 111.876 26.6843 114.572 26.6248 117.293C26.4987 120.475 27.0032 124.07 27.5779 128.036C28.1526 132.003 28.8323 136.348 29.7434 140.973C30.1989 143.279 30.7105 145.662 31.3552 148.086C31.9553 150.589 32.8027 153.026 33.8851 155.361C34.1681 155.946 34.5085 156.503 34.9012 157.022C35.1083 157.28 35.3434 157.515 35.602 157.722C35.7314 157.814 35.8673 157.896 36.0085 157.968L36.457 158.171C37.7191 158.664 39.0553 158.942 40.4095 158.991C43.2256 159.106 46.0422 158.777 48.756 158.017C50.1489 157.638 51.5159 157.169 52.8487 156.615C54.1942 156.033 55.4697 155.312 56.7872 154.611L64.7693 150.308L81.0488 141.548L80.9717 141.8L73.1088 127.784L73.326 127.861L47.9361 137.672L47.7749 137.736V137.567C46.5625 129.333 45.4202 122.71 44.4882 118.169C44.0327 115.899 43.6122 114.147 43.2618 112.983C43.1777 112.696 43.1006 112.437 43.0305 112.212L42.8273 111.673C42.6871 111.35 42.61 111.196 42.61 111.196Z" fill="#263238"/>
<path d="M51.7201 127.987H64.3135V123.797H51.7201V127.987Z" fill="white"/>
<path d="M54.3271 125.64C55.6262 125.451 56.9404 125.387 58.2516 125.45C59.5651 125.387 60.8817 125.451 62.1831 125.64C60.8809 125.82 59.5649 125.881 58.2516 125.822C56.9406 125.881 55.627 125.82 54.3271 125.64Z" fill="#263238"/>
<g opacity="0.3">
<path d="M72.4226 123.986L53.8864 108.947L54.328 107.636H52.7161L50.0391 97.2153L53.8935 104.784L56.122 104.679L54.5032 106.165L72.4226 123.986Z" fill="black"/>
</g>
<path d="M49.5266 106.844L50.2274 106.564C50.2274 106.529 48.7066 102.906 47.2139 99.0654C46.6778 97.8854 46.4603 96.5854 46.5832 95.2951C46.6672 94.8892 46.8919 94.526 47.2175 94.2696C47.5432 94.0131 47.949 93.8799 48.3632 93.8935L48.8538 93.6342L49.1061 93.1857C47.8096 92.9054 46.0716 93.9916 45.8614 95.19C45.7247 96.6151 45.9664 98.051 46.5622 99.3527C47.9988 103.214 49.5056 106.809 49.5266 106.844Z" fill="#455A64"/>
<path d="M48.4341 115.31L49.3661 114.946C48.6023 112.976 47.5581 109.493 48.0066 108.512C48.2277 108.162 48.5208 107.863 48.8663 107.634C49.2119 107.406 49.602 107.254 50.0109 107.188C50.5114 107.056 51.0358 107.041 51.5429 107.146C52.0499 107.25 52.5258 107.471 52.9332 107.79C53.9984 108.694 55.6103 111.876 56.1429 113.032L57.0469 112.612C56.9698 112.437 55.0356 108.253 53.5779 107.005C53.0534 106.586 52.4385 106.294 51.7817 106.153C51.1249 106.012 50.4443 106.025 49.7936 106.193C49.2289 106.29 48.6936 106.515 48.2276 106.848C47.7616 107.182 47.377 107.617 47.1026 108.12C46.3457 109.746 48.0767 114.427 48.4341 115.31Z" fill="#455A64"/>
<path d="M58.4972 130.503C59.6465 130.503 60.7818 129.886 61.8681 128.667L61.4896 128.33C60.2983 129.683 59.0649 130.215 57.8455 129.928C52.8628 128.758 49.0645 114.917 49.0295 114.777L48.5459 114.903C48.7071 115.485 52.4564 129.178 57.7264 130.412C57.9787 130.473 58.2375 130.504 58.4972 130.503Z" fill="#263238"/>
<path d="M60.9084 129.234C61.0097 129.336 61.144 129.397 61.2869 129.407C61.4298 129.418 61.5716 129.376 61.6863 129.29L62.7655 128.485C62.8461 128.434 62.9155 128.368 62.9697 128.29C63.0239 128.212 63.0616 128.124 63.0806 128.031C63.0996 127.937 63.0995 127.842 63.0803 127.748C63.061 127.655 63.0231 127.567 62.9688 127.489C62.9115 127.4 62.8345 127.324 62.7436 127.268C62.6528 127.213 62.5504 127.178 62.4443 127.168C62.3382 127.158 62.2312 127.172 62.1314 127.21C62.0317 127.247 61.9417 127.307 61.8685 127.384L60.8944 128.393C60.785 128.507 60.725 128.659 60.7276 128.817C60.7302 128.974 60.7953 129.125 60.9084 129.234Z" fill="#263238"/>
<path d="M56.3802 130.959C57.0286 131.008 57.6791 130.895 58.2727 130.63C58.8663 130.364 59.3841 129.955 59.7791 129.438C62.8416 125.142 57.067 113.215 56.8217 112.71L56.3732 112.927C56.4293 113.053 62.267 125.093 59.3727 129.151C58.6158 130.209 57.2703 130.629 55.4342 130.398L55.3711 130.889C55.7055 130.935 56.0427 130.959 56.3802 130.959Z" fill="#263238"/>
<path d="M56.4722 130.686C56.4625 130.828 56.402 130.962 56.3017 131.064C56.2014 131.166 56.0679 131.228 55.9255 131.239L54.58 131.351C54.4868 131.366 54.3916 131.362 54.3 131.339C54.2085 131.316 54.1225 131.275 54.0472 131.218C53.9719 131.161 53.909 131.09 53.862 131.008C53.8151 130.926 53.7852 130.835 53.7741 130.742C53.7566 130.636 53.7635 130.529 53.794 130.426C53.8245 130.324 53.878 130.23 53.9503 130.152C54.0226 130.074 54.1119 130.013 54.2113 129.974C54.3107 129.935 54.4176 129.92 54.5239 129.929L55.9255 130.048C56.0817 130.062 56.2262 130.137 56.3282 130.256C56.4303 130.375 56.4819 130.529 56.4722 130.686Z" fill="#263238"/>
<path d="M80.4536 116.052C82.4198 116.052 84.0137 114.458 84.0137 112.492C84.0137 110.526 82.4198 108.932 80.4536 108.932C78.4874 108.932 76.8936 110.526 76.8936 112.492C76.8936 114.458 78.4874 116.052 80.4536 116.052Z" fill="#263238"/>
<path d="M80.4536 116.052C82.4198 116.052 84.0137 114.458 84.0137 112.492C84.0137 110.526 82.4198 108.932 80.4536 108.932C78.4874 108.932 76.8936 110.526 76.8936 112.492C76.8936 114.458 78.4874 116.052 80.4536 116.052Z" fill="#263238"/>
<path d="M77.8252 112.493C77.8238 113.014 77.9774 113.525 78.2664 113.959C78.5554 114.394 78.9668 114.733 79.4486 114.933C79.9304 115.133 80.4608 115.186 80.9725 115.084C81.4843 114.983 81.9545 114.732 82.3234 114.363C82.6924 113.994 82.9435 113.524 83.0449 113.012C83.1464 112.5 83.0936 111.97 82.8933 111.488C82.693 111.006 82.3542 110.595 81.9198 110.306C81.4854 110.017 80.9749 109.863 80.4532 109.865C79.7562 109.865 79.0878 110.142 78.5949 110.634C78.1021 111.127 77.8252 111.796 77.8252 112.493Z" fill="#E0E0E0"/>
<path d="M72.899 96.9839C73.2354 97.4675 76.9567 105.323 78.989 109.283L79.5847 108.975C79.2833 108.393 73.8731 97.2292 73.4527 96.6055L69.5142 93.4028L69.374 94.1527L72.899 96.9839Z" fill="#455A64"/>
<path d="M71.4063 112.409C73.9852 114.981 80.5167 121.673 80.5167 121.673L82.2616 120.622L73.0672 110.811C72.8807 110.612 72.6296 110.486 72.3587 110.455C72.0879 110.424 71.8149 110.491 71.5885 110.643C71.447 110.736 71.3281 110.86 71.2402 111.006C71.1523 111.151 71.0977 111.314 71.0803 111.483C71.0629 111.652 71.0831 111.822 71.1394 111.982C71.1958 112.142 71.2869 112.288 71.4063 112.409Z" fill="#263238"/>
<path d="M73.2627 127.679L75.4562 121.498C75.6838 120.831 76.1071 120.249 76.671 119.826C77.2348 119.403 77.9129 119.161 78.6168 119.129H78.9462C80.2637 119.277 86.9703 119.718 86.9703 119.718L89.5633 122.626C89.7766 122.868 89.8943 123.18 89.8943 123.502C89.8943 123.825 89.7766 124.136 89.5633 124.378L90.3131 129.634L88.8625 130.644L89.0096 134.316C89.0096 134.316 87.6991 135.185 87.1175 134.897L86.5288 134.603L85.6598 133.727L83.179 137.231L79.7521 139.214L73.2627 127.679Z" fill="#FFBF9D"/>
<path d="M89.6056 124.673C89.3125 124.316 88.9989 123.977 88.6665 123.656C88.2934 123.336 87.8694 123.08 87.4121 122.9C86.8165 122.759 86.2086 122.677 85.597 122.654C83.987 122.566 82.3866 122.35 80.8105 122.01C82.4222 121.971 84.0344 122.06 85.632 122.276C86.2747 122.297 86.9124 122.396 87.5312 122.57C88.0224 122.778 88.4695 123.078 88.8487 123.453C89.2286 123.765 89.4946 124.194 89.6056 124.673Z" fill="#FF9A6C"/>
<path d="M89.4591 129.501C89.3091 129.043 89.1288 128.596 88.9194 128.163C88.321 127.17 87.4085 126.405 86.3265 125.99C85.2255 125.594 84.0627 125.397 82.8926 125.408C82.4018 125.442 81.909 125.428 81.4209 125.366C81.8951 125.208 82.3928 125.132 82.8926 125.142C84.1053 125.048 85.3241 125.215 86.4666 125.633C87.6293 126.075 88.5876 126.931 89.1577 128.036C89.4207 128.477 89.5269 128.993 89.4591 129.501Z" fill="#FF9A6C"/>
<path d="M88.7997 134.007C88.5571 133.566 88.4362 133.067 88.4493 132.564C88.4208 132.047 88.3096 131.538 88.1199 131.057C87.9904 130.781 87.7947 130.541 87.5502 130.359C87.3057 130.177 87.0199 130.058 86.7183 130.013C85.5631 129.765 84.3924 129.597 83.2143 129.508C82.7139 129.488 82.2218 129.374 81.7637 129.172C82.2576 129.16 82.7517 129.184 83.2424 129.242C84.442 129.252 85.6374 129.386 86.8094 129.641C87.1625 129.729 87.4956 129.884 87.7905 130.097C88.0647 130.311 88.2774 130.594 88.4072 130.917C88.5987 131.437 88.6914 131.988 88.6806 132.543C88.7156 133.454 88.8628 133.986 88.7997 134.007Z" fill="#FF9A6C"/>
<path d="M92.4583 122.416L63.5293 152.291L64.6436 153.419L85.3662 151.086L113.251 124.518L113.223 123.243L92.4583 122.416Z" fill="#455A64"/>
<g opacity="0.3">
<path d="M97.8751 136.347C97.1935 135.726 96.3893 135.254 95.5143 134.962C94.6392 134.669 93.7127 134.564 92.7943 134.651C90.9547 134.84 89.2128 135.572 87.7906 136.754C86.5862 137.636 85.7087 138.893 85.2958 140.328C84.7071 142.837 86.7745 146.348 89.0521 147.567C91.9394 145.248 94.7496 141.687 97.6369 139.375C98.1053 139.072 98.4582 138.62 98.639 138.092C98.6633 137.761 98.6064 137.429 98.4733 137.125C98.3402 136.821 98.1349 136.554 97.8751 136.347Z" fill="black"/>
</g>
<path d="M113.138 124.462C113.012 124.471 112.886 124.471 112.76 124.462H111.653L107.504 124.413L93.0675 124.161L93.2006 124.105L85.9544 131.624L70.9222 147.091L66.339 151.744L65.0776 152.999C64.9352 153.149 64.783 153.289 64.6221 153.419C64.7457 153.257 64.8841 153.107 65.0355 152.971L66.2479 151.667L70.747 146.93C74.5944 142.928 79.8574 137.441 85.6951 131.386C88.253 128.737 90.7128 126.2 92.9554 123.888L93.0114 123.832H93.0675L107.483 124.245L111.625 124.392L112.732 124.448C112.867 124.438 113.004 124.443 113.138 124.462Z" fill="#263238"/>
<path d="M95.0294 133.222C95.0294 133.222 97.8326 133.278 98.7507 133.734C99.6687 134.189 102.178 136.852 102.178 136.852C102.178 136.852 102.178 138.674 101.477 138.744C101.566 139.152 101.616 139.568 101.624 139.985C101.694 141.008 101.841 141.59 100.454 142.466C100.454 142.466 100.601 144.141 100.089 144.568C99.7433 144.859 99.3781 145.126 98.996 145.367C98.996 145.367 98.9189 147.21 96.4451 147.189L94.1254 148.212C94.1254 148.212 88.9675 147.729 89.5142 147.119C90.0608 146.509 91.3012 143.489 91.3012 143.489C91.3012 143.489 87.7972 140.917 87.8392 140.118C87.8813 139.319 88.2037 139.242 88.2037 139.242C88.2037 139.242 88.0635 137.714 89.2969 137.567C89.2969 137.567 90.25 135.668 91.1961 135.598C92.1422 135.528 98.5615 137.854 98.5615 137.854L96.1577 135.815C96.1577 135.815 93.747 135.451 93.8241 134.645C93.9012 133.839 95.0294 133.222 95.0294 133.222Z" fill="#FFBF9D"/>
<path d="M94.6092 142.83C93.4965 142.361 92.4089 141.834 91.3505 141.253C90.2377 140.777 89.15 140.243 88.0918 139.655C89.2922 139.879 90.4491 140.293 91.5187 140.882C92.6445 141.365 93.6874 142.023 94.6092 142.83Z" fill="#FF9A6C"/>
<path d="M97.9732 140.602C96.5354 140.269 95.1287 139.814 93.7684 139.242C92.3709 138.789 91.0155 138.214 89.7178 137.525C91.1555 137.858 92.5622 138.313 93.9226 138.885C95.3201 139.338 96.6754 139.913 97.9732 140.602Z" fill="#FF9A6C"/>
<path d="M52.295 76.0228C51.3624 72.8446 50.7013 69.5929 50.3188 66.3028C49.9366 62.9968 50.3797 59.6476 51.6082 56.5547C51.8115 56.0921 53.4654 53.0507 53.9559 53.0927C54.3133 53.1418 53.2551 56.0361 53.4093 56.3584C54.9791 59.3999 55.2594 62.981 54.8109 66.3799C54.343 69.6767 53.5085 72.9111 52.3231 76.0228" fill="#263238"/>
<path d="M52.625 63.388C52.7791 55.0766 57.7478 48.2508 66.0452 48.6713L66.8091 48.7554C70.5253 49.1388 73.9603 50.9095 76.4285 53.714C78.8966 56.5186 80.2163 60.1508 80.1243 63.8856C79.9491 71.0828 79.6618 79.0299 79.2132 82.8562C78.2812 90.7683 70.222 91.1677 70.222 91.1677L68.3859 103.376L51.4336 91.5882L52.625 63.388Z" fill="#FFBF9D"/>
<path d="M70.1938 91.1954C66.5333 90.7978 63.0631 89.3606 60.1934 87.0537C60.1934 87.0537 61.7772 93.8304 69.7593 93.9496L70.1938 91.1954Z" fill="#FF9A6C"/>
<path d="M77.0748 70.4794C77.0463 70.7745 76.9035 71.0467 76.677 71.2379C76.4504 71.4291 76.1581 71.5241 75.8624 71.5026C75.7173 71.4991 75.5744 71.4665 75.4421 71.4067C75.3098 71.347 75.1908 71.2614 75.0921 71.1549C74.9935 71.0484 74.9172 70.9232 74.8677 70.7867C74.8183 70.6503 74.7967 70.5053 74.8042 70.3603C74.8327 70.0647 74.9752 69.7918 75.2016 69.5994C75.4279 69.4071 75.7202 69.3105 76.0166 69.3301C76.162 69.3346 76.3051 69.3681 76.4374 69.4285C76.5698 69.489 76.6887 69.5753 76.7873 69.6823C76.8858 69.7894 76.962 69.915 77.0114 70.0519C77.0608 70.1888 77.0823 70.3341 77.0748 70.4794Z" fill="#263238"/>
<path d="M78.0567 66.9615C77.9025 67.0876 77.1106 66.3658 75.8912 66.2607C74.6718 66.1555 73.7187 66.6531 73.5996 66.4919C73.4804 66.3307 73.7117 66.1625 74.1322 65.9243C74.6979 65.6116 75.3474 65.4841 75.9893 65.5599C76.6218 65.6239 77.2179 65.8864 77.6922 66.3097C78.0356 66.6181 78.1337 66.8984 78.0567 66.9615Z" fill="#263238"/>
<path d="M66.6549 69.9891C66.6264 70.2847 66.4838 70.5576 66.2575 70.7499C66.0312 70.9423 65.7388 71.0389 65.4425 71.0193C65.297 71.0148 65.154 70.9813 65.0216 70.9209C64.8893 70.8604 64.7704 70.7741 64.6718 70.667C64.5732 70.56 64.497 70.4344 64.4477 70.2975C64.3983 70.1606 64.3767 70.0153 64.3843 69.87C64.4211 69.5807 64.5673 69.3164 64.7927 69.1314C65.0181 68.9464 65.3057 68.8546 65.5967 68.8748C65.7393 68.8785 65.8799 68.9102 66.0103 68.9681C66.1407 69.0261 66.2584 69.1092 66.3566 69.2127C66.4549 69.3162 66.5318 69.438 66.583 69.5712C66.6342 69.7044 66.6586 69.8464 66.6549 69.9891Z" fill="#263238"/>
<path d="M66.0733 66.1905C65.9191 66.3236 65.1272 65.6018 63.9078 65.4897C62.6884 65.3775 61.7353 65.8821 61.6162 65.7139C61.497 65.5457 61.7283 65.3916 62.1488 65.1533C62.7145 64.8406 63.364 64.7131 64.0059 64.7889C64.6384 64.8529 65.2345 65.1154 65.7088 65.5387C66.0522 65.8541 66.1504 66.1344 66.0733 66.1905Z" fill="#263238"/>
<path d="M69.458 76.0156C70.1215 75.8786 70.8 75.8291 71.4763 75.8685C71.7847 75.8685 72.086 75.8685 72.1771 75.6302C72.2368 75.3108 72.1977 74.9807 72.065 74.6841L71.3992 72.2173C70.4742 68.7133 69.8434 65.84 69.9976 65.805C70.1518 65.77 70.9998 68.6082 71.9248 72.1122C72.1421 72.9742 72.3523 73.8011 72.5555 74.586C72.7006 74.9868 72.7006 75.4257 72.5555 75.8264C72.4997 75.9307 72.4208 76.0209 72.3249 76.0901C72.229 76.1594 72.1185 76.2058 72.0019 76.2259C71.8228 76.2491 71.6414 76.2491 71.4623 76.2259C70.7881 76.2383 70.115 76.1677 69.458 76.0156Z" fill="#263238"/>
<path d="M65.7852 76.4785C65.9814 76.4785 65.8483 77.81 66.8784 78.8682C67.9086 79.9264 69.3312 79.9264 69.3242 80.1156C69.3172 80.3048 68.9808 80.3399 68.3852 80.2908C67.6101 80.2209 66.8849 79.8782 66.3388 79.3237C65.8116 78.7947 65.5122 78.0803 65.5049 77.3335C65.5119 76.7728 65.6941 76.4645 65.7852 76.4785Z" fill="#263238"/>
<path d="M66.5285 61.2431C66.3743 61.5585 65.176 61.2431 63.7253 61.2992C62.2747 61.3553 61.0833 61.5865 60.9221 61.2992C60.852 61.145 61.0903 60.8577 61.6229 60.5984C62.2744 60.2675 62.9946 60.0946 63.7253 60.0938C64.4541 60.0899 65.1739 60.2554 65.8277 60.5774C66.3603 60.8016 66.5986 61.089 66.5285 61.2431Z" fill="#263238"/>
<path d="M77.979 62.8546C77.7337 63.1069 76.9278 62.7355 75.9187 62.6164C74.9095 62.4972 74.0405 62.6164 73.8723 62.294C73.8023 62.1468 73.9635 61.8805 74.3629 61.6563C74.8956 61.3895 75.4978 61.294 76.0869 61.3829C76.678 61.4421 77.2351 61.6875 77.6777 62.0837C78 62.4341 78.0912 62.7285 77.979 62.8546Z" fill="#263238"/>
<path d="M52.6521 69.3235C52.519 69.2464 47.3751 67.137 46.9757 72.5752C46.5762 78.0134 52.1195 77.2916 52.1406 77.1374C52.1616 76.9833 52.6521 69.3235 52.6521 69.3235Z" fill="#FFBF9D"/>
<path d="M50.6278 74.9504C50.6278 74.9504 50.5297 75.0135 50.3615 75.0765C50.1308 75.1501 49.8809 75.1351 49.6607 75.0345C49.1071 74.7822 48.6866 73.8361 48.7286 72.855C48.752 72.3877 48.8763 71.9311 49.093 71.5165C49.1531 71.3448 49.255 71.1907 49.3896 71.0684C49.5242 70.946 49.6873 70.8591 49.8639 70.8157C49.975 70.7936 50.0903 70.8118 50.1892 70.867C50.2881 70.9222 50.3641 71.0109 50.4035 71.117C50.4666 71.2712 50.4035 71.3763 50.4526 71.3903C50.5016 71.4044 50.5717 71.3062 50.5437 71.082C50.5237 70.9446 50.4568 70.8184 50.3545 70.7246C50.2851 70.663 50.2041 70.6157 50.1163 70.5857C50.0284 70.5556 49.9355 70.5432 49.8429 70.5494C49.6156 70.575 49.3991 70.6596 49.2146 70.7948C49.0302 70.9301 48.8844 71.1112 48.7917 71.3203C48.5274 71.7729 48.376 72.2825 48.3502 72.806C48.3081 73.9062 48.7917 74.9714 49.5626 75.2588C49.7055 75.3118 49.8585 75.3318 50.0102 75.3172C50.1619 75.3027 50.3084 75.2539 50.4386 75.1747C50.6138 75.0836 50.6488 74.9644 50.6278 74.9504Z" fill="#FF9A6C"/>
<path d="M77.1595 54.6066C78.0705 54.1791 75.6107 51.1587 73.5083 50.0374C70.3337 48.3415 65.4001 47.1081 62.2955 47.7668C58.5953 48.5657 55.4627 50.1776 53.4304 53.3732C51.4589 56.6249 50.3874 60.3423 50.3259 64.1445C50.2058 65.2997 50.397 66.4659 50.8795 67.5224C51.5803 68.7698 52.9819 69.6247 52.7997 71.2786C52.76 71.5774 52.7798 71.881 52.858 72.1721C52.9362 72.4632 53.0712 72.7359 53.2552 72.9746C54.1873 74.1028 55.4627 73.1848 56.0935 72.2247C57.425 70.1644 57.7193 67.6345 57.9856 65.2167C58.2695 63.4974 58.2695 61.7431 57.9856 60.0238C57.7754 59.0988 57.404 58.2157 57.2848 57.2767C57.1775 56.8143 57.1721 56.3341 57.2689 55.8694C57.3657 55.4047 57.5624 54.9667 57.8455 54.5856C57.9889 54.4336 58.1461 54.2952 58.315 54.1721C59.117 53.5602 60.0675 53.1727 61.0688 53.0496C62.07 52.9264 63.0861 53.072 64.0125 53.4713C67.0049 54.7538 72.1347 56.709 73.5714 55.7559C75.6317 54.3894 76.1643 53.4433 76.1643 53.4433L77.1595 54.6066Z" fill="#263238"/>
<rect x="95.8906" y="47.48" width="49.5761" height="15.6556" fill="#2FABC0"/>
<rect x="112.851" y="80.0957" width="49.5761" height="15.6556" transform="rotate(-90 112.851 80.0957)" fill="#2FABC0"/>
</svg>
