<svg width="352" height="426" viewBox="0 0 352 426" fill="none" xmlns="http://www.w3.org/2000/svg">
<rect x="84.6504" y="8.49658" width="196.266" height="408.258" rx="21" fill="#E0E0E0"/>
<path d="M160.453 97.7337C160.162 97.6205 148.888 94.6627 149.567 106.066C150.245 117.469 161.552 114.43 161.56 114.099C161.568 113.768 160.453 97.7337 160.453 97.7337Z" fill="#B78876"/>
<path d="M157.817 109.992C157.76 109.951 157.623 110.137 157.3 110.315C156.838 110.546 156.304 110.586 155.813 110.428C154.584 110.064 153.453 108.214 153.275 106.161C153.187 105.201 153.308 104.233 153.631 103.324C153.716 102.961 153.889 102.624 154.134 102.342C154.379 102.06 154.689 101.843 155.037 101.708C155.262 101.634 155.505 101.641 155.725 101.728C155.946 101.815 156.128 101.977 156.241 102.185C156.411 102.492 156.354 102.726 156.411 102.742C156.467 102.758 156.645 102.532 156.524 102.072C156.446 101.791 156.271 101.548 156.031 101.385C155.869 101.275 155.688 101.198 155.496 101.159C155.305 101.12 155.107 101.12 154.916 101.158C154.454 101.279 154.031 101.516 153.687 101.847C153.343 102.179 153.09 102.592 152.952 103.049C152.518 104.068 152.346 105.18 152.451 106.282C152.661 108.577 153.97 110.654 155.643 111.034C155.955 111.105 156.279 111.105 156.591 111.033C156.903 110.962 157.195 110.821 157.445 110.622C157.809 110.266 157.857 110.008 157.817 109.992Z" fill="#AA6550"/>
<path d="M188.916 57.0088C194.711 57.0088 200.61 57.0088 207.859 60.7991C212.434 63.2235 215.278 66.9653 217.662 71.5395C219.564 75.2584 220.492 79.3983 220.362 83.573C220.151 87.5169 220.135 90.2727 218.559 93.8933" fill="#263238"/>
<path d="M186.597 57.9063C190.67 57.6161 194.759 58.141 198.627 59.4503C202.494 60.7595 206.062 62.8269 209.121 65.5315C212.18 68.236 214.669 71.5234 216.442 75.2013C218.216 78.8793 219.238 82.8739 219.449 86.9516C220.192 101.232 220.847 116.676 220.693 124.45C220.354 141.147 203.633 143.612 203.633 143.612C203.633 143.612 204.005 148.558 204.441 154.7C204.636 157.634 204.24 160.577 203.277 163.356C202.314 166.134 200.805 168.692 198.837 170.877C196.869 173.062 194.483 174.83 191.819 176.077C189.156 177.324 186.27 178.024 183.332 178.136C180.445 178.247 177.564 177.787 174.855 176.783C172.145 175.779 169.661 174.251 167.543 172.286C165.424 170.321 163.714 167.957 162.51 165.331C161.306 162.704 160.632 159.866 160.526 156.979L158.045 89.6913C157.742 81.7165 160.556 73.9372 165.89 68.0012C171.224 62.0652 178.66 58.4388 186.621 57.8901L186.597 57.9063Z" fill="#B78876"/>
<path d="M203.632 143.611C203.632 143.611 193.368 144.145 182.216 137.009C182.216 137.009 187.267 149.131 203.931 147.79L203.632 143.611Z" fill="#AA6550"/>
<path d="M213.047 96.2376C213.06 96.865 212.825 97.4722 212.392 97.9264C211.959 98.3807 211.363 98.6451 210.736 98.6621C210.434 98.6828 210.13 98.6429 209.844 98.5447C209.557 98.4465 209.293 98.2919 209.067 98.09C208.841 97.8882 208.658 97.6432 208.528 97.3695C208.399 97.0958 208.325 96.7988 208.312 96.4962C208.311 95.8723 208.551 95.2722 208.981 94.8206C209.412 94.3691 210 94.1008 210.623 94.0717C210.925 94.052 211.228 94.0927 211.514 94.1914C211.8 94.29 212.064 94.4447 212.289 94.6463C212.515 94.8479 212.698 95.0925 212.828 95.3657C212.959 95.6389 213.033 95.9353 213.047 96.2376Z" fill="#263238"/>
<path d="M215.367 92.8584C215.068 93.1655 213.274 91.8158 210.704 91.7997C208.134 91.7835 206.251 93.0604 205.976 92.7452C205.839 92.5998 206.146 92.0421 206.97 91.4522C208.084 90.6883 209.41 90.2926 210.76 90.3207C212.094 90.3219 213.392 90.7526 214.462 91.5491C215.246 92.1553 215.512 92.721 215.367 92.8584Z" fill="#263238"/>
<path d="M187.889 96.2371C187.902 96.8659 187.666 97.4742 187.231 97.9287C186.796 98.3832 186.199 98.6467 185.57 98.6616C185.268 98.6812 184.965 98.6405 184.679 98.5419C184.393 98.4432 184.129 98.2886 183.904 98.087C183.678 97.8853 183.495 97.6408 183.365 97.3676C183.234 97.0944 183.16 96.798 183.146 96.4957C183.145 95.8705 183.386 95.2692 183.818 94.8174C184.25 94.3656 184.84 94.0983 185.465 94.0712C185.767 94.0527 186.069 94.0941 186.355 94.1932C186.64 94.2922 186.904 94.4469 187.129 94.6484C187.354 94.8498 187.538 95.0939 187.668 95.3666C187.799 95.6393 187.874 95.9351 187.889 96.2371Z" fill="#263238"/>
<path d="M190.145 93.1404C189.846 93.4475 188.043 92.0979 185.482 92.0817C182.92 92.0656 181.029 93.3344 180.746 93.0192C180.616 92.8818 180.915 92.3161 181.748 91.7261C182.864 90.9667 184.188 90.5715 185.538 90.5947C186.871 90.6038 188.166 91.0337 189.24 91.8231C189.999 92.4373 190.29 92.995 190.145 93.1404Z" fill="#263238"/>
<path d="M199.301 112.214C199.301 112.069 200.917 111.81 203.471 111.495C204.126 111.43 204.748 111.309 204.861 110.864C204.926 110.187 204.78 109.507 204.441 108.917C203.843 107.3 203.204 105.684 202.542 103.914C199.907 96.7862 198.008 90.9351 198.299 90.83C198.59 90.725 200.958 96.4145 203.584 103.542C204.223 105.296 204.829 106.969 205.403 108.577C205.809 109.369 205.923 110.279 205.726 111.147C205.626 111.377 205.477 111.582 205.288 111.747C205.099 111.912 204.876 112.033 204.635 112.101C204.273 112.191 203.901 112.24 203.528 112.246C200.925 112.384 199.309 112.384 199.301 112.214Z" fill="#263238"/>
<path d="M191.735 113.952C192.155 113.952 192.131 116.716 194.499 118.712C196.867 120.709 199.841 120.426 199.857 120.814C199.857 120.992 199.186 121.355 197.934 121.379C196.3 121.383 194.718 120.81 193.464 119.763C192.263 118.758 191.496 117.328 191.323 115.771C191.226 114.639 191.541 113.936 191.735 113.952Z" fill="#263238"/>
<path d="M190.88 83.1207C190.622 83.8157 188.068 83.4682 185.053 83.8077C182.039 84.1471 179.598 84.9472 179.202 84.3168C179.033 84.0178 179.461 83.3632 180.447 82.7005C181.763 81.8853 183.247 81.3802 184.787 81.2234C186.328 81.0666 187.883 81.2622 189.337 81.7953C190.444 82.2075 190.993 82.757 190.88 83.1207Z" fill="#263238"/>
<path d="M215.004 83.7279C214.552 84.3098 212.79 83.6875 210.664 83.6471C208.539 83.6067 206.737 84.0027 206.325 83.3885C206.147 83.0894 206.43 82.5076 207.222 81.9661C208.284 81.3116 209.516 80.9881 210.763 81.0371C212.009 81.086 213.213 81.5051 214.22 82.2409C214.964 82.847 215.206 83.445 215.004 83.7279Z" fill="#263238"/>
<path d="M158.214 94.9202C158.214 94.9202 158.941 98.7832 159.135 100.521C159.208 101.159 159.135 108.231 160.84 108.602C162.319 108.909 165.253 107.56 166.562 104.634C167.871 101.709 170.361 94.6858 170.086 91.4936C169.722 87.1457 169.52 82.7169 170.393 78.4337C171.266 74.1504 173.31 69.9803 176.745 67.2811C180.18 64.5818 185.15 63.6524 189.061 65.6082C191.486 66.8204 193.272 68.962 195.527 70.4571C197.527 71.8738 199.976 72.5091 202.412 72.2432C203.621 72.0914 204.762 71.6012 205.704 70.8291C206.647 70.057 207.352 69.0344 207.738 67.8791C208.449 65.3334 207.14 62.5452 205.095 60.8562C203.051 59.1671 200.424 58.3913 197.822 57.8741C190.598 56.3229 183.083 56.8497 176.147 59.3934C169.302 62.0523 163.216 67.1598 160.307 73.8918C156.929 81.6744 157.317 86.4507 158.214 94.904" fill="#263238"/>
<path d="M196.376 96.3429C196.295 95.4178 196.15 94.4996 195.939 93.5952C195.292 91.1398 193.837 88.9736 191.809 87.4451C190.423 86.396 188.809 85.6874 187.098 85.3762C185.133 85.0171 183.108 85.1872 181.231 85.8692C180.22 86.2298 179.271 86.7451 178.418 87.3966C177.507 88.0515 176.71 88.8514 176.058 89.7645C174.657 91.673 173.901 93.9791 173.901 96.347C173.901 98.7149 174.657 101.021 176.058 102.929C176.715 103.839 177.511 104.638 178.418 105.297C179.271 105.946 180.22 106.459 181.231 106.817C183.107 107.501 185.132 107.674 187.098 107.318C188.81 107.005 190.424 106.294 191.809 105.241C193.839 103.716 195.296 101.552 195.947 99.0988C196.153 98.1911 196.297 97.2703 196.376 96.3429C196.388 96.4043 196.388 96.4674 196.376 96.5288V97.0703C196.379 97.3656 196.355 97.6605 196.303 97.9512C196.265 98.3495 196.194 98.744 196.093 99.1311C195.491 101.658 194.039 103.901 191.979 105.483C190.454 106.659 188.656 107.43 186.754 107.727C184.851 108.024 182.904 107.836 181.093 107.18C180.043 106.816 179.056 106.29 178.168 105.621C177.236 104.946 176.417 104.128 175.743 103.196C174.284 101.218 173.496 98.8251 173.496 96.3672C173.496 93.9092 174.284 91.5159 175.743 89.5382C177.099 87.6925 178.968 86.2871 181.117 85.4974C183.057 84.8049 185.146 84.6403 187.171 85.0206C188.936 85.356 190.598 86.1036 192.02 87.2026C194.078 88.783 195.53 91.0229 196.133 93.5467C196.235 93.9364 196.305 94.3337 196.343 94.7347C196.395 95.0226 196.42 95.3149 196.416 95.6075V96.149C196.392 96.2864 196.384 96.3429 196.376 96.3429Z" fill="#263238"/>
<path d="M225.769 96.3429C225.683 95.4185 225.537 94.5006 225.332 93.5952C224.683 91.1387 223.225 88.9723 221.194 87.4451C219.808 86.3947 218.194 85.6859 216.483 85.3762C214.521 85.017 212.498 85.1871 210.624 85.8691C208.554 86.6314 206.755 87.9862 205.451 89.7645C204.045 91.671 203.286 93.9778 203.286 96.347C203.286 98.7161 204.045 101.023 205.451 102.929C206.105 103.839 206.899 104.638 207.803 105.297C208.658 105.948 209.61 106.461 210.624 106.817C212.498 107.501 214.52 107.674 216.483 107.318C218.195 107.005 219.809 106.294 221.194 105.241C223.224 103.716 224.681 101.552 225.332 99.0988C225.538 98.1907 225.684 97.2701 225.769 96.3429C225.772 96.4048 225.772 96.4669 225.769 96.5288C225.769 96.6743 225.769 96.8521 225.769 97.0703C225.772 97.3652 225.75 97.6598 225.704 97.9512C225.663 98.3496 225.59 98.7442 225.486 99.1311C224.891 101.661 223.437 103.905 221.372 105.483C219.95 106.581 218.289 107.326 216.523 107.657C214.497 108.046 212.403 107.881 210.462 107.18C208.309 106.401 206.44 104.993 205.096 103.14C203.631 101.164 202.841 98.7698 202.841 96.3106C202.841 93.8514 203.631 91.4573 205.096 89.4816C205.769 88.549 206.588 87.7305 207.52 87.0571C208.41 86.3885 209.396 85.8598 210.446 85.4893C212.388 84.7965 214.48 84.6319 216.507 85.0125C218.273 85.3467 219.935 86.0944 221.356 87.1945C223.419 88.7708 224.872 91.0124 225.47 93.5386C225.574 93.9282 225.646 94.3255 225.688 94.7266C225.734 95.0152 225.755 95.3072 225.752 95.5994C225.752 95.8176 225.752 95.9954 225.752 96.1409C225.762 96.2078 225.768 96.2753 225.769 96.3429Z" fill="#263238"/>
<path d="M203.341 95.1318C203.341 95.1965 202.929 94.9864 202.29 94.7762C201.456 94.4956 200.575 94.3803 199.696 94.4368C198.827 94.5013 197.978 94.726 197.191 95.0995C196.585 95.3985 196.245 95.6571 196.205 95.6006C196.165 95.544 196.447 95.2207 197.013 94.8409C197.81 94.3609 198.709 94.0782 199.637 94.0163C200.565 93.9545 201.494 94.1153 202.347 94.4853C203.05 94.7924 203.373 95.0995 203.341 95.1318Z" fill="#263238"/>
<path d="M207.893 66.9594C208.062 66.0946 207.771 65.6098 208.264 65.2542C208.757 64.8986 209.881 65.9169 210.252 66.3371C210.382 66.4745 210.77 65.9411 210.923 65.8441C211.092 65.4976 211.19 65.1215 211.214 64.7369C211.141 64.1308 210.196 63.9288 209.751 63.557C209.292 63.154 208.756 62.8488 208.175 62.66C207.939 62.5429 207.676 62.4895 207.412 62.5051C207.148 62.5207 206.893 62.6047 206.672 62.7489C206.541 62.904 206.443 63.0846 206.385 63.2792C206.326 63.4739 206.309 63.6785 206.333 63.8803C206.33 64.2846 206.407 64.6855 206.559 65.0602C206.711 65.4372 207 65.7431 207.367 65.9169" fill="#263238"/>
<path d="M157.591 86.0458C157.591 86.0458 165.778 89.0441 170.037 90.8544L169.794 86.6681L157.89 81.9565C157.89 81.9565 157.583 85.068 157.591 86.0458Z" fill="#EBEBEB"/>
<path d="M158.358 79.5396C160.337 80.1522 162.272 80.8946 164.153 81.762C166.096 82.5023 167.986 83.3745 169.81 84.3724C167.832 83.7597 165.896 83.0173 164.016 82.1499C162.073 81.4096 160.182 80.5374 158.358 79.5396Z" fill="#EBEBEB"/>
<path d="M160.823 167.729L160.193 147.921C160.193 147.921 164.129 166.048 184.745 165.814C204.44 165.587 204.084 149.844 204.084 149.844L204.787 157.829V190.083L191.938 242.702L175.524 244.755L157.389 172.828L160.823 167.729Z" fill="#E95262"/>
<path d="M202.25 161.39C202.189 161.539 202.111 161.68 202.016 161.811C201.769 162.209 201.499 162.592 201.208 162.958C200.171 164.322 198.934 165.521 197.539 166.514C195.468 167.996 193.146 169.091 190.686 169.747C187.671 170.556 184.529 170.772 181.432 170.385C178.348 169.961 175.349 169.058 172.542 167.71C170.265 166.62 168.099 165.31 166.077 163.799C164.709 162.795 163.398 161.716 162.149 160.566C161.705 160.162 161.382 159.823 161.155 159.596C161.035 159.49 160.926 159.371 160.832 159.241C160.969 159.326 161.096 159.427 161.212 159.54L162.262 160.445C163.168 161.253 164.509 162.328 166.255 163.581C168.287 165.045 170.452 166.316 172.72 167.379C175.494 168.687 178.45 169.565 181.489 169.981C184.529 170.363 187.615 170.163 190.58 169.391C193.005 168.762 195.301 167.717 197.369 166.304C198.758 165.345 200.006 164.197 201.078 162.894C201.854 161.924 202.218 161.366 202.25 161.39Z" fill="#263238"/>
<path d="M187.946 330.507L187.647 237.003L161.091 168.786L160.202 148.25L144.039 160.486C144.039 160.486 120.497 241.52 120.101 238.724C119.705 235.928 120.101 330.507 120.101 330.507H187.946Z" fill="#EBEBEB"/>
<path d="M187.308 330.248C187.195 330.248 187.098 309.18 187.098 283.189C187.098 257.199 187.195 236.13 187.308 236.13C187.421 236.13 187.518 257.199 187.518 283.189C187.518 309.18 187.421 330.248 187.308 330.248Z" fill="#263238"/>
<path d="M144.256 173.806L147.537 176.295L145.234 191.424L183.993 232.026L148.79 185.791L151.788 173.806H144.256Z" fill="#E0E0E0"/>
<path d="M189.401 282.606L129.912 265.166L127.94 219.982L144.257 160.453C144.257 160.453 105.368 179.857 102.717 192.221C100.067 204.586 93.6902 234.585 93.0194 256.284C92.4133 275.68 92.3244 288.611 96.7531 294.842C109.441 312.573 193.037 315.741 226.431 294.842" fill="#EBEBEB"/>
<path d="M184.745 233.002C184.745 233.002 184.673 232.937 184.551 232.784C184.43 232.63 184.236 232.396 184.018 232.121L181.998 229.535C180.236 227.256 177.723 223.991 174.627 219.966L150.439 188.311L148.621 185.886L148.556 185.805V185.708C149.59 181.57 150.601 177.554 151.562 173.723L151.756 173.982H144.224H144.03V173.788C144.03 168.939 144.03 164.413 144.03 160.437V160.356L144.095 160.308L155.789 151.418L159.022 148.993L159.83 148.371C159.922 148.295 160.022 148.23 160.129 148.177L159.862 148.412L159.054 149.066L155.894 151.539L144.289 160.542L144.354 160.413C144.354 164.389 144.354 168.874 144.354 173.764L144.16 173.578H151.692H152.015L151.95 173.836L148.96 185.821L148.92 185.644L150.746 188.028L174.829 219.764L182.103 229.406C182.911 230.537 183.598 231.418 184.059 232.04C184.269 232.331 184.43 232.565 184.56 232.735L184.745 233.002Z" fill="#263238"/>
<path d="M211.261 156.93C206.517 148.639 204.052 149.495 204.052 149.495L204.303 152.453V158.668L202.048 185.337L187.639 243.274L187.938 330.507H242.416L249.196 224.024L248.582 178.145L211.261 156.93Z" fill="#EBEBEB"/>
<path d="M248.59 178.145C248.59 178.145 262.692 188.554 263.945 205.307C264.939 218.908 267.177 256.156 267.622 264.262C268.268 276.886 258.433 306.456 232.831 298.084C217.476 293.057 160.759 273.782 160.759 273.782L164.533 249.691L231.853 253.732L233.194 197.581L248.59 178.145Z" fill="#EBEBEB"/>
<path d="M163.733 252.462C163.733 252.462 144.677 250.401 140.296 251.468C136.054 252.494 130.017 257.683 130.017 257.683L130.106 265.207L160.759 273.781L163.733 252.462Z" fill="#B78876"/>
<path d="M187.647 234.562C187.668 234.473 187.698 234.387 187.736 234.304C187.801 234.118 187.898 233.867 188.019 233.56C188.286 232.881 188.674 231.944 189.159 230.716L193.426 220.274L199.794 204.806C200.4 203.359 200.998 201.848 201.75 200.369C202.501 198.89 203.318 197.411 204.174 195.932C206.032 192.917 208.05 190.003 210.219 187.204C211.319 185.79 212.426 184.408 213.573 183.082V183.301L211.197 177.264L211.116 177.062L211.319 176.989L221.235 173.635L221.13 173.91C216.523 166.216 212.636 159.719 209.872 155.112C208.514 152.833 207.35 151.007 206.114 150.263C205.648 149.982 205.141 149.778 204.611 149.657C204.422 149.622 204.236 149.576 204.053 149.52C204.243 149.532 204.432 149.557 204.619 149.592C205.168 149.691 205.696 149.885 206.179 150.166C206.928 150.653 207.576 151.282 208.086 152.017C208.8 152.971 209.461 153.964 210.066 154.991L221.461 173.724L221.582 173.926L221.356 173.999L211.44 177.401L211.561 177.134L213.945 183.171L213.994 183.285L213.905 183.381C212.773 184.691 211.666 186.073 210.575 187.487C208.414 190.266 206.401 193.158 204.546 196.15C203.681 197.621 202.833 199.068 202.122 200.547C201.41 202.026 200.78 203.497 200.174 204.951C197.749 210.754 195.551 215.983 193.709 220.387C191.866 224.792 190.363 228.299 189.32 230.772C188.803 231.976 188.391 232.922 188.108 233.593C187.971 233.9 187.866 234.134 187.777 234.32C187.745 234.406 187.701 234.488 187.647 234.562Z" fill="#263238"/>
<path d="M256.325 293.396C256.256 293.488 256.177 293.572 256.09 293.647L255.363 294.35C254.406 295.225 253.37 296.01 252.268 296.693C250.511 297.763 248.604 298.563 246.61 299.069C243.969 299.723 241.232 299.899 238.529 299.587C236.953 299.403 235.397 299.073 233.882 298.601C232.266 298.1 230.714 297.477 229.033 296.895C225.711 295.683 222.139 294.471 218.39 293.113C210.874 290.479 202.59 287.666 193.862 284.797C176.406 279.067 160.485 274.235 148.944 270.784L135.27 266.743L131.553 265.636L130.591 265.345C130.48 265.314 130.371 265.274 130.268 265.224L130.607 265.296L131.577 265.555L135.319 266.581C138.551 267.487 143.247 268.82 149.057 270.501C160.614 273.871 176.535 278.663 194.015 284.401C202.752 287.262 211.035 290.058 218.543 292.742C222.293 294.075 225.857 295.344 229.178 296.564C230.843 297.162 232.411 297.793 234.027 298.294C235.52 298.767 237.055 299.1 238.61 299.288C241.287 299.616 244.002 299.465 246.627 298.843C248.613 298.357 250.518 297.586 252.284 296.556C253.386 295.888 254.429 295.128 255.403 294.285L256.155 293.614C256.206 293.537 256.263 293.465 256.325 293.396Z" fill="#263238"/>
<path d="M130.074 265.343C130.074 265.432 128.999 265.197 127.294 265.27C126.297 265.311 125.31 265.474 124.352 265.755C123.184 266.105 122.069 266.614 121.039 267.266C119.178 268.494 117.604 270.11 116.424 272.002C115.527 273.457 115.131 274.427 115.059 274.427C115.102 274.178 115.178 273.936 115.285 273.707C115.529 273.064 115.827 272.443 116.174 271.849C117.306 269.858 118.897 268.165 120.813 266.911C121.878 266.238 123.035 265.724 124.247 265.383C125.238 265.115 126.26 264.977 127.286 264.971C127.975 264.962 128.663 265.024 129.339 265.157C129.591 265.185 129.839 265.247 130.074 265.343Z" fill="#263238"/>
<path d="M111.333 259.446C111.333 259.446 111.333 259.365 111.406 259.228C111.502 259.035 111.628 258.858 111.777 258.703C112.355 258.138 113.096 257.77 113.895 257.652C115.051 257.462 116.23 257.462 117.386 257.652C118.8 257.838 120.19 258.177 121.532 258.662C123.986 259.524 126.226 260.902 128.102 262.703C128.662 263.254 129.173 263.851 129.63 264.489C129.807 264.715 129.957 264.962 130.074 265.225C130.002 265.281 129.339 264.247 127.9 262.921C126.004 261.225 123.79 259.92 121.387 259.083C120.075 258.613 118.722 258.269 117.346 258.056C116.226 257.854 115.081 257.821 113.951 257.959C113.2 258.045 112.489 258.349 111.907 258.832C111.503 259.18 111.365 259.462 111.333 259.446Z" fill="#263238"/>
<path d="M133.542 207.576C133.41 207.18 133.318 206.771 133.267 206.356C133.146 205.968 132.976 205.507 132.79 204.974C132.605 204.441 132.281 203.859 131.91 203.245C131.04 201.798 130.024 200.444 128.879 199.204C127.462 197.698 125.906 196.329 124.232 195.114C121.193 192.893 117.738 191.307 114.073 190.451C112.958 190.215 111.826 190.069 110.687 190.015C110.268 190.017 109.849 189.985 109.435 189.918C109.852 189.859 110.274 189.837 110.695 189.853C111.848 189.841 112.998 189.943 114.13 190.16C117.869 190.94 121.397 192.514 124.474 194.775C126.175 195.998 127.746 197.393 129.162 198.937C130.314 200.207 131.322 201.6 132.168 203.091C132.532 203.73 132.766 204.352 132.976 204.877C133.186 205.402 133.3 205.912 133.397 206.308C133.477 206.726 133.525 207.15 133.542 207.576Z" fill="#263238"/>
<path d="M246.48 276.644C246.47 276.548 246.47 276.45 246.48 276.354V275.505C246.48 274.761 246.423 273.67 246.318 272.272C246.025 268.301 245.21 264.385 243.894 260.627C243.498 259.382 242.955 258.188 242.278 257.071C241.521 255.881 240.423 254.948 239.126 254.396C236.418 253.232 233.161 253.386 229.848 253.2L208.157 252.287C190.232 251.478 174.287 250.832 164.266 250.298L164.403 250.185C163.797 253.871 163.312 256.788 162.981 258.816C162.811 259.794 162.682 260.554 162.585 261.095C162.544 261.338 162.504 261.532 162.48 261.685L162.431 261.879C162.424 261.812 162.424 261.744 162.431 261.677L162.512 261.087C162.585 260.546 162.698 259.778 162.835 258.792C163.142 256.764 163.579 253.838 164.136 250.145V250.032H164.258L208.149 251.858L229.84 252.836C231.505 252.917 233.129 252.957 234.689 253.087C236.243 253.173 237.773 253.517 239.215 254.105C240.572 254.675 241.727 255.641 242.528 256.877C243.212 258.019 243.755 259.24 244.144 260.514C245.443 264.296 246.215 268.239 246.44 272.232C246.528 273.638 246.528 274.737 246.52 275.465C246.52 275.82 246.52 276.103 246.52 276.313C246.488 276.539 246.48 276.644 246.48 276.644Z" fill="#263238"/>
<path d="M233.64 223.935C233.753 223.935 233.85 230.456 233.85 238.481C233.85 246.507 233.753 253.028 233.64 253.028C233.527 253.028 233.43 246.507 233.43 238.481C233.43 230.456 233.527 223.935 233.64 223.935Z" fill="#263238"/>
<path d="M103.186 190.745C103.186 190.745 103.138 190.931 103.024 191.278C102.911 191.626 102.709 192.151 102.539 192.895C102.143 194.293 101.642 196.378 101.085 199.102C99.9614 204.549 98.5795 212.517 97.044 222.49C96.2762 227.484 95.4276 232.996 94.6195 238.903C94.2073 241.869 93.9487 244.957 93.7386 248.157C93.5285 251.357 93.3588 254.622 93.2294 258.049C92.987 264.845 92.8415 272.022 93.0355 279.497C93.1001 281.364 93.1648 283.255 93.3183 285.155C93.3668 286.108 93.5284 287.046 93.6416 287.991C93.8142 288.936 94.0436 289.87 94.3285 290.787C94.9036 292.642 95.813 294.376 97.0116 295.903C98.2136 297.456 99.7942 298.675 101.602 299.443C105.449 301.33 109.461 302.861 113.587 304.017C117.765 305.27 122.081 306.28 126.461 307.177C135.992 309.145 145.669 310.323 155.393 310.701C160 310.819 164.61 310.7 169.205 310.345C173.706 310.03 178.094 309.537 182.337 308.931C190.338 307.797 198.223 305.963 205.903 303.451C212.479 301.28 218.855 298.543 224.96 295.273V295.539L198.888 286.27L191.849 283.756L190.031 283.094C189.619 282.94 189.417 282.851 189.417 282.851L190.039 283.053L191.874 283.676L198.937 286.1L225.121 295.232L225.437 295.337L225.146 295.499C219.03 298.796 212.641 301.556 206.049 303.75C198.352 306.286 190.448 308.138 182.426 309.286C178.175 309.925 173.779 310.401 169.269 310.717C164.661 311.077 160.038 311.202 155.417 311.088C145.668 310.716 135.967 309.538 126.413 307.565C122.016 306.66 117.692 305.649 113.482 304.397C109.332 303.225 105.296 301.681 101.424 299.782C99.5408 298.99 97.8931 297.727 96.6399 296.113C95.4142 294.544 94.4857 292.763 93.9002 290.86C93.6071 289.927 93.3722 288.977 93.1971 288.015C93.0759 287.046 92.9223 286.092 92.8739 285.138C92.7203 283.231 92.6557 281.332 92.5991 279.481C92.4051 271.981 92.5991 264.805 92.8254 258C92.9547 254.606 93.1298 251.306 93.3507 248.1C93.5689 244.868 93.8356 241.797 94.2558 238.831C95.064 232.891 95.9206 227.403 96.6803 222.417C98.2966 212.444 99.7028 204.484 100.875 199.045C101.457 196.321 101.974 194.236 102.394 192.838C102.572 192.135 102.798 191.618 102.911 191.27C103.024 190.923 103.186 190.745 103.186 190.745Z" fill="#263238"/>
<path d="M129.985 259.762C139.934 248.747 139.497 229.165 133.784 215.273C133.258 230.321 131.48 243.672 130.123 258.299" fill="#E0E0E0"/>
<path d="M133.807 218.085C133.824 218.246 133.824 218.409 133.807 218.57C133.807 218.934 133.758 219.378 133.718 219.944C133.621 221.196 133.492 222.91 133.322 224.995C132.966 229.31 132.514 235.169 131.956 241.651L130.647 258.315C130.493 260.4 130.364 262.114 130.267 263.366L130.146 264.732C130.136 264.892 130.115 265.052 130.081 265.209C130.058 265.051 130.058 264.89 130.081 264.732C130.081 264.368 130.081 263.924 130.122 263.35C130.162 262.154 130.251 260.425 130.364 258.291C130.615 254.024 131.019 248.124 131.552 241.619C132.085 235.113 132.619 229.229 133.047 224.97C133.265 222.885 133.443 221.18 133.572 219.928C133.645 219.37 133.702 218.917 133.742 218.562C133.742 218.401 133.764 218.24 133.807 218.085Z" fill="#263238"/>
<path d="M158.326 198.188C158.539 201.03 158.61 203.881 158.536 206.73C158.609 209.579 158.539 212.43 158.326 215.273C158.213 215.273 158.116 211.442 158.116 206.73C158.116 202.019 158.213 198.188 158.326 198.188Z" fill="#263238"/>
<path d="M151.846 226.562C152.015 228.214 152.651 229.784 153.68 231.087C154.618 232.308 156.517 233.512 158.044 233.407C159.195 233.466 160.342 233.225 161.371 232.708C162.401 232.191 163.279 231.415 163.92 230.457C165.778 227.499 166.239 221.333 164.728 217.688C163.701 215.183 161.398 212.839 158.691 212.783C155.135 212.702 152.904 215.272 152.145 217.874" fill="#E0E0E0"/>
<path d="M152.161 217.875C152.278 217.26 152.5 216.67 152.816 216.129C153.167 215.48 153.617 214.888 154.149 214.376C154.861 213.693 155.726 213.189 156.671 212.905C157.218 212.737 157.787 212.645 158.36 212.63C158.986 212.596 159.614 212.678 160.21 212.873C161.512 213.333 162.655 214.154 163.508 215.24C164.469 216.413 165.137 217.799 165.455 219.281C165.791 220.855 165.91 222.467 165.811 224.074C165.649 226.603 165.148 229.125 163.75 231.048C163.055 231.952 162.128 232.65 161.067 233.068C160.103 233.455 159.066 233.629 158.028 233.578C157.27 233.584 156.523 233.401 155.854 233.044C155.266 232.737 154.722 232.351 154.238 231.897C153.477 231.138 152.873 230.238 152.46 229.246C152.183 228.62 151.993 227.959 151.894 227.282C151.867 227.105 151.851 226.927 151.846 226.749C151.835 226.687 151.835 226.624 151.846 226.563C152.01 227.459 152.282 228.333 152.654 229.165C153.086 230.115 153.695 230.973 154.448 231.695C154.936 232.122 155.48 232.481 156.064 232.761C156.689 233.084 157.382 233.247 158.085 233.238C159.109 233.289 160.13 233.096 161.064 232.674C161.999 232.253 162.82 231.615 163.459 230.814C164.76 229.012 165.261 226.53 165.415 224.057C165.593 220.825 165.051 217.641 163.233 215.491C162.42 214.46 161.333 213.679 160.097 213.236C159.537 213.051 158.949 212.966 158.36 212.986C157.813 212.992 157.269 213.07 156.743 213.22C155.84 213.481 155.01 213.948 154.319 214.586C153.79 215.069 153.336 215.627 152.969 216.243C152.669 216.771 152.399 217.316 152.161 217.875Z" fill="#263238"/>
<path d="M149.954 226.724C150.125 228.376 150.761 229.945 151.789 231.249C152.718 232.47 154.625 233.674 156.153 233.569C157.303 233.627 158.45 233.385 159.479 232.868C160.509 232.351 161.387 231.576 162.028 230.619C163.887 227.653 164.347 221.495 162.836 217.85C161.81 215.337 159.507 213.001 156.799 212.945C155.295 212.932 153.831 213.427 152.643 214.349C151.455 215.271 150.613 216.568 150.253 218.028" fill="#E0E0E0"/>
<path d="M150.268 218.028C150.387 217.416 150.608 216.829 150.923 216.291C151.275 215.641 151.724 215.05 152.256 214.537C153.389 213.445 154.893 212.822 156.467 212.791C157.093 212.758 157.721 212.84 158.318 213.034C159.619 213.494 160.763 214.316 161.615 215.402C162.577 216.573 163.242 217.959 163.554 219.443C163.897 221.016 164.019 222.628 163.918 224.235C163.757 226.765 163.255 229.278 161.857 231.209C161.162 232.113 160.235 232.811 159.174 233.23C158.21 233.617 157.173 233.79 156.136 233.739C155.377 233.743 154.63 233.557 153.962 233.198C153.372 232.896 152.828 232.512 152.345 232.058C151.58 231.3 150.975 230.396 150.567 229.399C150.291 228.776 150.1 228.118 150.002 227.443C150.002 227.209 149.953 227.031 149.945 226.91C149.936 226.848 149.936 226.786 149.945 226.724C150.11 227.618 150.382 228.489 150.753 229.318C151.18 230.273 151.789 231.136 152.547 231.856C153.035 232.283 153.579 232.642 154.164 232.923C154.789 233.241 155.482 233.405 156.184 233.4C157.207 233.449 158.226 233.255 159.159 232.834C160.092 232.412 160.912 231.775 161.55 230.975C162.859 229.165 163.361 226.692 163.514 224.219C163.692 220.986 163.15 217.802 161.332 215.652C160.532 214.613 159.453 213.823 158.221 213.373C157.663 213.188 157.078 213.103 156.491 213.123C154.991 213.146 153.552 213.721 152.45 214.739C151.922 215.222 151.467 215.781 151.101 216.396C150.789 216.922 150.511 217.467 150.268 218.028Z" fill="#263238"/>
<path d="M153.389 217.122C152.492 217.008 151.583 217.191 150.8 217.641C150.016 218.092 149.401 218.787 149.049 219.619C148.378 221.314 148.378 223.201 149.049 224.896C149.327 225.774 149.787 226.584 150.399 227.272C151.022 227.966 151.893 228.387 152.823 228.444C153.497 228.406 154.151 228.207 154.732 227.864C155.313 227.521 155.803 227.044 156.161 226.472C156.786 225.582 157.212 224.567 157.409 223.498C157.605 222.428 157.568 221.328 157.301 220.274C156.929 218.867 155.894 217.437 154.448 217.397" fill="#E0E0E0"/>
<path d="M154.44 217.397C154.44 217.397 154.554 217.397 154.764 217.397C155.075 217.433 155.376 217.535 155.645 217.696C156.121 218.014 156.53 218.423 156.846 218.9C157.162 219.378 157.38 219.913 157.487 220.476C157.882 222.134 157.705 223.877 156.986 225.422C156.583 226.348 155.962 227.163 155.176 227.798C154.753 228.162 154.25 228.421 153.707 228.551C153.165 228.682 152.599 228.682 152.056 228.55C150.998 228.212 150.107 227.484 149.567 226.513C149.071 225.644 148.722 224.699 148.533 223.717C148.331 222.896 148.298 222.043 148.437 221.209C148.576 220.375 148.884 219.579 149.341 218.868C149.669 218.398 150.086 217.998 150.568 217.69C151.051 217.382 151.59 217.173 152.153 217.074C152.462 217.028 152.775 217.028 153.083 217.074C153.285 217.114 153.39 217.146 153.39 217.163C152.987 217.149 152.584 217.173 152.186 217.235C151.12 217.483 150.19 218.127 149.583 219.038C149.165 219.724 148.89 220.488 148.774 221.284C148.659 222.08 148.706 222.891 148.913 223.668C149.101 224.604 149.443 225.502 149.923 226.327C150.411 227.204 151.214 227.863 152.17 228.17C152.648 228.287 153.148 228.288 153.628 228.172C154.107 228.057 154.552 227.829 154.925 227.507C155.659 226.91 156.245 226.152 156.639 225.293C157.338 223.824 157.534 222.165 157.196 220.573C157.026 219.496 156.447 218.526 155.58 217.866C155.232 217.64 154.846 217.481 154.44 217.397Z" fill="#263238"/>
<path d="M157.462 230.41C157.397 230.41 157.308 230.152 157.033 229.828C156.663 229.412 156.185 229.107 155.651 228.947C155.099 228.789 154.529 228.699 153.954 228.681C153.51 228.681 153.219 228.608 153.219 228.551C153.219 228.495 153.494 228.43 153.954 228.382C154.568 228.316 155.188 228.371 155.781 228.543C156.398 228.721 156.929 229.118 157.276 229.659C157.526 230.079 157.51 230.402 157.462 230.41Z" fill="#263238"/>
<path d="M158.101 216.024C158.101 216.024 157.971 216.307 157.6 216.606C157.1 216.988 156.515 217.243 155.894 217.349C155.276 217.462 154.639 217.429 154.036 217.252C153.583 217.099 153.341 216.921 153.365 216.872C154.167 216.998 154.982 217.019 155.789 216.937C156.595 216.729 157.371 216.422 158.101 216.024Z" fill="#263238"/>
<path d="M213.63 158.135C213.63 158.135 213.727 158.135 213.897 158.232C214.143 158.342 214.383 158.466 214.616 158.604C215.482 159.094 216.295 159.674 217.04 160.333C219.525 162.522 221.331 165.377 222.245 168.561C223.201 171.687 223.864 174.896 224.225 178.145C224.37 179.39 224.443 180.4 224.492 181.095C224.532 181.458 224.532 181.824 224.492 182.186C224.401 181.834 224.341 181.474 224.314 181.111C224.209 180.344 224.071 179.358 223.918 178.186C223.471 174.968 222.771 171.79 221.825 168.682C220.926 165.57 219.2 162.76 216.83 160.552C215.825 159.668 214.755 158.861 213.63 158.135Z" fill="#263238"/>
<path d="M203.56 247.09C205.903 247.001 207.778 244.665 210.122 244.795C210.547 244.831 210.96 244.95 211.338 245.146C211.717 245.342 212.053 245.61 212.327 245.936C212.602 246.262 212.81 246.638 212.939 247.044C213.068 247.45 213.116 247.878 213.08 248.302C213.044 248.727 212.924 249.14 212.729 249.518C212.533 249.897 212.264 250.233 211.939 250.507C211.613 250.782 211.236 250.99 210.83 251.119C210.424 251.248 209.997 251.296 209.572 251.26C207.108 250.977 205.669 248.092 203.261 247.542" fill="#263238"/>
<path d="M223.426 249.084C222.692 249.083 221.96 249.023 221.236 248.906L221.365 248.098C224.258 248.559 226.691 248.098 228.59 246.684C231.014 244.93 232.526 241.786 233.172 237.341V237.172C233.439 235.41 233.802 200.845 233.802 194.283C233.802 184.027 224.808 182.629 224.42 182.572C224.032 182.516 215.877 181.142 211.538 192.335C206.996 204.061 199.73 226.658 199.254 229.308C199.189 229.632 199.1 230.036 199.003 230.496C198.243 233.891 196.675 240.946 201.379 245.003C206.624 249.537 210.762 247.783 210.931 247.71L211.263 248.446C211.069 248.526 206.511 250.506 200.854 245.617C195.778 241.237 197.419 233.866 198.211 230.319C198.316 229.866 198.397 229.51 198.453 229.163C198.938 226.496 206.228 203.803 210.786 192.044C215.344 180.285 224.46 181.756 224.525 181.78C224.589 181.805 234.578 183.316 234.578 194.283C234.578 199.689 234.223 235.418 233.94 237.293V237.455C233.261 242.126 231.612 245.447 229.034 247.338C227.402 248.511 225.435 249.123 223.426 249.084Z" fill="#263238"/>
<path d="M234.23 200.903C233.872 199.481 233.305 198.119 232.549 196.862C231.689 195.536 230.61 194.367 229.357 193.403C227.814 192.239 226.044 191.413 224.16 190.979C220.701 190.218 217.085 190.689 213.937 192.312C212.651 193.015 211.455 193.87 210.373 194.858C210.424 194.769 210.487 194.688 210.559 194.616C210.744 194.384 210.946 194.168 211.165 193.969C211.951 193.216 212.834 192.571 213.792 192.054C216.985 190.306 220.704 189.777 224.257 190.567C226.198 191.025 228.017 191.896 229.591 193.12C230.879 194.118 231.975 195.342 232.824 196.733C233.392 197.664 233.812 198.679 234.068 199.739C234.144 200.026 234.201 200.318 234.238 200.612C234.238 200.79 234.246 200.903 234.23 200.903Z" fill="#263238"/>
<path d="M254.813 265.508C254.515 264.337 254.142 263.188 253.698 262.065C252.549 259.386 250.645 257.1 248.219 255.486C246.86 254.656 245.349 254.106 243.774 253.87C242.475 253.668 241.167 253.533 239.854 253.466L237.195 253.28C236.868 253.271 236.543 253.228 236.226 253.151C236.55 253.111 236.879 253.111 237.203 253.151L239.87 253.199C241.196 253.229 242.518 253.337 243.83 253.523C245.464 253.736 247.035 254.286 248.445 255.139C250.943 256.792 252.873 259.173 253.973 261.96C254.309 262.791 254.559 263.655 254.716 264.538C254.791 264.855 254.824 265.181 254.813 265.508Z" fill="#263238"/>
<path d="M214.042 252.027C214.042 252.027 221.994 239.994 224.023 238.418C226.051 236.842 243.419 229.003 245.431 230.264C247.443 231.524 246.239 234.256 246.239 234.256C246.239 234.256 253.577 231.686 254.361 232.696C254.783 233.304 255.009 234.026 255.009 234.765C255.009 235.505 254.783 236.226 254.361 236.834C254.361 236.834 258.402 236.212 258.402 237.464C258.386 238.305 258.164 239.13 257.755 239.865C257.347 240.601 256.764 241.225 256.058 241.683C254.183 243.089 241.988 251.203 241.01 253.45L237.058 253.207L214.042 252.027Z" fill="#B78876"/>
<path d="M236.912 248.576C237.002 248.309 237.124 248.054 237.276 247.816C237.663 247.158 238.101 246.531 238.585 245.941C240.21 244.003 242.16 242.362 244.347 241.092C246.523 239.82 248.805 238.738 251.168 237.86C252.065 237.512 252.784 237.254 253.31 237.051C253.569 236.944 253.84 236.868 254.118 236.825C253.886 236.986 253.633 237.114 253.366 237.205L251.273 238.102C248.966 239.046 246.725 240.145 244.565 241.391C242.417 242.645 240.476 244.223 238.811 246.071C237.551 247.566 236.985 248.616 236.912 248.576Z" fill="#AA6550"/>
<path d="M226.835 248.382C226.929 248.074 227.059 247.779 227.223 247.501C227.498 246.944 227.894 246.144 228.443 245.174C229.077 244.034 229.81 242.952 230.633 241.941C231.122 241.326 231.681 240.77 232.298 240.284C232.969 239.832 233.672 239.412 234.407 238.975C236.893 237.494 239.486 236.203 242.166 235.112C242.978 234.791 243.809 234.521 244.655 234.304C244.966 234.214 245.286 234.157 245.609 234.134C245.609 234.207 244.291 234.514 242.279 235.419C239.65 236.585 237.091 237.904 234.618 239.371C233.89 239.799 233.187 240.228 232.533 240.656C231.937 241.114 231.395 241.637 230.916 242.216C230.088 243.204 229.342 244.258 228.686 245.368L227.344 247.614C227.202 247.888 227.032 248.145 226.835 248.382Z" fill="#AA6550"/>
<path d="M4.62339 203.896C4.62339 203.896 -5.9129 207.529 4.82581 230.039C15.5645 252.549 23.115 263.773 23.115 263.773C23.115 263.773 24.9875 268.976 20.6252 269.664C16.2629 270.352 6.73875 268.571 4.66388 273.824C2.50804 279.279 6.37437 284.583 14.3601 289.36C22.3458 294.137 39.4812 305.25 41.0196 306.263C42.5581 307.275 44.056 309.694 41.1209 310.635C38.1857 311.576 16.6678 313.246 18.0645 323.428C19.4612 333.61 43.9143 343.246 46.6167 344.369C49.3191 345.493 49.8859 346.626 49.6531 348.094C49.4203 349.562 42.1026 349.43 35.9893 350.118C29.8761 350.806 22.9126 352.75 24.2183 358.559C25.5239 364.369 39.8152 376.879 75.2297 381.322L91.778 382.334L101.09 368.549C119.389 337.902 118.296 318.955 114.551 314.329C110.806 309.704 104.976 314.046 100.644 318.378C96.3124 322.71 91.9197 328.58 90.604 327.882C89.2882 327.183 88.7619 325.989 89.521 323.216C90.2801 320.442 97.7192 295.24 90.5331 287.862C83.347 280.484 68.7925 296.465 66.242 298.165C63.6914 299.866 62.7096 297.153 62.8614 295.392C63.0133 293.631 64.7946 273.216 65.8978 264.016C67.0011 254.816 65.2399 248.47 59.6125 246.81C54.1976 245.211 49.7442 253.804 46.5155 256.82C43.2868 259.836 40.3415 255.16 40.3415 255.16C40.3415 255.16 36.1513 242.306 25.0077 219.988C13.8642 197.671 4.41084 203.987 4.41084 203.987" fill="#E0E0E0"/>
<path d="M92.4461 386.261C84.3491 369.834 70.3918 340.401 58.2968 315.199C46.2018 289.997 35.2303 267.194 27.194 250.727L17.6597 231.243L15.0687 225.939C14.7853 225.342 14.5626 224.927 14.4108 224.553C14.259 224.178 14.1982 224.077 14.1982 224.077C14.1982 224.077 14.2893 224.229 14.4513 224.533L15.1598 225.889L17.8419 231.152C20.1597 235.717 23.4694 242.356 27.5179 250.565C35.6149 266.992 46.6674 289.775 58.7624 314.977C70.8574 340.179 84.7438 369.632 92.7801 386.099" fill="#E0E0E0"/>
<path d="M17.8828 276.85C18.2744 276.931 18.6573 277.05 19.0265 277.204C19.7553 277.467 20.7977 277.862 22.0629 278.368C24.6236 279.38 28.1357 280.888 31.9514 282.609L41.7489 287.042L44.7144 288.368C45.0954 288.503 45.4589 288.683 45.7974 288.904C45.4013 288.832 45.0143 288.717 44.6436 288.56C43.9148 288.297 42.8825 287.902 41.6072 287.376C39.0667 286.364 35.5344 284.795 31.749 283.074L21.9313 278.702L18.9557 277.396C18.5741 277.265 18.2129 277.081 17.8828 276.85Z" fill="#E0E0E0"/>
<path d="M46.9615 287.873C46.8299 287.823 49.6032 280.474 53.1457 271.456C56.6881 262.438 59.6739 255.191 59.7751 255.191C59.8763 255.191 57.1335 262.59 53.591 271.608C50.0485 280.626 47.0931 287.924 46.9615 287.873Z" fill="#E0E0E0"/>
<path d="M63.8232 327.415C64.0201 327.054 64.2542 326.715 64.5216 326.403L66.5459 323.771C68.2665 321.544 70.5944 318.457 73.0944 314.966C75.5943 311.474 77.7097 308.235 79.238 305.856L81.0497 303.063C81.2459 302.697 81.4874 302.357 81.7683 302.051C81.6234 302.433 81.4403 302.799 81.2218 303.144C80.8372 303.832 80.2704 304.824 79.5416 306.028C78.0943 308.437 75.9992 311.717 73.4689 315.219C70.9385 318.721 68.5803 321.777 66.7989 323.943C65.8981 325.026 65.1593 325.886 64.633 326.474C64.3986 326.816 64.127 327.132 63.8232 327.415Z" fill="#E0E0E0"/>
<path d="M35.29 323.235C35.6669 323.197 36.0467 323.197 36.4236 323.235L39.46 323.558C42.041 323.862 45.6037 324.307 49.5813 324.834C53.559 325.36 57.061 325.846 59.6217 326.251L62.6581 326.737C63.0341 326.774 63.4044 326.855 63.7613 326.979C63.3863 327.014 63.0083 326.997 62.6378 326.929L59.6014 326.605C57.0306 326.311 53.4679 325.866 49.5409 325.34C45.6138 324.813 42.0612 324.328 39.4904 323.923L36.454 323.437C36.0592 323.418 35.6682 323.35 35.29 323.235Z" fill="#E0E0E0"/>
<path d="M45.7158 360.036C46.1994 360.01 46.6844 360.034 47.1632 360.107L51.0801 360.512C54.3898 360.876 58.9545 361.413 63.9949 362.04C69.0353 362.668 73.6 363.255 76.8895 363.71L80.7963 364.277C81.2769 364.318 81.7518 364.41 82.2133 364.55C81.7294 364.568 81.2448 364.541 80.7659 364.469L76.849 364.064C73.5393 363.71 68.9746 363.174 63.9342 362.546C58.8938 361.919 54.3392 361.332 51.0396 360.876L47.1429 360.309C46.6603 360.259 46.1829 360.168 45.7158 360.036Z" fill="#E0E0E0"/>
<path d="M81.373 364.196C81.6153 363.739 81.9 363.305 82.2232 362.901C82.8609 362.02 83.6908 360.877 84.6827 359.47C86.707 356.575 89.6017 352.557 92.628 348.043C95.6542 343.529 98.2858 339.369 100.168 336.342L102.395 332.76C102.654 332.311 102.945 331.881 103.265 331.474C103.079 331.958 102.845 332.423 102.567 332.861C102.091 333.741 101.383 334.996 100.472 336.535C98.6704 339.571 96.0793 343.802 93.0531 348.326C90.0268 352.85 87.1321 356.838 84.956 359.692C83.8831 361.109 82.9925 362.253 82.3649 363.022C82.069 363.442 81.7372 363.835 81.373 364.196Z" fill="#E0E0E0"/>
<path d="M272.1 332.112C246.422 319.43 236.584 290.128 233.386 262.943C232.849 258.398 231.635 253.712 233.173 249.431C234.712 245.149 239.317 241.668 243.649 242.953C247.252 244.026 249.306 247.7 251.665 250.645C254.834 254.564 259.044 257.51 263.81 259.147C266.907 260.159 270.612 260.574 273.213 258.58C276.776 255.837 276.421 250.382 275.703 245.898L271.715 220.777C271.007 216.293 270.298 211.668 271.047 207.235C271.796 202.802 274.276 198.328 278.365 196.486C282.454 194.644 288.112 196.294 289.691 200.535C290.338 202.306 290.257 204.259 290.703 206.101C291.148 207.943 292.292 209.876 294.144 210.15C295.996 210.423 297.626 208.854 298.759 207.336C302.707 202.103 304.964 195.777 307.018 189.523C309.073 183.268 311.067 176.881 314.478 171.304C317.889 165.727 323.152 160.92 329.528 159.574C335.904 158.227 343.364 161.163 345.955 167.225C348.546 173.288 345.833 180.292 342.585 186.031C337.782 194.544 331.772 202.317 324.741 209.107C323.475 210.322 322.109 211.648 321.826 213.389C321.299 216.536 324.589 219.077 327.696 219.613C331.218 220.22 334.781 219.32 338.364 219.198C341.947 219.077 345.955 220.038 347.777 223.146C350.317 227.457 347.21 232.852 343.91 236.587C337.298 244.076 329.444 250.37 320.692 255.19C317.565 256.9 314.255 258.489 311.947 261.262C309.64 264.036 308.638 268.266 310.733 271.181C312.828 274.096 317.109 274.491 320.469 273.327C323.83 272.163 326.643 269.805 329.751 268.064C335.57 264.795 343.607 264.015 348.374 268.732C351.501 271.849 352.473 276.697 351.795 281.07C351.117 285.442 349.001 289.46 346.674 293.215C338.576 306.373 327.311 317.598 313.749 324.743C300.186 331.889 287.12 335.148 272.1 332.112Z" fill="#455A64"/>
<path d="M276.502 314.085C278.753 298.672 281.885 283.401 285.884 268.346C286.93 264.338 287.942 260.384 288.921 256.484C289.933 252.587 290.945 248.731 292.17 245.017C294.525 237.885 297.275 230.891 300.408 224.066C303.354 217.527 306.38 211.434 309.255 205.756C312.129 200.078 314.933 194.845 317.686 190.179C321.998 182.795 326.892 175.765 332.321 169.157C334.234 166.819 335.772 165.048 336.835 163.864C337.351 163.307 337.746 162.852 338.05 162.528C338.181 162.37 338.327 162.224 338.485 162.093C338.376 162.269 338.25 162.435 338.11 162.589L336.957 163.975C335.944 165.2 334.446 167.012 332.574 169.36C327.277 176.036 322.483 183.097 318.232 190.483C315.53 195.159 312.767 200.402 309.912 206.08C307.058 211.758 304.062 217.861 301.147 224.389C298.054 231.198 295.331 238.168 292.99 245.27C291.775 248.964 290.783 252.8 289.761 256.697C288.739 260.593 287.737 264.561 286.724 268.559C282.733 283.591 279.584 298.833 277.291 314.216" fill="#E0E0E0"/>
<path d="M292.444 244.928C292.13 244.341 291.886 243.719 291.715 243.076C291.29 241.871 290.703 240.11 290.076 237.924C288.76 233.541 287.15 227.438 285.399 220.718C283.648 213.997 281.958 207.914 280.582 203.572C279.893 201.396 279.327 199.645 278.912 198.431C278.668 197.804 278.495 197.152 278.396 196.487C278.745 197.051 279.03 197.652 279.246 198.279C279.752 199.453 280.41 201.184 281.169 203.339C282.697 207.651 284.489 213.714 286.229 220.465C287.97 227.216 289.478 233.126 290.663 237.732C291.209 239.807 291.675 241.547 292.039 242.954C292.243 243.596 292.378 244.258 292.444 244.928Z" fill="#E0E0E0"/>
<path d="M348.547 225.353C347.81 225.624 347.052 225.83 346.28 225.97C344.822 226.334 342.707 226.84 340.106 227.549C334.903 228.925 327.788 231.071 320.035 233.794C312.282 236.516 305.379 239.29 300.44 241.445C297.971 242.458 295.987 243.409 294.61 244.026C293.917 244.392 293.192 244.693 292.444 244.927C293.08 244.466 293.758 244.066 294.469 243.733C295.805 243.024 297.748 242.022 300.207 240.899C305.096 238.601 311.989 235.737 319.762 232.994C326.402 230.627 333.158 228.6 340.004 226.921C342.626 226.294 344.772 225.909 346.259 225.616C347.011 225.453 347.778 225.365 348.547 225.353Z" fill="#E0E0E0"/>
<path d="M277.049 312.882C276.86 312.685 276.694 312.467 276.553 312.234C276.199 311.708 275.763 311.07 275.247 310.291C274.114 308.611 272.555 306.121 270.662 303.024C266.867 296.829 261.897 288.115 256.543 278.419C251.189 268.723 246.3 259.978 242.646 253.713L238.294 246.314L237.12 244.29C236.966 244.061 236.843 243.812 236.756 243.551C236.953 243.743 237.123 243.961 237.262 244.199L238.568 246.132C239.691 247.822 241.26 250.312 243.153 253.409C246.948 259.593 251.918 268.318 257.272 278.014C262.626 287.71 267.504 296.455 271.168 302.72L275.521 310.119C275.986 310.928 276.371 311.596 276.695 312.143C276.849 312.37 276.968 312.619 277.049 312.882Z" fill="#E0E0E0"/>
<path d="M350.023 276.515C349.799 276.683 349.558 276.825 349.304 276.94C348.737 277.234 348.039 277.598 347.189 278.023L339.375 281.94C332.786 285.25 323.727 289.916 313.727 295.098C303.728 300.28 294.588 304.855 287.948 308.023C284.619 309.612 281.876 310.867 280.013 311.697L277.837 312.638C277.587 312.764 277.321 312.859 277.048 312.922C277.264 312.74 277.506 312.594 277.766 312.486L279.882 311.403L287.685 307.486C294.284 304.187 303.343 299.511 313.343 294.329C323.343 289.147 332.452 284.541 339.122 281.404C342.452 279.815 345.195 278.56 347.047 277.73L349.233 276.788C349.482 276.66 349.748 276.568 350.023 276.515Z" fill="#E0E0E0"/>
<path d="M40.1085 25.4354C42.1529 25.1597 44.2319 25.3009 46.2202 25.8506C48.2085 26.4003 50.0648 27.347 51.6772 28.6338C54.8817 31.235 57.4444 34.5388 59.167 38.2895C62.6993 45.3744 63.2155 54.5646 62.6183 62.4896C53.8735 61.2244 47.0922 53.5322 43.8939 49.423C38.8332 42.915 33.6714 28.0973 40.1288 25.3848" fill="#F5F5F5"/>
<path d="M76.1703 69.2496C74.5656 67.5976 73.4257 65.551 72.8659 63.317C72.306 61.0829 72.3461 58.7407 72.9821 56.5271C73.6597 54.3257 74.7683 52.281 76.2436 50.5121C77.7188 48.7432 79.5311 47.2854 81.5751 46.2236C83.4374 45.2115 85.6945 44.4929 87.6479 45.3026C88.5456 45.7338 89.3112 46.3979 89.8648 47.2257C90.4185 48.0535 90.7399 49.0147 90.7956 50.009C90.8798 52.0049 90.4365 53.9878 89.5102 55.7579C86.6257 61.9218 82.7087 67.367 76.1602 69.2496" fill="#F5F5F5"/>
<path d="M79.47 88.8866C78.6314 87.3475 77.9531 85.7263 77.4457 84.0486C76.8116 82.2321 76.397 80.3463 76.2109 78.4313C75.913 76.112 75.7676 73.7757 75.7757 71.4374C75.8012 67.1333 76.8894 62.9021 78.9437 59.1198C79.5842 57.9979 80.3407 56.9463 81.2007 55.9822C81.8384 55.3142 82.2129 54.9701 82.2635 55.0308C82.3141 55.0915 80.9679 56.5794 79.4902 59.4234C77.6647 63.1746 76.6999 67.2861 76.6664 71.4577C76.6588 73.7602 76.7804 76.0614 77.0308 78.3503C77.178 80.2155 77.5171 82.0606 78.0429 83.8563C78.6368 85.4973 79.1137 87.1782 79.47 88.8866Z" fill="#E0E0E0"/>
<path d="M45.0586 36.3164C45.668 36.9622 46.22 37.6598 46.7084 38.4014C47.7205 39.7779 49.178 41.7819 50.9492 44.2718C54.4815 49.2616 59.2993 56.2149 64.4207 64.0184C69.5421 71.822 73.9752 79.0284 77.0723 84.2611C78.631 86.8926 79.8557 89.0485 80.6755 90.5464C81.142 91.3046 81.5449 92.1002 81.8799 92.9249C81.3138 92.2371 80.8124 91.4985 80.382 90.7185L76.5359 84.585C73.3072 79.4029 68.783 72.2673 63.6717 64.4638L50.433 44.6665L46.3845 38.5937C45.8727 37.8774 45.4289 37.115 45.0586 36.3164Z" fill="#E0E0E0"/>
<path d="M69.3792 77.2559C65.645 74.1512 61.2248 71.981 56.4848 70.9249C51.7448 69.8688 46.8214 69.9573 42.1224 71.1831C39.7338 71.8308 37.0618 73.2073 36.7784 75.6364C36.495 78.0656 38.7217 80.0797 40.9079 81.2335C45.5022 83.5738 50.6864 84.5016 55.8072 83.9C60.9279 83.2984 65.756 81.1943 69.6828 77.853" fill="#F5F5F5"/>
<path d="M47.9121 75.4958C48.3433 75.3141 48.8016 75.2047 49.2684 75.1719C50.159 75.01 51.4445 74.8582 53.0537 74.7063C57.2582 74.2958 61.5023 74.6629 65.5738 75.7893C67.8167 76.4742 69.9328 77.5203 71.8389 78.8864C73.367 80.0174 74.7297 81.3562 75.8874 82.8641C76.6816 83.8637 77.3765 84.9383 77.9623 86.0726C78.2183 86.4682 78.4097 86.9021 78.5291 87.358C78.3671 87.4491 77.4461 85.6779 75.4016 83.2589C72.7435 80.1149 69.2261 77.8145 65.2803 76.6395C61.3001 75.5569 57.1728 75.1162 53.0537 75.3339C51.3446 75.4905 49.6277 75.5446 47.9121 75.4958Z" fill="#E0E0E0"/>
<path d="M255.379 0.131585L110.887 6.51891e-06C106.749 -0.00265645 102.651 0.81057 98.8277 2.39316C95.0043 3.97575 91.5306 6.29664 88.6051 9.22306C85.6796 12.1495 83.3599 15.624 81.7785 19.4478C80.1971 23.2716 79.3852 27.3697 79.3892 31.5077L79.3184 393.77C79.3264 402.11 82.6432 410.107 88.5408 416.004C94.4384 421.902 102.435 425.219 110.775 425.227L255.277 425.308C259.411 425.31 263.504 424.499 267.323 422.919C271.143 421.34 274.614 419.023 277.538 416.102C280.462 413.181 282.781 409.712 284.365 405.894C285.948 402.076 286.764 397.984 286.765 393.851L286.836 31.5886C286.833 23.2465 283.518 15.2469 277.619 9.3481C271.72 3.44934 263.721 0.134267 255.379 0.131585ZM277.19 388.578C277.186 391.472 276.612 394.337 275.5 397.01C274.389 399.682 272.761 402.109 270.711 404.153C268.661 406.196 266.229 407.816 263.553 408.919C260.877 410.022 258.01 410.587 255.115 410.581L110.907 410.5C108.012 410.499 105.146 409.927 102.472 408.818C99.7978 407.709 97.3684 406.085 95.3223 404.037C93.2763 401.989 91.6536 399.558 90.547 396.883C89.4404 394.208 88.8716 391.341 88.8729 388.446L88.9437 34.8578C88.9424 31.9617 89.512 29.0937 90.62 26.4179C91.728 23.7422 93.3526 21.311 95.4009 19.2636C97.4493 17.2163 99.8811 15.5928 102.557 14.486C105.234 13.3792 108.102 12.8109 110.998 12.8136H145.411C147.25 12.8561 148.999 13.6252 150.273 14.9528C151.548 16.2804 152.245 18.0585 152.212 19.8985V24.9592C152.179 26.7992 152.877 28.5773 154.151 29.9049C155.426 31.2325 157.174 32.0016 159.014 32.0441H213.669C215.511 32.0069 217.264 31.2398 218.541 29.9113C219.818 28.5828 220.516 26.8017 220.48 24.9592V19.8985C220.445 18.0577 221.141 16.2781 222.416 14.9499C223.691 13.6217 225.441 12.8535 227.282 12.8136H255.298C258.193 12.8242 261.059 13.4052 263.73 14.5235C266.401 15.6418 268.826 17.2754 270.865 19.331C272.905 21.3866 274.519 23.8239 275.617 26.5037C276.714 29.1834 277.273 32.0532 277.261 34.9489L277.19 388.578Z" fill="#263238"/>
<path d="M225.126 331.179H150.147V364.559H225.126V331.179Z" fill="#263238"/>
<path d="M277.201 331.179H212.708C212.708 345.4 200.563 356.968 185.745 356.968C170.928 356.968 158.792 345.4 158.792 331.179H88.9551V389.023C88.9577 394.86 91.2759 400.459 95.4009 404.589C99.526 408.72 105.121 411.046 110.959 411.057L255.167 411.138C258.063 411.14 260.932 410.572 263.608 409.465C266.284 408.358 268.716 406.735 270.764 404.688C272.813 402.64 274.437 400.209 275.545 397.533C276.653 394.857 277.223 391.989 277.222 389.093L277.201 331.179Z" fill="#EB7B8B"/>
<path d="M162.557 366.604H166.97C170.148 366.604 172.334 368.527 172.334 371.462C172.334 374.397 170.148 376.32 166.97 376.32H162.557V366.604ZM166.858 374.478C167.286 374.534 167.721 374.498 168.135 374.372C168.548 374.246 168.929 374.033 169.253 373.748C169.578 373.464 169.838 373.113 170.016 372.719C170.194 372.326 170.286 371.899 170.286 371.467C170.286 371.036 170.194 370.609 170.016 370.215C169.838 369.822 169.578 369.471 169.253 369.186C168.929 368.901 168.548 368.689 168.135 368.563C167.721 368.437 167.286 368.401 166.858 368.456H164.834V374.478H166.858Z" fill="white"/>
<path d="M180.471 372.059V376.32H178.447V375.399C178.192 375.755 177.846 376.037 177.446 376.215C177.045 376.392 176.605 376.46 176.169 376.411C174.418 376.411 173.376 375.399 173.376 374.154C173.376 372.909 174.307 371.917 176.584 371.917H178.305C178.305 370.986 177.748 370.449 176.584 370.449C175.814 370.443 175.062 370.684 174.439 371.138L173.659 369.63C174.617 369.011 175.738 368.694 176.878 368.719C179.206 368.739 180.471 369.802 180.471 372.059ZM178.305 373.961V373.202H176.827C175.815 373.202 175.491 373.577 175.491 374.073C175.491 374.569 175.947 374.974 176.706 374.974C177.046 374.999 177.385 374.914 177.673 374.732C177.961 374.549 178.182 374.279 178.305 373.961Z" fill="white"/>
<path d="M190.065 372.05V376.321H187.899V372.384C187.899 371.18 187.343 370.623 186.381 370.623C185.42 370.623 184.59 371.26 184.59 372.647V376.331H182.424V368.872H184.448V369.742C184.765 369.409 185.149 369.147 185.575 368.973C186 368.798 186.458 368.716 186.918 368.73C188.729 368.74 190.065 369.773 190.065 372.05Z" fill="white"/>
<path d="M191.757 366.604C191.76 366.435 191.799 366.268 191.869 366.114C191.94 365.96 192.042 365.822 192.168 365.709C192.294 365.596 192.442 365.511 192.603 365.457C192.764 365.404 192.934 365.385 193.103 365.4C193.269 365.382 193.437 365.398 193.596 365.447C193.756 365.497 193.903 365.579 194.03 365.688C194.156 365.798 194.258 365.932 194.331 366.082C194.403 366.233 194.443 366.397 194.449 366.564C194.45 366.737 194.414 366.908 194.346 367.066C194.277 367.225 194.176 367.367 194.05 367.485C193.924 367.603 193.774 367.693 193.611 367.751C193.448 367.808 193.275 367.831 193.103 367.819C192.934 367.833 192.763 367.812 192.603 367.757C192.442 367.703 192.294 367.616 192.168 367.502C192.041 367.389 191.94 367.25 191.869 367.096C191.799 366.941 191.76 366.774 191.757 366.604ZM192.02 368.861H194.186V376.321H192.02V368.861Z" fill="white"/>
<path d="M203.497 373.203H197.85C197.972 373.664 198.253 374.068 198.644 374.342C199.035 374.616 199.51 374.743 199.985 374.701C200.33 374.715 200.674 374.659 200.996 374.536C201.318 374.412 201.611 374.224 201.858 373.982L203.012 375.227C202.623 375.636 202.15 375.955 201.626 376.163C201.101 376.371 200.538 376.462 199.975 376.431C197.394 376.431 195.714 374.812 195.714 372.585C195.708 372.067 195.808 371.554 196.007 371.076C196.207 370.598 196.502 370.165 196.874 369.805C197.247 369.445 197.689 369.165 198.173 368.982C198.658 368.798 199.174 368.716 199.692 368.739C200.2 368.725 200.705 368.815 201.177 369.005C201.648 369.194 202.076 369.478 202.433 369.84C202.79 370.202 203.069 370.633 203.252 371.107C203.435 371.581 203.518 372.088 203.497 372.595C203.497 372.788 203.497 373.021 203.497 373.203ZM197.819 371.938H201.473C201.395 371.506 201.167 371.116 200.831 370.836C200.494 370.555 200.069 370.401 199.631 370.401C199.193 370.401 198.768 370.555 198.432 370.836C198.095 371.116 197.868 371.506 197.789 371.938H197.819Z" fill="white"/>
<path d="M204.954 366.026H207.12V376.319H204.954V366.026Z" fill="white"/>
<path d="M176.463 383.305V389.003H176.048V383.73H174.661V383.355L176.463 383.305Z" fill="white"/>
<path d="M177.91 386.157C177.91 384.376 178.831 383.263 180.137 383.263C181.442 383.263 182.374 384.376 182.374 386.157C182.374 387.939 181.453 389.042 180.137 389.042C178.821 389.042 177.91 387.939 177.91 386.157ZM181.959 386.157C181.959 384.568 181.22 383.647 180.137 383.647C179.054 383.647 178.325 384.568 178.325 386.157C178.325 387.746 179.064 388.657 180.137 388.657C181.21 388.657 181.959 387.777 181.959 386.157Z" fill="white"/>
<path d="M183.253 385.065C183.245 385.016 183.247 384.965 183.26 384.916C183.273 384.868 183.297 384.823 183.329 384.785C183.361 384.746 183.401 384.715 183.447 384.694C183.492 384.673 183.542 384.662 183.592 384.662C183.642 384.662 183.692 384.673 183.737 384.694C183.783 384.715 183.823 384.746 183.855 384.785C183.888 384.823 183.911 384.868 183.924 384.916C183.937 384.965 183.94 385.016 183.931 385.065C183.94 385.114 183.937 385.165 183.924 385.214C183.911 385.262 183.888 385.307 183.855 385.345C183.823 385.384 183.783 385.415 183.737 385.436C183.692 385.457 183.642 385.468 183.592 385.468C183.542 385.468 183.492 385.457 183.447 385.436C183.401 385.415 183.361 385.384 183.329 385.345C183.297 385.307 183.273 385.262 183.26 385.214C183.247 385.165 183.245 385.114 183.253 385.065ZM183.253 388.688C183.245 388.639 183.247 388.588 183.26 388.54C183.273 388.491 183.297 388.446 183.329 388.408C183.361 388.37 183.401 388.339 183.447 388.318C183.492 388.297 183.542 388.286 183.592 388.286C183.642 388.286 183.692 388.297 183.737 388.318C183.783 388.339 183.823 388.37 183.855 388.408C183.888 388.446 183.911 388.491 183.924 388.54C183.937 388.588 183.94 388.639 183.931 388.688C183.94 388.738 183.937 388.789 183.924 388.837C183.911 388.885 183.888 388.93 183.855 388.969C183.823 389.007 183.783 389.038 183.737 389.059C183.692 389.08 183.642 389.091 183.592 389.091C183.542 389.091 183.492 389.08 183.447 389.059C183.401 389.038 183.361 389.007 183.329 388.969C183.297 388.93 183.273 388.885 183.26 388.837C183.247 388.789 183.245 388.738 183.253 388.688Z" fill="white"/>
<path d="M184.895 386.157C184.895 384.376 185.816 383.263 187.131 383.263C188.447 383.263 189.358 384.376 189.358 386.157C189.358 387.939 188.437 389.042 187.131 389.042C185.826 389.042 184.895 387.939 184.895 386.157ZM188.943 386.157C188.943 384.568 188.204 383.647 187.131 383.647C186.058 383.647 185.31 384.568 185.31 386.157C185.31 387.746 186.058 388.657 187.131 388.657C188.204 388.657 188.943 387.777 188.943 386.157Z" fill="white"/>
<path d="M195.016 387.424H193.811V389.003H193.376V387.424H190.127V387.12L193.224 383.305H193.69L190.653 387.06H193.376V385.663H193.771V387.06H194.975L195.016 387.424Z" fill="white"/>
<path d="M125.563 358.192H112.668C110.181 358.192 108.164 360.209 108.164 362.696V375.591C108.164 378.078 110.181 380.095 112.668 380.095H125.563C128.05 380.095 130.067 378.078 130.067 375.591V362.696C130.067 360.209 128.05 358.192 125.563 358.192Z" fill="#FAFAFA"/>
<path d="M255.753 378.598H243.608C242.347 378.595 241.138 378.093 240.247 377.201C239.355 376.31 238.853 375.102 238.851 373.841V361.695C238.853 360.435 239.356 359.228 240.247 358.338C241.139 357.448 242.348 356.948 243.608 356.948H255.753C257.013 356.948 258.222 357.448 259.113 358.338C260.005 359.228 260.508 360.435 260.51 361.695V373.841C260.508 375.102 260.005 376.31 259.114 377.201C258.222 378.093 257.014 378.595 255.753 378.598ZM243.608 357.444C242.482 357.444 241.402 357.891 240.605 358.686C239.808 359.481 239.359 360.559 239.357 361.685V373.831C239.359 374.957 239.808 376.037 240.605 376.834C241.401 377.63 242.481 378.079 243.608 378.082H255.753C256.881 378.082 257.962 377.634 258.759 376.836C259.556 376.039 260.004 374.958 260.004 373.831V361.685C260.001 360.559 259.552 359.481 258.755 358.686C257.959 357.891 256.879 357.444 255.753 357.444H243.608Z" fill="white"/>
<path d="M123.102 365.582H115.117C114.848 365.582 114.591 365.689 114.401 365.878C114.211 366.068 114.104 366.326 114.104 366.594V371.877C114.104 372.146 114.211 372.403 114.401 372.593C114.591 372.783 114.848 372.89 115.117 372.89H115.795V375.218L118.487 372.89H123.102C123.371 372.89 123.628 372.783 123.818 372.593C124.008 372.403 124.114 372.146 124.114 371.877V366.625C124.119 366.489 124.095 366.354 124.046 366.228C123.997 366.102 123.923 365.986 123.829 365.889C123.735 365.792 123.622 365.715 123.497 365.662C123.372 365.609 123.238 365.582 123.102 365.582ZM116.574 370.238C116.417 370.24 116.263 370.195 116.132 370.109C116 370.023 115.898 369.9 115.837 369.755C115.776 369.611 115.759 369.451 115.789 369.297C115.819 369.143 115.895 369.001 116.006 368.89C116.117 368.779 116.258 368.704 116.412 368.674C116.567 368.644 116.726 368.66 116.871 368.721C117.015 368.782 117.139 368.885 117.225 369.016C117.311 369.147 117.355 369.301 117.353 369.458C117.353 369.665 117.271 369.863 117.125 370.01C116.979 370.156 116.781 370.238 116.574 370.238ZM119.003 370.238C118.847 370.238 118.694 370.191 118.564 370.104C118.434 370.017 118.332 369.893 118.273 369.748C118.213 369.603 118.198 369.444 118.23 369.291C118.261 369.137 118.337 368.997 118.449 368.887C118.56 368.777 118.702 368.702 118.855 368.673C119.009 368.644 119.168 368.661 119.312 368.722C119.456 368.783 119.579 368.886 119.665 369.017C119.75 369.148 119.795 369.302 119.793 369.458C119.79 369.666 119.706 369.864 119.558 370.01C119.41 370.156 119.211 370.238 119.003 370.238ZM121.604 370.238C121.448 370.238 121.295 370.191 121.165 370.104C121.035 370.017 120.934 369.893 120.874 369.748C120.815 369.603 120.8 369.444 120.831 369.291C120.862 369.137 120.938 368.997 121.05 368.887C121.161 368.777 121.303 368.702 121.457 368.673C121.61 368.644 121.77 368.661 121.914 368.722C122.058 368.783 122.18 368.886 122.266 369.017C122.351 369.148 122.396 369.302 122.394 369.458C122.391 369.666 122.307 369.864 122.159 370.01C122.011 370.156 121.812 370.238 121.604 370.238Z" fill="#EB7B8B"/>
<path d="M246.897 370.571C246.835 370.569 246.776 370.544 246.731 370.501C246.687 370.458 246.659 370.401 246.654 370.339C246.047 365.278 249.812 363.689 249.852 363.679C249.913 363.655 249.98 363.655 250.041 363.68C250.101 363.704 250.15 363.751 250.176 363.81C250.191 363.841 250.2 363.874 250.201 363.908C250.202 363.941 250.197 363.975 250.184 364.007C250.172 364.038 250.153 364.066 250.129 364.09C250.105 364.114 250.076 364.132 250.045 364.144C249.903 364.205 246.593 365.632 247.15 370.288C247.154 370.321 247.152 370.354 247.143 370.386C247.134 370.417 247.118 370.447 247.097 370.473C247.077 370.498 247.051 370.519 247.022 370.534C246.992 370.55 246.96 370.559 246.927 370.561L246.897 370.571Z" fill="white"/>
<path d="M246.897 370.571C246.823 370.567 246.754 370.534 246.705 370.48L245.116 368.608C245.091 368.584 245.072 368.556 245.058 368.524C245.045 368.493 245.038 368.46 245.038 368.426C245.038 368.392 245.045 368.358 245.058 368.327C245.072 368.295 245.091 368.267 245.116 368.243C245.164 368.199 245.227 368.175 245.293 368.175C245.358 368.175 245.421 368.199 245.47 368.243L246.856 369.883L248.081 368.253C248.104 368.229 248.131 368.21 248.162 368.197C248.192 368.184 248.225 368.177 248.258 368.177C248.291 368.177 248.324 368.184 248.355 368.197C248.385 368.21 248.413 368.229 248.435 368.253C248.462 368.273 248.484 368.298 248.501 368.327C248.518 368.356 248.529 368.387 248.534 368.42C248.539 368.453 248.537 368.486 248.529 368.519C248.52 368.551 248.506 368.581 248.486 368.608L247.069 370.48C247.046 370.51 247.017 370.534 246.984 370.552C246.951 370.569 246.914 370.579 246.877 370.581L246.897 370.571Z" fill="white"/>
<path d="M249.407 371.887C249.356 371.887 249.307 371.871 249.266 371.842C249.224 371.813 249.192 371.773 249.174 371.725C249.15 371.665 249.15 371.597 249.175 371.537C249.199 371.477 249.246 371.428 249.306 371.402C249.447 371.341 252.757 369.904 252.2 365.258C252.196 365.225 252.198 365.191 252.207 365.159C252.216 365.126 252.232 365.096 252.252 365.07C252.273 365.043 252.299 365.021 252.328 365.005C252.357 364.989 252.39 364.978 252.423 364.975C252.489 364.971 252.554 364.992 252.607 365.033C252.659 365.073 252.694 365.132 252.706 365.197C253.303 370.258 249.538 371.847 249.498 371.867L249.407 371.887Z" fill="white"/>
<path d="M251.067 367.353C251.013 367.354 250.959 367.336 250.916 367.302C250.862 367.262 250.826 367.202 250.817 367.135C250.808 367.069 250.825 367.001 250.865 366.948L252.282 365.075C252.304 365.045 252.333 365.02 252.366 365.002C252.4 364.984 252.437 364.975 252.474 364.974C252.548 364.978 252.617 365.011 252.667 365.065L254.256 366.938C254.302 366.985 254.328 367.049 254.328 367.115C254.328 367.181 254.302 367.245 254.256 367.292C254.207 367.339 254.141 367.365 254.074 367.365C254.006 367.365 253.94 367.339 253.891 367.292L252.505 365.652L251.28 367.272C251.254 367.302 251.222 367.326 251.184 367.34C251.147 367.354 251.107 367.358 251.067 367.353Z" fill="white"/>
<path d="M118.954 66.7801C127.182 66.7801 133.853 60.1097 133.853 51.8815C133.853 43.6532 127.182 36.9829 118.954 36.9829C110.726 36.9829 104.056 43.6532 104.056 51.8815C104.056 60.1097 110.726 66.7801 118.954 66.7801Z" fill="#EBEBEB"/>
<path d="M118.154 56.2339C118.085 56.2309 118.02 56.2019 117.972 56.153L114.085 52.1044C114.041 52.056 114.017 51.9928 114.017 51.9273C114.017 51.8618 114.041 51.7987 114.085 51.7502L117.972 47.7017C118.021 47.6547 118.086 47.6284 118.154 47.6284C118.222 47.6284 118.287 47.6547 118.336 47.7017C118.361 47.7253 118.38 47.7536 118.393 47.7849C118.407 47.8162 118.414 47.8498 118.414 47.8839C118.414 47.9179 118.407 47.9515 118.393 47.9828C118.38 48.0141 118.361 48.0424 118.336 48.066L114.622 51.9729L118.336 55.8898C118.361 55.9134 118.38 55.9417 118.393 55.973C118.407 56.0043 118.414 56.038 118.414 56.072C118.414 56.106 118.407 56.1397 118.393 56.171C118.38 56.2023 118.361 56.2306 118.336 56.2542C118.275 56.2671 118.211 56.26 118.154 56.2339Z" fill="#263238"/>
<path d="M124.905 52.134H114.268C114.201 52.134 114.136 52.1073 114.089 52.0599C114.041 52.0124 114.015 51.9481 114.015 51.881C114.017 51.8147 114.045 51.7517 114.092 51.7048C114.138 51.6579 114.201 51.6304 114.268 51.6279H124.905C124.972 51.6279 125.037 51.6546 125.084 51.702C125.132 51.7495 125.158 51.8139 125.158 51.881C125.158 51.9481 125.132 52.0124 125.084 52.0599C125.037 52.1073 124.972 52.134 124.905 52.134Z" fill="#263238"/>
<path d="M265.785 314.568C266.976 307.263 262.02 300.376 254.715 299.185C247.411 297.994 240.524 302.95 239.333 310.255C238.142 317.559 243.098 324.446 250.403 325.637C257.707 326.828 264.594 321.872 265.785 314.568Z" fill="#EB7B8B"/>
<path d="M252.545 315.39C251.905 315.39 251.291 315.137 250.838 314.685C250.385 314.234 250.129 313.621 250.126 312.981V307.708C250.126 307.067 250.381 306.451 250.834 305.998C251.288 305.544 251.903 305.289 252.545 305.289C253.187 305.289 253.802 305.544 254.255 305.998C254.709 306.451 254.964 307.067 254.964 307.708V312.981C254.961 313.621 254.705 314.234 254.252 314.685C253.799 315.137 253.185 315.39 252.545 315.39ZM252.545 305.805C252.039 305.805 251.554 306.005 251.196 306.362C250.837 306.719 250.635 307.202 250.632 307.708V312.981C250.632 313.489 250.834 313.975 251.192 314.334C251.551 314.693 252.038 314.894 252.545 314.894C253.052 314.894 253.539 314.693 253.898 314.334C254.256 313.975 254.458 313.489 254.458 312.981V307.708C254.458 307.201 254.256 306.714 253.898 306.355C253.539 305.997 253.052 305.795 252.545 305.795V305.805Z" fill="white"/>
<path d="M252.545 317.092C251.916 317.127 251.287 317.024 250.702 316.792C250.116 316.559 249.588 316.202 249.155 315.745C248.182 314.463 247.724 312.864 247.869 311.262C247.876 311.195 247.909 311.133 247.961 311.09C248.013 311.048 248.08 311.027 248.147 311.034C248.215 311.041 248.276 311.074 248.319 311.126C248.362 311.178 248.382 311.245 248.375 311.312C248.252 312.773 248.662 314.229 249.529 315.411C249.92 315.816 250.394 316.13 250.918 316.333C251.442 316.535 252.004 316.622 252.565 316.586C253.125 316.611 253.684 316.519 254.207 316.317C254.729 316.115 255.205 315.807 255.602 315.411C256.541 314.248 257.033 312.787 256.988 311.292C256.988 311.227 257.014 311.164 257.059 311.117C257.104 311.069 257.166 311.042 257.231 311.039C257.265 311.038 257.298 311.043 257.329 311.054C257.36 311.066 257.389 311.083 257.413 311.106C257.438 311.129 257.457 311.156 257.471 311.186C257.485 311.216 257.493 311.249 257.494 311.282C257.549 312.913 257.005 314.508 255.966 315.766C255.519 316.212 254.984 316.561 254.395 316.789C253.806 317.018 253.176 317.121 252.545 317.092Z" fill="white"/>
<path d="M252.545 320.795C252.478 320.795 252.414 320.769 252.366 320.721C252.319 320.674 252.292 320.61 252.292 320.542V316.838C252.292 316.771 252.319 316.707 252.366 316.659C252.414 316.612 252.478 316.585 252.545 316.585C252.612 316.585 252.677 316.612 252.724 316.659C252.771 316.707 252.798 316.771 252.798 316.838V320.542C252.798 320.61 252.771 320.674 252.724 320.721C252.677 320.769 252.612 320.795 252.545 320.795Z" fill="white"/>
<path d="M185.744 353.588C198.757 353.588 209.306 343.039 209.306 330.026C209.306 317.013 198.757 306.463 185.744 306.463C172.731 306.463 162.182 317.013 162.182 330.026C162.182 343.039 172.731 353.588 185.744 353.588Z" fill="#EB7B8B"/>
<path d="M183.648 323.508C183.186 323.141 182.648 322.879 182.074 322.742C181.5 322.604 180.903 322.594 180.324 322.712C179.746 322.829 179.2 323.072 178.725 323.423C178.25 323.774 177.858 324.224 177.575 324.743C177.305 325.237 177.214 325.809 177.317 326.362C177.42 326.916 177.712 327.416 178.142 327.779C180.308 329.905 184.852 334.166 186.826 336.018C187.359 336.526 188 336.907 188.701 337.133C189.402 337.359 190.145 337.424 190.875 337.324C191.447 337.241 191.995 337.041 192.487 336.736C192.978 336.431 193.401 336.028 193.729 335.552C195.966 332.516 190.622 330.107 190.622 330.107L188.284 332.557L182.838 327.304L185.227 324.672L183.648 323.508Z" fill="white"/>
</svg>
