<svg width="1920" height="876" viewBox="0 0 1920 876" fill="none" xmlns="http://www.w3.org/2000/svg">
<path d="M809.753 1.00004L809.754 1.00004C816.531 1.00323 823.199 2.70478 829.149 5.94918C835.099 9.19358 840.141 13.8774 843.814 19.5725L844.216 20.1958L844.93 19.992C846.997 19.4013 849.136 19.1018 851.285 19.1022H851.286C854.234 19.1022 857.153 19.6829 859.877 20.8112C862.601 21.9394 865.076 23.5932 867.161 25.678C869.246 27.7627 870.899 30.2377 872.028 32.9616C873.156 35.6855 873.737 38.6049 873.737 41.5532L873.737 41.5553C873.743 44.4175 873.195 47.2518 872.127 49.9027H741.257C740.008 45.8584 739.683 41.5818 740.312 37.3898C740.976 32.9619 742.684 28.7555 745.296 25.1182C747.907 21.4809 751.346 18.5172 755.329 16.4719C759.312 14.4265 763.725 13.3583 768.202 13.3555L768.205 13.3555C771.586 13.3444 774.941 13.9517 778.103 15.1475L778.754 15.3934L779.211 14.8692C783.013 10.5069 787.707 7.01141 792.976 4.61878C798.245 2.22616 803.966 0.992129 809.753 1.00004Z" fill="white" stroke="black" stroke-width="2"/>
<path fill-rule="evenodd" clip-rule="evenodd" d="M236.958 831.067C244.256 807.899 206.268 802.304 169.7 820.868C178.27 782.467 103.614 802.154 81.2947 822.964C71.5549 782.055 -19.317 848.734 -5.59153 876H268.793C336.448 857.885 287.874 805.56 236.958 831.086V831.067Z" fill="#8C9152"/>
<path fill-rule="evenodd" clip-rule="evenodd" d="M-164.807 792.539C-173.514 749.498 -128.39 739.114 -84.9005 773.588C-95.0877 702.277 -6.38585 738.906 20.1098 777.482C31.6892 701.498 139.616 825.352 123.33 876H-202.551C-282.922 842.252 -225.224 745.162 -164.719 792.539H-164.807Z" fill="#A7A17F"/>
<path fill-rule="evenodd" clip-rule="evenodd" d="M1850 423.404C1855.51 419.893 1858.31 414.032 1860.97 396.819C1863.31 410.619 1866.93 419.398 1872 422.539C1865.82 426.199 1862.82 437.872 1860.44 449.149C1859.5 438.441 1856.51 426.496 1850 423.404Z" fill="#EBB763"/>
<path fill-rule="evenodd" clip-rule="evenodd" d="M1488 143.839C1549.47 143.839 1609.57 162.07 1660.69 196.225C1711.8 230.381 1751.64 278.927 1775.17 335.726C1798.69 392.524 1804.85 455.023 1792.85 515.319C1780.86 575.615 1751.25 631 1707.78 674.469C1664.31 717.939 1608.92 747.541 1548.62 759.532C1488.33 771.523 1425.83 765.364 1369.03 741.835C1312.23 718.305 1263.69 678.462 1229.54 627.343C1195.39 576.224 1177.16 516.126 1177.17 454.648C1177.17 413.831 1185.21 373.412 1200.83 335.702C1216.45 297.991 1239.34 263.727 1268.21 234.865C1297.07 206.004 1331.34 183.11 1369.05 167.492C1406.76 151.874 1447.18 143.836 1488 143.839Z" fill="#E85463"/>
<path fill-rule="evenodd" clip-rule="evenodd" d="M1199.69 219.298C1210.05 219.295 1220.24 221.891 1229.33 226.85C1238.43 231.808 1246.13 238.97 1251.74 247.678C1254.94 246.744 1258.26 246.268 1261.6 246.264C1267.4 246.268 1273.1 247.714 1278.2 250.471C1283.3 253.229 1287.64 257.212 1290.82 262.061C1293.99 266.91 1295.92 272.473 1296.41 278.25C1296.91 284.027 1295.96 289.837 1293.65 295.155H1096.56C1095.07 290.655 1094.33 285.946 1094.35 281.208C1094.35 274.18 1096.06 267.258 1099.33 261.034C1102.59 254.81 1107.31 249.469 1113.09 245.466C1118.87 241.463 1125.53 238.919 1132.5 238.049C1139.48 237.18 1146.56 238.011 1153.14 240.473C1158.95 233.822 1166.11 228.491 1174.15 224.839C1182.19 221.187 1190.92 219.298 1199.75 219.298H1199.69Z" fill="white"/>
<path d="M1199.69 217.884C1210.1 217.87 1220.36 220.429 1229.55 225.333C1238.74 230.238 1246.57 237.337 1252.36 245.998C1253.69 245.647 1255.04 245.374 1256.4 245.181C1258.12 244.934 1259.86 244.808 1261.6 244.805C1271.24 244.811 1280.48 248.643 1287.3 255.461C1294.12 262.278 1297.95 271.523 1297.96 281.164C1297.95 283.658 1297.7 286.146 1297.21 288.59C1296.7 291.014 1295.96 293.383 1295 295.663L1294.62 296.525H1095.69L1095.36 295.553C1094.58 293.248 1093.99 290.882 1093.59 288.48C1092.53 282.05 1092.88 275.465 1094.62 269.184C1096.36 262.903 1099.45 257.075 1103.66 252.106C1107.88 247.137 1113.13 243.144 1119.04 240.406C1124.95 237.669 1131.39 236.251 1137.91 236.251C1142.98 236.232 1148.01 237.085 1152.79 238.771C1158.63 232.296 1165.74 227.091 1173.67 223.476C1181.89 219.747 1190.8 217.825 1199.82 217.839L1199.69 217.884ZM1228.6 228.073C1216.53 221.486 1202.58 219.211 1189.05 221.622C1175.51 224.033 1163.21 230.986 1154.16 241.335L1153.49 242.086L1152.59 241.733C1150.23 240.848 1147.79 240.175 1145.32 239.721C1142.83 239.283 1140.31 239.062 1137.78 239.058C1126.64 239.058 1115.96 243.483 1108.08 251.358C1100.21 259.234 1095.78 269.915 1095.78 281.053C1095.78 283.349 1095.96 285.641 1096.34 287.905C1096.64 289.821 1097.08 291.712 1097.66 293.564H1292.76C1293.51 291.733 1294.08 289.839 1294.49 287.905C1295.5 283.027 1295.42 277.985 1294.24 273.144C1293.06 268.303 1290.82 263.785 1287.67 259.92C1284.53 256.054 1280.56 252.938 1276.07 250.798C1271.57 248.657 1266.65 247.546 1261.66 247.546C1260.06 247.544 1258.46 247.654 1256.87 247.877C1255.29 248.101 1253.73 248.441 1252.2 248.894L1251.19 249.181L1250.61 248.297C1245.12 239.772 1237.57 232.764 1228.67 227.918L1228.6 228.073Z" fill="black"/>
<path fill-rule="evenodd" clip-rule="evenodd" d="M1672.62 156.085C1679.56 156.088 1686.4 157.831 1692.49 161.156C1698.59 164.48 1703.76 169.279 1707.52 175.115C1709.68 174.499 1711.91 174.186 1714.15 174.187C1717.23 174.187 1720.28 174.793 1723.13 175.972C1725.97 177.15 1728.56 178.878 1730.73 181.055C1732.91 183.233 1734.64 185.818 1735.82 188.663C1737 191.509 1737.6 194.558 1737.6 197.638C1737.61 200.855 1736.95 204.039 1735.66 206.987H1603.39C1601.92 202.594 1601.5 197.911 1602.19 193.326C1602.88 188.741 1604.65 184.386 1607.35 180.62C1610.05 176.853 1613.61 173.785 1617.74 171.667C1621.86 169.549 1626.43 168.443 1631.07 168.44C1634.57 168.428 1638.05 169.058 1641.32 170.297C1645.22 165.826 1650.03 162.245 1655.43 159.793C1660.83 157.341 1666.69 156.076 1672.62 156.085Z" fill="white"/>
<path d="M1672.62 154.648C1679.63 154.651 1686.54 156.368 1692.74 159.65C1698.94 162.932 1704.24 167.68 1708.18 173.479C1708.99 173.278 1709.81 173.123 1710.64 173.015C1711.81 172.838 1712.99 172.749 1714.17 172.75C1720.77 172.756 1727.1 175.38 1731.77 180.046C1736.43 184.712 1739.06 191.039 1739.06 197.637C1739.05 201.052 1738.35 204.43 1736.98 207.562L1736.61 208.401H1602.38L1602.05 207.451C1601.52 205.871 1601.13 204.252 1600.85 202.611C1600.59 200.966 1600.45 199.303 1600.46 197.637C1600.45 193.615 1601.24 189.63 1602.77 185.912C1604.31 182.194 1606.56 178.816 1609.41 175.97C1612.25 173.125 1615.63 170.868 1619.34 169.329C1623.06 167.791 1627.04 167 1631.07 167.003C1632.91 167.005 1634.74 167.175 1636.55 167.511C1638.05 167.77 1639.53 168.147 1640.97 168.639C1644.98 164.221 1649.88 160.694 1655.33 158.284C1660.79 155.874 1666.7 154.636 1672.66 154.648H1672.62ZM1691.81 162.361C1683.8 157.986 1674.53 156.477 1665.55 158.085C1656.57 159.693 1648.4 164.321 1642.41 171.203L1641.74 171.932L1640.84 171.6C1639.29 171.001 1637.68 170.557 1636.04 170.274C1632.04 169.546 1627.92 169.706 1623.98 170.744C1620.05 171.781 1616.39 173.671 1613.26 176.279C1610.14 178.887 1607.63 182.15 1605.9 185.837C1604.18 189.524 1603.28 193.545 1603.28 197.615C1603.29 199.097 1603.41 200.575 1603.66 202.036C1603.84 203.195 1604.1 204.34 1604.43 205.462H1734.84C1735.26 204.341 1735.6 203.188 1735.83 202.014C1736.14 200.56 1736.3 199.079 1736.3 197.593C1736.3 191.731 1733.97 186.109 1729.82 181.964C1725.68 177.819 1720.06 175.49 1714.2 175.49C1713.15 175.485 1712.1 175.559 1711.06 175.711C1710.02 175.862 1708.99 176.084 1707.99 176.375L1706.97 176.684L1706.39 175.778C1702.74 170.125 1697.74 165.475 1691.83 162.251L1691.81 162.361Z" fill="black"/>
<path d="M1769.41 295.625L1769.41 295.625C1783.11 295.618 1796.59 299.052 1808.62 305.61C1820.65 312.168 1830.84 321.641 1838.26 333.161L1838.66 333.789L1839.38 333.579C1847.74 331.127 1856.62 331.108 1864.99 333.524C1873.35 335.94 1880.86 340.69 1886.62 347.219C1892.39 353.748 1896.17 361.784 1897.53 370.387C1898.86 378.773 1897.82 387.359 1894.56 395.187H1631.95C1628.69 385.114 1628.29 374.331 1630.79 364.036C1633.35 353.509 1638.84 343.923 1646.63 336.389C1654.42 328.856 1664.18 323.684 1674.78 321.473C1685.39 319.262 1696.4 320.102 1706.55 323.897L1707.2 324.14L1707.66 323.618C1715.35 314.805 1724.84 307.745 1735.49 302.916C1746.14 298.087 1757.71 295.6 1769.41 295.625Z" fill="white" stroke="black" stroke-width="2"/>
<path fill-rule="evenodd" clip-rule="evenodd" d="M1124.58 650.236C1118.44 543.192 1054.05 589.365 1124.58 650.236Z" fill="#80854D"/>
<path fill-rule="evenodd" clip-rule="evenodd" d="M1134.13 737.653C1038.63 595.311 1028.04 754.605 1134.13 737.653Z" fill="#80854D"/>
<path d="M1140.89 739.487C1141.24 739.642 1141.5 739.928 1141.64 740.28C1141.77 740.632 1141.76 741.023 1141.6 741.366C1141.45 741.709 1141.16 741.976 1140.81 742.109C1140.46 742.241 1140.07 742.228 1139.72 742.073C1126.76 736.265 1114.31 729.374 1102.5 721.473C1089.41 712.608 1077.27 702.408 1066.28 691.038C1066.15 690.904 1066.05 690.747 1065.98 690.574C1065.91 690.401 1065.88 690.217 1065.88 690.031C1065.88 689.845 1065.92 689.662 1065.99 689.491C1066.07 689.321 1066.18 689.167 1066.31 689.038C1066.44 688.908 1066.6 688.807 1066.77 688.739C1066.95 688.67 1067.13 688.637 1067.32 688.64C1067.5 688.643 1067.69 688.683 1067.86 688.756C1068.03 688.83 1068.18 688.937 1068.31 689.071C1079.18 700.292 1091.18 710.358 1104.12 719.108C1115.78 726.93 1128.1 733.748 1140.92 739.487H1140.89Z" fill="black"/>
<path fill-rule="evenodd" clip-rule="evenodd" d="M1363.45 193.726C1280.45 208.38 1275.26 89.4889 1363.45 193.726Z" fill="#8C9152"/>
<path d="M1368.64 194.278C1368.82 194.339 1368.98 194.434 1369.12 194.557C1369.26 194.681 1369.37 194.831 1369.45 194.998C1369.53 195.165 1369.58 195.347 1369.59 195.532C1369.6 195.718 1369.58 195.904 1369.51 196.079C1369.45 196.255 1369.36 196.417 1369.24 196.556C1369.11 196.695 1368.96 196.808 1368.79 196.889C1368.63 196.97 1368.45 197.017 1368.26 197.028C1368.07 197.039 1367.89 197.013 1367.71 196.952C1357.79 193.577 1348.18 189.354 1338.98 184.332C1328.79 178.708 1319.21 172.041 1310.4 164.439C1310.11 164.196 1309.92 163.846 1309.89 163.467C1309.85 163.088 1309.97 162.71 1310.21 162.417C1310.46 162.124 1310.81 161.939 1311.19 161.904C1311.56 161.869 1311.94 161.986 1312.24 162.229C1320.93 169.748 1330.38 176.34 1340.44 181.9C1349.47 186.83 1358.91 190.985 1368.64 194.322V194.278Z" fill="black"/>
<path fill-rule="evenodd" clip-rule="evenodd" d="M1111.32 113.161C1058.52 53.4834 994.044 106.11 1111.32 113.161Z" fill="#80854D"/>
<path fill-rule="evenodd" clip-rule="evenodd" d="M923.537 410.31C837.933 438.182 805.751 368.204 923.537 410.31Z" fill="#8C9152"/>
<path fill-rule="evenodd" clip-rule="evenodd" d="M947.761 432.502C862.709 472.287 809.707 411.615 947.761 432.502Z" fill="#80854D"/>
<path fill-rule="evenodd" clip-rule="evenodd" d="M904.174 387.456C830.174 399.06 804.535 323.115 904.174 387.456Z" fill="#8C9152"/>
<path fill-rule="evenodd" clip-rule="evenodd" d="M894.14 373.576C867.97 257.603 825.4 333.106 894.14 373.576Z" fill="#80854D"/>
<path fill-rule="evenodd" clip-rule="evenodd" d="M898.428 379.742C934.168 275.97 860.721 318.098 898.428 379.742Z" fill="#8C9152"/>
<path fill-rule="evenodd" clip-rule="evenodd" d="M914.032 399.789C961.332 289.85 885.696 335.382 914.032 399.789Z" fill="#8C9152"/>
<path fill-rule="evenodd" clip-rule="evenodd" d="M933.925 420.61C981.821 294.89 900.085 356.269 933.925 420.61Z" fill="#8C9152"/>
<path fill-rule="evenodd" clip-rule="evenodd" d="M976.738 451.554C873.673 511.232 836.341 431.883 976.738 451.554Z" fill="#80854D"/>
<path fill-rule="evenodd" clip-rule="evenodd" d="M960.559 441.873C986.728 312.948 918.21 381.289 960.559 441.873Z" fill="#80854D"/>
<path fill-rule="evenodd" clip-rule="evenodd" d="M1021.38 468.574C907.401 542.971 851.746 466.363 1021.38 468.574Z" fill="#8C9152"/>
<path fill-rule="evenodd" clip-rule="evenodd" d="M994.022 459.821C994.42 314.561 929.814 405.183 994.022 459.821Z" fill="#8C9152"/>
<path d="M891.929 372.802C891.822 372.648 891.748 372.474 891.71 372.291C891.672 372.107 891.672 371.918 891.709 371.734C891.746 371.55 891.82 371.376 891.926 371.222C892.032 371.067 892.169 370.936 892.327 370.835C892.481 370.73 892.653 370.657 892.836 370.619C893.018 370.582 893.206 370.58 893.388 370.615C893.571 370.65 893.745 370.72 893.9 370.823C894.056 370.925 894.19 371.057 894.294 371.211C914.186 400.718 936.952 424.545 962.813 441.608C987.488 458.087 1015.85 468.209 1045.39 471.071C1045.58 471.073 1045.78 471.116 1045.96 471.197C1046.13 471.278 1046.29 471.394 1046.42 471.54C1046.55 471.685 1046.65 471.856 1046.71 472.042C1046.78 472.228 1046.8 472.424 1046.78 472.619C1046.76 472.813 1046.7 473.002 1046.61 473.173C1046.51 473.344 1046.38 473.493 1046.23 473.612C1046.07 473.73 1045.89 473.815 1045.7 473.861C1045.51 473.907 1045.32 473.913 1045.12 473.878C1015.08 471.011 986.225 460.736 961.133 443.973C935.029 426.711 911.821 402.619 891.929 372.802Z" fill="black"/>
<path fill-rule="evenodd" clip-rule="evenodd" d="M1847.43 366.503C1912.9 348.71 1872.23 259.724 1847.43 366.503Z" fill="#8C9152"/>
<path d="M1845.66 370.636C1845.53 370.769 1845.38 370.876 1845.21 370.95C1845.04 371.024 1844.86 371.063 1844.67 371.066C1844.48 371.07 1844.3 371.036 1844.13 370.968C1843.95 370.9 1843.8 370.798 1843.66 370.669C1843.53 370.54 1843.42 370.385 1843.35 370.215C1843.28 370.045 1843.24 369.861 1843.23 369.675C1843.23 369.49 1843.26 369.305 1843.33 369.132C1843.4 368.96 1843.5 368.802 1843.63 368.668C1849.56 362.593 1854.96 356.027 1859.79 349.041C1865.14 341.261 1869.67 332.942 1873.29 324.22C1873.47 323.914 1873.75 323.683 1874.08 323.57C1874.41 323.457 1874.77 323.469 1875.1 323.605C1875.42 323.741 1875.68 323.992 1875.84 324.309C1875.99 324.625 1876.02 324.987 1875.92 325.325C1872.23 334.213 1867.64 342.701 1862.22 350.655C1857.29 357.733 1851.79 364.387 1845.75 370.547L1845.66 370.636Z" fill="black"/>
<path fill-rule="evenodd" clip-rule="evenodd" d="M1704.43 448.261C1804.64 371.012 1795.51 448.394 1704.43 448.261Z" fill="#8C9152"/>
<path fill-rule="evenodd" clip-rule="evenodd" d="M1689.66 477.37C1816 414.223 1783.93 489.173 1689.66 477.37Z" fill="#80854D"/>
<path fill-rule="evenodd" clip-rule="evenodd" d="M1715.96 420.323C1791.8 327.337 1790.8 408.41 1715.96 420.323Z" fill="#80854D"/>
<path fill-rule="evenodd" clip-rule="evenodd" d="M1721.27 403.746C1774.78 343.361 1710.22 283.971 1721.27 403.746Z" fill="#80854D"/>
<path fill-rule="evenodd" clip-rule="evenodd" d="M1719.06 410.996C1736.14 339.935 1652.31 322.297 1719.06 410.996Z" fill="#8C9152"/>
<path fill-rule="evenodd" clip-rule="evenodd" d="M1710.26 435.176C1717.47 364.447 1630.47 344.113 1710.26 435.176Z" fill="#8C9152"/>
<path fill-rule="evenodd" clip-rule="evenodd" d="M1697.6 461.5C1710.11 389.025 1612.32 355.407 1697.6 461.5Z" fill="#8C9152"/>
<path fill-rule="evenodd" clip-rule="evenodd" d="M1664.04 514.812C1784.09 504.335 1768.79 416.875 1664.04 514.812Z" fill="#80854D"/>
<path fill-rule="evenodd" clip-rule="evenodd" d="M1679.63 493.417C1701.51 421.914 1614.27 377.532 1679.63 493.417Z" fill="#80854D"/>
<path d="M1720.45 401.513C1720.5 401.333 1720.58 401.164 1720.7 401.016C1720.81 400.868 1720.95 400.745 1721.12 400.652C1721.28 400.56 1721.46 400.5 1721.64 400.477C1721.83 400.455 1722.02 400.469 1722.2 400.519C1722.56 400.627 1722.86 400.873 1723.05 401.203C1723.23 401.534 1723.27 401.924 1723.17 402.287C1715.87 427.919 1705.48 452.568 1692.23 475.69C1679.1 498.621 1663.18 519.839 1644.84 538.86C1644.71 538.992 1644.55 539.098 1644.38 539.169C1644.21 539.241 1644.03 539.278 1643.84 539.278C1643.66 539.278 1643.47 539.241 1643.3 539.169C1643.13 539.098 1642.98 538.992 1642.85 538.86C1642.72 538.73 1642.61 538.576 1642.54 538.405C1642.47 538.234 1642.43 538.051 1642.43 537.865C1642.43 537.68 1642.47 537.497 1642.54 537.326C1642.61 537.155 1642.72 537 1642.85 536.871C1661.03 518.022 1676.81 496.997 1689.84 474.276C1702.94 451.344 1713.23 426.913 1720.47 401.513H1720.45Z" fill="black"/>
<path fill-rule="evenodd" clip-rule="evenodd" d="M971.345 165.92C979.788 163.179 984.098 158.56 988.187 145.011C991.768 155.885 997.316 162.693 1005.12 165.235C995.636 168.13 991.016 177.303 987.436 186.188C986.021 177.745 981.424 168.373 971.433 165.92H971.345Z" fill="white"/>
<path d="M843.635 537.888C842.739 536.801 841.542 536.003 840.195 535.594C838.847 535.184 837.409 535.181 836.06 535.584C834.71 535.987 833.51 536.779 832.609 537.862C831.707 538.944 831.145 540.267 830.992 541.667C830.885 542.588 830.961 543.52 831.215 544.412C831.469 545.303 831.897 546.135 832.473 546.861L832.583 547.016C833.772 548.459 835.478 549.38 837.336 549.583C839.195 549.785 841.058 549.253 842.53 548.099L842.662 547.966C844.105 546.778 845.026 545.072 845.229 543.214C845.431 541.355 844.899 539.491 843.745 538.02V537.888H843.635ZM839.214 532.495C841.822 532.809 844.203 534.135 845.845 536.186C847.503 538.254 848.274 540.894 847.988 543.53C847.702 546.165 846.383 548.579 844.32 550.243C842.249 551.903 839.604 552.674 836.965 552.388C834.327 552.102 831.909 550.782 830.24 548.718C829.005 547.177 828.253 545.306 828.078 543.339C827.904 541.372 828.315 539.397 829.26 537.663C830.205 535.929 831.641 534.513 833.389 533.593C835.137 532.674 837.117 532.291 839.082 532.495H839.214Z" fill="#8C9152"/>
<path fill-rule="evenodd" clip-rule="evenodd" d="M1865 591.774C1864.07 590.619 1862.82 589.766 1861.4 589.323C1859.98 588.88 1858.46 588.866 1857.04 589.285C1855.61 589.703 1854.35 590.534 1853.39 591.673C1852.44 592.812 1851.85 594.208 1851.69 595.684C1851.53 597.161 1851.81 598.651 1852.49 599.968C1853.18 601.285 1854.24 602.369 1855.54 603.084C1856.84 603.798 1858.33 604.111 1859.81 603.982C1861.29 603.854 1862.69 603.29 1863.85 602.361C1865.41 601.109 1866.4 599.29 1866.62 597.305C1866.83 595.321 1866.25 593.331 1865 591.774Z" fill="#8C9152"/>
<path fill-rule="evenodd" clip-rule="evenodd" d="M1097.49 801.441C1088.78 764.794 1133.91 755.953 1177.41 785.306C1167.22 724.59 1255.94 755.777 1282.44 788.621C1294.02 723.926 1401.97 829.379 1385.68 872.501H1059.73C979.346 843.768 1037.06 761.103 1097.57 801.441H1097.49Z" fill="#A7A17F"/>
<path d="M1539.3 356.512C1571.26 207.717 1211.89 316.727 1144.76 461.921C1153.27 528.582 1219.91 511.121 1237.15 571.882C1245.99 611.512 1325.45 643.782 1375.47 640.003C1505.88 620.309 1614.31 421.34 1539.3 356.512Z" fill="black"/>
<path d="M1148.32 458.826C1148.23 458.99 1148.11 459.135 1147.97 459.253C1147.82 459.37 1147.66 459.458 1147.48 459.512C1147.3 459.565 1147.11 459.583 1146.93 459.564C1146.74 459.545 1146.56 459.489 1146.4 459.401C1146.23 459.312 1146.09 459.192 1145.97 459.048C1145.85 458.903 1145.77 458.737 1145.71 458.558C1145.66 458.38 1145.64 458.192 1145.66 458.007C1145.68 457.822 1145.74 457.642 1145.82 457.478C1201.94 353.263 1334.96 291.707 1432.7 279.926C1458.03 276.876 1481.01 277.141 1499.71 280.855C1518.41 284.568 1533.17 291.906 1541.44 302.957C1551.67 316.529 1552.21 335.581 1539.23 360.27C1539.15 360.44 1539.03 360.591 1538.89 360.715C1538.74 360.839 1538.58 360.933 1538.4 360.991C1538.22 361.049 1538.03 361.07 1537.84 361.054C1537.65 361.037 1537.47 360.983 1537.3 360.894C1537.13 360.805 1536.98 360.684 1536.86 360.537C1536.74 360.39 1536.66 360.22 1536.6 360.038C1536.55 359.857 1536.53 359.666 1536.56 359.478C1536.58 359.29 1536.64 359.108 1536.73 358.944C1549.02 335.36 1548.65 317.346 1539.08 304.659C1531.27 294.271 1517.3 287.331 1499.09 283.706C1480.88 280.081 1457.98 279.794 1432.94 282.822C1336.06 294.625 1204.02 355.496 1148.32 458.826Z" fill="black"/>
<path fill-rule="evenodd" clip-rule="evenodd" d="M1406.31 698.354C1410.04 702.222 1432.59 714.4 1450.31 717.539C1495.6 725.54 1561.97 722.844 1562.81 698.531L1566.64 588.216L1615.62 573.959C1586.88 452.991 1379.6 456.815 1351.49 568.124L1400.47 582.381L1406.31 698.354Z" fill="#FFFAFF"/>
<path fill-rule="evenodd" clip-rule="evenodd" d="M1511.73 802.369L1501.28 800.513L1491.02 871.949C1525.28 871.949 1613.61 878.58 1628.7 859.019C1633.96 852.189 1611.18 847.127 1572.56 827.898C1547.39 815.366 1549.88 782.83 1511.73 802.369Z" fill="black"/>
<path fill-rule="evenodd" clip-rule="evenodd" d="M1518.5 872.501C1498.61 872.855 1495.38 870.048 1478.58 872.501C1124.01 853.825 1169.96 639.715 1401.33 713.826C1402.31 708.473 1403.98 703.271 1406.31 698.354C1447.62 709.405 1508.97 708.698 1562.81 698.53C1565.33 705.055 1567.19 711.816 1568.36 718.71C1834.86 618.828 1867.13 842.375 1518.5 872.501Z" fill="#EBA1B2"/>
<path d="M1488.95 802.723C1488.6 802.863 1488.21 802.86 1487.86 802.712C1487.52 802.565 1487.24 802.287 1487.1 801.938C1486.96 801.589 1486.96 801.199 1487.11 800.853C1487.26 800.506 1487.54 800.233 1487.89 800.092L1684.6 721.76C1684.95 721.635 1685.33 721.65 1685.66 721.801C1686 721.952 1686.26 722.228 1686.4 722.571C1686.53 722.913 1686.53 723.295 1686.39 723.634C1686.25 723.974 1685.98 724.245 1685.64 724.39L1488.92 802.723H1488.95Z" fill="black"/>
<path d="M1311.59 726.711C1311.24 726.579 1310.96 726.313 1310.8 725.971C1310.65 725.629 1310.63 725.24 1310.77 724.888C1310.9 724.536 1311.16 724.251 1311.51 724.096C1311.85 723.94 1312.24 723.927 1312.59 724.059L1500.11 795.628C1500.28 795.694 1500.44 795.794 1500.58 795.922C1500.72 796.05 1500.82 796.204 1500.9 796.375C1500.98 796.545 1501.02 796.729 1501.02 796.916C1501.03 797.102 1500.99 797.288 1500.93 797.462C1500.86 797.636 1500.77 797.795 1500.64 797.931C1500.51 798.066 1500.36 798.176 1500.19 798.252C1500.02 798.328 1499.84 798.37 1499.66 798.374C1499.47 798.379 1499.29 798.347 1499.11 798.28L1311.59 726.711Z" fill="black"/>
<path d="M1518.39 873.916C1510.23 874.048 1504.91 873.673 1500.26 873.341C1493.11 872.602 1485.89 872.795 1478.78 873.916H1478.43C1344.84 866.887 1267.83 832.075 1236.05 795.318C1222.79 780.001 1217.35 764.374 1218.87 750.008C1220.4 735.641 1228.91 722.865 1243.63 713.405C1273.05 694.485 1327.51 689.092 1400.25 711.991C1400.75 709.654 1401.37 707.345 1402.11 705.073C1402.88 702.534 1403.86 700.065 1405.04 697.69C1405.2 697.406 1405.44 697.181 1405.74 697.052C1406.04 696.924 1406.37 696.9 1406.68 696.983C1426.88 702.354 1451.9 704.918 1478.49 704.962C1506.67 704.931 1534.78 702.311 1562.48 697.138C1562.8 697.075 1563.13 697.122 1563.41 697.271C1563.7 697.42 1563.92 697.661 1564.05 697.956C1565.38 701.132 1566.47 704.405 1567.3 707.747C1568.07 710.753 1568.74 713.803 1569.36 716.787C1653.46 685.578 1714.28 686.573 1747.11 703.525C1763.46 711.969 1772.97 724.346 1775.07 738.735C1777.17 753.124 1771.86 769.215 1758.65 785.35C1727.02 823.986 1649.52 862.71 1518.54 873.938L1518.39 873.916ZM1500.46 870.512C1505.08 870.843 1510.39 871.219 1518.34 871.087C1648.46 859.836 1725.27 821.665 1756.48 783.538C1769.17 768.066 1774.16 752.594 1772.28 739.111C1770.4 725.628 1761.34 714.024 1745.76 705.957C1713.36 689.247 1652.93 688.451 1568.94 719.926L1568.61 720.036C1568.42 720.071 1568.23 720.07 1568.05 720.033C1567.87 719.995 1567.7 719.922 1567.54 719.817C1567.39 719.712 1567.26 719.578 1567.15 719.422C1567.05 719.266 1566.98 719.092 1566.95 718.909C1566.24 715.395 1565.47 711.77 1564.6 708.388C1563.89 705.563 1563 702.788 1561.93 700.077C1534.4 705.14 1506.46 707.7 1478.47 707.725C1452.12 707.725 1427.26 705.183 1407.03 699.945C1406.18 701.872 1405.44 703.85 1404.82 705.868C1403.96 708.533 1403.27 711.249 1402.75 714.002C1402.75 714.061 1402.75 714.12 1402.75 714.179C1402.69 714.358 1402.6 714.525 1402.48 714.669C1402.36 714.813 1402.21 714.932 1402.05 715.018C1401.88 715.105 1401.7 715.157 1401.51 715.172C1401.32 715.188 1401.13 715.165 1400.96 715.107C1328.37 691.855 1274.24 697.094 1245.22 715.726C1231.25 724.7 1223.12 736.768 1221.75 750.229C1220.38 763.689 1225.57 778.697 1238.26 793.395C1269.6 829.666 1345.9 864.014 1478.56 871.02C1485.83 869.888 1493.21 869.695 1500.53 870.446L1500.46 870.512Z" fill="black"/>
<path d="M1400.87 715.152C1400.51 715.029 1400.22 714.77 1400.06 714.432C1399.89 714.094 1399.87 713.705 1399.99 713.35C1400.12 712.996 1400.38 712.704 1400.71 712.541C1401.05 712.377 1401.44 712.354 1401.8 712.477C1405.1 713.641 1408.33 714.857 1411.5 716.124C1414.75 717.428 1417.82 718.71 1420.72 719.992C1421.06 720.145 1421.33 720.427 1421.46 720.777C1421.6 721.127 1421.59 721.517 1421.43 721.86C1421.28 722.203 1421 722.471 1420.65 722.606C1420.3 722.741 1419.91 722.731 1419.57 722.578C1416.58 721.274 1413.55 719.992 1410.44 718.754C1407.32 717.517 1404.23 716.367 1400.87 715.152Z" fill="black"/>
<path d="M1567.88 717.362C1568.23 717.236 1568.62 717.256 1568.96 717.418C1569.3 717.58 1569.56 717.87 1569.69 718.224C1569.81 718.579 1569.79 718.969 1569.63 719.309C1569.47 719.649 1569.18 719.911 1568.83 720.037C1564.13 721.716 1559.66 723.433 1555.43 725.187C1551.01 727.021 1546.86 728.9 1542.94 730.779C1542.78 730.868 1542.59 730.923 1542.4 730.94C1542.21 730.957 1542.02 730.935 1541.84 730.876C1541.66 730.818 1541.49 730.723 1541.35 730.598C1541.21 730.474 1541.09 730.321 1541.01 730.15C1540.92 729.979 1540.87 729.793 1540.87 729.603C1540.86 729.413 1540.88 729.223 1540.95 729.044C1541.01 728.866 1541.12 728.702 1541.25 728.563C1541.38 728.425 1541.53 728.314 1541.71 728.237C1545.69 726.314 1549.88 724.413 1554.33 722.578C1558.77 720.744 1563.17 719.064 1567.88 717.362Z" fill="black"/>
<path fill-rule="evenodd" clip-rule="evenodd" d="M1477.98 803.253L1488.42 801.419L1498.69 872.855C1464.43 872.855 1376.11 879.486 1360.99 859.903C1355.73 853.095 1378.54 848.011 1417.13 828.804C1442.31 816.25 1439.81 783.736 1477.98 803.253Z" fill="black"/>
<path fill-rule="evenodd" clip-rule="evenodd" d="M1402.26 617.944L1400.47 582.38L1351.49 568.124L1328.44 648.114L1234.19 683.633C1227.56 676.472 1217.17 669.266 1206.96 661.818C1196.97 674.836 1225.22 687.236 1212.93 692.762C1199.89 688.142 1210.72 661.155 1197.72 659.607C1198.47 652.689 1194.98 649.44 1188.42 649.064L1187.27 656.646C1187.4 656.861 1187.45 657.116 1187.41 657.367C1187.38 657.617 1187.26 657.847 1187.07 658.016L1187.27 656.646C1186.54 655.452 1183.27 654.833 1179.75 655.275C1177.01 663.851 1172.72 691.435 1180.19 709.515C1183.49 717.428 1211.98 725.319 1223.49 725.518C1267.08 727.242 1319.57 721.451 1356.42 707.703C1387.36 696.143 1397.75 658.856 1400.62 624.552C1401.13 622.431 1401.71 620.198 1402.26 617.944Z" fill="#F26E3F"/>
<path d="M1188.61 705.736C1188.75 706.088 1188.74 706.48 1188.59 706.826C1188.44 707.172 1188.16 707.444 1187.81 707.582C1187.46 707.72 1187.06 707.712 1186.72 707.561C1186.37 707.409 1186.1 707.127 1185.96 706.775C1179.33 689.734 1183.75 666.239 1186.09 654.038C1186.47 651.982 1186.8 650.258 1187.02 648.888C1187.08 648.516 1187.28 648.181 1187.58 647.957C1187.88 647.733 1188.26 647.639 1188.64 647.694C1189.01 647.75 1189.34 647.951 1189.57 648.254C1189.79 648.557 1189.89 648.936 1189.83 649.308C1189.63 650.59 1189.28 652.402 1188.88 654.568C1186.67 666.482 1182.25 689.469 1188.61 705.736Z" fill="black"/>
<path d="M1200.06 704.741C1200.16 704.919 1200.22 705.116 1200.23 705.317C1200.24 705.518 1200.21 705.72 1200.14 705.909C1200.08 706.099 1199.97 706.271 1199.83 706.416C1199.69 706.561 1199.52 706.674 1199.33 706.749C1199.14 706.824 1198.94 706.859 1198.74 706.851C1198.54 706.843 1198.34 706.793 1198.16 706.704C1197.98 706.614 1197.82 706.488 1197.69 706.332C1197.56 706.177 1197.47 705.997 1197.41 705.802C1195.03 698.945 1193.82 691.733 1193.85 684.473C1193.62 676.017 1194.46 667.566 1196.35 659.32C1196.48 658.994 1196.72 658.725 1197.03 658.565C1197.35 658.405 1197.71 658.365 1198.05 658.452C1198.39 658.539 1198.68 658.747 1198.88 659.037C1199.08 659.327 1199.16 659.68 1199.11 660.027C1197.28 667.996 1196.46 676.166 1196.68 684.34C1196.65 691.254 1197.79 698.124 1200.06 704.653V704.741Z" fill="black"/>
<path d="M1216.84 692.165C1217.02 692.189 1217.2 692.25 1217.36 692.344C1217.52 692.437 1217.66 692.561 1217.78 692.709C1217.89 692.856 1217.97 693.025 1218.02 693.205C1218.07 693.385 1218.08 693.572 1218.06 693.756C1218.03 693.941 1217.97 694.118 1217.88 694.279C1217.78 694.44 1217.66 694.581 1217.51 694.694C1217.36 694.807 1217.2 694.889 1217.02 694.937C1216.84 694.985 1216.65 694.997 1216.46 694.972C1213.45 694.703 1210.63 693.325 1208.57 691.104C1206.91 689.066 1205.65 686.724 1204.88 684.208C1204.82 684.032 1204.79 683.846 1204.8 683.66C1204.81 683.474 1204.86 683.291 1204.94 683.123C1205.02 682.955 1205.13 682.804 1205.27 682.679C1205.41 682.554 1205.57 682.458 1205.74 682.395C1205.92 682.333 1206.11 682.306 1206.29 682.315C1206.48 682.325 1206.66 682.371 1206.83 682.451C1207 682.531 1207.15 682.643 1207.27 682.782C1207.4 682.92 1207.49 683.082 1207.56 683.257C1208.21 685.424 1209.27 687.443 1210.7 689.203C1212.31 690.915 1214.5 691.97 1216.84 692.165Z" fill="black"/>
<path fill-rule="evenodd" clip-rule="evenodd" d="M1787.38 661.221C1783.84 660.779 1780.57 661.42 1779.84 662.591L1780.06 663.962C1779.88 663.791 1779.76 663.563 1779.72 663.314C1779.68 663.066 1779.72 662.812 1779.84 662.591L1778.69 655.01C1772.06 655.386 1768.66 658.635 1769.39 665.553C1756.48 667.034 1767.18 694.021 1754.2 698.707C1741.89 693.093 1770.14 680.693 1760.17 667.763C1749.96 675.212 1739.5 682.44 1732.94 689.579L1638.67 654.082L1615.62 574.092L1566.64 588.348L1564.85 623.911C1565.4 626.122 1566 628.332 1566.62 630.542C1569.36 664.846 1579.72 702.133 1610.69 713.693C1647.56 727.441 1700.05 733.232 1743.61 731.508C1755.15 731.309 1783.64 723.418 1786.91 715.505C1794.41 697.381 1790.1 669.797 1787.38 661.221Z" fill="#F26E3F"/>
<path d="M1781.15 712.676C1781.01 713.025 1780.74 713.305 1780.39 713.454C1780.05 713.603 1779.66 713.61 1779.31 713.472C1779.14 713.406 1778.98 713.306 1778.84 713.177C1778.71 713.049 1778.6 712.894 1778.53 712.723C1778.45 712.552 1778.41 712.368 1778.41 712.181C1778.41 711.995 1778.44 711.81 1778.52 711.638C1784.86 695.37 1780.5 672.383 1778.25 660.47C1777.83 658.259 1777.5 656.491 1777.3 655.209C1777.24 654.837 1777.34 654.458 1777.56 654.155C1777.79 653.853 1778.12 653.651 1778.49 653.596C1778.87 653.54 1779.24 653.634 1779.55 653.858C1779.85 654.082 1780.05 654.417 1780.11 654.789C1780.31 656.16 1780.64 657.884 1781.04 659.939C1783.25 672.14 1787.8 695.635 1781.04 712.676H1781.15Z" fill="black"/>
<path d="M1769.7 711.637C1769.56 711.986 1769.29 712.266 1768.94 712.415C1768.6 712.564 1768.21 712.57 1767.86 712.433C1767.51 712.29 1767.23 712.016 1767.08 711.668C1766.93 711.32 1766.93 710.928 1767.07 710.576C1769.34 704.048 1770.48 697.177 1770.43 690.264C1770.65 682.09 1769.84 673.921 1768.02 665.951C1767.97 665.603 1768.06 665.251 1768.25 664.96C1768.45 664.67 1768.75 664.462 1769.09 664.375C1769.43 664.288 1769.79 664.328 1770.1 664.488C1770.41 664.648 1770.65 664.917 1770.78 665.243C1772.66 673.445 1773.49 681.853 1773.26 690.264C1773.31 697.526 1772.1 704.742 1769.7 711.593V711.637Z" fill="black"/>
<path d="M1750.58 700.807C1750.39 700.832 1750.21 700.82 1750.03 700.772C1749.85 700.724 1749.68 700.641 1749.54 700.528C1749.39 700.415 1749.27 700.274 1749.18 700.113C1749.09 699.952 1749.03 699.775 1749.01 699.591C1748.98 699.407 1749 699.22 1749.04 699.04C1749.09 698.86 1749.17 698.691 1749.29 698.543C1749.4 698.396 1749.54 698.272 1749.7 698.178C1749.86 698.085 1750.04 698.024 1750.22 698C1752.57 697.805 1754.76 696.75 1756.37 695.038C1757.78 693.277 1758.84 691.257 1759.49 689.093C1759.62 688.741 1759.88 688.454 1760.22 688.293C1760.55 688.132 1760.94 688.109 1761.3 688.231C1761.48 688.29 1761.64 688.384 1761.78 688.509C1761.92 688.633 1762.03 688.784 1762.11 688.953C1762.19 689.123 1762.24 689.306 1762.25 689.494C1762.26 689.681 1762.23 689.868 1762.16 690.043C1761.41 692.567 1760.15 694.912 1758.47 696.939C1756.41 699.164 1753.6 700.543 1750.58 700.807Z" fill="black"/>
<path d="M1404.29 630.189C1404.3 630.375 1404.27 630.56 1404.21 630.735C1404.15 630.91 1404.05 631.071 1403.93 631.209C1403.8 631.346 1403.65 631.458 1403.48 631.537C1403.31 631.616 1403.13 631.661 1402.95 631.67C1402.76 631.679 1402.57 631.651 1402.4 631.588C1402.22 631.525 1402.06 631.428 1401.93 631.303C1401.79 631.177 1401.68 631.026 1401.6 630.858C1401.52 630.69 1401.47 630.507 1401.46 630.321L1397.66 554.421C1397.65 554.234 1397.68 554.047 1397.74 553.871C1397.8 553.694 1397.9 553.532 1398.02 553.394C1398.15 553.256 1398.3 553.144 1398.47 553.066C1398.64 552.988 1398.82 552.945 1399.01 552.94C1399.2 552.931 1399.38 552.959 1399.56 553.022C1399.73 553.084 1399.89 553.181 1400.03 553.307C1400.17 553.432 1400.28 553.583 1400.36 553.751C1400.44 553.92 1400.48 554.102 1400.49 554.288L1404.29 630.189Z" fill="black"/>
<path d="M1566.06 643.406C1566.06 643.592 1566.02 643.775 1565.95 643.946C1565.87 644.116 1565.77 644.27 1565.63 644.4C1565.5 644.529 1565.34 644.631 1565.17 644.699C1565 644.768 1564.81 644.801 1564.63 644.798C1564.25 644.787 1563.89 644.627 1563.63 644.354C1563.37 644.082 1563.23 643.717 1563.23 643.34L1565.44 551.901C1565.44 551.714 1565.48 551.529 1565.55 551.357C1565.63 551.185 1565.73 551.03 1565.87 550.9C1566 550.77 1566.16 550.668 1566.34 550.601C1566.51 550.534 1566.69 550.502 1566.88 550.508C1567.25 550.52 1567.61 550.676 1567.87 550.944C1568.13 551.212 1568.27 551.571 1568.27 551.945L1566.06 643.406Z" fill="black"/>
<path d="M1340.61 641.969C1340.96 641.886 1341.32 641.932 1341.63 642.097C1341.94 642.262 1342.18 642.535 1342.3 642.865C1342.42 643.194 1342.42 643.558 1342.29 643.885C1342.17 644.213 1341.92 644.483 1341.61 644.644L1285.36 665.951C1285.18 666.018 1285 666.051 1284.81 666.046C1284.62 666.041 1284.44 666 1284.27 665.924C1284.1 665.848 1283.95 665.739 1283.82 665.603C1283.69 665.467 1283.59 665.308 1283.52 665.133C1283.46 664.959 1283.42 664.773 1283.43 664.586C1283.43 664.4 1283.47 664.216 1283.55 664.045C1283.63 663.875 1283.74 663.721 1283.87 663.593C1284.01 663.465 1284.17 663.365 1284.34 663.298L1340.61 641.969Z" fill="black"/>
<path d="M1625.43 650.479C1625.08 650.345 1624.79 650.077 1624.64 649.734C1624.48 649.39 1624.46 648.999 1624.59 648.644C1624.73 648.295 1625 648.012 1625.34 647.856C1625.68 647.7 1626.07 647.681 1626.43 647.804L1682.85 669.067C1683.2 669.206 1683.49 669.474 1683.64 669.816C1683.8 670.158 1683.82 670.547 1683.69 670.902C1683.63 671.076 1683.53 671.236 1683.4 671.372C1683.27 671.508 1683.12 671.617 1682.95 671.693C1682.78 671.769 1682.59 671.81 1682.41 671.815C1682.22 671.82 1682.03 671.787 1681.86 671.72L1625.43 650.479Z" fill="black"/>
<path fill-rule="evenodd" clip-rule="evenodd" d="M1465.45 423.064C1470.82 415.682 1495.05 407.592 1499.03 411.195C1498.92 436.591 1507.25 473.326 1511.34 486.344C1495.87 495.627 1464.28 493.748 1450.84 487.604C1457.32 475.293 1466.14 432.502 1465.45 423.064Z" fill="#F26E3F"/>
<path d="M1513.15 483.139C1513.28 483.007 1513.43 482.902 1513.6 482.83C1513.78 482.758 1513.96 482.721 1514.14 482.721C1514.33 482.721 1514.51 482.758 1514.68 482.83C1514.85 482.902 1515.01 483.007 1515.14 483.139C1515.4 483.408 1515.55 483.769 1515.55 484.145C1515.55 484.521 1515.4 484.882 1515.14 485.15C1509.26 490.853 1497.46 493.395 1485.1 493.793C1470.12 494.257 1454.16 491.582 1447.35 487.427C1447.19 487.334 1447.05 487.209 1446.93 487.059C1446.82 486.91 1446.74 486.739 1446.69 486.558C1446.65 486.376 1446.64 486.187 1446.67 486.003C1446.7 485.818 1446.76 485.641 1446.86 485.482C1446.95 485.321 1447.08 485.179 1447.22 485.067C1447.37 484.954 1447.54 484.873 1447.72 484.827C1447.9 484.782 1448.09 484.773 1448.27 484.802C1448.45 484.831 1448.63 484.897 1448.79 484.996C1455.26 488.864 1470.51 491.406 1485.01 490.941C1496.73 490.588 1507.84 488.267 1513.17 483.117L1513.15 483.139Z" fill="black"/>
<path fill-rule="evenodd" clip-rule="evenodd" d="M1445.8 384.119C1439.7 381.024 1434.51 383.632 1434.18 389.932C1434.26 393.43 1435.27 396.844 1437.1 399.828C1438.93 402.812 1441.51 405.262 1444.59 406.929C1450.69 410.023 1455.9 407.437 1456.24 401.138C1456.15 397.633 1455.14 394.214 1453.31 391.225C1451.48 388.236 1448.89 385.785 1445.8 384.119Z" fill="#F26E3F"/>
<path d="M1439.44 390.816C1439.25 390.779 1439.07 390.705 1438.91 390.597C1438.75 390.489 1438.62 390.349 1438.51 390.187C1438.41 390.025 1438.34 389.844 1438.31 389.654C1438.28 389.465 1438.29 389.271 1438.33 389.084C1438.38 388.898 1438.46 388.723 1438.58 388.57C1438.7 388.417 1438.84 388.29 1439.01 388.195C1439.18 388.101 1439.36 388.041 1439.55 388.021C1439.74 388 1439.94 388.019 1440.12 388.075C1442.16 388.561 1443.95 389.79 1445.14 391.523C1446.34 393.418 1446.95 395.624 1446.91 397.867C1446.91 398.053 1446.88 398.239 1446.81 398.413C1446.75 398.587 1446.65 398.746 1446.52 398.88C1446.39 399.014 1446.23 399.121 1446.06 399.193C1445.89 399.266 1445.7 399.304 1445.51 399.303C1445.27 399.311 1445.03 399.253 1444.82 399.137C1444.6 399.02 1444.42 398.849 1444.3 398.64C1443.75 397.855 1443.09 397.149 1442.35 396.541C1441.74 396.031 1441.03 395.634 1440.28 395.369C1439.92 395.249 1439.62 394.992 1439.46 394.654C1439.29 394.316 1439.26 393.925 1439.38 393.568C1439.5 393.21 1439.76 392.915 1440.1 392.747C1440.43 392.579 1440.83 392.552 1441.18 392.673C1441.84 392.898 1442.47 393.202 1443.06 393.579L1442.8 393.115C1441.98 391.997 1440.79 391.213 1439.44 390.904V390.816Z" fill="black"/>
<path fill-rule="evenodd" clip-rule="evenodd" d="M1516.69 383.986C1504.57 383.566 1506.21 367.365 1497.32 361.883C1487.89 376.162 1461.19 384.826 1444.28 383.478C1442.88 414.422 1454.25 437.607 1478.8 437.431C1498.56 437.254 1508.93 424.987 1513.11 407.901C1527.05 412.322 1539.25 374.747 1516.77 384.03L1516.69 383.986Z" fill="#ED7C53"/>
<path fill-rule="evenodd" clip-rule="evenodd" d="M1502.21 367.254C1501.06 365.069 1499.38 363.207 1497.32 361.839C1487.89 376.117 1461.19 384.782 1444.28 383.433C1469.14 390.351 1496.51 375.896 1502.3 367.254H1502.21Z" fill="#F26E3F"/>
<path fill-rule="evenodd" clip-rule="evenodd" d="M1458.75 402.088C1458.12 401.942 1457.46 401.927 1456.82 402.044C1456.18 402.161 1455.57 402.408 1455.03 402.769C1454.48 403.129 1454.02 403.597 1453.66 404.143C1453.31 404.689 1453.07 405.301 1452.96 405.944C1452.84 406.586 1452.86 407.244 1453.02 407.878C1453.17 408.512 1453.45 409.108 1453.84 409.63C1454.23 410.153 1454.72 410.59 1455.28 410.916C1455.85 411.242 1456.47 411.449 1457.12 411.526C1458.34 411.67 1459.56 411.341 1460.55 410.607C1461.53 409.874 1462.2 408.791 1462.41 407.582C1462.62 406.372 1462.35 405.129 1461.68 404.107C1461 403.085 1459.95 402.363 1458.75 402.088Z" fill="#DE5138"/>
<path fill-rule="evenodd" clip-rule="evenodd" d="M1500.55 401.734C1499.62 401.569 1498.65 401.685 1497.79 402.067C1496.92 402.449 1496.18 403.08 1495.67 403.881C1495.16 404.681 1494.9 405.615 1494.92 406.564C1494.94 407.513 1495.24 408.434 1495.79 409.211C1496.33 409.988 1497.1 410.586 1497.98 410.929C1498.87 411.272 1499.83 411.345 1500.76 411.139C1501.69 410.932 1502.53 410.456 1503.19 409.769C1503.84 409.083 1504.28 408.217 1504.44 407.282C1504.55 406.662 1504.54 406.026 1504.4 405.411C1504.27 404.796 1504.01 404.214 1503.65 403.698C1503.29 403.183 1502.83 402.744 1502.3 402.407C1501.77 402.07 1501.17 401.841 1500.55 401.734Z" fill="#DE5138"/>
<path d="M1477.19 404.21C1477.56 404.21 1477.92 404.359 1478.19 404.624C1478.45 404.89 1478.6 405.249 1478.6 405.624C1478.6 406 1478.45 406.359 1478.19 406.625C1477.92 406.89 1477.56 407.039 1477.19 407.039C1476.97 407.008 1476.75 407.046 1476.55 407.15C1476.36 407.253 1476.2 407.415 1476.11 407.614C1476.03 407.911 1476.03 408.223 1476.11 408.52C1476.16 408.873 1476.31 409.207 1476.53 409.492C1476.65 409.697 1476.84 409.855 1477.06 409.943C1477.29 410.03 1477.53 410.043 1477.76 409.979C1478.12 409.87 1478.51 409.91 1478.84 410.088C1479.18 410.266 1479.42 410.569 1479.53 410.929C1479.64 411.29 1479.6 411.678 1479.42 412.01C1479.24 412.342 1478.94 412.589 1478.58 412.697C1477.78 412.972 1476.91 412.971 1476.11 412.695C1475.31 412.419 1474.62 411.883 1474.16 411.172C1473.69 410.514 1473.37 409.759 1473.23 408.962C1473.08 408.17 1473.15 407.352 1473.43 406.597C1473.7 405.846 1474.2 405.202 1474.87 404.763C1475.54 404.324 1476.33 404.115 1477.12 404.166L1477.19 404.21Z" fill="black"/>
<path d="M1472.3 383.035C1472.67 383.106 1473 383.32 1473.21 383.631C1473.42 383.942 1473.5 384.324 1473.43 384.693C1473.36 385.062 1473.15 385.389 1472.84 385.6C1472.52 385.811 1472.14 385.891 1471.77 385.82C1468.73 385.461 1465.64 385.543 1462.62 386.064C1459.71 386.32 1456.85 387.029 1454.16 388.163C1454 388.275 1453.83 388.355 1453.64 388.397C1453.45 388.439 1453.26 388.442 1453.07 388.408C1452.88 388.373 1452.7 388.3 1452.54 388.194C1452.39 388.088 1452.25 387.951 1452.14 387.791C1452.04 387.631 1451.97 387.451 1451.94 387.263C1451.9 387.075 1451.91 386.881 1451.95 386.695C1451.99 386.509 1452.08 386.333 1452.19 386.179C1452.3 386.025 1452.45 385.896 1452.61 385.798C1455.65 384.421 1458.9 383.562 1462.22 383.256C1465.56 382.696 1468.95 382.621 1472.3 383.035Z" fill="black"/>
<path d="M1503.78 385.246C1503.95 385.322 1504.1 385.431 1504.23 385.568C1504.36 385.704 1504.45 385.865 1504.52 386.04C1504.58 386.215 1504.61 386.402 1504.6 386.588C1504.59 386.774 1504.54 386.957 1504.46 387.125C1504.3 387.466 1504.01 387.729 1503.65 387.858C1503.3 387.986 1502.9 387.969 1502.56 387.81C1499.9 386.603 1497.05 385.855 1494.14 385.599C1491.29 385.38 1488.43 385.38 1485.59 385.599C1485.4 385.614 1485.21 385.592 1485.04 385.533C1484.86 385.474 1484.69 385.379 1484.55 385.256C1484.41 385.132 1484.3 384.981 1484.22 384.812C1484.14 384.643 1484.09 384.46 1484.08 384.273C1484.07 383.899 1484.19 383.533 1484.44 383.252C1484.69 382.972 1485.04 382.799 1485.41 382.77C1488.4 382.518 1491.41 382.518 1494.41 382.77C1497.65 383.027 1500.82 383.85 1503.78 385.202V385.246Z" fill="black"/>
<path d="M1483.97 415.88C1484.18 415.57 1484.51 415.355 1484.88 415.285C1485.25 415.214 1485.63 415.293 1485.94 415.504C1486.25 415.716 1486.47 416.041 1486.54 416.41C1486.61 416.779 1486.53 417.161 1486.32 417.472C1485.9 418.074 1485.42 418.637 1484.9 419.151C1483.41 420.621 1481.48 421.554 1479.4 421.804C1477.15 422.019 1474.9 421.406 1473.08 420.08C1472.37 419.598 1471.72 419.043 1471.13 418.422C1471 418.287 1470.9 418.128 1470.83 417.954C1470.77 417.78 1470.73 417.594 1470.74 417.407C1470.75 417.03 1470.9 416.672 1471.18 416.411C1471.45 416.15 1471.81 416.008 1472.19 416.016C1472.57 416.025 1472.93 416.182 1473.19 416.455C1473.64 416.945 1474.14 417.382 1474.69 417.759C1475.96 418.697 1477.54 419.138 1479.11 418.997C1480.57 418.813 1481.92 418.152 1482.96 417.118C1483.34 416.736 1483.69 416.322 1484 415.88H1483.97Z" fill="black"/>
<path d="M1503.71 395.524C1503.93 395.216 1504.25 395.006 1504.62 394.94C1504.99 394.874 1505.37 394.956 1505.68 395.17C1505.99 395.388 1506.2 395.719 1506.26 396.092C1506.33 396.464 1506.25 396.848 1506.03 397.159C1504.51 399.369 1500.59 400.651 1496.24 400.74C1492.3 400.901 1488.39 399.926 1484.99 397.933C1484.7 397.72 1484.51 397.408 1484.44 397.057C1484.38 396.707 1484.45 396.345 1484.64 396.043C1484.83 395.742 1485.12 395.523 1485.47 395.43C1485.81 395.338 1486.18 395.379 1486.49 395.546C1489.43 397.226 1492.79 398.046 1496.17 397.911C1499.69 397.911 1502.69 396.938 1503.71 395.524Z" fill="black"/>
<path d="M1507 397.447C1507.37 397.526 1507.69 397.748 1507.89 398.063C1508.1 398.378 1508.17 398.76 1508.09 399.127C1508.05 399.309 1507.98 399.483 1507.87 399.637C1507.77 399.791 1507.63 399.922 1507.48 400.023C1507.32 400.124 1507.14 400.193 1506.96 400.225C1506.78 400.257 1506.59 400.252 1506.41 400.21C1505.81 400.092 1505.23 399.929 1504.66 399.723C1504.08 399.505 1503.51 399.254 1502.96 398.972C1502.63 398.799 1502.37 398.5 1502.26 398.142C1502.15 397.783 1502.18 397.394 1502.35 397.06C1502.52 396.726 1502.82 396.474 1503.18 396.36C1503.54 396.246 1503.93 396.279 1504.26 396.452C1504.7 396.692 1505.16 396.892 1505.63 397.049C1506.08 397.208 1506.54 397.341 1507 397.447Z" fill="black"/>
<path d="M1504.46 399.502C1504.79 399.684 1505.04 399.99 1505.15 400.352C1505.25 400.715 1505.21 401.105 1505.03 401.436C1504.85 401.767 1504.54 402.013 1504.18 402.119C1503.81 402.224 1503.42 402.182 1503.09 402C1502.56 401.702 1502.05 401.37 1501.57 401.005C1501.07 400.638 1500.6 400.239 1500.15 399.812C1499.88 399.548 1499.73 399.188 1499.73 398.811C1499.72 398.433 1499.87 398.07 1500.13 397.8C1500.39 397.531 1500.76 397.377 1501.13 397.373C1501.51 397.368 1501.87 397.514 1502.14 397.778C1502.49 398.125 1502.87 398.443 1503.27 398.729C1503.65 399.019 1504.04 399.278 1504.46 399.502Z" fill="black"/>
<path d="M1451.13 397.203C1450.92 396.899 1450.83 396.524 1450.89 396.158C1450.95 395.791 1451.14 395.461 1451.44 395.236C1451.59 395.125 1451.76 395.044 1451.94 395C1452.12 394.955 1452.31 394.947 1452.5 394.975C1452.68 395.004 1452.86 395.069 1453.02 395.167C1453.18 395.265 1453.32 395.394 1453.43 395.546C1454.51 397.027 1457.61 398.065 1461.21 398.242C1464.56 398.459 1467.9 397.691 1470.82 396.032C1470.98 395.928 1471.16 395.857 1471.34 395.823C1471.53 395.789 1471.72 395.793 1471.91 395.834C1472.09 395.876 1472.27 395.953 1472.42 396.063C1472.57 396.173 1472.7 396.313 1472.8 396.474C1472.9 396.635 1472.97 396.815 1473 397.002C1473.03 397.189 1473.02 397.38 1472.97 397.563C1472.92 397.747 1472.84 397.919 1472.73 398.07C1472.61 398.221 1472.47 398.347 1472.3 398.441C1468.89 400.378 1464.99 401.27 1461.08 401.005C1456.65 400.806 1452.7 399.303 1451.13 397.137V397.203Z" fill="black"/>
<path d="M1451.13 400.077C1450.76 400.155 1450.38 400.086 1450.06 399.883C1449.75 399.679 1449.53 399.36 1449.45 398.994C1449.38 398.625 1449.45 398.242 1449.65 397.925C1449.85 397.608 1450.17 397.381 1450.53 397.292C1451 397.203 1451.46 397.078 1451.9 396.916C1452.37 396.739 1452.83 396.54 1453.27 396.319C1453.6 396.148 1453.99 396.114 1454.35 396.226C1454.7 396.338 1455 396.586 1455.17 396.916C1455.35 397.251 1455.38 397.64 1455.27 397.999C1455.16 398.359 1454.91 398.66 1454.58 398.839C1454.03 399.123 1453.46 399.367 1452.88 399.568C1452.31 399.781 1451.72 399.951 1451.13 400.077Z" fill="black"/>
<path d="M1454.33 401.867C1454.17 401.957 1453.99 402.014 1453.8 402.034C1453.62 402.055 1453.43 402.038 1453.25 401.986C1453.07 401.934 1452.9 401.846 1452.76 401.729C1452.61 401.612 1452.49 401.468 1452.4 401.304C1452.31 401.14 1452.25 400.959 1452.23 400.774C1452.21 400.588 1452.23 400.399 1452.28 400.22C1452.33 400.04 1452.42 399.873 1452.54 399.727C1452.66 399.581 1452.8 399.46 1452.96 399.37C1453.39 399.148 1453.79 398.897 1454.18 398.618C1454.56 398.309 1454.93 397.999 1455.28 397.646C1455.55 397.382 1455.91 397.235 1456.29 397.235C1456.67 397.235 1457.03 397.382 1457.3 397.646C1457.43 397.775 1457.53 397.93 1457.61 398.101C1457.68 398.272 1457.71 398.455 1457.71 398.64C1457.71 398.825 1457.68 399.009 1457.61 399.18C1457.53 399.35 1457.43 399.505 1457.3 399.635C1456.85 400.07 1456.38 400.476 1455.88 400.85C1455.39 401.208 1454.89 401.533 1454.36 401.823L1454.33 401.867Z" fill="black"/>
<path d="M1521.86 388.075C1522.04 388.019 1522.24 388 1522.43 388.021C1522.62 388.041 1522.8 388.101 1522.97 388.195C1523.14 388.29 1523.28 388.417 1523.4 388.57C1523.52 388.723 1523.6 388.898 1523.65 389.084C1523.69 389.271 1523.7 389.464 1523.67 389.654C1523.64 389.844 1523.57 390.025 1523.47 390.187C1523.36 390.349 1523.23 390.489 1523.07 390.597C1522.91 390.705 1522.73 390.779 1522.54 390.816C1521.2 391.13 1520.01 391.913 1519.18 393.026L1518.92 393.49C1519.51 393.118 1520.14 392.813 1520.8 392.584C1520.97 392.526 1521.16 392.502 1521.35 392.516C1521.53 392.53 1521.71 392.581 1521.88 392.665C1522.05 392.749 1522.2 392.865 1522.32 393.007C1522.44 393.149 1522.53 393.313 1522.59 393.49C1522.65 393.666 1522.68 393.852 1522.67 394.038C1522.65 394.224 1522.61 394.405 1522.52 394.572C1522.44 394.739 1522.33 394.888 1522.19 395.01C1522.04 395.131 1521.88 395.223 1521.7 395.281C1520.95 395.546 1520.24 395.942 1519.63 396.452C1518.89 397.067 1518.24 397.772 1517.68 398.552C1517.56 398.76 1517.38 398.932 1517.16 399.048C1516.95 399.165 1516.71 399.222 1516.47 399.215C1516.28 399.215 1516.09 399.178 1515.92 399.105C1515.75 399.032 1515.59 398.926 1515.46 398.792C1515.33 398.658 1515.23 398.499 1515.17 398.325C1515.1 398.151 1515.07 397.965 1515.07 397.778C1515.04 395.537 1515.65 393.334 1516.84 391.435C1518.03 389.702 1519.82 388.472 1521.86 387.987V388.075Z" fill="black"/>
<path d="M1511.62 407.68C1511.64 407.495 1511.7 407.315 1511.79 407.152C1511.88 406.988 1512 406.845 1512.15 406.729C1512.29 406.614 1512.46 406.529 1512.64 406.48C1512.82 406.43 1513.01 406.418 1513.19 406.442C1513.57 406.492 1513.91 406.687 1514.14 406.985C1514.37 407.282 1514.48 407.659 1514.43 408.034C1513.48 415.559 1510.06 422.556 1504.71 427.926C1497.46 435.242 1488.2 438.425 1484.28 438.491C1483.91 438.491 1483.55 438.342 1483.28 438.077C1483.02 437.812 1482.87 437.452 1482.87 437.077C1482.87 436.702 1483.02 436.342 1483.28 436.077C1483.55 435.811 1483.91 435.662 1484.28 435.662C1487.75 435.662 1496.06 432.678 1502.74 425.937C1507.6 421.015 1510.71 414.631 1511.58 407.769L1511.62 407.68Z" fill="black"/>
<path fill-rule="evenodd" clip-rule="evenodd" d="M1855.48 819.433C1861.95 792.069 1828.25 785.461 1795.8 807.387C1803.4 762.032 1737.16 785.284 1717.36 809.862C1708.71 761.546 1628.08 840.298 1640.26 872.501H1883.72C1943.76 851.106 1900.66 789.307 1855.48 819.455V819.433Z" fill="#8C9152"/>
<path d="M789.484 874C789.324 874 789.165 873.961 789.017 873.886C788.869 873.81 788.734 873.7 788.621 873.561C788.508 873.421 788.418 873.256 788.357 873.074C788.295 872.892 788.264 872.697 788.264 872.5C788.264 872.102 788.392 871.721 788.621 871.439C788.85 871.158 789.16 871 789.484 871H1919.04C1919.37 871 1919.68 871.158 1919.91 871.439C1920.14 871.721 1920.26 872.102 1920.26 872.5C1920.26 872.697 1920.23 872.892 1920.17 873.074C1920.11 873.256 1920.02 873.421 1919.91 873.561C1919.79 873.7 1919.66 873.81 1919.51 873.886C1919.36 873.961 1919.2 874 1919.04 874H789.484Z" fill="black"/>
</svg>
