<svg width="1920" height="898" viewBox="0 0 1920 898" fill="none" xmlns="http://www.w3.org/2000/svg">
<path d="M18.2224 6.45129C26.1263 2.86097 34.7065 1.00235 43.3876 1.00001C53.5627 1.00424 63.5749 3.55843 72.5089 8.42947C81.4561 13.3077 89.0359 20.3536 94.5534 28.9214L94.9576 29.549L95.6742 29.34C98.7862 28.4323 102.011 27.9695 105.253 27.9654C110.884 27.9697 116.427 29.3743 121.381 32.0527C126.336 34.7314 130.546 38.6001 133.634 43.3106C136.722 48.021 138.59 53.4254 139.07 59.0372C139.531 64.4319 138.696 69.8554 136.638 74.8567H-59.0596C-60.362 70.6679 -61.0167 66.3031 -60.9997 61.9137L-60.9997 61.911C-60.992 55.0443 -59.3222 48.2815 -56.133 42.2003C-52.9439 36.1191 -48.3301 30.9003 -42.6858 26.9896C-37.0415 23.0789 -30.5345 20.5926 -23.7206 19.7431C-16.9066 18.8935 -9.98827 19.706 -3.55655 22.1111L-2.90839 22.3535L-2.45315 21.8323C3.26238 15.2889 10.3121 10.0445 18.2224 6.45129Z" fill="white" stroke="black" stroke-width="2"/>
<path d="M500.089 144.543C503.854 142.868 507.943 142.001 512.08 142C516.929 142.002 521.7 143.194 525.956 145.466C530.217 147.741 533.826 151.026 536.451 155.018L536.855 155.632L537.561 155.43C539.024 155.012 540.541 154.799 542.065 154.797C544.713 154.799 547.318 155.446 549.645 156.678C551.972 157.91 553.948 159.688 555.395 161.85C556.843 164.013 557.717 166.492 557.942 169.064C558.148 171.423 557.802 173.795 556.933 176H462.804C462.264 174.176 461.993 172.286 462 170.385L462 170.382C462.004 167.212 462.791 164.089 464.296 161.279C465.801 158.469 467.979 156.056 470.647 154.246C473.314 152.436 476.391 151.285 479.615 150.891C482.838 150.498 486.111 150.874 489.153 151.988L489.79 152.222L490.243 151.715C492.963 148.665 496.32 146.219 500.089 144.543Z" fill="white" stroke="black" stroke-width="2"/>
<path d="M809.753 23L809.754 23C816.531 23.0032 823.199 24.7048 829.149 27.9492C835.099 31.1936 840.141 35.8774 843.814 41.5725L844.216 42.1958L844.93 41.992C846.997 41.4013 849.136 41.1018 851.285 41.1022H851.286C854.234 41.1022 857.153 41.6829 859.877 42.8112C862.601 43.9394 865.076 45.5932 867.161 47.678C869.246 49.7627 870.899 52.2377 872.028 54.9616C873.156 57.6855 873.737 60.6049 873.737 63.5532L873.737 63.5553C873.743 66.4175 873.195 69.2518 872.127 71.9027H741.257C740.008 67.8584 739.683 63.5818 740.312 59.3898C740.976 54.9619 742.684 50.7555 745.296 47.1182C747.907 43.4809 751.346 40.5172 755.329 38.4719C759.312 36.4265 763.725 35.3583 768.202 35.3555L768.205 35.3555C771.586 35.3444 774.941 35.9517 778.103 37.1475L778.754 37.3934L779.211 36.8692C783.013 32.5069 787.707 29.0114 792.976 26.6188C798.245 24.2262 803.966 22.9921 809.753 23Z" fill="white" stroke="black" stroke-width="2"/>
<path fill-rule="evenodd" clip-rule="evenodd" d="M236.958 853.067C244.256 829.899 206.268 824.304 169.7 842.868C178.27 804.467 103.614 824.154 81.2947 844.964C71.5549 804.055 -19.317 870.734 -5.59153 898H268.793C336.448 879.885 287.874 827.56 236.958 853.086V853.067Z" fill="#8C9152"/>
<path fill-rule="evenodd" clip-rule="evenodd" d="M-164.807 814.539C-173.514 771.498 -128.39 761.114 -84.9005 795.588C-95.0877 724.277 -6.38585 760.906 20.1098 799.482C31.6892 723.498 139.616 847.352 123.33 898H-202.551C-282.922 864.252 -225.224 767.162 -164.719 814.539H-164.807Z" fill="#A7A17F"/>
<path fill-rule="evenodd" clip-rule="evenodd" d="M422.511 752.216C382.886 788.384 348.218 758.301 422.511 752.216Z" fill="#8C9152"/>
<path fill-rule="evenodd" clip-rule="evenodd" d="M441.116 758.31C404.718 800.81 361.034 780.896 441.116 758.31Z" fill="#80854D"/>
<path fill-rule="evenodd" clip-rule="evenodd" d="M406.383 744.566C369.06 769.051 336.477 734.121 406.383 744.566Z" fill="#8C9152"/>
<path fill-rule="evenodd" clip-rule="evenodd" d="M397.524 739.496C354.817 682.965 350.26 734.417 397.524 739.496Z" fill="#80854D"/>
<path fill-rule="evenodd" clip-rule="evenodd" d="M401.367 741.791C395.269 676.669 365.747 717.59 401.367 741.791Z" fill="#8C9152"/>
<path fill-rule="evenodd" clip-rule="evenodd" d="M414.766 748.84C413.429 677.53 383.555 720.836 414.766 748.84Z" fill="#8C9152"/>
<path fill-rule="evenodd" clip-rule="evenodd" d="M430.682 755.255C425.791 675.231 396.499 728.64 430.682 755.255Z" fill="#8C9152"/>
<path fill-rule="evenodd" clip-rule="evenodd" d="M461.529 761.533C420.24 819.26 380.473 785.355 461.529 761.533Z" fill="#80854D"/>
<path fill-rule="evenodd" clip-rule="evenodd" d="M450.367 760.254C432.892 683.829 412.488 737.769 450.367 760.254Z" fill="#80854D"/>
<path fill-rule="evenodd" clip-rule="evenodd" d="M489.951 759.801C446.351 828.203 397.31 800.288 489.951 759.801Z" fill="#8C9152"/>
<path fill-rule="evenodd" clip-rule="evenodd" d="M472.945 761.773C437.464 682.814 424.659 747.889 472.945 761.773Z" fill="#8C9152"/>
<path d="M396.134 739.619C396.038 739.562 395.955 739.486 395.889 739.395C395.824 739.305 395.777 739.202 395.752 739.093C395.727 738.985 395.725 738.872 395.744 738.762C395.764 738.652 395.805 738.547 395.867 738.454C395.924 738.359 396 738.277 396.09 738.211C396.179 738.146 396.281 738.099 396.389 738.073C396.497 738.047 396.608 738.043 396.718 738.06C396.827 738.078 396.932 738.116 397.027 738.174C415.078 749.305 433.293 756.646 451.525 759.555C468.971 762.438 486.859 760.962 503.596 755.258C503.703 755.212 503.818 755.188 503.935 755.188C504.051 755.188 504.167 755.212 504.273 755.259C504.38 755.305 504.476 755.374 504.555 755.46C504.634 755.545 504.694 755.646 504.732 755.757C504.77 755.867 504.785 755.984 504.775 756.1C504.765 756.216 504.732 756.329 504.676 756.432C504.621 756.534 504.545 756.624 504.453 756.696C504.361 756.767 504.255 756.819 504.142 756.848C487.129 762.673 468.936 764.187 451.195 761.252C432.781 758.295 414.261 750.918 396.134 739.619Z" fill="black"/>
<g filter="url(#filter0_d_48_6598)">
<path fill-rule="evenodd" clip-rule="evenodd" d="M140.425 192.664C74.9564 174.871 115.626 85.8857 140.425 192.664Z" fill="#8C9152"/>
<path d="M142.193 196.797C142.322 196.931 142.476 197.037 142.647 197.111C142.817 197.185 143 197.225 143.186 197.228C143.372 197.231 143.556 197.198 143.729 197.129C143.902 197.061 144.06 196.96 144.193 196.83C144.327 196.701 144.433 196.547 144.507 196.377C144.581 196.206 144.621 196.023 144.624 195.837C144.627 195.651 144.593 195.467 144.525 195.294C144.457 195.121 144.355 194.964 144.226 194.83C138.297 188.754 132.893 182.188 128.069 175.203C122.714 167.422 118.188 159.103 114.564 150.381C114.391 150.076 114.111 149.845 113.778 149.731C113.445 149.618 113.083 149.631 112.759 149.767C112.435 149.903 112.172 150.153 112.02 150.47C111.868 150.787 111.837 151.149 111.934 151.487C115.626 160.375 120.218 168.863 125.638 176.816C130.563 183.894 136.071 190.548 142.104 196.709L142.193 196.797Z" fill="black"/>
</g>
<path fill-rule="evenodd" clip-rule="evenodd" d="M129.567 754.745C86.4879 739.048 118.925 681.43 129.567 754.745Z" fill="#8C9152"/>
<path d="M130.523 757.629C130.602 757.726 130.7 757.807 130.811 757.866C130.921 757.926 131.042 757.963 131.167 757.976C131.292 757.988 131.418 757.976 131.538 757.94C131.659 757.904 131.771 757.844 131.868 757.765C131.965 757.686 132.046 757.588 132.105 757.477C132.165 757.367 132.202 757.245 132.214 757.12C132.227 756.996 132.215 756.869 132.179 756.749C132.143 756.629 132.083 756.517 132.004 756.42C128.356 751.992 125.089 747.263 122.237 742.285C119.072 736.742 116.496 730.883 114.551 724.804C114.451 724.588 114.276 724.417 114.058 724.321C113.84 724.226 113.596 724.214 113.37 724.288C113.144 724.361 112.953 724.514 112.832 724.719C112.712 724.924 112.671 725.166 112.717 725.399C114.699 731.594 117.309 737.57 120.508 743.234C123.423 748.28 126.755 753.074 130.468 757.565L130.523 757.629Z" fill="black"/>
<path fill-rule="evenodd" clip-rule="evenodd" d="M638.646 693.977C580.704 729.267 544.075 638.543 638.646 693.977Z" fill="#8C9152"/>
<path d="M642.863 695.536C643.048 695.534 643.232 695.495 643.403 695.422C643.574 695.349 643.728 695.244 643.858 695.111C643.988 694.978 644.091 694.821 644.16 694.649C644.23 694.476 644.264 694.292 644.262 694.106C644.26 693.921 644.222 693.737 644.149 693.566C644.076 693.395 643.97 693.24 643.837 693.11C643.705 692.98 643.548 692.878 643.375 692.809C643.203 692.739 643.019 692.705 642.833 692.707C634.345 692.832 625.861 692.24 617.472 690.937C608.142 689.474 598.99 687.038 590.166 683.67C589.824 683.586 589.464 683.63 589.153 683.794C588.842 683.958 588.602 684.23 588.478 684.558C588.354 684.887 588.355 685.25 588.48 685.578C588.606 685.907 588.847 686.178 589.159 686.34C598.151 689.773 607.47 692.276 616.972 693.812C625.497 695.105 634.116 695.682 642.738 695.539L642.863 695.536Z" fill="black"/>
<path fill-rule="evenodd" clip-rule="evenodd" d="M365 41.7169C370.509 39.905 373.309 36.8809 375.968 28C378.311 35.12 381.934 39.6498 387 41.2703C380.819 43.1588 377.817 49.1815 375.436 55C374.499 49.475 371.51 43.3119 365 41.7169Z" fill="#EBB763"/>
<path fill-rule="evenodd" clip-rule="evenodd" d="M1850 445.404C1855.51 441.893 1858.31 436.032 1860.97 418.819C1863.31 432.619 1866.93 441.398 1872 444.539C1865.82 448.199 1862.82 459.872 1860.44 471.149C1859.5 460.441 1856.51 448.496 1850 445.404Z" fill="#EBB763"/>
<path fill-rule="evenodd" clip-rule="evenodd" d="M302 786.717C307.509 784.905 310.309 781.881 312.968 773C315.311 780.12 318.934 784.65 324 786.27C317.819 788.159 314.817 794.181 312.436 800C311.499 794.475 308.51 788.312 302 786.717Z" fill="#EBB763"/>
<path fill-rule="evenodd" clip-rule="evenodd" d="M1488 165.839C1549.47 165.839 1609.57 184.07 1660.69 218.225C1711.8 252.381 1751.64 300.927 1775.17 357.726C1798.7 414.524 1804.85 477.023 1792.85 537.319C1780.86 597.615 1751.25 653 1707.78 696.469C1664.31 739.939 1608.92 769.541 1548.62 781.532C1488.33 793.523 1425.83 787.364 1369.03 763.835C1312.24 740.305 1263.69 700.462 1229.54 649.343C1195.39 598.224 1177.16 538.126 1177.17 476.648C1177.17 435.831 1185.21 395.412 1200.83 357.702C1216.45 319.991 1239.34 285.727 1268.21 256.865C1297.07 228.004 1331.34 205.11 1369.05 189.492C1406.76 173.874 1447.18 165.836 1488 165.839Z" fill="#E85463"/>
<path fill-rule="evenodd" clip-rule="evenodd" d="M1199.69 241.298C1210.05 241.295 1220.24 243.891 1229.33 248.85C1238.43 253.808 1246.13 260.97 1251.74 269.678C1254.94 268.744 1258.26 268.268 1261.6 268.264C1267.4 268.268 1273.1 269.714 1278.2 272.471C1283.3 275.229 1287.64 279.212 1290.82 284.061C1294 288.91 1295.92 294.473 1296.41 300.25C1296.91 306.027 1295.96 311.837 1293.65 317.155H1096.56C1095.07 312.655 1094.33 307.946 1094.35 303.208C1094.35 296.18 1096.06 289.258 1099.33 283.034C1102.59 276.81 1107.31 271.469 1113.09 267.466C1118.87 263.463 1125.53 260.919 1132.5 260.049C1139.48 259.18 1146.56 260.011 1153.14 262.473C1158.95 255.822 1166.12 250.491 1174.16 246.839C1182.2 243.187 1190.92 241.298 1199.76 241.298H1199.69Z" fill="white"/>
<path d="M1199.69 239.884C1210.1 239.87 1220.36 242.429 1229.55 247.333C1238.74 252.238 1246.57 259.337 1252.36 267.998C1253.69 267.647 1255.04 267.374 1256.4 267.181C1258.12 266.934 1259.86 266.808 1261.6 266.805C1271.24 266.811 1280.48 270.643 1287.3 277.461C1294.12 284.278 1297.95 293.523 1297.96 303.164C1297.95 305.658 1297.7 308.146 1297.21 310.59C1296.7 313.014 1295.96 315.383 1295 317.663L1294.62 318.525H1095.69L1095.36 317.553C1094.58 315.248 1093.99 312.882 1093.59 310.48C1092.53 304.05 1092.88 297.465 1094.62 291.184C1096.36 284.903 1099.45 279.075 1103.66 274.106C1107.88 269.137 1113.13 265.144 1119.04 262.406C1124.95 259.669 1131.39 258.251 1137.91 258.251C1142.98 258.232 1148.01 259.085 1152.79 260.771C1158.63 254.296 1165.74 249.091 1173.67 245.476C1181.89 241.747 1190.8 239.825 1199.82 239.839L1199.69 239.884ZM1228.6 250.073C1216.53 243.486 1202.58 241.211 1189.05 243.622C1175.51 246.033 1163.21 252.986 1154.16 263.335L1153.49 264.086L1152.59 263.733C1150.23 262.848 1147.79 262.175 1145.32 261.721C1142.83 261.283 1140.31 261.062 1137.78 261.058C1126.64 261.058 1115.96 265.483 1108.08 273.358C1100.21 281.234 1095.78 291.915 1095.78 303.053C1095.78 305.349 1095.96 307.641 1096.34 309.905C1096.64 311.821 1097.08 313.712 1097.66 315.564H1292.76C1293.51 313.733 1294.08 311.839 1294.49 309.905C1295.5 305.027 1295.42 299.985 1294.24 295.144C1293.06 290.303 1290.82 285.785 1287.67 281.92C1284.53 278.054 1280.56 274.938 1276.07 272.798C1271.57 270.657 1266.65 269.546 1261.66 269.546C1260.06 269.544 1258.46 269.654 1256.87 269.877C1255.29 270.101 1253.73 270.441 1252.2 270.894L1251.19 271.181L1250.61 270.297C1245.12 261.772 1237.57 254.764 1228.67 249.918L1228.6 250.073Z" fill="black"/>
<path fill-rule="evenodd" clip-rule="evenodd" d="M1672.62 178.085C1679.57 178.088 1686.4 179.831 1692.5 183.156C1698.59 186.48 1703.76 191.279 1707.52 197.115C1709.68 196.499 1711.91 196.186 1714.15 196.187C1717.23 196.187 1720.28 196.793 1723.13 197.972C1725.97 199.15 1728.56 200.878 1730.74 203.055C1732.91 205.233 1734.64 207.818 1735.82 210.663C1737 213.509 1737.6 216.558 1737.6 219.638C1737.61 222.855 1736.95 226.039 1735.66 228.987H1603.4C1601.92 224.594 1601.5 219.911 1602.19 215.326C1602.88 210.741 1604.65 206.386 1607.35 202.62C1610.05 198.853 1613.62 195.785 1617.74 193.667C1621.86 191.549 1626.43 190.443 1631.07 190.44C1634.57 190.428 1638.05 191.058 1641.32 192.297C1645.22 187.826 1650.03 184.245 1655.43 181.793C1660.83 179.341 1666.69 178.076 1672.62 178.085Z" fill="white"/>
<path d="M1672.62 176.648C1679.64 176.651 1686.54 178.368 1692.74 181.65C1698.94 184.932 1704.24 189.68 1708.18 195.479C1708.99 195.278 1709.81 195.123 1710.64 195.015C1711.81 194.838 1712.99 194.749 1714.17 194.75C1720.77 194.756 1727.1 197.38 1731.77 202.046C1736.43 206.712 1739.06 213.039 1739.06 219.637C1739.05 223.052 1738.35 226.43 1736.98 229.562L1736.61 230.401H1602.38L1602.05 229.451C1601.53 227.871 1601.13 226.252 1600.85 224.611C1600.59 222.966 1600.45 221.303 1600.46 219.637C1600.45 215.615 1601.24 211.63 1602.77 207.912C1604.31 204.194 1606.56 200.816 1609.41 197.97C1612.25 195.125 1615.63 192.868 1619.35 191.329C1623.06 189.791 1627.05 189 1631.07 189.003C1632.91 189.005 1634.74 189.175 1636.55 189.511C1638.05 189.77 1639.53 190.147 1640.97 190.639C1644.98 186.221 1649.88 182.694 1655.34 180.284C1660.79 177.874 1666.7 176.636 1672.67 176.648H1672.62ZM1691.81 184.361C1683.8 179.986 1674.53 178.477 1665.55 180.085C1656.57 181.693 1648.4 186.321 1642.41 193.203L1641.74 193.932L1640.84 193.6C1639.29 193.001 1637.68 192.557 1636.04 192.274C1632.04 191.546 1627.92 191.706 1623.99 192.744C1620.05 193.781 1616.39 195.671 1613.27 198.279C1610.14 200.887 1607.63 204.15 1605.9 207.837C1604.18 211.524 1603.28 215.545 1603.29 219.615C1603.29 221.097 1603.42 222.575 1603.66 224.036C1603.84 225.195 1604.1 226.34 1604.43 227.462H1734.84C1735.27 226.341 1735.6 225.188 1735.84 224.014C1736.14 222.56 1736.3 221.079 1736.3 219.593C1736.3 213.731 1733.97 208.109 1729.83 203.964C1725.68 199.819 1720.06 197.49 1714.2 197.49C1713.15 197.485 1712.1 197.559 1711.06 197.711C1710.02 197.862 1708.99 198.084 1707.99 198.375L1706.97 198.684L1706.39 197.778C1702.74 192.125 1697.74 187.475 1691.83 184.251L1691.81 184.361Z" fill="black"/>
<path d="M1769.41 317.625L1769.41 317.625C1783.11 317.618 1796.59 321.052 1808.62 327.61C1820.65 334.168 1830.84 343.641 1838.26 355.161L1838.66 355.789L1839.38 355.579C1847.74 353.127 1856.62 353.108 1864.99 355.524C1873.35 357.94 1880.86 362.69 1886.62 369.219C1892.39 375.748 1896.17 383.784 1897.53 392.387C1898.86 400.773 1897.82 409.359 1894.56 417.187H1631.95C1628.69 407.114 1628.29 396.331 1630.79 386.036C1633.35 375.509 1638.84 365.923 1646.63 358.389C1654.42 350.856 1664.18 345.684 1674.78 343.473C1685.39 341.262 1696.4 342.102 1706.55 345.897L1707.2 346.14L1707.66 345.618C1715.35 336.805 1724.84 329.745 1735.49 324.916C1746.14 320.087 1757.71 317.6 1769.41 317.625Z" fill="white" stroke="black" stroke-width="2"/>
<path fill-rule="evenodd" clip-rule="evenodd" d="M1124.58 672.236C1118.44 565.192 1054.05 611.365 1124.58 672.236Z" fill="#80854D"/>
<path fill-rule="evenodd" clip-rule="evenodd" d="M1134.13 759.653C1038.63 617.311 1028.04 776.605 1134.13 759.653Z" fill="#80854D"/>
<path d="M1140.89 761.487C1141.24 761.642 1141.5 761.928 1141.64 762.28C1141.77 762.632 1141.76 763.023 1141.6 763.366C1141.45 763.709 1141.16 763.976 1140.81 764.109C1140.46 764.241 1140.07 764.228 1139.72 764.073C1126.76 758.265 1114.31 751.374 1102.5 743.473C1089.41 734.608 1077.27 724.408 1066.28 713.038C1066.15 712.904 1066.05 712.747 1065.98 712.574C1065.91 712.401 1065.88 712.217 1065.88 712.031C1065.88 711.845 1065.92 711.662 1065.99 711.491C1066.07 711.321 1066.18 711.167 1066.31 711.038C1066.44 710.908 1066.6 710.807 1066.77 710.739C1066.95 710.67 1067.13 710.637 1067.32 710.64C1067.5 710.643 1067.69 710.683 1067.86 710.756C1068.03 710.83 1068.18 710.937 1068.31 711.071C1079.18 722.292 1091.18 732.358 1104.12 741.108C1115.78 748.93 1128.1 755.748 1140.92 761.487H1140.89Z" fill="black"/>
<path fill-rule="evenodd" clip-rule="evenodd" d="M1363.45 215.726C1280.45 230.38 1275.26 111.489 1363.45 215.726Z" fill="#8C9152"/>
<path d="M1368.64 216.278C1368.82 216.339 1368.98 216.434 1369.12 216.557C1369.26 216.681 1369.37 216.831 1369.45 216.998C1369.53 217.165 1369.58 217.347 1369.59 217.532C1369.6 217.718 1369.58 217.904 1369.52 218.079C1369.45 218.255 1369.36 218.417 1369.24 218.556C1369.11 218.695 1368.96 218.808 1368.8 218.889C1368.63 218.97 1368.45 219.017 1368.26 219.028C1368.08 219.039 1367.89 219.013 1367.71 218.952C1357.79 215.577 1348.18 211.354 1338.98 206.332C1328.79 200.708 1319.21 194.041 1310.4 186.439C1310.11 186.196 1309.92 185.846 1309.89 185.467C1309.85 185.088 1309.97 184.71 1310.21 184.417C1310.46 184.124 1310.81 183.939 1311.19 183.904C1311.57 183.869 1311.94 183.986 1312.24 184.229C1320.93 191.748 1330.38 198.34 1340.44 203.9C1349.47 208.83 1358.91 212.985 1368.64 216.322V216.278Z" fill="black"/>
<path fill-rule="evenodd" clip-rule="evenodd" d="M1111.32 135.161C1058.52 75.4834 994.044 128.11 1111.32 135.161Z" fill="#80854D"/>
<path fill-rule="evenodd" clip-rule="evenodd" d="M923.537 432.31C837.933 460.182 805.751 390.204 923.537 432.31Z" fill="#8C9152"/>
<path fill-rule="evenodd" clip-rule="evenodd" d="M947.761 454.502C862.709 494.287 809.707 433.615 947.761 454.502Z" fill="#80854D"/>
<path fill-rule="evenodd" clip-rule="evenodd" d="M904.175 409.456C830.175 421.06 804.536 345.115 904.175 409.456Z" fill="#8C9152"/>
<path fill-rule="evenodd" clip-rule="evenodd" d="M894.14 395.576C867.97 279.603 825.4 355.106 894.14 395.576Z" fill="#80854D"/>
<path fill-rule="evenodd" clip-rule="evenodd" d="M898.428 401.742C934.168 297.97 860.721 340.098 898.428 401.742Z" fill="#8C9152"/>
<path fill-rule="evenodd" clip-rule="evenodd" d="M914.033 421.789C961.333 311.85 885.697 357.382 914.033 421.789Z" fill="#8C9152"/>
<path fill-rule="evenodd" clip-rule="evenodd" d="M933.925 442.61C981.821 316.89 900.085 378.269 933.925 442.61Z" fill="#8C9152"/>
<path fill-rule="evenodd" clip-rule="evenodd" d="M976.738 473.554C873.673 533.232 836.341 453.883 976.738 473.554Z" fill="#80854D"/>
<path fill-rule="evenodd" clip-rule="evenodd" d="M960.559 463.873C986.728 334.948 918.21 403.289 960.559 463.873Z" fill="#80854D"/>
<path fill-rule="evenodd" clip-rule="evenodd" d="M1021.39 490.574C907.402 564.971 851.747 488.363 1021.39 490.574Z" fill="#8C9152"/>
<path fill-rule="evenodd" clip-rule="evenodd" d="M994.022 481.821C994.42 336.561 929.814 427.183 994.022 481.821Z" fill="#8C9152"/>
<path d="M891.93 394.802C891.823 394.648 891.749 394.474 891.711 394.291C891.673 394.107 891.673 393.918 891.71 393.734C891.747 393.55 891.821 393.376 891.927 393.222C892.033 393.067 892.17 392.936 892.328 392.835C892.482 392.73 892.654 392.657 892.837 392.619C893.019 392.582 893.207 392.58 893.389 392.615C893.572 392.65 893.746 392.72 893.901 392.823C894.057 392.925 894.191 393.057 894.295 393.211C914.187 422.718 936.953 446.545 962.814 463.608C987.489 480.087 1015.86 490.209 1045.39 493.071C1045.58 493.073 1045.78 493.116 1045.96 493.197C1046.13 493.278 1046.29 493.394 1046.42 493.54C1046.56 493.685 1046.65 493.856 1046.72 494.042C1046.78 494.228 1046.8 494.424 1046.78 494.619C1046.76 494.813 1046.7 495.002 1046.61 495.173C1046.51 495.344 1046.38 495.493 1046.23 495.612C1046.07 495.73 1045.89 495.815 1045.7 495.861C1045.51 495.907 1045.32 495.913 1045.12 495.878C1015.08 493.011 986.226 482.736 961.134 465.973C935.03 448.711 911.822 424.619 891.93 394.802Z" fill="black"/>
<path fill-rule="evenodd" clip-rule="evenodd" d="M1847.43 388.503C1912.9 370.71 1872.23 281.724 1847.43 388.503Z" fill="#8C9152"/>
<path d="M1845.66 392.636C1845.53 392.769 1845.38 392.876 1845.21 392.95C1845.04 393.024 1844.86 393.063 1844.67 393.066C1844.48 393.07 1844.3 393.036 1844.13 392.968C1843.95 392.9 1843.8 392.798 1843.66 392.669C1843.53 392.54 1843.42 392.385 1843.35 392.215C1843.28 392.045 1843.24 391.861 1843.23 391.675C1843.23 391.49 1843.26 391.305 1843.33 391.132C1843.4 390.96 1843.5 390.802 1843.63 390.668C1849.56 384.593 1854.96 378.027 1859.79 371.041C1865.14 363.261 1869.67 354.942 1873.29 346.22C1873.47 345.914 1873.75 345.683 1874.08 345.57C1874.41 345.457 1874.77 345.469 1875.1 345.605C1875.42 345.741 1875.68 345.992 1875.84 346.309C1875.99 346.625 1876.02 346.987 1875.92 347.325C1872.23 356.213 1867.64 364.701 1862.22 372.655C1857.29 379.733 1851.79 386.387 1845.75 392.547L1845.66 392.636Z" fill="black"/>
<path fill-rule="evenodd" clip-rule="evenodd" d="M1704.43 470.261C1804.64 393.012 1795.51 470.394 1704.43 470.261Z" fill="#8C9152"/>
<path fill-rule="evenodd" clip-rule="evenodd" d="M1689.66 499.37C1816 436.223 1783.93 511.173 1689.66 499.37Z" fill="#80854D"/>
<path fill-rule="evenodd" clip-rule="evenodd" d="M1715.96 442.323C1791.8 349.337 1790.8 430.41 1715.96 442.323Z" fill="#80854D"/>
<path fill-rule="evenodd" clip-rule="evenodd" d="M1721.27 425.746C1774.78 365.361 1710.22 305.971 1721.27 425.746Z" fill="#80854D"/>
<path fill-rule="evenodd" clip-rule="evenodd" d="M1719.06 432.996C1736.15 361.935 1652.31 344.297 1719.06 432.996Z" fill="#8C9152"/>
<path fill-rule="evenodd" clip-rule="evenodd" d="M1710.26 457.176C1717.47 386.447 1630.47 366.113 1710.26 457.176Z" fill="#8C9152"/>
<path fill-rule="evenodd" clip-rule="evenodd" d="M1697.6 483.5C1710.11 411.025 1612.33 377.407 1697.6 483.5Z" fill="#8C9152"/>
<path fill-rule="evenodd" clip-rule="evenodd" d="M1664.05 536.812C1784.09 526.335 1768.79 438.875 1664.05 536.812Z" fill="#80854D"/>
<path fill-rule="evenodd" clip-rule="evenodd" d="M1679.63 515.417C1701.51 443.914 1614.27 399.532 1679.63 515.417Z" fill="#80854D"/>
<path d="M1720.45 423.513C1720.5 423.333 1720.58 423.164 1720.7 423.016C1720.81 422.868 1720.95 422.745 1721.12 422.652C1721.28 422.56 1721.46 422.5 1721.64 422.477C1721.83 422.455 1722.02 422.469 1722.2 422.519C1722.56 422.627 1722.86 422.873 1723.05 423.203C1723.23 423.534 1723.27 423.924 1723.17 424.287C1715.87 449.919 1705.48 474.568 1692.23 497.69C1679.1 520.621 1663.18 541.839 1644.84 560.86C1644.71 560.992 1644.55 561.098 1644.38 561.169C1644.21 561.241 1644.03 561.278 1643.84 561.278C1643.66 561.278 1643.47 561.241 1643.3 561.169C1643.13 561.098 1642.98 560.992 1642.85 560.86C1642.72 560.73 1642.61 560.576 1642.54 560.405C1642.47 560.234 1642.43 560.051 1642.43 559.865C1642.43 559.68 1642.47 559.497 1642.54 559.326C1642.61 559.155 1642.72 559 1642.85 558.871C1661.03 540.022 1676.81 518.997 1689.84 496.276C1702.94 473.344 1713.23 448.913 1720.47 423.513H1720.45Z" fill="black"/>
<path fill-rule="evenodd" clip-rule="evenodd" d="M971.345 187.92C979.788 185.179 984.098 180.56 988.187 167.011C991.768 177.885 997.316 184.693 1005.12 187.235C995.636 190.13 991.016 199.303 987.436 208.188C986.021 199.745 981.424 190.373 971.433 187.92H971.345Z" fill="white"/>
<path d="M843.635 559.888C842.739 558.801 841.542 558.003 840.195 557.594C838.847 557.184 837.409 557.181 836.06 557.584C834.71 557.987 833.51 558.779 832.609 559.862C831.707 560.944 831.145 562.267 830.992 563.667C830.885 564.588 830.961 565.52 831.215 566.412C831.469 567.303 831.897 568.135 832.473 568.861L832.583 569.016C833.772 570.459 835.478 571.38 837.336 571.583C839.195 571.785 841.058 571.253 842.53 570.099L842.662 569.966C844.105 568.778 845.026 567.072 845.229 565.214C845.431 563.355 844.899 561.491 843.745 560.02V559.888H843.635ZM839.214 554.495C841.822 554.809 844.203 556.135 845.845 558.186C847.503 560.254 848.274 562.894 847.988 565.53C847.702 568.165 846.383 570.579 844.32 572.243C842.249 573.903 839.604 574.674 836.965 574.388C834.327 574.102 831.909 572.782 830.24 570.718C829.005 569.177 828.253 567.306 828.078 565.339C827.904 563.372 828.315 561.397 829.26 559.663C830.205 557.929 831.641 556.513 833.389 555.593C835.137 554.674 837.117 554.291 839.082 554.495H839.214Z" fill="#8C9152"/>
<path fill-rule="evenodd" clip-rule="evenodd" d="M735 446.611C744.615 443.472 749.499 438.234 754.141 422.851C758.23 435.184 764.551 443.03 773.393 445.837C762.606 449.109 757.368 459.541 753.213 469.62C751.577 460.05 746.361 449.374 735 446.611Z" fill="#EBB763"/>
<path fill-rule="evenodd" clip-rule="evenodd" d="M1865 613.774C1864.07 612.619 1862.82 611.766 1861.4 611.323C1859.98 610.88 1858.47 610.866 1857.04 611.285C1855.62 611.703 1854.35 612.534 1853.39 613.673C1852.44 614.812 1851.85 616.208 1851.69 617.684C1851.53 619.161 1851.81 620.651 1852.49 621.968C1853.18 623.285 1854.24 624.369 1855.54 625.084C1856.84 625.798 1858.33 626.111 1859.81 625.982C1861.29 625.854 1862.7 625.29 1863.85 624.361C1865.41 623.109 1866.4 621.29 1866.62 619.305C1866.83 617.321 1866.25 615.331 1865 613.774Z" fill="#8C9152"/>
<path fill-rule="evenodd" clip-rule="evenodd" d="M1097.49 823.441C1088.78 786.794 1133.91 777.953 1177.41 807.306C1167.22 746.59 1255.94 777.777 1282.44 810.621C1294.02 745.926 1401.97 851.379 1385.68 894.501H1059.73C979.346 865.768 1037.06 783.103 1097.57 823.441H1097.49Z" fill="#A7A17F"/>
<path d="M1539.3 378.512C1571.26 229.717 1211.89 338.727 1144.76 483.921C1153.27 550.582 1219.91 533.121 1237.15 593.882C1245.99 633.512 1325.45 665.782 1375.47 662.003C1505.88 642.309 1614.31 443.34 1539.3 378.512Z" fill="black"/>
<path d="M1148.32 480.826C1148.23 480.99 1148.11 481.135 1147.97 481.253C1147.82 481.37 1147.66 481.458 1147.48 481.512C1147.3 481.565 1147.11 481.583 1146.93 481.564C1146.74 481.545 1146.56 481.489 1146.4 481.401C1146.24 481.312 1146.09 481.192 1145.97 481.048C1145.86 480.903 1145.77 480.737 1145.71 480.558C1145.66 480.38 1145.64 480.192 1145.66 480.007C1145.68 479.822 1145.74 479.642 1145.82 479.478C1201.94 375.263 1334.96 313.707 1432.7 301.926C1458.03 298.876 1481.01 299.141 1499.71 302.855C1518.41 306.568 1533.18 313.906 1541.44 324.957C1551.68 338.529 1552.21 357.581 1539.23 382.27C1539.15 382.44 1539.03 382.591 1538.89 382.715C1538.74 382.839 1538.58 382.933 1538.4 382.991C1538.22 383.049 1538.03 383.07 1537.84 383.054C1537.65 383.037 1537.47 382.983 1537.3 382.894C1537.13 382.805 1536.98 382.684 1536.87 382.537C1536.75 382.39 1536.66 382.22 1536.6 382.038C1536.55 381.857 1536.54 381.666 1536.56 381.478C1536.58 381.29 1536.64 381.108 1536.73 380.944C1549.02 357.36 1548.65 339.346 1539.08 326.659C1531.27 316.271 1517.31 309.331 1499.09 305.706C1480.88 302.081 1457.98 301.794 1432.94 304.822C1336.06 316.625 1204.02 377.496 1148.32 480.826Z" fill="black"/>
<path fill-rule="evenodd" clip-rule="evenodd" d="M1406.31 720.354C1410.04 724.222 1432.59 736.4 1450.31 739.539C1495.6 747.54 1561.97 744.844 1562.81 720.531L1566.64 610.216L1615.62 595.959C1586.88 474.991 1379.6 478.815 1351.49 590.124L1400.47 604.381L1406.31 720.354Z" fill="#FFFAFF"/>
<path fill-rule="evenodd" clip-rule="evenodd" d="M1511.74 824.369L1501.28 822.513L1491.03 893.949C1525.28 893.949 1613.61 900.58 1628.7 881.019C1633.96 874.189 1611.18 869.127 1572.56 849.898C1547.39 837.366 1549.89 804.83 1511.74 824.369Z" fill="black"/>
<path fill-rule="evenodd" clip-rule="evenodd" d="M1518.5 894.501C1498.61 894.855 1495.38 892.048 1478.58 894.501C1124.01 875.825 1169.96 661.715 1401.33 735.826C1402.31 730.473 1403.98 725.271 1406.31 720.354C1447.62 731.405 1508.97 730.698 1562.81 720.53C1565.33 727.055 1567.19 733.816 1568.36 740.71C1834.86 640.828 1867.13 864.375 1518.5 894.501Z" fill="#EBA1B2"/>
<path d="M1488.95 824.723C1488.6 824.863 1488.21 824.86 1487.86 824.712C1487.52 824.565 1487.24 824.287 1487.1 823.938C1486.96 823.589 1486.96 823.199 1487.11 822.853C1487.26 822.506 1487.54 822.233 1487.89 822.092L1684.6 743.76C1684.95 743.635 1685.33 743.65 1685.66 743.801C1686 743.952 1686.26 744.228 1686.4 744.571C1686.53 744.913 1686.53 745.295 1686.39 745.634C1686.25 745.974 1685.98 746.245 1685.64 746.39L1488.93 824.723H1488.95Z" fill="black"/>
<path d="M1311.59 748.711C1311.24 748.579 1310.96 748.313 1310.8 747.971C1310.65 747.629 1310.63 747.24 1310.77 746.888C1310.9 746.536 1311.16 746.251 1311.51 746.096C1311.85 745.94 1312.24 745.927 1312.59 746.059L1500.11 817.628C1500.28 817.694 1500.44 817.794 1500.58 817.922C1500.72 818.05 1500.82 818.204 1500.9 818.375C1500.98 818.545 1501.02 818.729 1501.02 818.916C1501.03 819.102 1500.99 819.288 1500.93 819.462C1500.86 819.636 1500.77 819.795 1500.64 819.931C1500.51 820.066 1500.36 820.176 1500.19 820.252C1500.02 820.328 1499.84 820.37 1499.66 820.374C1499.47 820.379 1499.29 820.347 1499.11 820.28L1311.59 748.711Z" fill="black"/>
<path d="M1518.39 895.916C1510.23 896.048 1504.91 895.673 1500.26 895.341C1493.11 894.602 1485.89 894.795 1478.78 895.916H1478.43C1344.84 888.887 1267.83 854.075 1236.05 817.318C1222.79 802.001 1217.35 786.374 1218.87 772.008C1220.4 757.641 1228.91 744.865 1243.63 735.405C1273.05 716.485 1327.51 711.092 1400.25 733.991C1400.75 731.654 1401.37 729.345 1402.11 727.073C1402.88 724.534 1403.86 722.065 1405.04 719.69C1405.2 719.406 1405.44 719.181 1405.74 719.052C1406.04 718.924 1406.37 718.9 1406.68 718.983C1426.88 724.354 1451.9 726.918 1478.49 726.962C1506.67 726.931 1534.78 724.311 1562.48 719.138C1562.8 719.075 1563.13 719.122 1563.41 719.271C1563.7 719.42 1563.92 719.661 1564.05 719.956C1565.38 723.132 1566.47 726.405 1567.3 729.747C1568.07 732.753 1568.74 735.803 1569.36 738.787C1653.46 707.578 1714.28 708.573 1747.11 725.525C1763.46 733.969 1772.97 746.346 1775.07 760.735C1777.17 775.124 1771.86 791.215 1758.65 807.35C1727.02 845.986 1649.52 884.71 1518.54 895.938L1518.39 895.916ZM1500.46 892.512C1505.08 892.843 1510.39 893.219 1518.34 893.087C1648.46 881.836 1725.27 843.665 1756.48 805.538C1769.17 790.066 1774.16 774.594 1772.28 761.111C1770.4 747.628 1761.34 736.024 1745.76 727.957C1713.36 711.247 1652.93 710.451 1568.94 741.926L1568.61 742.036C1568.42 742.071 1568.23 742.07 1568.05 742.033C1567.87 741.995 1567.7 741.922 1567.54 741.817C1567.39 741.712 1567.26 741.578 1567.15 741.422C1567.05 741.266 1566.98 741.092 1566.95 740.909C1566.24 737.395 1565.47 733.77 1564.6 730.388C1563.89 727.563 1563 724.788 1561.93 722.077C1534.4 727.14 1506.46 729.7 1478.47 729.725C1452.12 729.725 1427.26 727.183 1407.03 721.945C1406.18 723.872 1405.44 725.85 1404.82 727.868C1403.96 730.533 1403.27 733.249 1402.75 736.002C1402.75 736.061 1402.75 736.12 1402.75 736.179C1402.69 736.358 1402.6 736.525 1402.48 736.669C1402.36 736.813 1402.21 736.932 1402.05 737.018C1401.88 737.105 1401.7 737.157 1401.51 737.172C1401.32 737.188 1401.13 737.165 1400.96 737.107C1328.37 713.855 1274.24 719.094 1245.22 737.726C1231.25 746.7 1223.12 758.768 1221.75 772.229C1220.38 785.689 1225.57 800.697 1238.26 815.395C1269.6 851.666 1345.9 886.014 1478.56 893.02C1485.83 891.888 1493.21 891.695 1500.53 892.446L1500.46 892.512Z" fill="black"/>
<path d="M1400.87 737.152C1400.51 737.029 1400.22 736.77 1400.06 736.432C1399.89 736.094 1399.87 735.705 1399.99 735.35C1400.12 734.996 1400.38 734.704 1400.71 734.541C1401.05 734.377 1401.44 734.354 1401.8 734.477C1405.1 735.641 1408.33 736.857 1411.5 738.124C1414.75 739.428 1417.82 740.71 1420.72 741.992C1421.06 742.145 1421.33 742.427 1421.46 742.777C1421.6 743.127 1421.59 743.517 1421.43 743.86C1421.28 744.203 1421 744.471 1420.65 744.606C1420.3 744.741 1419.91 744.731 1419.57 744.578C1416.58 743.274 1413.55 741.992 1410.44 740.754C1407.32 739.517 1404.23 738.367 1400.87 737.152Z" fill="black"/>
<path d="M1567.88 739.362C1568.23 739.236 1568.62 739.256 1568.96 739.418C1569.3 739.58 1569.56 739.87 1569.69 740.224C1569.81 740.579 1569.79 740.969 1569.63 741.309C1569.47 741.649 1569.18 741.911 1568.83 742.037C1564.13 743.716 1559.66 745.433 1555.43 747.187C1551.01 749.021 1546.86 750.9 1542.94 752.779C1542.78 752.868 1542.59 752.923 1542.4 752.94C1542.21 752.957 1542.02 752.935 1541.84 752.876C1541.66 752.818 1541.49 752.723 1541.35 752.598C1541.21 752.474 1541.09 752.321 1541.01 752.15C1540.92 751.979 1540.87 751.793 1540.87 751.603C1540.86 751.413 1540.88 751.223 1540.95 751.044C1541.01 750.866 1541.12 750.702 1541.25 750.563C1541.38 750.425 1541.53 750.314 1541.71 750.237C1545.69 748.314 1549.88 746.413 1554.33 744.578C1558.77 742.744 1563.17 741.064 1567.88 739.362Z" fill="black"/>
<path fill-rule="evenodd" clip-rule="evenodd" d="M1477.98 825.253L1488.42 823.419L1498.7 894.855C1464.44 894.855 1376.11 901.486 1360.99 881.903C1355.73 875.095 1378.54 870.011 1417.14 850.804C1442.31 838.25 1439.81 805.736 1477.98 825.253Z" fill="black"/>
<path fill-rule="evenodd" clip-rule="evenodd" d="M1402.26 639.944L1400.47 604.38L1351.49 590.124L1328.44 670.114L1234.19 705.633C1227.56 698.472 1217.17 691.266 1206.96 683.818C1196.97 696.836 1225.22 709.236 1212.93 714.762C1199.89 710.142 1210.72 683.155 1197.72 681.607C1198.47 674.689 1194.98 671.44 1188.42 671.064L1187.27 678.646C1187.4 678.861 1187.45 679.116 1187.42 679.367C1187.38 679.617 1187.26 679.847 1187.07 680.016L1187.27 678.646C1186.54 677.452 1183.27 676.833 1179.75 677.275C1177.01 685.851 1172.72 713.435 1180.19 731.515C1183.49 739.428 1211.98 747.319 1223.49 747.518C1267.08 749.242 1319.57 743.451 1356.42 729.703C1387.36 718.143 1397.75 680.856 1400.63 646.552C1401.13 644.431 1401.71 642.198 1402.26 639.944Z" fill="#F26E3F"/>
<path d="M1188.62 727.736C1188.75 728.088 1188.75 728.48 1188.59 728.826C1188.44 729.172 1188.16 729.444 1187.81 729.582C1187.46 729.72 1187.06 729.712 1186.72 729.561C1186.37 729.409 1186.1 729.127 1185.96 728.775C1179.33 711.734 1183.75 688.239 1186.1 676.038C1186.47 673.982 1186.8 672.258 1187.02 670.888C1187.08 670.516 1187.28 670.181 1187.58 669.957C1187.89 669.733 1188.27 669.639 1188.64 669.694C1189.01 669.75 1189.34 669.951 1189.57 670.254C1189.79 670.557 1189.89 670.936 1189.83 671.308C1189.63 672.59 1189.28 674.402 1188.88 676.568C1186.67 688.482 1182.25 711.469 1188.62 727.736Z" fill="black"/>
<path d="M1200.06 726.741C1200.16 726.919 1200.22 727.116 1200.23 727.317C1200.24 727.518 1200.21 727.72 1200.14 727.909C1200.08 728.099 1199.97 728.271 1199.83 728.416C1199.69 728.561 1199.52 728.674 1199.33 728.749C1199.14 728.824 1198.94 728.859 1198.74 728.851C1198.54 728.843 1198.34 728.793 1198.16 728.704C1197.98 728.614 1197.82 728.488 1197.69 728.332C1197.56 728.177 1197.47 727.997 1197.41 727.802C1195.03 720.945 1193.82 713.733 1193.85 706.473C1193.62 698.017 1194.46 689.566 1196.35 681.32C1196.48 680.994 1196.72 680.725 1197.03 680.565C1197.35 680.405 1197.71 680.365 1198.05 680.452C1198.39 680.539 1198.68 680.747 1198.88 681.037C1199.08 681.327 1199.16 681.68 1199.11 682.027C1197.28 689.996 1196.46 698.166 1196.68 706.34C1196.65 713.254 1197.79 720.124 1200.06 726.653V726.741Z" fill="black"/>
<path d="M1216.84 714.165C1217.02 714.189 1217.2 714.25 1217.36 714.344C1217.52 714.437 1217.66 714.561 1217.78 714.709C1217.89 714.856 1217.97 715.025 1218.02 715.205C1218.07 715.385 1218.08 715.572 1218.06 715.756C1218.03 715.941 1217.97 716.118 1217.88 716.279C1217.78 716.44 1217.66 716.581 1217.51 716.694C1217.36 716.807 1217.2 716.889 1217.02 716.937C1216.84 716.985 1216.65 716.997 1216.46 716.972C1213.45 716.703 1210.63 715.325 1208.57 713.104C1206.91 711.066 1205.65 708.724 1204.88 706.208C1204.82 706.032 1204.79 705.846 1204.8 705.66C1204.81 705.474 1204.86 705.291 1204.94 705.123C1205.02 704.955 1205.13 704.804 1205.27 704.679C1205.41 704.554 1205.57 704.458 1205.74 704.395C1205.92 704.333 1206.11 704.306 1206.29 704.315C1206.48 704.325 1206.66 704.371 1206.83 704.451C1207 704.531 1207.15 704.643 1207.27 704.782C1207.4 704.92 1207.49 705.082 1207.56 705.257C1208.21 707.424 1209.27 709.443 1210.7 711.203C1212.31 712.915 1214.5 713.97 1216.84 714.165Z" fill="black"/>
<path fill-rule="evenodd" clip-rule="evenodd" d="M1787.38 683.221C1783.84 682.779 1780.57 683.42 1779.84 684.591L1780.06 685.962C1779.88 685.791 1779.76 685.563 1779.72 685.314C1779.68 685.066 1779.72 684.812 1779.84 684.591L1778.69 677.01C1772.06 677.386 1768.66 680.635 1769.39 687.553C1756.48 689.034 1767.18 716.021 1754.2 720.707C1741.89 715.093 1770.14 702.693 1760.17 689.763C1749.96 697.212 1739.5 704.44 1732.94 711.579L1638.67 676.082L1615.62 596.092L1566.64 610.348L1564.85 645.911C1565.4 648.122 1566 650.332 1566.62 652.542C1569.36 686.846 1579.72 724.133 1610.69 735.693C1647.56 749.441 1700.05 755.232 1743.62 753.508C1755.15 753.309 1783.64 745.418 1786.92 737.505C1794.41 719.381 1790.1 691.797 1787.38 683.221Z" fill="#F26E3F"/>
<path d="M1781.15 734.676C1781.01 735.025 1780.74 735.305 1780.39 735.454C1780.05 735.603 1779.66 735.61 1779.31 735.472C1779.14 735.406 1778.98 735.306 1778.84 735.177C1778.71 735.049 1778.6 734.894 1778.53 734.723C1778.45 734.552 1778.41 734.368 1778.41 734.181C1778.41 733.995 1778.44 733.81 1778.52 733.638C1784.86 717.37 1780.5 694.383 1778.25 682.47C1777.83 680.259 1777.5 678.491 1777.3 677.209C1777.24 676.837 1777.34 676.458 1777.56 676.155C1777.79 675.853 1778.12 675.651 1778.49 675.596C1778.87 675.54 1779.24 675.634 1779.55 675.858C1779.85 676.082 1780.05 676.417 1780.11 676.789C1780.31 678.16 1780.64 679.884 1781.04 681.939C1783.25 694.14 1787.8 717.635 1781.04 734.676H1781.15Z" fill="black"/>
<path d="M1769.7 733.637C1769.56 733.986 1769.29 734.266 1768.94 734.415C1768.6 734.564 1768.21 734.57 1767.86 734.433C1767.51 734.29 1767.23 734.016 1767.08 733.668C1766.93 733.32 1766.93 732.928 1767.07 732.576C1769.34 726.048 1770.48 719.177 1770.43 712.264C1770.65 704.09 1769.84 695.921 1768.02 687.951C1767.97 687.603 1768.06 687.251 1768.25 686.96C1768.45 686.67 1768.75 686.462 1769.09 686.375C1769.43 686.288 1769.79 686.328 1770.1 686.488C1770.41 686.648 1770.65 686.917 1770.78 687.243C1772.66 695.445 1773.49 703.853 1773.26 712.264C1773.31 719.526 1772.1 726.742 1769.7 733.593V733.637Z" fill="black"/>
<path d="M1750.58 722.807C1750.39 722.832 1750.21 722.82 1750.03 722.772C1749.85 722.724 1749.68 722.641 1749.54 722.528C1749.39 722.415 1749.27 722.274 1749.18 722.113C1749.09 721.952 1749.03 721.775 1749.01 721.591C1748.98 721.407 1749 721.22 1749.04 721.04C1749.09 720.86 1749.17 720.691 1749.29 720.543C1749.4 720.396 1749.54 720.272 1749.7 720.178C1749.86 720.085 1750.04 720.024 1750.22 720C1752.57 719.805 1754.76 718.75 1756.37 717.038C1757.78 715.277 1758.84 713.257 1759.49 711.093C1759.62 710.741 1759.88 710.454 1760.22 710.293C1760.55 710.132 1760.94 710.109 1761.3 710.231C1761.48 710.29 1761.64 710.384 1761.78 710.509C1761.92 710.633 1762.03 710.784 1762.11 710.953C1762.19 711.123 1762.24 711.306 1762.25 711.494C1762.26 711.681 1762.23 711.868 1762.16 712.043C1761.41 714.567 1760.15 716.912 1758.47 718.939C1756.41 721.164 1753.6 722.543 1750.58 722.807Z" fill="black"/>
<path d="M1404.29 652.189C1404.3 652.375 1404.27 652.56 1404.21 652.735C1404.15 652.91 1404.05 653.071 1403.93 653.209C1403.8 653.346 1403.65 653.458 1403.48 653.537C1403.31 653.616 1403.13 653.661 1402.95 653.67C1402.76 653.679 1402.57 653.651 1402.4 653.588C1402.22 653.525 1402.06 653.428 1401.93 653.303C1401.79 653.177 1401.68 653.026 1401.6 652.858C1401.52 652.69 1401.47 652.507 1401.46 652.321L1397.66 576.421C1397.65 576.234 1397.68 576.047 1397.74 575.871C1397.8 575.694 1397.9 575.532 1398.02 575.394C1398.15 575.256 1398.3 575.144 1398.47 575.066C1398.64 574.988 1398.82 574.945 1399.01 574.94C1399.2 574.931 1399.38 574.959 1399.56 575.022C1399.73 575.084 1399.89 575.181 1400.03 575.307C1400.17 575.432 1400.28 575.583 1400.36 575.751C1400.44 575.92 1400.48 576.102 1400.49 576.288L1404.29 652.189Z" fill="black"/>
<path d="M1566.06 665.406C1566.06 665.592 1566.02 665.775 1565.95 665.946C1565.87 666.116 1565.77 666.27 1565.63 666.4C1565.5 666.529 1565.34 666.631 1565.17 666.699C1565 666.768 1564.81 666.801 1564.63 666.798C1564.25 666.787 1563.89 666.627 1563.63 666.354C1563.37 666.082 1563.23 665.717 1563.23 665.34L1565.44 573.901C1565.44 573.714 1565.48 573.529 1565.55 573.357C1565.63 573.185 1565.73 573.03 1565.87 572.9C1566 572.77 1566.16 572.668 1566.34 572.601C1566.51 572.534 1566.69 572.502 1566.88 572.508C1567.25 572.52 1567.61 572.676 1567.87 572.944C1568.13 573.212 1568.27 573.571 1568.27 573.945L1566.06 665.406Z" fill="black"/>
<path d="M1340.62 663.969C1340.96 663.886 1341.32 663.932 1341.63 664.097C1341.94 664.262 1342.18 664.535 1342.3 664.865C1342.42 665.194 1342.42 665.558 1342.29 665.885C1342.17 666.213 1341.92 666.483 1341.61 666.644L1285.36 687.951C1285.18 688.018 1285 688.051 1284.81 688.046C1284.63 688.041 1284.44 688 1284.27 687.924C1284.1 687.848 1283.95 687.739 1283.82 687.603C1283.69 687.467 1283.59 687.308 1283.52 687.133C1283.46 686.959 1283.42 686.773 1283.43 686.586C1283.43 686.4 1283.48 686.216 1283.55 686.045C1283.63 685.875 1283.74 685.721 1283.87 685.593C1284.01 685.465 1284.17 685.365 1284.34 685.298L1340.62 663.969Z" fill="black"/>
<path d="M1625.43 672.479C1625.08 672.345 1624.79 672.077 1624.64 671.734C1624.48 671.39 1624.46 670.999 1624.59 670.644C1624.73 670.295 1625 670.012 1625.34 669.856C1625.68 669.7 1626.07 669.681 1626.43 669.804L1682.86 691.067C1683.2 691.206 1683.49 691.474 1683.64 691.816C1683.8 692.158 1683.82 692.547 1683.7 692.902C1683.63 693.076 1683.53 693.236 1683.4 693.372C1683.27 693.508 1683.12 693.617 1682.95 693.693C1682.78 693.769 1682.59 693.81 1682.41 693.815C1682.22 693.82 1682.03 693.787 1681.86 693.72L1625.43 672.479Z" fill="black"/>
<path fill-rule="evenodd" clip-rule="evenodd" d="M1465.45 445.064C1470.82 437.682 1495.05 429.592 1499.03 433.195C1498.92 458.591 1507.25 495.326 1511.34 508.344C1495.87 517.627 1464.28 515.748 1450.84 509.604C1457.32 497.293 1466.14 454.502 1465.45 445.064Z" fill="#F26E3F"/>
<path d="M1513.15 505.139C1513.28 505.007 1513.43 504.902 1513.61 504.83C1513.78 504.758 1513.96 504.721 1514.14 504.721C1514.33 504.721 1514.51 504.758 1514.68 504.83C1514.86 504.902 1515.01 505.007 1515.14 505.139C1515.4 505.408 1515.55 505.769 1515.55 506.145C1515.55 506.521 1515.4 506.882 1515.14 507.15C1509.26 512.853 1497.46 515.395 1485.1 515.793C1470.12 516.257 1454.16 513.582 1447.35 509.427C1447.19 509.334 1447.05 509.209 1446.93 509.059C1446.82 508.91 1446.74 508.739 1446.69 508.558C1446.65 508.376 1446.64 508.187 1446.67 508.003C1446.7 507.818 1446.76 507.641 1446.86 507.482C1446.96 507.321 1447.08 507.179 1447.23 507.067C1447.37 506.954 1447.54 506.873 1447.72 506.827C1447.9 506.782 1448.09 506.773 1448.27 506.802C1448.45 506.831 1448.63 506.897 1448.79 506.996C1455.26 510.864 1470.51 513.406 1485.01 512.941C1496.73 512.588 1507.85 510.267 1513.17 505.117L1513.15 505.139Z" fill="black"/>
<path fill-rule="evenodd" clip-rule="evenodd" d="M1445.8 406.119C1439.7 403.024 1434.51 405.632 1434.18 411.932C1434.26 415.43 1435.27 418.844 1437.1 421.828C1438.93 424.812 1441.51 427.262 1444.59 428.929C1450.69 432.023 1455.9 429.437 1456.24 423.138C1456.15 419.633 1455.14 416.214 1453.31 413.225C1451.48 410.236 1448.89 407.785 1445.8 406.119Z" fill="#F26E3F"/>
<path d="M1439.44 412.816C1439.25 412.779 1439.07 412.705 1438.91 412.597C1438.75 412.489 1438.62 412.349 1438.51 412.187C1438.41 412.025 1438.34 411.844 1438.31 411.654C1438.28 411.465 1438.29 411.271 1438.33 411.084C1438.38 410.898 1438.46 410.723 1438.58 410.57C1438.7 410.417 1438.84 410.29 1439.01 410.195C1439.18 410.101 1439.36 410.041 1439.55 410.021C1439.75 410 1439.94 410.019 1440.12 410.075C1442.17 410.561 1443.95 411.79 1445.14 413.523C1446.34 415.418 1446.96 417.624 1446.91 419.867C1446.91 420.053 1446.88 420.239 1446.82 420.413C1446.75 420.587 1446.65 420.746 1446.52 420.88C1446.39 421.014 1446.23 421.121 1446.06 421.193C1445.89 421.266 1445.7 421.304 1445.52 421.303C1445.27 421.311 1445.03 421.253 1444.82 421.137C1444.6 421.02 1444.43 420.849 1444.3 420.64C1443.75 419.855 1443.1 419.149 1442.36 418.541C1441.74 418.031 1441.03 417.634 1440.28 417.369C1439.92 417.249 1439.62 416.992 1439.46 416.654C1439.29 416.316 1439.26 415.925 1439.38 415.568C1439.5 415.21 1439.76 414.915 1440.1 414.747C1440.44 414.579 1440.83 414.552 1441.18 414.673C1441.84 414.898 1442.48 415.202 1443.06 415.579L1442.8 415.115C1441.98 413.997 1440.79 413.213 1439.44 412.904V412.816Z" fill="black"/>
<path fill-rule="evenodd" clip-rule="evenodd" d="M1516.69 405.986C1504.57 405.566 1506.21 389.365 1497.32 383.883C1487.89 398.162 1461.19 406.826 1444.28 405.478C1442.89 436.422 1454.25 459.607 1478.8 459.431C1498.56 459.254 1508.93 446.987 1513.11 429.901C1527.05 434.322 1539.25 396.747 1516.78 406.03L1516.69 405.986Z" fill="#ED7C53"/>
<path fill-rule="evenodd" clip-rule="evenodd" d="M1502.21 389.254C1501.06 387.069 1499.38 385.207 1497.32 383.839C1487.89 398.117 1461.19 406.782 1444.28 405.433C1469.14 412.351 1496.51 397.896 1502.3 389.254H1502.21Z" fill="#F26E3F"/>
<path fill-rule="evenodd" clip-rule="evenodd" d="M1458.76 424.088C1458.12 423.942 1457.46 423.927 1456.82 424.044C1456.18 424.161 1455.57 424.408 1455.03 424.769C1454.48 425.129 1454.02 425.597 1453.66 426.143C1453.31 426.689 1453.07 427.301 1452.96 427.944C1452.84 428.586 1452.87 429.244 1453.02 429.878C1453.17 430.512 1453.45 431.108 1453.84 431.63C1454.23 432.153 1454.72 432.59 1455.28 432.916C1455.85 433.242 1456.47 433.449 1457.12 433.526C1458.34 433.67 1459.57 433.341 1460.55 432.607C1461.53 431.874 1462.2 430.791 1462.41 429.582C1462.62 428.372 1462.36 427.129 1461.68 426.107C1461 425.085 1459.95 424.363 1458.76 424.088Z" fill="#DE5138"/>
<path fill-rule="evenodd" clip-rule="evenodd" d="M1500.55 423.734C1499.62 423.569 1498.65 423.685 1497.79 424.067C1496.92 424.449 1496.18 425.08 1495.67 425.881C1495.16 426.681 1494.9 427.615 1494.92 428.564C1494.94 429.513 1495.24 430.434 1495.79 431.211C1496.33 431.988 1497.1 432.586 1497.98 432.929C1498.87 433.272 1499.83 433.345 1500.76 433.139C1501.69 432.932 1502.53 432.456 1503.19 431.769C1503.84 431.083 1504.28 430.217 1504.44 429.282C1504.55 428.662 1504.54 428.026 1504.4 427.411C1504.27 426.796 1504.01 426.214 1503.65 425.698C1503.29 425.183 1502.83 424.744 1502.3 424.407C1501.77 424.07 1501.17 423.841 1500.55 423.734Z" fill="#DE5138"/>
<path d="M1477.19 426.21C1477.56 426.21 1477.92 426.359 1478.19 426.624C1478.45 426.89 1478.6 427.249 1478.6 427.624C1478.6 428 1478.45 428.359 1478.19 428.625C1477.92 428.89 1477.56 429.039 1477.19 429.039C1476.97 429.008 1476.75 429.046 1476.55 429.15C1476.36 429.253 1476.2 429.415 1476.11 429.614C1476.03 429.911 1476.03 430.223 1476.11 430.52C1476.16 430.873 1476.31 431.207 1476.53 431.492C1476.65 431.697 1476.84 431.855 1477.06 431.943C1477.29 432.03 1477.53 432.043 1477.76 431.979C1478.12 431.87 1478.51 431.91 1478.84 432.088C1479.18 432.266 1479.42 432.569 1479.53 432.929C1479.64 433.29 1479.6 433.678 1479.42 434.01C1479.24 434.342 1478.94 434.589 1478.58 434.697C1477.78 434.972 1476.91 434.971 1476.11 434.695C1475.31 434.419 1474.62 433.883 1474.16 433.172C1473.69 432.514 1473.37 431.759 1473.23 430.962C1473.08 430.17 1473.15 429.352 1473.43 428.597C1473.7 427.846 1474.2 427.202 1474.87 426.763C1475.54 426.324 1476.33 426.115 1477.12 426.166L1477.19 426.21Z" fill="black"/>
<path d="M1472.3 405.035C1472.67 405.106 1473 405.32 1473.21 405.631C1473.42 405.942 1473.5 406.324 1473.43 406.693C1473.36 407.062 1473.15 407.389 1472.84 407.6C1472.53 407.811 1472.14 407.891 1471.77 407.82C1468.73 407.461 1465.65 407.543 1462.62 408.064C1459.71 408.32 1456.85 409.029 1454.16 410.163C1454 410.275 1453.83 410.355 1453.64 410.397C1453.45 410.439 1453.26 410.442 1453.07 410.408C1452.88 410.373 1452.71 410.3 1452.55 410.194C1452.39 410.088 1452.25 409.951 1452.15 409.791C1452.04 409.631 1451.97 409.451 1451.94 409.263C1451.9 409.075 1451.91 408.881 1451.95 408.695C1452 408.509 1452.08 408.333 1452.19 408.179C1452.3 408.025 1452.45 407.896 1452.61 407.798C1455.65 406.421 1458.9 405.562 1462.23 405.256C1465.56 404.696 1468.95 404.621 1472.3 405.035Z" fill="black"/>
<path d="M1503.78 407.246C1503.95 407.322 1504.1 407.431 1504.23 407.568C1504.36 407.704 1504.45 407.865 1504.52 408.04C1504.58 408.215 1504.61 408.402 1504.6 408.588C1504.59 408.774 1504.54 408.957 1504.46 409.125C1504.3 409.466 1504.01 409.729 1503.65 409.858C1503.3 409.986 1502.91 409.969 1502.56 409.81C1499.9 408.603 1497.05 407.855 1494.14 407.599C1491.29 407.38 1488.43 407.38 1485.59 407.599C1485.4 407.614 1485.21 407.592 1485.04 407.533C1484.86 407.474 1484.69 407.379 1484.55 407.256C1484.41 407.132 1484.3 406.981 1484.22 406.812C1484.14 406.643 1484.09 406.46 1484.08 406.273C1484.07 405.899 1484.19 405.533 1484.44 405.252C1484.69 404.972 1485.04 404.799 1485.41 404.77C1488.4 404.518 1491.41 404.518 1494.41 404.77C1497.65 405.027 1500.82 405.85 1503.78 407.202V407.246Z" fill="black"/>
<path d="M1483.97 437.88C1484.19 437.57 1484.51 437.355 1484.88 437.285C1485.25 437.214 1485.63 437.293 1485.94 437.504C1486.25 437.716 1486.47 438.041 1486.54 438.41C1486.61 438.779 1486.53 439.161 1486.32 439.472C1485.9 440.074 1485.43 440.637 1484.9 441.151C1483.41 442.621 1481.48 443.554 1479.4 443.804C1477.15 444.019 1474.9 443.406 1473.08 442.08C1472.37 441.598 1471.72 441.043 1471.13 440.422C1471 440.287 1470.9 440.128 1470.83 439.954C1470.77 439.78 1470.73 439.594 1470.74 439.407C1470.75 439.03 1470.9 438.672 1471.18 438.411C1471.45 438.15 1471.81 438.008 1472.19 438.016C1472.57 438.025 1472.93 438.182 1473.19 438.455C1473.64 438.945 1474.14 439.382 1474.69 439.759C1475.96 440.697 1477.54 441.138 1479.11 440.997C1480.57 440.813 1481.92 440.152 1482.96 439.118C1483.34 438.736 1483.69 438.322 1484 437.88H1483.97Z" fill="black"/>
<path d="M1503.71 417.524C1503.93 417.216 1504.25 417.006 1504.62 416.94C1504.99 416.874 1505.37 416.956 1505.68 417.17C1505.99 417.388 1506.2 417.719 1506.27 418.092C1506.33 418.464 1506.25 418.848 1506.03 419.159C1504.51 421.369 1500.6 422.651 1496.24 422.74C1492.3 422.901 1488.4 421.926 1484.99 419.933C1484.71 419.72 1484.51 419.408 1484.44 419.057C1484.38 418.707 1484.45 418.345 1484.64 418.043C1484.83 417.742 1485.12 417.523 1485.47 417.43C1485.81 417.338 1486.18 417.379 1486.49 417.546C1489.44 419.226 1492.79 420.046 1496.18 419.911C1499.69 419.911 1502.7 418.938 1503.71 417.524Z" fill="black"/>
<path d="M1507.01 419.447C1507.37 419.526 1507.69 419.748 1507.89 420.063C1508.1 420.378 1508.17 420.76 1508.09 421.127C1508.05 421.309 1507.98 421.483 1507.87 421.637C1507.77 421.791 1507.63 421.922 1507.48 422.023C1507.32 422.124 1507.15 422.193 1506.96 422.225C1506.78 422.257 1506.59 422.252 1506.41 422.21C1505.82 422.092 1505.23 421.929 1504.66 421.723C1504.08 421.505 1503.51 421.254 1502.96 420.972C1502.63 420.799 1502.38 420.5 1502.26 420.142C1502.15 419.783 1502.18 419.394 1502.35 419.06C1502.53 418.726 1502.82 418.474 1503.18 418.36C1503.54 418.246 1503.93 418.279 1504.26 418.452C1504.7 418.692 1505.16 418.892 1505.64 419.049C1506.08 419.208 1506.54 419.341 1507.01 419.447Z" fill="black"/>
<path d="M1504.46 421.502C1504.79 421.684 1505.04 421.99 1505.15 422.352C1505.25 422.715 1505.21 423.105 1505.03 423.436C1504.85 423.767 1504.54 424.013 1504.18 424.119C1503.81 424.224 1503.42 424.182 1503.09 424C1502.56 423.702 1502.05 423.37 1501.57 423.005C1501.07 422.638 1500.6 422.239 1500.15 421.812C1499.88 421.548 1499.73 421.188 1499.73 420.811C1499.72 420.433 1499.87 420.07 1500.13 419.8C1500.39 419.531 1500.76 419.377 1501.13 419.373C1501.51 419.368 1501.87 419.514 1502.14 419.778C1502.49 420.125 1502.87 420.443 1503.27 420.729C1503.65 421.019 1504.04 421.278 1504.46 421.502Z" fill="black"/>
<path d="M1451.13 419.203C1450.92 418.899 1450.83 418.524 1450.89 418.158C1450.95 417.791 1451.14 417.461 1451.44 417.236C1451.59 417.125 1451.76 417.044 1451.94 417C1452.12 416.955 1452.31 416.947 1452.5 416.975C1452.68 417.004 1452.86 417.069 1453.02 417.167C1453.18 417.265 1453.32 417.394 1453.43 417.546C1454.51 419.027 1457.61 420.065 1461.21 420.242C1464.56 420.459 1467.9 419.691 1470.82 418.032C1470.98 417.928 1471.16 417.857 1471.35 417.823C1471.53 417.789 1471.72 417.793 1471.91 417.834C1472.09 417.876 1472.27 417.953 1472.42 418.063C1472.57 418.173 1472.71 418.313 1472.8 418.474C1472.9 418.635 1472.97 418.815 1473 419.002C1473.03 419.189 1473.02 419.38 1472.97 419.563C1472.92 419.747 1472.84 419.919 1472.73 420.07C1472.61 420.221 1472.47 420.347 1472.3 420.441C1468.89 422.378 1464.99 423.27 1461.08 423.005C1456.66 422.806 1452.7 421.303 1451.13 419.137V419.203Z" fill="black"/>
<path d="M1451.13 422.077C1450.76 422.155 1450.38 422.086 1450.07 421.883C1449.75 421.679 1449.53 421.36 1449.45 420.994C1449.38 420.625 1449.45 420.242 1449.65 419.925C1449.85 419.608 1450.17 419.381 1450.53 419.292C1451 419.203 1451.46 419.078 1451.9 418.916C1452.37 418.739 1452.83 418.54 1453.27 418.319C1453.61 418.148 1453.99 418.114 1454.35 418.226C1454.7 418.338 1455 418.586 1455.17 418.916C1455.35 419.251 1455.38 419.64 1455.27 419.999C1455.16 420.359 1454.91 420.66 1454.58 420.839C1454.03 421.123 1453.46 421.367 1452.88 421.568C1452.31 421.781 1451.72 421.951 1451.13 422.077Z" fill="black"/>
<path d="M1454.33 423.867C1454.17 423.957 1453.99 424.014 1453.8 424.034C1453.62 424.055 1453.43 424.038 1453.25 423.986C1453.07 423.934 1452.9 423.846 1452.76 423.729C1452.61 423.612 1452.49 423.468 1452.4 423.304C1452.31 423.14 1452.25 422.959 1452.23 422.774C1452.21 422.588 1452.23 422.399 1452.28 422.22C1452.33 422.04 1452.42 421.873 1452.54 421.727C1452.66 421.581 1452.8 421.46 1452.96 421.37C1453.39 421.148 1453.79 420.897 1454.18 420.618C1454.56 420.309 1454.93 419.999 1455.28 419.646C1455.55 419.382 1455.91 419.235 1456.29 419.235C1456.67 419.235 1457.03 419.382 1457.3 419.646C1457.43 419.775 1457.53 419.93 1457.61 420.101C1457.68 420.272 1457.71 420.455 1457.71 420.64C1457.71 420.825 1457.68 421.009 1457.61 421.18C1457.53 421.35 1457.43 421.505 1457.3 421.635C1456.85 422.07 1456.38 422.476 1455.88 422.85C1455.39 423.208 1454.89 423.533 1454.36 423.823L1454.33 423.867Z" fill="black"/>
<path d="M1521.86 410.075C1522.04 410.019 1522.24 410 1522.43 410.021C1522.62 410.041 1522.8 410.101 1522.97 410.195C1523.14 410.29 1523.28 410.417 1523.4 410.57C1523.52 410.723 1523.6 410.898 1523.65 411.084C1523.69 411.271 1523.7 411.464 1523.67 411.654C1523.64 411.844 1523.57 412.025 1523.47 412.187C1523.36 412.349 1523.23 412.489 1523.07 412.597C1522.91 412.705 1522.73 412.779 1522.54 412.816C1521.2 413.13 1520.01 413.913 1519.18 415.026L1518.92 415.49C1519.51 415.118 1520.14 414.813 1520.8 414.584C1520.97 414.526 1521.16 414.502 1521.35 414.516C1521.53 414.53 1521.71 414.581 1521.88 414.665C1522.05 414.749 1522.2 414.865 1522.32 415.007C1522.44 415.149 1522.53 415.313 1522.59 415.49C1522.65 415.666 1522.68 415.852 1522.67 416.038C1522.65 416.224 1522.61 416.405 1522.52 416.572C1522.44 416.739 1522.33 416.888 1522.19 417.01C1522.04 417.131 1521.88 417.223 1521.7 417.281C1520.95 417.546 1520.24 417.942 1519.63 418.452C1518.89 419.067 1518.24 419.772 1517.68 420.552C1517.56 420.76 1517.38 420.932 1517.16 421.048C1516.95 421.165 1516.71 421.222 1516.47 421.215C1516.28 421.215 1516.09 421.178 1515.92 421.105C1515.75 421.032 1515.59 420.926 1515.46 420.792C1515.33 420.658 1515.23 420.499 1515.17 420.325C1515.1 420.151 1515.07 419.965 1515.07 419.778C1515.04 417.537 1515.65 415.334 1516.84 413.435C1518.03 411.702 1519.82 410.472 1521.86 409.987V410.075Z" fill="black"/>
<path d="M1511.62 429.68C1511.64 429.495 1511.7 429.315 1511.79 429.152C1511.88 428.988 1512 428.845 1512.15 428.729C1512.29 428.614 1512.46 428.529 1512.64 428.48C1512.82 428.43 1513.01 428.418 1513.19 428.442C1513.57 428.492 1513.91 428.687 1514.14 428.985C1514.37 429.282 1514.48 429.659 1514.43 430.034C1513.48 437.559 1510.06 444.556 1504.71 449.926C1497.46 457.242 1488.2 460.425 1484.28 460.491C1483.91 460.491 1483.55 460.342 1483.28 460.077C1483.02 459.812 1482.87 459.452 1482.87 459.077C1482.87 458.702 1483.02 458.342 1483.28 458.077C1483.55 457.811 1483.91 457.662 1484.28 457.662C1487.75 457.662 1496.06 454.678 1502.74 447.937C1507.6 443.015 1510.71 436.631 1511.58 429.769L1511.62 429.68Z" fill="black"/>
<path fill-rule="evenodd" clip-rule="evenodd" d="M1855.48 841.433C1861.95 814.069 1828.25 807.461 1795.8 829.387C1803.4 784.032 1737.16 807.284 1717.36 831.862C1708.72 783.546 1628.08 862.298 1640.26 894.501H1883.73C1943.76 873.106 1900.66 811.307 1855.48 841.455V841.433Z" fill="#8C9152"/>
<path d="M789.484 896C789.324 896 789.165 895.961 789.017 895.886C788.869 895.81 788.734 895.7 788.621 895.561C788.508 895.421 788.418 895.256 788.357 895.074C788.295 894.892 788.264 894.697 788.264 894.5C788.264 894.102 788.392 893.721 788.621 893.439C788.85 893.158 789.16 893 789.484 893H1919.04C1919.37 893 1919.68 893.158 1919.91 893.439C1920.14 893.721 1920.26 894.102 1920.26 894.5C1920.26 894.697 1920.23 894.892 1920.17 895.074C1920.11 895.256 1920.02 895.421 1919.91 895.561C1919.79 895.7 1919.66 895.81 1919.51 895.886C1919.36 895.961 1919.2 896 1919.04 896H789.484Z" fill="black"/>
<defs>
<filter id="filter0_d_48_6598" x="101" y="141" width="47.624" height="64.228" filterUnits="userSpaceOnUse" color-interpolation-filters="sRGB">
<feFlood flood-opacity="0" result="BackgroundImageFix"/>
<feColorMatrix in="SourceAlpha" type="matrix" values="0 0 0 0 0 0 0 0 0 0 0 0 0 0 0 0 0 0 127 0" result="hardAlpha"/>
<feOffset dy="4"/>
<feGaussianBlur stdDeviation="2"/>
<feComposite in2="hardAlpha" operator="out"/>
<feColorMatrix type="matrix" values="0 0 0 0 0 0 0 0 0 0 0 0 0 0 0 0 0 0 0.25 0"/>
<feBlend mode="normal" in2="BackgroundImageFix" result="effect1_dropShadow_48_6598"/>
<feBlend mode="normal" in="SourceGraphic" in2="effect1_dropShadow_48_6598" result="shape"/>
</filter>
</defs>
</svg>
