<svg width="389" height="345" viewBox="0 0 389 345" fill="none" xmlns="http://www.w3.org/2000/svg">
<path fill-rule="evenodd" clip-rule="evenodd" d="M200.085 25.7148C226.953 25.7148 253.217 33.6822 275.556 48.6093C297.896 63.5364 315.307 84.7528 325.589 109.576C335.87 134.398 338.56 161.712 333.318 188.064C328.075 214.415 315.136 238.62 296.137 257.618C277.138 276.616 252.932 289.553 226.581 294.793C200.229 300.034 172.915 297.342 148.093 287.059C123.271 276.776 102.056 259.363 87.1303 237.022C72.2048 214.681 64.2393 188.417 64.2412 161.549C64.2412 143.71 67.755 126.046 74.5819 109.565C81.4088 93.0844 91.4151 78.1098 104.029 65.4963C116.644 52.8828 131.619 42.8775 148.1 36.0518C164.582 29.2261 182.246 25.7136 200.085 25.7148Z" fill="#E85463"/>
<path fill-rule="evenodd" clip-rule="evenodd" d="M74.0844 58.6929C78.6112 58.6914 83.066 59.8262 87.0405 61.9931C91.0149 64.1601 94.382 67.29 96.8329 71.0959C98.2326 70.6876 99.6831 70.4795 101.141 70.4776C103.675 70.4795 106.169 71.1114 108.398 72.3165C110.627 73.5217 112.521 75.2622 113.91 77.3814C115.3 79.5007 116.14 81.9321 116.356 84.4568C116.572 86.9816 116.157 89.5204 115.148 91.8448H29.0125C28.3647 89.8782 28.0385 87.82 28.0465 85.7495C28.05 82.678 28.7969 79.653 30.2234 76.9328C31.6499 74.2127 33.7137 71.8783 36.2385 70.129C38.7632 68.3797 41.6738 67.2676 44.7217 66.8876C47.7696 66.5076 50.8643 66.871 53.7412 67.9468C56.2801 65.0402 59.4117 62.7105 62.9255 61.1144C66.4393 59.5183 70.254 58.6926 74.1134 58.6929H74.0844Z" fill="white"/>
<path d="M74.0845 58.0745C78.6366 58.0684 83.1196 59.1868 87.1354 61.3304C91.1512 63.4739 94.5753 66.5762 97.1035 70.3616C97.6853 70.2082 98.2755 70.0888 98.8712 70.0042C99.6231 69.8963 100.382 69.8415 101.141 69.84C105.355 69.8425 109.395 71.5175 112.374 74.4969C115.354 77.4763 117.029 81.5166 117.031 85.7301C117.03 86.8202 116.92 87.9074 116.703 88.9757C116.482 90.0349 116.158 91.0702 115.737 92.0668L115.573 92.4435H28.6359L28.491 92.0185C28.1487 91.0112 27.8903 89.9773 27.7182 88.9274C27.2543 86.1172 27.4075 83.2397 28.1672 80.4946C28.9269 77.7495 30.275 75.2027 32.1177 73.0309C33.9605 70.859 36.2539 69.1143 38.8386 67.9177C41.4233 66.7212 44.2376 66.1015 47.0858 66.1017C49.2999 66.0935 51.4989 66.466 53.5867 67.2029C56.1399 64.3734 59.2469 62.0983 62.7151 60.5184C66.3041 58.8891 70.201 58.0491 74.1425 58.0552L74.0845 58.0745ZM86.7194 62.5276C81.446 59.6491 75.3487 58.6546 69.434 59.7083C63.5192 60.762 58.1406 63.8009 54.1857 68.3234L53.8959 68.6518L53.4998 68.4973C52.4685 68.1109 51.405 67.8168 50.3218 67.6183C49.2342 67.4269 48.1321 67.33 47.0279 67.3285C42.1603 67.3285 37.492 69.2621 34.0501 72.704C30.6082 76.146 28.6745 80.8142 28.6745 85.6818C28.671 86.685 28.7518 87.6867 28.916 88.6763C29.0487 89.5136 29.2424 90.3401 29.4956 91.1492H114.761C115.086 90.3492 115.338 89.5216 115.515 88.6763C115.958 86.5445 115.921 84.3407 115.406 82.225C114.891 80.1094 113.911 78.1351 112.537 76.4458C111.163 74.7565 109.43 73.3946 107.464 72.4591C105.498 71.5236 103.348 71.0381 101.17 71.0378C100.469 71.037 99.7685 71.0854 99.074 71.1827C98.3846 71.2804 97.7034 71.429 97.0359 71.627L96.5915 71.7526L96.3404 71.3662C93.9401 67.6404 90.6416 64.5778 86.7483 62.46L86.7194 62.5276Z" fill="black"/>
<path fill-rule="evenodd" clip-rule="evenodd" d="M280.772 31.0664C283.807 31.0679 286.793 31.8298 289.457 33.2827C292.122 34.7356 294.379 36.833 296.024 39.3834C296.967 39.114 297.942 38.9775 298.922 38.9777C300.268 38.9777 301.601 39.2428 302.844 39.7578C304.088 40.2729 305.218 41.0278 306.169 41.9795C307.121 42.9312 307.876 44.061 308.391 45.3045C308.906 46.5479 309.171 47.8807 309.171 49.2266C309.174 50.6328 308.885 52.0242 308.321 53.3126H250.518C249.871 51.3924 249.69 49.3459 249.991 47.3422C250.291 45.3385 251.064 43.435 252.246 41.789C253.428 40.1431 254.984 38.8019 256.786 37.8764C258.589 36.9508 260.585 36.4675 262.612 36.4662C264.143 36.4612 265.662 36.7361 267.094 37.2776C268.796 35.324 270.899 33.7586 273.258 32.687C275.618 31.6155 278.18 31.0629 280.772 31.0664Z" fill="white"/>
<path d="M280.772 30.4385C283.837 30.4399 286.856 31.1905 289.565 32.6249C292.273 34.0593 294.591 36.134 296.315 38.6685C296.668 38.5806 297.026 38.5128 297.387 38.4657C297.898 38.3883 298.415 38.3496 298.932 38.3498C301.816 38.3523 304.581 39.4991 306.621 41.5383C308.66 43.5776 309.807 46.3426 309.809 49.2265C309.805 50.719 309.496 52.1949 308.901 53.5637L308.737 53.9308H250.074L249.929 53.5154C249.701 52.8248 249.526 52.1175 249.407 51.4C249.291 50.6813 249.233 49.9545 249.233 49.2265C249.231 47.4685 249.575 45.7271 250.246 44.1023C250.918 42.4774 251.903 41.0009 253.146 39.7573C254.388 38.5137 255.864 37.5275 257.489 36.855C259.113 36.1825 260.854 35.837 262.612 35.8383C263.416 35.839 264.218 35.9134 265.008 36.0604C265.664 36.1735 266.31 36.3382 266.94 36.5531C268.693 34.6226 270.832 33.081 273.218 32.0279C275.603 30.9747 278.183 30.4333 280.791 30.4385H280.772ZM289.157 33.8097C285.656 31.8976 281.608 31.2382 277.682 31.9409C273.756 32.6436 270.187 34.6661 267.567 37.6736L267.278 37.9924L266.882 37.8475C266.204 37.5857 265.502 37.3916 264.785 37.2679C263.035 36.9495 261.237 37.0195 259.517 37.473C257.796 37.9265 256.197 38.7524 254.831 39.8923C253.466 41.0322 252.367 42.4582 251.614 44.0695C250.86 45.6808 250.469 47.438 250.47 49.2169C250.472 49.8642 250.527 50.5104 250.634 51.1488C250.711 51.6552 250.824 52.1556 250.972 52.646H307.964C308.15 52.1564 308.295 51.6524 308.399 51.1391C308.534 50.504 308.602 49.8565 308.602 49.2072C308.602 46.6453 307.584 44.1883 305.772 42.3768C303.961 40.5653 301.504 39.5476 298.942 39.5476C298.483 39.545 298.024 39.5773 297.57 39.6442C297.117 39.7099 296.668 39.8068 296.228 39.9339L295.783 40.0692L295.532 39.6731C293.936 37.2027 291.748 35.1705 289.166 33.7614L289.157 33.8097Z" fill="black"/>
<path d="M323.071 92.0499L323.072 92.0499C329.059 92.0472 334.952 93.5477 340.209 96.4138C345.466 99.28 349.92 103.42 353.161 108.454L353.338 108.729L353.652 108.637C357.304 107.566 361.186 107.557 364.842 108.613C368.499 109.669 371.779 111.745 374.298 114.598C376.817 117.452 378.471 120.964 379.065 124.723C379.644 128.389 379.193 132.141 377.765 135.562H262.995C261.574 131.16 261.398 126.447 262.492 121.948C263.611 117.347 266.01 113.158 269.413 109.865C272.816 106.573 277.082 104.313 281.717 103.346C286.352 102.38 291.166 102.747 295.601 104.406L295.884 104.512L296.083 104.284C299.444 100.432 303.593 97.3471 308.249 95.2365C312.904 93.1259 317.959 92.0393 323.071 92.0499Z" fill="white" stroke="black" stroke-width="0.874067"/>
<path fill-rule="evenodd" clip-rule="evenodd" d="M41.2609 247.027C38.5755 200.245 10.4369 220.424 41.2609 247.027Z" fill="#80854D"/>
<path fill-rule="evenodd" clip-rule="evenodd" d="M45.4339 285.231C3.69461 223.023 -0.932362 292.64 45.4339 285.231Z" fill="#80854D"/>
<path d="M48.3899 286.033C48.5397 286.1 48.6565 286.225 48.7144 286.379C48.7724 286.533 48.7668 286.704 48.6989 286.854C48.631 287.004 48.5064 287.12 48.3524 287.178C48.1985 287.236 48.0277 287.231 47.8779 287.163C42.2121 284.624 36.7706 281.613 31.611 278.16C25.8879 274.286 20.5821 269.828 15.7789 264.859C15.7224 264.8 15.678 264.731 15.6482 264.656C15.6184 264.58 15.6037 264.5 15.6051 264.419C15.6064 264.337 15.6237 264.257 15.656 264.183C15.6883 264.108 15.735 264.041 15.7934 263.984C15.8517 263.928 15.9206 263.884 15.9961 263.854C16.0716 263.824 16.1523 263.809 16.2335 263.811C16.3146 263.812 16.3948 263.829 16.4692 263.862C16.5437 263.894 16.6111 263.941 16.6676 263.999C21.4169 268.903 26.6611 273.302 32.3162 277.126C37.4156 280.545 42.796 283.524 48.3995 286.033H48.3899Z" fill="black"/>
<path fill-rule="evenodd" clip-rule="evenodd" d="M145.653 47.5167C109.381 53.921 107.111 1.96179 145.653 47.5167Z" fill="#8C9152"/>
<path d="M147.923 47.7581C147.999 47.7848 148.07 47.8262 148.131 47.8802C148.192 47.9342 148.241 47.9996 148.276 48.0727C148.312 48.1458 148.333 48.2252 148.337 48.3063C148.342 48.3874 148.331 48.4686 148.304 48.5454C148.278 48.6221 148.236 48.6929 148.182 48.7536C148.128 48.8143 148.063 48.8638 147.99 48.8992C147.916 48.9346 147.837 48.9553 147.756 48.9601C147.675 48.9648 147.594 48.9536 147.517 48.9269C143.181 47.4516 138.979 45.6063 134.959 43.4113C130.506 40.9535 126.321 38.0399 122.469 34.7176C122.341 34.6113 122.261 34.4584 122.245 34.2927C122.23 34.1269 122.281 33.9618 122.387 33.8337C122.494 33.7056 122.647 33.625 122.812 33.6096C122.978 33.5942 123.143 33.6453 123.271 33.7516C127.07 37.0375 131.201 39.9187 135.597 42.3487C139.545 44.5031 143.668 46.3191 147.923 47.7774V47.7581Z" fill="black"/>
<path fill-rule="evenodd" clip-rule="evenodd" d="M35.465 12.3072C12.3881 -13.7738 -15.7891 9.2258 35.465 12.3072Z" fill="#80854D"/>
<path d="M-60.4163 125.779C-60.4629 125.712 -60.4955 125.636 -60.5119 125.556C-60.5284 125.476 -60.5286 125.393 -60.5123 125.313C-60.4961 125.232 -60.4638 125.156 -60.4175 125.089C-60.3711 125.021 -60.3116 124.964 -60.2425 124.92C-60.1753 124.874 -60.0997 124.842 -60.0201 124.825C-59.9405 124.809 -59.8584 124.808 -59.7785 124.823C-59.6987 124.839 -59.6226 124.87 -59.5547 124.914C-59.4868 124.959 -59.4284 125.017 -59.3827 125.084C-50.6891 137.98 -40.7396 148.393 -29.4378 155.85C-18.654 163.052 -6.25655 167.475 6.65059 168.726C6.73606 168.727 6.82039 168.746 6.89826 168.781C6.97612 168.816 7.04584 168.867 7.10299 168.931C7.16014 168.995 7.20349 169.069 7.23031 169.15C7.25712 169.232 7.26681 169.317 7.25877 169.403C7.25073 169.488 7.22514 169.57 7.1836 169.645C7.14206 169.72 7.08547 169.785 7.01743 169.837C6.94938 169.888 6.87135 169.925 6.78826 169.945C6.70517 169.965 6.61882 169.968 6.53468 169.953C-6.59363 168.7 -19.206 164.209 -30.172 156.883C-41.58 149.339 -51.7227 138.81 -60.4163 125.779Z" fill="black"/>
<path fill-rule="evenodd" clip-rule="evenodd" d="M357.17 123.026C385.782 115.25 368.009 76.3605 357.17 123.026Z" fill="#8C9152"/>
<path d="M356.398 124.833C356.341 124.891 356.274 124.938 356.199 124.97C356.125 125.002 356.045 125.02 355.963 125.021C355.882 125.022 355.802 125.008 355.726 124.978C355.651 124.948 355.582 124.904 355.523 124.847C355.465 124.791 355.418 124.723 355.386 124.649C355.354 124.574 355.336 124.494 355.335 124.413C355.334 124.332 355.348 124.251 355.378 124.176C355.408 124.1 355.452 124.031 355.509 123.973C358.1 121.318 360.462 118.448 362.57 115.395C364.91 111.995 366.888 108.359 368.472 104.548C368.548 104.414 368.67 104.313 368.816 104.263C368.961 104.214 369.12 104.22 369.261 104.279C369.403 104.339 369.518 104.448 369.584 104.586C369.65 104.725 369.664 104.883 369.622 105.031C368.008 108.915 366.001 112.624 363.633 116.1C361.48 119.194 359.073 122.102 356.436 124.794L356.398 124.833Z" fill="black"/>
<path fill-rule="evenodd" clip-rule="evenodd" d="M294.672 158.757C338.469 124.997 334.479 158.815 294.672 158.757Z" fill="#8C9152"/>
<path fill-rule="evenodd" clip-rule="evenodd" d="M288.22 171.479C343.434 143.882 329.418 176.637 288.22 171.479Z" fill="#80854D"/>
<path fill-rule="evenodd" clip-rule="evenodd" d="M299.714 146.548C332.857 105.909 332.422 141.341 299.714 146.548Z" fill="#80854D"/>
<path fill-rule="evenodd" clip-rule="evenodd" d="M302.033 139.303C325.419 112.913 297.203 86.9571 302.033 139.303Z" fill="#80854D"/>
<path fill-rule="evenodd" clip-rule="evenodd" d="M301.067 142.471C308.534 111.415 271.895 103.707 301.067 142.471Z" fill="#8C9152"/>
<path fill-rule="evenodd" clip-rule="evenodd" d="M297.222 153.039C300.371 122.128 262.351 113.241 297.222 153.039Z" fill="#8C9152"/>
<path fill-rule="evenodd" clip-rule="evenodd" d="M291.688 164.543C297.155 132.869 254.421 118.177 291.688 164.543Z" fill="#8C9152"/>
<path fill-rule="evenodd" clip-rule="evenodd" d="M277.024 187.842C329.485 183.264 322.801 145.04 277.024 187.842Z" fill="#80854D"/>
<path fill-rule="evenodd" clip-rule="evenodd" d="M283.834 178.492C293.397 147.243 255.271 127.847 283.834 178.492Z" fill="#80854D"/>
<path d="M301.675 138.327C301.697 138.248 301.733 138.174 301.783 138.11C301.833 138.045 301.895 137.991 301.966 137.951C302.037 137.91 302.115 137.884 302.197 137.874C302.278 137.864 302.36 137.87 302.438 137.892C302.597 137.939 302.73 138.047 302.809 138.192C302.889 138.336 302.908 138.506 302.863 138.665C299.673 149.867 295.132 160.64 289.34 170.745C283.602 180.766 276.646 190.039 268.63 198.352C268.573 198.41 268.505 198.456 268.431 198.487C268.356 198.519 268.276 198.535 268.195 198.535C268.114 198.535 268.034 198.519 267.959 198.487C267.885 198.456 267.817 198.41 267.76 198.352C267.702 198.295 267.657 198.228 267.625 198.153C267.594 198.079 267.578 197.998 267.578 197.917C267.578 197.836 267.594 197.756 267.625 197.682C267.657 197.607 267.702 197.539 267.76 197.483C275.707 189.245 282.604 180.057 288.297 170.127C294.024 160.105 298.519 149.427 301.685 138.327H301.675Z" fill="black"/>
<path fill-rule="evenodd" clip-rule="evenodd" d="M364.85 221.477C364.442 220.972 363.894 220.6 363.274 220.406C362.655 220.212 361.992 220.207 361.369 220.389C360.747 220.572 360.192 220.935 359.776 221.433C359.359 221.931 359.099 222.541 359.029 223.186C358.959 223.831 359.082 224.483 359.382 225.058C359.682 225.634 360.146 226.108 360.715 226.42C361.284 226.732 361.932 226.869 362.579 226.813C363.225 226.756 363.841 226.51 364.347 226.104C365.027 225.557 365.461 224.762 365.556 223.895C365.65 223.027 365.396 222.158 364.85 221.477Z" fill="#8C9152"/>
<path fill-rule="evenodd" clip-rule="evenodd" d="M29.4182 313.109C25.6123 297.093 45.3373 293.229 64.3475 306.057C59.8944 279.522 98.6682 293.152 110.25 307.506C115.312 279.232 162.489 325.318 155.37 344.164H12.9195C-22.2126 331.607 3.00871 295.48 29.4568 313.109H29.4182Z" fill="#A7A17F"/>
<path d="M222.505 118.66C236.473 53.6316 79.4169 101.273 50.0806 164.727C53.7995 193.861 82.9234 186.23 90.4579 212.784C94.3217 230.104 129.048 244.207 150.908 242.555C207.9 233.948 255.29 146.992 222.505 118.66Z" fill="black"/>
<path d="M51.6357 163.375C51.597 163.446 51.5446 163.51 51.4814 163.561C51.4182 163.613 51.3456 163.651 51.2675 163.674C51.1895 163.698 51.1076 163.705 51.0266 163.697C50.9456 163.689 50.867 163.665 50.7953 163.626C50.7236 163.587 50.6603 163.535 50.6089 163.472C50.5575 163.408 50.519 163.336 50.4957 163.258C50.4724 163.18 50.4647 163.098 50.473 163.017C50.4813 162.936 50.5055 162.857 50.5442 162.786C75.07 117.24 133.202 90.3382 175.917 85.1896C186.987 83.8566 197.033 83.9725 205.205 85.5953C213.377 87.2181 219.829 90.4251 223.442 95.255C227.915 101.186 228.146 109.513 222.476 120.302C222.44 120.377 222.389 120.443 222.326 120.497C222.263 120.551 222.19 120.592 222.112 120.617C222.033 120.643 221.95 120.652 221.867 120.645C221.785 120.638 221.705 120.614 221.632 120.575C221.559 120.536 221.494 120.483 221.442 120.419C221.39 120.355 221.351 120.281 221.328 120.201C221.305 120.122 221.298 120.039 221.308 119.956C221.318 119.874 221.344 119.795 221.385 119.723C226.755 109.416 226.591 101.543 222.409 95.9988C218.999 91.4587 212.894 88.4256 204.934 86.8414C196.975 85.2572 186.967 85.1317 176.023 86.455C133.685 91.6133 75.978 118.216 51.6357 163.375Z" fill="black"/>
<path fill-rule="evenodd" clip-rule="evenodd" d="M164.383 268.056C166.015 269.747 175.868 275.069 183.615 276.441C203.408 279.938 232.416 278.759 232.783 268.134L234.454 219.922L255.86 213.692C243.302 160.825 152.714 162.496 140.427 211.142L161.833 217.372L164.383 268.056Z" fill="#FFFAFF"/>
<path fill-rule="evenodd" clip-rule="evenodd" d="M210.459 313.515L205.89 312.703L201.408 343.923C216.381 343.923 254.981 346.821 261.578 338.272C263.877 335.287 253.918 333.075 237.043 324.671C226.04 319.194 227.132 304.975 210.459 313.515Z" fill="black"/>
<path fill-rule="evenodd" clip-rule="evenodd" d="M213.415 344.164C204.721 344.319 203.311 343.092 195.97 344.164C41.0096 336.002 61.092 242.429 162.209 274.818C162.635 272.478 163.365 270.205 164.383 268.056C182.436 272.886 209.252 272.577 232.783 268.133C233.882 270.985 234.695 273.939 235.207 276.953C351.673 233.301 365.777 330.998 213.415 344.164Z" fill="#EBA1B2"/>
<path d="M200.5 313.669C200.348 313.73 200.177 313.729 200.026 313.664C199.875 313.6 199.755 313.478 199.694 313.326C199.632 313.173 199.634 313.003 199.698 312.851C199.763 312.7 199.884 312.581 200.037 312.519L286.008 278.285C286.159 278.231 286.326 278.237 286.472 278.303C286.619 278.369 286.734 278.49 286.793 278.64C286.852 278.789 286.85 278.956 286.789 279.104C286.727 279.253 286.609 279.371 286.462 279.435L200.491 313.669H200.5Z" fill="black"/>
<path d="M122.991 280.45C122.837 280.392 122.713 280.276 122.645 280.126C122.577 279.977 122.571 279.806 122.629 279.653C122.686 279.499 122.803 279.374 122.952 279.306C123.102 279.239 123.272 279.233 123.426 279.29L205.378 310.568C205.454 310.597 205.524 310.641 205.584 310.697C205.643 310.753 205.691 310.82 205.724 310.895C205.757 310.969 205.775 311.05 205.777 311.131C205.779 311.213 205.765 311.294 205.736 311.37C205.708 311.446 205.665 311.516 205.61 311.575C205.555 311.634 205.488 311.682 205.415 311.715C205.341 311.748 205.261 311.767 205.18 311.769C205.099 311.771 205.019 311.757 204.943 311.727L122.991 280.45Z" fill="black"/>
<path d="M213.367 344.783C209.803 344.841 207.475 344.677 205.446 344.532C202.319 344.208 199.163 344.293 196.057 344.783H195.903C137.52 341.711 103.865 326.497 89.9749 310.433C84.1791 303.739 81.8028 296.91 82.4694 290.631C83.1359 284.352 86.8548 278.769 93.2881 274.634C106.145 266.366 129.947 264.009 161.736 274.016C161.954 272.995 162.225 271.986 162.548 270.993C162.885 269.883 163.315 268.804 163.833 267.766C163.9 267.642 164.007 267.544 164.136 267.488C164.266 267.432 164.411 267.421 164.547 267.457C173.376 269.805 184.311 270.925 195.932 270.944C208.246 270.931 220.533 269.786 232.638 267.525C232.776 267.498 232.919 267.518 233.044 267.583C233.169 267.648 233.267 267.754 233.324 267.882C233.905 269.271 234.38 270.701 234.744 272.162C235.082 273.475 235.372 274.808 235.642 276.112C272.397 262.473 298.981 262.908 313.325 270.317C320.473 274.007 324.627 279.416 325.545 285.704C326.462 291.993 324.144 299.025 318.368 306.077C304.545 322.962 270.678 339.885 213.435 344.792L213.367 344.783ZM205.533 343.295C207.552 343.44 209.87 343.604 213.348 343.546C270.214 338.63 303.782 321.947 317.421 305.284C322.966 298.523 325.149 291.761 324.328 285.869C323.507 279.976 319.546 274.905 312.736 271.379C298.575 264.076 272.165 263.729 235.459 277.484L235.314 277.532C235.234 277.548 235.152 277.547 235.072 277.531C234.992 277.514 234.917 277.482 234.849 277.436C234.782 277.391 234.724 277.332 234.68 277.264C234.635 277.196 234.605 277.12 234.589 277.04C234.28 275.504 233.942 273.92 233.566 272.442C233.254 271.207 232.864 269.994 232.397 268.81C220.364 271.022 208.156 272.141 195.922 272.152C184.408 272.152 173.54 271.041 164.702 268.752C164.327 269.594 164.004 270.458 163.736 271.34C163.358 272.505 163.055 273.692 162.828 274.895C162.831 274.921 162.831 274.947 162.828 274.973C162.804 275.051 162.764 275.124 162.712 275.187C162.659 275.25 162.595 275.302 162.522 275.339C162.449 275.377 162.369 275.4 162.288 275.407C162.206 275.413 162.123 275.404 162.046 275.378C130.323 265.216 106.667 267.506 93.9836 275.649C87.8787 279.57 84.324 284.845 83.7251 290.727C83.1262 296.61 85.3962 303.169 90.9409 309.593C104.638 325.444 137.983 340.455 195.961 343.517C199.137 343.023 202.364 342.938 205.562 343.266L205.533 343.295Z" fill="black"/>
<path d="M162.007 275.397C161.852 275.344 161.724 275.23 161.653 275.083C161.581 274.935 161.571 274.765 161.625 274.61C161.679 274.455 161.792 274.328 161.94 274.256C162.087 274.185 162.257 274.175 162.412 274.229C163.855 274.737 165.268 275.269 166.653 275.822C168.073 276.392 169.416 276.953 170.681 277.513C170.831 277.579 170.948 277.703 171.007 277.856C171.066 278.009 171.062 278.179 170.995 278.329C170.928 278.479 170.805 278.596 170.652 278.655C170.499 278.714 170.329 278.71 170.179 278.643C168.875 278.073 167.551 277.513 166.189 276.972C164.827 276.431 163.475 275.929 162.007 275.397Z" fill="black"/>
<path d="M234.995 276.363C235.15 276.308 235.32 276.317 235.469 276.388C235.617 276.458 235.732 276.585 235.787 276.74C235.842 276.895 235.833 277.066 235.762 277.214C235.692 277.363 235.565 277.477 235.41 277.532C233.356 278.266 231.404 279.017 229.556 279.783C227.624 280.585 225.808 281.406 224.098 282.227C224.025 282.266 223.945 282.29 223.862 282.297C223.779 282.305 223.696 282.295 223.617 282.27C223.537 282.244 223.464 282.203 223.402 282.148C223.339 282.094 223.288 282.027 223.251 281.952C223.215 281.877 223.194 281.796 223.19 281.713C223.186 281.63 223.198 281.547 223.227 281.469C223.255 281.391 223.299 281.319 223.356 281.259C223.413 281.198 223.481 281.15 223.558 281.116C225.296 280.276 227.132 279.445 229.073 278.643C231.015 277.841 232.937 277.107 234.995 276.363Z" fill="black"/>
<path fill-rule="evenodd" clip-rule="evenodd" d="M195.709 313.901L200.268 313.099L204.76 344.319C189.788 344.319 151.188 347.217 144.581 338.658C142.282 335.683 152.25 333.461 169.116 325.067C180.118 319.581 179.027 305.371 195.709 313.901Z" fill="black"/>
<path fill-rule="evenodd" clip-rule="evenodd" d="M162.615 232.914L161.833 217.372L140.427 211.142L130.352 246.1L89.1631 261.623C86.2652 258.493 81.7252 255.344 77.2624 252.089C72.8963 257.778 85.2413 263.197 79.8705 265.612C74.1713 263.593 78.9046 251.799 73.2247 251.123C73.5531 248.099 72.0269 246.679 69.158 246.515L68.6557 249.829C68.7134 249.923 68.7363 250.034 68.7204 250.144C68.7046 250.253 68.6509 250.353 68.5687 250.427L68.6557 249.829C68.3369 249.307 66.9073 249.036 65.3714 249.23C64.1736 252.978 62.2996 265.033 65.5646 272.934C67.0039 276.393 79.4552 279.841 84.4879 279.928C103.537 280.681 126.478 278.151 142.581 272.142C156.104 267.09 160.644 250.794 161.9 235.803C162.122 234.875 162.374 233.9 162.615 232.914Z" fill="#F26E3F"/>
<path d="M69.2448 271.282C69.305 271.436 69.3017 271.607 69.2356 271.759C69.1694 271.91 69.0459 272.029 68.8922 272.089C68.7385 272.149 68.5672 272.146 68.4159 272.08C68.2647 272.013 68.1459 271.89 68.0856 271.736C65.1878 264.289 67.1197 254.02 68.1436 248.688C68.3078 247.79 68.4527 247.037 68.5493 246.438C68.5737 246.275 68.6616 246.129 68.7938 246.031C68.9261 245.933 69.0918 245.892 69.2545 245.916C69.4171 245.94 69.5635 246.028 69.6613 246.161C69.7591 246.293 69.8004 246.458 69.7761 246.621C69.6891 247.181 69.5346 247.974 69.3607 248.92C68.3948 254.127 66.4628 264.173 69.2448 271.282Z" fill="black"/>
<path d="M74.2487 270.847C74.2901 270.925 74.3146 271.011 74.3206 271.099C74.3267 271.187 74.3141 271.275 74.2838 271.358C74.2535 271.441 74.2061 271.516 74.1447 271.579C74.0833 271.643 74.0093 271.692 73.9274 271.725C73.8455 271.758 73.7577 271.773 73.6696 271.769C73.5815 271.766 73.4952 271.744 73.4161 271.705C73.3371 271.666 73.2672 271.611 73.2109 271.543C73.1546 271.475 73.1133 271.396 73.0895 271.311C72.047 268.314 71.5211 265.162 71.5343 261.99C71.4337 258.294 71.8004 254.6 72.6259 250.997C72.6817 250.854 72.7878 250.737 72.9242 250.667C73.0606 250.597 73.2178 250.579 73.3663 250.617C73.5148 250.655 73.6443 250.746 73.7303 250.873C73.8163 251 73.853 251.154 73.8333 251.306C73.0307 254.789 72.6736 258.359 72.7708 261.932C72.7549 264.953 73.2547 267.955 74.2487 270.809V270.847Z" fill="black"/>
<path d="M81.5805 265.351C81.6611 265.362 81.7387 265.389 81.809 265.429C81.8793 265.47 81.9409 265.524 81.9902 265.589C82.0395 265.654 82.0757 265.727 82.0965 265.806C82.1174 265.884 82.1226 265.966 82.1118 266.047C82.101 266.127 82.0745 266.205 82.0337 266.275C81.9929 266.346 81.9387 266.407 81.8741 266.456C81.8095 266.506 81.7358 266.542 81.6573 266.563C81.5787 266.584 81.4969 266.589 81.4163 266.578C80.0972 266.461 78.8686 265.858 77.9678 264.888C77.2397 263.997 76.6918 262.974 76.3547 261.874C76.3274 261.797 76.3155 261.716 76.3197 261.634C76.3238 261.553 76.344 261.473 76.379 261.4C76.414 261.326 76.4631 261.26 76.5235 261.206C76.584 261.151 76.6546 261.109 76.7314 261.082C76.8081 261.054 76.8895 261.043 76.9708 261.047C77.0522 261.051 77.1319 261.071 77.2054 261.106C77.279 261.141 77.3449 261.19 77.3995 261.251C77.4541 261.311 77.4962 261.382 77.5235 261.458C77.8083 262.405 78.2741 263.288 78.8951 264.057C79.5998 264.805 80.5563 265.266 81.5805 265.351Z" fill="black"/>
<path fill-rule="evenodd" clip-rule="evenodd" d="M330.925 251.828C329.379 251.635 327.949 251.915 327.631 252.427L327.727 253.026C327.647 252.951 327.593 252.851 327.576 252.743C327.558 252.634 327.578 252.523 327.631 252.427L327.128 249.113C324.231 249.278 322.743 250.698 323.062 253.721C317.42 254.368 322.096 266.163 316.426 268.211C311.045 265.757 323.39 260.338 319.034 254.687C314.571 257.942 310.002 261.101 307.133 264.221L265.935 248.708L255.86 213.75L234.454 219.98L233.671 235.522C233.913 236.488 234.174 237.454 234.444 238.42C235.642 253.412 240.172 269.708 253.705 274.76C269.818 280.768 292.759 283.299 311.799 282.546C316.841 282.459 329.292 279.01 330.722 275.552C333.996 267.631 332.113 255.576 330.925 251.828Z" fill="#F26E3F"/>
<path d="M328.2 274.315C328.14 274.468 328.022 274.59 327.871 274.655C327.721 274.72 327.551 274.723 327.399 274.663C327.322 274.634 327.253 274.591 327.194 274.534C327.135 274.478 327.087 274.411 327.055 274.336C327.023 274.261 327.005 274.181 327.005 274.099C327.004 274.018 327.02 273.937 327.051 273.861C329.823 266.752 327.92 256.706 326.935 251.499C326.751 250.533 326.606 249.761 326.52 249.2C326.495 249.038 326.536 248.872 326.634 248.74C326.732 248.607 326.878 248.519 327.041 248.495C327.204 248.471 327.37 248.512 327.502 248.61C327.634 248.708 327.722 248.854 327.746 249.017C327.833 249.616 327.978 250.369 328.152 251.267C329.118 256.6 331.108 266.868 328.152 274.315H328.2Z" fill="black"/>
<path d="M323.197 273.861C323.137 274.014 323.018 274.136 322.868 274.201C322.718 274.266 322.548 274.269 322.395 274.209C322.242 274.147 322.12 274.027 322.055 273.875C321.99 273.723 321.987 273.551 322.047 273.398C323.043 270.545 323.539 267.542 323.516 264.52C323.615 260.948 323.261 257.378 322.463 253.895C322.443 253.743 322.48 253.589 322.566 253.462C322.652 253.335 322.781 253.244 322.93 253.206C323.078 253.168 323.236 253.186 323.372 253.256C323.508 253.326 323.614 253.443 323.67 253.586C324.492 257.17 324.856 260.844 324.752 264.52C324.775 267.694 324.249 270.848 323.197 273.842V273.861Z" fill="black"/>
<path d="M314.842 269.128C314.762 269.139 314.68 269.134 314.602 269.113C314.524 269.092 314.451 269.056 314.388 269.006C314.324 268.957 314.27 268.895 314.231 268.825C314.191 268.755 314.165 268.677 314.156 268.597C314.145 268.516 314.15 268.434 314.171 268.356C314.192 268.277 314.228 268.204 314.277 268.139C314.327 268.074 314.388 268.02 314.459 267.979C314.529 267.939 314.607 267.912 314.687 267.901C315.711 267.816 316.668 267.355 317.373 266.607C317.99 265.837 318.453 264.955 318.735 264.009C318.791 263.855 318.906 263.729 319.054 263.659C319.202 263.589 319.372 263.579 319.527 263.632C319.604 263.658 319.676 263.699 319.737 263.753C319.799 263.808 319.848 263.874 319.884 263.948C319.919 264.022 319.939 264.102 319.942 264.184C319.945 264.266 319.932 264.347 319.903 264.424C319.574 265.527 319.025 266.552 318.29 267.438C317.391 268.41 316.161 269.013 314.842 269.128Z" fill="black"/>
<path d="M163.504 238.266C163.508 238.347 163.495 238.428 163.468 238.504C163.44 238.581 163.398 238.651 163.343 238.711C163.289 238.772 163.222 238.82 163.149 238.855C163.075 238.889 162.996 238.909 162.914 238.913C162.833 238.917 162.752 238.904 162.676 238.877C162.599 238.849 162.529 238.807 162.469 238.752C162.408 238.698 162.36 238.632 162.325 238.558C162.291 238.484 162.271 238.405 162.267 238.324L160.606 205.152C160.601 205.071 160.612 204.989 160.639 204.912C160.666 204.835 160.708 204.764 160.763 204.704C160.818 204.643 160.885 204.595 160.959 204.56C161.033 204.526 161.113 204.508 161.195 204.505C161.276 204.501 161.357 204.513 161.434 204.541C161.51 204.568 161.581 204.611 161.641 204.665C161.701 204.72 161.75 204.786 161.784 204.86C161.819 204.933 161.838 205.013 161.842 205.094L163.504 238.266Z" fill="black"/>
<path d="M234.202 244.042C234.201 244.123 234.184 244.204 234.152 244.278C234.119 244.353 234.073 244.42 234.014 244.477C233.956 244.533 233.887 244.578 233.812 244.607C233.736 244.637 233.656 244.652 233.574 244.651C233.41 244.646 233.253 244.576 233.14 244.457C233.026 244.337 232.963 244.178 232.966 244.013L233.932 204.051C233.932 203.97 233.948 203.889 233.98 203.814C234.012 203.739 234.058 203.671 234.117 203.614C234.175 203.557 234.245 203.513 234.321 203.483C234.397 203.454 234.478 203.44 234.56 203.443C234.723 203.448 234.878 203.516 234.991 203.633C235.105 203.751 235.168 203.907 235.168 204.071L234.202 244.042Z" fill="black"/>
<path d="M135.674 243.414C135.824 243.378 135.981 243.398 136.117 243.47C136.253 243.542 136.357 243.661 136.411 243.805C136.465 243.95 136.463 244.108 136.408 244.252C136.352 244.395 136.246 244.513 136.109 244.583L111.525 253.895C111.449 253.924 111.368 253.939 111.286 253.937C111.205 253.935 111.124 253.916 111.05 253.883C110.975 253.85 110.908 253.802 110.852 253.743C110.796 253.684 110.752 253.614 110.724 253.538C110.694 253.461 110.68 253.38 110.682 253.299C110.684 253.217 110.702 253.137 110.735 253.062C110.768 252.988 110.816 252.92 110.875 252.864C110.935 252.808 111.005 252.765 111.081 252.736L135.674 243.414Z" fill="black"/>
<path d="M260.149 247.133C259.994 247.075 259.869 246.958 259.801 246.808C259.732 246.658 259.725 246.487 259.782 246.332C259.842 246.179 259.959 246.055 260.109 245.987C260.258 245.919 260.428 245.911 260.583 245.965L285.244 255.257C285.397 255.318 285.52 255.435 285.589 255.584C285.657 255.734 285.665 255.904 285.611 256.059C285.582 256.135 285.539 256.205 285.483 256.264C285.427 256.324 285.36 256.371 285.285 256.405C285.21 256.438 285.13 256.456 285.049 256.458C284.967 256.46 284.886 256.446 284.81 256.416L260.149 247.133Z" fill="black"/>
<path fill-rule="evenodd" clip-rule="evenodd" d="M190.232 147.745C192.58 144.519 203.166 140.983 204.905 142.558C204.857 153.657 208.499 169.711 210.286 175.401C203.524 179.458 189.72 178.637 183.847 175.951C186.677 170.571 190.532 151.87 190.232 147.745Z" fill="#F26E3F"/>
<path d="M211.077 174C211.134 173.942 211.202 173.896 211.276 173.865C211.351 173.834 211.431 173.817 211.512 173.817C211.593 173.817 211.673 173.834 211.748 173.865C211.823 173.896 211.89 173.942 211.947 174C212.062 174.117 212.126 174.275 212.126 174.44C212.126 174.604 212.062 174.762 211.947 174.879C209.377 177.371 204.219 178.482 198.819 178.656C192.27 178.859 185.296 177.69 182.321 175.874C182.25 175.833 182.188 175.779 182.139 175.713C182.089 175.648 182.054 175.573 182.034 175.494C182.014 175.415 182.01 175.332 182.023 175.251C182.036 175.171 182.065 175.093 182.108 175.024C182.148 174.953 182.202 174.892 182.266 174.842C182.331 174.793 182.404 174.758 182.483 174.738C182.561 174.718 182.643 174.714 182.723 174.727C182.803 174.74 182.88 174.768 182.949 174.811C185.779 176.502 192.444 177.613 198.781 177.41C203.9 177.255 208.759 176.241 211.087 173.99L211.077 174Z" fill="black"/>
<path fill-rule="evenodd" clip-rule="evenodd" d="M181.644 130.725C178.978 129.372 176.708 130.512 176.563 133.265C176.601 134.794 177.042 136.286 177.841 137.59C178.64 138.894 179.768 139.965 181.113 140.693C183.779 142.046 186.059 140.916 186.204 138.163C186.167 136.631 185.725 135.136 184.925 133.83C184.124 132.524 182.992 131.453 181.644 130.725Z" fill="#F26E3F"/>
<path d="M178.862 133.652C178.78 133.636 178.702 133.603 178.632 133.556C178.563 133.509 178.504 133.448 178.459 133.377C178.414 133.306 178.383 133.227 178.37 133.144C178.356 133.061 178.36 132.977 178.38 132.895C178.401 132.814 178.437 132.737 178.488 132.67C178.539 132.604 178.603 132.548 178.676 132.507C178.749 132.465 178.83 132.439 178.914 132.43C178.997 132.421 179.082 132.429 179.162 132.454C180.055 132.666 180.837 133.204 181.355 133.961C181.879 134.789 182.148 135.753 182.127 136.733C182.13 136.815 182.116 136.896 182.087 136.972C182.057 137.048 182.013 137.118 181.956 137.176C181.899 137.235 181.831 137.281 181.756 137.313C181.681 137.345 181.6 137.361 181.519 137.361C181.413 137.364 181.307 137.339 181.214 137.288C181.121 137.237 181.042 137.163 180.988 137.071C180.747 136.728 180.461 136.42 180.138 136.154C179.867 135.931 179.56 135.758 179.229 135.642C179.073 135.589 178.944 135.477 178.871 135.329C178.797 135.182 178.786 135.011 178.838 134.855C178.891 134.698 179.003 134.569 179.151 134.496C179.299 134.423 179.469 134.411 179.626 134.463C179.914 134.562 180.19 134.695 180.447 134.859L180.331 134.657C179.974 134.168 179.452 133.825 178.862 133.691V133.652Z" fill="black"/>
<path fill-rule="evenodd" clip-rule="evenodd" d="M212.623 130.667C207.33 130.483 208.044 123.403 204.161 121.007C200.037 127.247 188.368 131.034 180.978 130.445C180.369 143.968 185.335 154.101 196.066 154.024C204.702 153.947 209.233 148.586 211.058 141.119C217.153 143.051 222.486 126.629 212.662 130.686L212.623 130.667Z" fill="#ED7C53"/>
<path fill-rule="evenodd" clip-rule="evenodd" d="M206.296 123.354C205.793 122.399 205.059 121.586 204.161 120.988C200.037 127.228 188.368 131.014 180.978 130.425C191.845 133.449 203.804 127.131 206.335 123.354H206.296Z" fill="#F26E3F"/>
<path fill-rule="evenodd" clip-rule="evenodd" d="M187.305 138.578C187.027 138.514 186.74 138.508 186.46 138.559C186.179 138.61 185.913 138.718 185.675 138.875C185.438 139.033 185.236 139.238 185.08 139.476C184.924 139.715 184.819 139.982 184.771 140.263C184.722 140.544 184.731 140.831 184.797 141.108C184.863 141.385 184.985 141.646 185.156 141.874C185.326 142.103 185.541 142.294 185.788 142.436C186.034 142.579 186.307 142.669 186.59 142.703C187.123 142.766 187.659 142.622 188.089 142.301C188.519 141.981 188.81 141.507 188.901 140.979C188.993 140.451 188.878 139.907 188.581 139.461C188.285 139.014 187.828 138.698 187.305 138.578Z" fill="#DE5138"/>
<path fill-rule="evenodd" clip-rule="evenodd" d="M205.572 138.424C205.163 138.351 204.743 138.402 204.363 138.569C203.983 138.736 203.662 139.012 203.439 139.362C203.216 139.712 203.102 140.12 203.111 140.534C203.121 140.949 203.253 141.352 203.491 141.691C203.729 142.031 204.062 142.292 204.449 142.442C204.836 142.592 205.258 142.624 205.663 142.534C206.068 142.443 206.437 142.235 206.723 141.935C207.01 141.635 207.201 141.257 207.272 140.848C207.32 140.577 207.315 140.299 207.256 140.031C207.196 139.762 207.085 139.507 206.927 139.282C206.768 139.057 206.567 138.865 206.335 138.717C206.102 138.57 205.843 138.47 205.572 138.424Z" fill="#DE5138"/>
<path d="M195.361 139.506C195.525 139.506 195.682 139.571 195.798 139.687C195.914 139.803 195.979 139.96 195.979 140.124C195.979 140.288 195.914 140.445 195.798 140.561C195.682 140.677 195.525 140.742 195.361 140.742C195.266 140.728 195.169 140.745 195.084 140.79C194.998 140.835 194.93 140.906 194.888 140.993C194.853 141.123 194.853 141.259 194.888 141.389C194.914 141.544 194.977 141.689 195.071 141.814C195.126 141.904 195.209 141.973 195.306 142.011C195.404 142.049 195.511 142.055 195.612 142.027C195.77 141.979 195.94 141.996 196.085 142.074C196.23 142.152 196.338 142.284 196.385 142.442C196.433 142.6 196.415 142.77 196.338 142.914C196.26 143.059 196.127 143.167 195.97 143.215C195.62 143.335 195.239 143.334 194.889 143.214C194.539 143.093 194.24 142.859 194.038 142.548C193.832 142.261 193.694 141.931 193.632 141.582C193.566 141.236 193.596 140.879 193.719 140.549C193.836 140.22 194.057 139.939 194.348 139.747C194.639 139.556 194.984 139.464 195.332 139.486L195.361 139.506Z" fill="black"/>
<path d="M193.226 130.251C193.388 130.282 193.53 130.376 193.623 130.512C193.715 130.647 193.75 130.814 193.719 130.976C193.688 131.137 193.595 131.28 193.459 131.372C193.323 131.465 193.156 131.499 192.994 131.468C191.663 131.311 190.316 131.347 188.995 131.575C187.722 131.687 186.474 131.997 185.296 132.492C185.228 132.541 185.151 132.576 185.069 132.594C184.988 132.613 184.903 132.614 184.821 132.599C184.739 132.584 184.661 132.552 184.591 132.506C184.522 132.46 184.462 132.4 184.416 132.33C184.371 132.26 184.339 132.181 184.325 132.099C184.31 132.017 184.313 131.932 184.332 131.851C184.351 131.769 184.386 131.693 184.435 131.625C184.485 131.558 184.547 131.501 184.619 131.459C185.948 130.857 187.369 130.481 188.821 130.348C190.277 130.103 191.761 130.07 193.226 130.251Z" fill="black"/>
<path d="M206.982 131.217C207.056 131.251 207.123 131.298 207.179 131.358C207.235 131.418 207.278 131.488 207.306 131.564C207.333 131.641 207.346 131.722 207.342 131.804C207.337 131.885 207.317 131.965 207.281 132.038C207.21 132.188 207.083 132.303 206.928 132.359C206.772 132.415 206.601 132.407 206.451 132.338C205.287 131.81 204.043 131.484 202.77 131.372C201.526 131.276 200.276 131.276 199.032 131.372C198.951 131.378 198.869 131.369 198.791 131.343C198.713 131.317 198.642 131.276 198.581 131.222C198.519 131.167 198.47 131.102 198.434 131.028C198.399 130.954 198.379 130.874 198.375 130.792C198.367 130.629 198.423 130.469 198.532 130.346C198.64 130.223 198.792 130.148 198.955 130.135C200.263 130.025 201.578 130.025 202.886 130.135C204.303 130.248 205.689 130.607 206.982 131.198V131.217Z" fill="black"/>
<path d="M198.327 144.606C198.419 144.47 198.561 144.376 198.723 144.345C198.884 144.315 199.051 144.349 199.187 144.441C199.322 144.534 199.416 144.676 199.447 144.837C199.477 144.998 199.443 145.165 199.351 145.301C199.168 145.564 198.961 145.81 198.733 146.035C198.081 146.678 197.235 147.085 196.327 147.194C195.345 147.288 194.363 147.02 193.565 146.441C193.256 146.231 192.971 145.988 192.715 145.716C192.658 145.657 192.614 145.588 192.584 145.512C192.555 145.436 192.54 145.355 192.542 145.273C192.546 145.108 192.615 144.951 192.734 144.837C192.853 144.723 193.013 144.661 193.177 144.665C193.342 144.669 193.499 144.738 193.613 144.857C193.81 145.071 194.03 145.262 194.27 145.427C194.826 145.837 195.513 146.029 196.202 145.968C196.837 145.887 197.428 145.599 197.882 145.147C198.049 144.98 198.201 144.799 198.336 144.606H198.327Z" fill="black"/>
<path d="M206.953 135.709C207.047 135.575 207.19 135.483 207.351 135.454C207.512 135.425 207.678 135.461 207.813 135.555C207.948 135.65 208.04 135.795 208.069 135.958C208.098 136.12 208.061 136.288 207.967 136.424C207.301 137.39 205.591 137.95 203.688 137.989C201.965 138.059 200.259 137.633 198.771 136.762C198.646 136.669 198.561 136.533 198.532 136.38C198.503 136.226 198.534 136.068 198.617 135.936C198.7 135.804 198.829 135.709 198.98 135.669C199.13 135.628 199.29 135.646 199.428 135.719C200.714 136.453 202.18 136.812 203.659 136.752C205.195 136.752 206.509 136.327 206.953 135.709Z" fill="black"/>
<path d="M208.392 136.55C208.552 136.585 208.692 136.681 208.781 136.819C208.87 136.957 208.9 137.124 208.866 137.284C208.85 137.364 208.818 137.44 208.772 137.507C208.726 137.574 208.667 137.632 208.599 137.676C208.53 137.72 208.454 137.75 208.373 137.764C208.293 137.778 208.211 137.776 208.131 137.757C207.872 137.706 207.617 137.635 207.368 137.545C207.114 137.449 206.866 137.34 206.625 137.216C206.479 137.141 206.369 137.01 206.319 136.854C206.269 136.697 206.283 136.527 206.359 136.381C206.434 136.235 206.565 136.125 206.722 136.075C206.878 136.025 207.048 136.04 207.194 136.115C207.386 136.22 207.586 136.307 207.793 136.376C207.99 136.445 208.189 136.504 208.392 136.55Z" fill="black"/>
<path d="M207.281 137.448C207.426 137.527 207.533 137.661 207.58 137.819C207.626 137.978 207.607 138.148 207.528 138.293C207.448 138.438 207.315 138.545 207.156 138.591C206.998 138.637 206.827 138.619 206.683 138.539C206.451 138.409 206.228 138.264 206.016 138.105C205.799 137.944 205.593 137.77 205.398 137.583C205.28 137.468 205.213 137.31 205.211 137.146C205.209 136.981 205.273 136.822 205.388 136.704C205.503 136.586 205.661 136.519 205.826 136.517C205.991 136.515 206.149 136.579 206.267 136.694C206.42 136.846 206.585 136.985 206.76 137.11C206.924 137.237 207.098 137.35 207.281 137.448Z" fill="black"/>
<path d="M183.973 136.443C183.88 136.31 183.842 136.146 183.867 135.986C183.892 135.826 183.979 135.681 184.108 135.583C184.174 135.535 184.248 135.499 184.328 135.48C184.407 135.46 184.49 135.457 184.571 135.469C184.652 135.482 184.729 135.51 184.799 135.553C184.869 135.596 184.929 135.652 184.977 135.719C185.45 136.366 186.803 136.82 188.377 136.897C189.842 136.992 191.303 136.656 192.579 135.931C192.648 135.886 192.726 135.855 192.807 135.84C192.889 135.825 192.972 135.827 193.053 135.845C193.134 135.863 193.21 135.897 193.277 135.945C193.345 135.993 193.402 136.054 193.445 136.124C193.488 136.195 193.517 136.273 193.529 136.355C193.542 136.437 193.538 136.52 193.517 136.6C193.497 136.68 193.461 136.756 193.411 136.822C193.361 136.888 193.298 136.943 193.226 136.984C191.736 137.83 190.03 138.22 188.319 138.104C186.387 138.018 184.658 137.361 183.973 136.414V136.443Z" fill="black"/>
<path d="M183.973 137.699C183.812 137.733 183.645 137.703 183.508 137.614C183.37 137.525 183.273 137.386 183.238 137.226C183.206 137.065 183.238 136.897 183.326 136.759C183.414 136.62 183.552 136.521 183.712 136.482C183.915 136.443 184.116 136.388 184.311 136.318C184.513 136.24 184.716 136.153 184.91 136.057C185.054 135.982 185.223 135.967 185.379 136.016C185.534 136.065 185.664 136.173 185.74 136.318C185.816 136.464 185.83 136.634 185.782 136.791C185.733 136.948 185.624 137.08 185.479 137.158C185.24 137.282 184.991 137.389 184.736 137.477C184.487 137.57 184.232 137.644 183.973 137.699Z" fill="black"/>
<path d="M185.373 138.482C185.301 138.521 185.223 138.546 185.141 138.555C185.06 138.563 184.978 138.556 184.9 138.533C184.821 138.511 184.748 138.472 184.684 138.421C184.62 138.37 184.567 138.307 184.528 138.235C184.489 138.164 184.464 138.085 184.455 138.004C184.446 137.922 184.453 137.84 184.476 137.762C184.499 137.683 184.537 137.61 184.588 137.546C184.639 137.482 184.703 137.429 184.774 137.39C184.959 137.293 185.136 137.184 185.306 137.062C185.47 136.926 185.634 136.791 185.789 136.637C185.906 136.521 186.064 136.457 186.228 136.457C186.392 136.457 186.55 136.521 186.668 136.637C186.725 136.693 186.771 136.761 186.803 136.835C186.834 136.91 186.85 136.99 186.85 137.071C186.85 137.152 186.834 137.232 186.803 137.307C186.771 137.382 186.725 137.449 186.668 137.506C186.473 137.696 186.266 137.873 186.049 138.037C185.837 138.193 185.614 138.335 185.383 138.462L185.373 138.482Z" fill="black"/>
<path d="M214.884 132.454C214.964 132.429 215.048 132.421 215.132 132.43C215.215 132.439 215.296 132.465 215.369 132.507C215.442 132.548 215.506 132.604 215.557 132.67C215.608 132.737 215.645 132.814 215.665 132.895C215.686 132.977 215.689 133.061 215.676 133.144C215.662 133.227 215.632 133.306 215.587 133.377C215.542 133.448 215.483 133.509 215.413 133.556C215.344 133.603 215.266 133.636 215.183 133.652C214.594 133.789 214.074 134.132 213.715 134.618L213.599 134.821C213.857 134.658 214.132 134.525 214.42 134.425C214.497 134.399 214.579 134.389 214.66 134.395C214.742 134.401 214.821 134.423 214.894 134.46C214.966 134.497 215.031 134.548 215.084 134.61C215.137 134.671 215.177 134.743 215.202 134.821C215.23 134.897 215.241 134.979 215.236 135.06C215.232 135.141 215.211 135.221 215.175 135.294C215.138 135.367 215.088 135.432 215.027 135.485C214.965 135.538 214.893 135.578 214.816 135.603C214.486 135.719 214.178 135.892 213.908 136.115C213.587 136.384 213.301 136.692 213.058 137.033C213.003 137.124 212.925 137.199 212.832 137.25C212.738 137.301 212.633 137.326 212.527 137.323C212.445 137.323 212.364 137.306 212.289 137.275C212.214 137.243 212.146 137.196 212.089 137.138C212.033 137.079 211.988 137.01 211.959 136.934C211.929 136.857 211.916 136.776 211.918 136.695C211.902 135.715 212.171 134.752 212.691 133.922C213.209 133.165 213.991 132.628 214.884 132.416V132.454Z" fill="black"/>
<path d="M210.411 141.022C210.419 140.941 210.444 140.862 210.483 140.791C210.522 140.72 210.575 140.657 210.639 140.606C210.703 140.556 210.777 140.519 210.855 140.497C210.934 140.476 211.016 140.47 211.097 140.481C211.26 140.503 211.409 140.588 211.51 140.718C211.611 140.848 211.657 141.013 211.638 141.176C211.223 144.465 209.728 147.523 207.387 149.87C204.219 153.067 200.172 154.458 198.462 154.487C198.298 154.487 198.141 154.422 198.025 154.306C197.909 154.19 197.844 154.033 197.844 153.869C197.844 153.705 197.909 153.548 198.025 153.432C198.141 153.316 198.298 153.251 198.462 153.251C199.979 153.251 203.611 151.947 206.528 149.001C208.652 146.85 210.01 144.06 210.392 141.061L210.411 141.022Z" fill="black"/>
<path fill-rule="evenodd" clip-rule="evenodd" d="M360.686 320.972C363.516 309.013 348.785 306.125 334.605 315.707C337.928 295.886 308.978 306.048 300.323 316.789C296.546 295.673 261.308 330.09 266.63 344.165H373.031C399.267 334.814 380.43 307.806 360.686 320.981V320.972Z" fill="#8C9152"/>
<path d="M-105.188 344.819C-105.258 344.819 -105.328 344.802 -105.392 344.77C-105.457 344.737 -105.516 344.688 -105.565 344.627C-105.615 344.567 -105.654 344.494 -105.681 344.415C-105.708 344.335 -105.722 344.25 -105.722 344.164C-105.722 343.99 -105.665 343.823 -105.565 343.7C-105.465 343.577 -105.33 343.508 -105.188 343.508H388.467C388.608 343.508 388.744 343.577 388.844 343.7C388.944 343.823 389 343.99 389 344.164C389 344.25 388.986 344.335 388.96 344.415C388.933 344.494 388.893 344.567 388.844 344.627C388.794 344.688 388.736 344.737 388.671 344.77C388.606 344.802 388.537 344.819 388.467 344.819H-105.188Z" fill="black"/>
</svg>
