<svg width="54" height="54" viewBox="0 0 54 54" fill="none" xmlns="http://www.w3.org/2000/svg">
<path d="M26.5711 37.9365C32.8478 37.9365 37.9362 32.8481 37.9362 26.5714C37.9362 20.2947 32.8478 15.2064 26.5711 15.2064C20.2944 15.2064 15.2061 20.2947 15.2061 26.5714C15.2061 32.8481 20.2944 37.9365 26.5711 37.9365Z" stroke="white" stroke-width="2" stroke-linecap="round" stroke-linejoin="round"/>
<path d="M1 37.9365V15.2063C1 7.36041 7.36041 1 15.2063 1H37.9365C45.7824 1 52.1429 7.36041 52.1429 15.2063V37.9365C52.1429 45.7824 45.7824 52.1429 37.9365 52.1429H15.2063C7.36041 52.1429 1 45.7824 1 37.9365Z" stroke="white" stroke-width="2"/>
<path d="M42.1982 10.9739L42.2272 10.9417" stroke="white" stroke-width="2" stroke-linecap="round" stroke-linejoin="round"/>
</svg>
