<?xml version="1.0" encoding="UTF-8"?>
<svg version="1.1" xmlns="http://www.w3.org/2000/svg" width="726" height="264">
<path d="M0 0 C239.58 0 479.16 0 726 0 C726 87.12 726 174.24 726 264 C486.42 264 246.84 264 0 264 C0 176.88 0 89.76 0 0 Z " fill="#FEFEFE" transform="translate(0,0)"/>
<path d="M0 0 C29.7 0 59.4 0 90 0 C92.31 4.29 94.62 8.58 97 13 C102.39095451 22.81430181 107.95654672 32.53106411 113.625 42.1875 C117.32430945 48.51239642 120.82040198 54.93892527 124.28515625 61.39453125 C128.31737477 68.8594256 132.53629275 76.21429967 136.77392578 83.56396484 C139.3159654 87.98699938 141.78842513 92.40205225 144 97 C144.32871094 95.32164063 144.32871094 95.32164063 144.6640625 93.609375 C146.68110428 83.38505977 148.8012946 73.18682764 151 63 C152.72428717 55.01033956 154.41731007 47.01896233 156 39 C158.53859104 26.30704482 161.28778733 13.65699245 164 1 C185.45 1 206.9 1 229 1 C230.98 4.63 232.96 8.26 235 12 C236.83612697 15.1175092 238.68449792 18.22077292 240.5625 21.3125 C241.61519472 23.05692286 242.66725504 24.80172869 243.71875 26.546875 C244.25757813 27.44083984 244.79640625 28.33480469 245.3515625 29.25585938 C252.72286266 41.52680336 259.95200586 53.88157119 267.10205078 66.2824707 C270.34532352 71.89748383 273.65024156 77.47247905 277.00878906 83.01928711 C279.40524805 86.98102672 281.70081193 90.97642087 284 95 C284 64.31 284 33.62 284 2 C308.42 2 332.84 2 358 2 C358.25077444 38.89966688 358.25077444 38.89966688 358.35546875 54.96875 C358.42637183 65.84766706 358.49769891 76.72657944 358.57275391 87.60546875 C358.79668918 120.12480137 359.01173141 152.64385505 359.03125 185.1640625 C359.03176865 186.02767773 359.03228729 186.89129295 359.03282166 187.78107834 C359.04158543 205.85406036 359.01628196 223.92702731 359 242 C334.58 242 310.16 242 285 242 C284.01 239.69 283.02 237.38 282 235 C280.66017591 232.63243936 279.30150671 230.31282546 277.875 228 C277.06629225 226.67064226 276.25770164 225.34121325 275.44921875 224.01171875 C275.03978027 223.34188965 274.6303418 222.67206055 274.20849609 221.98193359 C272.35103563 218.93569844 270.51984532 215.87388274 268.6875 212.8125 C267.93764596 211.56241243 267.18764133 210.31241519 266.4375 209.0625 C261.1875 200.3125 261.1875 200.3125 259.70556641 197.8425293 C258.68450308 196.14081182 257.66334255 194.43915266 256.64208984 192.73754883 C254.14717683 188.58027378 251.65360288 184.42221368 249.1640625 180.26171875 C243.16312359 170.23777518 237.12360819 160.23764015 231.0625 150.25 C230.6974234 149.64808838 230.3323468 149.04617676 229.95620728 148.42602539 C228.89980988 146.68468154 227.84259893 144.94383425 226.78515625 143.203125 C226.13434082 142.13126953 225.48352539 141.05941406 224.81298828 139.95507812 C223.23507157 137.38315462 221.62368878 134.83745537 219.99609375 132.296875 C218 129 218 129 218 127 C217.34 127 216.68 127 216 127 C215.85304687 128.28003906 215.85304687 128.28003906 215.703125 129.5859375 C213.33668866 149.37424134 210.10118033 168.92884089 206.07348633 188.4465332 C204.51843501 196.08380565 203.33723378 203.59195322 202.60302734 211.34399414 C201.91741986 217.2989006 200.64551374 223.14429751 199.44140625 229.01171875 C199.09003601 230.74488342 199.09003601 230.74488342 198.73156738 232.51306152 C198.15745217 235.34268162 197.58018818 238.17162001 197 241 C148.61335594 245.52598488 148.61335594 245.52598488 139.08154297 238.70458984 C133.20968018 233.17577351 130.67783061 225.11195174 128.27197266 217.6171875 C126.31565097 212.05387423 123.27061128 207.33145115 120.125 202.375 C119.06236138 200.5924887 118.00616412 198.80611868 116.95703125 197.015625 C116.20993896 195.75008789 116.20993896 195.75008789 115.44775391 194.45898438 C114.06835527 192.11610021 112.69490215 189.7698664 111.32421875 187.421875 C106.89856014 179.84704308 102.36865309 172.36211642 97.67895508 164.94775391 C94.80656572 160.37422981 92.11438093 155.72513194 89.5 151 C85.71303238 144.1568684 81.63922921 137.53394023 77.46484375 130.921875 C71.14744412 120.90678616 65.21390971 110.66534645 59.30151367 100.40795898 C54.43122702 91.97812915 49.41525815 83.63764716 44.38720703 75.30126953 C42.72670213 72.54661991 41.07137857 69.78889338 39.41748047 67.03027344 C38.68920997 65.81573837 37.96038195 64.60153741 37.23095703 63.38769531 C35.35174919 60.25996681 33.48106098 57.12749513 31.62109375 53.98828125 C31.2243042 53.32094971 30.82751465 52.65361816 30.41870117 51.96606445 C29.67025355 50.70697761 28.92410401 49.4465201 28.1809082 48.18432617 C26.36283394 45.13144625 24.45933749 42.20537853 22.3671875 39.33203125 C20.57736547 36.86484942 19.12568537 34.47789467 17.875 31.6875 C15.37729052 26.50854328 12.44103265 21.64594612 9.4375 16.75 C8.96618652 15.98131592 8.49487305 15.21263184 8.00927734 14.4206543 C5.95482045 11.09254975 3.878892 7.79934276 1.66015625 4.578125 C0 2 0 2 0 0 Z " fill="#227C83" transform="translate(8,9)"/>
<path d="M0 0 C23.76 0 47.52 0 72 0 C72 79.86 72 159.72 72 242 C48.24 242 24.48 242 0 242 C0 213.95 0 185.9 0 157 C-28.05 157 -56.1 157 -85 157 C-85 133.24 -85 109.48 -85 85 C-56.95 85 -28.9 85 0 85 C0 56.95 0 28.9 0 0 Z " fill="#237C84" transform="translate(465,9)"/>
<path d="M0 0 C23.76 0 47.52 0 72 0 C72.020625 11.694375 72.04125 23.38875 72.0625 35.4375 C72.071604 39.13509521 72.08070801 42.83269043 72.09008789 46.64233398 C72.09460449 51.14465332 72.09460449 51.14465332 72.09544373 53.24989319 C72.09698306 54.72568564 72.10050776 56.2014768 72.10557556 57.67726135 C72.1128548 59.90782875 72.11390736 62.13831905 72.11352539 64.36889648 C72.115746 65.62798325 72.11796661 66.88707001 72.12025452 68.18431091 C72 71 72 71 71 72 C68.79132169 72.09432985 66.57958479 72.11742431 64.36889648 72.11352539 C63.66501077 72.11364593 62.96112505 72.11376646 62.23590946 72.11389065 C59.94760589 72.11314167 57.65938283 72.10551417 55.37109375 72.09765625 C53.96228067 72.09618678 52.55346705 72.0951661 51.14465332 72.09460449 C45.90892724 72.08935216 40.67321284 72.07539107 35.4375 72.0625 C17.8959375 72.0315625 17.8959375 72.0315625 0 72 C0 48.24 0 24.48 0 0 Z " fill="#EB7D8D" transform="translate(550,94)"/>
<path d="M0 0 C2.82392655 2.09984282 3.90820469 3.64703638 5.4375 6.8125 C5.77807617 10.1340332 5.77807617 10.1340332 5.73046875 13.86328125 C5.72622391 14.52208786 5.72197906 15.18089447 5.71760559 15.85966492 C5.70091196 17.94853885 5.66328058 20.03642139 5.625 22.125 C5.60994097 23.54751203 5.59625469 24.9700393 5.58398438 26.39257812 C5.55104003 29.86620351 5.49932408 33.33925487 5.4375 36.8125 C0.6953125 37.9453125 0.6953125 37.9453125 -1.625 36.75 C-2.264375 36.440625 -2.90375 36.13125 -3.5625 35.8125 C-4.1503125 36.11414063 -4.738125 36.41578125 -5.34375 36.7265625 C-9.49407373 38.75788292 -14.06505605 38.47977655 -18.5625 37.8125 C-21.78594672 35.3784688 -23.3371971 33.15045435 -25.5625 29.8125 C-26.13965499 24.7830065 -26.16764524 22.80273766 -23.5 18.4375 C-17.59293903 13.15884977 -11.07186952 13.54053088 -3.5625 13.8125 C-4.2225 11.8325 -4.8825 9.8525 -5.5625 7.8125 C-10.8425 7.8125 -16.1225 7.8125 -21.5625 7.8125 C-21.5625 5.5025 -21.5625 3.1925 -21.5625 0.8125 C-14.80893151 -2.189086 -6.95932872 -2.31977624 0 0 Z " fill="#39AFC2" transform="translate(636.5625,213.1875)"/>
<path d="M0 0 C0.886875 -0.00257813 1.77375 -0.00515625 2.6875 -0.0078125 C5 0.125 5 0.125 7 1.125 C7 2.775 7 4.425 7 6.125 C6.24074219 6.27195313 5.48148438 6.41890625 4.69921875 6.5703125 C3.70535156 6.79460937 2.71148438 7.01890625 1.6875 7.25 C0.70136719 7.45882812 -0.28476562 7.66765625 -1.30078125 7.8828125 C-4.79417508 9.14946254 -4.79417508 9.14946254 -7 15.125 C-1.06 15.125 4.88 15.125 11 15.125 C11.33 12.815 11.66 10.505 12 8.125 C12.66 7.795 13.32 7.465 14 7.125 C14 7.785 14 8.445 14 9.125 C15.32 9.125 16.64 9.125 18 9.125 C19.40876405 13.35129214 19 16.23403751 19 21.125 C10.42 21.125 1.84 21.125 -7 21.125 C-4.5797509 26.75606761 -4.5797509 26.75606761 -2 29.125 C0.33560151 29.44423475 0.33560151 29.44423475 2.9375 29.375 C3.81277344 29.38015625 4.68804688 29.3853125 5.58984375 29.390625 C8.26105634 29.28333837 8.26105634 29.28333837 11 27.125 C11.99 27.125 12.98 27.125 14 27.125 C16 30.125 16 30.125 16.0625 32.625 C15 35.125 15 35.125 12 36.9375 C5.45462855 39.29812577 -1.63026047 38.76904283 -8 36.125 C-12.03959173 33.04411322 -14.44360401 30.00123149 -16 25.125 C-16.72084166 18.25360024 -16.64930469 12.085531 -13 6.125 C-8.94182525 1.98025085 -5.795501 -0.01684739 0 0 Z " fill="#37AEC2" transform="translate(698,212.875)"/>
<path d="M0 0 C3.11125051 1.56823162 5.77835914 3.29431448 8 6 C8 10 8 10 6.6875 11.75 C5 13 5 13 2 13 C2 12.34 2 11.68 2 11 C-2.07633284 9.64122239 -5.74825809 9.22560217 -10 10 C-13.60762193 13.01862243 -14.81618826 14.85628253 -15.5625 19.5 C-14.86095739 23.86515403 -13.13539968 26.86460032 -10 30 C-4.05480245 30.63398675 -4.05480245 30.63398675 1.25 28.4375 C1.8275 27.963125 2.405 27.48875 3 27 C5.75 27.3125 5.75 27.3125 8 28 C8.75 29.6875 8.75 29.6875 9 32 C6.91882331 35.12176503 5.13348366 36.91101089 2 39 C-4.03548651 39.65352402 -10.45839576 39.5576635 -16 37 C-21.69109022 31.82099152 -24.94188932 26.96855193 -25.5 19.25 C-25.34789269 13.24623488 -23.10257014 9.29712501 -19 5 C-13.3786625 0.41727153 -7.18502756 -1.64393431 0 0 Z " fill="#34ADC1" transform="translate(596,212)"/>
<path d="M0 0 C0.66 0.33 1.32 0.66 2 1 C1.125 6.75 1.125 6.75 0 9 C-2.51963422 9.35672241 -5.01333243 9.44375117 -7.5546875 9.55859375 C-10.50028718 10.09030743 -11.21597935 10.62951691 -13 13 C-13.50545868 15.70484875 -13.50545868 15.70484875 -13.51171875 18.76171875 C-13.54716797 19.87998047 -13.58261719 20.99824219 -13.61914062 22.15039062 C-13.65297852 23.90125977 -13.65297852 23.90125977 -13.6875 25.6875 C-13.72166016 26.86634766 -13.75582031 28.04519531 -13.79101562 29.25976562 C-13.87357925 32.17308225 -13.94270322 35.08609466 -14 38 C-20.15234375 38.09765625 -20.15234375 38.09765625 -22 38 C-23.76072584 36.23927416 -23.12834784 33.9210371 -23.13894653 31.5760498 C-23.1369223 30.81876587 -23.13489807 30.06148193 -23.1328125 29.28125 C-23.13376923 28.50817505 -23.13472595 27.7351001 -23.13571167 26.93859863 C-23.13639341 25.30102456 -23.13453957 23.66344781 -23.13037109 22.02587891 C-23.12502271 19.51068079 -23.13031626 16.99566127 -23.13671875 14.48046875 C-23.13605797 12.89322877 -23.1347768 11.3059889 -23.1328125 9.71875 C-23.13483673 8.96146606 -23.13686096 8.20418213 -23.13894653 7.4239502 C-23.11495132 2.11495132 -23.11495132 2.11495132 -22 1 C-20.33382885 0.95936168 -18.66611905 0.957279 -17 1 C-16.67 1.99 -16.34 2.98 -16 4 C-15.030625 3.34 -14.06125 2.68 -13.0625 2 C-8.78811611 -0.46867478 -4.83545745 -0.60073911 0 0 Z " fill="#36ADC2" transform="translate(676,212)"/>
<path d="M0 0 C1.50433594 0.01353516 1.50433594 0.01353516 3.0390625 0.02734375 C3.80992187 0.03894531 4.58078125 0.05054688 5.375 0.0625 C5.705 1.0525 6.035 2.0425 6.375 3.0625 C5.26125 3.51625 4.1475 3.97 3 4.4375 C-0.58699008 5.78715986 -0.58699008 5.78715986 -2.625 8.0625 C-2.87505386 11.10432893 -2.87505386 11.10432893 -2.625 14.0625 C-0.65677114 16.03072886 2.72308709 15.72498381 5.375 16.0625 C5.375 16.3925 5.375 16.7225 5.375 17.0625 C3.32421875 17.29036458 1.2734375 17.51822917 -0.77734375 17.74609375 C-2.63640229 17.88136614 -2.63640229 17.88136614 -3.625 19.0625 C-1.975 19.3925 -0.325 19.7225 1.375 20.0625 C1.375 21.0525 1.375 22.0425 1.375 23.0625 C-1.8125 23.375 -1.8125 23.375 -5.625 23.0625 C-9.7961818 19.63286163 -12.4367621 16.70285885 -13.0625 11.25 C-12.96442654 6.41765326 -11.01303669 4.36986915 -7.625 1.0625 C-4.98041621 -0.25979189 -2.94738699 -0.03427194 0 0 Z " fill="#3AAFC3" transform="translate(623.625,227.9375)"/>
<path d="M0 0 C6.67237414 -0.55603118 11.38051928 0.27059293 17 4 C19.5 6.125 19.5 6.125 21 8 C21 8.66 21 9.32 21 10 C18.525 9.505 18.525 9.505 16 9 C15.34 11.31 14.68 13.62 14 16 C8.06 16 2.12 16 -4 16 C-2 10 -2 10 1 8 C3.64017635 7.18220159 6.30270591 6.6190511 9 6 C9.33 4.68 9.66 3.36 10 2 C6.7 1.67 3.4 1.34 0 1 C0 0.67 0 0.34 0 0 Z " fill="#4CB6C8" transform="translate(695,212)"/>
<path d="M0 0 C0.33 0.66 0.66 1.32 1 2 C2.32 2 3.64 2 5 2 C6.26086514 5.94020358 6 8.47580299 6 13 C-2.58 13 -11.16 13 -20 13 C-20.33 12.01 -20.66 11.02 -21 10 C-16.78103134 7.95101713 -13.34627854 7.78792003 -8.6875 7.875 C-7.43324219 7.89304688 -6.17898438 7.91109375 -4.88671875 7.9296875 C-3.45779297 7.96449219 -3.45779297 7.96449219 -2 8 C-1.855625 6.865625 -1.71125 5.73125 -1.5625 4.5625 C-1 1 -1 1 0 0 Z " fill="#2BA9BE" transform="translate(711,220)"/>
<path d="M0 0 C3.125 0.375 3.125 0.375 5.5625 1.9375 C7.125 4.375 7.125 4.375 7.0625 8 C6.125 11.375 6.125 11.375 3.125 13.375 C0.125 13.75 0.125 13.75 -2.875 13.375 C-4.8125 11.8125 -4.8125 11.8125 -5.875 9.375 C-5.42669811 0.70783019 -5.42669811 0.70783019 0 0 Z " fill="#EB8191" transform="translate(556.875,237.625)"/>
<path d="M0 0 C0.3125 2.75 0.3125 2.75 0 6 C-2.81610014 9.24278198 -4.39831966 9.93881217 -8.6875 10.375 C-12 10 -12 10 -14 8 C-14.4375 5.0625 -14.4375 5.0625 -14 2 C-9.86657501 -2.13342499 -5.27546034 -0.95395034 0 0 Z " fill="#F0F8F8" transform="translate(634,234)"/>
<path d="M0 0 C2.5 1.25 2.5 1.25 4 3 C4 4.32 4 5.64 4 7 C-1.61 7 -7.22 7 -13 7 C-10.20189041 0.00472602 -7.1600317 -0.93642266 0 0 Z " fill="#F1F9F9" transform="translate(704,220)"/>
<path d="M0 0 C1.67542976 0.28604898 3.34385343 0.61781233 5 1 C5.75 2.6875 5.75 2.6875 6 5 C3.91882331 8.12176503 2.13348366 9.91101089 -1 12 C-1.99 11.67 -2.98 11.34 -4 11 C-3.34 11 -2.68 11 -2 11 C-1.67 10.01 -1.34 9.02 -1 8 C-0.34 8 0.32 8 1 8 C1 7.34 1 6.68 1 6 C0.01 5.67 -0.98 5.34 -2 5 C-1.01 4.34 -0.02 3.68 1 3 C0.34 2.34 -0.32 1.68 -1 1 C-0.67 0.67 -0.34 0.34 0 0 Z " fill="#3CB0C3" transform="translate(599,239)"/>
<path d="M0 0 C0.99 0.33 1.98 0.66 3 1 C1.84826645 3.46800047 0.95216435 5.04783565 -1 7 C-1.99 7 -2.98 7 -4 7 C-4 6.34 -4 5.68 -4 5 C-4.99 4.67 -5.98 4.34 -7 4 C-5 3 -5 3 -2 3 C-1.34 2.01 -0.68 1.02 0 0 Z " fill="#4AB6C7" transform="translate(602,218)"/>
<path d="M0 0 C0.99 0.66 1.98 1.32 3 2 C2.34 3.65 1.68 5.3 1 7 C1.66 7.66 2.32 8.32 3 9 C1.68 9 0.36 9 -1 9 C-1.33 6.69 -1.66 4.38 -2 2 C-1.34 2 -0.68 2 0 2 C0 1.34 0 0.68 0 0 Z " fill="#2BAABE" transform="translate(618,240)"/>
<path d="M0 0 C9.41002278 -0.3690205 9.41002278 -0.3690205 14 2 C13.67 2.66 13.34 3.32 13 4 C12.01 4 11.02 4 10 4 C10 3.34 10 2.68 10 2 C6.7 1.67 3.4 1.34 0 1 C0 0.67 0 0.34 0 0 Z " fill="#51B9CB" transform="translate(695,212)"/>
<path d="M0 0 C0.66 0.33 1.32 0.66 2 1 C1.8125 3.375 1.8125 3.375 1 6 C-1.5625 7.3125 -1.5625 7.3125 -4 8 C-4.33 7.34 -4.66 6.68 -5 6 C-3.68 6 -2.36 6 -1 6 C-0.67 4.02 -0.34 2.04 0 0 Z " fill="#41B2C5" transform="translate(712,242)"/>
<path d="M0 0 C1.45823212 -0.0270043 2.91660675 -0.04639787 4.375 -0.0625 C5.18710937 -0.07410156 5.99921875 -0.08570313 6.8359375 -0.09765625 C9 0 9 0 11 1 C10.67 2.32 10.34 3.64 10 5 C9.34 4.67 8.68 4.34 8 4 C8 3.01 8 2.02 8 1 C5.36 1 2.72 1 0 1 C0 0.67 0 0.34 0 0 Z " fill="#5ABBCB" transform="translate(667,212)"/>
<path d="M0 0 C0.33 0 0.66 0 1 0 C0.67 3.3 0.34 6.6 0 10 C-0.99 9.01 -1.98 8.02 -3 7 C-3 6.34 -3 5.68 -3 5 C-2.01 5 -1.02 5 0 5 C0 3.35 0 1.7 0 0 Z " fill="#CADEE1" transform="translate(153,97)"/>
</svg>
