<?xml version="1.0" encoding="UTF-8"?>
<svg version="1.1" xmlns="http://www.w3.org/2000/svg" width="735" height="117">
<path d="M0 0 C242.55 0 485.1 0 735 0 C735 38.61 735 77.22 735 117 C492.45 117 249.9 117 0 117 C0 78.39 0 39.78 0 0 Z " fill="#FCFDFD" transform="translate(0,0)"/>
<path d="M0 0 C1.98 0 3.96 0 6 0 C10.32422624 11.53979901 14.45197535 23.1176799 18.28710938 34.82910156 C19.47024983 38.43200735 20.67347647 42.02819231 21.875 45.625 C22.58333333 47.75 23.29166667 49.875 24 52 C26.71634156 44.31752255 29.21100145 36.88709072 30.47265625 28.8125 C31.32866339 24.24712859 32.73178517 19.84522705 34.046875 15.39453125 C35.29160235 10.96146542 36.17662964 6.52853696 37 2 C40.96 2 44.92 2 49 2 C48.3888647 7.84564196 47.28672897 13.33180491 45.75 19 C45.53110107 19.82161621 45.31220215 20.64323242 45.08666992 21.48974609 C43.28679491 28.15371429 41.26017259 34.72950524 39.11328125 41.2890625 C38.3219995 43.92666833 37.67140261 46.43177858 37.11328125 49.11328125 C35.77119804 55.37945375 33.78894414 61.45208116 31.875 67.5625 C31.50246094 68.76197266 31.12992187 69.96144531 30.74609375 71.19726562 C29.83394074 74.13252725 28.91850472 77.06672103 28 80 C26.02 80 24.04 80 22 80 C21.79246094 79.29359375 21.58492188 78.5871875 21.37109375 77.859375 C17.14269751 63.77651556 12.26074137 49.87831854 6.86572266 36.19995117 C5.43040021 32.48279564 4.51943985 28.95015883 4 25 C3.34 25 2.68 25 2 25 C1.85304687 25.51304688 1.70609375 26.02609375 1.5546875 26.5546875 C-0.51311514 33.61373788 -2.83346894 40.58340099 -5.17578125 47.5546875 C-6.58275105 51.74291375 -7.97146445 55.93694226 -9.35546875 60.1328125 C-9.7613623 61.36008057 -10.16725586 62.58734863 -10.58544922 63.85180664 C-11.39786168 66.3086027 -12.20811422 68.76611415 -13.01611328 71.22436523 C-13.57468018 72.90961304 -13.57468018 72.90961304 -14.14453125 74.62890625 C-14.64496948 76.1459314 -14.64496948 76.1459314 -15.15551758 77.69360352 C-16 80 -16 80 -17 81 C-18.66617115 81.04063832 -20.33388095 81.042721 -22 81 C-23.96715646 74.8089492 -25.89302767 68.63972318 -27.375 62.3125 C-28.62064025 57.13145785 -30.26556135 52.15661022 -32 47.125 C-34.2267979 40.64293364 -35.9071435 34.26232456 -37.2109375 27.5234375 C-38.28142752 22.74332859 -39.78068171 18.13257364 -41.37524414 13.50341797 C-42.69799657 9.53465329 -43.2385864 6.17848612 -43 2 C-39.37 2 -35.74 2 -32 2 C-29.21041211 9.94901377 -27.06587842 18.04298398 -24.9375 26.1875 C-24.40897953 28.20555322 -23.87955642 30.22335341 -23.34779358 32.24055481 C-22.86766627 34.06239629 -22.39064645 35.88505591 -21.91381836 37.70776367 C-21.30937651 39.8854015 -20.63340851 42.04454895 -19.88500977 44.17700195 C-19 47 -19 47 -19 51 C-18.34 51 -17.68 51 -17 51 C-16.81667114 49.95537598 -16.81667114 49.95537598 -16.62963867 48.88964844 C-15.94402636 45.74311595 -14.98294933 42.80761992 -13.92578125 39.765625 C-13.29905518 37.955177 -13.29905518 37.955177 -12.65966797 36.1081543 C-12.21071452 34.82206706 -11.76165675 33.53601625 -11.3125 32.25 C-10.85799524 30.94124558 -10.40373172 29.63240737 -9.94970703 28.32348633 C-6.66716192 18.87040038 -3.35614336 9.42721571 0 0 Z " fill="#287F86" transform="translate(56,22)"/>
<path d="M0 0 C3.63 0 7.26 0 11 0 C11 10.89 11 21.78 11 33 C24.53 33 38.06 33 52 33 C52 22.11 52 11.22 52 0 C55.63 0 59.26 0 63 0 C64.65682757 1.65682757 64.1256141 3.64832528 64.13552856 5.86180115 C64.13249222 6.90365318 64.13249222 6.90365318 64.12939453 7.96655273 C64.13202301 9.05922958 64.13202301 9.05922958 64.13470459 10.17398071 C64.13912356 12.59387561 64.13618467 15.01369804 64.1328125 17.43359375 C64.1334856 19.10889195 64.13445568 20.78419005 64.13571167 22.45948792 C64.13718876 25.97601244 64.135034 29.49251162 64.13037109 33.0090332 C64.12467818 37.5231068 64.12794996 42.03712088 64.13394356 46.55119228 C64.1375526 50.01264395 64.13640892 53.47408144 64.13381577 56.93553352 C64.13314722 58.6001594 64.1339724 60.26478655 64.13629532 61.92941093 C64.13882698 64.2543263 64.13497377 66.57914462 64.12939453 68.90405273 C64.13141876 69.59659653 64.13344299 70.28914032 64.13552856 71.00267029 C64.11426368 75.77147264 64.11426368 75.77147264 63 78 C61.35425434 78.02688151 59.70838587 78.04634123 58.0625 78.0625 C57.14597656 78.07410156 56.22945312 78.08570312 55.28515625 78.09765625 C53 78 53 78 52 77 C51.9115717 74.55196233 51.88464028 72.13155206 51.90234375 69.68359375 C51.90335083 69.03588013 51.90435791 68.3881665 51.90539551 67.7208252 C51.91064157 65.29303221 51.92460275 62.86526439 51.9375 60.4375 C51.9684375 52.3009375 51.9684375 52.3009375 52 44 C38.8 44 25.6 44 12 44 C12 55.22 12 66.44 12 78 C8.37 78 4.74 78 1 78 C-0.68503699 76.31496301 -0.11965983 74.23740116 -0.12442017 71.98905945 C-0.12082489 71.27264786 -0.11722961 70.55623627 -0.11352539 69.81811523 C-0.11367142 69.06694427 -0.11381744 68.31577332 -0.1139679 67.5418396 C-0.11326863 65.04739541 -0.10547564 62.55302497 -0.09765625 60.05859375 C-0.09579212 58.33366436 -0.09436819 56.60873443 -0.09336853 54.88380432 C-0.08954297 50.33487497 -0.07971238 45.78597733 -0.06866455 41.23706055 C-0.05845124 36.59879994 -0.05387108 31.96053423 -0.04882812 27.32226562 C-0.03809014 18.21482978 -0.02101327 9.10741752 0 0 Z " fill="#287F87" transform="translate(198,24)"/>
<path d="M0 0 C3.1999552 2.13178185 6.14173831 4.43045161 9 7 C8.21007484 11.24925258 6.15346563 13.08910865 3 16 C0.83899818 14.92200605 -1.31880719 13.83833 -3.47265625 12.74609375 C-4.32730469 12.31425781 -5.18195312 11.88242187 -6.0625 11.4375 C-6.91972656 11.00308594 -7.77695312 10.56867187 -8.66015625 10.12109375 C-14.27641784 7.43016374 -19.59706347 7.05984937 -25.6015625 8.71875 C-33.47046326 11.66661615 -38.80771057 15.51376888 -43 23 C-46.0805661 30.70141525 -46.24036002 39.44289204 -43.4375 47.25 C-40.02112655 54.68001498 -35.2155485 60.43770336 -27.44140625 63.37109375 C-18.01880478 65.79835589 -10.47537627 63.31616384 -2 59 C-1.01 58.34 -0.02 57.68 1 57 C3.81292754 57.1814792 5.05033238 58.03808937 7.3125 59.75 C9 62 9 62 8.9296875 64.41015625 C7.66879776 67.92263481 5.98130438 68.78450682 2.8125 70.6875 C1.87019531 71.26886719 0.92789063 71.85023437 -0.04296875 72.44921875 C-9.91913736 77.62866252 -23.09447178 78.01500875 -33.76171875 74.90234375 C-36.73239948 73.47596056 -39.3249395 71.91934518 -42 70 C-42.73089844 69.51660156 -43.46179688 69.03320312 -44.21484375 68.53515625 C-51.00647882 63.41209947 -56.74145158 54.31543356 -58.69921875 46.046875 C-60.07597543 32.1005086 -59.05685298 22.74334976 -50.6875 11.1875 C-47.2374205 7.02514602 -43.60528846 3.82523015 -39 1 C-38.21109375 0.51273438 -37.4221875 0.02546875 -36.609375 -0.4765625 C-25.31770714 -6.5280851 -11.3336369 -5.67499568 0 0 Z " fill="#33ACC0" transform="translate(575,26)"/>
<path d="M0 0 C0.8146875 0.00257812 1.629375 0.00515625 2.46875 0.0078125 C3.2834375 0.00523438 4.098125 0.00265625 4.9375 0 C6.96875 0.1328125 6.96875 0.1328125 7.96875 1.1328125 C8.05726529 3.72640572 8.08400945 6.29320941 8.06640625 8.88671875 C8.0649913 9.66216537 8.06357635 10.437612 8.06211853 11.23655701 C8.05650345 13.72284744 8.04394846 16.2090491 8.03125 18.6953125 C8.02623694 20.37695183 8.0216737 22.05859256 8.01757812 23.74023438 C8.00652913 27.87112816 7.98925445 32.00195526 7.96875 36.1328125 C9.68599955 35.11072795 11.4032491 34.08864339 13.12049866 33.06655884 C17.71945395 30.74314234 23.02766411 31.33979871 27.96875 32.1328125 C33.37130084 34.46766886 36.63530722 38.15646819 39.17700195 43.47509766 C40.76643998 48.81047304 40.43925046 54.4065095 40.32543945 59.92602539 C40.28085271 62.08959114 40.26391686 64.25204449 40.25195312 66.41601562 C40.1490839 76.9524786 40.1490839 76.9524786 38.96875 78.1328125 C37.47136876 78.2307182 35.96932108 78.26256114 34.46875 78.2578125 C33.6540625 78.26039062 32.839375 78.26296875 32 78.265625 C29.96875 78.1328125 29.96875 78.1328125 28.96875 77.1328125 C28.87125052 75.04602132 28.83669839 72.95623754 28.828125 70.8671875 C28.79912109 68.94326172 28.79912109 68.94326172 28.76953125 66.98046875 C28.74062657 64.93509529 28.71875192 62.89080539 28.71826172 60.84521484 C28.71491366 58.87320542 28.67812396 56.9013432 28.640625 54.9296875 C28.6312793 53.74729492 28.62193359 52.56490234 28.61230469 51.34667969 C27.79015751 47.24093409 26.16839429 45.74321537 22.96875 43.1328125 C19.9925152 42.29037732 18.14479593 42.72950508 14.96875 43.1328125 C12.62613392 44.51208023 12.62613392 44.51208023 10.96875 46.1328125 C10.30875 46.1328125 9.64875 46.1328125 8.96875 46.1328125 C8.94369385 47.06665771 8.9186377 48.00050293 8.89282227 48.96264648 C8.79788072 52.41606439 8.69863742 55.8693021 8.59643555 59.32250977 C8.55303187 60.81920519 8.51136087 62.31595189 8.47143555 63.81274414 C8.41386384 65.95995562 8.35013284 68.10690771 8.28515625 70.25390625 C8.24849854 71.5473999 8.21184082 72.84089355 8.17407227 74.17358398 C7.96875 77.1328125 7.96875 77.1328125 6.96875 78.1328125 C5.28266034 78.20486761 3.59374341 78.21667318 1.90625 78.1953125 C0.52759766 78.18177734 0.52759766 78.18177734 -0.87890625 78.16796875 C-1.58917969 78.15636719 -2.29945313 78.14476563 -3.03125 78.1328125 C-3.0543741 68.11053487 -3.07216543 58.08826353 -3.08306217 48.0659647 C-3.08829085 43.41270064 -3.09538823 38.75945476 -3.10668945 34.10620117 C-3.11751886 29.61936704 -3.12352695 25.13255046 -3.12612724 20.64570427 C-3.1279814 18.93000957 -3.13160182 17.21431588 -3.13698006 15.49862862 C-3.14419121 13.10396337 -3.14524091 10.70937154 -3.14477539 8.31469727 C-3.14837067 7.59828568 -3.15196594 6.88187408 -3.15567017 6.14375305 C-3.14309734 0.20551021 -3.14309734 0.20551021 0 0 Z " fill="#298087" transform="translate(441.03125,23.8671875)"/>
<path d="M0 0 C4.91336792 2.59532301 9.24779258 7.38621016 11.73046875 12.3515625 C11.73046875 16.3115625 11.73046875 20.2715625 11.73046875 24.3515625 C1.17046875 24.3515625 -9.38953125 24.3515625 -20.26953125 24.3515625 C-17.60357829 31.37347509 -17.60357829 31.37347509 -12.26953125 35.3515625 C-6.36229639 36.00792193 -3.55034251 35.11198657 1.73046875 32.3515625 C3.91796875 32.4140625 3.91796875 32.4140625 5.73046875 33.3515625 C8.11467336 35.90606744 8.73046875 36.7920148 8.73046875 40.3515625 C1.07472423 46.30603046 -7.02439673 46.39836609 -16.26953125 45.3515625 C-21.70841097 43.77367033 -25.10541307 39.92195543 -28.26953125 35.3515625 C-31.82221425 28.73130181 -32.31703262 22.0234186 -30.68359375 14.73828125 C-28.38288806 7.78339571 -24.37289628 4.20445896 -18.26953125 0.3515625 C-13.28612315 -2.14014155 -5.25887222 -1.50253492 0 0 Z " fill="#31ABC0" transform="translate(707.26953125,56.6484375)"/>
<path d="M0 0 C4.85959834 1.86395553 8.54534268 4.89057576 11.5625 9.125 C13 13 13 13 13 25 C2.44 25 -8.12 25 -19 25 C-16.16490938 32.04349449 -16.16490938 32.04349449 -11 36 C-6.45697847 36.44685458 -3.38284318 36.36616015 0.75 34.4375 C4 33 4 33 6.3125 33.125 C8 34 8 34 10 37 C10.125 39.4375 10.125 39.4375 9 42 C1.92603964 47.3415619 -6.53671505 46.9849137 -15 46 C-20.96293045 44.08302828 -24.0459097 40.17085564 -27.08984375 34.8671875 C-30.20798242 28.47031933 -30.42945524 19.19221401 -28.12890625 12.4453125 C-21.41275281 1.12694245 -12.51535627 -1.32007815 0 0 Z " fill="#277F86" transform="translate(304,56)"/>
<path d="M0 0 C0.88558594 -0.03287109 1.77117187 -0.06574219 2.68359375 -0.09960938 C7.02167619 -0.13516743 10.15070458 -0.0431464 13.6328125 2.71484375 C18.09665329 7.59148486 18.40778058 11.2055692 18.3203125 17.703125 C18.3174826 18.49652283 18.31465271 19.28992065 18.31173706 20.10736084 C18.30056779 22.63422917 18.27546944 25.16073932 18.25 27.6875 C18.23996598 29.4036407 18.23084087 31.11978698 18.22265625 32.8359375 C18.20063914 37.03659574 18.16613187 41.2369872 18.125 45.4375 C15.815 45.4375 13.505 45.4375 11.125 45.4375 C10.795 44.4475 10.465 43.4575 10.125 42.4375 C9.18140625 42.97890625 9.18140625 42.97890625 8.21875 43.53125 C2.5294756 46.61579636 -1.39539172 48.40944124 -7.875 47.4375 C-12.5064797 44.90329412 -16.18532562 42.50652315 -17.875 37.4375 C-18.44892153 32.8751871 -18.90665036 28.39348138 -16.7109375 24.23046875 C-13.8181954 20.70725722 -11.2847821 18.78458041 -6.875 17.4375 C-3.61328125 17.20703125 -3.61328125 17.20703125 -0.1875 17.25 C1.51986328 17.25966797 1.51986328 17.25966797 3.26171875 17.26953125 C6.125 17.4375 6.125 17.4375 8.125 18.4375 C7.2645861 14.10520285 7.2645861 14.10520285 5.125 10.4375 C0.07566388 10.14048023 -5.00119996 10.19810916 -10 11 C-11.423125 11.2165625 -11.423125 11.2165625 -12.875 11.4375 C-13.875 10.4375 -13.875 10.4375 -13.97265625 8.58984375 C-13.94010417 6.5390625 -13.90755208 4.48828125 -13.875 2.4375 C-9.3054017 -0.16468656 -5.14921014 0.03343643 0 0 Z " fill="#2C8188" transform="translate(342.875,55.5625)"/>
<path d="M0 0 C0.78117188 -0.03287109 1.56234375 -0.06574219 2.3671875 -0.09960938 C6.45641174 -0.13747256 9.17137631 0.12949281 12.4375 2.71484375 C16.99845717 7.56086075 17.2832135 11.17341011 17.1953125 17.703125 C17.1924826 18.49652283 17.18965271 19.28992065 17.18673706 20.10736084 C17.17556779 22.63422917 17.15046944 25.16073932 17.125 27.6875 C17.11496598 29.4036407 17.10584087 31.11978698 17.09765625 32.8359375 C17.07563914 37.03659574 17.04113187 41.2369872 17 45.4375 C14.69 45.4375 12.38 45.4375 10 45.4375 C9.67 44.7775 9.34 44.1175 9 43.4375 C8.236875 43.746875 7.47375 44.05625 6.6875 44.375 C0.736232 46.72782689 -4.63218236 47.3248862 -11 46.4375 C-15.09019095 44.25052819 -17.53211345 41.84115965 -19 37.4375 C-20.13725202 27.08850658 -20.13725202 27.08850658 -16.875 22.9375 C-11.62211549 18.36977434 -7.56793885 17.05350173 -0.625 17.25 C0.62023437 17.27707031 1.86546875 17.30414063 3.1484375 17.33203125 C4.08945312 17.36683594 5.03046875 17.40164062 6 17.4375 C6.16687448 15.02104218 6.16687448 15.02104218 6 12.4375 C4.16086155 10.17025963 4.16086155 10.17025963 1.390625 10.20703125 C-6.35335211 10.28911746 -6.35335211 10.28911746 -14 11.4375 C-14.33 8.4675 -14.66 5.4975 -15 2.4375 C-9.90459726 0.40423833 -5.40495117 0.04013578 0 0 Z " fill="#31ABC0" transform="translate(611,55.5625)"/>
<path d="M0 0 C4.35349041 3.91209851 6.39640958 8.38678191 7.01855469 14.18676758 C7.16977981 18.46698329 7.05584896 22.7371675 6.93066406 27.01660156 C6.90553766 28.51721525 6.88273218 30.01786968 6.86230469 31.51855469 C6.80768053 35.16459525 6.72165242 38.80908227 6.61816406 42.45410156 C2.98816406 42.45410156 -0.64183594 42.45410156 -4.38183594 42.45410156 C-4.40689209 41.59655273 -4.43194824 40.73900391 -4.45776367 39.85546875 C-4.55307006 36.66475786 -4.65229344 33.47419938 -4.75415039 30.28369141 C-4.79738143 28.90450778 -4.83906459 27.52527472 -4.87915039 26.14599609 C-4.93713996 24.16003218 -5.00121317 22.17424887 -5.06542969 20.18847656 C-5.1020874 18.99448242 -5.13874512 17.80048828 -5.17651367 16.5703125 C-5.38041836 12.91836198 -5.38041836 12.91836198 -6.38183594 9.45410156 C-9.2333711 8.50358984 -11.28083335 8.22753477 -14.25683594 8.14160156 C-15.09988281 8.10421875 -15.94292969 8.06683594 -16.81152344 8.02832031 C-20.36543913 8.61703887 -21.8558041 9.9021962 -24.38183594 12.45410156 C-25.16000903 15.72775908 -25.16000903 15.72775908 -25.08886719 19.40722656 C-25.10398849 20.06744812 -25.1191098 20.72766968 -25.13468933 21.40789795 C-25.17751794 23.50698116 -25.18639795 25.60462526 -25.19433594 27.70410156 C-25.21748457 29.13122302 -25.24285071 30.55831035 -25.27050781 31.98535156 C-25.33330739 35.4749072 -25.36568385 38.96398289 -25.38183594 42.45410156 C-29.01183594 42.45410156 -32.64183594 42.45410156 -36.38183594 42.45410156 C-36.38183594 27.93410156 -36.38183594 13.41410156 -36.38183594 -1.54589844 C-34.07183594 -1.54589844 -31.76183594 -1.54589844 -29.38183594 -1.54589844 C-29.05183594 -0.22589844 -28.72183594 1.09410156 -28.38183594 2.45410156 C-27.51558594 1.81472656 -26.64933594 1.17535156 -25.75683594 0.51660156 C-18.95892596 -3.63767676 -6.82123532 -5.01756454 0 0 Z " fill="#298087" transform="translate(176.3818359375,58.5458984375)"/>
<path d="M0 0 C3.63 0 7.26 0 11 0 C11 4.62 11 9.24 11 14 C15.29 14 19.58 14 24 14 C24 16.97 24 19.94 24 23 C22 24 22 24 11 24 C11.33 32.25 11.66 40.5 12 49 C17.445 48.505 17.445 48.505 23 48 C25.14201526 51.21302289 25.65325876 52.26709281 25 56 C19.44015194 60.32432627 12.82629549 60.81738813 6 60 C2.44319828 57.89495409 1.30531064 56.91593192 0 53 C-0.08378628 50.7161483 -0.10729915 48.429899 -0.09765625 46.14453125 C-0.0962413 45.48289474 -0.09482635 44.82125824 -0.09336853 44.13957214 C-0.08777996 42.03050172 -0.07522965 39.92153823 -0.0625 37.8125 C-0.05748352 36.38086091 -0.05292087 34.94922015 -0.04882812 33.51757812 C-0.0378143 30.01168412 -0.02055755 26.5058525 0 23 C-2.31 23 -4.62 23 -7 23 C-7 20.03 -7 17.06 -7 14 C-4.69 14 -2.38 14 0 14 C0 9.38 0 4.76 0 0 Z " fill="#2E838A" transform="translate(403,43)"/>
<path d="M0 0 C1.64574566 -0.02688151 3.29161413 -0.04634123 4.9375 -0.0625 C5.85402344 -0.07410156 6.77054687 -0.08570312 7.71484375 -0.09765625 C10 0 10 0 11 1 C11.10025695 3.36761575 11.13618935 5.70607073 11.12939453 8.07421875 C11.13114685 8.81402985 11.13289917 9.55384094 11.13470459 10.31607056 C11.1391231 12.77323723 11.13618513 15.23033253 11.1328125 17.6875 C11.13348554 19.38761407 11.13445557 21.08772805 11.13571167 22.7878418 C11.13718864 26.35564081 11.13503411 29.92341483 11.13037109 33.49121094 C11.1246738 38.07488494 11.12795281 42.65850039 11.13394356 47.24217224 C11.13754919 50.75419561 11.13641057 54.26620498 11.13381577 57.77822876 C11.1331465 59.46880093 11.13397489 61.15937436 11.13629532 62.84994507 C11.13882189 65.20859157 11.13498121 67.56714195 11.12939453 69.92578125 C11.13141876 70.63127106 11.13344299 71.33676086 11.13552856 72.06362915 C11.11426271 76.88573729 11.11426271 76.88573729 10 78 C8.50261876 78.0979057 7.00057108 78.12974864 5.5 78.125 C4.6853125 78.12757812 3.870625 78.13015625 3.03125 78.1328125 C1 78 1 78 0 77 C-0.09496708 74.59651714 -0.12558862 72.22189018 -0.11352539 69.81811523 C-0.11367142 69.06694427 -0.11381744 68.31577332 -0.1139679 67.5418396 C-0.11326863 65.04739541 -0.10547564 62.55302497 -0.09765625 60.05859375 C-0.09579212 58.33366436 -0.09436819 56.60873443 -0.09336853 54.88380432 C-0.08954297 50.33487497 -0.07971238 45.78597733 -0.06866455 41.23706055 C-0.05845124 36.59879994 -0.05387108 31.96053423 -0.04882812 27.32226562 C-0.03809014 18.21482978 -0.02101327 9.10741752 0 0 Z " fill="#298087" transform="translate(375,24)"/>
<path d="M0 0 C1.73304237 2.99225667 2.07762489 3.64010277 1.3125 7.1875 C-1 10 -1 10 -3.515625 10.5 C-5.44379014 10.62373252 -7.37647875 10.69133257 -9.30859375 10.69921875 C-12.58376062 11.06523885 -13.69863344 11.64959778 -16 14 C-16.62969646 17.1726162 -16.62969646 17.1726162 -16.57421875 20.8203125 C-16.58838333 21.47957733 -16.60254791 22.13884216 -16.61714172 22.81808472 C-16.659033 24.92055643 -16.67428221 27.02216969 -16.6875 29.125 C-16.71652642 31.23457296 -16.75101812 33.34392678 -16.78999329 35.45333862 C-16.82278967 37.36213782 -16.84080881 39.27117366 -16.8581543 41.18017578 C-17 44 -17 44 -18 45 C-19.49738124 45.0979057 -20.99942892 45.12974864 -22.5 45.125 C-23.3146875 45.12757812 -24.129375 45.13015625 -24.96875 45.1328125 C-27 45 -27 45 -28 44 C-28.09268999 42.64905018 -28.11747326 41.29332909 -28.11352539 39.93920898 C-28.11344986 39.07839218 -28.11337433 38.21757538 -28.11329651 37.33067322 C-28.10813522 36.39526199 -28.10297394 35.45985077 -28.09765625 34.49609375 C-28.0962413 33.54307877 -28.09482635 32.59006378 -28.09336853 31.60816956 C-28.08775152 28.55124835 -28.07519616 25.49439923 -28.0625 22.4375 C-28.05748719 20.37044376 -28.05292391 18.30338638 -28.04882812 16.23632812 C-28.03777656 11.15752412 -28.02050055 6.0787743 -28 1 C-25.69 1 -23.38 1 -21 1 C-20.67 2.32 -20.34 3.64 -20 5 C-19.113125 4.175 -18.22625 3.35 -17.3125 2.5 C-12.10600429 -1.318814 -6.16121036 -0.41692401 0 0 Z " fill="#2FAAC0" transform="translate(670,56)"/>
<path d="M0 0 C0.8146875 0.00257812 1.629375 0.00515625 2.46875 0.0078125 C3.2834375 0.00523438 4.098125 0.00265625 4.9375 0 C6.96875 0.1328125 6.96875 0.1328125 7.96875 1.1328125 C8.06660341 2.47825577 8.09672985 3.82873813 8.09814453 5.17773438 C8.10129669 6.03532349 8.10444885 6.8929126 8.10769653 7.77648926 C8.1056723 8.70876343 8.10364807 9.6410376 8.1015625 10.6015625 C8.10251923 11.55220581 8.10347595 12.50284912 8.10446167 13.4822998 C8.10514357 15.49650132 8.10328862 17.51070502 8.09912109 19.52490234 C8.09377298 22.61951605 8.09906577 25.7139846 8.10546875 28.80859375 C8.10480797 30.76041699 8.10352681 32.71224014 8.1015625 34.6640625 C8.10358673 35.59633667 8.10561096 36.52861084 8.10769653 37.48913574 C8.10454437 38.34672485 8.10139221 39.20431396 8.09814453 40.08789062 C8.09695114 41.22587097 8.09695114 41.22587097 8.09573364 42.38684082 C7.96875 44.1328125 7.96875 44.1328125 6.96875 45.1328125 C5.47136876 45.2307182 3.96932108 45.26256114 2.46875 45.2578125 C1.6540625 45.26039062 0.839375 45.26296875 0 45.265625 C-2.03125 45.1328125 -2.03125 45.1328125 -3.03125 44.1328125 C-3.12910341 42.78736923 -3.15922985 41.43688687 -3.16064453 40.08789062 C-3.16379669 39.23030151 -3.16694885 38.3727124 -3.17019653 37.48913574 C-3.1681723 36.55686157 -3.16614807 35.6245874 -3.1640625 34.6640625 C-3.16501923 33.71341919 -3.16597595 32.76277588 -3.16696167 31.7833252 C-3.16764357 29.76912368 -3.16578862 27.75491998 -3.16162109 25.74072266 C-3.15627298 22.64610895 -3.16156577 19.5516404 -3.16796875 16.45703125 C-3.16730797 14.50520801 -3.16602681 12.55338486 -3.1640625 10.6015625 C-3.16608673 9.66928833 -3.16811096 8.73701416 -3.17019653 7.77648926 C-3.16704437 6.91890015 -3.16389221 6.06131104 -3.16064453 5.17773438 C-3.15984894 4.41908081 -3.15905334 3.66042725 -3.15823364 2.87878418 C-2.97168654 0.31383995 -2.55561983 0.16709822 0 0 Z " fill="#2B8188" transform="translate(118.03125,56.8671875)"/>
<path d="M0 0 C4.40114783 2.30442122 7.98497375 6.25299382 10.73828125 10.34765625 C10.73828125 11.00765625 10.73828125 11.66765625 10.73828125 12.34765625 C10.07828125 12.34765625 9.41828125 12.34765625 8.73828125 12.34765625 C8.40828125 13.99765625 8.07828125 15.64765625 7.73828125 17.34765625 C7.07828125 17.34765625 6.41828125 17.34765625 5.73828125 17.34765625 C5.73828125 18.00765625 5.73828125 18.66765625 5.73828125 19.34765625 C5.1855957 19.18467041 4.63291016 19.02168457 4.06347656 18.85375977 C1.48355091 18.29221148 -0.82527099 18.23465365 -3.46484375 18.25 C-4.44453125 18.25322266 -5.42421875 18.25644531 -6.43359375 18.25976562 C-7.449375 18.26814453 -8.46515625 18.27652344 -9.51171875 18.28515625 C-10.54296875 18.28966797 -11.57421875 18.29417969 -12.63671875 18.29882812 C-15.17844448 18.31059537 -17.72005194 18.32703614 -20.26171875 18.34765625 C-20.09671875 17.60515625 -19.93171875 16.86265625 -19.76171875 16.09765625 C-19.17915703 12.89356679 -18.76914018 10.33281339 -20.26171875 7.34765625 C-19.60171875 7.01765625 -18.94171875 6.68765625 -18.26171875 6.34765625 C-18.26171875 5.02765625 -18.26171875 3.70765625 -18.26171875 2.34765625 C-18.92171875 2.01765625 -19.58171875 1.68765625 -20.26171875 1.34765625 C-14.60680087 -2.16035732 -6.24012484 -1.79982875 0 0 Z " fill="#36AEC1" transform="translate(707.26171875,56.65234375)"/>
<path d="M0 0 C0.33 1.32 0.66 2.64 1 4 C-0.04800781 3.97679688 -1.09601562 3.95359375 -2.17578125 3.9296875 C-3.55468037 3.91092697 -4.9335872 3.89272707 -6.3125 3.875 C-7.00279297 3.85824219 -7.69308594 3.84148437 -8.40429688 3.82421875 C-12.17135396 3.78782206 -13.78431704 3.85621136 -17 6 C-16.67 7.65 -16.34 9.3 -16 11 C-15.34 11 -14.68 11 -14 11 C-13.34 10.34 -12.68 9.68 -12 9 C-9.94140625 8.76953125 -9.94140625 8.76953125 -7.5625 8.8125 C-6.38880859 8.82216797 -6.38880859 8.82216797 -5.19140625 8.83203125 C-3 9 -3 9 0 10 C0.354653 13.07365933 0.48525378 15.93551691 0 19 C-2.71396378 21.92822408 -4.64557762 22.88108494 -8.625 23.23046875 C-11.09869495 23.24803761 -13.53311158 23.17550985 -16 23 C-16 24.98 -16 26.96 -16 29 C-13.36 29.33 -10.72 29.66 -8 30 C-8 29.34 -8 28.68 -8 28 C-6.35 28.33 -4.7 28.66 -3 29 C-7.68866843 32.12577895 -12.52018309 31.82727558 -18 31 C-22.08900618 28.80674288 -24.53106036 26.40681892 -26 22 C-27.13725202 11.65100658 -27.13725202 11.65100658 -23.875 7.5 C-18.62211549 2.93227434 -14.56793885 1.61600173 -7.625 1.8125 C-6.37976563 1.83957031 -5.13453125 1.86664063 -3.8515625 1.89453125 C-2.91054688 1.92933594 -1.96953125 1.96414062 -1 2 C-0.67 1.34 -0.34 0.68 0 0 Z " fill="#37AEC2" transform="translate(618,71)"/>
<path d="M0 0 C0 0.66 0 1.32 0 2 C1.32 2.33 2.64 2.66 4 3 C4.6147541 10.99180328 4.6147541 10.99180328 2.4375 14.5625 C-0.95518126 16.56331202 -3.12714161 16.55326548 -7 16 C-9.4375 14.5 -9.4375 14.5 -11 12 C-11.80414661 7.95439643 -11.63828902 5.02126244 -9.4375 1.5 C-6.17971981 -0.50478781 -3.75217167 -0.28862859 0 0 Z " fill="#EB8291" transform="translate(504,87)"/>
<path d="M0 0 C0.99 0.33 1.98 0.66 3 1 C3.35466362 4.07375142 3.49562241 6.93663172 3 10 C-0.15932154 13.23830458 -2.83445045 14.22800312 -7.25 14.4375 C-8.4875 14.293125 -9.725 14.14875 -11 14 C-13.48038907 10.2794164 -13.46337203 8.40203429 -13 4 C-9.97853334 -1.12335651 -5.34985397 -0.60099649 0 0 Z " fill="#F3F9FA" transform="translate(615,80)"/>
<path d="M0 0 C0.99 0.66 1.98 1.32 3 2 C3.45837646 5.15770453 3.71795977 6.99762279 3 10 C-0.1761155 13.1761155 -2.8546433 14.2369819 -7.25 14.4375 C-8.4875 14.293125 -9.725 14.14875 -11 14 C-13.48038907 10.2794164 -13.46337203 8.40203429 -13 4 C-10.04391447 -1.01249286 -5.28561408 -0.83713225 0 0 Z " fill="#F2F7F7" transform="translate(348,80)"/>
<path d="M0 0 C2.58492592 1.41997052 3.92057715 2.77204694 6 5 C6.33 6.65 6.66 8.3 7 10 C0.07 10 -6.86 10 -14 10 C-13.02763734 5.13818668 -12.57274525 3.84369558 -8.7421875 0.95703125 C-5.63020289 -0.75246702 -3.43830898 -0.61398375 0 0 Z " fill="#EFF5F5" transform="translate(300,64)"/>
<path d="M0 0 C4.27868841 0.96052189 7.36993912 3.21425578 10.0625 6.6875 C10.0625 8.0075 10.0625 9.3275 10.0625 10.6875 C3.4625 10.6875 -3.1375 10.6875 -9.9375 10.6875 C-8.9375 5.6875 -8.9375 5.6875 -6.25 2.875 C-2.9375 0.6875 -2.9375 0.6875 0 0 Z " fill="#F4FAFA" transform="translate(697.9375,63.3125)"/>
<path d="M0 0 C2.375 1.0625 2.375 1.0625 4 3 C4.25 6.6875 4.25 6.6875 4 10 C3.34 10 2.68 10 2 10 C1.67 10.99 1.34 11.98 1 13 C-5.34507042 13.35915493 -5.34507042 13.35915493 -7.9375 11.9375 C-9.6140629 8.88023824 -9.36528977 6.4093712 -9 3 C-6.83831363 -0.7229043 -4.01644453 -0.49180953 0 0 Z " fill="#2F848A" transform="translate(123,26)"/>
<path d="M0 0 C2.97 0 5.94 0 9 0 C9 4.62 9 9.24 9 14 C8.01 14 7.02 14 6 14 C5.34 15.32 4.68 16.64 4 18 C3.67 17.34 3.34 16.68 3 16 C2.01 16 1.02 16 0 16 C0 10.72 0 5.44 0 0 Z " fill="#207B82" transform="translate(404,43)"/>
<path d="M0 0 C4.29 0 8.58 0 13 0 C13.66 1.32 14.32 2.64 15 4 C13.625 7.25 13.625 7.25 12 10 C9.03 10 6.06 10 3 10 C4.65 8.35 6.3 6.7 8 5 C8.66 5.33 9.32 5.66 10 6 C10 5.01 10 4.02 10 3 C10.66 3 11.32 3 12 3 C12 2.34 12 1.68 12 1 C8.04 1 4.08 1 0 1 C0 0.67 0 0.34 0 0 Z " fill="#39AFC2" transform="translate(657,56)"/>
<path d="M0 0 C1.98 0 3.96 0 6 0 C6.6875 2.3125 6.6875 2.3125 7 5 C5.8125 6.8125 5.8125 6.8125 4 8 C2.68 8 1.36 8 0 8 C0 5.36 0 2.72 0 0 Z " fill="#207B82" transform="translate(397,58)"/>
<path d="M0 0 C0.33 0 0.66 0 1 0 C1 8.58 1 17.16 1 26 C1.66 26 2.32 26 3 26 C3 28.31 3 30.62 3 33 C1 32 1 32 0 29 C-0.08358958 26.78910055 -0.10731764 24.57573922 -0.09765625 22.36328125 C-0.09443359 21.06455078 -0.09121094 19.76582031 -0.08789062 18.42773438 C-0.07953531 17.05598892 -0.07107037 15.68424413 -0.0625 14.3125 C-0.05748335 12.92903805 -0.05292073 11.54557437 -0.04882812 10.16210938 C-0.03702529 6.77469605 -0.02056019 3.38736967 0 0 Z " fill="#388A91" transform="translate(403,67)"/>
<path d="M0 0 C1.5625 1.1875 1.5625 1.1875 3 3 C3 5.5625 3 5.5625 2 8 C-0.5625 9.3125 -0.5625 9.3125 -3 10 C-2.21302675 6.58978257 -1.12880057 3.31114834 0 0 Z " fill="#31858B" transform="translate(311,90)"/>
<path d="M0 0 C2.475 0.495 2.475 0.495 5 1 C5.6875 2.8125 5.6875 2.8125 6 5 C4.6875 6.75 4.6875 6.75 3 8 C2.34 8 1.68 8 1 8 C0.67 5.36 0.34 2.72 0 0 Z " fill="#34878B" transform="translate(422,91)"/>
<path d="M0 0 C1.98 0 3.96 0 6 0 C6.33 0.66 6.66 1.32 7 2 C1.7265625 5.22265625 1.7265625 5.22265625 0 6 C-0.66 5.67 -1.32 5.34 -2 5 C-1.34 3.35 -0.68 1.7 0 0 Z " fill="#207B81" transform="translate(341,74)"/>
<path d="M0 0 C4.29 0 8.58 0 13 0 C13.66 1.32 14.32 2.64 15 4 C14.34 4.66 13.68 5.32 13 6 C12.01 5.01 11.02 4.02 10 3 C10.66 3 11.32 3 12 3 C12 2.34 12 1.68 12 1 C8.04 1 4.08 1 0 1 C0 0.67 0 0.34 0 0 Z " fill="#47B3C5" transform="translate(657,56)"/>
<path d="M0 0 C1.98 0 3.96 0 6 0 C5 3 5 3 3.125 4.0625 C2.42375 4.371875 1.7225 4.68125 1 5 C0.01 5.66 -0.98 6.32 -2 7 C-1.34 4.69 -0.68 2.38 0 0 Z " fill="#4F979B" transform="translate(56,22)"/>
<path d="M0 0 C0.99 0.33 1.98 0.66 3 1 C3.33 2.98 3.66 4.96 4 7 C3.01 7.33 2.02 7.66 1 8 C-0.35439668 5.29120665 -0.06501451 2.99066732 0 0 Z " fill="#49B5C7" transform="translate(517,69)"/>
<path d="M0 0 C1.65 0.33 3.3 0.66 5 1 C1.47320901 3.35119399 -0.02879485 3.21443452 -4.1875 3.125 C-5.27417969 3.10695313 -6.36085938 3.08890625 -7.48046875 3.0703125 C-8.72763672 3.03550781 -8.72763672 3.03550781 -10 3 C-10 2.67 -10 2.34 -10 2 C-6.7 2 -3.4 2 0 2 C0 1.34 0 0.68 0 0 Z " fill="#40B3C6" transform="translate(610,99)"/>
<path d="M0 0 C0.33 0 0.66 0 1 0 C1.08090971 1.62418745 1.13914995 3.24951745 1.1875 4.875 C1.22230469 5.77992187 1.25710938 6.68484375 1.29296875 7.6171875 C1.19628906 8.40351562 1.09960938 9.18984375 1 10 C0.01 10.66 -0.98 11.32 -2 12 C-2.66 11.34 -3.32 10.68 -4 10 C-3.01 9.34 -2.02 8.68 -1 8 C-0.42251197 6.03638136 -0.42251197 6.03638136 -0.3125 3.875 C-0.209375 2.59625 -0.10625 1.3175 0 0 Z " fill="#49B4C6" transform="translate(618,82)"/>
<path d="M0 0 C0.66 0.33 1.32 0.66 2 1 C0.02 2.98 -1.96 4.96 -4 7 C-4.99 6.67 -5.98 6.34 -7 6 C-4.69 4.02 -2.38 2.04 0 0 Z " fill="#DBEFF3" transform="translate(542,37)"/>
<path d="M0 0 C2.6875 0.3125 2.6875 0.3125 5 1 C4.67 1.66 4.34 2.32 4 3 C1.69 3 -0.62 3 -3 3 C-1.8125 1.4375 -1.8125 1.4375 0 0 Z " fill="#EE909E" transform="translate(500,100)"/>
</svg>
