<svg width="33" height="27" viewBox="0 0 33 27" fill="none" xmlns="http://www.w3.org/2000/svg">
<path d="M31.6109 0.953441C31.6109 0.953441 28.805 2.61112 27.2447 3.08097C26.4071 2.11803 25.2941 1.43553 24.0561 1.12576C22.8181 0.816 21.5149 0.893911 20.3227 1.34898C19.1304 1.80405 18.1066 2.6143 17.3899 3.67015C16.6731 4.72602 16.2979 5.97653 16.315 7.25259V8.64313C13.8713 8.70649 11.4499 8.16452 9.26636 7.06548C7.08283 5.96644 5.20502 4.34446 3.80013 2.34398C3.80013 2.34398 -1.76204 14.8589 10.7528 20.4211C7.88905 22.3649 4.47754 23.3397 1.01904 23.2022C13.5339 30.1549 28.8299 23.2022 28.8299 7.21088C28.8286 6.82354 28.7913 6.43716 28.7186 6.05673C30.1378 4.65713 31.6109 0.953441 31.6109 0.953441Z" stroke="white" stroke-width="0.995999" stroke-linecap="round" stroke-linejoin="round"/>
</svg>
