<svg width="11" height="11" viewBox="0 0 11 11" fill="none" xmlns="http://www.w3.org/2000/svg">
<path d="M5.49332 0.599609C2.72662 0.599609 0.389648 2.93658 0.389648 5.70328C0.389648 7.33084 1.20215 8.8053 2.43112 9.74743V9.78622H2.48318C3.33447 10.4216 4.37715 10.807 5.49332 10.807C6.6095 10.807 7.65218 10.4216 8.50347 9.78622H8.55553V9.74743C9.78449 8.8053 10.597 7.33135 10.597 5.70328C10.597 2.93658 8.26002 0.599609 5.49332 0.599609ZM3.48962 9.2386C3.6412 8.55215 4.25211 8.03719 4.98295 8.03719H6.00369C6.73454 8.03719 7.34544 8.55266 7.49702 9.2386C6.90091 9.58412 6.216 9.78622 5.49332 9.78622C4.77064 9.78622 4.08573 9.58412 3.48962 9.2386ZM8.35648 8.58227C7.97013 7.6636 7.06117 7.01646 6.00369 7.01646H4.98295C3.92547 7.01646 3.016 7.66411 2.63016 8.58227C1.88145 7.83764 1.41038 6.81384 1.41038 5.70328C1.41038 3.48982 3.27986 1.62034 5.49332 1.62034C7.70678 1.62034 9.57626 3.48982 9.57626 5.70328C9.57626 6.81384 9.10519 7.83764 8.35648 8.58227Z" fill="#3982EC"/>
<path d="M5.49313 2.6416C4.32949 2.6416 3.45166 3.51943 3.45166 4.68307C3.45166 5.84671 4.32949 6.72454 5.49313 6.72454C6.65677 6.72454 7.5346 5.84671 7.5346 4.68307C7.5346 3.51943 6.65677 2.6416 5.49313 2.6416ZM5.49313 5.70381C4.89192 5.70381 4.47239 5.28428 4.47239 4.68307C4.47239 4.08186 4.89192 3.66234 5.49313 3.66234C6.09434 3.66234 6.51386 4.08186 6.51386 4.68307C6.51386 5.28428 6.09434 5.70381 5.49313 5.70381Z" fill="#3982EC"/>
</svg>
