<svg width="54" height="54" viewBox="0 0 54 54" fill="none" xmlns="http://www.w3.org/2000/svg">
<path d="M26.5714 37.9362C32.8481 37.9362 37.9365 32.8478 37.9365 26.5711C37.9365 20.2944 32.8481 15.2061 26.5714 15.2061C20.2947 15.2061 15.2064 20.2944 15.2064 26.5711C15.2064 32.8478 20.2947 37.9362 26.5714 37.9362Z" stroke="white" stroke-width="2" stroke-linecap="round" stroke-linejoin="round"/>
<path d="M1 37.9365V15.2063C1 7.36041 7.36041 1 15.2063 1H37.9365C45.7824 1 52.1429 7.36041 52.1429 15.2063V37.9365C52.1429 45.7824 45.7824 52.1429 37.9365 52.1429H15.2063C7.36041 52.1429 1 45.7824 1 37.9365Z" stroke="white" stroke-width="2"/>
<path d="M42.1984 10.9735L42.2273 10.9414" stroke="white" stroke-width="2" stroke-linecap="round" stroke-linejoin="round"/>
</svg>
