<svg width="65" height="53" viewBox="0 0 65 53" fill="none" xmlns="http://www.w3.org/2000/svg">
<path d="M63.1026 1.02809C63.1026 1.02809 57.4681 4.35676 54.3349 5.30024C52.6531 3.36663 50.4182 1.99613 47.9323 1.3741C45.4463 0.752101 42.8294 0.908551 40.4353 1.82234C38.0413 2.73614 35.9853 4.36316 34.5462 6.48334C33.1068 8.60356 32.3534 11.1146 32.3878 13.677V16.4693C27.4807 16.5965 22.6184 15.5082 18.2339 13.3013C13.8493 11.0944 10.0786 7.83737 7.25748 3.82034C7.25748 3.82034 -3.91154 28.9508 21.2188 40.1198C15.4682 44.0231 8.61776 45.9804 1.67297 45.7043C26.8033 59.6656 57.5181 45.7043 57.5181 13.5932C57.5156 12.8155 57.4407 12.0396 57.2947 11.2757C60.1445 8.46523 63.1026 1.02809 63.1026 1.02809Z" stroke="white" stroke-width="2" stroke-linecap="round" stroke-linejoin="round"/>
</svg>
