<svg width="54" height="54" viewBox="0 0 54 54" fill="none" xmlns="http://www.w3.org/2000/svg">
<path d="M26.5716 37.9372C32.8483 37.9372 37.9367 32.8488 37.9367 26.5721C37.9367 20.2953 32.8483 15.207 26.5716 15.207C20.2949 15.207 15.2065 20.2953 15.2065 26.5721C15.2065 32.8488 20.2949 37.9372 26.5716 37.9372Z" stroke="white" stroke-width="2" stroke-linecap="round" stroke-linejoin="round"/>
<path d="M1 37.9365V15.2063C1 7.36041 7.36041 1 15.2063 1H37.9365C45.7824 1 52.1429 7.36041 52.1429 15.2063V37.9365C52.1429 45.7824 45.7824 52.1429 37.9365 52.1429H15.2063C7.36041 52.1429 1 45.7824 1 37.9365Z" stroke="white" stroke-width="2"/>
<path d="M42.1982 10.9735L42.2272 10.9414" stroke="white" stroke-width="2" stroke-linecap="round" stroke-linejoin="round"/>
</svg>
