<svg width="27" height="27" viewBox="0 0 27 27" fill="none" xmlns="http://www.w3.org/2000/svg">
<path d="M13.7345 19.3333C16.8603 19.3333 19.3943 16.7992 19.3943 13.6735C19.3943 10.5476 16.8603 8.01367 13.7345 8.01367C10.6087 8.01367 8.07471 10.5476 8.07471 13.6735C8.07471 16.7992 10.6087 19.3333 13.7345 19.3333Z" stroke="white" stroke-width="0.995999" stroke-linecap="round" stroke-linejoin="round"/>
<path d="M1 19.3338V8.0142C1 4.10693 4.16748 0.939453 8.07475 0.939453H19.3944C23.3016 0.939453 26.4691 4.10693 26.4691 8.0142V19.3338C26.4691 23.241 23.3016 26.4086 19.3944 26.4086H8.07475C4.16748 26.4086 1 23.241 1 19.3338Z" stroke="white" stroke-width="0.995999"/>
<path d="M21.5166 5.90715L21.5315 5.89062" stroke="white" stroke-width="0.995999" stroke-linecap="round" stroke-linejoin="round"/>
</svg>
