<svg width="65" height="53" viewBox="0 0 65 53" fill="none" xmlns="http://www.w3.org/2000/svg">
<path d="M63.1025 1.02809C63.1025 1.02809 57.468 4.35676 54.3348 5.30024C52.653 3.36663 50.4181 1.99613 47.9321 1.3741C45.4462 0.752101 42.8293 0.908551 40.4352 1.82234C38.0411 2.73614 35.9852 4.36316 34.5461 6.48334C33.1067 8.60356 32.3533 11.1146 32.3877 13.677V16.4693C27.4806 16.5965 22.6183 15.5082 18.2337 13.3013C13.8492 11.0944 10.0784 7.83737 7.25736 3.82034C7.25736 3.82034 -3.91166 28.9508 21.2186 40.1198C15.4681 44.0231 8.61764 45.9804 1.67285 45.7043C26.8032 59.6656 57.518 45.7043 57.518 13.5932C57.5155 12.8155 57.4406 12.0396 57.2946 11.2757C60.1444 8.46523 63.1025 1.02809 63.1025 1.02809Z" stroke="white" stroke-width="2" stroke-linecap="round" stroke-linejoin="round"/>
</svg>
