<svg width="19" height="19" viewBox="0 0 19 19" fill="none" xmlns="http://www.w3.org/2000/svg">
<path d="M9.41574 0.338867C4.6119 0.338867 0.554199 4.39657 0.554199 9.20041C0.554199 12.0263 1.96496 14.5864 4.09881 16.2223V16.2896H4.1892C5.66731 17.3929 7.47772 18.0619 9.41574 18.0619C11.3538 18.0619 13.1642 17.3929 14.6423 16.2896H14.7327V16.2223C16.8665 14.5864 18.2773 12.0272 18.2773 9.20041C18.2773 4.39657 14.2196 0.338867 9.41574 0.338867ZM5.9367 15.3388C6.19989 14.1469 7.26061 13.2528 8.52958 13.2528H10.3019C11.5709 13.2528 12.6316 14.1478 12.8948 15.3388C11.8597 15.9387 10.6705 16.2896 9.41574 16.2896C8.16094 16.2896 6.97173 15.9387 5.9367 15.3388ZM14.3871 14.1992C13.7162 12.6041 12.138 11.4805 10.3019 11.4805H8.52958C6.69347 11.4805 5.11435 12.605 4.44441 14.1992C3.14443 12.9063 2.32651 11.1287 2.32651 9.20041C2.32651 5.35716 5.57249 2.11117 9.41574 2.11117C13.259 2.11117 16.505 5.35716 16.505 9.20041C16.505 11.1287 15.687 12.9063 14.3871 14.1992Z" fill="#3982EC"/>
<path d="M9.41522 3.88379C7.39479 3.88379 5.87061 5.40797 5.87061 7.4284C5.87061 9.44884 7.39479 10.973 9.41522 10.973C11.4357 10.973 12.9598 9.44884 12.9598 7.4284C12.9598 5.40797 11.4357 3.88379 9.41522 3.88379ZM9.41522 9.20071C8.37133 9.20071 7.64291 8.47229 7.64291 7.4284C7.64291 6.38452 8.37133 5.6561 9.41522 5.6561C10.4591 5.6561 11.1875 6.38452 11.1875 7.4284C11.1875 8.47229 10.4591 9.20071 9.41522 9.20071Z" fill="#3982EC"/>
</svg>
