<svg width="6" height="6" viewBox="0 0 6 6" fill="none" xmlns="http://www.w3.org/2000/svg">
<g clip-path="url(#clip0_202_106241)">
<path d="M0.845215 1.06055H2.12113C2.34673 1.06055 2.56309 1.15016 2.72261 1.30969C2.88213 1.46921 2.97175 1.68556 2.97175 1.91116V4.8883C2.97175 4.7191 2.90453 4.55684 2.78489 4.4372C2.66525 4.31756 2.50298 4.25034 2.33379 4.25034H0.845215V1.06055Z" stroke="white" stroke-width="0.637959" stroke-linecap="round" stroke-linejoin="round"/>
<path d="M5.09821 1.06055H3.82229C3.5967 1.06055 3.38034 1.15016 3.22082 1.30969C3.0613 1.46921 2.97168 1.68556 2.97168 1.91116V4.8883C2.97168 4.7191 3.03889 4.55684 3.15853 4.4372C3.27817 4.31756 3.44044 4.25034 3.60964 4.25034H5.09821V1.06055Z" stroke="white" stroke-width="0.637959" stroke-linecap="round" stroke-linejoin="round"/>
</g>
<defs>
<clipPath id="clip0_202_106241">
<rect width="5.10367" height="5.10367" fill="white" transform="translate(0.419922 0.422852)"/>
</clipPath>
</defs>
</svg>
