<svg width="10" height="10" viewBox="0 0 10 10" fill="none" xmlns="http://www.w3.org/2000/svg">
<g clip-path="url(#clip0_202_101009)">
<path d="M0.924316 1.78516H3.1397C3.53141 1.78516 3.90707 1.94076 4.18404 2.21774C4.46102 2.49471 4.61662 2.87037 4.61662 3.26208V8.43131C4.61662 8.13753 4.49992 7.85579 4.29219 7.64805C4.08446 7.44032 3.80271 7.32362 3.50893 7.32362H0.924316V1.78516Z" stroke="white" stroke-width="1.10769" stroke-linecap="round" stroke-linejoin="round"/>
<path d="M8.30852 1.78516H6.09313C5.70143 1.78516 5.32577 1.94076 5.04879 2.21774C4.77181 2.49471 4.61621 2.87037 4.61621 3.26208V8.43131C4.61621 8.13753 4.73291 7.85579 4.94065 7.64805C5.14838 7.44032 5.43012 7.32362 5.7239 7.32362H8.30852V1.78516Z" stroke="white" stroke-width="1.10769" stroke-linecap="round" stroke-linejoin="round"/>
</g>
<defs>
<clipPath id="clip0_202_101009">
<rect width="8.86154" height="8.86154" fill="white" transform="translate(0.185547 0.676758)"/>
</clipPath>
</defs>
</svg>
