<svg width="19" height="19" viewBox="0 0 19 19" fill="none" xmlns="http://www.w3.org/2000/svg">
<path fill-rule="evenodd" clip-rule="evenodd" d="M2.0542 4.10042C2.0542 2.9501 2.98672 2.01758 4.13704 2.01758C5.28736 2.01758 6.21988 2.9501 6.21988 4.10042V14.704C6.21988 15.8543 5.28736 16.7868 4.13704 16.7868C2.98672 16.7868 2.0542 15.8543 2.0542 14.704V4.10042ZM4.13704 3.15367C3.61417 3.15367 3.19029 3.57755 3.19029 4.10042V14.704C3.19029 15.2268 3.61417 15.6507 4.13704 15.6507C4.65991 15.6507 5.08378 15.2268 5.08378 14.704V4.10042C5.08378 3.57755 4.65991 3.15367 4.13704 3.15367Z" fill="#333333"/>
<path fill-rule="evenodd" clip-rule="evenodd" d="M7.35596 7.88753C7.35596 6.7372 8.28849 5.80469 9.43879 5.80469C10.5891 5.80469 11.5216 6.7372 11.5216 7.88753V14.7041C11.5216 15.8544 10.5891 16.7869 9.43879 16.7869C8.28849 16.7869 7.35596 15.8544 7.35596 14.7041V7.88753ZM9.43879 6.94078C8.91589 6.94078 8.49201 7.36465 8.49201 7.88753V14.7041C8.49201 15.2269 8.91589 15.6508 9.43879 15.6508C9.9617 15.6508 10.3856 15.2269 10.3856 14.7041V7.88753C10.3856 7.36465 9.9617 6.94078 9.43879 6.94078Z" fill="#333333"/>
<path fill-rule="evenodd" clip-rule="evenodd" d="M12.6577 4.10042C12.6577 2.9501 13.5902 2.01758 14.7405 2.01758C15.8908 2.01758 16.8234 2.9501 16.8234 4.10042V14.704C16.8234 15.8543 15.8908 16.7868 14.7405 16.7868C13.5902 16.7868 12.6577 15.8543 12.6577 14.704V4.10042ZM14.7405 3.15367C14.2176 3.15367 13.7938 3.57755 13.7938 4.10042V14.704C13.7938 15.2268 14.2176 15.6507 14.7405 15.6507C15.2634 15.6507 15.6873 15.2268 15.6873 14.704V4.10042C15.6873 3.57755 15.2634 3.15367 14.7405 3.15367Z" fill="#333333"/>
</svg>
