<svg width="11" height="11" viewBox="0 0 11 11" fill="none" xmlns="http://www.w3.org/2000/svg">
<g clip-path="url(#clip0_202_111107)">
<path fill-rule="evenodd" clip-rule="evenodd" d="M1.06982 2.057C1.06982 1.39449 1.6069 0.857422 2.2694 0.857422C2.93192 0.857422 3.46899 1.39449 3.46899 2.057V8.16397C3.46899 8.82647 2.93192 9.36354 2.2694 9.36354C1.6069 9.36354 1.06982 8.82647 1.06982 8.16397V2.057ZM2.2694 1.51174C1.96827 1.51174 1.72414 1.75586 1.72414 2.057V8.16397C1.72414 8.46508 1.96827 8.70921 2.2694 8.70921C2.57055 8.70921 2.81467 8.46508 2.81467 8.16397V2.057C2.81467 1.75586 2.57055 1.51174 2.2694 1.51174Z" fill="#333333"/>
<path fill-rule="evenodd" clip-rule="evenodd" d="M4.12354 4.23669C4.12354 3.57418 4.66062 3.03711 5.32312 3.03711C5.98561 3.03711 6.52269 3.57418 6.52269 4.23669V8.1626C6.52269 8.8251 5.98561 9.36217 5.32312 9.36217C4.66062 9.36217 4.12354 8.8251 4.12354 8.1626V4.23669ZM5.32312 3.69143C5.02196 3.69143 4.77783 3.93555 4.77783 4.23669V8.1626C4.77783 8.46371 5.02196 8.70784 5.32312 8.70784C5.62427 8.70784 5.8684 8.46371 5.8684 8.1626V4.23669C5.8684 3.93555 5.62427 3.69143 5.32312 3.69143Z" fill="#333333"/>
<path fill-rule="evenodd" clip-rule="evenodd" d="M7.17676 2.057C7.17676 1.39449 7.71383 0.857422 8.37633 0.857422C9.03883 0.857422 9.57591 1.39449 9.57591 2.057V8.16397C9.57591 8.82647 9.03883 9.36354 8.37633 9.36354C7.71383 9.36354 7.17676 8.82647 7.17676 8.16397V2.057ZM8.37633 1.51174C8.07517 1.51174 7.83105 1.75586 7.83105 2.057V8.16397C7.83105 8.46508 8.07517 8.70921 8.37633 8.70921C8.67745 8.70921 8.92158 8.46508 8.92158 8.16397V2.057C8.92158 1.75586 8.67745 1.51174 8.37633 1.51174Z" fill="#333333"/>
</g>
<defs>
<clipPath id="clip0_202_111107">
<rect width="10.2073" height="10.2073" fill="white" transform="translate(0.219238 0.00585938)"/>
</clipPath>
</defs>
</svg>
