<svg width="403" height="76" viewBox="0 0 403 76" fill="none" xmlns="http://www.w3.org/2000/svg">
<mask id="mask0_202_104418" style="mask-type:luminance" maskUnits="userSpaceOnUse" x="0" y="0" width="403" height="76">
<path d="M402.043 0.0214844H0V75.9774H402.043V0.0214844Z" fill="white"/>
</mask>
<g mask="url(#mask0_202_104418)">
<path d="M119.172 23.9894V66.4199H109.35V23.9894H95.4688V14.8223H132.923V23.9894H119.172ZM170.245 66.4199H160.424V44.026C160.424 41.7997 159.638 36.6923 153.353 36.6923C149.031 36.6923 145.887 39.7044 145.887 44.026V66.4199H136.066V14.9533H145.887V30.1444C148.375 28.311 151.257 27.1324 154.662 27.1324C164.092 27.1324 170.245 33.9422 170.245 44.026V66.4199ZM192.771 36.6923C186.486 35.5138 182.426 38.9187 182.426 44.2879V66.4199H172.604V44.2879C172.604 33.4184 180.068 25.8228 192.771 27.3943V36.6923ZM201.676 51.0978C202.986 55.8123 206.653 58.6934 211.236 58.6934C214.509 58.6934 217.653 57.2528 219.356 54.2409H229.832C227.606 62.0983 220.796 67.3366 211.368 67.3366C200.629 67.3366 191.723 58.4314 191.723 47.3C191.723 36.1686 200.629 27.1324 211.368 27.1324C222.63 27.1324 232.058 35.9066 230.618 51.0978H201.676ZM220.927 43.1093C219.748 38.6568 216.081 35.7756 211.368 35.7756C206.914 35.7756 203.378 38.6568 201.938 43.1093H220.927ZM250 67.3366C240.309 67.3366 233.106 62.2293 231.927 53.9789H241.881C243.19 57.2528 247.118 58.4314 250 58.4314C253.929 58.4314 256.94 57.2528 256.94 55.0265C256.94 52.9312 255.631 52.0145 248.952 50.9669C242.142 49.9192 232.975 48.0858 232.975 39.5735C232.975 33.5493 238.214 27.2634 249.345 27.2634C258.12 27.2634 264.667 31.9778 265.846 39.1806H255.631C255.108 37.3472 252.881 36.0375 249.214 36.0375C244.63 36.0375 242.797 37.609 242.797 39.0496C242.797 41.0141 245.678 41.6688 250.393 42.4545C259.952 44.026 266.763 46.1214 266.763 54.3718C266.763 61.9674 259.821 67.3366 250 67.3366ZM303.3 66.4199H293.478V44.026C293.478 41.7997 292.692 36.6923 286.406 36.6923C281.954 36.6923 278.942 39.7044 278.942 44.026V66.4199H269.12V14.9533H278.942V30.1444C281.43 28.311 284.311 27.1324 287.716 27.1324C297.013 27.1324 303.3 33.9422 303.3 44.026V66.4199ZM343.767 47.3C343.767 58.6934 335.122 67.3366 324.385 67.3366C313.646 67.3366 305.133 58.8244 305.133 47.3C305.133 35.7756 313.776 27.1324 324.385 27.1324C335.122 27.2634 343.767 35.9066 343.767 47.3ZM333.944 47.4309C333.944 40.883 329.753 36.1686 324.515 36.1686C319.277 36.1686 315.086 40.7521 315.086 47.4309C315.086 53.8479 319.277 58.3005 324.515 58.3005C329.753 58.3005 333.944 53.8479 333.944 47.4309ZM345.468 14.9533H355.291V50.3121C355.291 55.6813 357.779 57.6458 362.624 57.3838V66.289C351.362 67.4677 345.468 60.7887 345.468 50.3121V14.9533ZM401.911 47.3C401.911 58.4314 393.792 67.3366 382.268 67.3366C370.613 67.3366 362.624 58.4314 362.624 47.3C362.624 36.2995 370.874 27.2634 380.958 27.2634C385.541 27.2634 389.208 28.7038 392.22 31.7159V14.9533H402.043V47.3H401.911ZM382.268 36.4305C376.898 36.4305 372.446 41.145 372.446 47.4309C372.446 53.586 376.898 58.1695 382.268 58.1695C387.637 58.1695 392.09 53.3241 392.09 47.4309C392.09 41.2759 387.768 36.4305 382.268 36.4305Z" fill="#2FABC0"/>
<path d="M74.9083 0.285156H0V75.1934H74.9083V0.285156ZM66.7889 18.2265C50.2881 18.2265 45.3117 28.7032 39.4185 40.7514C33.7873 52.5377 27.3703 65.7645 9.1671 65.7645V56.9902C21.3463 56.9902 25.6679 49.3946 31.6919 36.9536C37.585 24.6435 44.9187 9.45227 66.9198 9.45227C66.7889 9.58331 66.7889 18.2265 66.7889 18.2265Z" fill="#2FABC0"/>
</g>
</svg>
