<svg width="298" height="298" viewBox="0 0 298 298" fill="none" xmlns="http://www.w3.org/2000/svg">
<circle cx="149" cy="149" r="149" fill="#EEA1B3"/>
<mask id="mask0_202_110074" style="mask-type:alpha" maskUnits="userSpaceOnUse" x="19" y="19" width="260" height="260">
<circle cx="149" cy="149" r="130" fill="#D9D9D9"/>
</mask>
<g mask="url(#mask0_202_110074)">
<path d="M142.007 -216.389L101.046 -215.288L100.893 -205.662L5.06982 -178.346C-10.5977 -175.786 -45.0817 -156.483 -46.6177 -119.747L-76.596 78.5298C-78.3625 151.927 -74.3176 197.777 -64.8198 257.529L-35.6351 251.026C-23.6797 170.82 -15.3339 146.474 -20.0956 84.6228C2.22812 59.9182 8.93545 0.140904 14.1324 -63.2205L26.779 180.138L24.7821 238.303C17.102 289.504 11.6492 342.651 9.0635 391.906H125.648C129.002 360.162 131.229 323.297 132.893 292.781C135.94 292.781 138.961 292.986 142.033 292.986C145.105 292.986 148.126 292.986 151.172 292.781C152.836 323.297 155.063 360.162 158.391 391.906H275.053C272.493 342.702 267.015 289.504 259.36 238.303L257.363 180.138L269.984 -63.2205C275.104 0.0641001 281.889 59.9182 304.212 84.6228C299.451 146.423 307.822 170.769 319.752 251.026L348.86 257.529C358.332 197.777 362.377 151.927 360.61 78.5298L330.453 -119.747C328.917 -156.483 294.458 -175.812 278.791 -178.346L182.968 -205.662L182.789 -215.288L142.007 -216.389Z" fill="#FFEAC8"/>
<path d="M110.748 49.7289C117.277 43.7896 122.473 34.0101 128.669 27.7892C134.275 22.1827 179.409 13.1201 198.225 0.319842C199.019 -0.19617 199.64 -0.938348 200.008 -1.81083C200.376 -2.68331 200.474 -3.64607 200.29 -4.5748C200.105 -5.50352 199.646 -6.35556 198.973 -7.02094C198.299 -7.68633 197.441 -8.13453 196.51 -8.30761C170.09 -15.3222 137.475 -25.2807 112.028 -22.0039C96.1048 -19.9302 86.9398 -26.2536 71.0675 -24.1799C63.3873 -23.2071 46.6958 -17.9078 39.9117 -1.13941C36.1484 8.15359 24.3466 21.1587 35.6364 49.3705C37.5747 55.0354 38.2475 61.0563 37.6075 67.0093C37.6411 68.3062 37.9931 69.575 38.6326 70.7039C39.272 71.8327 40.1793 72.787 41.2745 73.4825C42.3697 74.1781 43.6191 74.5936 44.9127 74.6925C46.2063 74.7913 47.5045 74.5705 48.6926 74.0494C57.448 70.6189 65.7682 66.9069 75.138 63.8092C85.4295 60.5067 97.9993 61.4027 110.748 49.7289Z" fill="#96482B"/>
<path opacity="0.2" d="M59.3941 48.3705C57.3772 52.9408 54.3618 57.001 50.5695 60.2528C46.7772 63.5046 42.3045 65.8653 37.48 67.1613C37.5473 68.4374 37.9228 69.6781 38.5742 70.7774C39.2257 71.8767 40.1337 72.8018 41.2207 73.4737C42.3077 74.1455 43.5412 74.544 44.8158 74.6351C46.0903 74.7262 47.368 74.5071 48.5394 73.9967C57.2948 70.5662 65.6151 66.8542 74.9849 63.7565C85.4299 60.3772 98.0254 61.1964 110.826 49.5994C117.354 43.66 122.551 33.8806 128.746 27.6597C134.353 22.0532 179.486 12.9905 198.303 0.190252C198.976 -0.242678 199.526 -0.841658 199.9 -1.549C200.275 -2.25635 200.461 -3.04817 200.44 -3.8482C200.419 -4.64822 200.193 -5.42952 199.783 -6.11668C199.373 -6.80385 198.792 -7.37373 198.098 -7.77148C147.946 6.74403 83.8426 -9.74275 59.3941 48.3705Z" fill="#1D1D1B"/>
<path d="M127.517 57.2559C124.678 45.2625 122.862 33.0499 122.089 20.7494C121.373 18.8294 117.328 20.0838 116.125 21.0566C116.534 27.7896 117.277 34.5226 118.326 41.2043C115.075 38.7768 111.277 37.1856 107.267 36.5706C107.094 35.9181 106.789 35.3081 106.371 34.7786C104.363 33.0606 102.004 31.8023 99.4587 31.0921C95.2602 29.2232 91.9065 25.8184 87.452 24.564C85.0187 23.9082 82.4525 23.9287 80.03 24.6234C77.6075 25.3181 75.4205 26.6607 73.7045 28.5064C72.1715 30.3124 71.2573 32.5621 71.096 34.9256C70.9348 37.2891 71.5348 39.642 72.8084 41.6395C74.2633 43.6728 76.2546 45.2618 78.5601 46.2292C80.8656 47.1966 83.3946 47.5043 85.8648 47.118C89.7561 46.5036 93.1609 44.2764 97.0522 43.7388C99.5578 43.7729 102.053 43.4189 104.451 42.6891C104.891 42.4914 105.29 42.2136 105.628 41.8699C109.618 42.3741 113.332 44.1727 116.201 46.99C117.741 48.5143 118.94 50.347 119.721 52.3678C120.502 54.3885 120.847 56.5517 120.733 58.7151L126.723 59.0479C126.723 58.5359 126.723 58.0239 126.723 57.5119L127.517 57.2559Z" fill="#A8A166"/>
<path d="M91.9832 71.4114C87.1447 71.7954 84.3031 76.5315 82.6391 80.7044C80.0791 86.3621 77.8006 92.9927 81.2055 98.2152C84.0215 102.49 89.8073 104.154 95.1066 105.383C114.998 109.966 136.067 112.935 155.882 107.713C163.903 105.338 171.706 102.28 179.204 98.5735C190.392 93.4534 201.963 87.8726 209.567 78.7076C213.304 74.2275 216.069 68.8769 220.959 65.472C223.033 64.0384 225.618 62.7072 226.079 60.3519C219.192 57.7919 211.179 59.4303 204.498 62.5024C197.816 65.5744 191.953 69.9522 185.272 73.0499C170.91 79.6804 154.116 79.8339 138.013 79.8595C132.116 79.9887 126.217 79.7579 120.349 79.1684C113.191 78.3219 106.201 76.4061 99.6123 73.485C97.2902 72.1488 94.6623 71.4345 91.9832 71.4114Z" fill="#A8A166"/>
<path d="M217.58 25.1527C216.49 21.0255 214.477 17.1999 211.692 13.9653C207.898 9.81975 203.174 6.63449 197.909 4.67169C192.644 2.70889 186.988 2.02469 181.406 2.6754C167.147 4.54424 158.673 15.0405 152.477 24.6407C151.3 26.4328 150.097 28.2503 148.842 30.0936C145.246 23.6742 143.31 16.4584 143.21 9.10116L142.621 -238.072L125.904 -236.05L125.239 9.15234C125.38 21.4018 129.295 33.3096 136.451 43.2523C133.119 45.5774 129.388 47.2696 125.443 48.2444C114.665 50.8045 100.969 48.526 92.9305 54.4654C91.3381 55.6318 90.0551 57.1698 89.1929 58.9455C81.4334 62.6465 75.199 68.9261 71.5541 76.7122C69.1846 82.2579 68.3664 88.3431 69.187 94.3177C70.0077 100.292 72.4364 105.932 76.2134 110.633H76.367L90.7289 100.982C88.7266 98.4773 87.4329 95.4817 86.9826 92.3072C86.5323 89.1327 86.942 85.8954 88.1689 82.9332C89.4616 80.0938 91.452 77.6279 93.9546 75.765C95.5786 77.4015 97.3433 78.892 99.2283 80.2195C119.171 94.5302 151.581 97.1671 176.03 88.1301C200.479 79.0931 216.095 59.7135 218.501 39.489C219.136 34.696 218.823 29.825 217.58 25.1527Z" fill="#F9DE96"/>
<path opacity="0.1" d="M218.501 39.5398C216.095 59.7387 200.376 79.1183 176.03 88.1809C151.684 97.2435 119.248 94.5811 99.2283 80.2704C97.3433 78.9429 95.5786 77.4523 93.9546 75.8159C91.452 77.6787 89.4616 80.1446 88.1689 82.984C86.942 85.9463 86.5323 89.1835 86.9826 92.358C87.4329 95.5326 88.7266 98.5282 90.7289 101.032L76.3671 110.684C74.5682 105.885 73.9706 100.719 74.6265 95.6369C75.2825 90.5543 77.172 85.7095 80.1303 81.5248C83.3262 76.9895 88.1016 73.812 93.5195 72.6158C100.56 71.2846 107.625 74.2031 114.486 76.2255C132.25 81.3588 151.203 80.5679 168.478 73.9726C185.116 67.561 198.959 55.4858 207.57 39.8727C209.56 35.3601 212.143 31.1329 215.25 27.3028C215.973 26.521 216.761 25.8017 217.605 25.1523C218.847 29.8427 219.151 34.7317 218.501 39.5398Z" fill="#1D1D1B"/>
<path d="M247.404 148.214C247.394 151.232 246.304 154.146 244.332 156.431C246.292 158.723 247.38 161.634 247.404 164.649C247.384 166.697 246.879 168.711 245.931 170.526C244.984 172.341 243.62 173.907 241.951 175.094L241.798 175.913C242.528 177.522 242.912 179.267 242.924 181.034C242.922 182.781 242.561 184.509 241.866 186.111C241.17 187.714 240.154 189.157 238.879 190.352L238.598 191.325C239.694 193.198 240.285 195.324 240.313 197.495C240.287 199.791 239.659 202.04 238.491 204.017C237.323 205.994 235.656 207.629 233.657 208.759C234.275 210.262 234.597 211.87 234.604 213.495C234.471 217.16 232.889 220.622 230.206 223.123C227.523 225.623 223.958 226.957 220.293 226.833H220.037C219.279 229.96 217.474 232.734 214.922 234.694C212.371 236.655 209.225 237.684 206.008 237.611C203.54 237.589 201.115 236.965 198.942 235.793C197.58 237.23 195.941 238.377 194.124 239.164C192.307 239.951 190.35 240.364 188.369 240.376C185.668 240.375 183.015 239.65 180.689 238.276C179.323 240.12 177.538 241.614 175.482 242.633C173.426 243.652 171.157 244.168 168.862 244.139C166.151 244.128 163.495 243.376 161.182 241.963V260.114C161.182 265.541 156.062 270.354 151.453 273.375C146.538 276.524 150.404 293.241 147.229 293.241C146.282 293.241 139.549 293.241 138.602 293.241C137.655 293.241 137.655 275.32 136.528 274.783C131.152 272.709 128.848 267.359 128.336 261.803C128.284 261.258 128.284 260.71 128.336 260.165V240.632C128.487 234.352 130.427 228.246 133.928 223.031C137.428 217.816 142.345 213.708 148.1 211.191C152.391 209.182 157.017 207.984 161.745 207.658L195.205 204.868C196.438 204.784 197.636 204.426 198.712 203.818C200.233 203.022 201.415 201.704 202.04 200.106C211.077 175.811 214.021 146.345 210.821 112.373L209.874 112.859C209.287 116.446 207.421 119.698 204.62 122.014C201.819 124.329 198.274 125.552 194.642 125.455C191.949 125.438 189.305 124.733 186.961 123.407C185.608 125.852 183.618 127.886 181.202 129.292C178.786 130.699 176.035 131.425 173.24 131.394C170.65 131.38 168.103 130.739 165.815 129.525C164.331 131.269 162.482 132.666 160.398 133.618C158.315 134.569 156.048 135.051 153.757 135.029C150.801 133.249 147.351 132.467 143.917 132.799C140.482 133.131 137.245 134.559 134.685 136.873C132.571 136.879 130.476 136.463 128.524 135.65C126.573 134.836 124.803 133.642 123.318 132.136H122.602C119.892 134.054 116.654 135.083 113.334 135.08C110.998 135.098 108.688 134.595 106.571 133.607C104.455 132.619 102.584 131.173 101.097 129.372L100.073 129.192C97.5948 130.667 94.7645 131.445 91.8809 131.445C89.2495 131.475 86.6535 130.837 84.3348 129.593C82.016 128.348 80.0499 126.537 78.6198 124.328L76.9046 123.842C74.2165 140.815 76.9046 165.264 83.7912 186.051C83.776 186.11 83.776 186.172 83.7912 186.23C85.4574 191.233 87.4411 196.124 89.7304 200.874C91.1754 203.869 91.5263 207.275 90.7219 210.502C89.9176 213.729 88.0089 216.572 85.3271 218.538C88.7177 221.43 91.0726 225.349 92.0345 229.7C92.5721 232.358 92.5445 235.099 91.9535 237.745C91.3625 240.392 90.2213 242.884 88.6041 245.06C88.3108 245.459 87.9238 245.78 87.4773 245.994C87.0309 246.209 86.5388 246.31 86.044 246.289C85.4581 246.287 84.8834 246.128 84.3799 245.829C84.053 245.653 83.7681 245.408 83.5451 245.112C83.322 244.815 83.1661 244.474 83.0882 244.111C83.0103 243.748 83.0122 243.372 83.0938 243.01C83.1754 242.648 83.3347 242.308 83.5607 242.014C84.7632 240.421 85.6133 238.591 86.0546 236.644C86.496 234.698 86.5185 232.68 86.1207 230.724C85.2778 226.898 82.9715 223.554 79.695 221.406C76.3542 222.402 72.7955 222.402 69.4548 221.406C67.3642 220.791 65.4222 219.753 63.7488 218.357C62.0755 216.961 60.7065 215.237 59.7266 213.29C59.2658 212.394 58.8562 211.37 58.4465 210.449C55.4572 209.608 52.8156 207.832 50.9084 205.381C49.0013 202.93 47.9287 199.933 47.8479 196.829C47.8675 194.498 48.494 192.213 49.6656 190.198C47.0838 189.128 44.8705 187.327 43.2972 185.017C41.7238 182.707 40.8586 179.988 40.8077 177.193C40.822 175.368 41.1982 173.564 41.9145 171.886C42.6308 170.207 43.6729 168.687 44.9806 167.414C42.8284 166.195 41.0337 164.433 39.7758 162.304C38.5179 160.175 37.841 157.752 37.8125 155.279C37.8278 153.398 38.2235 151.539 38.9758 149.814C39.7281 148.09 40.8216 146.535 42.1903 145.244C40.6887 143.846 39.5196 142.13 38.7689 140.221C38.0182 138.312 37.705 136.259 37.8523 134.213C37.9997 132.168 38.6038 130.181 39.6204 128.399C40.6369 126.618 42.0399 125.087 43.7262 123.919C43.7262 123.432 43.9055 122.946 43.9567 122.459C42.0253 120.245 40.9531 117.41 40.9357 114.472C40.9894 111.954 41.776 109.506 43.1992 107.428C44.6223 105.351 46.6203 103.733 48.9487 102.773C49.5072 101.308 50.1397 99.8725 50.8433 98.4717C52.7809 94.994 55.8728 92.3026 59.5844 90.8628C63.296 89.423 67.394 89.3253 71.1699 90.5867C133.968 110.53 169.886 106.305 213.56 73.9208C215.888 72.2343 218.591 71.1388 221.436 70.7285C224.282 70.3182 227.184 70.6054 229.893 71.5655C232.497 72.4345 234.82 73.9853 236.621 76.0563C238.421 78.1273 239.634 80.643 240.134 83.3418C240.39 84.6474 240.543 85.9018 240.748 87.2586C242.086 88.4655 243.156 89.9381 243.893 91.5823C244.629 93.2265 245.014 95.0062 245.023 96.8077C245.013 99.2235 244.292 101.583 242.95 103.592C242.95 103.899 242.95 104.206 242.95 104.488C244.372 105.692 245.518 107.189 246.309 108.877C247.1 110.565 247.517 112.403 247.532 114.267C247.516 117.098 246.562 119.844 244.819 122.075C246.118 123.274 247.155 124.729 247.864 126.348C248.573 127.967 248.939 129.716 248.939 131.484C248.939 133.251 248.573 135 247.864 136.619C247.155 138.238 246.118 139.693 244.819 140.892C246.438 142.995 247.344 145.56 247.404 148.214Z" fill="#E9B4B4"/>
<path opacity="0.1" d="M224.135 129.629C224.135 141.456 222.855 153.283 222.215 165.111C221.498 178.679 219.245 194.603 206.266 201.208H206.086C203.663 202.395 201.074 203.206 198.406 203.614C199.927 202.819 201.109 201.5 201.734 199.902C210.771 175.607 213.715 146.141 210.515 112.169L209.568 112.655C208.981 116.242 207.115 119.494 204.314 121.81C201.514 124.126 197.969 125.348 194.336 125.251C191.643 125.234 188.999 124.529 186.656 123.203C185.302 125.649 183.312 127.682 180.896 129.089C178.48 130.495 175.729 131.221 172.934 131.19C170.344 131.176 167.797 130.535 165.51 129.321C164.025 131.066 162.176 132.463 160.092 133.414C158.009 134.365 155.742 134.847 153.452 134.825C150.496 133.045 147.045 132.263 143.611 132.595C140.176 132.927 136.94 134.355 134.379 136.669C132.265 136.675 130.171 136.259 128.219 135.446C126.267 134.633 124.497 133.438 123.013 131.933H122.296C119.586 133.85 116.348 134.879 113.028 134.877C110.693 134.894 108.382 134.391 106.266 133.403C104.149 132.416 102.279 130.969 100.791 129.168L99.7674 128.989C97.2891 130.463 94.4588 131.241 91.5752 131.241C88.9437 131.271 86.3477 130.633 84.0289 129.389C81.7102 128.145 79.7442 126.333 78.3141 124.124L76.5989 123.638C73.9108 140.611 76.5989 165.06 83.4855 185.847C83.4703 185.906 83.4703 185.968 83.4855 186.027C85.1517 191.029 87.1354 195.92 89.4246 200.67C90.8697 203.665 91.2206 207.072 90.4162 210.298C89.6119 213.525 87.7032 216.368 85.0214 218.335C88.412 221.226 90.7669 225.145 91.7288 229.496C92.2664 232.154 92.2388 234.895 91.6478 237.542C91.0568 240.188 89.9155 242.68 88.2982 244.857C88.0049 245.256 87.618 245.576 87.1716 245.791C86.7252 246.005 86.2329 246.106 85.7382 246.086C85.1523 246.083 84.5777 245.924 84.0742 245.625C83.7473 245.449 83.4624 245.205 83.2394 244.908C83.0163 244.611 82.8604 244.27 82.7825 243.907C82.7045 243.544 82.7065 243.169 82.7881 242.807C82.8697 242.445 83.029 242.105 83.255 241.81C84.4575 240.217 85.3076 238.387 85.7489 236.441C86.1903 234.494 86.2128 232.476 85.815 230.52C84.9721 226.694 82.6658 223.35 79.3893 221.202C76.0485 222.198 72.4898 222.198 69.149 221.202C73.3219 219.538 80.2341 217.336 81.9493 208.402C84.0998 197.316 76.3685 190.968 71.4532 172.33C68.1008 160.563 66.0911 148.453 65.4626 136.234C65.181 130.755 66.1283 120.873 70.0452 116.828C73.962 112.783 78.8517 114.038 84.2022 116.291C87.5255 117.835 90.9462 119.16 94.4424 120.259C124.728 128.195 153.913 127.657 182.816 116.137C187.603 114.217 201.427 106.69 208.416 104.412C209.16 104.153 209.921 103.947 210.694 103.798C216.557 102.927 224.135 105.897 224.135 129.629Z" fill="#1D1D1B"/>
<path opacity="0.1" d="M234.603 213.598C234.47 217.263 232.888 220.726 230.206 223.226C227.523 225.726 223.958 227.061 220.293 226.936H220.037C219.278 230.063 217.473 232.837 214.922 234.798C212.37 236.758 209.225 237.787 206.008 237.714C203.539 237.693 201.114 237.069 198.942 235.896C197.57 237.315 195.928 238.442 194.111 239.212C192.295 239.982 190.342 240.378 188.369 240.377C185.667 240.376 183.015 239.651 180.689 238.277C179.322 240.121 177.538 241.614 175.481 242.634C173.425 243.653 171.156 244.169 168.861 244.14C166.15 244.129 163.494 243.377 161.181 241.964V260.115C161.181 265.542 156.061 270.355 151.453 273.376C146.538 276.525 150.403 293.242 147.229 293.242C146.281 293.242 139.549 293.242 138.601 293.242C137.654 293.242 137.654 275.321 136.528 274.784C131.152 272.71 128.847 267.36 128.335 261.804C130.758 262.31 133.131 263.029 135.427 263.955C138.85 265.538 142.723 265.856 146.358 264.851C151.197 262.956 152.758 257.427 152.81 252.614C152.861 247.801 152.093 242.706 154.55 238.457C158.749 231.263 169.476 230.546 178.359 229.65C193.512 228.171 208.175 223.475 221.368 215.877C225.352 213.327 229.49 211.027 233.759 208.99C234.326 210.46 234.612 212.023 234.603 213.598Z" fill="#1D1D1B"/>
<path d="M211.255 178.218C210.71 178.93 210.129 179.613 209.514 180.266C209.966 181.348 210.343 182.46 210.641 183.594C211.88 187.491 211.736 191.696 210.231 195.498C208.904 198.46 206.586 200.868 203.677 202.308C202.086 203.114 200.34 203.568 198.557 203.639C197.481 204.247 196.283 204.605 195.05 204.689L171.549 206.66L161.59 207.479H161.206C159.849 207.607 158.646 207.786 157.238 208.017C155.83 208.247 155.292 208.426 154.345 208.657C152.149 209.248 150.008 210.027 147.945 210.986C146.215 210.615 144.539 210.03 142.953 209.246C142.595 209.066 142.262 208.913 141.929 208.708C139.921 209.972 137.762 210.978 135.503 211.703C129.297 213.753 122.621 213.904 116.328 212.138C110.852 210.27 105.678 207.614 100.968 204.253C99.6368 203.409 98.408 202.564 97.0512 201.693C95.5653 200.708 94.1299 199.648 92.7503 198.519C91.6468 197.633 90.5953 196.684 89.6014 195.677C88.8719 195.221 88.1863 194.698 87.5533 194.116C85.3219 191.947 83.5767 189.329 82.4332 186.435C81.3551 183.693 80.7075 180.8 80.5132 177.859C80.5132 176.707 80.5132 175.53 80.5132 174.378C80.5132 173.968 80.3084 173.533 80.206 173.098C79.9244 171.792 79.6172 170.538 79.31 169.13C78.5332 168.318 77.8701 167.405 77.3387 166.416C76.1676 164.403 75.4186 162.173 75.1371 159.862C75.1371 159.401 75.1371 158.889 75.1371 158.428C75.0224 154.233 75.409 150.039 76.289 145.935C76.289 145.526 76.289 145.091 76.289 144.681C76.289 143.35 76.2892 142.121 76.11 140.815C75.8679 140.246 75.5943 139.69 75.2907 139.151C74.0106 136.491 73.4374 133.546 73.6266 130.601C73.5993 130.14 73.5993 129.679 73.6266 129.218C73.6982 128.097 74.0378 127.01 74.617 126.048C75.1961 125.086 75.9978 124.276 76.9547 123.689C76.9484 123.731 76.9484 123.774 76.9547 123.817C77.4478 123.917 77.935 124.045 78.4139 124.2C79.8441 126.41 81.8101 128.221 84.1289 129.465C86.4476 130.709 89.0436 131.347 91.675 131.317H92.187C93.6504 131.272 95.0994 131.014 96.4879 130.549C97.6739 130.203 98.8099 129.704 99.8672 129.065L100.891 129.244C102.379 131.045 104.249 132.492 106.365 133.479C108.482 134.467 110.793 134.97 113.128 134.953C116.448 134.955 119.686 133.926 122.396 132.009H123.113C123.586 132.485 124.09 132.93 124.623 133.34C126.002 134.45 127.56 135.316 129.231 135.9C132.919 133.824 137.046 132.653 141.274 132.484C145.502 132.315 149.71 133.152 153.552 134.927C154.097 134.965 154.644 134.965 155.19 134.927C159.232 134.57 162.969 132.628 165.584 129.525C166.495 130.001 167.446 130.395 168.426 130.703C169.911 131.156 171.455 131.389 173.008 131.394C175.803 131.425 178.554 130.699 180.97 129.293C183.386 127.886 185.376 125.853 186.73 123.407C188.623 124.477 190.716 125.145 192.879 125.369C195.041 125.594 197.227 125.37 199.3 124.713C200.926 124.232 202.458 123.479 203.831 122.485C205.407 121.357 206.741 119.924 207.753 118.27C208.764 116.617 209.433 114.777 209.719 112.859L210.667 112.373C210.846 114.165 210.897 115.88 211.05 117.647C211.139 115.88 211.01 114.109 210.667 112.373C214.061 117.745 216.158 123.833 216.794 130.156C217.429 136.479 216.585 142.863 214.327 148.803C213.859 149.853 213.507 150.952 213.278 152.08C213.208 152.313 213.165 152.553 213.15 152.796C213.256 154.925 213.778 157.012 214.686 158.94C215.685 162.195 215.895 165.641 215.298 168.993C214.701 172.345 213.316 175.507 211.255 178.218Z" fill="#F9DE96"/>
<path opacity="0.2" d="M103.044 141.941C107.026 142.63 111.089 142.733 115.102 142.248L117.892 142.069C122.892 141.568 127.942 142.162 132.689 143.81C134.809 144.517 136.734 145.709 138.311 147.291C139.889 148.874 141.076 150.802 141.777 152.923C141.99 153.929 142.144 154.946 142.238 155.97C142.305 158.029 142.775 160.056 143.621 161.935C144.306 163.096 145.257 164.078 146.397 164.8C147.536 165.521 148.831 165.96 150.174 166.082H150.712C151.565 166.113 152.414 165.942 153.189 165.581C153.963 165.221 154.641 164.682 155.166 164.008C156.091 162.72 156.477 161.122 156.242 159.554C155.888 156.961 155.109 154.444 153.938 152.104C153.579 151.336 153.246 150.543 152.939 149.749C152.311 148.546 151.962 147.217 151.918 145.861C151.873 144.505 152.135 143.156 152.683 141.915C154.508 139.778 156.893 138.191 159.57 137.333C162.975 135.797 166.815 134.056 168.351 130.574C167.371 130.266 166.42 129.872 165.509 129.396C162.894 132.499 159.157 134.441 155.115 134.798C152.567 135.875 150.375 137.65 148.792 139.918C147.928 141.652 147.479 143.562 147.479 145.499C147.479 147.436 147.928 149.346 148.792 151.08C149.125 151.925 149.483 152.744 149.842 153.64C150.867 155.601 151.551 157.722 151.864 159.912C151.979 160.508 151.879 161.125 151.582 161.653C151.582 161.653 151.352 162.012 150.661 161.96C150.072 161.899 149.504 161.704 149.003 161.389C148.501 161.073 148.079 160.647 147.768 160.143C147.186 158.699 146.857 157.167 146.795 155.612C146.705 154.398 146.534 153.192 146.283 152.002C145.419 149.221 143.905 146.686 141.866 144.607C139.827 142.528 137.321 140.964 134.558 140.046C131.33 138.812 127.924 138.103 124.471 137.947L129.003 136.001L129.233 135.873C127.562 135.289 126.004 134.423 124.625 133.313L114.129 137.819C113.909 137.907 113.709 138.037 113.54 138.203C110.429 138.575 107.279 138.481 104.196 137.922C100.535 137.102 96.7971 134.517 96.5155 131.137C96.5132 130.907 96.4608 130.68 96.3619 130.472C94.9733 130.936 93.5244 131.195 92.061 131.24C92.3682 137 97.9235 140.814 103.044 141.941Z" fill="#1D1D1B"/>
<path opacity="0.2" d="M213.075 152.669C213.09 152.426 213.133 152.185 213.203 151.952C212.668 151.588 212.092 151.287 211.487 151.056C209.41 150.352 207.229 150.006 205.036 150.032L201.324 149.878C200.912 148.746 200.424 147.643 199.865 146.576C201.591 145.338 203.233 143.987 204.78 142.531C206.464 142.443 208.149 142.714 209.721 143.325C210.004 143.446 210.309 143.507 210.617 143.504C211.046 143.511 211.467 143.397 211.834 143.175C212.201 142.953 212.498 142.633 212.691 142.25C212.801 141.997 212.858 141.724 212.858 141.449C212.858 141.173 212.801 140.9 212.69 140.648C212.58 140.395 212.418 140.168 212.215 139.981C212.013 139.794 211.773 139.651 211.513 139.561C210.387 139.129 209.221 138.812 208.031 138.614C209.685 136.382 210.638 133.709 210.77 130.934C210.767 130.651 210.707 130.371 210.594 130.111C210.481 129.851 210.317 129.616 210.112 129.42C209.907 129.225 209.665 129.072 209.4 128.972C209.135 128.871 208.852 128.825 208.569 128.835C208.007 128.814 207.459 129.014 207.043 129.392C206.626 129.77 206.375 130.296 206.342 130.857C206.342 135.721 201.887 139.817 197.663 142.941C196.946 141.866 196.178 140.79 195.359 139.741C198.004 137.73 200.137 135.125 201.587 132.136C203.037 129.147 203.763 125.859 203.705 122.537C202.331 123.531 200.799 124.284 199.173 124.764C198.856 127.273 198.007 129.686 196.683 131.84C195.358 133.995 193.589 135.842 191.493 137.257C191.22 137.493 190.929 137.707 190.623 137.897C190.188 138.179 189.727 138.461 189.292 138.691C183.735 141.661 177.45 142.993 171.166 142.531C169.528 142.531 165.176 142.25 163.665 145.373C163.149 146.645 163.149 148.069 163.665 149.341C164.203 151.338 164.945 153.36 165.662 155.306C166.552 157.568 167.296 159.886 167.89 162.244C167.89 162.397 168.35 165.648 168.35 165.648C168.286 167.227 168.028 168.792 167.582 170.308C166.557 172.317 165.064 174.049 163.228 175.359C161.392 176.669 159.268 177.518 157.035 177.834C152.072 178.633 146.989 178.193 142.238 176.554C140.146 176.017 138.169 175.107 136.401 173.866C135.661 173.36 135.034 172.706 134.558 171.946L134.199 171.306C133.404 168.935 133.142 166.417 133.431 163.933C133.431 159.786 133.662 155.101 129.617 152.106C125.572 149.11 120.298 150.083 115.997 150.826H115.639C106.928 152.609 97.8978 152.008 89.5006 149.085C81.1293 145.782 74.8827 139.049 73.6283 131.881C73.5617 131.471 73.3642 131.094 73.0651 130.806C72.8759 133.752 73.4489 136.697 74.7291 139.357C75.0327 139.896 75.3062 140.451 75.5483 141.021C75.5483 142.275 75.5483 143.581 75.7275 144.886C79.0893 148.387 83.1795 151.105 87.7086 152.848C88.2462 153.079 88.7838 153.258 89.347 153.463C88.1284 155.909 87.7246 158.681 88.195 161.373C88.3072 161.869 88.588 162.312 88.9894 162.624C89.3908 162.937 89.8879 163.101 90.3966 163.088H90.755C91.0352 163.063 91.3074 162.982 91.5549 162.848C91.8024 162.715 92.0203 162.532 92.1951 162.312C92.3699 162.092 92.4979 161.838 92.5716 161.567C92.6454 161.295 92.6631 161.012 92.6238 160.733C92.2808 158.653 92.6699 156.517 93.7248 154.691C101.21 156.231 108.924 156.292 116.432 154.871H116.816C120.58 154.256 124.497 153.565 126.801 155.306C127.504 155.849 128.044 156.575 128.362 157.405C122.013 156.586 115.741 159.172 110.877 161.655L108.65 162.781C104.234 165.49 99.2967 167.234 94.16 167.901C87.2478 168.285 80.7708 164.496 74.7547 160.221C75.0361 162.533 75.7852 164.762 76.9563 166.775C81.7897 170.008 87.4271 171.834 93.2384 172.049H94.3903C100.21 171.409 105.815 169.485 110.8 166.416L112.976 165.316C112.405 167.211 111.729 169.075 110.954 170.897C110.212 172.817 109.443 174.788 108.829 176.81V177.143C105.039 176.826 101.247 177.722 98 179.703C97.6844 179.706 97.372 179.766 97.0785 179.882C95.7923 180.233 94.4481 180.319 93.1277 180.134C91.8074 179.949 90.5386 179.498 89.3983 178.807C88.1951 178.167 87.0174 177.45 85.8141 176.657C84.1379 175.513 82.3746 174.503 80.5404 173.636C80.3757 173.572 80.2037 173.529 80.0284 173.508C80.0284 173.943 80.2588 174.378 80.3356 174.788C80.3356 175.94 80.3356 177.117 80.3356 178.269C81.3084 178.807 82.23 179.396 83.2028 180.036C84.1757 180.676 85.763 181.649 87.1198 182.391C89.0468 183.4 91.1343 184.067 93.2895 184.362C91.1134 187.665 90.0127 189.124 90.9599 192.913C88.3649 190.698 85.5711 188.727 82.6141 187.025L82.1277 186.615C83.2711 189.509 85.0164 192.127 87.2478 194.295C87.8808 194.878 88.5663 195.401 89.2958 195.857C90.2897 196.864 91.3412 197.813 92.4448 198.699C93.8243 199.828 95.2598 200.888 96.7456 201.873C98.0257 202.769 99.3056 203.614 100.662 204.433C105.372 207.794 110.547 210.45 116.023 212.318C122.315 214.084 128.992 213.933 135.198 211.883C137.457 211.158 139.615 210.152 141.623 208.888C141.956 209.093 142.289 209.246 142.647 209.425C144.233 210.21 145.91 210.795 147.64 211.166C149.702 210.207 151.843 209.428 154.04 208.837C156.291 208.258 158.585 207.864 160.901 207.659C156.537 206.109 152.893 203.012 150.66 198.955C150.356 198.452 149.878 198.078 149.317 197.904C148.755 197.729 148.15 197.766 147.614 198.008C147.356 198.114 147.123 198.273 146.93 198.476C146.737 198.678 146.589 198.918 146.495 199.181C146.401 199.444 146.363 199.724 146.384 200.002C146.404 200.281 146.483 200.552 146.615 200.798C148.069 203.463 150.066 205.791 152.478 207.633C151.125 207.985 149.726 208.123 148.331 208.043C147.23 207.889 146.206 207.403 145.131 207.198C144.552 207.134 143.968 207.134 143.39 207.198C144.3 203.344 143.733 199.289 141.803 195.832C142.443 195.448 143.057 195.064 143.671 194.628C145.287 193.553 146.7 192.201 147.844 190.635C148.667 189.371 149.354 188.024 149.892 186.615C150.148 186.026 150.379 185.463 150.66 184.9C150.42 188.561 151.582 192.177 153.912 195.012C157.247 198.813 161.313 201.904 165.867 204.1C167.608 205.073 169.4 206.072 171.269 206.917L194.77 204.945C196.003 204.862 197.201 204.503 198.277 203.896C200.06 203.825 201.806 203.371 203.398 202.564C203.602 202.283 203.782 201.976 203.961 201.668C204.838 199.892 205.09 197.872 204.678 195.934C203.5 188.254 197.433 180.958 188.703 176.759C188.796 176.627 188.866 176.48 188.908 176.324C189.539 174.46 189.859 172.506 189.855 170.538V170.129C193.715 170.555 197.413 171.916 200.629 174.093C203.845 176.27 206.482 179.197 208.313 182.622C208.505 182.998 208.798 183.312 209.161 183.53C209.523 183.747 209.939 183.858 210.361 183.85C210.063 182.716 209.686 181.604 209.235 180.522C209.849 179.87 210.43 179.186 210.975 178.474C208.98 175.406 206.364 172.789 203.295 170.794C203.353 170.593 203.395 170.387 203.423 170.18C204.242 164.902 203.937 159.51 202.527 154.359H204.652C206.292 154.315 207.928 154.549 209.49 155.05C209.994 155.205 210.452 155.483 210.823 155.858C211.194 156.233 211.466 156.694 211.615 157.2C211.679 157.739 211.944 158.233 212.357 158.584C212.77 158.936 213.301 159.118 213.843 159.095H214.047H214.406C213.532 157.065 213.079 154.879 213.075 152.669ZM121.041 209.656C111.978 209.221 96.8481 197.342 96.4384 196.446C96.1291 195.746 95.8641 195.028 95.6448 194.295C95.1924 192.381 95.286 190.377 95.915 188.513C96.544 186.648 97.6832 184.998 99.2032 183.748C101.684 181.748 104.83 180.76 108.01 180.983C107.612 183.312 107.772 185.703 108.475 187.958C109.178 190.214 110.404 192.272 112.055 193.963C113.239 195.038 114.599 195.904 116.074 196.523C113.493 197.401 110.823 197.994 108.112 198.289C107.83 198.302 107.552 198.372 107.297 198.494C107.042 198.617 106.815 198.79 106.628 199.003C106.442 199.216 106.3 199.464 106.212 199.733C106.124 200.002 106.091 200.286 106.115 200.568C106.213 201.083 106.49 201.546 106.899 201.874C107.307 202.203 107.819 202.375 108.343 202.36H108.624C113.345 201.875 117.95 200.594 122.244 198.571C124.105 198.958 126.001 199.155 127.901 199.16C131.346 199.164 134.762 198.548 137.988 197.342C139.883 200.593 139.063 203.23 137.63 206.635C133.329 209.425 126.289 209.937 121.041 209.656ZM145.899 184.9C145.472 186.064 144.923 187.18 144.26 188.228C143.382 189.362 142.328 190.347 141.137 191.147C136.178 194.432 130.17 195.747 124.292 194.833C123.426 194.718 122.57 194.538 121.732 194.295C120.965 194.111 120.212 193.871 119.479 193.579C117.925 192.994 116.493 192.126 115.255 191.019C114.07 189.749 113.201 188.218 112.716 186.551C112.231 184.883 112.145 183.125 112.464 181.418C112.601 180.224 112.832 179.043 113.156 177.886C113.167 177.766 113.167 177.646 113.156 177.527C113.693 175.71 114.41 173.892 115.152 171.972C116.439 168.99 117.417 165.885 118.071 162.704C121.416 161.268 125.096 160.798 128.695 161.348L128.9 161.604C128.9 162.244 128.9 162.909 128.9 163.575C128.505 166.933 129.045 170.335 130.462 173.405C127.113 176.295 124.312 179.764 122.193 183.646C122.066 183.892 121.991 184.163 121.974 184.439C121.958 184.716 121.999 184.994 122.095 185.254C122.191 185.514 122.341 185.751 122.534 185.95C122.727 186.149 122.96 186.306 123.217 186.411C123.534 186.54 123.872 186.609 124.215 186.615C124.618 186.623 125.016 186.523 125.367 186.325C125.719 186.127 126.01 185.838 126.212 185.489C128.028 182.144 130.41 179.138 133.252 176.605C135.553 178.296 138.162 179.522 140.932 180.215C143.069 180.87 145.251 181.366 147.46 181.7C146.869 182.739 146.347 183.817 145.899 184.926V184.9ZM200.505 196.19C200.775 197.328 200.668 198.524 200.197 199.595C198.879 201.164 197.079 202.253 195.077 202.692C191.233 204.41 187.098 205.383 182.891 205.56C177.7 205.062 172.708 203.305 168.35 200.44C164.314 198.496 160.697 195.783 157.701 192.452C156.455 191.05 155.646 189.315 155.373 187.459C155.1 185.603 155.375 183.709 156.164 182.007L157.931 181.751C160.881 181.308 163.68 180.16 166.091 178.404C168.503 176.648 170.454 174.336 171.781 171.665C172.538 169.795 172.912 167.793 172.882 165.776C175.53 165.721 178.178 165.909 180.792 166.34H181.176C181.685 166.352 182.182 166.188 182.584 165.875C182.985 165.563 183.266 165.121 183.378 164.624C183.421 164.348 183.408 164.066 183.339 163.794C183.27 163.523 183.147 163.268 182.977 163.046C182.808 162.824 182.594 162.638 182.351 162.5C182.107 162.362 181.838 162.275 181.56 162.244C178.521 161.766 175.445 161.569 172.37 161.655C171.711 158.992 170.856 156.382 169.81 153.847C169.093 151.875 168.402 150.032 167.89 148.214C167.659 147.318 167.685 146.986 167.736 146.883C167.787 146.781 168.171 146.346 170.885 146.474H172.907C173.004 146.562 173.117 146.632 173.24 146.678C177.601 148.52 181.097 151.953 183.019 156.279C184.917 160.637 185.75 165.384 185.451 170.129C185.466 171.675 185.233 173.213 184.76 174.685C184.033 176.327 183.057 177.847 181.868 179.191L180.613 180.83L178.719 183.262L174.418 189.175C174.247 189.391 174.124 189.641 174.057 189.908C173.99 190.175 173.98 190.453 174.028 190.724C174.077 190.995 174.182 191.253 174.338 191.48C174.493 191.707 174.695 191.899 174.93 192.043C175.314 192.304 175.771 192.438 176.235 192.427C176.586 192.43 176.933 192.356 177.251 192.21C177.57 192.064 177.852 191.85 178.079 191.582L180.639 188.254C182.331 191.094 184.862 193.339 187.884 194.679C188.202 194.801 188.541 194.862 188.882 194.859C189.288 194.867 189.689 194.764 190.041 194.561C190.393 194.358 190.683 194.063 190.879 193.707C191.005 193.46 191.078 193.19 191.093 192.914C191.108 192.638 191.064 192.361 190.965 192.103C190.866 191.845 190.714 191.61 190.518 191.414C190.322 191.219 190.088 191.066 189.829 190.967C188.405 190.329 187.126 189.407 186.07 188.259C185.013 187.11 184.202 185.758 183.685 184.286L185.682 181.726L186.808 180.241C194.335 183.697 199.506 189.764 200.505 196.216V196.19ZM199.327 168.183C196.395 166.815 193.253 165.949 190.034 165.623C189.889 161.824 189.02 158.088 187.474 154.615C185.885 151.175 183.487 148.171 180.485 145.859C184.494 145.244 188.361 143.918 191.903 141.942C193.118 143.478 194.213 145.104 195.18 146.806V146.986C195.168 147.071 195.168 147.157 195.18 147.242C195.267 147.419 195.379 147.583 195.512 147.728C198.808 154.018 200.137 161.154 199.327 168.208V168.183Z" fill="#1D1D1B"/>
</g>
</svg>
