<svg width="160" height="155" viewBox="0 0 160 155" fill="none" xmlns="http://www.w3.org/2000/svg">
<path fill-rule="evenodd" clip-rule="evenodd" d="M70.5112 84.2153C30.8858 120.383 -3.78203 90.3007 70.5112 84.2153Z" fill="#8C9152"/>
<path fill-rule="evenodd" clip-rule="evenodd" d="M89.1162 90.3105C52.7184 132.81 9.03358 112.896 89.1162 90.3105Z" fill="#80854D"/>
<path fill-rule="evenodd" clip-rule="evenodd" d="M54.3828 76.5663C17.0596 101.051 -15.5228 66.1208 54.3828 76.5663Z" fill="#8C9152"/>
<path fill-rule="evenodd" clip-rule="evenodd" d="M45.5241 71.4968C2.81715 14.9656 -1.73997 66.4176 45.5241 71.4968Z" fill="#80854D"/>
<path fill-rule="evenodd" clip-rule="evenodd" d="M49.3672 73.7902C43.2695 8.66898 13.7472 49.5894 49.3672 73.7902Z" fill="#8C9152"/>
<path fill-rule="evenodd" clip-rule="evenodd" d="M62.766 80.8395C61.4287 9.52971 31.5549 52.8358 62.766 80.8395Z" fill="#8C9152"/>
<path fill-rule="evenodd" clip-rule="evenodd" d="M78.682 87.2543C73.7906 7.23014 44.4993 60.6391 78.682 87.2543Z" fill="#8C9152"/>
<path fill-rule="evenodd" clip-rule="evenodd" d="M109.529 93.5337C68.24 151.26 28.4733 117.355 109.529 93.5337Z" fill="#80854D"/>
<path fill-rule="evenodd" clip-rule="evenodd" d="M98.3672 92.2531C80.8925 15.8282 60.4879 69.769 98.3672 92.2531Z" fill="#80854D"/>
<path fill-rule="evenodd" clip-rule="evenodd" d="M137.951 91.8012C94.3513 160.203 45.3104 132.288 137.951 91.8012Z" fill="#8C9152"/>
<path fill-rule="evenodd" clip-rule="evenodd" d="M120.945 93.7735C85.4644 14.814 72.6588 79.889 120.945 93.7735Z" fill="#8C9152"/>
<path d="M44.134 71.6199C44.0383 71.5624 43.9551 71.4862 43.8895 71.3958C43.8239 71.3054 43.7772 71.2027 43.7522 71.0939C43.7273 70.9851 43.7245 70.8723 43.7442 70.7623C43.7638 70.6524 43.8055 70.5476 43.8666 70.4541C43.9243 70.3595 44.0002 70.2772 44.0898 70.2119C44.1794 70.1466 44.281 70.0997 44.3888 70.0737C44.4966 70.0478 44.6084 70.0433 44.7179 70.0607C44.8274 70.078 44.9324 70.1167 45.0269 70.1747C63.0777 81.3058 81.2926 88.6469 99.5253 91.5558C116.971 94.4387 134.859 92.9626 151.596 87.259C151.703 87.2122 151.818 87.188 151.935 87.188C152.051 87.188 152.167 87.2122 152.273 87.259C152.38 87.3058 152.476 87.3743 152.555 87.46C152.634 87.5458 152.694 87.647 152.732 87.7572C152.77 87.8674 152.785 87.9843 152.775 88.1004C152.765 88.2166 152.732 88.3295 152.676 88.432C152.621 88.5345 152.545 88.6245 152.453 88.6961C152.361 88.7677 152.255 88.8195 152.142 88.8481C135.129 94.6736 116.936 96.187 99.1945 93.2525C80.7809 90.2955 62.2609 82.919 44.134 71.6199Z" fill="black"/>
</svg>
