<svg width="69" height="68" viewBox="0 0 69 68" fill="none" xmlns="http://www.w3.org/2000/svg">
<path fill-rule="evenodd" clip-rule="evenodd" d="M62.6458 38.9771C4.70353 74.2671 -31.9258 -16.4562 62.6458 38.9771Z" fill="#8C9152"/>
<path d="M66.8625 40.5356C67.0483 40.5337 67.2319 40.4952 67.4027 40.4223C67.5736 40.3494 67.7284 40.2436 67.8584 40.1109C67.9884 39.9781 68.0909 39.8212 68.1602 39.6488C68.2295 39.4765 68.2643 39.292 68.2623 39.1063C68.2604 38.9205 68.2219 38.737 68.149 38.5661C68.0761 38.3952 67.9702 38.2404 67.8375 38.1105C67.7048 37.9805 67.5478 37.8779 67.3754 37.8086C67.2031 37.7393 67.0187 37.7046 66.8329 37.7066C58.3447 37.8319 49.8611 37.24 41.4725 35.9373C32.1417 34.4735 22.9896 32.0379 14.1655 28.6703C13.8243 28.5863 13.464 28.6303 13.153 28.7939C12.842 28.9576 12.6018 29.2295 12.4778 29.5584C12.3538 29.8872 12.3546 30.2501 12.4801 30.5784C12.6056 30.9066 12.8471 31.1775 13.1589 31.3398C22.1507 34.7727 31.4702 37.2765 40.9718 38.812C49.4972 40.1046 58.1158 40.6823 66.7376 40.539L66.8625 40.5356Z" fill="black"/>
</svg>
