<svg width="298" height="298" viewBox="0 0 298 298" fill="none" xmlns="http://www.w3.org/2000/svg">
<circle cx="149" cy="149" r="149" fill="#EEA1B3"/>
<mask id="mask0_202_109998" style="mask-type:alpha" maskUnits="userSpaceOnUse" x="19" y="19" width="260" height="260">
<circle cx="149" cy="149" r="130" fill="#D9D9D9"/>
</mask>
<g mask="url(#mask0_202_109998)">
<path d="M42.8684 208.577H42.7116L40.406 208.138C40.305 208.117 40.2091 208.077 40.1237 208.019C40.0384 207.962 39.9651 207.888 39.9083 207.802C39.8515 207.716 39.8122 207.62 39.7926 207.519C39.773 207.417 39.7736 207.313 39.7942 207.212C39.8109 207.111 39.8481 207.014 39.9036 206.928C39.9591 206.842 40.0317 206.767 40.1169 206.71C40.2021 206.653 40.2982 206.614 40.3992 206.595C40.5001 206.576 40.6038 206.578 40.704 206.601L43.0096 207.04C43.1119 207.059 43.2096 207.098 43.2967 207.155C43.3838 207.211 43.4588 207.285 43.5172 207.371C43.5756 207.457 43.6162 207.554 43.6367 207.656C43.6573 207.758 43.6575 207.863 43.637 207.965C43.5952 208.138 43.4969 208.292 43.3577 208.403C43.2185 208.514 43.0463 208.575 42.8684 208.577Z" fill="white"/>
<path d="M56.0276 144.457C55.8915 144.455 55.7573 144.423 55.6355 144.362L53.5965 143.186C53.4155 143.082 53.2833 142.91 53.2289 142.709C53.1745 142.507 53.2023 142.293 53.3063 142.112C53.4103 141.931 53.582 141.798 53.7835 141.744C53.9849 141.69 54.1998 141.717 54.3807 141.821L56.4197 142.998C56.5974 143.103 56.7276 143.272 56.7831 143.471C56.8387 143.67 56.8153 143.882 56.7178 144.064C56.6468 144.184 56.5459 144.283 56.4248 144.352C56.3038 144.421 56.1668 144.457 56.0276 144.457Z" fill="white"/>
<path d="M92.2443 101.667C92.1012 101.668 91.9608 101.628 91.8388 101.554C91.7169 101.479 91.6183 101.371 91.5541 101.244L90.4876 99.1418C90.4421 99.0492 90.4153 98.9484 90.4088 98.8454C90.4023 98.7424 90.4162 98.6391 90.4497 98.5415C90.4833 98.4438 90.5357 98.3538 90.6041 98.2765C90.6725 98.1992 90.7555 98.1361 90.8483 98.0909C90.9396 98.0427 91.0396 98.0134 91.1425 98.0047C91.2453 97.996 91.3489 98.0081 91.447 98.0403C91.5451 98.0725 91.6356 98.1241 91.7133 98.1921C91.791 98.2601 91.8542 98.3431 91.8991 98.436L92.9501 100.538C92.9983 100.629 93.0276 100.729 93.0363 100.832C93.045 100.935 93.0328 101.038 93.0006 101.136C92.9684 101.235 92.9168 101.325 92.8488 101.403C92.7808 101.481 92.6979 101.544 92.605 101.589C92.4936 101.646 92.3693 101.673 92.2443 101.667Z" fill="white"/>
<path d="M195.497 103.567C195.346 103.574 195.197 103.53 195.074 103.442C194.986 103.388 194.91 103.316 194.85 103.232C194.79 103.147 194.748 103.052 194.726 102.951C194.704 102.85 194.703 102.745 194.722 102.644C194.741 102.542 194.781 102.446 194.839 102.36L196.125 100.383C196.24 100.211 196.418 100.092 196.621 100.051C196.823 100.01 197.034 100.05 197.207 100.164C197.295 100.218 197.371 100.289 197.431 100.374C197.491 100.458 197.533 100.554 197.555 100.655C197.577 100.756 197.578 100.86 197.559 100.962C197.539 101.064 197.5 101.16 197.442 101.246L196.156 103.222C196.082 103.328 195.983 103.414 195.868 103.474C195.754 103.534 195.627 103.566 195.497 103.567Z" fill="white"/>
<path d="M219.934 130.561C219.757 130.561 219.584 130.502 219.444 130.391C219.305 130.281 219.207 130.127 219.167 129.953C219.127 129.78 219.147 129.599 219.224 129.438C219.3 129.278 219.429 129.148 219.589 129.071L221.691 128.004C221.877 127.915 222.09 127.901 222.286 127.966C222.482 128.03 222.645 128.167 222.742 128.349C222.832 128.537 222.846 128.753 222.782 128.951C222.718 129.149 222.58 129.316 222.397 129.416L220.295 130.467C220.185 130.529 220.061 130.562 219.934 130.561Z" fill="white"/>
<path d="M244.606 210.553C244.398 210.58 244.188 210.523 244.022 210.395C243.856 210.267 243.747 210.078 243.72 209.87C243.693 209.662 243.75 209.452 243.878 209.286C244.006 209.12 244.194 209.011 244.402 208.984L246.661 208.341C246.863 208.288 247.077 208.315 247.259 208.418C247.44 208.52 247.575 208.69 247.633 208.89C247.686 209.09 247.658 209.302 247.556 209.481C247.453 209.66 247.283 209.792 247.084 209.847L244.826 210.49L244.606 210.553Z" fill="white"/>
<path d="M262.488 280.475H262.378L260.041 280.146C259.939 280.132 259.842 280.099 259.753 280.047C259.665 279.995 259.588 279.927 259.527 279.845C259.465 279.763 259.421 279.67 259.396 279.571C259.371 279.471 259.366 279.368 259.382 279.267C259.413 279.063 259.522 278.879 259.686 278.753C259.849 278.628 260.055 278.57 260.26 278.593L262.597 278.922C262.7 278.929 262.801 278.957 262.893 279.003C262.986 279.049 263.068 279.113 263.136 279.191C263.204 279.269 263.255 279.359 263.288 279.457C263.321 279.555 263.334 279.658 263.327 279.761C263.319 279.864 263.292 279.965 263.246 280.057C263.2 280.15 263.136 280.232 263.058 280.3C262.98 280.367 262.89 280.419 262.792 280.452C262.694 280.485 262.59 280.498 262.488 280.491V280.475Z" fill="white"/>
<path d="M29.379 276.962C29.171 276.962 28.9715 276.879 28.8244 276.732C28.6773 276.585 28.5947 276.386 28.5947 276.178C28.5947 275.97 28.6773 275.77 28.8244 275.623C28.9715 275.476 29.171 275.394 29.379 275.394L31.716 275.158C31.924 275.137 32.1318 275.2 32.2936 275.332C32.4553 275.465 32.5578 275.656 32.5786 275.864C32.5994 276.072 32.5368 276.28 32.4044 276.442C32.272 276.603 32.0809 276.706 31.8729 276.727L29.5358 276.962H29.379Z" fill="white"/>
<path d="M145.18 68.0723L120.085 68.7468L119.991 74.6442L61.2822 91.38C51.6831 92.9485 30.5556 104.775 29.6145 127.283L11.2475 248.762C10.1652 293.73 12.6434 321.822 18.4625 358.43L36.3433 354.446C43.6681 305.306 48.7814 290.389 45.864 252.495C59.5412 237.359 63.6506 200.735 66.8346 161.915L74.5829 311.015L73.3595 346.651C68.654 378.021 65.3132 410.582 63.7291 440.76H135.158C137.213 421.311 138.577 398.725 139.597 380.028C141.463 380.028 143.314 380.154 145.196 380.154C147.078 380.154 148.929 380.154 150.796 380.028C151.815 398.725 153.18 421.311 155.219 440.76H226.695C225.126 410.614 221.77 378.021 217.08 346.651L215.856 311.015L223.589 161.915C226.726 200.688 230.882 237.359 244.56 252.495C241.642 290.358 246.771 305.274 254.08 354.446L271.914 358.43C277.717 321.822 280.196 293.73 279.113 248.762L260.637 127.283C259.696 104.775 238.584 92.9328 228.985 91.38L170.276 74.6442L170.166 68.7468L145.18 68.0723Z" fill="#FFEAC8"/>
<path d="M168.818 35.7922C184.911 22.4287 186.416 -1.69456 184.424 -20.6732C181.946 -44.624 159.689 -52.937 137.213 -52.9997C101.702 -53.0938 96.1812 -29.9587 95.3343 -21.7712C95.0676 -19.3557 93.7658 -8.89389 93.7658 -8.89389C93.4678 -7.48225 92.1973 -1.05149 94.5814 0.438566C95.096 0.697456 95.5207 1.10515 95.8004 1.60866C96.0801 2.11217 96.2019 2.68823 96.1499 3.26187L92.3698 22.0837C92.2449 22.7095 92.26 23.3551 92.4138 23.9744C92.5677 24.5937 92.8566 25.1714 93.2597 25.666C93.6629 26.1606 94.1704 26.5599 94.746 26.8354C95.3216 27.111 95.9509 27.2558 96.589 27.2597H99.726C99.726 27.2597 99.726 30.0673 99.726 34.7257C99.726 36.7177 99.726 39.039 99.8201 41.5956L100.087 43.5406L100.699 47.9166L100.996 50.0811L101.812 55.9786C102.184 57.5828 103.145 58.9887 104.505 59.9182C105.864 60.8477 107.523 61.233 109.153 60.9978L120.414 60.5272L120.258 68.6834L170.339 70.1578L168.818 35.7922Z" fill="#FFEAC8"/>
<path d="M126.029 231.116C130.029 227.477 133.213 221.485 137.008 217.674C140.443 214.239 168.096 208.687 179.624 200.844C180.111 200.528 180.491 200.073 180.717 199.539C180.942 199.004 181.002 198.414 180.889 197.845C180.776 197.276 180.495 196.754 180.082 196.347C179.669 195.939 179.144 195.664 178.573 195.558C162.386 191.261 142.404 185.159 126.813 187.167C117.057 188.437 111.442 184.563 101.717 185.834C97.012 186.43 86.7855 189.677 82.629 199.95C80.3234 205.644 73.0927 213.612 80.0097 230.896C81.1972 234.367 81.6094 238.056 81.2174 241.703C81.2379 242.498 81.4536 243.275 81.8454 243.967C82.2371 244.658 82.793 245.243 83.464 245.669C84.135 246.095 84.9005 246.35 85.6931 246.411C86.4856 246.471 87.281 246.336 88.0089 246.017C93.3731 243.915 98.4707 241.64 104.211 239.743C110.517 237.719 118.218 238.268 126.029 231.116Z" fill="#96482B"/>
<path opacity="0.2" d="M94.5654 230.284C93.3297 233.084 91.4822 235.571 89.1588 237.564C86.8354 239.556 84.095 241.002 81.1392 241.796C81.1804 242.578 81.4105 243.338 81.8096 244.012C82.2087 244.685 82.765 245.252 83.431 245.664C84.097 246.075 84.8527 246.319 85.6336 246.375C86.4145 246.431 87.1973 246.297 87.915 245.984C93.2792 243.882 98.3769 241.608 104.118 239.71C110.517 237.64 118.234 238.142 126.076 231.036C130.076 227.398 133.26 221.406 137.056 217.595C140.491 214.16 168.143 208.607 179.671 200.765C180.084 200.499 180.421 200.132 180.65 199.699C180.88 199.266 180.993 198.781 180.981 198.29C180.968 197.8 180.83 197.322 180.578 196.901C180.327 196.48 179.971 196.13 179.546 195.887C148.819 204.78 109.544 194.679 94.5654 230.284Z" fill="#1D1D1B"/>
<path d="M136.303 235.727C134.563 228.379 133.451 220.897 132.977 213.361C132.538 212.184 130.06 212.953 129.323 213.549C129.574 217.674 130.029 221.799 130.672 225.893C128.68 224.406 126.353 223.431 123.896 223.054C123.79 222.654 123.603 222.281 123.347 221.956C122.117 220.904 120.672 220.133 119.112 219.698C116.54 218.553 114.485 216.466 111.756 215.698C110.265 215.296 108.693 215.309 107.209 215.734C105.724 216.16 104.384 216.982 103.333 218.113C102.394 219.22 101.834 220.598 101.735 222.046C101.636 223.494 102.004 224.936 102.784 226.16C103.676 227.405 104.896 228.379 106.308 228.972C107.721 229.564 109.27 229.753 110.783 229.516C113.168 229.14 115.254 227.775 117.638 227.446C119.173 227.467 120.702 227.25 122.171 226.803C122.44 226.682 122.685 226.511 122.892 226.301C125.336 226.61 127.612 227.712 129.37 229.438C130.313 230.372 131.048 231.495 131.527 232.733C132.005 233.971 132.216 235.296 132.146 236.621L135.816 236.825C135.816 236.512 135.816 236.198 135.816 235.884L136.303 235.727Z" fill="#A8A166"/>
<path d="M114.532 244.4C111.568 244.635 109.827 247.537 108.807 250.094C107.239 253.56 105.843 257.622 107.929 260.822C109.654 263.441 113.199 264.461 116.446 265.214C128.633 268.021 141.542 269.841 153.682 266.641C158.596 265.186 163.376 263.313 167.971 261.042C174.825 257.905 181.915 254.485 186.573 248.87C188.863 246.125 190.557 242.847 193.553 240.761C194.823 239.883 196.407 239.067 196.69 237.624C192.47 236.056 187.561 237.059 183.467 238.942C179.374 240.824 175.782 243.506 171.688 245.404C162.889 249.466 152.6 249.56 142.734 249.576C139.121 249.655 135.507 249.514 131.911 249.152C127.526 248.634 123.243 247.46 119.206 245.67C117.784 244.852 116.174 244.414 114.532 244.4Z" fill="#A8A166"/>
<path d="M191.482 216.059C190.814 213.53 189.581 211.186 187.874 209.205C185.55 206.665 182.656 204.713 179.43 203.511C176.204 202.308 172.739 201.889 169.319 202.287C160.583 203.432 155.391 209.863 151.595 215.745C150.874 216.843 150.137 217.957 149.368 219.086C147.165 215.153 145.979 210.732 145.917 206.224L145.557 54.7871L135.314 56.0262L134.907 206.256C134.993 213.761 137.392 221.056 141.776 227.148C139.735 228.572 137.449 229.609 135.032 230.207C128.429 231.775 120.037 230.379 115.112 234.018C114.137 234.733 113.351 235.675 112.822 236.763C108.068 239.03 104.249 242.878 102.015 247.648C100.564 251.046 100.062 254.774 100.565 258.435C101.068 262.095 102.556 265.55 104.87 268.431H104.964L113.763 262.517C112.537 260.983 111.744 259.148 111.468 257.203C111.192 255.258 111.443 253.274 112.195 251.459C112.987 249.72 114.206 248.209 115.74 247.068C116.735 248.07 117.816 248.984 118.971 249.797C131.189 258.565 151.046 260.18 166.025 254.644C181.004 249.107 190.572 237.233 192.047 224.842C192.435 221.906 192.243 218.921 191.482 216.059Z" fill="#F9DE96"/>
<path opacity="0.1" d="M192.047 224.873C190.572 237.249 180.942 249.122 166.026 254.675C151.109 260.227 131.237 258.596 118.971 249.828C117.816 249.015 116.735 248.102 115.74 247.099C114.207 248.24 112.987 249.751 112.195 251.491C111.443 253.306 111.192 255.289 111.468 257.234C111.744 259.179 112.537 261.014 113.764 262.549L104.964 268.462C103.862 265.522 103.496 262.357 103.898 259.243C104.3 256.129 105.458 253.16 107.27 250.597C109.228 247.818 112.154 245.871 115.473 245.138C119.787 244.323 124.116 246.111 128.319 247.35C139.203 250.495 150.815 250.01 161.398 245.97C171.592 242.041 180.073 234.643 185.349 225.077C186.569 222.313 188.151 219.723 190.055 217.376C190.498 216.897 190.981 216.456 191.498 216.059C192.258 218.932 192.445 221.928 192.047 224.873Z" fill="#1D1D1B"/>
<path d="M209.755 291.456C209.748 293.305 209.081 295.091 207.872 296.49C209.073 297.895 209.74 299.678 209.755 301.525C209.742 302.78 209.433 304.014 208.852 305.126C208.272 306.238 207.436 307.197 206.414 307.925L206.32 308.427C206.767 309.412 207.002 310.481 207.01 311.564C207.008 312.634 206.788 313.693 206.361 314.675C205.935 315.656 205.312 316.541 204.532 317.273L204.359 317.869C205.03 319.017 205.393 320.319 205.41 321.649C205.394 323.056 205.009 324.434 204.294 325.645C203.578 326.856 202.557 327.858 201.332 328.55C201.711 329.471 201.908 330.456 201.912 331.452C201.83 333.697 200.862 335.819 199.218 337.351C197.574 338.883 195.39 339.7 193.144 339.624H192.988C192.523 341.54 191.417 343.239 189.854 344.44C188.29 345.641 186.363 346.272 184.392 346.227C182.88 346.214 181.394 345.832 180.063 345.113C179.228 345.994 178.224 346.696 177.111 347.179C175.998 347.661 174.799 347.914 173.585 347.921C171.93 347.921 170.305 347.477 168.88 346.635C168.043 347.765 166.949 348.68 165.69 349.304C164.43 349.928 163.04 350.245 161.634 350.227C159.973 350.22 158.345 349.759 156.928 348.894V360.014C156.928 363.339 153.791 366.288 150.968 368.139C147.956 370.068 150.325 380.31 148.38 380.31C147.799 380.31 143.674 380.31 143.094 380.31C142.514 380.31 142.514 369.331 141.824 369.002C138.53 367.731 137.118 364.453 136.804 361.049C136.773 360.715 136.773 360.379 136.804 360.045V348.078C136.897 344.231 138.085 340.49 140.23 337.295C142.375 334.099 145.387 331.583 148.913 330.04C151.542 328.809 154.377 328.075 157.273 327.876L177.773 326.166C178.529 326.115 179.263 325.895 179.922 325.523C180.854 325.036 181.578 324.228 181.961 323.249C187.498 308.364 189.302 290.311 187.341 269.497L186.761 269.795C186.401 271.992 185.258 273.985 183.542 275.404C181.826 276.822 179.654 277.571 177.428 277.512C175.778 277.501 174.159 277.07 172.723 276.257C171.893 277.755 170.674 279.001 169.194 279.863C167.714 280.725 166.028 281.17 164.316 281.151C162.729 281.142 161.168 280.749 159.767 280.006C158.858 281.074 157.725 281.93 156.448 282.513C155.172 283.096 153.783 283.391 152.379 283.378C150.568 282.287 148.455 281.808 146.35 282.012C144.246 282.215 142.263 283.09 140.694 284.507C139.399 284.511 138.116 284.256 136.92 283.758C135.724 283.26 134.64 282.528 133.73 281.606H133.291C131.631 282.78 129.647 283.411 127.613 283.409C126.182 283.42 124.767 283.112 123.47 282.507C122.173 281.901 121.027 281.015 120.116 279.912L119.488 279.802C117.97 280.705 116.236 281.182 114.469 281.182C112.857 281.2 111.267 280.81 109.846 280.047C108.425 279.285 107.221 278.175 106.344 276.822L105.294 276.524C103.647 286.923 105.294 301.902 109.513 314.638C109.504 314.674 109.504 314.712 109.513 314.748C110.534 317.813 111.749 320.809 113.152 323.719C114.037 325.554 114.252 327.641 113.759 329.618C113.266 331.595 112.097 333.337 110.454 334.542C112.531 336.314 113.974 338.715 114.563 341.38C114.893 343.009 114.876 344.688 114.514 346.31C114.152 347.931 113.452 349.458 112.462 350.791C112.282 351.036 112.045 351.232 111.771 351.364C111.498 351.495 111.196 351.557 110.893 351.544C110.534 351.543 110.182 351.446 109.874 351.262C109.673 351.154 109.499 351.005 109.362 350.823C109.225 350.641 109.13 350.432 109.082 350.209C109.034 349.987 109.036 349.757 109.086 349.535C109.136 349.314 109.233 349.105 109.372 348.925C110.108 347.949 110.629 346.828 110.9 345.635C111.17 344.443 111.184 343.206 110.94 342.008C110.424 339.664 109.011 337.615 107.003 336.299C104.956 336.909 102.776 336.909 100.729 336.299C99.4484 335.922 98.2586 335.286 97.2334 334.431C96.2081 333.576 95.3694 332.519 94.769 331.327C94.4867 330.778 94.2357 330.15 93.9848 329.585C92.1532 329.07 90.5348 327.982 89.3663 326.481C88.1979 324.979 87.5407 323.143 87.4912 321.241C87.5032 319.813 87.8871 318.413 88.6049 317.179C87.0231 316.523 85.6671 315.419 84.7031 314.004C83.7391 312.589 83.209 310.923 83.1779 309.211C83.1866 308.093 83.4171 306.987 83.8559 305.959C84.2948 304.93 84.9333 303.999 85.7345 303.219C84.4159 302.473 83.3163 301.393 82.5457 300.089C81.775 298.784 81.3602 297.3 81.3428 295.785C81.3522 294.632 81.5946 293.493 82.0555 292.436C82.5164 291.38 83.1864 290.427 84.0249 289.636C83.105 288.78 82.3887 287.728 81.9288 286.559C81.4688 285.389 81.2769 284.132 81.3672 282.878C81.4575 281.625 81.8276 280.407 82.4504 279.316C83.0732 278.224 83.9328 277.286 84.966 276.571C84.966 276.273 85.0758 275.975 85.1072 275.677C83.9238 274.32 83.267 272.583 83.2563 270.783C83.2892 269.24 83.7711 267.741 84.6431 266.468C85.515 265.194 86.7391 264.203 88.1656 263.615C88.5079 262.718 88.8953 261.838 89.3264 260.98C90.5136 258.849 92.4079 257.2 94.6819 256.318C96.9559 255.436 99.4666 255.376 101.78 256.149C140.255 268.368 162.261 265.78 189.019 245.938C190.446 244.905 192.102 244.234 193.845 243.982C195.588 243.731 197.366 243.907 199.026 244.495C200.621 245.028 202.044 245.978 203.148 247.247C204.251 248.515 204.994 250.057 205.3 251.71C205.457 252.51 205.551 253.279 205.677 254.11C206.496 254.849 207.152 255.752 207.603 256.759C208.054 257.766 208.29 258.857 208.296 259.96C208.289 261.441 207.848 262.886 207.026 264.117C207.026 264.305 207.026 264.493 207.026 264.666C207.897 265.404 208.599 266.321 209.083 267.355C209.568 268.389 209.824 269.516 209.833 270.657C209.823 272.392 209.238 274.075 208.17 275.441C208.967 276.176 209.602 277.067 210.036 278.059C210.471 279.051 210.695 280.123 210.695 281.206C210.695 282.289 210.471 283.36 210.036 284.352C209.602 285.344 208.967 286.235 208.17 286.97C209.163 288.258 209.718 289.83 209.755 291.456Z" fill="#E9B4B4"/>
<path opacity="0.1" d="M195.498 280.068C195.498 287.314 194.714 294.56 194.321 301.807C193.882 310.12 192.502 319.876 184.55 323.922H184.44C182.955 324.65 181.369 325.147 179.735 325.397C180.666 324.909 181.39 324.102 181.774 323.122C187.31 308.238 189.114 290.184 187.154 269.37L186.573 269.668C186.214 271.866 185.07 273.858 183.354 275.277C181.638 276.696 179.466 277.445 177.241 277.385C175.591 277.375 173.971 276.943 172.535 276.131C171.706 277.629 170.487 278.875 169.006 279.737C167.526 280.598 165.841 281.043 164.128 281.024C162.542 281.016 160.981 280.623 159.58 279.879C158.67 280.948 157.537 281.804 156.261 282.387C154.984 282.969 153.595 283.265 152.192 283.252C150.381 282.161 148.267 281.682 146.163 281.885C144.058 282.089 142.075 282.964 140.507 284.381C139.211 284.385 137.928 284.13 136.732 283.632C135.537 283.133 134.452 282.402 133.543 281.479H133.103C131.443 282.654 129.459 283.284 127.426 283.283C125.995 283.294 124.579 282.985 123.282 282.38C121.985 281.775 120.839 280.889 119.928 279.785L119.301 279.675C117.782 280.579 116.048 281.056 114.282 281.056C112.669 281.074 111.079 280.683 109.658 279.921C108.238 279.158 107.033 278.049 106.157 276.695L105.106 276.397C103.459 286.796 105.106 301.775 109.325 314.512C109.316 314.548 109.316 314.585 109.325 314.621C110.346 317.686 111.562 320.683 112.964 323.593C113.849 325.428 114.064 327.515 113.572 329.492C113.079 331.469 111.909 333.211 110.266 334.416C112.344 336.187 113.786 338.588 114.376 341.254C114.705 342.882 114.688 344.562 114.326 346.183C113.964 347.805 113.265 349.332 112.274 350.665C112.094 350.91 111.857 351.106 111.584 351.237C111.31 351.369 111.009 351.431 110.705 351.418C110.347 351.417 109.995 351.319 109.686 351.136C109.486 351.028 109.311 350.878 109.175 350.696C109.038 350.515 108.942 350.305 108.895 350.083C108.847 349.861 108.848 349.631 108.898 349.409C108.948 349.187 109.046 348.979 109.184 348.799C109.921 347.823 110.442 346.701 110.712 345.509C110.982 344.316 110.996 343.08 110.753 341.882C110.236 339.537 108.823 337.488 106.816 336.172C104.769 336.783 102.589 336.783 100.542 336.172C103.098 335.153 107.333 333.804 108.384 328.33C109.702 321.538 104.965 317.648 101.953 306.23C99.8995 299.02 98.6682 291.601 98.2831 284.114C98.1106 280.758 98.691 274.703 101.091 272.225C103.491 269.747 106.486 270.515 109.764 271.896C111.801 272.842 113.896 273.654 116.038 274.327C134.594 279.189 152.474 278.86 170.183 271.802C173.116 270.625 181.585 266.014 185.867 264.618C186.323 264.459 186.789 264.333 187.263 264.242C190.855 263.708 195.498 265.528 195.498 280.068Z" fill="#1D1D1B"/>
<path d="M187.608 309.838C187.274 310.274 186.918 310.693 186.541 311.092C186.818 311.755 187.048 312.437 187.231 313.131C187.991 315.519 187.902 318.095 186.98 320.425C186.167 322.24 184.747 323.715 182.965 324.597C181.99 325.091 180.92 325.369 179.828 325.413C179.169 325.785 178.434 326.005 177.679 326.056L163.28 327.263L157.179 327.765H156.944C156.112 327.844 155.375 327.954 154.513 328.095C153.65 328.236 153.321 328.346 152.74 328.487C151.395 328.849 150.083 329.326 148.819 329.914C147.759 329.687 146.732 329.328 145.76 328.848C145.541 328.738 145.337 328.644 145.133 328.518C143.903 329.292 142.58 329.909 141.196 330.353C137.394 331.609 133.303 331.702 129.448 330.62C126.093 329.475 122.923 327.848 120.037 325.789C119.222 325.271 118.469 324.754 117.637 324.221C116.727 323.617 115.848 322.968 115.002 322.276C114.326 321.733 113.682 321.152 113.073 320.535C112.626 320.255 112.206 319.935 111.818 319.578C110.451 318.249 109.382 316.645 108.681 314.872C108.021 313.192 107.624 311.42 107.505 309.618C107.505 308.912 107.505 308.191 107.505 307.485C107.505 307.234 107.38 306.967 107.317 306.701C107.144 305.901 106.956 305.132 106.768 304.269C106.292 303.772 105.886 303.213 105.56 302.607C104.843 301.374 104.384 300.008 104.211 298.591C104.211 298.309 104.211 297.995 104.211 297.713C104.141 295.143 104.378 292.573 104.917 290.059C104.917 289.808 104.917 289.541 104.917 289.29C104.917 288.475 104.917 287.722 104.807 286.922C104.659 286.573 104.491 286.233 104.305 285.902C103.521 284.273 103.17 282.469 103.286 280.664C103.269 280.382 103.269 280.099 103.286 279.817C103.33 279.13 103.538 278.464 103.893 277.874C104.247 277.285 104.739 276.789 105.325 276.429C105.321 276.455 105.321 276.481 105.325 276.507C105.627 276.569 105.925 276.648 106.219 276.742C107.095 278.096 108.3 279.206 109.72 279.968C111.141 280.73 112.731 281.121 114.344 281.103H114.657C115.554 281.075 116.442 280.917 117.292 280.632C118.019 280.42 118.715 280.114 119.363 279.723L119.99 279.832C120.902 280.936 122.047 281.822 123.344 282.427C124.641 283.032 126.056 283.341 127.488 283.33C129.521 283.331 131.505 282.701 133.165 281.526H133.605C133.895 281.818 134.204 282.091 134.53 282.342C135.375 283.022 136.33 283.553 137.353 283.91C139.613 282.639 142.141 281.921 144.732 281.818C147.322 281.714 149.9 282.227 152.254 283.314C152.588 283.337 152.924 283.337 153.258 283.314C155.734 283.096 158.024 281.906 159.626 280.005C160.184 280.296 160.766 280.538 161.367 280.726C162.277 281.004 163.223 281.147 164.174 281.15C165.887 281.169 167.573 280.724 169.053 279.862C170.533 279.001 171.752 277.755 172.581 276.256C173.741 276.912 175.024 277.321 176.349 277.459C177.674 277.596 179.013 277.459 180.283 277.056C181.279 276.762 182.218 276.301 183.059 275.692C184.025 275 184.842 274.122 185.462 273.109C186.081 272.096 186.491 270.969 186.667 269.794L187.247 269.496C187.357 270.594 187.388 271.645 187.482 272.727C187.537 271.645 187.458 270.559 187.247 269.496C189.326 272.787 190.612 276.518 191.001 280.391C191.39 284.265 190.873 288.176 189.49 291.816C189.203 292.459 188.987 293.133 188.847 293.823C188.804 293.966 188.778 294.114 188.768 294.262C188.833 295.567 189.153 296.845 189.709 298.027C190.321 300.021 190.45 302.132 190.084 304.186C189.719 306.24 188.87 308.177 187.608 309.838Z" fill="#F9DE96"/>
<path opacity="0.2" d="M188.722 294.184C188.731 294.035 188.757 293.888 188.8 293.745C188.472 293.521 188.119 293.337 187.749 293.196C186.477 292.764 185.14 292.552 183.796 292.568L181.522 292.474C181.27 291.78 180.971 291.104 180.628 290.451C181.686 289.692 182.692 288.865 183.64 287.973C184.672 287.919 185.703 288.084 186.667 288.459C186.84 288.533 187.027 288.57 187.216 288.569C187.478 288.573 187.737 288.503 187.962 288.367C188.186 288.231 188.368 288.035 188.486 287.8C188.554 287.645 188.589 287.478 188.589 287.309C188.589 287.14 188.554 286.973 188.486 286.819C188.418 286.664 188.319 286.525 188.195 286.41C188.071 286.296 187.924 286.208 187.765 286.153C187.075 285.888 186.36 285.694 185.632 285.573C186.645 284.205 187.229 282.567 187.31 280.867C187.308 280.694 187.271 280.522 187.202 280.363C187.133 280.204 187.032 280.06 186.906 279.94C186.781 279.82 186.632 279.727 186.47 279.665C186.308 279.603 186.135 279.575 185.961 279.581C185.617 279.568 185.281 279.691 185.026 279.922C184.771 280.154 184.617 280.476 184.596 280.82C184.596 283.8 181.867 286.31 179.279 288.223C178.84 287.565 178.369 286.906 177.868 286.263C179.488 285.031 180.795 283.435 181.684 281.604C182.572 279.772 183.016 277.758 182.981 275.723C182.139 276.332 181.201 276.793 180.205 277.087C180.01 278.624 179.49 280.102 178.679 281.422C177.867 282.742 176.783 283.874 175.499 284.741C175.332 284.886 175.154 285.017 174.966 285.134C174.699 285.306 174.417 285.479 174.15 285.62C170.746 287.439 166.895 288.255 163.045 287.973C162.042 287.973 159.375 287.8 158.45 289.714C158.133 290.493 158.133 291.365 158.45 292.145C158.779 293.368 159.234 294.607 159.673 295.799C160.218 297.186 160.674 298.605 161.038 300.05C161.038 300.144 161.32 302.136 161.32 302.136C161.281 303.103 161.123 304.062 160.85 304.991C160.221 306.221 159.306 307.283 158.182 308.085C157.057 308.888 155.755 309.408 154.387 309.602C151.347 310.091 148.233 309.822 145.321 308.818C144.04 308.489 142.828 307.931 141.745 307.171C141.292 306.86 140.908 306.46 140.616 305.994L140.397 305.602C139.909 304.149 139.749 302.607 139.926 301.085C139.926 298.544 140.067 295.674 137.589 293.839C135.111 292.004 131.88 292.6 129.245 293.054H129.025C123.688 294.147 118.155 293.779 113.011 291.988C107.882 289.964 104.055 285.839 103.286 281.448C103.245 281.196 103.124 280.965 102.941 280.789C102.825 282.594 103.176 284.398 103.961 286.028C104.147 286.358 104.314 286.698 104.462 287.047C104.462 287.816 104.462 288.616 104.572 289.416C106.632 291.56 109.138 293.225 111.913 294.294C112.242 294.435 112.572 294.544 112.917 294.67C112.17 296.169 111.923 297.867 112.211 299.517C112.28 299.821 112.452 300.091 112.697 300.283C112.943 300.475 113.248 300.575 113.56 300.567H113.779C113.951 300.552 114.118 300.502 114.269 300.42C114.421 300.338 114.554 300.227 114.662 300.092C114.769 299.957 114.847 299.801 114.892 299.635C114.937 299.469 114.948 299.295 114.924 299.124C114.714 297.85 114.952 296.542 115.599 295.423C120.185 296.366 124.911 296.404 129.511 295.533H129.746C132.052 295.156 134.452 294.733 135.864 295.799C136.295 296.132 136.626 296.577 136.82 297.085C132.93 296.584 129.088 298.168 126.108 299.689L124.743 300.379C122.038 302.039 119.013 303.108 115.865 303.516C111.63 303.751 107.662 301.43 103.976 298.811C104.149 300.227 104.608 301.593 105.325 302.826C108.286 304.807 111.74 305.926 115.301 306.057H116.006C119.572 305.665 123.006 304.487 126.061 302.606L127.394 301.932C127.043 303.094 126.63 304.235 126.155 305.351C125.7 306.528 125.229 307.735 124.853 308.975V309.178C122.531 308.984 120.207 309.533 118.218 310.747C118.025 310.748 117.833 310.786 117.653 310.857C116.865 311.072 116.042 311.124 115.233 311.011C114.424 310.898 113.647 310.621 112.948 310.198C112.211 309.806 111.489 309.367 110.752 308.88C109.725 308.18 108.645 307.561 107.521 307.03C107.42 306.991 107.315 306.964 107.207 306.951C107.207 307.218 107.348 307.484 107.396 307.735C107.396 308.441 107.396 309.163 107.396 309.869C107.992 310.198 108.556 310.559 109.152 310.951C109.748 311.343 110.721 311.939 111.552 312.394C112.733 313.012 114.012 313.421 115.332 313.602C113.999 315.625 113.324 316.519 113.905 318.84C112.315 317.483 110.603 316.276 108.792 315.233L108.493 314.982C109.194 316.755 110.263 318.359 111.63 319.687C112.018 320.044 112.438 320.365 112.885 320.644C113.494 321.261 114.138 321.842 114.815 322.385C115.66 323.077 116.539 323.726 117.45 324.33C118.234 324.879 119.018 325.397 119.849 325.898C122.735 327.957 125.905 329.585 129.26 330.729C133.116 331.811 137.206 331.718 141.008 330.463C142.392 330.018 143.715 329.402 144.945 328.628C145.149 328.753 145.353 328.847 145.572 328.957C146.544 329.438 147.571 329.796 148.631 330.024C149.895 329.436 151.207 328.958 152.552 328.596C153.931 328.242 155.337 328 156.756 327.875C154.082 326.925 151.85 325.028 150.482 322.542C150.295 322.234 150.002 322.005 149.659 321.898C149.315 321.791 148.944 321.814 148.615 321.962C148.457 322.027 148.314 322.125 148.196 322.248C148.078 322.372 147.987 322.519 147.93 322.681C147.872 322.842 147.849 323.013 147.862 323.184C147.874 323.354 147.923 323.52 148.004 323.671C148.894 325.304 150.118 326.731 151.595 327.859C150.767 328.074 149.909 328.159 149.054 328.11C148.38 328.016 147.753 327.718 147.094 327.592C146.739 327.553 146.382 327.553 146.027 327.592C146.585 325.231 146.238 322.747 145.055 320.628C145.447 320.393 145.823 320.158 146.2 319.891C147.19 319.233 148.055 318.404 148.756 317.444C149.261 316.67 149.681 315.845 150.011 314.982C150.168 314.621 150.309 314.276 150.482 313.931C150.335 316.174 151.047 318.389 152.474 320.126C154.517 322.455 157.008 324.349 159.799 325.695C160.865 326.291 161.963 326.902 163.108 327.42L177.507 326.212C178.262 326.161 178.996 325.941 179.656 325.569C180.748 325.526 181.818 325.248 182.793 324.754C182.918 324.581 183.028 324.393 183.138 324.205C183.675 323.116 183.83 321.878 183.577 320.691C182.855 315.986 179.138 311.515 173.79 308.943C173.847 308.862 173.889 308.772 173.915 308.677C174.302 307.535 174.498 306.337 174.495 305.132V304.881C176.86 305.142 179.126 305.976 181.096 307.31C183.067 308.643 184.682 310.437 185.804 312.535C185.922 312.765 186.102 312.958 186.324 313.091C186.545 313.225 186.8 313.293 187.059 313.288C186.876 312.593 186.646 311.912 186.369 311.249C186.746 310.849 187.101 310.43 187.435 309.994C186.213 308.114 184.61 306.511 182.73 305.289C182.765 305.165 182.791 305.039 182.808 304.912C183.31 301.678 183.123 298.375 182.259 295.219H183.561C184.566 295.192 185.568 295.335 186.526 295.642C186.834 295.738 187.115 295.908 187.342 296.138C187.569 296.368 187.736 296.65 187.827 296.96C187.867 297.29 188.029 297.593 188.282 297.808C188.535 298.023 188.86 298.135 189.192 298.121H189.318H189.537C189.002 296.877 188.724 295.538 188.722 294.184ZM132.334 329.098C126.782 328.832 117.512 321.554 117.261 321.005C117.072 320.576 116.909 320.136 116.775 319.687C116.498 318.514 116.555 317.287 116.941 316.144C117.326 315.002 118.024 313.991 118.955 313.225C120.475 311.999 122.403 311.394 124.351 311.531C124.107 312.958 124.205 314.423 124.636 315.805C125.066 317.187 125.818 318.447 126.829 319.483C127.555 320.142 128.388 320.673 129.292 321.052C127.71 321.59 126.074 321.953 124.414 322.134C124.24 322.142 124.071 322.185 123.914 322.26C123.758 322.335 123.619 322.441 123.504 322.571C123.39 322.702 123.303 322.854 123.249 323.019C123.195 323.183 123.175 323.357 123.19 323.53C123.25 323.846 123.42 324.129 123.67 324.331C123.92 324.532 124.234 324.637 124.555 324.628H124.727C127.62 324.331 130.441 323.546 133.072 322.307C134.212 322.544 135.373 322.664 136.538 322.667C138.648 322.67 140.741 322.293 142.718 321.554C143.879 323.546 143.377 325.161 142.498 327.247C139.863 328.957 135.55 329.271 132.334 329.098ZM147.564 313.931C147.303 314.644 146.967 315.328 146.561 315.97C146.023 316.665 145.377 317.268 144.647 317.758C141.609 319.771 137.928 320.577 134.326 320.017C133.796 319.946 133.272 319.836 132.758 319.687C132.288 319.574 131.827 319.427 131.378 319.248C130.426 318.89 129.548 318.358 128.79 317.68C128.064 316.902 127.531 315.964 127.234 314.942C126.937 313.921 126.884 312.844 127.08 311.798C127.164 311.066 127.305 310.342 127.504 309.633C127.51 309.56 127.51 309.487 127.504 309.414C127.833 308.3 128.272 307.186 128.727 306.01C129.515 304.183 130.114 302.281 130.515 300.332C132.564 299.452 134.819 299.164 137.024 299.501L137.15 299.658C137.15 300.05 137.15 300.458 137.15 300.865C136.908 302.923 137.239 305.007 138.106 306.888C136.055 308.659 134.339 310.784 133.04 313.162C132.962 313.313 132.917 313.479 132.907 313.649C132.896 313.818 132.922 313.988 132.981 314.148C133.04 314.307 133.131 314.452 133.249 314.574C133.368 314.696 133.51 314.792 133.668 314.856C133.862 314.935 134.07 314.978 134.279 314.982C134.526 314.987 134.77 314.925 134.985 314.804C135.201 314.683 135.379 314.506 135.503 314.292C136.616 312.242 138.075 310.401 139.816 308.849C141.226 309.885 142.824 310.636 144.522 311.061C145.831 311.462 147.167 311.766 148.521 311.97C148.159 312.607 147.839 313.267 147.564 313.947V313.931ZM181.02 320.848C181.186 321.545 181.12 322.278 180.832 322.934C180.024 323.895 178.921 324.562 177.695 324.832C175.34 325.884 172.806 326.481 170.229 326.589C167.048 326.284 163.99 325.207 161.32 323.452C158.847 322.261 156.631 320.598 154.795 318.558C154.032 317.699 153.536 316.636 153.369 315.499C153.202 314.362 153.37 313.201 153.854 312.159L154.936 312.002C156.744 311.73 158.459 311.027 159.936 309.951C161.413 308.875 162.609 307.459 163.422 305.822C163.886 304.677 164.115 303.45 164.096 302.214C165.719 302.18 167.341 302.296 168.943 302.559H169.178C169.49 302.567 169.795 302.467 170.04 302.275C170.286 302.083 170.458 301.813 170.527 301.509C170.554 301.339 170.545 301.166 170.503 301C170.461 300.834 170.386 300.678 170.282 300.541C170.178 300.405 170.047 300.291 169.898 300.207C169.749 300.122 169.584 300.069 169.413 300.05C167.552 299.757 165.667 299.636 163.783 299.689C163.379 298.058 162.855 296.459 162.214 294.905C161.775 293.698 161.351 292.568 161.038 291.455C160.897 290.906 160.912 290.702 160.944 290.639C160.975 290.576 161.21 290.31 162.873 290.388H164.112C164.172 290.442 164.241 290.485 164.316 290.513C166.988 291.642 169.13 293.745 170.307 296.395C171.47 299.066 171.981 301.974 171.798 304.881C171.806 305.828 171.664 306.771 171.374 307.673C170.929 308.678 170.331 309.61 169.602 310.433L168.833 311.437L167.672 312.927L165.037 316.55C164.933 316.683 164.857 316.836 164.816 316.999C164.775 317.163 164.769 317.333 164.799 317.499C164.829 317.665 164.893 317.823 164.988 317.962C165.084 318.102 165.207 318.219 165.351 318.307C165.587 318.467 165.866 318.549 166.151 318.542C166.366 318.544 166.578 318.499 166.773 318.41C166.969 318.32 167.142 318.189 167.28 318.025L168.849 315.986C169.885 317.726 171.436 319.101 173.288 319.923C173.483 319.997 173.69 320.034 173.899 320.032C174.148 320.038 174.394 319.974 174.609 319.85C174.825 319.726 175.003 319.545 175.123 319.327C175.2 319.176 175.245 319.01 175.254 318.841C175.263 318.672 175.236 318.502 175.175 318.344C175.115 318.186 175.022 318.042 174.902 317.922C174.782 317.802 174.638 317.709 174.48 317.648C173.607 317.257 172.823 316.693 172.176 315.989C171.529 315.285 171.032 314.457 170.715 313.555L171.939 311.986L172.629 311.076C177.24 313.194 180.409 316.911 181.02 320.864V320.848ZM180.299 303.689C178.502 302.851 176.578 302.32 174.605 302.12C174.516 299.793 173.984 297.504 173.037 295.376C172.063 293.268 170.594 291.428 168.755 290.012C171.211 289.635 173.58 288.822 175.75 287.612C176.494 288.552 177.165 289.549 177.758 290.592V290.702C177.751 290.754 177.751 290.806 177.758 290.859C177.811 290.967 177.88 291.068 177.962 291.157C179.98 295.01 180.795 299.382 180.299 303.704V303.689Z" fill="#1D1D1B"/>
<path d="M126.814 27.4642C127.143 28.9386 128.586 29.864 129.951 30.6012L137.354 34.8674L144.349 38.8985C144.945 39.2278 145.698 39.5729 146.247 39.1651C146.796 38.7573 146.718 37.9574 146.577 37.3143C145.9 33.243 144.103 29.4408 141.385 26.3349C140.015 24.8078 138.252 23.687 136.287 23.095C134.323 22.5029 132.234 22.4626 130.249 22.9783C128.272 23.6841 126.39 25.4722 126.814 27.4642Z" fill="#8CBF93"/>
<path d="M116.964 52.4331C117.008 52.6463 117.116 52.8411 117.272 52.9922C117.429 53.1433 117.628 53.2436 117.842 53.2801C118.268 53.3506 118.703 53.3506 119.128 53.2801C120.494 53.1904 121.86 53.4449 123.101 54.0204C124.343 54.5959 125.42 55.4739 126.234 56.5739C127.018 57.6405 127.896 59.0835 129.198 58.8796C130.5 58.6757 130.767 57.4209 130.892 56.323C130.909 54.78 130.444 53.2702 129.56 52.0047C128.677 50.7392 127.421 49.7813 125.967 49.2648C124.498 48.8029 122.931 48.7547 121.437 49.1255C119.942 49.4962 118.579 50.2717 117.497 51.3666C117.338 51.4967 117.208 51.6591 117.116 51.8429C117.025 52.0267 116.973 52.2278 116.964 52.4331Z" fill="#8CBF93"/>
<path d="M124.304 40.9359L122.422 40.3085C122.885 38.9348 123.68 37.6966 124.736 36.7034C125.792 35.7103 127.077 34.9929 128.476 34.6149C129.435 34.3961 130.411 34.2596 131.394 34.2071L132.366 34.1287C133.473 34.0916 134.553 33.7731 135.503 33.2033C135.874 32.9779 136.174 32.6521 136.369 32.2636C136.563 31.8751 136.643 31.4397 136.601 31.0074L138.562 30.5996C138.683 31.417 138.568 32.2521 138.228 33.0057C137.889 33.7592 137.341 34.3994 136.648 34.8502C135.432 35.6044 134.046 36.0413 132.617 36.1207L131.597 36.1991C130.732 36.2384 129.871 36.3538 129.025 36.5442C127.941 36.839 126.945 37.3927 126.123 38.1578C125.301 38.9228 124.676 39.8762 124.304 40.9359Z" fill="#8CBF93"/>
<path d="M128.241 56.716L127.205 55.022C127.923 54.5493 128.474 53.8644 128.784 53.0631C129.093 52.2617 129.144 51.3838 128.931 50.5518C128.631 49.7099 128.208 48.9171 127.676 48.1991C127.394 47.7599 127.096 47.3207 126.845 46.8659C126.316 46.0932 126.017 45.1861 125.984 44.2503C125.95 43.3144 126.184 42.3884 126.656 41.5801L128.225 42.7251C127.996 43.2291 127.904 43.7849 127.959 44.3358C128.014 44.8868 128.214 45.4134 128.539 45.8621C128.774 46.2856 129.04 46.6777 129.291 47.0698C129.965 47.9474 130.495 48.927 130.86 49.9715C131.197 51.2281 131.125 52.5596 130.654 53.7725C130.183 54.9854 129.338 56.0165 128.241 56.716Z" fill="#8CBF93"/>
<path d="M145.557 52.262V70.2996H135.315V52.8423C135.315 52.1338 135.175 51.4322 134.904 50.7775C134.633 50.1229 134.236 49.5281 133.735 49.0271C133.234 48.5261 132.639 48.1286 131.984 47.8575C131.33 47.5863 130.628 47.4468 129.919 47.4468L100.589 47.98L99.9769 43.604L99.7103 41.659C99.7103 39.1024 99.6162 36.781 99.6162 34.7891L130.092 36.7968C132.123 36.7968 134.134 37.1967 136.01 37.9739C137.886 38.7511 139.591 39.8903 141.027 41.3264C142.464 42.7625 143.603 44.4674 144.38 46.3437C145.157 48.22 145.557 50.2311 145.557 52.262Z" fill="#F9DE96"/>
</g>
</svg>
