<svg width="449" height="90" viewBox="0 0 449 90" fill="none" xmlns="http://www.w3.org/2000/svg">
<mask id="mask0_202_104424" style="mask-type:alpha" maskUnits="userSpaceOnUse" x="14" y="31" width="29" height="59">
<path d="M35.7746 31.1855L35.5857 31.6765V33.8167L35.5361 35.3271L35.2837 35.7297L35.0212 36.1648L34.755 36.9932L34.5935 37.7872L34.3555 38.7981L33.9277 39.5786L33.5395 40.7272L32.9986 41.5147L32.7266 42.3009L32.3263 42.9298L31.8461 43.6525L31.6708 44.0363L31.3447 44.4631L30.6112 45.7544L30.0352 46.6398L29.4741 47.3685L28.6169 48.4856L28.1268 49.1153L27.0957 50.3336L25.8717 51.9226L25.2645 52.7851L24.5052 53.6098L23.8284 54.8507L23.1205 55.6984L22.141 56.8043L21.6745 57.8278L20.9526 58.7527L19.8798 60.0262L19.3967 61.1789L18.6088 62.1909L18.3591 62.8107L18.0028 63.483L17.2326 64.4925L16.8338 65.8339L16.2875 67.2209L15.5973 68.5063L15.4133 70.1408L14.8964 71.0402V72.5432L14.7943 74.0943L14.7422 75.8011L14.927 76.4409V77.117L15.0602 77.4643L15.1028 77.8268L15.3321 78.4842L15.4133 78.8411L15.5008 79.2582V79.7352L15.7792 80.2506L16.2096 81.2087L16.2875 81.8064L16.7562 82.4639L16.9916 83.156L17.4564 83.8848L18.0028 84.6029L18.5341 85.4964L18.9755 86.2468L19.6127 87.1722L20.2916 87.706L20.7889 88.4636L21.4338 89.27L21.857 89.7793L22.2115 89.9994L22.5521 89.9108L22.3361 89.3102V88.0728L22.2115 86.8989L21.8885 86.123V85.0199V83.0985L22.2115 82.1361L22.6871 80.986L22.9479 79.9495L23.2648 79.1957L23.5892 78.072L24.1691 77.2607L24.587 76.3179L25.2294 75.1063L26.0015 74.0943L26.6355 73.2494L27.1954 72.4323L27.9281 71.2775L28.8866 70.3922L29.2612 69.5644L30.0964 68.5717L30.5542 67.4659L31.2839 66.8151L32.0878 65.9561L32.864 64.8723L33.2847 64.2661L33.9769 63.3273L34.8013 62.2353L35.4089 61.2732L36.2775 60.288L36.9617 59.242L37.5054 58.4446L37.84 57.8972L38.4217 56.9477L39.1274 55.9382L39.8195 54.8179L40.2822 53.5207L41.0509 52.1373L41.3444 51.0907L41.7936 50.2187L42.1503 49.0357L42.2128 47.8925L42.4654 46.7288V45.1248V42.6865L42.3873 41.7858L41.9398 40.7888L41.6577 39.5786L41.2939 38.5368L40.7094 37.475L40.4498 36.5021L39.5413 35.5355L38.7372 34.1525L38.1097 33.3866L37.3891 32.6119L36.8283 31.8715L36.4199 31.3933L35.9879 31.3275L35.7746 31.1855Z" fill="#2FABC0"/>
</mask>
<g mask="url(#mask0_202_104424)">
<path d="M35.7746 31.1855L35.5857 31.6765V33.8167L35.5361 35.3271L35.2837 35.7297L35.0212 36.1648L34.755 36.9932L34.5935 37.7872L34.3555 38.7981L33.9277 39.5786L33.5395 40.7272L32.9986 41.5147L32.7266 42.3009L32.3263 42.9298L31.8461 43.6525L31.6708 44.0363L31.3447 44.4631L30.6112 45.7544L30.0352 46.6398L29.4741 47.3685L28.6169 48.4856L28.1268 49.1153L27.0957 50.3336L25.8717 51.9226L25.2645 52.7851L24.5052 53.6098L23.8284 54.8507L23.1205 55.6984L22.141 56.8043L21.6745 57.8278L20.9526 58.7527L19.8798 60.0262L19.3967 61.1789L18.6088 62.1909L18.3591 62.8107L18.0028 63.483L17.2326 64.4925L16.8338 65.8339L16.2875 67.2209L15.5973 68.5063L15.4133 70.1408L14.8964 71.0402V72.5432L14.7943 74.0943L14.7422 75.8011L14.927 76.4409V77.117L15.0602 77.4643L15.1028 77.8268L15.3321 78.4842L15.4133 78.8411L15.5008 79.2582V79.7352L15.7792 80.2506L16.2096 81.2087L16.2875 81.8064L16.7562 82.4639L16.9916 83.156L17.4564 83.8848L18.0028 84.6029L18.5341 85.4964L18.9755 86.2468L19.6127 87.1722L20.2916 87.706L20.7889 88.4636L21.4338 89.27L21.857 89.7793L22.2115 89.9994L22.5521 89.9108L22.3361 89.3102V88.0728L22.2115 86.8989L21.8885 86.123V85.0199V83.0985L22.2115 82.1361L22.6871 80.986L22.9479 79.9495L23.2648 79.1957L23.5892 78.072L24.1691 77.2607L24.587 76.3179L25.2294 75.1063L26.0015 74.0943L26.6355 73.2494L27.1954 72.4323L27.9281 71.2775L28.8866 70.3922L29.2612 69.5644L30.0964 68.5717L30.5542 67.4659L31.2839 66.8151L32.0878 65.9561L32.864 64.8723L33.2847 64.2661L33.9769 63.3273L34.8013 62.2353L35.4089 61.2732L36.2775 60.288L36.9617 59.242L37.5054 58.4446L37.84 57.8972L38.4217 56.9477L39.1274 55.9382L39.8195 54.8179L40.2822 53.5207L41.0509 52.1373L41.3444 51.0907L41.7936 50.2187L42.1503 49.0357L42.2128 47.8925L42.4654 46.7288V45.1248V42.6865L42.3873 41.7858L41.9398 40.7888L41.6577 39.5786L41.2939 38.5368L40.7094 37.475L40.4498 36.5021L39.5413 35.5355L38.7372 34.1525L38.1097 33.3866L37.3891 32.6119L36.8283 31.8715L36.4199 31.3933L35.9879 31.3275L35.7746 31.1855Z" fill="#2FABC0"/>
</g>
<mask id="mask1_202_104424" style="mask-type:alpha" maskUnits="userSpaceOnUse" x="0" y="0" width="31" height="68">
<path d="M22.7176 0L22.2258 5.4977L21.1706 9.3546L18.3827 15.916L14.5856 21.824L8.66251 28.9546L3.39445 35.8986L2.85284 37.3912L2.16746 38.585L1.59982 39.5832L1.07796 40.5356L0.872732 41.3146L0.601651 42.6593L0.248417 44.2432L0.146193 45.2722V47.2795L0.0424805 49.1644V50.2727V51.2445L0.374051 52.2052L0.601651 53.3286L0.872732 54.0199L1.3095 54.9308L1.5485 55.7986L1.93723 56.7898L2.16746 57.4792L2.67953 58.4971L3.06387 59.4177L3.56142 60.4694L3.96738 61.3707L4.28062 62.0629L4.97105 62.7859L5.39768 63.5976L5.83856 64.3979L6.39822 65.297L7.23571 66.3766L7.59015 67.2865L7.69878 67.4843H8.14759L7.9355 66.3766L7.82481 64.5425V63.0121V59.7154L8.14759 58.0732L8.66251 56.0902L9.19028 54.3593L9.79931 52.8348L10.2647 51.8242L10.7109 51.0275L11.2474 50.2727L11.7618 49.1644L12.428 48.3041L13.1016 47.2795L13.8519 46.2499L15.3053 44.6304L16.2179 43.266L17.2117 41.9316L20.0957 38.585L21.5801 36.6254L22.8525 35.1973L23.5239 34.3962L23.882 33.7421L25.0712 32.155L26.0024 30.8237L26.6802 29.6985L27.1736 28.9546L27.4533 28.2201L27.832 27.4017L28.646 25.6639L28.824 25.1237L29.2501 23.991L29.3906 23.3665L29.4386 22.823L29.6782 22.1209L29.7844 21.4465L29.917 20.7769L30.1544 18.9774V18.0926V16.5605L30.0537 16.0292L29.9712 14.9301L29.7844 13.8951L29.5206 12.4729L29.1003 11.1484L28.7414 9.99773L28.3346 8.70226L27.8866 7.72396L27.3825 6.90755L26.6218 5.33417L25.966 4.26355L25.2749 3.29431L24.8698 2.33862L24.083 1.49365L23.6178 0.496393L23.3011 0.151748L23.1963 0.0337072L22.7176 0Z" fill="#2FABC0"/>
</mask>
<g mask="url(#mask1_202_104424)">
<path d="M22.7176 0L22.2258 5.4977L21.1706 9.3546L18.3827 15.916L14.5856 21.824L8.66251 28.9546L3.39445 35.8986L2.85284 37.3912L2.16746 38.585L1.59982 39.5832L1.07796 40.5356L0.872732 41.3146L0.601651 42.6593L0.248417 44.2432L0.146193 45.2722V47.2795L0.0424805 49.1644V50.2727V51.2445L0.374051 52.2052L0.601651 53.3286L0.872732 54.0199L1.3095 54.9308L1.5485 55.7986L1.93723 56.7898L2.16746 57.4792L2.67953 58.4971L3.06387 59.4177L3.56142 60.4694L3.96738 61.3707L4.28062 62.0629L4.97105 62.7859L5.39768 63.5976L5.83856 64.3979L6.39822 65.297L7.23571 66.3766L7.59015 67.2865L7.69878 67.4843H8.14759L7.9355 66.3766L7.82481 64.5425V63.0121V59.7154L8.14759 58.0732L8.66251 56.0902L9.19028 54.3593L9.79931 52.8348L10.2647 51.8242L10.7109 51.0275L11.2474 50.2727L11.7618 49.1644L12.428 48.3041L13.1016 47.2795L13.8519 46.2499L15.3053 44.6304L16.2179 43.266L17.2117 41.9316L20.0957 38.585L21.5801 36.6254L22.8525 35.1973L23.5239 34.3962L23.882 33.7421L25.0712 32.155L26.0024 30.8237L26.6802 29.6985L27.1736 28.9546L27.4533 28.2201L27.832 27.4017L28.646 25.6639L28.824 25.1237L29.2501 23.991L29.3906 23.3665L29.4386 22.823L29.6782 22.1209L29.7844 21.4465L29.917 20.7769L30.1544 18.9774V18.0926V16.5605L30.0537 16.0292L29.9712 14.9301L29.7844 13.8951L29.5206 12.4729L29.1003 11.1484L28.7414 9.99773L28.3346 8.70226L27.8866 7.72396L27.3825 6.90755L26.6218 5.33417L25.966 4.26355L25.2749 3.29431L24.8698 2.33862L24.083 1.49365L23.6178 0.496393L23.3011 0.151748L23.1963 0.0337072L22.7176 0Z" fill="#2FABC0"/>
</g>
<path d="M78.2181 35.4976V65.519H72.9389V35.4976H64.8955V30.5357H86.239V35.4976H78.2181ZM90.6748 47.8686C90.6748 42.9445 92.4798 38.7151 96.09 35.1805C99.6849 31.6459 104.005 29.8786 109.05 29.8786C114.035 29.8786 118.309 31.661 121.874 35.2258C125.454 38.7906 127.244 43.0728 127.244 48.0726C127.244 53.1026 125.447 57.3697 121.852 60.8741C118.241 64.3937 113.884 66.1533 108.778 66.1533C104.262 66.1533 100.206 64.5899 96.611 61.4632C92.6535 58.0042 90.6748 53.4727 90.6748 47.8686ZM95.9993 47.9367C95.9993 51.8036 97.2983 54.9832 99.8964 57.4756C102.479 59.9678 105.463 61.214 108.846 61.214C112.517 61.214 115.613 59.9452 118.136 57.4075C120.658 54.8397 121.92 51.7129 121.92 48.0273C121.92 44.2963 120.673 41.1697 118.181 38.6471C115.704 36.1094 112.637 34.8406 108.982 34.8406C105.342 34.8406 102.268 36.1094 99.7605 38.6471C97.253 41.1545 95.9993 44.2511 95.9993 47.9367ZM148.311 50.6102L159.14 65.519H152.683L142.692 51.1994H141.74V65.519H136.461V30.5357H142.646C147.269 30.5357 150.607 31.4042 152.66 33.1413C154.926 35.0747 156.059 37.6275 156.059 40.7996C156.059 43.2768 155.35 45.4066 153.93 47.189C152.51 48.9713 150.637 50.1118 148.311 50.6102ZM141.74 46.5998H143.416C148.417 46.5998 150.917 44.6891 150.917 40.8675C150.917 37.2876 148.484 35.4976 143.62 35.4976H141.74V46.5998ZM192.035 32.4163V38.6697C188.984 36.1169 185.827 34.8406 182.564 34.8406C178.969 34.8406 175.941 36.1321 173.479 38.7151C171.001 41.2828 169.763 44.4247 169.763 48.1406C169.763 51.8111 171.001 54.9076 173.479 57.4302C175.956 59.9528 178.992 61.214 182.586 61.214C184.445 61.214 186.023 60.9119 187.321 60.3077C188.047 60.0056 188.798 59.5977 189.577 59.0841C190.355 58.5707 191.174 57.9514 192.035 57.2262V63.5931C189.013 65.3 185.842 66.1533 182.518 66.1533C177.519 66.1533 173.251 64.4087 169.717 60.9195C166.197 57.4 164.437 53.1554 164.437 48.1859C164.437 43.7299 165.91 39.7573 168.856 36.268C172.481 31.9932 177.171 29.8559 182.926 29.8559C186.068 29.8559 189.104 30.7094 192.035 32.4163ZM207.528 44.2209H222.617V30.5357H227.896V65.519H222.617V49.1828H207.528V65.519H202.248V30.5357H207.528V44.2209ZM281.608 32.4163V38.6697C278.557 36.1169 275.4 34.8406 272.136 34.8406C268.542 34.8406 265.512 36.1321 263.051 38.7151C260.574 41.2828 259.336 44.4247 259.336 48.1406C259.336 51.8111 260.574 54.9076 263.051 57.4302C265.529 59.9528 268.564 61.214 272.159 61.214C274.018 61.214 275.596 60.9119 276.894 60.3077C277.62 60.0056 278.371 59.5977 279.149 59.0841C279.926 58.5707 280.747 57.9514 281.608 57.2262V63.5931C278.586 65.3 275.415 66.1533 272.091 66.1533C267.092 66.1533 262.824 64.4087 259.29 60.9195C255.77 57.4 254.01 53.1554 254.01 48.1859C254.01 43.7299 255.483 39.7573 258.429 36.268C262.054 31.9932 266.744 29.8559 272.499 29.8559C275.641 29.8559 278.677 30.7094 281.608 32.4163ZM312.236 57.0223H297.259L293.362 65.519H287.675L304.986 28.3379L321.683 65.519H315.906L312.236 57.0223ZM310.084 52.0603L304.895 40.1651L299.456 52.0603H310.084ZM333.914 51.3127V65.519H328.635V30.5357H334.616C337.547 30.5357 339.759 30.7396 341.255 31.1475C342.766 31.5553 344.095 32.3256 345.243 33.4585C347.252 35.4221 348.256 37.8993 348.256 40.8901C348.256 44.0924 347.184 46.63 345.038 48.5031C342.894 50.3762 340.001 51.3127 336.361 51.3127H333.914ZM333.914 46.4186H335.885C340.734 46.4186 343.158 44.5532 343.158 40.8222C343.158 37.2121 340.658 35.4071 335.659 35.4071H333.914V46.4186ZM361.551 30.5357V65.519H356.271V30.5357H361.551ZM382.187 35.4976V65.519H376.908V35.4976H368.865V30.5357H390.208V35.4976H382.187ZM416.146 57.0223H401.169L397.271 65.519H391.585L408.896 28.3379L425.595 65.519H419.816L416.146 57.0223ZM413.993 52.0603L408.805 40.1651L403.367 52.0603H413.993ZM437.824 30.5357V60.5569H448.11V65.519H432.544V30.5357H437.824Z" fill="#2FABC0"/>
</svg>
