<svg width="325" height="88" viewBox="0 0 325 88" fill="none" xmlns="http://www.w3.org/2000/svg">
<path d="M221.929 21.7869C221.914 21.1639 222.022 20.5442 222.246 19.9639C222.469 19.3835 222.804 18.8544 223.231 18.4073C223.659 17.9601 224.169 17.6041 224.734 17.3599C225.298 17.1159 225.905 16.9885 226.519 16.9855C227.149 16.9625 227.778 17.0689 228.367 17.2982C228.957 17.5274 229.495 17.875 229.948 18.3199C230.403 18.7649 230.765 19.2983 231.011 19.8882C231.257 20.478 231.385 21.1123 231.385 21.7532C231.385 22.3941 231.257 23.0285 231.011 23.6183C230.765 24.2082 230.403 24.7415 229.948 25.1865C229.495 25.6316 228.957 25.9791 228.367 26.2082C227.778 26.4376 227.149 26.5438 226.519 26.5209C225.91 26.5193 225.309 26.3955 224.747 26.1561C224.187 25.9167 223.678 25.5667 223.252 25.1264C222.825 24.6862 222.488 24.1643 222.262 23.591C222.035 23.0178 221.922 22.4045 221.929 21.7869Z" fill="#2FABC0"/>
<path d="M113.87 17.0997C113.87 15.6764 114.555 14.8945 115.5 14.8945H154.258C154.474 14.8945 154.688 14.938 154.886 15.0223C155.085 15.1067 155.266 15.2302 155.417 15.3859C155.569 15.5416 155.688 15.7262 155.769 15.9291C155.85 16.1321 155.891 16.3493 155.888 16.5684V21.4551C155.888 21.8943 155.716 22.3153 155.41 22.6258C155.104 22.9362 154.69 23.1106 154.258 23.1106H122.711V43.269H144.123C144.551 43.2827 144.959 43.4615 145.26 43.7692C145.564 44.0765 145.74 44.4897 145.753 44.9244V49.7195C145.74 50.1544 145.564 50.5674 145.26 50.875C144.959 51.1823 144.551 51.3613 144.123 51.3751H122.711V71.5456C122.696 71.9799 122.52 72.3923 122.217 72.6993C121.915 73.0066 121.509 73.1858 121.081 73.2013H115.5C115.149 73.2109 114.803 73.1095 114.512 72.9115C114.22 72.7135 113.995 72.4285 113.87 72.0955V17.0997Z" fill="#2FABC0"/>
<path d="M171.604 31.2324C181.907 31.2324 189.72 38.9963 189.72 49.717C189.72 50.4134 189.63 51.8123 189.546 52.5085C189.512 52.9745 189.307 53.4107 188.974 53.7326C188.64 54.0545 188.202 54.2389 187.741 54.2497H160.363C160.447 59.6558 165.253 65.2451 172.205 65.2451C176.759 65.2451 179.501 63.5897 181.907 61.8486C182.766 61.2379 183.537 60.9751 184.223 62.0197L186.545 65.6849C187.23 66.5584 187.573 67.3402 186.37 68.3848C183.537 70.9384 178.298 73.3817 171.688 73.3817C159.658 73.3817 151.84 63.7911 151.84 52.2827C151.863 40.9268 159.67 31.2324 171.604 31.2324ZM181.227 47.7989C181.053 42.9121 177.276 38.6361 171.442 38.6361C165.174 38.6361 161.397 42.7288 160.795 47.7989H181.227Z" fill="#2FABC0"/>
<path d="M222.212 34.0334C222.23 33.5315 222.433 33.0548 222.783 32.6993C223.131 32.3435 223.601 32.135 224.094 32.1152H228.906C229.396 32.1495 229.856 32.3627 230.204 32.715C230.551 33.0678 230.76 33.5361 230.794 34.0334V70.4771C230.775 70.9798 230.57 71.4564 230.22 71.8119C229.87 72.1673 229.401 72.3759 228.906 72.3953H224.094C223.595 72.3907 223.119 72.1868 222.766 71.828C222.414 71.469 222.215 70.9841 222.212 70.4771V34.0334Z" fill="#2FABC0"/>
<path d="M258.948 31.2324C265.132 31.2324 269.679 33.5903 273.384 38.2083C273.554 38.4175 273.68 38.6594 273.756 38.9194C273.831 39.1795 273.854 39.4525 273.821 39.7219C273.789 39.9909 273.703 40.2506 273.569 40.4851C273.435 40.7195 273.255 40.9238 273.041 41.0856L269.937 43.9749C268.819 45.0195 268.049 44.2375 267.364 43.5413C265.558 41.5376 262.384 39.5279 259.208 39.5279C252.424 39.5279 247.178 45.111 247.178 52.2583C247.178 59.4053 252.327 65.0863 258.936 65.0863C264.086 65.0863 266.154 62.1235 268.295 60.1138C268.452 59.9155 268.649 59.7524 268.871 59.6354C269.094 59.5184 269.338 59.4495 269.588 59.4333C269.837 59.4174 270.089 59.4541 270.323 59.5418C270.559 59.6295 270.774 59.7661 270.954 59.9427L273.613 62.1235C274.558 62.9911 274.991 63.9561 274.304 65.0008C272.637 67.6083 270.348 69.7446 267.647 71.2102C264.948 72.6759 261.926 73.4228 258.864 73.3817C247.791 73.3817 238.608 64.4877 238.608 52.3682C238.608 40.487 247.96 31.2324 258.948 31.2324Z" fill="#2FABC0"/>
<path d="M281.611 34.0334C281.631 33.5309 281.836 33.0546 282.186 32.6987C282.535 32.3432 283.005 32.135 283.501 32.1152H288.312C288.802 32.1495 289.263 32.3627 289.61 32.715C289.956 33.0678 290.166 33.5361 290.2 34.0334V70.4771C290.181 70.9798 289.975 71.4564 289.626 71.8119C289.275 72.1673 288.807 72.3759 288.312 72.3953H283.501C283.001 72.3907 282.523 72.1868 282.17 71.8282C281.817 71.4697 281.616 70.9844 281.611 70.4771V34.0334Z" fill="#2FABC0"/>
<path d="M297.785 69.258C297.436 69.0587 297.17 68.7346 297.043 68.3486C296.916 67.9628 296.933 67.5421 297.093 67.169L298.898 63.4182C299.331 62.5447 300.443 62.2821 301.472 62.8927C303.795 64.2 306.627 65.8555 311.347 65.8555C314.692 65.8555 316.579 64.2 316.579 61.9336C316.579 59.2337 313.574 57.4867 308.082 54.9579C301.989 52.1723 297.352 48.8492 297.352 42.2335C297.352 37.1757 300.87 31.2383 310.488 31.2383C315.98 31.2383 320.11 32.8997 322.078 34.2069C322.544 34.5155 322.89 34.984 323.045 35.5277C323.202 36.0711 323.162 36.6535 322.934 37.1694L321.562 39.9611C321.447 40.1881 321.287 40.3896 321.095 40.5527C320.904 40.7161 320.678 40.8378 320.437 40.911C320.196 40.9838 319.946 41.0067 319.696 40.978C319.446 40.9489 319.205 40.8693 318.986 40.7429C316.326 39.465 313.429 38.7818 310.488 38.7396C307.053 38.7396 305.422 40.4804 305.422 42.313C305.422 44.9274 308.256 46.4975 312.203 48.2383C319.498 51.3782 324.997 54.0843 324.997 61.5794C324.997 67.8835 319.671 73.3813 310.837 73.3813C306.176 73.3813 301.624 71.9431 297.785 69.258Z" fill="#2FABC0"/>
<path d="M281.245 21.7869C281.23 21.1639 281.337 20.5442 281.56 19.9639C281.785 19.3835 282.12 18.8544 282.547 18.4073C282.974 17.9601 283.485 17.6041 284.05 17.3599C284.614 17.1159 285.221 16.9885 285.834 16.9855C286.465 16.9625 287.094 17.0689 287.683 17.2982C288.272 17.5274 288.811 17.875 289.264 18.3199C289.718 18.7649 290.079 19.2983 290.326 19.8882C290.573 20.478 290.7 21.1123 290.7 21.7532C290.7 22.3941 290.573 23.0285 290.326 23.6183C290.079 24.2082 289.718 24.7415 289.264 25.1865C288.811 25.6316 288.272 25.9791 287.683 26.2082C287.094 26.4376 286.465 26.5438 285.834 26.5209C285.226 26.5193 284.624 26.3955 284.063 26.1561C283.503 25.9167 282.994 25.5667 282.568 25.1264C282.141 24.6862 281.804 24.1643 281.577 23.591C281.351 23.0178 281.237 22.4045 281.245 21.7869Z" fill="#2FABC0"/>
<path d="M214.044 71.3878C214.044 71.6592 213.988 71.9276 213.881 72.1763C213.773 72.425 213.616 72.6483 213.42 72.832C213.222 73.0156 212.991 73.1561 212.737 73.2438C212.484 73.3318 212.216 73.3652 211.95 73.3424C206.714 72.866 202.754 70.5324 200.071 66.3421C198.207 63.3854 197.274 59.1256 197.274 53.563V20.9918C197.274 20.7352 197.325 20.4809 197.421 20.2438C197.518 20.0066 197.66 19.7911 197.838 19.6096C198.018 19.428 198.229 19.2842 198.463 19.1859C198.696 19.0876 198.946 19.0371 199.199 19.0371H203.909C204.162 19.0371 204.411 19.0876 204.645 19.1859C204.878 19.2842 205.091 19.428 205.269 19.6096C205.448 19.7911 205.59 20.0066 205.688 20.2438C205.784 20.4809 205.834 20.7352 205.834 20.9918V53.563C205.834 57.3501 206.347 60.0727 207.373 61.7301C208.388 63.4608 210.045 64.4789 212.348 64.7844C212.812 64.8434 213.24 65.0714 213.552 65.4262C213.864 65.7811 214.038 66.2389 214.044 66.7146V71.3878Z" fill="#2FABC0"/>
<path d="M79.4122 49.8192C74.4262 51.9144 67.6175 51.2975 46.6445 42.4887C55.3297 21.1882 59.7143 15.8615 64.6884 13.7784C69.6626 11.6954 76.1164 13.4852 78.931 20.3941C79.7267 22.1802 80.2481 24.0797 80.477 26.0261C80.5218 26.7226 80.6762 27.4074 80.9342 28.0542C81.2044 28.6966 81.5716 29.2923 82.0227 29.8195C83.222 31.3543 84.1833 33.0662 84.8736 34.8957C87.6944 41.8169 84.3924 47.724 79.4122 49.8192Z" fill="#2FABC0"/>
<path d="M21.3233 74.2535C26.3032 72.1582 30.6882 66.8315 39.3673 45.5429C18.4061 36.7283 11.5916 36.1175 6.61141 38.1821C1.6313 40.2467 -1.67075 46.1844 1.14409 53.0933C1.83689 54.9274 2.80467 56.6417 4.01308 58.1757C4.46624 58.7025 4.83558 59.2981 5.10776 59.9409C5.36013 60.5896 5.51426 61.2734 5.56486 61.9691C5.78753 63.9252 6.30479 65.8351 7.09856 67.6318C9.8954 74.5465 16.3372 76.3485 21.3233 74.2535Z" fill="#2FABC0"/>
<path d="M51.9605 86.5192C53.7662 85.811 55.4556 84.8285 56.9709 83.6055C57.488 83.1456 58.0724 82.7706 58.7032 82.4936C59.3419 82.2381 60.0153 82.0816 60.6997 82.0293C62.6229 81.8113 64.5013 81.2941 66.2696 80.496C73.0721 77.6311 74.8523 71.0889 72.7892 66.0248C70.7264 60.9609 65.4754 56.5138 44.5204 47.6992C35.8355 68.9938 35.222 75.9146 37.303 80.9726C39.3839 86.0307 45.1579 89.378 51.9605 86.5192Z" fill="#2FABC0"/>
<path d="M13.2205 21.9739C15.2835 27.0316 20.5342 31.4848 41.4893 40.2995C50.1925 19.0112 50.7998 12.0901 48.7368 7.03225C46.6737 1.97437 40.8577 -1.37924 34.0552 1.4796C32.2488 2.18649 30.5595 3.16899 29.0451 4.39339C28.5239 4.8508 27.9379 5.22563 27.3066 5.50516C26.6688 5.7629 25.9949 5.9175 25.3096 5.96325C23.3827 6.18336 21.5002 6.7025 19.7283 7.50265C12.9377 10.3676 11.1573 16.9099 13.2205 21.9739Z" fill="#2FABC0"/>
</svg>
