<svg width="69" height="54" viewBox="0 0 69 54" fill="none" xmlns="http://www.w3.org/2000/svg">
<path d="M67.7883 11.1895C67.3116 9.18061 66.4066 7.29844 65.1351 5.67176C63.5093 3.66871 61.4045 2.10813 59.0155 1.13442C56.6265 0.160712 54.0305 -0.19466 51.4677 0.101195C45.0304 1.02081 41.2039 6.20027 38.4028 10.9358C37.8848 11.8237 37.3458 12.7221 36.775 13.6312C35.1429 10.4192 34.2713 6.87489 34.2275 3.27229V0.745984C31.6167 2.07784 28.9423 3.26173 26.1729 4.3399C26.3813 9.98041 28.1127 15.4593 31.1833 20.1954C29.7095 21.333 28.0244 22.1666 26.2258 22.6477C21.3529 23.9478 15.1798 22.7957 11.5542 25.7236C10.8145 26.3113 10.2332 27.0743 9.86291 27.9434C7.66333 29.0957 5.73901 30.7101 4.22188 32.6758C2.70475 34.6416 1.63075 36.9122 1.07349 39.332C0.51624 41.7518 0.488908 44.2635 0.993429 46.6948C1.49795 49.1261 2.52236 51.4196 3.9964 53.4179H4.0704L10.5394 48.6612C9.63334 47.3831 9.05695 45.9009 8.86149 44.3464C8.66602 42.7919 8.85753 41.2132 9.41897 39.7505C9.98426 38.376 10.8813 37.1631 12.0299 36.22C12.756 37.0186 13.5519 37.7509 14.4082 38.408C23.4141 45.469 38.0434 46.7797 49.0365 42.319C60.0296 37.8584 67.1646 28.2605 68.2216 18.2927C68.5114 15.9183 68.3646 13.511 67.7883 11.1895Z" fill="#F9DE96"/>
<path d="M46.1933 37.087C46.56 36.8106 46.9904 36.6309 47.4448 36.5644C47.8992 36.4979 48.363 36.5467 48.7936 36.7065C48.5459 36.4785 48.2537 36.3044 47.9353 36.1952C47.6168 36.086 47.2792 36.0442 46.9438 36.0723C46.4364 36.0723 46.003 36.3788 45.5485 36.0723C45.2525 35.8609 45.02 35.6706 44.798 35.4909C45.2297 35.3165 45.6323 35.0777 45.9924 34.7827C46.2711 34.3619 46.4251 33.8708 46.4364 33.3663C46.4364 33.2711 46.8592 31.4636 47.0706 31.7173C46.8698 31.3368 45.8444 33.3874 45.8022 33.4826C45.6687 33.7564 45.4819 34.0008 45.2525 34.2013C45.3688 34.0745 45.168 34.2013 45.094 34.2013C44.7451 34.2753 44.3752 34.3282 44.0369 34.4127C44.1876 33.9152 44.2972 33.4061 44.3646 32.8906C44.3646 31.6856 43.4344 30.692 43.8149 29.4658C43.2653 30.3326 43.5402 31.1888 43.5402 32.1401C43.5172 32.6804 43.329 33.2006 43.0011 33.6305C42.8925 33.8121 42.8005 34.0032 42.7262 34.2013C42.0074 33.0915 42.2294 31.4213 41.1301 30.6074C41.9229 31.6645 41.257 33.102 41.5424 34.3282C40.8778 34.4255 40.1995 34.3602 39.5657 34.1379C38.7729 33.768 38.6989 32.6264 37.8216 32.4255C38.2655 32.6581 38.3713 33.1126 38.5193 33.546C38.6095 33.8635 38.7679 34.1574 38.9833 34.4075C39.1987 34.6576 39.466 34.8578 39.7665 34.9941C40.2619 35.2119 40.7847 35.3613 41.3204 35.438C40.9795 35.696 40.658 35.9787 40.3585 36.2837C40.1276 36.5805 39.8251 36.8138 39.4793 36.9618C39.1336 37.1097 38.756 37.1673 38.3818 37.1293L37.0288 36.9602C38.181 37.4147 39.2275 37.9644 40.4219 37.3301C40.7496 37.161 41.0561 36.9707 41.3627 36.8016C41.0913 37.4797 40.9101 38.1905 40.8236 38.9157C40.5699 39.9727 39.8299 39.8565 39.0583 40.3427C40.0308 40.015 40.7707 40.3427 41.3521 39.2328C41.597 38.5822 41.9275 37.9672 42.3351 37.4041L42.5888 37.2667C42.5665 37.4279 42.5312 37.587 42.4831 37.7424C42.092 39.18 42.9376 40.4061 43.2442 41.7485C43.2442 40.4907 42.8636 39.2434 43.4873 38.0701V38.1335C43.533 38.0761 43.5754 38.0161 43.6141 37.9538C43.6826 38.0915 43.764 38.2225 43.8573 38.3449C44.0647 38.5512 44.3128 38.7123 44.5857 38.8178C44.8586 38.9233 45.1505 38.9711 45.4428 38.958C45.6497 38.9851 45.8482 39.0572 46.0242 39.1694C46.1947 39.4734 46.3465 39.7876 46.4787 40.1101C46.4258 39.6768 46.4787 39.0531 46.077 38.736C45.6822 38.4212 45.2398 38.1714 44.7663 37.9961C44.6275 37.6114 44.5422 37.2095 44.5126 36.8016C45.0291 37.0704 45.617 37.1702 46.1933 37.087Z" fill="#634E42"/>
<path d="M42.9059 45.8392C41.0014 45.8392 39.1396 45.2744 37.556 44.2163C35.9725 43.1582 34.7382 41.6543 34.0094 39.8947C33.2806 38.1351 33.0898 36.199 33.4614 34.331C33.833 32.4631 34.7501 30.7472 36.0968 29.4005C37.4435 28.0538 39.1593 27.1367 41.0273 26.7651C42.8952 26.3935 44.8314 26.5843 46.591 27.3131C48.3506 28.0419 49.8545 29.2762 50.9126 30.8597C51.9707 32.4433 52.5355 34.3051 52.5355 36.2096C52.5327 38.7627 51.5173 41.2104 49.712 43.0157C47.9067 44.821 45.459 45.8364 42.9059 45.8392ZM42.9059 28.5145C41.3835 28.5124 39.8947 28.9619 38.6278 29.8062C37.361 30.6505 36.373 31.8516 35.7889 33.2575C35.2049 34.6634 35.051 36.211 35.3467 37.7044C35.6425 39.1978 36.3745 40.57 37.4503 41.6472C38.5261 42.7245 39.8972 43.4584 41.3902 43.7562C42.8832 44.054 44.431 43.9022 45.8377 43.3201C47.2444 42.738 48.4469 41.7517 49.2929 40.486C50.139 39.2203 50.5905 37.7321 50.5905 36.2096C50.5878 34.1714 49.7776 32.2174 48.3373 30.7751C46.8971 29.3329 44.9441 28.52 42.9059 28.5145Z" fill="#DF8676"/>
<path opacity="0.5" d="M42.9061 50.078C40.1607 50.078 37.477 49.2637 35.1944 47.7382C32.9118 46.2127 31.1329 44.0445 30.0828 41.5079C29.0327 38.9713 28.7584 36.1801 29.2948 33.4876C29.8312 30.7951 31.154 28.3221 33.0961 26.3816C35.0381 24.441 37.5121 23.12 40.2051 22.5857C42.898 22.0514 45.6888 22.3277 48.2247 23.3798C50.7605 24.4319 52.9274 26.2124 54.4511 28.4962C55.9749 30.7799 56.7871 33.4643 56.785 36.2097C56.7794 39.8879 55.315 43.4137 52.7132 46.0136C50.1113 48.6135 46.5844 50.0752 42.9061 50.078ZM42.9061 24.2653C40.5433 24.2632 38.233 24.9619 36.2673 26.2731C34.3017 27.5843 32.769 29.449 31.8634 31.6314C30.9577 33.8138 30.7197 36.2158 31.1794 38.5335C31.6391 40.8512 32.7758 42.9804 34.4458 44.652C36.1159 46.3235 38.2442 47.4621 40.5614 47.9239C42.8787 48.3856 45.2809 48.1497 47.4641 47.246C49.6473 46.3422 51.5134 44.8113 52.8263 42.8468C54.1393 40.8823 54.8401 38.5725 54.8401 36.2097C54.8373 33.0445 53.5794 30.0096 51.3423 27.7705C49.1051 25.5314 46.0713 24.2709 42.9061 24.2653Z" fill="#DF8676"/>
</svg>
