<svg width="169" height="311" viewBox="0 0 169 311" fill="none" xmlns="http://www.w3.org/2000/svg">
<path d="M116.284 98.459C116.237 98.4642 116.191 98.4312 116.154 98.3654C116.127 98.3249 116.103 98.2716 116.085 98.2086C116.067 98.1456 116.054 98.0743 116.047 97.9988C116.04 97.9234 116.04 97.8454 116.046 97.7696C116.052 97.6937 116.064 97.6216 116.081 97.5575L116.476 96.0822C116.512 95.9539 116.566 95.8647 116.628 95.834C116.691 95.8033 116.755 95.8336 116.808 95.9183C116.835 95.9588 116.859 96.0121 116.877 96.0751C116.896 96.1381 116.908 96.2095 116.915 96.2849C116.922 96.3603 116.922 96.4383 116.916 96.5141C116.91 96.5899 116.898 96.6621 116.881 96.7262L116.486 98.2015C116.463 98.2803 116.433 98.3448 116.398 98.3896C116.362 98.4344 116.323 98.4582 116.284 98.459Z" fill="white"/>
<path d="M71.9547 14.0641C71.8632 14.0706 71.7712 14.0586 71.6842 14.0288C71.5972 13.9989 71.5167 13.9517 71.4474 13.8899C71.3076 13.7651 71.2217 13.5884 71.2087 13.3986C71.1958 13.2088 71.2568 13.0215 71.3784 12.8779C71.5 12.7343 71.6722 12.6462 71.8571 12.6329L73.9207 12.318C74.0116 12.3018 74.1047 12.3046 74.1944 12.3263C74.2842 12.348 74.3688 12.3881 74.4431 12.4443C74.5174 12.5005 74.5798 12.5715 74.6266 12.6531C74.6734 12.7347 74.7036 12.8252 74.7154 12.9191C74.7293 13.0122 74.7251 13.1071 74.7032 13.1985C74.6812 13.2899 74.6419 13.3759 74.5875 13.4517C74.5331 13.5275 74.4647 13.5915 74.3862 13.6401C74.3076 13.6887 74.2205 13.7209 74.1299 13.7349L72.0662 14.0498L71.9547 14.0641Z" fill="white"/>
<path d="M93.4554 14.0596L91.8869 13.7665C91.7478 13.741 91.6218 13.6402 91.5364 13.4864C91.4509 13.3326 91.4131 13.1382 91.4312 12.9458C91.4389 12.8498 91.4606 12.757 91.495 12.6728C91.5293 12.5887 91.5756 12.515 91.631 12.4562C91.6864 12.3973 91.7498 12.3545 91.8174 12.3304C91.8851 12.3063 91.9556 12.3012 92.0247 12.3156L93.6038 12.5941C93.7438 12.6232 93.8698 12.7269 93.955 12.8831C94.0402 13.0393 94.0778 13.2354 94.0596 13.4294C94.0385 13.6229 93.9635 13.7973 93.8506 13.9151C93.7376 14.0329 93.5958 14.0848 93.4554 14.0596Z" fill="white"/>
<path d="M84.3938 76.4814L68.6096 76.9046L68.5504 80.605L31.6254 91.1058C25.5879 92.0899 12.2996 99.5103 11.7077 113.633L0.15567 189.854C-0.525022 218.069 1.03364 235.695 4.69359 258.665L15.9398 256.165C20.5468 225.332 23.7629 215.973 21.928 192.196C30.5303 182.7 33.115 159.72 35.1176 135.362L39.991 228.915L39.2214 251.274C36.2619 270.957 34.1607 291.388 33.1643 310.323H78.09C79.3823 298.119 80.2406 283.948 80.8818 272.217C82.0558 272.217 83.2198 272.295 84.4037 272.295C85.5875 272.295 86.7515 272.295 87.9254 272.217C88.5667 283.948 89.4249 298.119 90.7074 310.323H135.663C134.676 291.407 132.565 270.957 129.615 251.274L128.846 228.915L133.709 135.362C135.682 159.69 138.297 182.7 146.899 192.196C145.064 215.954 148.29 225.313 152.887 256.165L164.104 258.665C167.754 235.695 169.313 218.069 168.632 189.854L157.011 113.633C156.419 99.5103 143.14 92.0801 137.103 91.1058L100.178 80.605L100.109 76.9046L84.3938 76.4814Z" fill="#FFEAC8"/>
<path d="M21.0517 304.083C21.308 303.84 21.5144 303.549 21.6591 303.226C21.8038 302.903 21.8839 302.554 21.8948 302.2C21.9058 301.846 21.8474 301.493 21.7229 301.161C21.5984 300.83 21.4103 300.526 21.1695 300.268L19.4024 298.375C19.6207 297.886 19.6896 297.342 19.6004 296.812C19.5113 296.283 19.2681 295.792 18.9017 295.403L13.5907 289.715L13.0409 286.317L14.2681 279.212L16.2315 285.97C16.4587 286.711 16.9636 287.332 17.6385 287.702C18.3134 288.073 19.1049 288.162 19.8442 287.952H19.9031C20.6369 287.722 21.2528 287.213 21.6196 286.532C21.9864 285.85 22.075 285.052 21.8665 284.305L19.0195 274.248C18.8615 273.702 18.7951 273.132 18.8232 272.564L19.0294 267.946C19.1084 266.187 18.8722 264.429 18.3323 262.754L16.0744 255.818L4.92226 257.751V267.342C3.77367 274.407 4.79465 282.789 5.23642 285.772C5.33459 286.495 5.39347 287.209 5.52109 287.754C5.8745 289.101 6.79731 291.915 7.61213 294.343L7.80848 295.789C7.80475 295.822 7.80475 295.856 7.80848 295.888C7.80848 295.988 7.80844 296.097 7.88697 296.196C7.90733 296.283 7.93359 296.369 7.96553 296.453C7.96553 296.542 8.04406 296.622 8.08333 296.711L8.23061 296.988V297.077L8.72146 297.781C8.89817 298.296 9.01596 298.613 9.01596 298.613L16.3002 309.136C16.7618 309.756 17.4452 310.169 18.2045 310.288C18.9638 310.406 19.7389 310.221 20.3645 309.77C20.9786 309.304 21.3881 308.615 21.5055 307.848C21.6229 307.082 21.4389 306.3 20.9928 305.668L20.2565 304.677C20.5182 304.562 20.7575 304.401 20.9633 304.202L21.0517 304.083Z" fill="#F5E3C6"/>
<path d="M147.664 304.083C147.151 303.591 146.852 302.913 146.832 302.198C146.812 301.483 147.072 300.789 147.556 300.268L149.317 298.375C149.1 297.886 149.031 297.342 149.12 296.812C149.209 296.283 149.451 295.792 149.816 295.403L155.111 289.715L155.649 286.317L154.435 279.212L152.478 285.97C152.252 286.711 151.748 287.332 151.076 287.702C150.403 288.073 149.614 288.162 148.877 287.952C148.146 287.722 147.532 287.213 147.166 286.532C146.8 285.85 146.712 285.052 146.92 284.305L149.797 274.248C149.958 273.702 150.027 273.133 150.002 272.564L149.787 267.946C149.707 266.187 149.945 264.427 150.492 262.754L152.733 255.818L163.859 257.751V267.342C165.014 274.407 163.996 282.789 163.556 285.772C163.448 286.495 163.389 287.209 163.262 287.754C162.92 289.101 162 291.915 161.178 294.343L160.992 295.789C160.986 295.822 160.986 295.856 160.992 295.888C160.992 295.988 160.943 296.097 160.914 296.196C160.884 296.295 160.914 296.374 160.835 296.453L160.718 296.711C160.718 296.8 160.62 296.899 160.561 296.988V297.077L160.082 297.781C159.896 298.296 159.788 298.613 159.788 298.613L152.4 309.136C151.94 309.756 151.259 310.169 150.502 310.288C149.745 310.406 148.972 310.221 148.349 309.77C147.735 309.306 147.325 308.617 147.206 307.85C147.087 307.084 147.269 306.301 147.712 305.668L148.446 304.677C148.188 304.558 147.95 304.397 147.742 304.202L147.664 304.083Z" fill="#F5E3C6"/>
<path d="M99.5477 55.7744C109.759 47.3802 110.714 32.2273 109.45 20.3059C107.878 5.26134 93.7555 0.0395893 79.4941 0.000179818C56.9624 -0.0589344 53.4593 14.4733 52.9219 19.6162C52.7527 21.1335 51.9266 27.705 51.9266 27.705C51.7375 28.5918 50.9314 32.6312 52.4442 33.5672C52.7706 33.7298 53.0401 33.9859 53.2176 34.3022C53.3951 34.6185 53.4724 34.9803 53.4394 35.3406L51.0409 47.1635C50.9617 47.5566 50.9712 47.9621 51.0688 48.3511C51.1664 48.7401 51.3497 49.103 51.6055 49.4137C51.8614 49.7244 52.1834 49.9752 52.5486 50.1483C52.9138 50.3213 53.3131 50.4123 53.718 50.4147H55.7084C55.7084 50.4147 55.7084 52.1783 55.7084 55.1045C55.7084 56.3557 55.7084 57.8139 55.7682 59.4198L55.9374 60.6415L56.3255 63.3903L56.5146 64.7499L57.0321 68.4544C57.2683 69.4621 57.878 70.3452 58.7405 70.9291C59.603 71.5129 60.6555 71.7549 61.6897 71.6072L68.8353 71.3116L68.7358 76.4348L100.513 77.361L99.5477 55.7744Z" fill="#FFEAC8"/>
<path d="M72.4383 178.618C74.9097 176.357 76.8772 172.635 79.2226 170.267C81.3451 168.133 98.4318 164.684 105.555 159.812C105.856 159.616 106.091 159.333 106.23 159.001C106.37 158.669 106.407 158.303 106.337 157.949C106.267 157.596 106.093 157.271 105.838 157.018C105.583 156.765 105.258 156.594 104.906 156.528C94.904 153.859 82.5566 150.068 72.9229 151.316C66.8946 152.105 63.4249 149.698 57.416 150.487C54.5084 150.858 48.1893 152.875 45.621 159.257C44.1963 162.794 39.7284 167.744 44.0025 178.481C44.7363 180.637 44.991 182.929 44.7487 185.195C44.7614 185.688 44.8947 186.171 45.1368 186.601C45.3789 187.03 45.7223 187.394 46.137 187.658C46.5516 187.923 47.0246 188.081 47.5143 188.119C48.004 188.156 48.4955 188.072 48.9453 187.874C52.2599 186.568 55.4098 185.156 58.957 183.977C62.8531 182.72 67.6118 183.061 72.4383 178.618Z" fill="#96482B"/>
<path opacity="0.2" d="M52.3484 178.036C51.5759 179.791 50.421 181.35 48.9685 182.598C47.516 183.847 45.8029 184.753 43.9551 185.251C43.9809 185.741 44.1247 186.217 44.3742 186.639C44.6237 187.061 44.9715 187.417 45.3878 187.674C45.8041 187.932 46.2766 188.085 46.7648 188.12C47.253 188.155 47.7423 188.071 48.191 187.875C51.5444 186.558 54.7312 185.133 58.3199 183.944C62.3205 182.646 67.1447 182.961 72.0474 178.508C74.5477 176.228 76.5382 172.473 78.9111 170.084C81.0585 167.932 98.3452 164.452 105.552 159.537C105.81 159.371 106.021 159.141 106.164 158.87C106.307 158.598 106.379 158.294 106.371 157.987C106.363 157.68 106.276 157.38 106.119 157.116C105.962 156.852 105.74 156.633 105.474 156.48C86.265 162.054 61.7125 155.724 52.3484 178.036Z" fill="#1D1D1B"/>
<path d="M78.2398 181.293C77.1345 176.732 76.4275 172.088 76.1266 167.411C75.8475 166.681 74.2727 167.158 73.8042 167.528C73.9637 170.088 74.2527 172.648 74.6614 175.189C73.3956 174.266 71.9169 173.661 70.3554 173.427C70.2882 173.179 70.1694 172.947 70.0065 172.745C69.2248 172.092 68.3063 171.614 67.3153 171.344C65.6806 170.633 64.3748 169.338 62.6405 168.861C61.693 168.612 60.6939 168.62 59.7507 168.884C58.8075 169.148 57.956 169.659 57.2878 170.36C56.6909 171.047 56.335 171.903 56.2722 172.801C56.2094 173.7 56.4431 174.595 56.9389 175.354C57.5054 176.128 58.2807 176.732 59.1784 177.1C60.076 177.468 61.0607 177.585 62.0225 177.438C63.5375 177.204 64.8632 176.357 66.3783 176.153C67.3539 176.166 68.3256 176.031 69.2589 175.754C69.4302 175.678 69.5857 175.573 69.7174 175.442C71.2708 175.634 72.7169 176.318 73.8341 177.389C74.4335 177.969 74.9005 178.665 75.2046 179.434C75.5086 180.202 75.6429 181.025 75.5984 181.847L77.9308 181.974C77.9308 181.779 77.9308 181.585 77.9308 181.39L78.2398 181.293Z" fill="#A8A166"/>
<path d="M65.3793 186.823C63.5513 186.974 62.4777 188.838 61.849 190.479C60.8818 192.705 60.021 195.314 61.3074 197.369C62.3713 199.051 64.5572 199.706 66.5593 200.189C74.0744 201.992 82.0345 203.16 89.5206 201.106C92.5508 200.171 95.4987 198.968 98.3317 197.51C102.558 195.495 106.93 193.3 109.803 189.694C111.215 187.931 112.259 185.826 114.107 184.486C114.89 183.922 115.867 183.399 116.041 182.472C113.439 181.465 110.412 182.109 107.888 183.318C105.363 184.527 103.148 186.249 100.624 187.468C95.198 190.077 88.8532 190.137 82.7695 190.147C80.5417 190.198 78.313 190.107 76.0959 189.875C73.3917 189.542 70.7509 188.788 68.2616 187.639C67.3842 187.113 66.3914 186.832 65.3793 186.823Z" fill="#A8A166"/>
<path d="M113.803 169.222C113.381 167.63 112.602 166.154 111.524 164.906C110.056 163.307 108.229 162.079 106.191 161.322C104.154 160.565 101.965 160.301 99.8054 160.552C94.2876 161.272 91.0086 165.321 88.6113 169.024C88.1557 169.715 87.6901 170.416 87.2047 171.127C85.8132 168.651 85.0641 165.868 85.0253 163.03L84.7975 67.6904L78.3287 68.4705L78.0712 163.05C78.1258 167.775 79.6409 172.368 82.4101 176.203C81.1207 177.1 79.6768 177.753 78.1504 178.129C73.9799 179.116 68.6801 178.237 65.5696 180.528C64.9534 180.978 64.4569 181.571 64.1233 182.256C61.1207 183.684 58.7083 186.106 57.298 189.109C56.381 191.248 56.0645 193.595 56.382 195.9C56.6996 198.204 57.6393 200.38 59.1009 202.193H59.1603L64.7177 198.47C63.9429 197.504 63.4423 196.349 63.268 195.124C63.0938 193.9 63.2523 192.651 63.727 191.509C64.2273 190.413 64.9975 189.462 65.9659 188.744C66.5943 189.375 67.2771 189.95 68.0065 190.462C75.7234 195.982 88.2646 196.999 97.725 193.513C107.185 190.027 113.228 182.552 114.159 174.751C114.405 172.903 114.284 171.024 113.803 169.222Z" fill="#F9DE96"/>
<path opacity="0.1" d="M114.153 175.138C113.216 182.82 107.094 190.19 97.6125 193.636C88.1308 197.083 75.4986 196.07 67.7019 190.628C66.9678 190.123 66.2805 189.556 65.648 188.934C64.6734 189.642 63.8982 190.58 63.3947 191.66C62.9169 192.786 62.7574 194.017 62.9327 195.225C63.1081 196.432 63.612 197.571 64.3918 198.523L58.7985 202.194C58.0979 200.369 57.8652 198.404 58.1206 196.472C58.3761 194.539 59.112 192.696 60.2641 191.105C61.5088 189.38 63.3686 188.172 65.4785 187.717C68.2203 187.211 70.9721 188.32 73.6441 189.09C80.5624 191.042 87.9436 190.741 94.6713 188.233C101.151 185.795 106.542 181.203 109.896 175.265C110.671 173.549 111.677 171.941 112.887 170.485C113.169 170.187 113.475 169.914 113.804 169.667C114.287 171.451 114.406 173.31 114.153 175.138Z" fill="#1D1D1B"/>
<path d="M125.117 216.416C125.113 217.584 124.691 218.712 123.927 219.596C124.686 220.482 125.108 221.608 125.117 222.775C125.109 223.567 124.914 224.346 124.547 225.048C124.18 225.751 123.652 226.356 123.006 226.816L122.946 227.133C123.229 227.755 123.377 228.43 123.382 229.113C123.381 229.789 123.242 230.458 122.972 231.078C122.703 231.698 122.309 232.256 121.816 232.718L121.707 233.095C122.131 233.819 122.36 234.642 122.371 235.481C122.361 236.37 122.118 237.24 121.665 238.005C121.213 238.769 120.568 239.402 119.794 239.839C120.033 240.421 120.158 241.043 120.16 241.671C120.109 243.089 119.496 244.429 118.457 245.396C117.418 246.363 116.038 246.88 114.619 246.831H114.52C114.226 248.041 113.527 249.114 112.539 249.873C111.551 250.631 110.333 251.029 109.087 251.001C108.131 250.993 107.192 250.751 106.351 250.298C105.823 250.854 105.188 251.297 104.485 251.602C103.781 251.906 103.023 252.066 102.257 252.071C101.21 252.07 100.183 251.79 99.2824 251.258C98.7534 251.972 98.0623 252.549 97.266 252.944C96.4697 253.338 95.5911 253.538 94.7024 253.526C93.6527 253.522 92.6242 253.231 91.7283 252.685V259.706C91.7283 261.806 89.7457 263.668 87.9612 264.837C86.0578 266.055 87.5547 272.522 86.3255 272.522C85.9587 272.522 83.3514 272.522 82.9846 272.522C82.6178 272.522 82.6178 265.589 82.1816 265.381C80.0998 264.579 79.2076 262.509 79.0093 260.36C78.9893 260.149 78.9893 259.937 79.0093 259.726V252.17C79.0677 249.74 79.8188 247.378 81.1745 245.361C82.5302 243.343 84.4341 241.754 86.6626 240.78C88.3244 240.003 90.1158 239.539 91.9464 239.413L104.903 238.334C105.381 238.302 105.845 238.163 106.262 237.928C106.85 237.62 107.308 237.11 107.55 236.492C111.05 227.093 112.19 215.693 110.951 202.551L110.584 202.739C110.357 204.127 109.634 205.385 108.549 206.281C107.465 207.177 106.092 207.649 104.685 207.612C103.643 207.605 102.619 207.333 101.711 206.82C101.187 207.766 100.416 208.553 99.4809 209.097C98.5454 209.641 97.48 209.922 96.3976 209.91C95.3949 209.904 94.4085 209.656 93.5227 209.187C92.9479 209.861 92.2318 210.402 91.425 210.77C90.6181 211.138 89.7403 211.324 88.8534 211.316C87.7087 210.627 86.3727 210.325 85.0427 210.453C83.7127 210.582 82.4593 211.134 81.4679 212.029C80.6491 212.031 79.838 211.871 79.0823 211.556C78.3265 211.241 77.6411 210.779 77.0663 210.197H76.7887C75.7394 210.939 74.4854 211.337 73.2 211.336C72.2955 211.343 71.4009 211.148 70.5812 210.766C69.7615 210.384 69.0373 209.824 68.4613 209.127L68.0648 209.058C67.1051 209.628 66.0091 209.929 64.8924 209.929C63.8734 209.941 62.8682 209.694 61.9703 209.213C61.0724 208.731 60.311 208.031 59.7572 207.176L59.093 206.988C58.0521 213.554 59.093 223.012 61.7598 231.054C61.7539 231.077 61.7539 231.101 61.7598 231.124C62.405 233.059 63.1732 234.951 64.0597 236.789C64.6193 237.947 64.7551 239.265 64.4437 240.514C64.1322 241.762 63.3931 242.862 62.3546 243.623C63.6675 244.741 64.5794 246.257 64.9519 247.941C65.1601 248.969 65.1494 250.029 64.9206 251.053C64.6917 252.077 64.2498 253.041 63.6235 253.883C63.5099 254.037 63.3601 254.161 63.1872 254.244C63.0143 254.327 62.8238 254.366 62.6322 254.358C62.4053 254.358 62.1828 254.296 61.9878 254.18C61.8612 254.112 61.7509 254.018 61.6645 253.903C61.5781 253.788 61.5177 253.656 61.4876 253.515C61.4574 253.375 61.4582 253.23 61.4897 253.09C61.5213 252.95 61.583 252.818 61.6705 252.704C62.1362 252.088 62.4654 251.38 62.6363 250.627C62.8072 249.874 62.8159 249.093 62.6619 248.337C62.3355 246.857 61.4424 245.563 60.1736 244.732C58.8799 245.117 57.5018 245.117 56.2082 244.732C55.3986 244.494 54.6466 244.092 53.9986 243.552C53.3507 243.012 52.8205 242.345 52.4411 241.592C52.2626 241.246 52.104 240.849 51.9454 240.493C50.7878 240.168 49.7648 239.481 49.0263 238.532C48.2878 237.584 47.8725 236.425 47.8412 235.224C47.8488 234.322 48.0914 233.438 48.545 232.659C47.5453 232.245 46.6882 231.548 46.0789 230.654C45.4697 229.761 45.1346 228.709 45.1149 227.628C45.1205 226.922 45.2661 226.224 45.5435 225.574C45.8209 224.925 46.2244 224.337 46.7309 223.844C45.8974 223.373 45.2025 222.691 44.7154 221.868C44.2283 221.044 43.9661 220.107 43.9551 219.15C43.961 218.422 44.1142 217.703 44.4056 217.036C44.6969 216.369 45.1203 215.767 45.6503 215.268C45.0689 214.727 44.6161 214.063 44.3254 213.325C44.0347 212.586 43.9134 211.792 43.9705 211C44.0276 210.209 44.2615 209.44 44.6551 208.751C45.0488 208.062 45.5921 207.469 46.2451 207.018C46.2451 206.83 46.3145 206.641 46.3343 206.453C45.5864 205.596 45.1713 204.5 45.1645 203.363C45.1853 202.389 45.4899 201.442 46.041 200.638C46.5921 199.834 47.3658 199.208 48.2674 198.837C48.4837 198.27 48.7286 197.715 49.0011 197.173C49.7514 195.828 50.9487 194.787 52.386 194.23C53.8233 193.673 55.4102 193.635 56.8724 194.123C81.1902 201.838 95.099 200.204 112.011 187.675C112.913 187.023 113.96 186.599 115.061 186.44C116.163 186.282 117.287 186.393 118.336 186.764C119.344 187.1 120.244 187.7 120.941 188.502C121.639 189.303 122.108 190.276 122.302 191.32C122.401 191.825 122.46 192.31 122.54 192.835C123.058 193.302 123.472 193.872 123.757 194.508C124.042 195.144 124.191 195.833 124.195 196.529C124.191 197.464 123.912 198.377 123.392 199.154C123.392 199.273 123.392 199.392 123.392 199.501C123.943 199.967 124.387 200.546 124.693 201.199C124.999 201.852 125.161 202.563 125.167 203.284C125.16 204.379 124.791 205.442 124.116 206.305C124.619 206.768 125.021 207.331 125.295 207.958C125.57 208.584 125.712 209.26 125.712 209.944C125.712 210.628 125.57 211.305 125.295 211.931C125.021 212.557 124.619 213.12 124.116 213.584C124.743 214.398 125.094 215.39 125.117 216.416Z" fill="#E9B4B4"/>
<path opacity="0.1" d="M116.042 209.492C116.042 214.018 115.545 218.545 115.297 223.071C115.019 228.264 114.146 234.357 109.113 236.885H109.044C108.104 237.339 107.1 237.65 106.066 237.806C106.656 237.502 107.114 236.997 107.357 236.386C110.86 227.088 112.002 215.811 110.761 202.81L110.394 202.996C110.166 204.369 109.443 205.613 108.357 206.5C107.271 207.386 105.897 207.854 104.488 207.816C103.444 207.81 102.419 207.54 101.51 207.033C100.986 207.969 100.214 208.747 99.2773 209.285C98.3407 209.823 97.2739 210.101 96.1902 210.089C95.1863 210.084 94.1986 209.839 93.3118 209.374C92.7363 210.042 92.0193 210.576 91.2115 210.94C90.4037 211.304 89.5247 211.489 88.6368 211.481C87.4907 210.799 86.153 210.5 84.8214 210.627C83.4897 210.754 82.2348 211.301 81.2421 212.186C80.4224 212.188 79.6104 212.029 78.8537 211.718C78.0969 211.407 77.4107 210.95 76.8351 210.374H76.5573C75.5067 211.107 74.2512 211.501 72.9642 211.5C72.0586 211.507 71.1628 211.314 70.3421 210.936C69.5214 210.558 68.7963 210.005 68.2197 209.315L67.8227 209.247C66.8618 209.811 65.7645 210.109 64.6464 210.109C63.6262 210.12 62.6197 209.876 61.7207 209.4C60.8217 208.924 60.0594 208.231 59.505 207.385L58.84 207.199C57.7978 213.695 58.84 223.051 61.51 231.007C61.5041 231.029 61.5041 231.053 61.51 231.075C62.156 232.99 62.9251 234.862 63.8127 236.679C64.3729 237.826 64.509 239.129 64.1971 240.364C63.8853 241.599 63.1452 242.687 62.1055 243.44C63.4201 244.546 64.3331 246.046 64.706 247.711C64.9144 248.728 64.9038 249.777 64.6746 250.79C64.4455 251.803 64.003 252.757 63.3759 253.59C63.2622 253.742 63.1122 253.865 62.9391 253.947C62.7661 254.029 62.5752 254.068 62.3834 254.06C62.1562 254.059 61.9334 253.998 61.7382 253.884C61.6115 253.816 61.501 253.723 61.4145 253.609C61.3281 253.496 61.2676 253.365 61.2374 253.226C61.2072 253.087 61.208 252.944 61.2396 252.805C61.2712 252.667 61.333 252.536 61.4206 252.424C61.8868 251.814 62.2164 251.114 62.3875 250.369C62.5587 249.624 62.5674 248.852 62.4132 248.103C62.0864 246.639 61.1922 245.359 59.9218 244.537C58.6266 244.918 57.2468 244.918 55.9515 244.537C57.5694 243.9 60.2494 243.058 60.9144 239.638C61.7481 235.396 58.7506 232.966 56.8449 225.834C55.5451 221.33 54.7659 216.696 54.5223 212.02C54.4131 209.923 54.7804 206.141 56.299 204.593C57.8176 203.045 59.7134 203.525 61.7878 204.387C63.0763 204.978 64.4026 205.486 65.7581 205.906C77.5002 208.943 88.8155 208.737 100.022 204.329C101.878 203.594 107.238 200.713 109.947 199.841C110.236 199.742 110.531 199.663 110.831 199.606C113.104 199.273 116.042 200.41 116.042 209.492Z" fill="#1D1D1B"/>
<path opacity="0.1" d="M120.437 241.774C120.385 243.189 119.77 244.526 118.727 245.491C117.684 246.456 116.298 246.972 114.873 246.923H114.773C114.478 248.131 113.777 249.202 112.784 249.959C111.792 250.715 110.569 251.113 109.319 251.084C108.359 251.076 107.416 250.835 106.571 250.383C106.038 250.93 105.399 251.366 104.693 251.663C103.987 251.96 103.228 252.113 102.461 252.112C101.41 252.112 100.379 251.832 99.4744 251.302C98.9432 252.014 98.2493 252.59 97.4498 252.984C96.6503 253.377 95.7681 253.577 94.8758 253.565C93.8219 253.561 92.7892 253.271 91.8897 252.725V259.733C91.8897 261.828 89.899 263.686 88.1073 264.852C86.1962 266.068 87.6992 272.522 86.465 272.522C86.0967 272.522 83.4789 272.522 83.1106 272.522C82.7423 272.522 82.7423 265.603 82.3043 265.396C80.2141 264.595 79.3182 262.53 79.1191 260.385C80.0611 260.58 80.9838 260.858 81.8763 261.215C83.2071 261.827 84.7133 261.949 86.1266 261.561C88.0078 260.83 88.6149 258.695 88.6349 256.837C88.6548 254.979 88.3561 253.012 89.3117 251.371C90.9441 248.594 95.1147 248.317 98.5687 247.971C104.46 247.4 110.161 245.587 115.291 242.654C116.84 241.669 118.449 240.781 120.108 239.995C120.329 240.563 120.44 241.166 120.437 241.774Z" fill="#1D1D1B"/>
<path d="M111.185 228.292C110.975 228.565 110.75 228.827 110.513 229.077C110.687 229.491 110.833 229.917 110.948 230.352C111.427 231.844 111.371 233.455 110.79 234.911C110.277 236.046 109.382 236.968 108.259 237.519C107.644 237.828 106.97 238.002 106.281 238.029C105.866 238.262 105.403 238.399 104.927 238.431L95.8508 239.186L92.0048 239.5H91.8565C91.3325 239.549 90.8679 239.618 90.3241 239.706C89.7803 239.794 89.5727 239.863 89.2069 239.951C88.3586 240.178 87.5317 240.476 86.7352 240.844C86.0672 240.701 85.4196 240.477 84.8072 240.177C84.6688 240.108 84.5402 240.049 84.4117 239.971C83.6362 240.455 82.8025 240.84 81.9301 241.118C79.5334 241.903 76.955 241.961 74.5249 241.285C72.4101 240.569 70.4117 239.552 68.5928 238.265C68.0787 237.941 67.6041 237.618 67.0801 237.284C66.5063 236.907 65.9519 236.501 65.4192 236.068C64.993 235.729 64.5869 235.366 64.203 234.98C63.9213 234.805 63.6566 234.605 63.4121 234.382C62.5503 233.551 61.8763 232.548 61.4347 231.44C61.0184 230.389 60.7682 229.281 60.6932 228.155C60.6932 227.714 60.6932 227.263 60.6932 226.822C60.6932 226.665 60.6141 226.498 60.5746 226.331C60.4658 225.831 60.3472 225.351 60.2286 224.811C59.9286 224.501 59.6725 224.151 59.4673 223.772C59.015 223.001 58.7257 222.147 58.617 221.262C58.617 221.085 58.617 220.889 58.617 220.713C58.5727 219.106 58.722 217.499 59.0619 215.927C59.0619 215.771 59.0619 215.604 59.0619 215.447C59.0619 214.937 59.0619 214.466 58.9927 213.966C58.8992 213.748 58.7936 213.535 58.6763 213.329C58.1819 212.31 57.9606 211.182 58.0337 210.054C58.0231 209.878 58.0231 209.701 58.0337 209.524C58.0613 209.095 58.1925 208.679 58.4161 208.31C58.6398 207.941 58.9494 207.632 59.3189 207.406C59.3165 207.423 59.3165 207.439 59.3189 207.455C59.5094 207.494 59.6975 207.543 59.8825 207.602C60.4348 208.449 61.1941 209.142 62.0896 209.619C62.9851 210.096 63.9876 210.34 65.0039 210.328H65.2016C65.7668 210.311 66.3263 210.212 66.8626 210.034C67.3206 209.902 67.7593 209.71 68.1677 209.466L68.5632 209.534C69.1376 210.224 69.8598 210.778 70.6773 211.156C71.4948 211.535 72.387 211.728 73.289 211.721C74.571 211.722 75.8216 211.328 76.8681 210.593H77.1449C77.3277 210.776 77.5226 210.946 77.7282 211.103C78.2607 211.528 78.8626 211.86 79.5079 212.084C80.9319 211.289 82.526 210.84 84.1589 210.775C85.7918 210.711 87.4168 211.031 88.9004 211.711C89.111 211.725 89.3224 211.725 89.5331 211.711C91.0941 211.574 92.5372 210.831 93.5471 209.642C93.8989 209.824 94.2661 209.975 94.6446 210.093C95.2183 210.267 95.8145 210.356 96.4143 210.358C97.4938 210.37 98.5563 210.091 99.4893 209.553C100.422 209.014 101.191 208.235 101.714 207.298C102.445 207.708 103.253 207.964 104.088 208.05C104.924 208.136 105.768 208.051 106.568 207.799C107.196 207.615 107.788 207.326 108.318 206.946C108.927 206.513 109.442 205.964 109.833 205.331C110.223 204.698 110.481 203.993 110.592 203.259L110.958 203.072C111.027 203.759 111.047 204.416 111.106 205.092C111.14 204.415 111.091 203.737 110.958 203.072C112.269 205.13 113.079 207.462 113.324 209.884C113.57 212.305 113.243 214.751 112.372 217.026C112.191 217.428 112.055 217.849 111.966 218.281C111.939 218.37 111.923 218.462 111.917 218.555C111.958 219.371 112.159 220.17 112.51 220.909C112.896 222.155 112.977 223.475 112.747 224.759C112.516 226.043 111.981 227.254 111.185 228.292Z" fill="#F9DE96"/>
<path opacity="0.2" d="M69.3561 214.336C70.9165 214.617 72.5081 214.659 74.0802 214.461L75.1735 214.388C77.1325 214.184 79.1108 214.426 80.9709 215.098C81.8012 215.386 82.5554 215.871 83.1736 216.516C83.7917 217.16 84.2567 217.946 84.5315 218.81C84.615 219.219 84.6753 219.634 84.7121 220.051C84.7384 220.89 84.9225 221.715 85.2537 222.48C85.5221 222.954 85.8949 223.354 86.3414 223.647C86.7879 223.941 87.2952 224.12 87.8214 224.17H88.032C88.3664 224.183 88.699 224.113 89.0024 223.966C89.3057 223.819 89.5713 223.599 89.7773 223.325C90.1394 222.8 90.2905 222.149 90.1985 221.511C90.0599 220.455 89.7549 219.429 89.2958 218.476C89.1554 218.163 89.025 217.84 88.9046 217.517C88.6585 217.027 88.5218 216.486 88.5044 215.933C88.487 215.381 88.5896 214.831 88.8043 214.326C89.5194 213.455 90.4537 212.809 91.5024 212.459C92.8364 211.834 94.3409 211.124 94.9427 209.706C94.5587 209.581 94.1862 209.42 93.8294 209.227C92.8048 210.49 91.3408 211.281 89.7572 211.427C88.7587 211.865 87.8999 212.588 87.2797 213.512C86.9414 214.219 86.7654 214.997 86.7654 215.786C86.7654 216.575 86.9414 217.353 87.2797 218.059C87.4101 218.403 87.5506 218.737 87.691 219.102C88.0928 219.9 88.3607 220.764 88.4834 221.657C88.5285 221.899 88.4894 222.15 88.373 222.366C88.373 222.366 88.2828 222.512 88.012 222.491C87.7811 222.466 87.5588 222.386 87.3623 222.258C87.1658 222.13 87.0003 221.956 86.8786 221.751C86.6505 221.163 86.5215 220.538 86.4974 219.905C86.4623 219.411 86.3952 218.919 86.2968 218.434C85.9582 217.302 85.365 216.269 84.5661 215.422C83.7672 214.575 82.7858 213.939 81.703 213.565C80.4382 213.062 79.104 212.773 77.7512 212.709L79.5265 211.917L79.6168 211.865C78.9622 211.627 78.3516 211.274 77.8114 210.822L73.6991 212.657C73.613 212.693 73.5346 212.746 73.4684 212.814C72.2494 212.965 71.0154 212.927 69.8074 212.699C68.3732 212.365 66.9088 211.312 66.7984 209.936C66.7975 209.842 66.777 209.749 66.7383 209.665C66.1942 209.854 65.6266 209.959 65.0532 209.977C65.1736 212.324 67.3501 213.877 69.3561 214.336Z" fill="#1D1D1B"/>
<path opacity="0.2" d="M111.133 218.232C111.139 218.138 111.155 218.045 111.182 217.955C110.976 217.814 110.754 217.698 110.521 217.609C109.72 217.337 108.879 217.203 108.034 217.213L106.603 217.154C106.444 216.716 106.256 216.29 106.04 215.878C106.706 215.399 107.339 214.877 107.935 214.315C108.584 214.281 109.234 214.385 109.84 214.621C109.949 214.668 110.067 214.692 110.185 214.691C110.35 214.693 110.513 214.649 110.655 214.564C110.796 214.478 110.91 214.354 110.985 214.206C111.027 214.108 111.049 214.003 111.049 213.896C111.049 213.79 111.027 213.684 110.985 213.587C110.942 213.489 110.88 213.402 110.801 213.329C110.723 213.257 110.631 213.202 110.531 213.167C110.097 213 109.647 212.878 109.188 212.801C109.826 211.939 110.193 210.906 110.244 209.834C110.243 209.724 110.22 209.616 110.176 209.515C110.133 209.415 110.07 209.324 109.991 209.249C109.911 209.173 109.818 209.114 109.716 209.075C109.614 209.036 109.505 209.018 109.396 209.022C109.179 209.014 108.968 209.091 108.807 209.238C108.647 209.384 108.55 209.587 108.537 209.804C108.537 211.683 106.82 213.266 105.191 214.473C104.915 214.057 104.619 213.642 104.303 213.236C105.322 212.46 106.145 211.453 106.704 210.298C107.263 209.143 107.543 207.872 107.52 206.589C106.991 206.973 106.4 207.264 105.773 207.449C105.651 208.419 105.324 209.351 104.813 210.184C104.303 211.016 103.62 211.73 102.813 212.277C102.707 212.368 102.595 212.451 102.477 212.524C102.309 212.633 102.132 212.742 101.964 212.831C99.8216 213.978 97.3984 214.493 94.976 214.315C94.3444 214.315 92.6664 214.206 92.0841 215.413C91.885 215.904 91.885 216.454 92.0841 216.946C92.2914 217.718 92.5776 218.499 92.854 219.251C93.197 220.125 93.4838 221.021 93.7127 221.932C93.7127 221.991 93.8903 223.247 93.8903 223.247C93.8656 223.857 93.7662 224.462 93.5942 225.048C93.199 225.824 92.6231 226.493 91.9154 227C91.2077 227.506 90.3888 227.834 89.5279 227.956C87.6147 228.265 85.6551 228.095 83.8232 227.461C83.0168 227.254 82.2544 226.902 81.5729 226.423C81.2877 226.227 81.0458 225.974 80.8623 225.681L80.7241 225.434C80.4175 224.517 80.3164 223.545 80.428 222.585C80.428 220.982 80.5168 219.172 78.9574 218.014C77.398 216.857 75.3648 217.233 73.7067 217.52H73.5686C70.2104 218.209 66.7289 217.976 63.4916 216.847C60.2642 215.571 57.8559 212.969 57.3723 210.2C57.3467 210.041 57.2705 209.895 57.1552 209.784C57.0823 210.922 57.3032 212.06 57.7967 213.088C57.9138 213.296 58.0192 213.511 58.1126 213.731C58.1126 214.216 58.1126 214.72 58.1817 215.225C59.4777 216.577 61.0546 217.628 62.8007 218.301C63.0079 218.39 63.2152 218.46 63.4324 218.539C62.9625 219.484 62.8069 220.555 62.9882 221.595C63.0315 221.787 63.1397 221.958 63.2945 222.079C63.4492 222.2 63.6409 222.263 63.837 222.258H63.9752C64.0832 222.248 64.1881 222.217 64.2835 222.165C64.379 222.114 64.463 222.043 64.5303 221.958C64.5977 221.873 64.6471 221.775 64.6755 221.67C64.704 221.565 64.7108 221.456 64.6956 221.348C64.5634 220.544 64.7134 219.719 65.1201 219.014C68.0058 219.608 70.9798 219.632 73.8745 219.083H74.0225C75.4734 218.845 76.9835 218.578 77.8718 219.251C78.143 219.461 78.3512 219.741 78.4738 220.062C76.0261 219.746 73.608 220.745 71.7328 221.704L70.8741 222.139C69.1719 223.186 67.2682 223.86 65.2879 224.118C62.623 224.266 60.126 222.802 57.8066 221.15C57.9151 222.043 58.2039 222.905 58.6554 223.683C60.5188 224.932 62.6922 225.638 64.9326 225.72H65.3767C67.6202 225.473 69.781 224.73 71.7032 223.544L72.5421 223.119C72.3217 223.851 72.0614 224.571 71.7624 225.275C71.4762 226.017 71.1801 226.779 70.9432 227.56V227.689C69.4821 227.566 68.02 227.913 66.7683 228.678C66.6466 228.679 66.5262 228.703 66.413 228.747C65.9172 228.883 65.3989 228.916 64.8899 228.845C64.3809 228.773 63.8918 228.599 63.4521 228.332C62.9882 228.085 62.5342 227.808 62.0703 227.501C61.4241 227.059 60.7443 226.669 60.0372 226.334C59.9736 226.309 59.9073 226.293 59.8398 226.284C59.8398 226.452 59.9286 226.621 59.9582 226.779C59.9582 227.224 59.9582 227.679 59.9582 228.124C60.3332 228.332 60.6885 228.559 61.0636 228.807C61.4386 229.054 62.0506 229.43 62.5737 229.717C63.3166 230.107 64.1214 230.365 64.9523 230.479C64.1133 231.755 63.689 232.319 64.0542 233.783C63.0537 232.927 61.9766 232.165 60.8366 231.507L60.6491 231.349C61.0899 232.467 61.7628 233.479 62.623 234.317C62.8671 234.542 63.1314 234.744 63.4126 234.92C63.7958 235.309 64.2012 235.676 64.6266 236.018C65.1585 236.455 65.7119 236.864 66.2847 237.245C66.7782 237.591 67.2717 237.918 67.7948 238.234C69.6105 239.533 71.6054 240.559 73.7166 241.281C76.1425 241.963 78.7164 241.905 81.109 241.113C81.9799 240.832 82.8122 240.444 83.5863 239.955C83.7146 240.034 83.8429 240.094 83.9811 240.163C84.5924 240.466 85.2389 240.692 85.9057 240.836C86.7009 240.465 87.5264 240.164 88.3732 239.936C89.241 239.712 90.1257 239.56 91.0182 239.481C89.3359 238.881 87.9313 237.685 87.0704 236.117C86.9529 235.923 86.7687 235.778 86.5523 235.711C86.3359 235.644 86.1024 235.658 85.8959 235.751C85.7963 235.792 85.7064 235.854 85.6321 235.932C85.5578 236.01 85.5007 236.103 85.4644 236.205C85.4281 236.306 85.4135 236.414 85.4215 236.522C85.4295 236.63 85.46 236.734 85.5109 236.829C86.0711 237.859 86.8412 238.759 87.7711 239.471C87.2496 239.606 86.7101 239.66 86.1722 239.629C85.7478 239.57 85.353 239.382 84.9385 239.302C84.7154 239.278 84.4903 239.278 84.2673 239.302C84.6181 237.813 84.3998 236.246 83.6554 234.91C83.9022 234.762 84.139 234.614 84.3759 234.445C84.9987 234.03 85.5433 233.508 85.9846 232.902C86.302 232.414 86.5667 231.893 86.7742 231.349C86.8729 231.122 86.9618 230.904 87.0704 230.686C86.9776 232.101 87.4258 233.498 88.3238 234.594C89.6095 236.062 91.1771 237.257 92.933 238.105C93.6041 238.481 94.295 238.867 95.0155 239.194L104.076 238.432C104.551 238.4 105.013 238.261 105.428 238.026C106.115 237.999 106.788 237.824 107.402 237.512C107.481 237.403 107.55 237.284 107.619 237.166C107.957 236.479 108.055 235.699 107.895 234.95C107.441 231.982 105.102 229.163 101.737 227.541C101.773 227.49 101.8 227.433 101.816 227.372C102.059 226.652 102.182 225.897 102.181 225.137V224.979C103.669 225.143 105.095 225.669 106.334 226.51C107.574 227.351 108.591 228.483 109.297 229.806C109.371 229.951 109.484 230.073 109.624 230.157C109.763 230.241 109.924 230.284 110.087 230.281C109.972 229.843 109.826 229.413 109.652 228.995C109.889 228.743 110.113 228.478 110.323 228.203C109.554 227.018 108.546 226.007 107.363 225.236C107.385 225.158 107.401 225.079 107.412 224.998C107.728 222.959 107.61 220.876 107.066 218.885H107.886C108.518 218.868 109.149 218.958 109.751 219.152C109.945 219.212 110.122 219.319 110.265 219.464C110.408 219.609 110.513 219.788 110.57 219.983C110.595 220.191 110.697 220.382 110.856 220.518C111.015 220.653 111.22 220.724 111.429 220.715H111.508H111.646C111.309 219.931 111.134 219.086 111.133 218.232ZM75.6511 240.252C72.1572 240.084 66.3242 235.494 66.1663 235.148C66.047 234.877 65.9448 234.6 65.8603 234.317C65.6859 233.577 65.722 232.803 65.9645 232.082C66.207 231.362 66.6462 230.724 67.2322 230.241C68.1887 229.468 69.4016 229.086 70.6274 229.173C70.4741 230.073 70.5355 230.996 70.8066 231.868C71.0776 232.74 71.5506 233.535 72.1868 234.188C72.6435 234.604 73.1675 234.938 73.7363 235.177C72.7412 235.517 71.7119 235.746 70.6669 235.86C70.5579 235.865 70.451 235.892 70.3527 235.939C70.2543 235.987 70.1666 236.053 70.0947 236.136C70.0227 236.218 69.9681 236.314 69.9342 236.418C69.9002 236.522 69.8876 236.631 69.897 236.74C69.9345 236.939 70.0416 237.118 70.199 237.245C70.3564 237.372 70.5537 237.439 70.7557 237.433H70.8642C72.6844 237.245 74.4597 236.75 76.1149 235.969C76.8325 236.118 77.5633 236.194 78.2962 236.196C79.6239 236.198 80.9412 235.96 82.1848 235.494C82.9152 236.75 82.5993 237.769 82.0466 239.085C80.3885 240.163 77.6744 240.361 75.6511 240.252ZM85.2345 230.686C85.07 231.136 84.8583 231.567 84.6029 231.972C84.2644 232.41 83.8578 232.791 83.3988 233.1C81.4869 234.37 79.1707 234.878 76.9045 234.525C76.5708 234.48 76.2409 234.411 75.9175 234.317C75.6218 234.245 75.3316 234.153 75.049 234.04C74.4499 233.814 73.8977 233.478 73.4205 233.051C72.9638 232.56 72.6285 231.969 72.4417 231.324C72.2548 230.68 72.2216 230.001 72.3447 229.341C72.3973 228.88 72.4865 228.423 72.6112 227.976C72.6156 227.93 72.6156 227.883 72.6112 227.837C72.8184 227.135 73.0948 226.433 73.3811 225.691C73.877 224.539 74.254 223.339 74.5062 222.11C75.7958 221.555 77.2147 221.373 78.6021 221.585L78.6811 221.684C78.6811 221.932 78.6811 222.189 78.6811 222.446C78.5289 223.744 78.7372 225.058 79.2831 226.245C77.9923 227.361 76.9124 228.702 76.0952 230.202C76.0462 230.297 76.0176 230.401 76.0111 230.508C76.0047 230.615 76.0205 230.722 76.0576 230.823C76.0948 230.924 76.1524 231.015 76.2269 231.092C76.3013 231.169 76.3909 231.23 76.49 231.27C76.6123 231.32 76.7428 231.347 76.8749 231.349C77.0304 231.352 77.1838 231.314 77.3192 231.237C77.4546 231.16 77.567 231.049 77.6447 230.914C78.345 229.621 79.2633 228.46 80.3589 227.481C81.2462 228.134 82.2518 228.608 83.3198 228.876C84.1435 229.129 84.9848 229.321 85.8366 229.45C85.6087 229.851 85.4075 230.268 85.2345 230.696V230.686ZM106.287 235.049C106.391 235.489 106.35 235.951 106.168 236.364C105.66 236.971 104.966 237.391 104.194 237.561C102.712 238.225 101.118 238.601 99.4963 238.669C97.4948 238.477 95.5704 237.798 93.8903 236.691C92.3343 235.94 90.9396 234.891 89.7845 233.605C89.3042 233.063 88.9923 232.392 88.8871 231.675C88.7819 230.958 88.888 230.226 89.1923 229.569L89.8733 229.47C91.0106 229.299 92.0898 228.855 93.0194 228.176C93.949 227.498 94.7015 226.604 95.2129 225.572C95.5047 224.85 95.649 224.076 95.6373 223.297C96.6584 223.275 97.6792 223.348 98.687 223.514H98.835C99.0311 223.519 99.2229 223.456 99.3776 223.335C99.5324 223.214 99.6406 223.043 99.6838 222.852C99.7005 222.745 99.6954 222.636 99.6689 222.531C99.6424 222.426 99.5949 222.328 99.5294 222.242C99.464 222.156 99.3818 222.084 99.2879 222.031C99.194 221.977 99.0903 221.944 98.9831 221.932C97.8115 221.747 96.6254 221.671 95.4399 221.704C95.1861 220.675 94.8562 219.667 94.4529 218.687C94.1765 217.925 93.9101 217.213 93.7127 216.511C93.6238 216.165 93.6337 216.036 93.6534 215.996C93.6732 215.957 93.8212 215.789 94.8674 215.838H95.6471C95.6846 215.872 95.7281 215.899 95.7755 215.917C97.4566 216.629 98.8045 217.955 99.5456 219.627C100.277 221.311 100.598 223.145 100.483 224.979C100.489 225.576 100.399 226.17 100.217 226.739C99.9365 227.374 99.5603 227.961 99.1015 228.48L98.6179 229.113L97.8875 230.053L96.2294 232.338C96.1636 232.422 96.1162 232.518 96.0903 232.621C96.0645 232.725 96.0607 232.832 96.0794 232.937C96.098 233.042 96.1387 233.141 96.1986 233.229C96.2585 233.317 96.3363 233.391 96.4268 233.446C96.5751 233.547 96.7511 233.599 96.9302 233.595C97.0653 233.596 97.199 233.567 97.3219 233.511C97.4447 233.455 97.5536 233.372 97.6408 233.268L98.6278 231.982C99.2801 233.08 100.256 233.947 101.421 234.465C101.544 234.512 101.674 234.536 101.806 234.534C101.962 234.538 102.117 234.498 102.253 234.419C102.388 234.341 102.5 234.227 102.576 234.089C102.624 233.994 102.652 233.89 102.658 233.783C102.664 233.676 102.647 233.569 102.609 233.47C102.571 233.37 102.512 233.279 102.437 233.203C102.361 233.128 102.271 233.069 102.171 233.031C101.622 232.784 101.129 232.428 100.722 231.984C100.314 231.54 100.002 231.018 99.8023 230.449L100.572 229.46L101.006 228.886C103.908 230.221 105.902 232.566 106.287 235.059V235.049ZM105.833 224.227C104.702 223.698 103.491 223.364 102.25 223.237C102.194 221.77 101.859 220.326 101.263 218.984C100.65 217.655 99.7259 216.494 98.5685 215.601C100.114 215.363 101.605 214.85 102.97 214.087C103.439 214.68 103.861 215.309 104.234 215.967V216.036C104.229 216.069 104.229 216.102 104.234 216.135C104.267 216.203 104.31 216.267 104.362 216.323C105.632 218.753 106.145 221.511 105.833 224.237V224.227Z" fill="#1D1D1B"/>
<path d="M72.1262 50.5265C72.3442 51.4561 73.2992 52.0396 74.2022 52.5044L79.1014 55.1943L83.7307 57.7359C84.1252 57.9436 84.6234 58.1611 84.9867 57.904C85.35 57.6469 85.2981 57.1425 85.2047 56.737C84.7573 54.1701 83.5675 51.7728 81.769 49.8145C80.8625 48.8517 79.6955 48.1449 78.3957 47.7717C77.0959 47.3984 75.7134 47.373 74.3994 47.6981C73.0916 48.1432 71.846 49.2706 72.1262 50.5265Z" fill="#8CBF93"/>
<path d="M66.8115 66.6694C66.8394 66.819 66.9072 66.9557 67.0061 67.0618C67.105 67.1678 67.2304 67.2383 67.3659 67.2639C67.6346 67.3134 67.9089 67.3134 68.1777 67.2639C69.0394 67.2009 69.9016 67.3795 70.6851 67.7835C71.4686 68.1874 72.1484 68.8036 72.6621 69.5757C73.1571 70.3243 73.7114 71.3371 74.5331 71.194C75.3548 71.0509 75.5231 70.1702 75.6023 69.3996C75.613 68.3166 75.3192 67.2569 74.7619 66.3687C74.2045 65.4805 73.4116 64.8081 72.4938 64.4456C71.5669 64.1214 70.5776 64.0876 69.6345 64.3478C68.6915 64.6081 67.8311 65.1523 67.1481 65.9208C67.0477 66.0122 66.9658 66.1261 66.9078 66.2551C66.8498 66.3841 66.817 66.5253 66.8115 66.6694Z" fill="#8CBF93"/>
<path d="M71.4521 58.8998L70.3276 58.5263C70.6043 57.7085 71.0792 56.9713 71.7101 56.38C72.341 55.7887 73.1085 55.3617 73.9446 55.1366C74.5175 55.0063 75.1006 54.9251 75.6874 54.8938L76.2684 54.8471C76.9299 54.825 77.5748 54.6354 78.1424 54.2962C78.3642 54.162 78.5435 53.9681 78.6595 53.7368C78.7756 53.5055 78.8237 53.2462 78.7984 52.9889L79.9696 52.7461C80.0424 53.2327 79.9733 53.7299 79.7707 54.1785C79.568 54.6272 79.2403 55.0083 78.8265 55.2767C78.1 55.7257 77.2719 55.9858 76.4183 56.033L75.8092 56.0798C75.2919 56.1031 74.7777 56.1719 74.2725 56.2852C73.625 56.4607 73.03 56.7904 72.5387 57.2458C72.0474 57.7013 71.6745 58.2689 71.4521 58.8998Z" fill="#8CBF93"/>
<path d="M73.6482 69.4494L72.9328 68.3672C73.4284 68.0652 73.8097 67.6276 74.0234 67.1156C74.2371 66.6037 74.2727 66.0428 74.1251 65.5112C73.9179 64.9734 73.6257 64.4668 73.258 64.0081C73.0629 63.7275 72.857 63.4469 72.6836 63.1563C72.318 62.6627 72.1116 62.0831 72.0886 61.4852C72.0656 60.8873 72.2268 60.2957 72.5535 59.7793L73.6374 60.5108C73.479 60.8329 73.4156 61.1879 73.4536 61.5399C73.4917 61.8919 73.6299 62.2284 73.8541 62.515C74.0167 62.7856 74.2009 63.0361 74.3744 63.2866C74.84 63.8473 75.2059 64.4731 75.4582 65.1405C75.6914 65.9433 75.6416 66.794 75.3161 67.5689C74.9906 68.3438 74.4063 69.0025 73.6482 69.4494Z" fill="#8CBF93"/>
<path d="M84.3935 66.1978V77.3613H78.1218V66.557C78.1218 66.1185 78.0363 65.6842 77.8703 65.2791C77.7043 64.8739 77.4609 64.5058 77.1541 64.1957C76.8473 63.8857 76.4831 63.6397 76.0822 63.4719C75.6814 63.3041 75.2517 63.2177 74.8179 63.2177L56.8577 63.5477L56.4831 60.8394L56.3198 59.6356C56.3198 58.0533 56.2622 56.6166 56.2622 55.3838L74.9235 56.6264C76.1672 56.6264 77.3986 56.8739 78.5475 57.3549C79.6965 57.8359 80.7404 58.541 81.6198 59.4298C82.4991 60.3186 83.1967 61.3737 83.6726 62.535C84.1485 63.6963 84.3935 64.9409 84.3935 66.1978Z" fill="#F9DE96"/>
</svg>
