<svg width="48" height="65" viewBox="0 0 48 65" fill="none" xmlns="http://www.w3.org/2000/svg">
<g filter="url(#filter0_d_202_100411)">
<path fill-rule="evenodd" clip-rule="evenodd" d="M39.4248 51.6641C-26.0436 33.8714 14.6255 -55.1143 39.4248 51.6641Z" fill="#8C9152"/>
<path d="M41.1927 55.7977C41.3219 55.9312 41.4761 56.038 41.6465 56.1119C41.817 56.1858 42.0003 56.2255 42.186 56.2285C42.3718 56.2316 42.5562 56.1981 42.729 56.1299C42.9018 56.0616 43.0596 55.96 43.1931 55.8308C43.3266 55.7017 43.4333 55.5475 43.5073 55.377C43.5812 55.2066 43.6208 55.0233 43.6238 54.8376C43.6269 54.6518 43.5935 54.4673 43.5252 54.2945C43.457 54.1217 43.3553 53.9641 43.2261 53.8305C37.2974 47.7547 31.8925 41.1889 27.069 34.2033C21.7144 26.4229 17.1883 18.1038 13.5643 9.38187C13.3906 9.07636 13.1109 8.8451 12.7782 8.73187C12.4455 8.61864 12.0828 8.63131 11.7588 8.76745C11.4348 8.90359 11.1719 9.15376 11.02 9.47064C10.868 9.78752 10.8374 10.1491 10.934 10.487C14.6259 19.3756 19.2178 27.8631 24.6378 35.8168C29.5627 42.8949 35.0708 49.5489 41.1044 55.7093L41.1927 55.7977Z" fill="black"/>
</g>
<defs>
<filter id="filter0_d_202_100411" x="0" y="0" width="47.624" height="64.2285" filterUnits="userSpaceOnUse" color-interpolation-filters="sRGB">
<feFlood flood-opacity="0" result="BackgroundImageFix"/>
<feColorMatrix in="SourceAlpha" type="matrix" values="0 0 0 0 0 0 0 0 0 0 0 0 0 0 0 0 0 0 127 0" result="hardAlpha"/>
<feOffset dy="4"/>
<feGaussianBlur stdDeviation="2"/>
<feComposite in2="hardAlpha" operator="out"/>
<feColorMatrix type="matrix" values="0 0 0 0 0 0 0 0 0 0 0 0 0 0 0 0 0 0 0.25 0"/>
<feBlend mode="normal" in2="BackgroundImageFix" result="effect1_dropShadow_202_100411"/>
<feBlend mode="normal" in="SourceGraphic" in2="effect1_dropShadow_202_100411" result="shape"/>
</filter>
</defs>
</svg>
