<svg width="225" height="225" viewBox="0 0 225 225" fill="none" xmlns="http://www.w3.org/2000/svg">
<circle cx="112.115" cy="112.885" r="112.115" fill="#F3D3DB"/>
<path d="M143.851 185.543H140.1V185.654H143.851V185.543Z" fill="#EBEBEB"/>
<path d="M180.348 180.223H172.065V180.333H180.348V180.223Z" fill="#EBEBEB"/>
<path d="M48.7526 180.969H46.0205V181.08H48.7526V180.969Z" fill="#EBEBEB"/>
<path d="M75.1292 82.4965C83.5111 68.0978 99.9428 73.3688 108.541 84.354C116.853 73.1427 133.143 67.4373 141.891 81.6099C156.618 105.504 127.139 128.211 113.193 137.13C111.614 138.158 110.306 139.001 109.218 139.666C108.109 139.027 106.78 138.22 105.178 137.236C91.0126 128.707 60.9722 106.772 75.1292 82.4965Z" fill="#E0E0E0"/>
<path d="M94.1548 120.877L87.2705 84.2111L81.4739 111.027L75.755 91.969L72.5956 99.1551H55.3784V97.8961H71.8057L75.9751 88.4226L81.284 106.111L87.3525 78.0137L94.2411 114.702L99.6665 89.8013L104.039 107.396L109.365 86.4897L115.455 104.094L120.104 81.3474L126.828 113.217L133.635 84.6988L137.916 102.759L142.094 92.173L145.388 97.8961H161.271V99.1551H144.688L142.297 95.0013L137.623 106.847L133.63 90.0008L126.755 118.811L120.125 87.3764L115.757 108.731L109.546 90.7632L104.022 112.428L99.7442 95.2052L94.1548 120.877Z" fill="#F0F0F0"/>
<path d="M132.897 49.5537H128.632V45.1738H125.913V49.5537H121.649V52.3421H125.913V56.7265H128.632V52.3421H132.897V49.5537Z" fill="#F0F0F0"/>
<path d="M40.8714 75.8335H36.6071V71.4492H33.8879V75.8335H29.6235V78.622H33.8879V83.0019H36.6071V78.622H40.8714V75.8335Z" fill="#F0F0F0"/>
<path d="M35.2479 133.263H30.9835V128.883H28.2644V133.263H24V136.051H28.2644V140.435H30.9835V136.051H35.2479V133.263Z" fill="#F0F0F0"/>
<path d="M156.014 61.4657H153.899V59.2891H152.548V61.4657H150.429V62.8488H152.548V65.0255H153.899V62.8488H156.014V61.4657Z" fill="#F0F0F0"/>
<path d="M186.797 91.2919H184.678V89.1152H183.331V91.2919H181.212V92.675H183.331V94.8517H184.678V92.675H186.797V91.2919Z" fill="#F0F0F0"/>
<path d="M193.513 137.308H191.394V135.131H190.047V137.308H187.928V138.691H190.047V140.867H191.394V138.691H193.513V137.308Z" fill="#F0F0F0"/>
<path d="M52.569 47.4032H50.4541V45.2266H49.1031V47.4032H46.9839V48.7908H49.1031V50.9674H50.4541V48.7908H52.569V47.4032Z" fill="#F0F0F0"/>
<path d="M39.3053 164.268H37.1861V162.092H35.8351V164.268H33.7202V165.656H35.8351V167.828H37.1861V165.656H39.3053V164.268Z" fill="#F0F0F0"/>
<path d="M76.5061 158.914H73.338V155.66H71.3224V158.914H68.1543V160.984H71.3224V164.243H73.338V160.984H76.5061V158.914Z" fill="#F0F0F0"/>
<path d="M200.838 112.791H197.669V109.537H195.65V112.791H192.481V114.861H195.65V118.12H197.669V114.861H200.838V112.791Z" fill="#F0F0F0"/>
<path d="M89.4026 57.5058H86.2345V54.252H84.2188V57.5058H81.0508V59.5805H84.2188V62.8344H86.2345V59.5805H89.4026V57.5058Z" fill="#F0F0F0"/>
<path d="M180.094 55.4062H176.926V52.1523H174.906V55.4062H171.738V57.4809H174.906V60.7348H176.926V57.4809H180.094V55.4062Z" fill="#F0F0F0"/>
<path d="M126.461 169.202H123.858V166.529H122.201V169.202H119.603V170.905H122.201V173.573H123.858V170.905H126.461V169.202Z" fill="#F0F0F0"/>
<path d="M72.496 68.4772C73.9274 62.2484 70.1715 56.0072 64.107 54.5371C58.0425 53.067 51.9659 56.9246 50.5346 63.1534C49.1032 69.3822 52.8591 75.6234 58.9236 77.0935C64.9881 78.5637 71.0647 74.706 72.496 68.4772Z" fill="#EB7B8B"/>
<path opacity="0.8" d="M67.1405 64.4229H62.8761V60.043H60.1613V64.4229H55.8926V67.2113H60.1613V71.5956H62.8761V67.2113H67.1405V64.4229Z" fill="white"/>
<path d="M56.7162 73.6348L56.4443 81.1755L60.6483 74.9869L56.7162 73.6348Z" fill="#EB7B8B"/>
<path d="M159.77 117.997C152.516 150.864 135.016 164.047 116.486 165.45C110.068 165.933 105.762 164.883 102.874 163.304C97.4263 160.33 97.0308 155.455 97.0308 155.455C97.0308 155.455 88.9114 160.981 78.6725 159.663C70.665 158.644 68.6575 151.37 68.1575 148.235C68.0726 147.766 68.0177 147.293 67.9933 146.817C59.4634 137.91 51.3514 78.5529 61.5903 69.5007C71.8292 60.4484 135.867 60.6094 144.412 60.985C152.957 61.3605 167.031 85.1371 159.77 117.997Z" fill="#00ABC8"/>
<path opacity="0.2" d="M110.897 122.145C106.844 131.159 98.1054 150.544 98.9561 155.756C99.292 157.826 100.643 160.685 102.889 163.306C97.4412 160.332 97.0457 155.457 97.0457 155.457C97.0457 155.457 88.9262 160.983 78.6874 159.665C70.6798 158.646 68.6724 151.372 68.1724 148.237L71.6351 147.509C71.6351 147.509 71.3291 156.515 79.3217 157.91C87.3143 159.305 93.6203 158.469 96.6129 152.705C99.6054 146.941 99.9711 125.825 104.374 117.539C108.777 109.253 114.949 113.131 110.897 122.145Z" fill="black"/>
<path opacity="0.2" d="M67.3593 133.426C66.7175 128.014 79.0982 119.774 76.5385 117.536C73.9787 115.298 71.2026 123.5 67.1951 126.451C63.1876 129.402 63.516 124.074 63.516 124.074C62.5906 127.631 68.0011 138.837 67.3593 133.426Z" fill="black"/>
<path opacity="0.2" d="M80.9485 83.6052C83.5754 90.8026 85.5008 103.35 89.9784 102.561C94.4561 101.771 83.6351 77.2127 76.8813 74.3613H67.3589C67.3589 74.3613 78.3291 76.4385 80.9485 83.6052Z" fill="black"/>
<path opacity="0.2" d="M132.665 112.968C128.792 113.819 126.606 113.298 125.531 112.24C125.494 112.079 125.456 111.918 125.411 111.765C125.211 111.12 124.974 110.488 124.702 109.872C124.766 109.158 124.976 108.466 125.318 107.841C125.66 107.216 126.127 106.673 126.688 106.246C129.494 104.238 128.27 94.3963 131.814 91.3533C135.359 88.3103 141.419 87.5208 138.859 83.6884C136.3 79.8559 128.822 88.203 127.755 97.0637C127.053 102.943 124.77 104.836 121.456 105.096C118.344 102.031 113.777 100.582 107.889 101.931C105.15 99.2712 105.247 91.016 104.359 86.9C103.367 82.301 98.5158 82.9449 100.867 86.9C102.844 90.2419 104.173 99.3325 101.732 104.1C98.1417 105.707 94.8395 107.923 91.9635 110.654C91.9635 110.654 89.9709 112.723 87.4112 109.021C84.8515 105.319 76.0977 102.889 72.2619 102.437C71.7931 102.384 71.3201 102.384 70.8514 102.437C70.5945 102.48 70.3623 102.62 70.1999 102.829C70.0375 103.038 69.9564 103.302 69.9722 103.569C69.9879 103.836 70.0995 104.087 70.2854 104.274C70.4712 104.462 70.7181 104.572 70.9783 104.583C78.0231 102.038 87.3441 110.715 88.6799 114.547C87.3326 116.451 86.4334 118.65 86.053 120.971C85.1442 126.917 83.8983 132.803 82.3216 138.6C80.6724 144.962 87.2321 143.866 87.2321 130.713C87.2321 117.56 97.9038 99.5011 116.255 106.231C134.606 112.961 111.986 140.194 113.479 144.333C114.971 148.472 115.188 147.307 117.538 139.888C119.464 133.756 125.15 123.791 125.8 116.249C129.367 114.494 137.815 117.56 142.964 116.249C148.113 114.938 142.695 110.776 132.665 112.968Z" fill="black"/>
<path opacity="0.2" d="M130.285 124.337C128.33 125.87 134.591 141.246 133.524 146.718C132.457 152.191 126.904 156.093 126.904 156.093L131.173 155.748C131.173 155.748 122.83 164.302 132.24 155.748C141.651 147.194 134.292 121.255 130.285 124.337Z" fill="black"/>
<path opacity="0.2" d="M161.076 96.0917C160.203 95.2102 154.308 91.1172 154.308 91.1172C152.487 96.5363 140.994 92.6118 140.128 97.64C139.263 102.668 144.263 97.64 149.733 97.64C155.203 97.64 155.703 104.538 155.703 104.538C155.703 104.538 161.949 96.9655 161.076 96.0917Z" fill="black"/>
<path opacity="0.2" d="M117.143 90.2589C120.128 89.7377 118.442 75.9715 127.666 75.1974C136.89 74.4232 121.293 62.7266 121.293 62.7266L114.449 74.4079C118.77 76.4314 114.151 90.7801 117.143 90.2589Z" fill="black"/>
<path d="M176.695 121.362C176.858 121.713 176.993 122.077 177.098 122.45C178.091 125.67 177.098 129.142 174.859 132.008C174.682 132.231 174.561 132.495 174.508 132.778C174.455 133.06 174.47 133.351 174.553 133.626C174.673 134.001 174.762 134.385 174.822 134.775C175.449 138.746 173.329 142.647 169.598 145.23C169.321 145.43 169.107 145.708 168.981 146.031C168.855 146.353 168.823 146.706 168.889 147.047C169.027 147.961 169.027 148.892 168.889 149.806C168.337 153.478 165.553 156.352 161.74 157.778C161.41 157.906 161.125 158.132 160.921 158.427C160.716 158.722 160.601 159.072 160.59 159.433C160.563 160.422 160.366 161.398 160.008 162.315C158.568 166.018 154.837 168.24 150.411 168.524C150.141 168.545 149.879 168.631 149.647 168.775C149.415 168.918 149.22 169.116 149.075 169.352C149.001 169.452 148.934 169.566 148.844 169.666C148.066 170.672 147.083 171.491 145.964 172.064C144.845 172.638 143.617 172.952 142.367 172.985C141.939 173.011 141.536 173.196 141.232 173.506C139.135 175.583 135.874 176.22 132.538 175.392L132.396 175.499C129.941 177.147 126.747 177.032 123.822 175.499C123.476 175.301 123.075 175.23 122.684 175.297C122.294 175.363 121.937 175.565 121.672 175.867C120.534 177.307 118.928 178.279 117.15 178.603C117.478 179.543 117.727 180.51 117.896 181.493C118.305 183.775 118.151 186.125 117.448 188.33C116.657 190.538 114.889 190.63 114.12 192.584L112.21 197.451C111.889 198.272 111.568 199.076 111.247 199.889C111.247 199.966 111.187 200.058 111.15 200.134C110.665 201.258 110.302 202.432 110.068 203.637C109.643 203.79 109.209 203.918 108.769 204.02C107.464 204.311 106.118 204.35 104.799 204.135C104.724 202.418 106.292 201.069 106.672 199.421C107.65 195.006 104.224 192.247 102.023 189.288C99.4931 185.87 99.4632 180.313 101.083 176.496C101.182 176.262 101.234 176.011 101.234 175.756C101.234 175.501 101.182 175.249 101.083 175.016C100.672 173.967 100.374 172.874 100.195 171.759C100.127 171.337 100.083 170.916 100.045 170.502C99.9895 169.757 99.9895 169.008 100.045 168.263C100.381 163.228 103.187 159.135 107.172 158.475C107.327 158.444 107.485 158.424 107.642 158.414C107.867 158.398 108.086 158.335 108.286 158.23C108.486 158.124 108.663 157.979 108.807 157.801C109.951 156.301 111.593 155.287 113.419 154.95C114.918 154.719 116.45 154.968 117.807 155.662C118.092 155.798 118.406 155.854 118.719 155.826C119.032 155.798 119.333 155.686 119.59 155.501L119.687 155.432C120.725 154.782 121.894 154.384 123.105 154.269C124.316 154.155 125.536 154.327 126.672 154.773C127.036 154.895 127.427 154.895 127.79 154.774C128.154 154.653 128.47 154.416 128.695 154.099C129.906 152.507 131.637 151.418 133.568 151.033C133.799 150.981 134.018 150.883 134.211 150.743C134.405 150.604 134.569 150.426 134.695 150.22C136.202 147.957 138.51 146.387 141.128 145.844C141.128 145.706 141.128 145.575 141.165 145.445C141.434 143.96 142.031 142.558 142.909 141.346C143.787 140.134 144.924 139.145 146.232 138.455C146.459 138.324 146.651 138.14 146.794 137.917C146.937 137.694 147.026 137.44 147.053 137.175C147.305 135 148.216 132.962 149.658 131.349C149.83 131.148 149.956 130.911 150.028 130.654C150.101 130.397 150.117 130.126 150.075 129.862C149.583 126.704 150.822 123.424 153.27 120.772C153.112 120.42 152.975 120.059 152.859 119.691C152.484 118.356 152.392 116.953 152.589 115.578C152.786 114.203 153.267 112.887 154.001 111.719C154.158 111.445 154.242 111.133 154.242 110.815C154.242 110.497 154.158 110.184 154.001 109.91C153.658 109.337 153.387 108.722 153.195 108.079C152.614 106.128 152.688 104.033 153.404 102.131C153.485 101.901 153.519 101.657 153.505 101.413C153.491 101.169 153.429 100.931 153.322 100.713C153.133 100.333 152.976 99.9384 152.852 99.5322C152.46 98.1055 152.386 96.6063 152.637 95.1464C152.888 93.6866 153.456 92.3036 154.299 91.1008C154.482 90.8149 154.579 90.4806 154.579 90.1388C154.579 89.7971 154.482 89.4627 154.299 89.1769C154.215 89.0542 154.14 88.9316 154.076 88.8089C153.422 87.5725 153.037 86.2054 152.947 84.8015C152.856 83.3976 153.063 81.9904 153.553 80.6765C153.664 80.3501 153.679 79.9977 153.596 79.6626C153.514 79.3276 153.338 79.0246 153.09 78.7909C152.482 78.2195 151.964 77.555 151.553 76.821C151.04 75.9022 150.696 74.894 150.538 73.847C150.173 73.3488 149.859 72.9349 149.493 72.429C148.961 72.1869 148.449 71.8997 147.964 71.5706C147.674 71.3686 147.332 71.2606 146.982 71.2606C146.632 71.2606 146.29 71.3686 146.001 71.5706C144.546 72.6128 142.819 73.1792 141.046 73.1955C139.437 73.1853 137.864 72.7155 136.501 71.8388C136.179 71.6319 135.799 71.5421 135.421 71.5838C135.043 71.6255 134.69 71.7963 134.419 72.0688C132.729 73.8578 130.419 74.8883 127.993 74.9355C126.949 74.93 125.915 74.73 124.941 74.3453C124.65 74.225 124.333 74.1894 124.023 74.2421C123.714 74.2948 123.425 74.4339 123.187 74.6442C121.551 76.1723 119.428 77.0337 117.217 77.0663C115.817 77.0537 114.44 76.6962 113.202 76.0239C112.862 75.8327 112.47 75.7606 112.086 75.8187C111.702 75.8768 111.347 76.0619 111.075 76.3458C110.231 77.2752 109.213 78.0208 108.082 78.5382C106.951 79.0557 105.731 79.3345 104.493 79.3581C102.521 79.3383 100.611 78.6423 99.0677 77.3806C98.7484 77.1232 98.3542 76.9834 97.9483 76.9834C97.5424 76.9834 97.1483 77.1232 96.8289 77.3806C95.3628 78.6049 93.5444 79.2984 91.6556 79.3539C89.7668 79.4093 87.9129 78.8235 86.3811 77.6872C86.0848 77.4775 85.7334 77.3653 85.3736 77.3653C85.0138 77.3653 84.6625 77.4775 84.3661 77.6872C82.8959 78.7605 81.14 79.3439 79.3363 79.3581C76.9223 79.3122 74.6227 78.2936 72.9332 76.5221C72.6746 76.2634 72.3453 76.0919 71.9894 76.0302C71.6334 75.9686 71.2676 76.0199 70.9407 76.1772C70.2661 76.5117 69.5507 76.7515 68.8138 76.89C68.5079 76.9511 68.2237 77.0958 67.9912 77.309C67.7587 77.5221 67.5866 77.7958 67.4929 78.1011C67.3144 78.633 67.087 79.1464 66.8138 79.634C66.4014 80.3647 65.8858 81.0285 65.2839 81.6039C65.0345 81.8382 64.8566 82.1417 64.7718 82.4778C64.687 82.8139 64.699 83.168 64.8063 83.4972C65.3006 84.8085 65.5106 86.2147 65.4217 87.6179C65.3328 89.0211 64.947 90.3875 64.2914 91.622C64.2242 91.7523 64.1496 91.8673 64.075 91.9899C63.8892 92.2758 63.79 92.6119 63.79 92.9557C63.79 93.2994 63.8892 93.6355 64.075 93.9215C64.9187 95.1242 65.4866 96.5075 65.736 97.9676C65.9854 99.4277 65.91 100.927 65.5153 102.353C65.3864 102.757 65.2292 103.152 65.0451 103.533C64.94 103.753 64.8786 103.993 64.8645 104.238C64.8504 104.482 64.8839 104.728 64.963 104.959C65.6733 106.86 65.7495 108.949 65.1795 110.899C64.9804 111.543 64.7073 112.161 64.366 112.739C64.2046 113.011 64.1191 113.324 64.1191 113.643C64.1191 113.962 64.2046 114.275 64.366 114.548C65.0983 115.712 65.5797 117.023 65.7779 118.394C65.9761 119.765 65.8866 121.164 65.5153 122.496C65.4018 122.863 65.2647 123.221 65.1048 123.569C67.5526 126.221 68.7914 129.51 68.3063 132.66C68.2543 132.931 68.2642 133.21 68.3355 133.476C68.4067 133.742 68.5373 133.988 68.7168 134.193C70.1574 135.804 71.0708 137.839 71.3287 140.011C71.3543 140.276 71.4414 140.532 71.583 140.756C71.7245 140.98 71.9163 141.166 72.1422 141.298C76.6198 143.904 79.5154 151.577 74.1497 154.85C73.8138 155.057 73.478 155.233 73.1273 155.409C72.0452 155.923 70.8884 156.306 69.8063 156.774C66.3884 158.215 64.2391 161.242 61.3884 162.032C59.8585 162.453 58.1272 162.223 55.8883 160.759C52.5749 158.575 48.7913 154.175 49.5226 149.906C49.5827 149.561 49.5441 149.207 49.4117 148.884C49.2792 148.562 49.0585 148.286 48.7764 148.089C45.045 145.514 42.9256 141.597 43.5524 137.634C43.6226 137.249 43.7123 136.868 43.8211 136.492C43.9049 136.218 43.9221 135.926 43.8714 135.643C43.8207 135.36 43.7035 135.094 43.5301 134.867C41.2241 132.001 40.2614 128.536 41.2465 125.302C41.3645 124.934 41.5015 124.573 41.6569 124.221C38.8882 121.224 37.6494 117.414 38.7241 113.904C38.9238 113.264 39.1942 112.649 39.53 112.072C39.6931 111.8 39.7795 111.487 39.7795 111.168C39.7795 110.848 39.6931 110.535 39.53 110.263C38.801 109.099 38.322 107.788 38.1251 106.419C37.9282 105.05 38.0179 103.653 38.3882 102.322C38.5112 101.91 38.6685 101.51 38.8584 101.126C38.9637 100.908 39.0252 100.67 39.0393 100.426C39.0534 100.182 39.0198 99.9384 38.9405 99.7085C38.2285 97.8052 38.1524 95.713 38.7241 93.7605C39.0946 92.5449 39.7243 91.4294 40.5674 90.4952C40.8364 90.2023 41.0036 89.8262 41.0427 89.4255C41.0819 89.0248 40.9908 88.6221 40.7838 88.2801C38.545 84.6776 38.1196 80.5462 39.9629 77.2733C40.3735 76.5436 40.8893 75.882 41.4927 75.311C41.7431 75.0759 41.9211 74.7706 42.0046 74.4328C42.0881 74.095 42.0736 73.7395 41.9629 73.4101C41.4733 72.0988 41.2665 70.694 41.3567 69.2927C41.4469 67.8913 41.8319 66.5267 42.4853 65.293C43.652 63.2727 45.5173 61.7783 47.7092 61.108C47.9815 61.0159 48.2271 60.8555 48.4239 60.6414C48.6207 60.4273 48.7623 60.1661 48.8361 59.8816C49.8435 55.6582 52.4704 52.3929 56.1048 51.5191C57.2182 51.2503 58.3729 51.2138 59.5003 51.4118C59.75 51.4595 60.007 51.4461 60.2507 51.3729C60.4945 51.2997 60.718 51.1686 60.9033 50.9903C61.7323 50.1209 62.7238 49.4324 63.8181 48.9662C64.9125 48.4999 66.0873 48.2655 67.272 48.277C68.4568 48.2884 69.6271 48.5455 70.7127 49.0328C71.7984 49.5201 72.777 50.2276 73.59 51.1129C73.8529 51.3723 74.1865 51.5434 74.5463 51.6036C74.9062 51.6639 75.2753 51.6103 75.6049 51.4502C76.7771 50.8588 78.0676 50.5569 79.3736 50.5687C81.1766 50.5802 82.9326 51.1609 84.4034 52.232C84.6986 52.4447 85.0504 52.5589 85.4109 52.5589C85.7715 52.5589 86.1233 52.4447 86.4184 52.232C87.8888 51.16 89.6451 50.5792 91.4483 50.5687C93.4167 50.5915 95.3222 51.2843 96.8662 52.5386C97.1827 52.8025 97.578 52.9465 97.9856 52.9465C98.3933 52.9465 98.7885 52.8025 99.105 52.5386C100.653 51.2868 102.56 50.5944 104.53 50.5687C105.931 50.5723 107.309 50.9275 108.545 51.6035C108.886 51.795 109.279 51.8679 109.664 51.8113C110.048 51.7546 110.405 51.5714 110.68 51.2892C111.523 50.3593 112.539 49.6129 113.669 49.0941C114.798 48.5753 116.017 48.2948 117.254 48.2692C118.299 48.2697 119.335 48.4725 120.307 48.8671C120.599 48.9844 120.917 49.0171 121.226 48.9617C121.536 48.9063 121.824 48.7649 122.06 48.5528C123.7 47.0334 125.822 46.178 128.031 46.146C129.635 46.1582 131.205 46.625 132.568 47.4951C132.89 47.7037 133.271 47.7938 133.649 47.7507C134.028 47.7075 134.381 47.5336 134.65 47.2575C136.344 45.4715 138.656 44.4441 141.083 44.3984C142.852 44.4233 144.571 44.9978 146.016 46.0464C146.311 46.2591 146.663 46.3733 147.023 46.3733C147.384 46.3733 147.736 46.2591 148.031 46.0464C149.483 45.0058 151.208 44.4418 152.979 44.4291C154.314 44.4592 155.628 44.7802 156.833 45.3708C158.039 45.9615 159.108 46.8083 159.971 47.8553C160.257 48.2038 160.664 48.4238 161.105 48.4685C161.487 48.5056 161.866 48.5696 162.24 48.6601C165.882 49.5339 168.516 52.7992 169.523 57.0226C169.592 57.3064 169.73 57.5675 169.925 57.7809C170.119 57.9943 170.364 58.1528 170.635 58.2413C172.843 58.9067 174.725 60.4042 175.904 62.434C176.557 63.6727 176.939 65.043 177.023 66.449C177.106 67.855 176.89 69.2629 176.389 70.5741C176.282 70.9033 176.27 71.2574 176.355 71.5935C176.439 71.9295 176.617 72.2331 176.867 72.4674C177.469 73.0427 177.984 73.7066 178.397 74.4372C180.232 77.7102 179.785 81.8339 177.576 85.444C177.367 85.7856 177.276 86.1886 177.315 86.5897C177.354 86.9907 177.522 87.367 177.792 87.6592C178.63 88.5973 179.259 89.7115 179.635 90.9245C180.209 92.8761 180.136 94.9684 179.426 96.8724C179.344 97.1017 179.308 97.3462 179.322 97.5903C179.336 97.8344 179.4 98.0729 179.509 98.2905C179.694 98.6738 179.851 99.071 179.979 99.4785C180.34 100.803 180.423 102.191 180.222 103.551C180.021 104.91 179.542 106.211 178.814 107.366C178.651 107.638 178.565 107.951 178.565 108.27C178.565 108.59 178.651 108.903 178.814 109.175C179.151 109.752 179.421 110.366 179.62 111.007C180.703 114.555 179.456 118.365 176.695 121.362Z" fill="#00ABC8"/>
<g opacity="0.2">
<path d="M108.957 178.474H108.897C108.843 178.465 108.79 178.446 108.743 178.417C108.696 178.387 108.655 178.349 108.623 178.303C108.59 178.258 108.566 178.206 108.553 178.151C108.54 178.096 108.538 178.039 108.546 177.983C109.188 173.813 111.114 170.318 113.024 167.084C113.594 166.01 114.324 165.035 115.188 164.194C116.935 162.661 119.338 162.998 121.457 163.282C121.95 163.351 122.435 163.412 122.89 163.45C126.193 163.796 129.524 163.717 132.808 163.213C142.33 161.595 146.532 154.229 150.987 146.419C153.405 142.188 155.905 137.811 159.33 134.37C164.718 129.004 165.823 116.848 164.905 111.858C163.851 105.99 163.121 100.066 162.718 94.1135C162.581 91.1917 162.604 88.2642 162.786 85.3449C163.009 80.355 163.233 75.1888 161.942 70.8735C161.102 68.0688 159.375 65.6316 157.036 63.9466C154.697 62.2616 151.878 61.4248 149.024 61.5683C145.062 61.7676 140.927 62.8023 136.927 63.8065C134.517 64.412 132.024 65.0328 129.614 65.4621C121.345 66.9261 114.987 67.3323 108.994 66.7728C101.132 66.0435 93.2286 65.8899 85.3448 66.3129C82.3572 66.4047 79.3669 66.3151 76.3895 66.0446C71.7552 65.715 66.9641 65.3701 62.367 66.5122C58.2775 67.5316 56.5685 71.8776 55.061 75.7637L54.7028 76.6682C52.0759 83.2907 53.8894 90.2121 55.0834 94.7957L55.2924 95.5622C55.9939 98.2986 55.0312 102.867 54.0983 107.29C53.4559 109.97 53.0069 112.696 52.755 115.445C52.2103 126.942 57.7103 136.684 63.0312 146.105C64.2327 148.243 65.479 150.458 66.6357 152.65C66.6617 152.701 66.6778 152.756 66.683 152.813C66.6883 152.869 66.6826 152.927 66.6663 152.981C66.65 153.035 66.6234 153.086 66.5881 153.13C66.5528 153.174 66.5094 153.21 66.4604 153.237C66.4114 153.264 66.3577 153.28 66.3025 153.285C66.2473 153.291 66.1916 153.285 66.1386 153.268C66.0856 153.251 66.0363 153.224 65.9935 153.188C65.9508 153.152 65.9154 153.107 65.8895 153.057C64.7477 150.872 63.5014 148.672 62.2999 146.534C56.9864 137.022 51.3894 127.142 51.9416 115.414C52.1942 112.616 52.6507 109.841 53.3073 107.113C54.2178 102.79 55.1581 98.3216 54.5013 95.7921L54.2998 95.0256C53.1431 90.6183 51.2177 83.237 53.9491 76.3539L54.3073 75.4495C55.7999 71.617 57.6805 66.8111 62.1954 65.6844C66.9119 64.5116 71.7701 64.8565 76.4716 65.1938C79.4091 65.4633 82.3596 65.5529 85.3075 65.4621C93.2337 65.038 101.179 65.1942 109.084 65.9296C114.994 66.4738 121.285 66.0753 129.479 64.6266C131.86 64.205 134.338 63.5842 136.733 62.9786C140.771 61.9669 144.942 60.9168 148.994 60.7175C152.025 60.5676 155.019 61.4537 157.508 63.2372C159.996 65.0207 161.839 67.601 162.748 70.5746C164.084 75.0356 163.853 80.2784 163.629 85.3449C163.444 88.2308 163.421 91.1253 163.562 94.0139C163.963 99.9275 164.688 105.813 165.733 111.643C166.681 116.786 165.524 129.326 159.927 134.937C156.577 138.286 154.106 142.602 151.718 146.802C147.36 154.467 142.86 162.324 132.95 164.002C129.6 164.519 126.2 164.604 122.83 164.255C122.36 164.217 121.867 164.148 121.338 164.079C119.293 163.811 117.173 163.527 115.718 164.799C114.922 165.579 114.25 166.481 113.726 167.474C111.852 170.632 109.994 174.051 109.352 178.06C109.346 178.166 109.302 178.266 109.229 178.342C109.157 178.418 109.06 178.465 108.957 178.474Z" fill="white"/>
</g>
<path opacity="0.2" d="M108.755 204.021C107.45 204.312 106.104 204.351 104.785 204.136C104.71 202.419 106.277 201.07 106.658 199.422C107.635 195.007 104.21 192.247 102.008 189.289C99.4786 185.87 99.4488 180.313 101.068 176.496C101.168 176.263 101.219 176.011 101.219 175.756C101.219 175.502 101.168 175.25 101.068 175.017C100.658 173.967 100.36 172.875 100.18 171.759C100.113 171.337 100.068 170.916 100.031 170.502C100.144 171.161 100.442 171.772 100.889 172.26C101.336 172.748 101.912 173.09 102.546 173.246C107.815 174.863 101.128 176.619 101.128 180.267C101.128 183.916 102.829 190.645 107.098 192.684C111.367 194.723 105.591 200.878 106.986 202.488C107.513 203.071 108.107 203.586 108.755 204.021Z" fill="black"/>
<path opacity="0.2" d="M155.927 86.8925C156.934 89.5139 160.203 90.1194 157.643 91.3458C155.083 92.5722 154.083 98.5738 156.792 101.348C159.501 104.123 153.509 103.978 154.934 107.197C156.36 110.416 161.195 109.711 158.919 113.206C156.643 116.701 154.792 119.913 156.069 121.369C157.345 122.826 155.076 121.599 153.651 124.336C152.225 127.072 151.949 130.245 154.651 132.384C157.352 134.522 151.807 131.617 150.098 133.648C148.389 135.68 149.24 138.408 150.098 139.903C150.957 141.398 148.389 137.389 146.113 139.903C143.837 142.417 142.382 143.406 142.554 146.801C142.725 150.197 140.419 145.736 139.285 147.522C138.151 149.308 140.703 153.654 136.442 154.857C132.18 156.061 130.18 153.746 129.039 155.769C127.897 157.793 128.039 160.414 126.621 158.835C125.203 157.256 123.777 155.478 121.777 156.934C119.777 158.391 119.65 159.564 118.367 158.253C117.083 156.942 112.397 155.478 110.971 157.379C109.546 159.28 112.135 161.763 110.27 161.472C108.404 161.181 104.979 159.61 103.143 161.472C101.549 163.43 100.481 165.781 100.046 168.294C100.382 163.258 103.188 159.165 107.173 158.506C107.328 158.475 107.485 158.454 107.643 158.444C107.867 158.428 108.086 158.366 108.286 158.26C108.486 158.155 108.663 158.009 108.807 157.831C109.952 156.332 111.593 155.317 113.419 154.98C114.918 154.749 116.45 154.998 117.807 155.693C118.092 155.828 118.407 155.885 118.72 155.856C119.033 155.828 119.333 155.716 119.591 155.532L119.688 155.463C120.726 154.812 121.895 154.414 123.106 154.3C124.317 154.185 125.537 154.358 126.673 154.804C127.036 154.925 127.428 154.926 127.791 154.804C128.154 154.683 128.471 154.447 128.695 154.129C129.906 152.537 131.637 151.448 133.568 151.063C133.799 151.012 134.018 150.913 134.212 150.774C134.405 150.634 134.57 150.456 134.695 150.251C136.203 147.987 138.511 146.417 141.128 145.874C141.128 145.736 141.128 145.606 141.165 145.475C141.435 143.99 142.031 142.588 142.909 141.376C143.788 140.165 144.925 139.176 146.233 138.485C146.459 138.354 146.652 138.17 146.794 137.947C146.937 137.725 147.026 137.47 147.054 137.205C147.305 135.031 148.216 132.993 149.658 131.38C149.83 131.179 149.957 130.941 150.029 130.684C150.101 130.427 150.117 130.157 150.076 129.893C149.583 126.735 150.822 123.454 153.27 120.802C153.112 120.451 152.975 120.09 152.86 119.721C152.48 118.381 152.385 116.973 152.582 115.593C152.779 114.212 153.263 112.891 154.001 111.719C154.159 111.445 154.242 111.133 154.242 110.815C154.242 110.496 154.159 110.184 154.001 109.91C153.658 109.337 153.387 108.722 153.195 108.078C152.614 106.128 152.688 104.033 153.404 102.13C153.485 101.901 153.52 101.656 153.506 101.413C153.492 101.169 153.429 100.93 153.322 100.712C153.134 100.333 152.976 99.9382 152.852 99.5319C152.46 98.1052 152.387 96.6061 152.637 95.1462C152.888 93.6863 153.456 92.3034 154.3 91.1005C154.482 90.8146 154.579 90.4803 154.579 90.1386C154.579 89.7968 154.482 89.4625 154.3 89.1766C154.215 89.054 154.141 88.9313 154.076 88.8087C153.422 87.5723 153.037 86.2051 152.947 84.8013C152.857 83.3974 153.064 81.9901 153.554 80.6762C153.664 80.3498 153.679 79.9974 153.597 79.6624C153.515 79.3273 153.339 79.0243 153.091 78.7907C152.483 78.2192 151.964 77.5548 151.554 76.8208C151.04 75.902 150.696 74.8938 150.539 73.8468C150.173 73.3486 149.86 72.9347 149.494 72.4288C148.962 72.1866 148.45 71.8995 147.964 71.5703C147.675 71.3683 147.333 71.2603 146.983 71.2603C146.633 71.2603 146.291 71.3683 146.001 71.5703C144.547 72.6125 142.82 73.1789 141.046 73.1953C139.438 73.185 137.864 72.7153 136.501 71.8386C136.179 71.6317 135.799 71.5418 135.421 71.5835C135.044 71.6252 134.691 71.796 134.419 72.0685C132.73 73.8576 130.42 74.888 127.994 74.9352C126.95 74.9298 125.916 74.7298 124.941 74.345C124.651 74.2248 124.333 74.1891 124.024 74.2418C123.714 74.2946 123.425 74.4337 123.188 74.6439C121.552 76.172 119.429 77.0334 117.218 77.0661C115.817 77.0534 114.44 76.6959 113.203 76.0236C112.862 75.8324 112.47 75.7604 112.087 75.8185C111.703 75.8766 111.348 76.0616 111.076 76.3456C110.231 77.2749 109.213 78.0205 108.082 78.538C106.952 79.0555 105.731 79.3343 104.494 79.3579C102.521 79.3381 100.612 78.642 99.0682 77.3803C98.7488 77.123 98.3547 76.9831 97.9488 76.9831C97.5429 76.9831 97.1487 77.123 96.8294 77.3803C95.3632 78.6046 93.5449 79.2982 91.6561 79.3536C89.7673 79.4091 87.9134 78.8232 86.3815 77.6869C86.0852 77.4773 85.7339 77.365 85.3741 77.365C85.0143 77.365 84.6629 77.4773 84.3666 77.6869C82.8964 78.7603 81.1405 79.3436 79.3367 79.3579C76.9228 79.3119 74.6231 78.2934 72.9337 76.5218C72.675 76.2632 72.3458 76.0916 71.9898 76.03C71.6338 75.9684 71.268 76.0196 70.9411 76.1769C70.2665 76.5114 69.5511 76.7512 68.8143 76.8898C68.5083 76.9508 68.2242 77.0956 67.9917 77.3087C67.7592 77.5219 67.587 77.7955 67.4933 78.1008C67.3149 78.6328 67.0875 79.1461 66.8142 79.6338C66.4019 80.3645 65.8863 81.0283 65.2844 81.6037C65.0349 81.8379 64.857 82.1415 64.7722 82.4776C64.6874 82.8136 64.6995 83.1677 64.8068 83.4969C65.3011 84.8082 65.5111 86.2145 65.4221 87.6177C65.3332 89.0209 64.9475 90.3873 64.2918 91.6217C64.2247 91.752 64.15 91.867 64.0754 91.9896C63.8896 92.2756 63.7905 92.6117 63.7905 92.9554C63.7905 93.2992 63.8896 93.6353 64.0754 93.9212C64.9192 95.124 65.487 96.5072 65.7364 97.9674C65.9859 99.4275 65.9104 100.927 65.5157 102.353C65.3868 102.757 65.2297 103.152 65.0456 103.533C64.9404 103.753 64.8791 103.993 64.865 104.237C64.8509 104.482 64.8844 104.727 64.9635 104.959C65.6738 106.86 65.7499 108.949 65.1799 110.899C64.9809 111.543 64.7078 112.161 64.3665 112.739C64.205 113.011 64.1196 113.324 64.1196 113.643C64.1196 113.962 64.205 114.275 64.3665 114.547C65.0987 115.712 65.5801 117.023 65.7783 118.394C65.9765 119.765 65.887 121.164 65.5157 122.496C65.4023 122.863 65.2651 123.221 65.1053 123.569C67.5531 126.221 68.7919 129.509 68.3068 132.66C68.2547 132.93 68.2647 133.21 68.3359 133.476C68.4072 133.742 68.5377 133.987 68.7172 134.193C70.1579 135.804 71.0713 137.839 71.3292 140.01C71.3547 140.276 71.4419 140.532 71.5834 140.756C71.725 140.98 71.9167 141.166 72.1426 141.298C76.6203 143.904 79.5158 151.577 74.1501 154.85C73.8143 155.057 73.4785 155.233 73.1277 155.409C74.2695 152.703 75.165 149.277 73.874 146.794C71.4561 141.988 67.6128 144.172 67.1575 142.134C66.7023 140.095 70.1426 140.769 68.5754 137.358C67.0083 133.947 65.456 134.829 65.5903 133.365C65.7247 131.901 66.8665 131.165 65.7321 128.252C64.5978 125.34 58.3291 126.428 58.3291 124.343C58.3291 122.258 63.7396 124.297 64.2993 120.511C64.859 116.724 61.5903 115.575 61.4485 113.221C61.3067 110.868 63.9933 111.466 64.4336 108.232C64.8739 104.997 62.0082 104.399 62.15 102.437C62.2918 100.475 64.859 101.67 64.859 98.7424C64.859 95.8144 59.456 92.4572 62.15 89.9661C64.8441 87.475 65.4336 83.5352 62.15 82.3625C58.8664 81.1898 66.568 80.3236 64.5754 78.714C62.5829 77.1044 62.5829 77.9475 60.4485 76.7441C58.3142 75.5407 59.3217 72.6281 59.3217 72.6281C59.3217 72.6281 62.0082 76.9587 71.1202 75.2035C71.1202 75.2035 75.2471 78.1621 78.9486 77.9245C82.6502 77.6869 83.5009 76.8054 85.2099 76.5065C86.9189 76.2076 90.4711 78.714 93.0308 76.7441C95.5905 74.7742 98.2995 73.9004 99.5756 75.2801C100.852 76.6598 105.412 76.9664 107.688 75.2801C109.964 73.5938 109.688 71.4477 111.419 71.6316C113.15 71.8156 112.844 73.7625 114.688 74.7742C115.791 75.3002 117.024 75.4697 118.223 75.2603C119.423 75.0509 120.532 74.4725 121.404 73.6015C123.262 71.7006 125.964 74.0384 128.807 73.4559C131.65 72.8733 133.359 69.0639 134.927 69.0639C136.494 69.0639 138.128 70.9878 141.471 71.6316C144.815 72.2755 149.576 67.3163 149.576 67.3163C149.576 67.3163 151.434 65.7067 153.136 68.3357C154.837 70.9648 158.591 67.0633 158.822 66.8027C158.733 67.1247 157.121 72.2142 152.569 72.5897C147.874 72.9807 153.419 78.5837 157.27 77.8939C161.121 77.204 162.24 79.7028 159.397 80.8679C156.554 82.0329 154.934 84.2711 155.927 86.8925Z" fill="black"/>
<path opacity="0.2" d="M176.696 121.362C176.859 121.713 176.994 122.077 177.099 122.45C178.091 125.67 177.099 129.142 174.86 132.008C174.683 132.231 174.562 132.495 174.509 132.778C174.455 133.06 174.471 133.351 174.554 133.626C174.673 134.001 174.763 134.385 174.823 134.775C175.449 138.746 173.33 142.647 169.599 145.23C169.322 145.43 169.107 145.708 168.982 146.031C168.856 146.353 168.824 146.706 168.89 147.047C169.028 147.961 169.028 148.892 168.89 149.806C168.337 153.478 165.554 156.352 161.74 157.778C161.411 157.906 161.126 158.132 160.922 158.427C160.717 158.722 160.602 159.072 160.591 159.433C160.564 160.422 160.367 161.398 160.009 162.315C158.569 166.018 154.837 168.24 150.412 168.524C150.142 168.545 149.88 168.631 149.648 168.775C149.416 168.918 149.22 169.116 149.076 169.352C149.001 169.452 148.934 169.566 148.845 169.666C148.067 170.672 147.084 171.491 145.965 172.064C144.845 172.638 143.617 172.952 142.367 172.985C141.94 173.011 141.536 173.196 141.233 173.506C139.136 175.583 135.874 176.22 132.539 175.392L132.397 175.499C129.942 177.147 126.748 177.032 123.822 175.499C123.476 175.301 123.075 175.23 122.685 175.297C122.294 175.363 121.938 175.565 121.673 175.867C120.534 177.307 118.929 178.279 117.15 178.603C117.478 179.543 117.728 180.51 117.897 181.493C118.306 183.775 118.152 186.125 117.449 188.33C116.658 190.538 114.889 190.63 114.121 192.584L112.21 197.451C111.889 198.272 111.568 199.076 111.247 199.889C110.755 197.95 112.307 196.601 112.688 193.42C113.173 189.388 117.061 189.104 116.964 185.088C116.867 181.072 114.822 181.439 111.979 180.121C109.136 178.803 111.695 177.638 113.971 177.638C116.247 177.638 119.24 176.319 119.382 174.135C119.524 171.95 115.651 173.69 115.531 170.502C115.412 167.313 121.651 171.789 123.509 172.954C125.367 174.119 126.636 174.572 128.621 174.135C130.606 173.698 132.471 170.624 133.889 173.836C135.307 177.047 138.024 173.989 138.733 172.081C139.442 170.172 136.74 167.121 138.875 168.248C141.009 169.375 141.718 170.325 144.285 170.494C146.852 170.663 146.27 168.424 147.404 165.565C148.539 162.706 149.972 166.516 153.099 165.91C156.225 165.305 160.031 162.308 158.225 158.337C156.419 154.367 152.957 156.291 153.524 152.78C154.091 149.27 158.225 155.126 161.091 155.747C163.957 156.367 167.614 147.821 166.046 145.568C164.479 143.314 166.337 144.035 169.897 142.847C173.457 141.659 173.308 138.317 173.628 136.27C173.949 134.224 171.352 133.35 172.487 131.449C173.621 129.548 175.614 129.402 176.046 125.899C176.479 122.397 171.92 122.067 173.628 121.216C175.337 120.365 176.472 118.587 177.472 115.521C178.472 112.455 174.763 112.31 176.046 109.818C177.33 107.327 178.748 105.296 178.285 101.341C177.823 97.386 176.434 100.322 172.449 99.5322C168.464 98.7427 175.576 97.3937 178.002 96.3742C180.427 95.3548 179.002 91.9899 177.255 90.6715C175.509 89.3532 175.315 88.625 175.449 86.0036C175.584 83.3822 179.457 80.4772 175.449 77.9018C171.442 75.3264 174.748 70.5051 175.315 68.8955C175.882 67.2859 174.606 62.319 171.621 60.832C168.636 59.345 164.509 61.0083 166.927 58.5325C169.345 56.0568 167.211 54.8764 164.934 51.2279C162.658 47.5794 159.666 52.2473 158.531 50.1931C157.397 48.1389 157.681 47.7173 153.121 46.5446C148.561 45.3719 149.994 49.6106 147.427 49.3193C144.86 49.028 146.016 46.0464 140.569 45.9621C135.121 45.8778 135.591 50.3541 132.748 50.3541C129.904 50.3541 131.897 48.1542 127.763 47.5717C123.628 46.9892 124.897 50.6453 121.912 51.8104C118.927 52.9755 120.068 49.7562 116.374 49.9632C112.68 50.1701 113.703 54.4778 111.68 55.2443C109.658 56.0108 108.531 51.5805 104.285 51.933C100.038 52.2856 101.718 56.601 98.3146 55.2443C94.9116 53.8876 94.1877 52.2243 90.0608 52.2243C85.9339 52.2243 88.21 55.7272 86.0757 56.1641C83.9413 56.601 83.3742 52.9525 80.3816 52.2243C77.3891 51.4961 74.8293 54.5238 74.6875 56.601C74.5458 58.6782 73.8368 56.4553 73.8368 53.535C73.8368 50.6147 70.5681 48.9361 65.2994 50.6147C60.0307 52.2933 65.7323 60.5791 65.2994 60.809C64.8666 61.039 62.4487 57.0379 60.18 53.6806C57.9113 50.3234 55.3367 52.7992 55.3367 52.7992L52.3516 55.2366C49.3665 57.6817 51.9188 62.1351 50.4187 64.2046C48.9187 66.2741 47.2247 62.5873 44.8068 64.2046C42.3888 65.8219 43.0978 70.0452 43.2396 71.5859C43.3814 73.1265 45.9411 76.1848 43.9858 75.5946C42.0306 75.0044 42.4112 77.0586 40.5679 79.1895C38.7246 81.3203 39.1425 83.7884 41.3142 85.6817C43.4859 87.5749 47.2844 90.066 43.4485 90.066C39.6127 90.066 40.747 94.4503 39.6724 97.6006C38.5978 100.751 42.7321 99.1336 43.0232 100.736C43.3142 102.338 41.1724 102.345 39.9411 104.522C38.7097 106.699 42.0232 108.354 42.4485 110.654C42.8739 112.953 41.1724 111.42 40.1724 114.486C39.1724 117.552 41.5978 120.749 43.0232 122.358C44.4486 123.968 42.7321 124.842 42.4485 128.207C42.1649 131.572 44.3067 131.119 46.4336 133.572C48.5605 136.025 43.9784 136.408 46.4336 141.904C48.8889 147.4 50.4262 143.36 53.2695 144.349C56.1128 145.338 51.5605 148.043 50.8516 150.519C50.1426 152.995 54.7471 161.856 61.4636 162.017C59.9337 162.438 58.2024 162.208 55.9636 160.744C52.6501 158.56 48.8665 154.16 49.5978 149.891C49.6579 149.546 49.6193 149.191 49.4869 148.869C49.3544 148.546 49.1337 148.27 48.8516 148.074C45.1202 145.499 43.0008 141.582 43.6277 137.619C43.6978 137.234 43.7875 136.853 43.8963 136.477C43.9801 136.202 43.9973 135.911 43.9466 135.628C43.8959 135.344 43.7788 135.078 43.6053 134.852C41.2993 131.985 40.3366 128.521 41.3217 125.286C41.4397 124.919 41.5767 124.558 41.7321 124.206C38.9634 121.209 37.7246 117.399 38.7993 113.889C38.999 113.248 39.2694 112.634 39.6052 112.057C39.7683 111.785 39.8547 111.472 39.8547 111.152C39.8547 110.833 39.7683 110.52 39.6052 110.248C38.8762 109.084 38.3972 107.773 38.2003 106.404C38.0034 105.034 38.0931 103.638 38.4634 102.307C38.5864 101.895 38.7437 101.495 38.9336 101.111C39.0389 100.892 39.1004 100.654 39.1145 100.411C39.1286 100.167 39.095 99.9231 39.0157 99.6931C38.3037 97.7899 38.2276 95.6976 38.7993 93.7452C39.1698 92.5296 39.7995 91.4141 40.6426 90.4799C40.9116 90.187 41.0788 89.8109 41.1179 89.4102C41.1571 89.0095 41.066 88.6067 40.859 88.2647C38.6202 84.6622 38.1948 80.5308 40.0381 77.2579C40.4487 76.5283 40.9645 75.8667 41.5679 75.2957C41.8183 75.0605 41.9963 74.7552 42.0798 74.4175C42.1634 74.0797 42.1488 73.7242 42.0381 73.3948C41.5485 72.0835 41.3417 70.6787 41.4319 69.2774C41.5221 67.876 41.9071 66.5114 42.5605 65.2777C43.7272 63.2573 45.5925 61.763 47.7844 61.0926C48.0567 61.0006 48.3023 60.8402 48.4991 60.6261C48.6959 60.4119 48.8375 60.1508 48.9113 59.8662C49.9187 55.6429 52.5456 52.3776 56.18 51.5038C57.2934 51.235 58.4481 51.1985 59.5755 51.3965C59.8252 51.4441 60.0822 51.4308 60.326 51.3576C60.5697 51.2843 60.7932 51.1533 60.9785 50.9749C61.8075 50.1056 62.7989 49.4171 63.8933 48.9508C64.9877 48.4846 66.1625 48.2502 67.3472 48.2616C68.532 48.2731 69.7023 48.5302 70.7879 49.0175C71.8736 49.5048 72.8522 50.2123 73.6652 51.0976C73.9281 51.3569 74.2617 51.5281 74.6215 51.5883C74.9814 51.6485 75.3505 51.595 75.6801 51.4348C76.8309 50.8603 78.0946 50.564 79.3741 50.5687C81.1772 50.5802 82.9331 51.1609 84.404 52.232C84.6991 52.4447 85.0509 52.5589 85.4115 52.5589C85.772 52.5589 86.1238 52.4447 86.419 52.232C87.8894 51.16 89.6457 50.5792 91.4488 50.5687C93.4173 50.5915 95.3228 51.2843 96.8668 52.5386C97.1833 52.8025 97.5785 52.9465 97.9862 52.9465C98.3939 52.9465 98.7891 52.8025 99.1056 52.5386C100.654 51.2868 102.561 50.5944 104.531 50.5687C105.931 50.5723 107.31 50.9275 108.546 51.6035C108.887 51.795 109.279 51.8679 109.664 51.8113C110.049 51.7546 110.405 51.5714 110.68 51.2892C111.524 50.3593 112.54 49.6129 113.669 49.0941C114.799 48.5753 116.018 48.2948 117.255 48.2692C118.3 48.2697 119.335 48.4725 120.307 48.8671C120.6 48.9844 120.918 49.0171 121.227 48.9617C121.536 48.9063 121.825 48.7649 122.061 48.5528C123.701 47.0334 125.823 46.178 128.031 46.146C129.636 46.1582 131.206 46.625 132.569 47.4951C132.89 47.7037 133.272 47.7938 133.65 47.7507C134.028 47.7075 134.381 47.5336 134.651 47.2575C136.345 45.4715 138.656 44.4441 141.083 44.3984C142.852 44.4233 144.572 44.9978 146.016 46.0464C146.311 46.2591 146.663 46.3733 147.024 46.3733C147.384 46.3733 147.736 46.2591 148.031 46.0464C149.483 45.0058 151.209 44.4418 152.979 44.4291C154.314 44.4592 155.628 44.7802 156.834 45.3708C158.039 45.9615 159.109 46.8083 159.972 47.8553C160.257 48.2038 160.665 48.4238 161.106 48.4685C161.488 48.5056 161.867 48.5696 162.24 48.6601C165.882 49.5339 168.516 52.7992 169.524 57.0226C169.592 57.3064 169.73 57.5675 169.925 57.7809C170.12 57.9943 170.365 58.1528 170.636 58.2413C172.844 58.9067 174.726 60.4042 175.905 62.434C176.558 63.6727 176.939 65.043 177.023 66.449C177.107 67.855 176.891 69.2629 176.39 70.5741C176.282 70.9033 176.27 71.2574 176.355 71.5935C176.44 71.9295 176.618 72.2331 176.867 72.4674C177.469 73.0427 177.985 73.7066 178.397 74.4372C180.233 77.7102 179.785 81.8339 177.576 85.444C177.368 85.7856 177.276 86.1886 177.315 86.5897C177.355 86.9907 177.522 87.367 177.793 87.6592C178.631 88.5973 179.26 89.7115 179.636 90.9245C180.21 92.8761 180.137 94.9684 179.427 96.8724C179.344 97.1017 179.309 97.3462 179.323 97.5903C179.337 97.8344 179.4 98.0729 179.509 98.2905C179.695 98.6738 179.852 99.071 179.979 99.4785C180.34 100.803 180.423 102.191 180.223 103.551C180.022 104.91 179.542 106.211 178.815 107.366C178.652 107.638 178.566 107.951 178.566 108.27C178.566 108.59 178.652 108.903 178.815 109.175C179.151 109.752 179.422 110.366 179.621 111.007C180.703 114.555 179.457 118.365 176.696 121.362Z" fill="black"/>
</svg>
