<svg width="298" height="298" viewBox="0 0 298 298" fill="none" xmlns="http://www.w3.org/2000/svg">
<circle cx="149" cy="149" r="149" fill="#7FDBEB"/>
<mask id="mask0_202_110036" style="mask-type:alpha" maskUnits="userSpaceOnUse" x="19" y="19" width="260" height="260">
<circle cx="149" cy="149" r="130" fill="#D9D9D9"/>
</mask>
<g mask="url(#mask0_202_110036)">
<path d="M148.993 -96.2129L108.032 -95.112L107.878 -85.4862L12.0552 -58.1704C-3.61237 -55.6104 -38.0963 -36.3076 -39.6324 0.429223L-69.6107 198.706C-71.3771 272.102 -67.3323 317.953 -57.8345 377.705L-28.6498 371.202C-16.6943 290.996 -8.34851 266.649 -13.1102 204.799C9.21347 180.094 15.9208 120.317 21.1177 56.9553L33.7644 300.314L31.7675 358.479C24.0873 409.68 18.6345 462.827 16.0489 512.082H132.634C135.987 480.337 138.215 443.472 139.879 412.957C142.925 412.957 145.946 413.161 149.018 413.161C152.09 413.161 155.111 413.161 158.157 412.957C159.821 443.472 162.049 480.337 165.377 512.082H282.039C279.479 462.878 274 409.68 266.345 358.479L264.349 300.314L276.97 56.9553C282.09 120.24 288.874 180.094 311.198 204.799C306.436 266.598 314.807 290.944 326.737 371.202L355.845 377.705C365.317 317.953 369.362 272.102 367.596 198.706L337.438 0.429223C335.902 -36.3076 301.444 -55.636 285.776 -58.1704L189.953 -85.4862L189.774 -95.112L148.993 -96.2129Z" fill="#FFEAC8"/>
<path d="M117.733 169.905C124.261 163.965 129.458 154.186 135.654 147.965C141.26 142.358 186.394 133.296 205.21 120.496C206.004 119.98 206.625 119.237 206.993 118.365C207.361 117.492 207.459 116.53 207.275 115.601C207.09 114.672 206.631 113.82 205.957 113.155C205.284 112.489 204.426 112.041 203.495 111.868C177.075 104.854 144.46 94.8951 119.013 98.1719C103.09 100.246 93.9247 93.9222 78.0524 95.9959C70.3722 96.9687 53.6807 102.268 46.8965 119.036C43.1332 128.329 31.3314 141.334 42.6213 169.546C44.5596 175.211 45.2324 181.232 44.5924 187.185C44.6259 188.482 44.978 189.751 45.6174 190.88C46.2569 192.009 47.1642 192.963 48.2594 193.658C49.3545 194.354 50.6039 194.769 51.8976 194.868C53.1912 194.967 54.4893 194.746 55.6775 194.225C64.4329 190.795 72.7531 187.083 82.1229 183.985C92.4143 180.683 104.984 181.579 117.733 169.905Z" fill="#96482B"/>
<path opacity="0.2" d="M66.3799 168.548C64.363 173.119 61.3476 177.179 57.5553 180.431C53.7631 183.682 49.2903 186.043 44.4658 187.339C44.5331 188.615 44.9086 189.856 45.5601 190.955C46.2115 192.054 47.1196 192.98 48.2065 193.651C49.2935 194.323 50.527 194.722 51.8016 194.813C53.0762 194.904 54.3538 194.685 55.5253 194.174C64.2807 190.744 72.6009 187.032 81.9707 183.934C92.4157 180.555 105.011 181.374 117.811 169.777C124.34 163.838 129.537 154.058 135.732 147.837C141.338 142.231 186.472 133.168 205.289 120.368C205.962 119.935 206.512 119.336 206.886 118.629C207.261 117.921 207.446 117.13 207.426 116.33C207.405 115.53 207.179 114.748 206.769 114.061C206.359 113.374 205.778 112.804 205.084 112.406C154.932 126.922 90.8284 110.435 66.3799 168.548Z" fill="#1D1D1B"/>
<path d="M134.503 177.432C131.664 165.438 129.848 153.226 129.075 140.925C128.359 139.005 124.314 140.26 123.111 141.232C123.52 147.965 124.263 154.698 125.312 161.38C122.061 158.953 118.263 157.361 114.253 156.746C114.08 156.094 113.775 155.484 113.357 154.954C111.349 153.236 108.99 151.978 106.445 151.268C102.246 149.399 98.8924 145.994 94.4379 144.74C92.0045 144.084 89.4383 144.104 87.0158 144.799C84.5933 145.494 82.4063 146.836 80.6904 148.682C79.1573 150.488 78.2431 152.738 78.0819 155.101C77.9206 157.465 78.5207 159.818 79.7943 161.815C81.2492 163.849 83.2405 165.438 85.5459 166.405C87.8514 167.372 90.3804 167.68 92.8506 167.294C96.7419 166.679 100.147 164.452 104.038 163.915C106.544 163.949 109.039 163.595 111.437 162.865C111.876 162.667 112.276 162.389 112.614 162.046C116.604 162.55 120.318 164.348 123.187 167.166C124.727 168.69 125.926 170.523 126.707 172.544C127.488 174.564 127.833 176.727 127.719 178.891L133.709 179.224C133.709 178.712 133.709 178.2 133.709 177.688L134.503 177.432Z" fill="#A8A166"/>
<path d="M98.9691 191.587C94.1306 191.971 91.289 196.707 89.625 200.88C87.0649 206.538 84.7865 213.168 88.1913 218.391C91.0074 222.666 96.7931 224.33 102.092 225.559C121.984 230.142 143.053 233.111 162.868 227.889C170.889 225.514 178.691 222.456 186.19 218.749C197.378 213.629 208.949 208.048 216.553 198.883C220.29 194.403 223.055 189.053 227.945 185.648C230.018 184.214 232.604 182.883 233.065 180.528C226.178 177.968 218.165 179.606 211.484 182.678C204.802 185.75 198.939 190.128 192.258 193.226C177.896 199.856 161.102 200.01 144.999 200.035C139.102 200.165 133.203 199.934 127.335 199.344C120.177 198.498 113.187 196.582 106.598 193.661C104.276 192.325 101.648 191.61 98.9691 191.587Z" fill="#A8A166"/>
<path d="M224.565 145.328C223.476 141.201 221.462 137.376 218.677 134.141C214.883 129.996 210.16 126.81 204.894 124.847C199.629 122.885 193.973 122.2 188.392 122.851C174.132 124.72 165.658 135.216 159.463 144.817C158.285 146.609 157.082 148.426 155.828 150.269C152.232 143.85 150.296 136.634 150.195 129.277L149.607 -117.896L132.889 -115.874L132.224 129.328C132.365 141.578 136.281 153.485 143.437 163.428C140.105 165.753 136.373 167.445 132.429 168.42C121.651 170.98 107.954 168.702 99.9159 174.641C98.3235 175.808 97.0404 177.346 96.1783 179.121C88.4187 182.822 82.1843 189.102 78.5395 196.888C76.1699 202.434 75.3517 208.519 76.1724 214.494C76.9931 220.468 79.4217 226.107 83.1988 230.809H83.3524L97.7143 221.157C95.712 218.653 94.4182 215.658 93.9679 212.483C93.5176 209.308 93.9273 206.071 95.1542 203.109C96.4469 200.27 98.4373 197.804 100.94 195.941C102.564 197.577 104.329 199.068 106.214 200.395C126.157 214.706 158.567 217.343 183.015 208.306C207.464 199.269 223.08 179.889 225.487 159.665C226.121 154.872 225.808 150.001 224.565 145.328Z" fill="#F9DE96"/>
<path opacity="0.1" d="M225.487 159.716C223.08 179.914 207.362 199.294 183.015 208.357C158.669 217.419 126.233 214.757 106.214 200.446C104.329 199.119 102.564 197.628 100.94 195.992C98.4374 197.854 96.4469 200.32 95.1542 203.16C93.9273 206.122 93.5177 209.359 93.9679 212.534C94.4182 215.708 95.712 218.704 97.7143 221.208L83.3524 230.86C81.5535 226.061 80.9559 220.895 81.6119 215.813C82.2679 210.73 84.1573 205.885 87.1156 201.701C90.3116 197.165 95.087 193.988 100.505 192.792C107.545 191.46 114.611 194.379 121.472 196.401C139.236 201.535 158.188 200.744 175.463 194.148C192.101 187.737 205.944 175.662 214.555 160.048C216.545 155.536 219.128 151.309 222.235 147.479C222.959 146.697 223.747 145.977 224.591 145.328C225.832 150.018 226.136 154.908 225.487 159.716Z" fill="#1D1D1B"/>
<path d="M254.39 268.391C254.379 271.409 253.289 274.324 251.318 276.609C253.278 278.901 254.366 281.811 254.39 284.827C254.369 286.875 253.864 288.888 252.917 290.704C251.969 292.519 250.605 294.084 248.937 295.272L248.783 296.091C249.514 297.7 249.897 299.444 249.91 301.211C249.907 302.958 249.547 304.686 248.851 306.289C248.155 307.892 247.139 309.335 245.865 310.53L245.583 311.503C246.679 313.376 247.27 315.502 247.298 317.672C247.273 319.968 246.644 322.218 245.476 324.194C244.308 326.171 242.641 327.807 240.642 328.937C241.26 330.439 241.582 332.048 241.589 333.673C241.456 337.338 239.874 340.8 237.192 343.3C234.509 345.801 230.944 347.135 227.279 347.011H227.023C226.264 350.138 224.459 352.912 221.908 354.872C219.356 356.833 216.211 357.862 212.994 357.788C210.525 357.767 208.1 357.143 205.928 355.971C204.565 357.408 202.926 358.554 201.109 359.342C199.292 360.129 197.335 360.541 195.355 360.553C192.653 360.553 190.001 359.828 187.675 358.454C186.308 360.298 184.524 361.791 182.467 362.81C180.411 363.83 178.142 364.346 175.847 364.317C173.136 364.306 170.48 363.553 168.167 362.141V380.291C168.167 385.719 163.047 390.532 158.439 393.552C153.523 396.701 157.389 413.419 154.215 413.419C153.267 413.419 146.534 413.419 145.587 413.419C144.64 413.419 144.64 395.498 143.514 394.96C138.137 392.887 135.833 387.536 135.321 381.981C135.27 381.436 135.27 380.888 135.321 380.343V360.809C135.472 354.53 137.412 348.424 140.913 343.209C144.414 337.994 149.33 333.886 155.085 331.369C159.377 329.359 164.003 328.161 168.73 327.836L202.19 325.045C203.423 324.962 204.621 324.603 205.697 323.996C207.218 323.2 208.4 321.882 209.026 320.284C218.063 295.989 221.007 266.522 217.806 232.551L216.859 233.037C216.272 236.623 214.406 239.876 211.605 242.191C208.805 244.507 205.26 245.73 201.627 245.632C198.934 245.616 196.29 244.911 193.947 243.584C192.593 246.03 190.603 248.064 188.187 249.47C185.771 250.876 183.02 251.603 180.225 251.572C177.636 251.558 175.088 250.917 172.801 249.703C171.316 251.447 169.467 252.844 167.384 253.795C165.3 254.746 163.033 255.228 160.743 255.207C157.787 253.427 154.337 252.645 150.902 252.977C147.467 253.309 144.231 254.737 141.67 257.05C139.556 257.056 137.462 256.641 135.51 255.827C133.558 255.014 131.788 253.82 130.304 252.314H129.587C126.877 254.232 123.639 255.26 120.32 255.258C117.984 255.276 115.673 254.772 113.557 253.785C111.44 252.797 109.57 251.35 108.082 249.549L107.058 249.37C104.58 250.844 101.75 251.623 98.8662 251.623C96.2348 251.652 93.6389 251.015 91.3201 249.771C89.0014 248.526 87.0353 246.715 85.6051 244.506L83.89 244.02C81.2019 260.993 83.89 285.441 90.7765 306.229C90.7613 306.288 90.7613 306.349 90.7765 306.408C92.4428 311.411 94.4264 316.302 96.7157 321.052C98.1608 324.047 98.5116 327.453 97.7073 330.68C96.903 333.907 94.9943 336.75 92.3125 338.716C95.7031 341.608 98.0579 345.527 99.0198 349.878C99.5574 352.536 99.5299 355.277 98.9389 357.923C98.3479 360.569 97.2067 363.062 95.5894 365.238C95.2961 365.637 94.9091 365.958 94.4627 366.172C94.0163 366.386 93.5241 366.488 93.0294 366.467C92.4435 366.465 91.8688 366.306 91.3653 366.006C91.0383 365.831 90.7535 365.586 90.5304 365.289C90.3074 364.993 90.1515 364.651 90.0735 364.288C89.9956 363.926 89.9976 363.55 90.0792 363.188C90.1607 362.826 90.32 362.486 90.546 362.192C91.7485 360.599 92.5986 358.768 93.04 356.822C93.4814 354.876 93.5039 352.858 93.1061 350.902C92.2632 347.076 89.9569 343.731 86.6803 341.583C83.3396 342.579 79.7809 342.579 76.4401 341.583C74.3496 340.968 72.4075 339.931 70.7342 338.535C69.0609 337.139 67.6919 335.414 66.7119 333.468C66.2511 332.572 65.8415 331.548 65.4319 330.626C62.4425 329.785 59.8009 328.01 57.8938 325.559C55.9866 323.108 54.914 320.111 54.8332 317.007C54.8528 314.676 55.4793 312.391 56.6509 310.376C54.0692 309.306 51.8559 307.505 50.2825 305.195C48.7091 302.885 47.8439 300.166 47.7931 297.371C47.8073 295.546 48.1835 293.742 48.8998 292.063C49.6161 290.385 50.6582 288.865 51.966 287.592C49.8138 286.373 48.0191 284.611 46.7612 282.482C45.5033 280.352 44.8263 277.93 44.7979 275.457C44.8132 273.576 45.2088 271.717 45.9612 269.992C46.7135 268.267 47.8069 266.713 49.1756 265.422C47.6741 264.024 46.505 262.308 45.7543 260.399C45.0036 258.49 44.6903 256.437 44.8377 254.391C44.9851 252.345 45.5892 250.358 46.6057 248.577C47.6222 246.795 49.0253 245.264 50.7116 244.096C50.7116 243.61 50.8908 243.124 50.942 242.637C49.0106 240.423 47.9385 237.588 47.921 234.65C47.9748 232.132 48.7614 229.684 50.1845 227.606C51.6077 225.528 53.6057 223.91 55.934 222.95C56.4926 221.486 57.125 220.05 57.8286 218.649C59.7662 215.172 62.8581 212.48 66.5697 211.041C70.2814 209.601 74.3793 209.503 78.1553 210.764C140.953 230.707 176.871 226.483 220.546 194.099C222.874 192.412 225.577 191.317 228.422 190.906C231.267 190.496 234.169 190.783 236.879 191.743C239.482 192.612 241.805 194.163 243.606 196.234C245.407 198.305 246.62 200.821 247.119 203.519C247.375 204.825 247.529 206.08 247.734 207.436C249.071 208.643 250.142 210.116 250.878 211.76C251.614 213.404 251.999 215.184 252.009 216.985C251.998 219.401 251.277 221.761 249.935 223.77C249.935 224.077 249.935 224.384 249.935 224.666C251.358 225.87 252.503 227.367 253.294 229.055C254.085 230.743 254.502 232.581 254.518 234.445C254.501 237.276 253.547 240.022 251.804 242.253C253.103 243.452 254.14 244.907 254.849 246.526C255.559 248.145 255.925 249.894 255.925 251.661C255.925 253.429 255.559 255.178 254.849 256.797C254.14 258.416 253.103 259.871 251.804 261.07C253.423 263.173 254.329 265.738 254.39 268.391Z" fill="#E9B4B4"/>
<path opacity="0.1" d="M231.12 249.802C231.12 261.63 229.84 273.457 229.2 285.285C228.483 298.853 226.23 314.777 213.251 321.382H213.072C210.649 322.569 208.059 323.38 205.392 323.788C206.912 322.992 208.094 321.674 208.72 320.076C217.757 295.781 220.701 266.315 217.501 232.343L216.554 232.829C215.967 236.416 214.1 239.668 211.3 241.984C208.499 244.299 204.954 245.522 201.321 245.425C198.628 245.408 195.985 244.703 193.641 243.377C192.287 245.822 190.297 247.856 187.881 249.262C185.466 250.669 182.714 251.395 179.919 251.364C177.33 251.35 174.782 250.709 172.495 249.495C171.011 251.239 169.161 252.637 167.078 253.588C164.994 254.539 162.727 255.021 160.437 254.999C157.481 253.219 154.031 252.437 150.596 252.769C147.162 253.101 143.925 254.529 141.365 256.843C139.25 256.849 137.156 256.433 135.204 255.62C133.252 254.806 131.482 253.612 129.998 252.106H129.281C126.572 254.024 123.333 255.053 120.014 255.051C117.678 255.068 115.368 254.565 113.251 253.577C111.134 252.59 109.264 251.143 107.777 249.342L106.753 249.162C104.274 250.637 101.444 251.415 98.5605 251.415C95.9291 251.445 93.333 250.807 91.0143 249.563C88.6955 248.318 86.7296 246.507 85.2994 244.298L83.5842 243.812C80.8962 260.785 83.5843 285.234 90.4708 306.021C90.4556 306.08 90.4556 306.142 90.4708 306.2C92.1371 311.203 94.1207 316.094 96.41 320.844C97.8551 323.839 98.2059 327.245 97.4016 330.472C96.5972 333.699 94.6886 336.542 92.0068 338.508C95.3974 341.4 97.7522 345.319 98.7141 349.67C99.2517 352.328 99.2242 355.069 98.6332 357.715C98.0422 360.362 96.9008 362.854 95.2836 365.031C94.9902 365.429 94.6034 365.75 94.157 365.965C93.7106 366.179 93.2183 366.28 92.7235 366.259C92.1376 366.257 91.5631 366.098 91.0596 365.799C90.7326 365.623 90.4477 365.378 90.2247 365.082C90.0017 364.785 89.8457 364.444 89.7678 364.081C89.6899 363.718 89.6919 363.342 89.7734 362.98C89.855 362.618 90.0143 362.278 90.2403 361.984C91.4428 360.391 92.2929 358.561 92.7343 356.614C93.1757 354.668 93.1982 352.65 92.8004 350.694C91.9575 346.868 89.6512 343.524 86.3746 341.376C83.0339 342.372 79.4751 342.372 76.1344 341.376C80.3073 339.712 87.2194 337.51 88.9347 328.575C91.0851 317.49 83.3538 311.141 78.4385 292.504C75.0862 280.736 73.0765 268.627 72.4479 256.407C72.1663 250.929 73.1136 241.047 77.0305 237.002C80.9474 232.957 85.837 234.212 91.1875 236.464C94.5109 238.009 97.9316 239.334 101.428 240.433C131.713 248.369 160.898 247.831 189.801 236.311C194.588 234.391 208.413 226.864 215.402 224.586C216.145 224.326 216.907 224.121 217.68 223.971C223.542 223.101 231.12 226.071 231.12 249.802Z" fill="#1D1D1B"/>
<path d="M218.242 298.393C217.697 299.105 217.116 299.789 216.501 300.441C216.952 301.524 217.329 302.636 217.627 303.77C218.867 307.666 218.722 311.872 217.218 315.674C215.89 318.636 213.573 321.043 210.664 322.484C209.073 323.29 207.326 323.744 205.544 323.815C204.468 324.422 203.269 324.781 202.036 324.864L178.535 326.836L168.576 327.655H168.193C166.836 327.783 165.633 327.962 164.224 328.192C162.816 328.423 162.279 328.602 161.332 328.832C159.135 329.424 156.994 330.203 154.931 331.162C153.202 330.791 151.525 330.206 149.939 329.421C149.581 329.242 149.248 329.089 148.915 328.884C146.907 330.147 144.748 331.154 142.489 331.879C136.284 333.929 129.607 334.08 123.315 332.314C117.839 330.446 112.664 327.79 107.954 324.429C106.623 323.584 105.394 322.74 104.038 321.869C102.552 320.884 101.116 319.824 99.7367 318.695C98.6331 317.809 97.5816 316.86 96.5877 315.853C95.8582 315.397 95.1727 314.874 94.5397 314.291C92.3083 312.123 90.563 309.505 89.4196 306.611C88.3415 303.869 87.6938 300.976 87.4995 298.035C87.4995 296.883 87.4995 295.705 87.4995 294.553C87.4995 294.144 87.2947 293.709 87.1923 293.273C86.9107 291.968 86.6036 290.713 86.2964 289.305C85.5196 288.494 84.8564 287.581 84.3251 286.592C83.154 284.579 82.4049 282.349 82.1235 280.038C82.1235 279.577 82.1235 279.065 82.1235 278.604C82.0087 274.409 82.3954 270.215 83.2754 266.111C83.2754 265.702 83.2754 265.266 83.2754 264.857C83.2754 263.525 83.2755 262.297 83.0963 260.991C82.8542 260.422 82.5807 259.866 82.2771 259.327C80.9969 256.667 80.4238 253.722 80.613 250.776C80.5857 250.316 80.5857 249.854 80.613 249.394C80.6845 248.273 81.0242 247.186 81.6033 246.224C82.1824 245.261 82.9841 244.452 83.941 243.864C83.9347 243.907 83.9347 243.95 83.941 243.992C84.4342 244.093 84.9214 244.221 85.4003 244.376C86.8304 246.585 88.7965 248.396 91.1152 249.641C93.434 250.885 96.0299 251.523 98.6613 251.493H99.1734C100.637 251.448 102.086 251.189 103.474 250.725C104.66 250.379 105.796 249.88 106.854 249.24L107.878 249.42C109.365 251.221 111.235 252.668 113.352 253.655C115.469 254.643 117.779 255.146 120.115 255.129C123.434 255.131 126.672 254.102 129.382 252.184H130.099C130.572 252.661 131.077 253.106 131.609 253.516C132.988 254.626 134.547 255.492 136.217 256.076C139.905 254 144.032 252.829 148.261 252.66C152.489 252.491 156.697 253.328 160.538 255.103C161.084 255.14 161.631 255.14 162.176 255.103C166.218 254.746 169.955 252.804 172.57 249.701C173.481 250.177 174.432 250.571 175.412 250.879C176.897 251.332 178.441 251.565 179.994 251.57C182.789 251.601 185.541 250.875 187.957 249.468C190.372 248.062 192.363 246.028 193.716 243.583C195.609 244.652 197.702 245.32 199.865 245.545C202.028 245.77 204.214 245.546 206.286 244.888C207.912 244.408 209.444 243.655 210.817 242.661C212.394 241.533 213.727 240.1 214.739 238.446C215.75 236.792 216.419 234.952 216.706 233.035L217.653 232.549C217.832 234.341 217.883 236.056 218.037 237.823C218.126 236.056 217.997 234.284 217.653 232.549C221.047 237.921 223.145 244.009 223.78 250.332C224.415 256.654 223.571 263.038 221.314 268.978C220.845 270.029 220.493 271.128 220.264 272.255C220.194 272.489 220.151 272.729 220.136 272.972C220.242 275.101 220.764 277.188 221.672 279.116C222.671 282.371 222.881 285.817 222.284 289.169C221.688 292.521 220.302 295.683 218.242 298.393Z" fill="#F9DE96"/>
<path opacity="0.2" d="M110.028 262.117C114.011 262.806 118.074 262.909 122.086 262.424L124.877 262.245C129.877 261.744 134.926 262.338 139.674 263.985C141.793 264.693 143.718 265.885 145.296 267.467C146.874 269.049 148.061 270.978 148.762 273.099C148.975 274.105 149.129 275.122 149.223 276.146C149.29 278.205 149.76 280.231 150.605 282.111C151.291 283.272 152.242 284.254 153.382 284.975C154.521 285.697 155.816 286.136 157.159 286.258H157.697C158.55 286.289 159.399 286.117 160.173 285.757C160.948 285.396 161.626 284.857 162.151 284.184C163.076 282.896 163.461 281.298 163.227 279.73C162.873 277.137 162.094 274.62 160.922 272.28C160.564 271.512 160.231 270.718 159.924 269.925C159.296 268.722 158.947 267.393 158.903 266.037C158.858 264.681 159.12 263.332 159.668 262.091C161.493 259.953 163.878 258.367 166.555 257.508C169.959 255.972 173.8 254.232 175.336 250.75C174.356 250.442 173.405 250.048 172.494 249.572C169.879 252.675 166.142 254.617 162.1 254.974C159.552 256.05 157.36 257.825 155.777 260.094C154.913 261.828 154.464 263.738 154.464 265.675C154.464 267.612 154.913 269.522 155.777 271.256C156.109 272.101 156.468 272.92 156.826 273.816C157.852 275.777 158.536 277.898 158.849 280.088C158.964 280.683 158.864 281.3 158.567 281.829C158.567 281.829 158.337 282.187 157.646 282.136C157.056 282.075 156.489 281.879 155.987 281.564C155.486 281.249 155.063 280.823 154.753 280.319C154.171 278.875 153.841 277.342 153.78 275.787C153.69 274.574 153.519 273.368 153.268 272.178C152.404 269.397 150.889 266.862 148.85 264.783C146.811 262.704 144.306 261.14 141.543 260.222C138.314 258.987 134.909 258.279 131.456 258.123L135.987 256.177L136.218 256.049C134.547 255.465 132.988 254.599 131.61 253.489L121.114 257.995C120.894 258.083 120.694 258.213 120.525 258.379C117.413 258.751 114.264 258.656 111.181 258.097C107.52 257.278 103.782 254.692 103.5 251.313C103.498 251.083 103.446 250.856 103.347 250.648C101.958 251.112 100.509 251.37 99.0459 251.416C99.3531 257.176 104.908 260.99 110.028 262.117Z" fill="#1D1D1B"/>
<path opacity="0.2" d="M220.059 272.843C220.075 272.6 220.118 272.359 220.187 272.126C219.652 271.762 219.077 271.461 218.472 271.23C216.395 270.526 214.214 270.18 212.021 270.206L208.309 270.052C207.897 268.92 207.409 267.817 206.849 266.75C208.576 265.512 210.218 264.161 211.765 262.705C213.449 262.617 215.133 262.888 216.706 263.499C216.989 263.62 217.294 263.681 217.602 263.678C218.03 263.685 218.452 263.571 218.819 263.349C219.186 263.127 219.483 262.806 219.675 262.423C219.786 262.171 219.843 261.898 219.843 261.622C219.843 261.347 219.786 261.074 219.675 260.821C219.564 260.569 219.403 260.342 219.2 260.155C218.997 259.968 218.758 259.825 218.498 259.735C217.372 259.303 216.206 258.986 215.016 258.788C216.669 256.556 217.623 253.883 217.755 251.108C217.752 250.824 217.692 250.544 217.579 250.285C217.466 250.025 217.302 249.79 217.097 249.594C216.892 249.399 216.65 249.246 216.385 249.146C216.119 249.045 215.837 248.998 215.554 249.009C214.992 248.988 214.444 249.188 214.028 249.566C213.611 249.944 213.36 250.47 213.326 251.031C213.326 255.895 208.872 259.991 204.648 263.115C203.931 262.039 203.163 260.964 202.344 259.915C204.988 257.904 207.122 255.299 208.572 252.31C210.022 249.321 210.748 246.032 210.69 242.711C209.316 243.705 207.784 244.458 206.158 244.938C205.841 247.447 204.992 249.86 203.667 252.014C202.343 254.169 200.574 256.015 198.478 257.431C198.205 257.667 197.914 257.881 197.608 258.071C197.172 258.353 196.712 258.634 196.276 258.865C190.72 261.835 184.435 263.166 178.151 262.705C176.513 262.705 172.161 262.423 170.65 265.547C170.134 266.819 170.134 268.242 170.65 269.515C171.188 271.512 171.93 273.534 172.647 275.48C173.537 277.742 174.281 280.06 174.874 282.417C174.874 282.571 175.335 285.822 175.335 285.822C175.271 287.401 175.013 288.966 174.567 290.482C173.542 292.49 172.048 294.223 170.213 295.533C168.377 296.843 166.253 297.692 164.02 298.008C159.057 298.807 153.974 298.367 149.223 296.728C147.131 296.191 145.154 295.28 143.386 294.04C142.646 293.533 142.018 292.88 141.542 292.12L141.184 291.48C140.389 289.109 140.126 286.591 140.416 284.107C140.416 279.96 140.646 275.275 136.602 272.28C132.557 269.284 127.283 270.257 122.982 271H122.624C113.913 272.783 104.883 272.181 96.4855 269.259C88.1141 265.956 81.8675 259.223 80.6131 252.055C80.5466 251.645 80.349 251.268 80.05 250.98C79.8608 253.926 80.4338 256.871 81.7139 259.531C82.0175 260.07 82.291 260.625 82.5332 261.195C82.5332 262.449 82.5332 263.755 82.7124 265.06C86.0741 268.56 90.1644 271.278 94.6934 273.022C95.231 273.252 95.7687 273.432 96.3319 273.636C95.1132 276.083 94.7095 278.855 95.1798 281.547C95.2921 282.043 95.5729 282.485 95.9742 282.798C96.3756 283.111 96.8728 283.275 97.3815 283.262H97.7399C98.02 283.237 98.2922 283.155 98.5398 283.022C98.7873 282.888 99.0051 282.706 99.1799 282.486C99.3547 282.265 99.4828 282.012 99.5565 281.74C99.6302 281.469 99.648 281.185 99.6087 280.907C99.2656 278.826 99.6548 276.691 100.71 274.865C108.195 276.405 115.909 276.466 123.417 275.044H123.801C127.565 274.43 131.481 273.739 133.786 275.48C134.489 276.023 135.029 276.749 135.347 277.579C128.998 276.76 122.726 279.345 117.862 281.829L115.635 282.955C111.219 285.663 106.282 287.408 101.145 288.075C94.2327 288.459 87.7557 284.67 81.7395 280.395C82.021 282.706 82.77 284.936 83.9412 286.949C88.7745 290.182 94.4119 292.008 100.223 292.222H101.375C107.195 291.583 112.799 289.659 117.785 286.59L119.961 285.489C119.389 287.385 118.714 289.248 117.939 291.07C117.196 292.99 116.428 294.962 115.814 296.984V297.317C112.024 297 108.231 297.896 104.985 299.877C104.669 299.879 104.357 299.94 104.063 300.056C102.777 300.407 101.433 300.493 100.113 300.308C98.7923 300.123 97.5235 299.672 96.3831 298.981C95.1799 298.341 94.0022 297.624 92.799 296.83C91.1228 295.687 89.3595 294.677 87.5253 293.81C87.3605 293.746 87.1885 293.703 87.0133 293.682C87.0133 294.117 87.2436 294.552 87.3205 294.962C87.3205 296.114 87.3205 297.291 87.3205 298.443C88.2933 298.981 89.2149 299.57 90.1877 300.21C91.1605 300.85 92.7478 301.823 94.1047 302.565C96.0316 303.574 98.1192 304.241 100.274 304.536C98.0983 307.839 96.9975 309.298 97.9447 313.087C95.3498 310.872 92.556 308.901 89.5989 307.199L89.1125 306.789C90.256 309.683 92.0012 312.301 94.2326 314.469C94.8656 315.052 95.5512 315.575 96.2806 316.031C97.2746 317.038 98.3261 317.987 99.4296 318.873C100.809 320.002 102.245 321.062 103.73 322.047C105.011 322.943 106.29 323.788 107.647 324.607C112.357 327.968 117.532 330.624 123.008 332.492C129.3 334.258 135.976 334.106 142.182 332.057C144.441 331.332 146.6 330.325 148.608 329.062C148.941 329.266 149.274 329.42 149.632 329.599C151.218 330.384 152.895 330.969 154.624 331.34C156.687 330.381 158.828 329.601 161.025 329.01C163.276 328.432 165.57 328.038 167.885 327.833C163.522 326.282 159.878 323.186 157.645 319.129C157.341 318.626 156.863 318.252 156.301 318.078C155.74 317.903 155.135 317.94 154.599 318.181C154.341 318.288 154.107 318.447 153.915 318.649C153.722 318.852 153.574 319.092 153.48 319.355C153.386 319.618 153.348 319.898 153.368 320.176C153.389 320.455 153.468 320.726 153.6 320.972C155.053 323.636 157.051 325.965 159.463 327.807C158.11 328.159 156.711 328.297 155.316 328.217C154.215 328.063 153.191 327.577 152.115 327.372C151.537 327.308 150.953 327.308 150.375 327.372C151.284 323.518 150.718 319.463 148.787 316.005C149.427 315.621 150.042 315.237 150.656 314.802C152.272 313.727 153.684 312.375 154.829 310.808C155.652 309.545 156.339 308.198 156.877 306.789C157.133 306.2 157.364 305.637 157.645 305.074C157.405 308.735 158.567 312.351 160.896 315.186C164.231 318.987 168.297 322.078 172.852 324.274C174.593 325.247 176.385 326.246 178.254 327.09L201.755 325.119C202.988 325.036 204.186 324.677 205.262 324.07C207.045 323.999 208.791 323.545 210.382 322.738C210.587 322.457 210.766 322.149 210.946 321.842C211.823 320.066 212.075 318.046 211.662 316.108C210.485 308.428 204.417 301.131 195.688 296.933C195.781 296.801 195.851 296.654 195.893 296.498C196.524 294.634 196.844 292.679 196.84 290.712V290.302C200.7 290.729 204.397 292.09 207.613 294.267C210.829 296.443 213.467 299.371 215.298 302.795C215.49 303.172 215.783 303.486 216.145 303.704C216.508 303.921 216.924 304.032 217.346 304.024C217.047 302.89 216.671 301.778 216.219 300.696C216.834 300.044 217.415 299.36 217.96 298.648C215.965 295.58 213.349 292.963 210.28 290.968C210.337 290.767 210.38 290.561 210.408 290.354C211.227 285.076 210.922 279.684 209.512 274.532H211.637C213.277 274.489 214.913 274.722 216.475 275.224C216.979 275.379 217.437 275.657 217.808 276.032C218.178 276.407 218.451 276.868 218.6 277.374C218.664 277.913 218.929 278.407 219.342 278.758C219.755 279.109 220.286 279.292 220.827 279.269H221.032H221.391C220.517 277.239 220.064 275.053 220.059 272.843ZM128.025 329.83C118.963 329.394 103.833 317.516 103.423 316.62C103.114 315.92 102.849 315.202 102.63 314.469C102.177 312.554 102.271 310.551 102.9 308.686C103.529 306.822 104.668 305.171 106.188 303.922C108.669 301.921 111.815 300.934 114.995 301.157C114.597 303.486 114.757 305.876 115.46 308.132C116.163 310.388 117.389 312.445 119.04 314.136C120.224 315.212 121.583 316.078 123.059 316.697C120.478 317.575 117.808 318.167 115.097 318.463C114.814 318.476 114.537 318.546 114.282 318.668C114.027 318.791 113.799 318.964 113.613 319.177C113.426 319.389 113.285 319.638 113.197 319.907C113.109 320.176 113.076 320.46 113.1 320.741C113.197 321.256 113.475 321.72 113.884 322.048C114.292 322.377 114.804 322.549 115.327 322.533H115.609C120.33 322.048 124.935 320.767 129.229 318.745C131.09 319.131 132.985 319.329 134.886 319.333C138.33 319.338 141.747 318.722 144.973 317.516C146.867 320.767 146.048 323.404 144.615 326.809C140.314 329.599 133.274 330.111 128.025 329.83ZM152.883 305.074C152.457 306.238 151.908 307.354 151.245 308.402C150.367 309.536 149.312 310.521 148.122 311.32C143.163 314.606 137.155 315.921 131.277 315.007C130.411 314.892 129.555 314.712 128.717 314.469C127.949 314.285 127.197 314.045 126.464 313.752C124.91 313.167 123.477 312.299 122.24 311.192C121.055 309.923 120.185 308.392 119.701 306.725C119.216 305.057 119.13 303.299 119.449 301.592C119.586 300.398 119.817 299.217 120.14 298.059C120.152 297.94 120.152 297.82 120.14 297.701C120.678 295.883 121.395 294.066 122.137 292.146C123.424 289.164 124.402 286.059 125.056 282.878C128.401 281.442 132.081 280.972 135.68 281.521L135.885 281.777C135.885 282.417 135.885 283.083 135.885 283.749C135.49 287.107 136.03 290.509 137.446 293.579C134.098 296.469 131.297 299.938 129.177 303.819C129.05 304.066 128.976 304.336 128.959 304.613C128.943 304.89 128.984 305.168 129.08 305.428C129.176 305.688 129.326 305.925 129.519 306.124C129.712 306.323 129.944 306.48 130.201 306.584C130.519 306.713 130.857 306.783 131.2 306.789C131.603 306.797 132.001 306.697 132.352 306.499C132.703 306.301 132.995 306.012 133.197 305.663C135.013 302.317 137.395 299.312 140.237 296.779C142.538 298.47 145.147 299.696 147.917 300.389C150.053 301.044 152.236 301.54 154.445 301.874C153.854 302.913 153.332 303.991 152.883 305.099V305.074ZM207.489 316.364C207.76 317.502 207.652 318.697 207.182 319.769C205.864 321.338 204.064 322.427 202.062 322.866C198.218 324.584 194.083 325.557 189.876 325.734C184.685 325.236 179.693 323.479 175.335 320.613C171.299 318.67 167.682 315.956 164.685 312.626C163.44 311.224 162.631 309.489 162.358 307.633C162.085 305.777 162.36 303.882 163.149 302.181L164.916 301.925C167.866 301.482 170.665 300.334 173.076 298.578C175.487 296.822 177.439 294.51 178.766 291.838C179.523 289.969 179.897 287.967 179.867 285.95C182.515 285.895 185.163 286.083 187.777 286.513H188.161C188.67 286.526 189.167 286.362 189.568 286.049C189.97 285.737 190.25 285.295 190.363 284.798C190.406 284.522 190.393 284.239 190.324 283.968C190.255 283.697 190.132 283.442 189.962 283.22C189.792 282.997 189.579 282.812 189.336 282.674C189.092 282.536 188.823 282.449 188.545 282.417C185.506 281.94 182.43 281.742 179.354 281.829C178.696 279.166 177.841 276.556 176.794 274.02C176.078 272.049 175.386 270.206 174.874 268.388C174.644 267.492 174.67 267.159 174.721 267.057C174.772 266.955 175.156 266.519 177.87 266.647H179.892C179.989 266.736 180.102 266.805 180.225 266.852C184.586 268.694 188.082 272.127 190.004 276.452C191.902 280.811 192.735 285.558 192.436 290.302C192.451 291.849 192.218 293.387 191.745 294.859C191.018 296.501 190.042 298.021 188.852 299.365L187.598 301.003L185.703 303.435L181.403 309.349C181.232 309.565 181.109 309.815 181.042 310.082C180.975 310.349 180.965 310.627 181.013 310.898C181.062 311.169 181.167 311.427 181.322 311.654C181.478 311.881 181.68 312.073 181.915 312.216C182.299 312.478 182.756 312.612 183.22 312.6C183.571 312.604 183.918 312.53 184.236 312.384C184.555 312.238 184.837 312.023 185.063 311.756L187.623 308.428C189.315 311.268 191.847 313.513 194.868 314.853C195.187 314.975 195.526 315.035 195.867 315.033C196.273 315.041 196.674 314.938 197.026 314.735C197.378 314.532 197.668 314.236 197.864 313.88C197.99 313.634 198.063 313.364 198.078 313.088C198.092 312.811 198.049 312.535 197.95 312.277C197.851 312.018 197.699 311.784 197.503 311.588C197.307 311.392 197.072 311.24 196.814 311.141C195.39 310.503 194.111 309.581 193.054 308.433C191.998 307.284 191.187 305.932 190.67 304.459L192.667 301.899L193.793 300.415C201.32 303.871 206.491 309.938 207.489 316.389V316.364ZM206.312 288.357C203.38 286.989 200.238 286.123 197.019 285.797C196.874 281.998 196.005 278.262 194.459 274.788C192.87 271.349 190.472 268.345 187.47 266.033C191.479 265.418 195.345 264.091 198.888 262.116C200.102 263.652 201.198 265.278 202.165 266.98V267.159C202.153 267.244 202.153 267.331 202.165 267.415C202.251 267.593 202.364 267.757 202.497 267.902C205.792 274.192 207.122 281.328 206.312 288.382V288.357Z" fill="#1D1D1B"/>
</g>
</svg>
