<svg width="49" height="67" viewBox="0 0 49 67" fill="none" xmlns="http://www.w3.org/2000/svg">
<path d="M8.24554 36.838C8.1476 36.8391 8.05128 36.8131 7.96729 36.7627C7.88329 36.7123 7.81492 36.6396 7.76987 36.5526C7.73738 36.4911 7.71766 36.4236 7.7118 36.3543C7.70594 36.285 7.7141 36.2152 7.7358 36.1491C7.75751 36.083 7.79231 36.0219 7.83813 35.9696C7.88394 35.9172 7.93981 35.8746 8.00245 35.8443L9.41883 35.1256C9.54203 35.0743 9.68011 35.0715 9.80529 35.1177C9.93046 35.164 10.0335 35.2559 10.0937 35.375C10.1539 35.4941 10.1668 35.6316 10.1299 35.7598C10.0929 35.888 10.0089 35.9975 9.89451 36.0663L8.47813 36.7851C8.40652 36.8227 8.32634 36.8409 8.24554 36.838Z" fill="white"/>
<path d="M18.0654 35.3472C17.945 35.3477 17.828 35.3072 17.7338 35.2322C17.6397 35.1573 17.5739 35.0524 17.5474 34.935L17.2197 33.3811C17.2042 33.3138 17.2024 33.244 17.2143 33.1759C17.2262 33.1078 17.2516 33.0427 17.2891 32.9846C17.3265 32.9265 17.3752 32.8764 17.4323 32.8374C17.4894 32.7984 17.5536 32.7713 17.6214 32.7575C17.6894 32.7419 17.7599 32.7399 17.8287 32.7517C17.8975 32.7635 17.9633 32.7888 18.0222 32.8261C18.0812 32.8635 18.1322 32.9121 18.1722 32.9693C18.2123 33.0265 18.2407 33.091 18.2556 33.1592L18.5833 34.713C18.5972 34.781 18.5976 34.8511 18.5844 34.9193C18.5712 34.9874 18.5446 35.0523 18.5064 35.1102C18.4681 35.1682 18.4188 35.2179 18.3613 35.2568C18.3037 35.2956 18.2391 35.3228 18.1711 35.3367L18.0654 35.3472Z" fill="white"/>
<path d="M40.7918 11.6168C40.7939 12.385 40.5678 13.1364 40.1424 13.776C39.7169 14.4156 39.1112 14.9144 38.4019 15.2093C37.6927 15.5043 36.9118 15.582 36.1583 15.4326C35.4048 15.2833 34.7126 14.9136 34.1694 14.3704C33.6263 13.8273 33.2566 13.1351 33.1072 12.3816C32.9579 11.6281 33.0356 10.8472 33.3305 10.1379C33.6254 9.42865 34.1243 8.82291 34.7639 8.39745C35.4034 7.97199 36.1549 7.74597 36.923 7.74806C37.9491 7.74806 38.9331 8.15566 39.6586 8.88119C40.3842 9.60672 40.7918 10.5907 40.7918 11.6168Z" fill="#F9DE96"/>
<path d="M30.4327 3.86874C30.4327 4.6339 30.2059 5.38188 29.7807 6.01809C29.3556 6.6543 28.7515 7.15018 28.0446 7.443C27.3376 7.73581 26.5597 7.81243 25.8093 7.66316C25.0588 7.51388 24.3695 7.1454 23.8284 6.60435C23.2874 6.0633 22.9189 5.37397 22.7697 4.62351C22.6204 3.87305 22.697 3.09518 22.9898 2.38826C23.2826 1.68134 23.7785 1.0771 24.4147 0.652C25.0509 0.226897 25.7989 0 26.564 0C27.5901 0 28.5741 0.4076 29.2997 1.13313C30.0252 1.85866 30.4327 2.84269 30.4327 3.86874Z" fill="#F9DE96"/>
<path d="M7.80142 20.0199C7.79933 20.7846 7.57062 21.5316 7.14425 22.1664C6.71788 22.8012 6.11297 23.2954 5.40587 23.5866C4.69877 23.8778 3.92125 23.9529 3.17148 23.8025C2.42172 23.652 1.73335 23.2827 1.19335 22.7412C0.653359 22.1998 0.28597 21.5104 0.137549 20.7602C-0.0108722 20.0101 0.0662964 19.2327 0.35942 18.5264C0.652543 17.8201 1.14847 17.2165 1.78445 16.7919C2.42043 16.3672 3.16793 16.1406 3.93264 16.1406C4.44158 16.1406 4.94554 16.241 5.41561 16.4361C5.88568 16.6312 6.31261 16.9171 6.672 17.2775C7.03138 17.6379 7.31613 18.0656 7.50993 18.5362C7.70373 19.0068 7.80281 19.511 7.80142 20.0199Z" fill="#F9DE96"/>
<path d="M13.6471 9.69296C13.6471 10.4581 13.4202 11.2061 12.9951 11.8423C12.57 12.4785 11.9658 12.9744 11.2589 13.2672C10.552 13.56 9.77409 13.6366 9.02362 13.4873C8.27316 13.3381 7.58384 12.9696 7.04279 12.4286C6.50173 11.8875 6.13329 11.1982 5.98401 10.4477C5.83474 9.69724 5.91133 8.91936 6.20414 8.21244C6.49696 7.50552 6.99283 6.90132 7.62904 6.47622C8.26525 6.05112 9.01323 5.82422 9.7784 5.82422C10.8045 5.82422 11.7885 6.23182 12.514 6.95735C13.2395 7.68288 13.6471 8.66691 13.6471 9.69296Z" fill="#F9DE96"/>
<path d="M25.2955 30.3371C27.4321 30.3371 29.1642 28.605 29.1642 26.4683C29.1642 24.3317 27.4321 22.5996 25.2955 22.5996C23.1589 22.5996 21.4268 24.3317 21.4268 26.4683C21.4268 28.605 23.1589 30.3371 25.2955 30.3371Z" fill="#F9DE96"/>
<path d="M28.5409 20.6547C28.543 21.8049 28.2038 22.93 27.5663 23.8874C26.9287 24.8449 26.0215 25.5917 24.9594 26.0333C23.8972 26.475 22.728 26.5916 21.5995 26.3685C20.4711 26.1454 19.4342 25.5925 18.6201 24.7798C17.8059 23.9672 17.2512 22.9313 17.0261 21.8033C16.8009 20.6753 16.9154 19.5058 17.3551 18.4429C17.7948 17.38 18.5399 16.4714 19.4962 15.8321C20.4525 15.1928 21.5769 14.8516 22.7272 14.8516C24.2673 14.8516 25.7444 15.4626 26.8344 16.5506C27.9244 17.6386 28.5381 19.1146 28.5409 20.6547Z" fill="#DF8676"/>
<path d="M36.9227 9.69258C36.9227 10.8424 36.5818 11.9664 35.943 12.9225C35.3042 13.8785 34.3962 14.6237 33.3338 15.0637C32.2715 15.5037 31.1026 15.6189 29.9749 15.3945C28.8471 15.1702 27.8112 14.6165 26.9982 13.8035C26.1851 12.9904 25.6315 11.9545 25.4071 10.8268C25.1828 9.69903 25.2979 8.53009 25.7379 7.46778C26.1779 6.40547 26.9231 5.49749 27.8792 4.85868C28.8353 4.21987 29.9592 3.87891 31.1091 3.87891C32.651 3.87891 34.1297 4.4914 35.22 5.58168C36.3102 6.67196 36.9227 8.1507 36.9227 9.69258Z" fill="#DF8676"/>
<path d="M15.1586 16.8811C15.1586 18.0309 14.8176 19.1549 14.1788 20.111C13.54 21.067 12.632 21.8122 11.5697 22.2522C10.5074 22.6922 9.33851 22.8073 8.21076 22.583C7.08302 22.3587 6.04711 21.805 5.23405 20.992C4.421 20.1789 3.86728 19.143 3.64296 18.0152C3.41864 16.8875 3.53377 15.7186 3.9738 14.6563C4.41382 13.594 5.15897 12.686 6.11502 12.0472C7.07108 11.4084 8.19512 11.0674 9.34496 11.0674C10.8868 11.0674 12.3655 11.6799 13.4558 12.7702C14.5461 13.8605 15.1586 15.3392 15.1586 16.8811Z" fill="#DF8676"/>
<path d="M30.0203 14.5553C30.0224 15.3234 29.7964 16.0749 29.3709 16.7145C28.9454 17.354 28.3397 17.8529 27.6305 18.1478C26.9212 18.4427 26.1403 18.5205 25.3868 18.3711C24.6333 18.2218 23.9411 17.8521 23.3979 17.3089C22.8548 16.7658 22.4851 16.0735 22.3357 15.3201C22.1864 14.5666 22.2641 13.7857 22.559 13.0764C22.854 12.3671 23.3528 11.7614 23.9924 11.3359C24.632 10.9105 25.3834 10.6844 26.1516 10.6865C27.1776 10.6865 28.1616 11.0941 28.8872 11.8197C29.6127 12.5452 30.0203 13.5292 30.0203 14.5553Z" fill="#F9DE96"/>
<path d="M19.7042 18.8156C19.7105 19.583 19.4884 20.3349 19.0662 20.9757C18.644 21.6166 18.0407 22.1173 17.3331 22.4144C16.6256 22.7114 15.8456 22.7914 15.0925 22.644C14.3394 22.4966 13.6471 22.1285 13.1037 21.5866C12.5603 21.0447 12.1904 20.3535 12.0409 19.6008C11.8914 18.8481 11.9692 18.0679 12.2643 17.3595C12.5594 16.6511 13.0585 16.0465 13.6982 15.6225C14.3378 15.1985 15.0892 14.9744 15.8566 14.9786C16.8735 14.9841 17.8473 15.3898 18.5674 16.1079C19.2875 16.826 19.6959 17.7987 19.7042 18.8156Z" fill="#F9DE96"/>
<path d="M45.0337 26.6585C46.7068 25.8145 47.3789 23.7739 46.5348 22.1008C45.6908 20.4277 43.6502 19.7556 41.9771 20.5997C40.304 21.4437 39.632 23.4843 40.476 25.1574C41.3201 26.8305 43.3606 27.5025 45.0337 26.6585Z" fill="#DF8676"/>
<path d="M33.551 25.5488C33.8444 24.5828 34.4182 23.7257 35.1995 23.0864C35.9809 22.447 36.9347 22.0542 37.9397 21.9578C38.9447 21.8615 39.9557 22.0659 40.8443 22.5451C41.7329 23.0243 42.4591 23.7567 42.9308 24.6494C43.4024 25.5421 43.5982 26.5548 43.4933 27.559C43.3883 28.5631 42.9874 29.5134 42.3415 30.2893C41.6955 31.0653 40.8335 31.6317 39.865 31.9169C38.8965 32.2021 37.8651 32.1931 36.9017 31.891C35.6199 31.4891 34.5487 30.5973 33.9211 29.4095C33.2936 28.2217 33.1606 26.8342 33.551 25.5488Z" fill="#F9DE96"/>
<path d="M34.2168 31.14C34.413 30.4971 34.7958 29.9269 35.3165 29.5018C35.8372 29.0768 36.4725 28.816 37.1416 28.7525C37.8108 28.689 38.4838 28.8257 39.0751 29.1452C39.6665 29.4648 40.1496 29.9527 40.4633 30.5473C40.7769 31.1418 40.9068 31.8161 40.8367 32.4846C40.7665 33.1531 40.4993 33.7857 40.0691 34.3022C39.6388 34.8186 39.0649 35.1956 38.42 35.3854C37.7752 35.5752 37.0885 35.5692 36.4471 35.3681C35.591 35.1026 34.8753 34.5082 34.4571 33.7155C34.0389 32.9227 33.9525 31.9964 34.2168 31.14Z" fill="#DF8676"/>
<path d="M18.4249 35.8442C19.3208 35.8916 20.1826 36.2037 20.9012 36.741C21.6197 37.2783 22.1627 38.0166 22.4614 38.8626C22.7602 39.7086 22.8013 40.6243 22.5795 41.4937C22.3577 42.363 21.8829 43.147 21.2154 43.7465C20.5478 44.346 19.7174 44.7339 18.8293 44.8613C17.9412 44.9887 17.0352 44.8497 16.2261 44.462C15.417 44.0743 14.741 43.4553 14.2838 42.6833C13.8266 41.9114 13.6087 41.0211 13.6576 40.1252C13.7232 38.9257 14.262 37.8013 15.1558 36.9986C16.0495 36.196 17.2253 35.7808 18.4249 35.8442Z" fill="#DF8676"/>
<path d="M13.1606 28.6032C14.5046 28.6762 15.7968 29.1459 16.8739 29.953C17.951 30.7602 18.7646 31.8685 19.212 33.138C19.6593 34.4074 19.7203 35.781 19.3872 37.0851C19.0541 38.3892 18.3419 39.5653 17.3405 40.4648C16.3392 41.3642 15.0938 41.9466 13.7615 42.1383C12.4293 42.3301 11.0701 42.1226 9.8557 41.5421C8.64136 40.9616 7.62636 40.0341 6.939 38.8769C6.25163 37.7196 5.92273 36.3846 5.9939 35.0405C6.0922 33.2371 6.90206 31.5464 8.24571 30.3395C9.58935 29.1326 11.357 28.5081 13.1606 28.6032Z" fill="#F9DE96"/>
<path d="M6.12101 31.2987C7.01655 31.3459 7.878 31.6576 8.59642 32.1944C9.31484 32.7311 9.85802 33.4689 10.1572 34.3143C10.4564 35.1597 10.4981 36.0749 10.2773 36.944C10.0564 37.8132 9.58274 38.5973 8.91623 39.1973C8.24972 39.7973 7.42026 40.1863 6.53275 40.3149C5.64523 40.4435 4.73954 40.3061 3.9301 39.9201C3.12067 39.534 2.4439 38.9165 1.98533 38.1459C1.52676 37.3752 1.30701 36.4858 1.35385 35.5903C1.41942 34.3899 1.95782 33.2644 2.85126 32.4601C3.74471 31.6558 4.92039 31.2382 6.12101 31.2987Z" fill="#DF8676"/>
<path d="M44.6407 57.2505C45.5366 57.2978 46.3985 57.6099 47.117 58.1472C47.8355 58.6845 48.3785 59.4229 48.6773 60.2689C48.976 61.1149 49.0171 62.0305 48.7953 62.8999C48.5735 63.7693 48.0987 64.5533 47.4312 65.1528C46.7636 65.7522 45.9333 66.1402 45.0451 66.2676C44.157 66.3949 43.251 66.256 42.4419 65.8683C41.6328 65.4806 40.9568 64.8616 40.4996 64.0896C40.0424 63.3176 39.8245 62.4273 39.8735 61.5315C39.939 60.332 40.4778 59.2075 41.3716 58.4049C42.2654 57.6023 43.4411 57.1871 44.6407 57.2505Z" fill="#DF8676"/>
<path d="M39.3764 50.0095C40.7204 50.0824 42.0126 50.5521 43.0897 51.3593C44.1668 52.1664 44.9804 53.2748 45.4278 54.5442C45.8751 55.8137 45.9361 57.1873 45.603 58.4914C45.2699 59.7955 44.5577 60.9716 43.5564 61.871C42.555 62.7704 41.3096 63.3528 39.9773 63.5446C38.6451 63.7363 37.2859 63.5288 36.0715 62.9483C34.8572 62.3678 33.8422 61.4403 33.1548 60.2831C32.4675 59.1259 32.1385 57.7909 32.2097 56.4468C32.308 54.6434 33.1179 52.9526 34.4615 51.7457C35.8052 50.5388 37.5728 49.9144 39.3764 50.0095Z" fill="#F9DE96"/>
<path d="M32.3368 52.705C33.2324 52.7522 34.0938 53.0639 34.8122 53.6006C35.5307 54.1374 36.0738 54.8751 36.373 55.7205C36.6722 56.5659 36.714 57.4811 36.4931 58.3503C36.2722 59.2194 35.7986 60.0036 35.132 60.6036C34.4655 61.2036 33.6361 61.5925 32.7486 61.7211C31.8611 61.8498 30.9554 61.7124 30.1459 61.3263C29.3365 60.9402 28.6597 60.3228 28.2012 59.5521C27.7426 58.7814 27.5228 57.8921 27.5697 56.9965C27.6352 55.7962 28.1736 54.6707 29.0671 53.8664C29.9605 53.0621 31.1362 52.6445 32.3368 52.705Z" fill="#DF8676"/>
<path d="M21.7687 46.7601C22.0085 45.8955 22.4994 45.1215 23.1793 44.536C23.8592 43.9506 24.6974 43.58 25.588 43.4711C26.4786 43.3622 27.3815 43.5199 28.1824 43.9243C28.9833 44.3287 29.6462 44.9616 30.0872 45.743C30.5283 46.5243 30.7277 47.4189 30.6601 48.3135C30.5926 49.2082 30.2612 50.0628 29.7078 50.769C29.1544 51.4752 28.404 52.0015 27.5515 52.281C26.6989 52.5606 25.7826 52.5811 24.9185 52.3397C23.7615 52.0165 22.78 51.2475 22.1894 50.2014C21.5989 49.1553 21.4476 47.9176 21.7687 46.7601Z" fill="#DF8676"/>
<path d="M13.5618 50.3352C13.9234 49.0387 14.6612 47.8785 15.682 47.0013C16.7029 46.124 17.9608 45.5691 19.297 45.4066C20.6331 45.2441 21.9874 45.4814 23.1887 46.0884C24.3901 46.6954 25.3845 47.6449 26.0463 48.817C26.7081 49.989 27.0076 51.3308 26.907 52.6731C26.8064 54.0153 26.3101 55.2975 25.4809 56.3578C24.6517 57.418 23.5268 58.2086 22.2484 58.6297C20.97 59.0508 19.5955 59.0834 18.2985 58.7235C16.5589 58.2379 15.0831 57.0818 14.195 55.5091C13.307 53.9365 13.0792 52.0756 13.5618 50.3352Z" fill="#F9DE96"/>
<path d="M14.6723 57.7909C14.9119 56.9267 15.4023 56.1529 16.0816 55.5674C16.7609 54.982 17.5986 54.611 18.4887 54.5016C19.3788 54.3921 20.2814 54.5491 21.0823 54.9526C21.8832 55.356 22.5465 55.9879 22.9883 56.7683C23.4301 57.5487 23.6306 58.4426 23.5644 59.337C23.4982 60.2313 23.1684 61.0859 22.6165 61.7928C22.0647 62.4997 21.3156 63.0271 20.464 63.3083C19.6125 63.5895 18.6967 63.6119 17.8324 63.3727C16.6746 63.0493 15.692 62.2804 15.0997 61.2343C14.5075 60.1882 14.3538 58.95 14.6723 57.7909Z" fill="#DF8676"/>
</svg>
