<svg width="57" height="69" viewBox="0 0 57 69" fill="none" xmlns="http://www.w3.org/2000/svg">
<path d="M28.8222 39.2922H28.7271L27.1732 38.9857C27.1047 38.9743 27.0391 38.9492 26.9805 38.9119C26.9218 38.8747 26.8713 38.826 26.8318 38.7688C26.7924 38.7116 26.7648 38.647 26.7508 38.579C26.7369 38.5109 26.7367 38.4407 26.7504 38.3726C26.7761 38.2355 26.855 38.1141 26.9698 38.0349C27.0847 37.9557 27.2262 37.9251 27.3635 37.9498L28.9279 38.2563C28.9962 38.2676 29.0615 38.2927 29.1197 38.3301C29.1779 38.3675 29.2278 38.4164 29.2665 38.4738C29.3051 38.5312 29.3315 38.596 29.3442 38.664C29.3569 38.732 29.3555 38.8019 29.3401 38.8694C29.3177 38.9897 29.2533 39.0982 29.1585 39.1756C29.0637 39.253 28.9446 39.2943 28.8222 39.2922Z" fill="white"/>
<path d="M33.9174 15.2976C33.8241 15.2982 33.7325 15.2726 33.6531 15.2236C33.5927 15.1896 33.5396 15.1439 33.4971 15.0891C33.4547 15.0343 33.4237 14.9715 33.4059 14.9045C33.3882 14.8374 33.3841 14.7675 33.3939 14.6989C33.4036 14.6302 33.4271 14.5642 33.4629 14.5048L34.2557 13.1307C34.2896 13.0702 34.3354 13.0171 34.3902 12.9747C34.445 12.9322 34.5077 12.9012 34.5748 12.8835C34.6418 12.8657 34.7117 12.8616 34.7804 12.8714C34.849 12.8812 34.915 12.9046 34.9744 12.9404C35.0942 13.0112 35.1819 13.1255 35.2193 13.2594C35.2568 13.3934 35.241 13.5366 35.1753 13.6592L34.3719 15.0333C34.3258 15.1132 34.2596 15.1796 34.1799 15.226C34.1001 15.2724 34.0096 15.297 33.9174 15.2976Z" fill="white"/>
<path d="M32.0462 62.0714C31.9223 62.073 31.802 62.0302 31.7069 61.9507C31.6119 61.8712 31.5485 61.7602 31.5283 61.638L31.2324 60.0736C31.2187 60.0055 31.2188 59.9353 31.2327 59.8672C31.2467 59.7991 31.2743 59.7346 31.3137 59.6774C31.3532 59.6202 31.4038 59.5715 31.4624 59.5342C31.5211 59.497 31.5866 59.4719 31.6551 59.4605C31.7924 59.4358 31.934 59.4664 32.0488 59.5456C32.1637 59.6248 32.2425 59.7462 32.2682 59.8833L32.5642 61.4371C32.5891 61.5757 32.5589 61.7186 32.4798 61.8351C32.4008 61.9517 32.2794 62.0326 32.1414 62.0608L32.0462 62.0714Z" fill="white"/>
<path d="M20.176 38.0131L14.8908 46.9133L13.8338 48.6362L9.42599 56.0355L1.14941 51.1414L5.22954 44.2601L11.8571 33.0873C12.5299 31.9207 13.6225 31.0549 14.912 30.6667C15.5257 30.4691 16.1741 30.4027 16.8151 30.4719C17.4561 30.5411 18.0753 30.7443 18.6327 31.0684H18.7173C19.831 31.7964 20.6102 32.9367 20.8837 34.2389C21.1572 35.541 20.9026 36.8985 20.176 38.0131Z" fill="#FFCF9F"/>
<path d="M30.0167 20.8369L24.6576 20.9109V26.3758L14.8906 30.773V68.3611H45.1217V30.773L35.4182 26.3969V20.9109L30.0167 20.8369Z" fill="#FAC48E"/>
<path d="M42.7964 15.1389C42.6091 15.0911 42.4128 15.0911 42.2256 15.1389L42.9867 10.6254C43.2866 8.83842 42.865 7.00544 41.8147 5.52897C40.7643 4.05249 39.1709 3.05319 37.3844 2.75051L30.9471 1.69348C30.0627 1.54363 29.1574 1.56974 28.2832 1.77035C27.4089 1.97097 26.5828 2.34212 25.8523 2.86255C25.1217 3.38298 24.501 4.04246 24.0258 4.80319C23.5505 5.56392 23.2301 6.41094 23.0827 7.29574L22.3217 11.8093C22.1535 11.705 21.9593 11.6501 21.7614 11.6507C20.7044 11.6507 20.3133 13.2046 20.3027 15.0438C20.3027 16.5342 20.4296 17.7181 21.1695 18.1409C21.3321 18.2489 21.524 18.3042 21.7192 18.2994H21.8989C21.8958 20.0387 22.2185 21.7632 22.8502 23.3838C23.3475 24.5312 23.9085 25.6499 24.5309 26.7346C25.683 28.6372 26.7929 29.2397 29.4989 29.6942H29.594C32.6171 30.2122 33.1457 30.2756 35.2492 28.5315C36.1885 27.7044 37.0847 26.8294 37.934 25.9101C39.0633 24.5902 39.9346 23.0699 40.5026 21.4283C40.5511 21.4614 40.6046 21.4864 40.6612 21.5022C40.8478 21.5546 41.0453 21.5546 41.2319 21.5022C42.0776 21.3437 42.5955 20.2761 43.0712 18.8597C43.6631 17.0944 43.7689 15.4666 42.7964 15.1389Z" fill="#FFCF9F"/>
<path d="M34.4776 0.34073C30.1755 -0.378052 27.9028 -0.00810118 25.3659 1.9157C24.5031 2.57255 23.7788 3.39355 23.2346 4.33144C22.6904 5.26932 22.337 6.30558 22.1948 7.38056L21.8037 11.6087C22.3639 11.6087 22.8607 12.0527 23.1884 12.7714L24.0024 7.95137C24.1756 6.93834 24.7437 6.03543 25.582 5.44089C26.4203 4.84634 27.4603 4.60875 28.4736 4.78028L38.7902 6.51379C39.8033 6.687 40.7062 7.25513 41.3007 8.09343C41.8953 8.93174 42.1328 9.97172 41.9613 10.985L41.1474 15.8051C41.341 15.5504 41.6019 15.3549 41.9009 15.241C42.1998 15.127 42.5247 15.0991 42.8387 15.1603L43.8957 11.059C44.1159 9.99126 44.1199 8.89022 43.9075 7.82089C43.6951 6.75156 43.2706 5.73564 42.659 4.83311C40.8937 2.19053 38.8642 1.09121 34.5727 0.361859L34.4776 0.34073Z" fill="#3C3C3B"/>
<path d="M43.5783 12.4433C37.6589 11.3017 30.6825 11.5448 25.9787 6.78817C24.1183 5.29775 25.9787 3.49023 25.9787 3.49023L42.0984 6.20678L43.5783 12.4433Z" fill="#3C3C3B"/>
<path d="M45.1325 30.7726V68.3606H14.8908L14.7852 30.6775L22.9772 27.1152C23.4528 35.0958 36.486 35.0958 37.0145 27.1152L45.1325 30.7726Z" fill="#F6F6F6"/>
<path d="M48.3563 33.5315C47.8365 32.3046 46.8513 31.334 45.6167 30.8326C44.3822 30.3313 42.9991 30.3401 41.7711 30.8572H41.6865C40.4955 31.4577 39.5911 32.5057 39.1711 33.7716C38.7511 35.0375 38.8498 36.4183 39.4456 37.6116L47.1091 52.8963L43.938 68.1915H51.8869L56.115 55.6446C56.6408 54.0516 56.5617 52.3207 55.893 50.7822L48.3563 33.5315Z" fill="#FFCF9F"/>
<path d="M45.3017 49.3341L53.6522 45.7402L48.3671 33.5315C47.8473 32.3046 46.862 31.334 45.6274 30.8326C44.3929 30.3313 43.0099 30.3401 41.7818 30.8572H41.6972C40.5063 31.4577 39.6018 32.5057 39.1818 33.7716C38.7618 35.0375 38.8605 36.4183 39.4563 37.6116L45.3017 49.3341Z" fill="#E0E0E0"/>
<path d="M45.122 52.9387V30.6565L37.0886 27.126C36.8349 30.9736 33.6533 32.9608 30.3765 33.0877V52.9387H45.122Z" fill="#F6F6F6"/>
<path d="M21.7616 54.3655L20.2923 60.3906L4.15152 58.5408C3.50152 58.3331 2.89881 57.9993 2.37797 57.5585C1.85713 57.1176 1.42838 56.5784 1.11617 55.9717C0.803954 55.3649 0.614429 54.7025 0.558489 54.0225C0.502549 53.3424 0.581234 52.658 0.790102 52.0084V51.9132C0.997776 51.2632 1.33164 50.6606 1.77249 50.1397C2.21334 49.6189 2.75251 49.1901 3.35926 48.8779C3.96601 48.5657 4.62842 48.3761 5.30849 48.3202C5.98856 48.2643 6.673 48.343 7.32261 48.5518L21.7616 54.3655Z" fill="#FFCF9F"/>
<path d="M35.8831 40.3284L34.1707 46.2689L35.492 46.1632L34.0544 50.106L35.6294 49.7677L33.9487 55.9091L39.7201 47.7382L37.6166 48.1293L39.403 44.4403L37.5532 44.8525L39.8681 39.9268L35.8831 40.3284Z" fill="#DF8676"/>
<path d="M21.7085 42.0726L23.738 47.1358L24.6048 46.343L25.7358 49.8629L26.6448 48.7742L28.8117 53.9536L28.3889 45.1486L27.1416 46.5544L26.3806 43.0239L25.313 44.3135L24.2665 39.6309L21.7085 42.0726Z" fill="#DF8676"/>
<path d="M48.0286 51.5859L43.3777 53.7634L44.1705 54.535L40.9254 55.7929L42.0035 56.5963L37.2363 58.9112L45.5023 58.0338L44.107 56.9451L47.3944 56.0255L46.126 55.0953L50.4704 53.848L48.0286 51.5859Z" fill="#DF8676"/>
<path d="M22.0995 55.0844C22.0742 54.9259 22.082 54.7638 22.1223 54.6085C22.1627 54.4532 22.2349 54.3079 22.3342 54.1817C22.4334 54.0556 22.5578 53.9515 22.6993 53.8758C22.8408 53.8001 22.9965 53.7545 23.1565 53.7419C25.7474 53.388 28.2922 52.7536 30.746 51.8498C31.0451 51.7411 31.3746 51.7518 31.666 51.8798C31.9573 52.0077 32.1881 52.2431 32.3104 52.5369C32.3744 52.6825 32.4072 52.8399 32.4069 52.9989C32.4065 53.158 32.3729 53.3152 32.3082 53.4605C32.2435 53.6058 32.1492 53.736 32.0312 53.8427C31.9133 53.9494 31.7744 54.0303 31.6234 54.0802C29.055 55.0447 26.3899 55.7287 23.6745 56.1202C23.3297 56.1783 22.9757 56.1038 22.6835 55.9117C22.3914 55.7195 22.1827 55.424 22.0995 55.0844Z" fill="#FAC48E"/>
<path d="M27.3213 55.8984C27.3603 55.7563 27.4286 55.624 27.5217 55.5098C27.6149 55.3957 27.7308 55.3023 27.8622 55.2356C27.9936 55.1689 28.1375 55.1304 28.2846 55.1226C28.4317 55.1148 28.5789 55.1378 28.7166 55.1902L36.0313 57.484C36.1733 57.523 36.3057 57.5912 36.4198 57.6844C36.534 57.7775 36.6274 57.8935 36.6941 58.0249C36.7608 58.1563 36.7992 58.3002 36.8071 58.4473C36.8149 58.5944 36.7918 58.7416 36.7394 58.8793C36.6474 59.1579 36.4497 59.3894 36.1887 59.5238C35.9278 59.6582 35.6245 59.6848 35.3442 59.598L28.0929 57.2514C27.8124 57.1724 27.5743 56.9861 27.43 56.733C27.2856 56.4799 27.2466 56.1801 27.3213 55.8984Z" fill="#FAC48E"/>
<path d="M26.6661 57.9598C26.7145 57.8209 26.7914 57.6936 26.8919 57.5862C26.9923 57.4787 27.1141 57.3934 27.2494 57.3357C27.3847 57.278 27.5306 57.2492 27.6777 57.2511C27.8248 57.253 27.9698 57.2855 28.1036 57.3467L36.2005 60.5812C36.4735 60.6895 36.6925 60.9017 36.8094 61.1711C36.9263 61.4406 36.9316 61.7454 36.8241 62.0188C36.7768 62.1586 36.7006 62.2869 36.6007 62.3955C36.5007 62.5042 36.3791 62.5906 36.2437 62.6494C36.1083 62.7081 35.962 62.7379 35.8144 62.7367C35.6668 62.7355 35.521 62.7034 35.3866 62.6424L27.2791 59.3973C27.1402 59.3489 27.013 59.2719 26.9056 59.1715C26.7981 59.071 26.7128 58.9493 26.655 58.814C26.5973 58.6787 26.5685 58.5328 26.5704 58.3857C26.5723 58.2386 26.6049 58.0936 26.6661 57.9598Z" fill="#FAC48E"/>
<path d="M26.0537 59.952L26.0485 59.9612C25.7491 60.4961 25.9399 61.1724 26.4748 61.4718L33.1249 65.1946C33.6598 65.494 34.3361 65.3031 34.6355 64.7682L34.6407 64.759C34.9401 64.2241 34.7492 63.5478 34.2144 63.2484L27.5642 59.5257C27.0294 59.2263 26.3531 59.4171 26.0537 59.952Z" fill="#FAC48E"/>
<path d="M25.4612 61.9341C25.5318 61.8256 25.6231 61.7321 25.7299 61.659C25.8368 61.586 25.957 61.5347 26.0837 61.5081C26.2104 61.4816 26.341 61.4804 26.4682 61.5045C26.5954 61.5286 26.7165 61.5776 26.8247 61.6487L31.909 65.0206C32.0172 65.0902 32.1105 65.1806 32.1834 65.2865C32.2564 65.3924 32.3076 65.5117 32.3341 65.6376C32.3607 65.7634 32.362 65.8932 32.338 66.0196C32.314 66.1459 32.2653 66.2663 32.1945 66.3736C32.124 66.4824 32.0325 66.5759 31.9254 66.6488C31.8182 66.7217 31.6976 66.7724 31.5705 66.798C31.4435 66.8236 31.3126 66.8236 31.1856 66.7979C31.0586 66.7722 30.938 66.7214 30.8309 66.6485L25.736 63.2871C25.6287 63.2166 25.5365 63.1257 25.4645 63.0194C25.3926 62.9131 25.3424 62.7936 25.3169 62.6678C25.2913 62.542 25.2909 62.4125 25.3156 62.2865C25.3404 62.1606 25.3899 62.0408 25.4612 61.9341Z" fill="#FAC48E"/>
<path d="M19.8481 58.0127L20.5247 55.8986C20.6544 55.4912 20.8631 55.1133 21.1389 54.7865C21.4147 54.4598 21.7522 54.1906 22.1321 53.9942C22.5119 53.7979 22.9268 53.6784 23.3528 53.6424C23.7789 53.6064 24.208 53.6547 24.6154 53.7846L27.1522 54.609L24.4779 62.875L21.9516 62.0611C21.1421 61.7942 20.4689 61.2215 20.0759 60.465C19.6829 59.7086 19.6011 58.8285 19.8481 58.0127Z" fill="#FFCF9F"/>
<path d="M24.0977 62.7693L25.9791 63.3824C26.1019 63.4234 26.2317 63.4394 26.3608 63.4296C26.4898 63.4198 26.6157 63.3843 26.7309 63.3253C26.8461 63.2662 26.9483 63.1847 27.0316 63.0856C27.1149 62.9865 27.1775 62.8718 27.2158 62.7482C27.2957 62.5001 27.2737 62.2304 27.1548 61.9985C27.0359 61.7666 26.8297 61.5914 26.5817 61.5114L26.9199 61.6277C27.2003 61.7145 27.5035 61.6878 27.7644 61.5534C28.0253 61.419 28.2231 61.1876 28.3152 60.9089C28.4049 60.6286 28.3795 60.3241 28.2448 60.0624C28.11 59.8008 27.8768 59.6034 27.5964 59.5137L27.9135 59.6193C28.0512 59.6717 28.1983 59.6948 28.3455 59.687C28.4926 59.6792 28.6365 59.6407 28.7678 59.574C28.8992 59.5073 29.0153 59.4139 29.1084 59.2997C29.2016 59.1856 29.2698 59.0532 29.3088 58.9111C29.0285 58.8214 28.7952 58.624 28.6604 58.3624C28.5256 58.1007 28.5003 57.7962 28.59 57.5159C28.6798 57.2355 28.8771 57.0023 29.1388 56.8675C29.4005 56.7327 29.705 56.7074 29.9853 56.7971C30.036 56.66 30.0576 56.5139 30.0489 56.368C30.0403 56.2221 30.0014 56.0795 29.9349 55.9494C29.8683 55.8193 29.7755 55.7044 29.6623 55.6119C29.5491 55.5195 29.4179 55.4515 29.2771 55.4124L26.7297 54.5879L24.0977 62.7693Z" fill="#FFCF9F"/>
</svg>
