<svg width="314" height="323" viewBox="0 0 314 323" fill="none" xmlns="http://www.w3.org/2000/svg">
<path d="M73.8594 21.6189L49.1228 2.25089C47.5351 1.00776 45.2403 1.28709 43.9972 2.8748L2.94541 55.3054C1.70228 56.8931 1.98161 59.1879 3.56932 60.4311L28.3058 79.7991C29.8935 81.0422 32.1884 80.7629 33.4315 79.1752L74.4833 26.7446C75.7264 25.1569 75.4471 22.8621 73.8594 21.6189Z" fill="#F5F5F5"/>
<path d="M29.1487 72.7725C29.1066 72.8145 25.091 69.738 20.1784 65.8906C15.2658 62.0432 11.3133 58.8826 11.3484 58.8336C11.3834 58.7845 15.399 61.868 20.3186 65.7154C25.2382 69.5628 29.1837 72.7234 29.1487 72.7725Z" fill="#E0E0E0"/>
<path d="M66.3538 23.1973C66.3118 23.2463 62.2962 20.1628 57.3836 16.3154C52.471 12.468 48.5115 9.30745 48.5536 9.25839C48.5956 9.20933 52.6042 12.2928 57.5238 16.1402C62.4434 19.9876 66.3889 23.1482 66.3538 23.1973Z" fill="#E0E0E0"/>
<path d="M19.7439 65.2591C19.6948 65.2171 28.1955 54.2846 38.7215 40.8433C49.2475 27.402 57.8253 16.5256 57.8743 16.5606C57.9234 16.5957 49.4297 27.5281 38.8967 40.9765C28.3637 54.4248 19.7929 65.2942 19.7439 65.2591Z" fill="#E0E0E0"/>
<path d="M43.2275 19.9106L45.4631 16.9111L48.2663 19.0135C48.4631 19.16 48.6292 19.3439 48.7548 19.5547C48.8804 19.7655 48.9632 19.9991 48.9983 20.2419C49.0335 20.4848 49.0203 20.7322 48.9597 20.97C48.899 21.2077 48.792 21.4312 48.6447 21.6275C48.3487 22.0246 47.9074 22.2882 47.4174 22.3605C46.9274 22.4327 46.4287 22.3077 46.0307 22.0129L43.2275 19.9106Z" fill="#EBEBEB"/>
<path d="M45.9674 17.2899L43.7319 20.2823L40.9287 18.1799C40.5256 17.8879 40.2549 17.4478 40.1761 16.9564C40.0972 16.4649 40.2167 15.9623 40.5082 15.5589C40.6547 15.362 40.8386 15.196 41.0494 15.0704C41.2602 14.9448 41.4937 14.862 41.7366 14.8269C41.9794 14.7917 42.2269 14.8048 42.4646 14.8655C42.7024 14.9262 42.9259 15.0332 43.1222 15.1804L45.9674 17.2899Z" fill="#E0E0E0"/>
<path d="M57.7061 30.9691L59.9416 27.9697L62.7448 30.0721C63.1424 30.3694 63.4061 30.8119 63.4783 31.3031C63.5506 31.7942 63.4254 32.294 63.1302 32.6931C62.8319 33.0896 62.3889 33.352 61.8978 33.4229C61.4067 33.4938 60.9075 33.3675 60.5092 33.0715L57.7061 30.9691Z" fill="#EBEBEB"/>
<path d="M60.4458 28.3413L58.2102 31.3407L55.407 29.2383C55.2102 29.0918 55.0442 28.9079 54.9185 28.6971C54.7929 28.4863 54.7102 28.2527 54.675 28.0099C54.6398 27.767 54.653 27.5196 54.7137 27.2818C54.7743 27.0441 54.8814 26.8206 55.0286 26.6243C55.1751 26.4274 55.359 26.2614 55.5698 26.1358C55.7806 26.0102 56.0141 25.9274 56.257 25.8923C56.4999 25.8571 56.7473 25.8703 56.985 25.9309C57.2228 25.9916 57.4463 26.0986 57.6426 26.2459L60.4458 28.3413Z" fill="#E0E0E0"/>
<path d="M36.9551 28.1801L39.1906 25.1807L41.9938 27.2831C42.3914 27.5803 42.6551 28.0229 42.7274 28.514C42.7996 29.0052 42.6744 29.5049 42.3793 29.904C42.081 30.3005 41.6379 30.5629 41.1468 30.6338C40.6557 30.7047 40.1565 30.5784 39.7583 30.2825L36.9551 28.1801Z" fill="#EBEBEB"/>
<path d="M39.6883 25.5522L37.4597 28.5516L34.6565 26.4492C34.4597 26.3027 34.2937 26.1188 34.1681 25.908C34.0424 25.6972 33.9597 25.4637 33.9245 25.2208C33.8893 24.978 33.9025 24.7306 33.9632 24.4928C34.0238 24.255 34.1309 24.0316 34.2781 23.8352C34.4246 23.6384 34.6085 23.4724 34.8193 23.3468C35.0301 23.2211 35.2637 23.1384 35.5065 23.1032C35.7494 23.0681 35.9968 23.0812 36.2346 23.1419C36.4723 23.2026 36.6958 23.3096 36.8921 23.4568L39.6883 25.5522Z" fill="#E0E0E0"/>
<path d="M51.7632 39.4768L53.9987 36.4844L56.8019 38.5868C57.1991 38.8828 57.4626 39.3241 57.5349 39.8141C57.6071 40.3041 57.4822 40.8027 57.1874 41.2008C57.0408 41.3984 56.8566 41.5652 56.6454 41.6915C56.4343 41.8179 56.2003 41.9014 55.9568 41.9372C55.7134 41.973 55.4652 41.9604 55.2266 41.9002C54.988 41.8399 54.7637 41.7332 54.5664 41.5862L51.7632 39.4768Z" fill="#EBEBEB"/>
<path d="M54.5242 36.8557L52.2957 39.8551L49.4925 37.7527C49.2956 37.6062 49.1296 37.4223 49.004 37.2115C48.8784 37.0007 48.7956 36.7672 48.7604 36.5243C48.7253 36.2814 48.7384 36.034 48.7991 35.7963C48.8598 35.5585 48.9668 35.335 49.114 35.1387C49.41 34.7416 49.8514 34.478 50.3414 34.4058C50.8314 34.3335 51.33 34.4585 51.728 34.7533L54.5242 36.8557Z" fill="#E0E0E0"/>
<path d="M30.6973 36.4428L32.9328 33.4434L35.736 35.5458C35.9329 35.6923 36.0989 35.8762 36.2245 36.087C36.3501 36.2978 36.4329 36.5313 36.468 36.7742C36.5032 37.017 36.4901 37.2644 36.4294 37.5022C36.3687 37.74 36.2617 37.9634 36.1144 38.1597C35.8185 38.5569 35.3771 38.8204 34.8871 38.8927C34.3971 38.9649 33.8985 38.84 33.5005 38.5452L30.6973 36.4428Z" fill="#EBEBEB"/>
<path d="M33.4161 33.836L31.1805 36.8354L28.3774 34.733C28.18 34.587 28.0133 34.4035 27.8871 34.1929C27.7608 33.9824 27.6773 33.749 27.6415 33.5061C27.6057 33.2632 27.6182 33.0156 27.6784 32.7776C27.7385 32.5396 27.845 32.3157 27.9919 32.119C28.2875 31.7279 28.7247 31.4684 29.2096 31.3963C29.6945 31.3242 30.1883 31.4453 30.5849 31.7336L33.4161 33.836Z" fill="#E0E0E0"/>
<path d="M45.8203 47.9916L48.0489 44.9922L50.852 47.0946C51.0489 47.2411 51.2149 47.425 51.3405 47.6358C51.4662 47.8466 51.5489 48.0801 51.5841 48.323C51.6192 48.5659 51.6061 48.8133 51.5454 49.051C51.4847 49.2888 51.3777 49.5123 51.2305 49.7086C50.9345 50.1057 50.4931 50.3693 50.0031 50.4415C49.5132 50.5138 49.0145 50.3888 48.6165 50.094L45.8203 47.9916Z" fill="#EBEBEB"/>
<path d="M48.5533 45.3701L46.3178 48.3695L43.5146 46.2671C43.3153 46.1221 43.1467 45.9391 43.0183 45.7287C42.89 45.5183 42.8045 45.2846 42.7667 45.0411C42.729 44.7975 42.7397 44.5489 42.7983 44.3095C42.8568 44.0702 42.9621 43.8447 43.1081 43.6461C43.4054 43.2485 43.8479 42.9848 44.3391 42.9126C44.8302 42.8403 45.33 42.9655 45.7291 43.2607L48.5533 45.3701Z" fill="#E0E0E0"/>
<path d="M23.563 44.9359L25.7915 41.9365L28.5947 44.0389C28.7916 44.1854 28.9576 44.3693 29.0832 44.5801C29.2088 44.7909 29.2916 45.0245 29.3268 45.2673C29.3619 45.5102 29.3488 45.7576 29.2881 45.9954C29.2274 46.2331 29.1204 46.4566 28.9732 46.6529C28.8267 46.8498 28.6427 47.0158 28.4319 47.1414C28.2211 47.267 27.9876 47.3498 27.7447 47.3849C27.5019 47.4201 27.2545 47.407 27.0167 47.3463C26.7789 47.2856 26.5555 47.1786 26.3592 47.0313L23.563 44.9359Z" fill="#EBEBEB"/>
<path d="M26.2965 42.308L24.0609 45.3074L21.2577 43.205C20.8623 42.9057 20.6014 42.4621 20.5318 41.9711C20.4622 41.48 20.5896 40.9814 20.8863 40.584C21.1846 40.1875 21.6277 39.9251 22.1188 39.8542C22.6098 39.7833 23.109 39.9096 23.5073 40.2056L26.2965 42.308Z" fill="#E0E0E0"/>
<path d="M38.8262 56.31L41.0617 53.3105L43.8649 55.4129C44.0623 55.5589 44.2289 55.7424 44.3552 55.953C44.4815 56.1635 44.5649 56.397 44.6007 56.6398C44.6366 56.8827 44.624 57.1303 44.5639 57.3683C44.5038 57.6064 44.3972 57.8302 44.2504 58.0269C44.1039 58.2238 43.9199 58.3898 43.7091 58.5154C43.4983 58.641 43.2648 58.7238 43.0219 58.759C42.7791 58.7941 42.5317 58.781 42.2939 58.7203C42.0561 58.6596 41.8327 58.5526 41.6364 58.4054L38.8262 56.31Z" fill="#EBEBEB"/>
<path d="M41.5666 53.6893L39.331 56.6817L36.5278 54.5793C36.1313 54.281 35.869 53.8379 35.7981 53.3468C35.7272 52.8558 35.8535 52.3566 36.1494 51.9583C36.2959 51.7614 36.4798 51.5954 36.6906 51.4698C36.9014 51.3442 37.135 51.2614 37.3778 51.2263C37.6207 51.1911 37.8681 51.2042 38.1059 51.2649C38.3436 51.3256 38.5671 51.4326 38.7634 51.5799L41.5666 53.6893Z" fill="#E0E0E0"/>
<path d="M17.27 54.5023L19.4845 51.5029L22.2877 53.6053C22.6842 53.9036 22.9466 54.3467 23.0175 54.8378C23.0884 55.3289 22.9621 55.828 22.6662 56.2263C22.5197 56.4232 22.3357 56.5892 22.1249 56.7148C21.9142 56.8404 21.6806 56.9232 21.4378 56.9583C21.1949 56.9935 20.9475 56.9804 20.7097 56.9197C20.472 56.859 20.2485 56.752 20.0522 56.6047L17.27 54.5023Z" fill="#EBEBEB"/>
<path d="M20.0102 51.8746L17.7746 54.86L14.9715 52.7576C14.5752 52.4628 14.3117 52.0234 14.2381 51.535C14.1646 51.0467 14.2872 50.5491 14.579 50.1507C14.7255 49.9538 14.9094 49.7878 15.1202 49.6622C15.331 49.5366 15.5646 49.4538 15.8074 49.4186C16.0503 49.3835 16.2977 49.3966 16.5355 49.4573C16.7732 49.518 16.9967 49.625 17.193 49.7722L20.0102 51.8746Z" fill="#E0E0E0"/>
<path d="M31.7974 65.3227L34.0329 62.3232L36.8361 64.4256C37.0335 64.5716 37.2001 64.7551 37.3264 64.9657C37.4527 65.1762 37.5361 65.4097 37.5719 65.6525C37.6078 65.8954 37.5952 66.143 37.5351 66.381C37.475 66.6191 37.3684 66.8429 37.2215 67.0396C37.075 67.2365 36.8911 67.4025 36.6803 67.5281C36.4695 67.6537 36.236 67.7365 35.9931 67.7716C35.7503 67.8068 35.5029 67.7937 35.2651 67.733C35.0273 67.6723 34.8039 67.5653 34.6076 67.418L31.7974 65.3227Z" fill="#EBEBEB"/>
<path d="M34.5373 62.694L32.3017 65.6934L29.4986 63.591C29.1021 63.2927 28.8397 62.8496 28.7688 62.3586C28.6979 61.8675 28.8242 61.3683 29.1201 60.97C29.2666 60.7732 29.4505 60.6071 29.6613 60.4815C29.8721 60.3559 30.1057 60.2731 30.3485 60.238C30.5914 60.2028 30.8388 60.216 31.0766 60.2766C31.3143 60.3373 31.5378 60.4443 31.7341 60.5916L34.5373 62.694Z" fill="#E0E0E0"/>
<path d="M310.638 197.444L265.618 212.785C265.164 212.939 264.684 213.002 264.205 212.971C263.727 212.94 263.259 212.814 262.829 212.602C262.399 212.39 262.014 212.095 261.698 211.734C261.382 211.374 261.14 210.954 260.986 210.5L229.583 118.317C229.428 117.863 229.363 117.382 229.394 116.903C229.424 116.424 229.548 115.956 229.76 115.525C229.971 115.094 230.266 114.709 230.626 114.392C230.987 114.075 231.406 113.832 231.861 113.678L276.88 98.3442C277.796 98.0323 278.799 98.097 279.668 98.524C280.536 98.9511 281.2 99.7057 281.512 100.622L312.915 192.812C313.071 193.266 313.135 193.745 313.104 194.224C313.074 194.703 312.949 195.17 312.738 195.601C312.526 196.031 312.232 196.415 311.871 196.732C311.511 197.048 311.092 197.29 310.638 197.444Z" fill="#EBEBEB"/>
<path d="M252.444 126.439C252.701 127.191 252.729 128.002 252.525 128.77C252.321 129.537 251.894 130.227 251.297 130.752C250.701 131.277 249.963 131.613 249.175 131.719C248.388 131.824 247.587 131.693 246.874 131.343C246.161 130.993 245.568 130.439 245.17 129.751C244.771 129.064 244.586 128.274 244.637 127.481C244.687 126.689 244.972 125.929 245.455 125.298C245.938 124.667 246.597 124.193 247.349 123.937C248.356 123.594 249.459 123.665 250.414 124.134C251.369 124.603 252.099 125.432 252.444 126.439Z" fill="#FAFAFA"/>
<path d="M274.519 118.919C274.775 119.67 274.802 120.479 274.597 121.245C274.393 122.011 273.966 122.699 273.371 123.223C272.775 123.746 272.038 124.081 271.252 124.185C270.466 124.29 269.667 124.159 268.956 123.809C268.244 123.459 267.652 122.906 267.255 122.22C266.858 121.534 266.673 120.745 266.724 119.954C266.775 119.163 267.059 118.405 267.541 117.775C268.023 117.146 268.681 116.673 269.431 116.417C269.929 116.248 270.456 116.178 270.982 116.211C271.507 116.245 272.021 116.382 272.493 116.615C272.966 116.847 273.388 117.17 273.735 117.565C274.083 117.961 274.349 118.421 274.519 118.919Z" fill="#FAFAFA"/>
<path d="M259.431 146.965C259.686 147.716 259.713 148.525 259.509 149.291C259.305 150.057 258.878 150.745 258.282 151.268C257.687 151.792 256.949 152.127 256.164 152.231C255.378 152.336 254.579 152.205 253.867 151.855C253.156 151.505 252.564 150.952 252.167 150.266C251.77 149.58 251.585 148.791 251.636 148C251.687 147.209 251.971 146.451 252.453 145.821C252.935 145.192 253.592 144.719 254.343 144.463C254.841 144.292 255.368 144.222 255.894 144.255C256.42 144.288 256.933 144.425 257.406 144.658C257.879 144.89 258.301 145.214 258.648 145.61C258.996 146.006 259.262 146.466 259.431 146.965Z" fill="#FAFAFA"/>
<path d="M281.513 139.446C281.768 140.196 281.795 141.006 281.591 141.772C281.387 142.537 280.96 143.226 280.364 143.749C279.769 144.272 279.032 144.607 278.246 144.712C277.46 144.816 276.661 144.685 275.949 144.335C275.238 143.985 274.646 143.432 274.249 142.746C273.852 142.06 273.667 141.272 273.718 140.481C273.769 139.69 274.053 138.931 274.535 138.302C275.017 137.672 275.674 137.2 276.425 136.944C276.923 136.774 277.45 136.704 277.975 136.738C278.501 136.772 279.014 136.909 279.487 137.141C279.959 137.373 280.381 137.696 280.729 138.092C281.077 138.487 281.343 138.947 281.513 139.446Z" fill="#FAFAFA"/>
<path d="M266.425 167.499C266.68 168.25 266.708 169.059 266.503 169.825C266.299 170.591 265.872 171.279 265.276 171.803C264.681 172.326 263.944 172.661 263.158 172.765C262.372 172.87 261.573 172.739 260.861 172.389C260.15 172.039 259.558 171.486 259.161 170.8C258.764 170.114 258.579 169.326 258.63 168.534C258.681 167.743 258.965 166.985 259.447 166.355C259.929 165.726 260.586 165.253 261.337 164.998C261.835 164.828 262.362 164.758 262.888 164.791C263.413 164.825 263.927 164.962 264.399 165.195C264.871 165.427 265.294 165.75 265.641 166.146C265.989 166.541 266.255 167.001 266.425 167.499Z" fill="#FAFAFA"/>
<path d="M288.507 159.98C288.762 160.73 288.79 161.54 288.585 162.306C288.381 163.072 287.954 163.76 287.358 164.283C286.763 164.807 286.026 165.142 285.24 165.246C284.454 165.35 283.655 165.219 282.943 164.869C282.232 164.52 281.64 163.967 281.243 163.281C280.846 162.594 280.661 161.806 280.712 161.015C280.763 160.224 281.047 159.465 281.529 158.836C282.011 158.206 282.669 157.734 283.419 157.478C283.917 157.308 284.444 157.238 284.97 157.272C285.495 157.306 286.009 157.443 286.481 157.675C286.954 157.907 287.376 158.231 287.723 158.626C288.071 159.021 288.337 159.481 288.507 159.98Z" fill="#FAFAFA"/>
<path d="M273.418 188.011C273.674 188.762 273.701 189.571 273.497 190.337C273.292 191.103 272.866 191.791 272.27 192.314C271.675 192.838 270.937 193.173 270.151 193.277C269.366 193.382 268.566 193.251 267.855 192.901C267.144 192.551 266.552 191.998 266.155 191.312C265.757 190.626 265.573 189.837 265.624 189.046C265.674 188.255 265.959 187.497 266.441 186.867C266.922 186.238 267.58 185.765 268.331 185.509C268.829 185.339 269.356 185.269 269.881 185.303C270.407 185.337 270.92 185.474 271.393 185.706C271.865 185.939 272.287 186.262 272.635 186.657C272.982 187.053 273.249 187.513 273.418 188.011Z" fill="#FAFAFA"/>
<path d="M295.501 180.506C295.757 181.257 295.784 182.066 295.58 182.832C295.375 183.598 294.949 184.286 294.353 184.81C293.758 185.333 293.02 185.668 292.234 185.772C291.449 185.877 290.649 185.746 289.938 185.396C289.227 185.046 288.635 184.493 288.238 183.807C287.84 183.121 287.656 182.332 287.707 181.541C287.757 180.75 288.042 179.992 288.524 179.362C289.005 178.733 289.663 178.26 290.414 178.004C290.912 177.835 291.439 177.765 291.964 177.798C292.49 177.832 293.003 177.969 293.476 178.201C293.948 178.434 294.37 178.757 294.718 179.152C295.065 179.548 295.332 180.008 295.501 180.506Z" fill="#FAFAFA"/>
<path d="M250.292 124.287C249.865 125.473 249.339 126.622 248.722 127.721C248.202 128.871 247.583 129.973 246.872 131.015C247.3 129.829 247.825 128.68 248.442 127.581C248.96 126.431 249.58 125.328 250.292 124.287Z" fill="#E0E0E0"/>
<path d="M271.912 116.74C271.488 117.929 270.965 119.08 270.35 120.181C269.825 121.328 269.206 122.43 268.5 123.475C268.925 122.287 269.448 121.136 270.062 120.034C270.589 118.888 271.208 117.787 271.912 116.74Z" fill="#E0E0E0"/>
<path d="M257.49 144.814C257.121 146.054 256.653 147.261 256.088 148.424C255.628 149.637 255.065 150.809 254.406 151.928C254.777 150.689 255.246 149.482 255.808 148.318C256.27 147.106 256.833 145.934 257.49 144.814Z" fill="#E0E0E0"/>
<path d="M279.298 137.245C279.004 138.446 278.606 139.618 278.107 140.749C277.706 141.922 277.207 143.059 276.614 144.148C276.909 142.948 277.308 141.775 277.806 140.644C278.21 139.472 278.709 138.335 279.298 137.245Z" fill="#E0E0E0"/>
<path d="M263.825 165.257C263.088 167.5 262.15 169.672 261.022 171.746C261.759 169.503 262.697 167.331 263.825 165.257Z" fill="#E0E0E0"/>
<path d="M286.44 158.08C285.514 160.292 284.393 162.417 283.09 164.429C283.502 163.303 284.015 162.217 284.625 161.185C285.14 160.1 285.748 159.061 286.44 158.08Z" fill="#E0E0E0"/>
<path d="M271.415 186.077C270.957 187.245 270.401 188.373 269.754 189.448C269.199 190.573 268.55 191.65 267.812 192.665C268.824 190.371 270.029 188.167 271.415 186.077Z" fill="#E0E0E0"/>
<path d="M293.448 177.892C293.081 179.209 292.612 180.495 292.046 181.739C291.58 183.022 291.013 184.267 290.35 185.46C290.716 184.143 291.185 182.857 291.752 181.613C292.216 180.329 292.783 179.084 293.448 177.892Z" fill="#E0E0E0"/>
<path d="M301.5 191.516C301.5 191.6 294.765 193.976 286.398 196.828C278.03 199.68 271.211 201.923 271.183 201.839C271.155 201.754 277.918 199.379 286.292 196.526C294.667 193.674 301.472 191.418 301.5 191.516Z" fill="#E0E0E0"/>
<path d="M271.491 108.969C271.491 109.046 264.757 111.429 256.382 114.281C248.008 117.133 241.203 119.376 241.175 119.292C241.147 119.208 247.91 116.832 256.284 113.98C264.659 111.128 271.463 108.885 271.491 108.969Z" fill="#E0E0E0"/>
<path d="M256.767 118.246C256.728 118.257 256.687 118.257 256.648 118.246H256.606L256.914 118.148C256.914 118.197 256.914 118.267 256.802 118.295C256.69 118.323 256.634 118.295 256.613 118.246L256.921 118.148C256.921 118.148 256.921 118.183 256.921 118.19C256.901 118.211 256.877 118.226 256.85 118.236C256.824 118.246 256.795 118.249 256.767 118.246Z" fill="#E0E0E0"/>
<path d="M285.311 196.834C285.227 196.834 278.835 178.319 271.028 155.417C263.222 132.515 256.97 113.916 257.055 113.888C257.139 113.86 263.53 132.403 271.33 155.312C279.13 178.221 285.395 196.806 285.311 196.834Z" fill="#E0E0E0"/>
<path d="M118.485 317.714L120.889 281.619L191.436 286.317C192.601 286.394 193.687 286.931 194.456 287.81C195.225 288.688 195.613 289.836 195.535 291L193.716 318.313C193.639 319.478 193.102 320.564 192.223 321.333C191.345 322.101 190.197 322.49 189.033 322.412L118.485 317.714Z" fill="#F5F5F5"/>
<path d="M140.558 296.395L139.047 319.079L171.479 321.239L172.989 298.555L140.558 296.395Z" fill="#E0E0E0"/>
<path d="M114.322 279.524L111.629 319.969C111.575 320.78 112.188 321.481 112.999 321.535L122.593 322.174C123.404 322.228 124.105 321.615 124.159 320.804L126.853 280.359C126.907 279.548 126.293 278.847 125.482 278.793L115.888 278.154C115.077 278.1 114.376 278.713 114.322 279.524Z" fill="#EBEBEB"/>
<path d="M124.296 318.822C122.191 318.877 120.084 318.802 117.988 318.598C115.894 318.521 113.807 318.317 111.737 317.988C113.842 317.933 115.949 318.008 118.044 318.212C120.139 318.289 122.226 318.492 124.296 318.822Z" fill="#E0E0E0"/>
<path d="M124.527 315.318C122.433 315.376 120.338 315.301 118.255 315.094C116.16 315.018 114.073 314.814 112.003 314.484C114.097 314.435 116.191 314.51 118.276 314.709C120.37 314.785 122.457 314.989 124.527 315.318Z" fill="#E0E0E0"/>
<path d="M124.765 311.821C122.66 311.876 120.554 311.801 118.458 311.597C116.364 311.521 114.276 311.317 112.207 310.987C114.312 310.932 116.418 311.007 118.514 311.211C120.608 311.288 122.696 311.492 124.765 311.821Z" fill="#E0E0E0"/>
<path d="M124.996 308.318C122.891 308.373 120.785 308.298 118.689 308.094C116.595 308.017 114.507 307.814 112.438 307.484C114.543 307.434 116.649 307.508 118.745 307.708C120.839 307.785 122.927 307.988 124.996 308.318Z" fill="#E0E0E0"/>
<path d="M125.228 304.82C123.134 304.874 121.04 304.799 118.955 304.596C116.859 304.519 114.769 304.316 112.697 303.986C114.802 303.931 116.909 304.006 119.004 304.21C121.089 304.288 123.167 304.491 125.228 304.82Z" fill="#E0E0E0"/>
<path d="M125.466 301.316C123.361 301.371 121.255 301.296 119.159 301.092C117.065 301.016 114.977 300.812 112.908 300.482C115.013 300.431 117.119 300.506 119.215 300.706C121.309 300.783 123.397 300.987 125.466 301.316Z" fill="#E0E0E0"/>
<path d="M125.697 297.819C123.592 297.874 121.486 297.799 119.39 297.595C117.296 297.519 115.208 297.315 113.139 296.985C115.244 296.93 117.35 297.005 119.446 297.209C121.54 297.286 123.628 297.49 125.697 297.819Z" fill="#E0E0E0"/>
<path d="M125.928 294.316C123.823 294.371 121.717 294.296 119.621 294.092C117.527 294.015 115.44 293.811 113.37 293.482C115.475 293.432 117.581 293.506 119.677 293.706C121.771 293.783 123.859 293.986 125.928 294.316Z" fill="#E0E0E0"/>
<path d="M126.159 290.818C124.066 290.872 121.972 290.797 119.887 290.594C117.793 290.518 115.706 290.314 113.636 289.984C115.741 289.929 117.848 290.004 119.943 290.209C122.026 290.286 124.102 290.49 126.159 290.818Z" fill="#E0E0E0"/>
<path d="M126.398 287.315C124.293 287.37 122.186 287.295 120.09 287.091C117.996 287.014 115.909 286.811 113.839 286.481C115.944 286.431 118.05 286.505 120.147 286.705C122.241 286.782 124.328 286.986 126.398 287.315Z" fill="#E0E0E0"/>
<path d="M126.629 283.817C124.524 283.872 122.418 283.797 120.322 283.593C118.228 283.517 116.14 283.313 114.071 282.983C116.176 282.928 118.282 283.003 120.378 283.207C122.472 283.284 124.56 283.487 126.629 283.817Z" fill="#E0E0E0"/>
<path d="M126.861 280.313C124.768 280.367 122.673 280.292 120.589 280.089C118.492 280.013 116.402 279.809 114.331 279.479C116.436 279.425 118.542 279.499 120.638 279.704C122.723 279.781 124.801 279.985 126.861 280.313Z" fill="#E0E0E0"/>
<path d="M186.797 315.333L184.762 315.197C184.206 315.16 183.687 314.904 183.32 314.484C182.952 314.064 182.767 313.516 182.804 312.96L183.265 306.037L189.558 306.456L189.097 313.379C189.079 313.66 189.004 313.934 188.877 314.185C188.751 314.437 188.575 314.66 188.36 314.842C188.146 315.025 187.897 315.162 187.628 315.246C187.36 315.33 187.077 315.36 186.797 315.333Z" fill="#EBEBEB"/>
<path d="M185.232 299.565L187.334 299.712C187.892 299.751 188.411 300.01 188.778 300.432C189.144 300.854 189.328 301.404 189.289 301.962L188.804 308.9L182.497 308.458L182.982 301.52C183.021 300.963 183.28 300.444 183.702 300.077C184.124 299.71 184.674 299.526 185.232 299.565Z" fill="#E0E0E0"/>
<path d="M172.039 293.135L171.509 295.114C171.364 295.654 171.01 296.116 170.525 296.395C170.04 296.675 169.464 296.751 168.923 296.606L162.193 294.802L163.833 288.684L170.563 290.488C170.836 290.561 171.091 290.689 171.314 290.862C171.537 291.036 171.723 291.253 171.861 291.499C171.999 291.746 172.085 292.018 172.116 292.299C172.147 292.58 172.12 292.865 172.039 293.135Z" fill="#EBEBEB"/>
<path d="M156.514 290.402L157.042 288.432C157.186 287.893 157.538 287.434 158.021 287.155C158.504 286.876 159.078 286.8 159.616 286.945L166.318 288.739L164.687 294.832L157.985 293.037C157.713 292.965 157.458 292.838 157.236 292.665C157.014 292.492 156.829 292.276 156.692 292.031C156.555 291.785 156.468 291.514 156.438 291.234C156.407 290.954 156.433 290.671 156.514 290.402Z" fill="#E0E0E0"/>
<path d="M191.731 289.908L192.282 291.866C192.432 292.401 192.364 292.974 192.092 293.459C191.82 293.944 191.366 294.301 190.831 294.452L184.171 296.325L182.468 290.27L189.128 288.397C189.398 288.321 189.681 288.3 189.96 288.335C190.238 288.37 190.507 288.461 190.749 288.602C190.992 288.743 191.204 288.931 191.373 289.155C191.542 289.38 191.663 289.636 191.731 289.908Z" fill="#EBEBEB"/>
<path d="M172.647 296.321L172.096 294.363C171.945 293.828 172.014 293.255 172.286 292.77C172.558 292.285 173.011 291.928 173.547 291.777L180.234 289.897L181.937 295.951L175.277 297.825C175.005 297.905 174.72 297.93 174.439 297.897C174.158 297.864 173.886 297.775 173.64 297.635C173.395 297.494 173.18 297.305 173.009 297.079C172.838 296.854 172.715 296.596 172.647 296.321Z" fill="#E0E0E0"/>
<path d="M175.559 314.981L173.671 314.211C173.154 314 172.743 313.593 172.527 313.079C172.31 312.565 172.307 311.986 172.518 311.47L175.138 305.046L180.978 307.428L178.358 313.852C178.147 314.368 177.74 314.78 177.226 314.996C176.712 315.212 176.134 315.215 175.617 315.005L175.559 314.981Z" fill="#EBEBEB"/>
<path d="M180.112 298.412L182 299.183C182.516 299.393 182.928 299.8 183.144 300.314C183.36 300.828 183.363 301.407 183.153 301.923L180.532 308.347L174.692 305.965L177.313 299.541C177.419 299.281 177.576 299.044 177.776 298.845C177.975 298.647 178.212 298.49 178.473 298.385C178.734 298.279 179.014 298.228 179.295 298.232C179.577 298.237 179.854 298.298 180.112 298.412Z" fill="#E0E0E0"/>
<path d="M273.341 39.4418L278.079 45.4686C278.165 45.5818 278.204 45.7242 278.187 45.8656C278.17 46.0069 278.099 46.136 277.988 46.2255L271.898 50.9559C271.445 51.3088 270.927 51.569 270.374 51.7216C269.821 51.8743 269.243 51.9163 268.673 51.8454C268.104 51.7744 267.554 51.5919 267.055 51.3082C266.556 51.0245 266.118 50.6452 265.766 50.192C265.413 49.7388 265.152 49.2205 265 48.6667C264.847 48.1128 264.805 47.5343 264.876 46.9642C264.947 46.3941 265.129 45.8436 265.413 45.3441C265.697 44.8445 266.076 44.4058 266.53 44.053L272.62 39.3226C272.733 39.2498 272.87 39.2216 273.003 39.2436C273.137 39.2656 273.257 39.3362 273.341 39.4418Z" fill="#EBEBEB"/>
<path d="M276.887 46.3663L272.178 40.3184C272.135 40.2623 272.103 40.1982 272.085 40.1298C272.066 40.0613 272.061 39.99 272.07 39.9197C272.08 39.8494 272.102 39.7816 272.138 39.7201C272.173 39.6587 272.22 39.6048 272.276 39.5616L278.359 34.8312C278.812 34.4783 279.33 34.218 279.883 34.0654C280.436 33.9128 281.014 33.8707 281.584 33.9417C282.153 34.0126 282.703 34.1952 283.202 34.4789C283.701 34.7626 284.139 35.1419 284.491 35.595C284.844 36.0482 285.105 36.5665 285.257 37.1204C285.41 37.6742 285.452 38.2527 285.381 38.8228C285.31 39.3929 285.128 39.9435 284.844 40.443C284.56 40.9425 284.181 41.3812 283.727 41.734L277.644 46.4504C277.533 46.5393 277.39 46.5804 277.249 46.5647C277.107 46.5489 276.977 46.4776 276.887 46.3663Z" fill="#E0E0E0"/>
<path d="M3.59016 182.938L10.8014 185.559C10.9369 185.609 11.0469 185.711 11.1073 185.843C11.1677 185.974 11.1736 186.124 11.1237 186.26L8.48875 193.499C8.29307 194.039 7.99276 194.536 7.605 194.96C7.21724 195.385 6.74964 195.728 6.22893 195.972C5.70822 196.215 5.14463 196.354 4.57039 196.379C3.99616 196.404 3.42254 196.316 2.88236 196.12C1.79198 195.723 0.903585 194.91 0.412187 193.859C-0.0792111 192.808 -0.133452 191.605 0.261371 190.514L2.89637 183.274C2.9192 183.206 2.95539 183.143 3.00282 183.089C3.05025 183.036 3.10796 182.992 3.17257 182.96C3.23719 182.929 3.30741 182.911 3.37911 182.907C3.45082 182.903 3.52257 182.914 3.59016 182.938Z" fill="#EBEBEB"/>
<path d="M10.2967 186.939L3.09252 184.318C3.02428 184.295 2.96149 184.258 2.90797 184.21C2.85445 184.161 2.8113 184.103 2.78116 184.037C2.75101 183.972 2.7345 183.901 2.73261 183.828C2.73071 183.756 2.74349 183.685 2.77015 183.618L5.40516 176.371C5.60075 175.831 5.9011 175.334 6.289 174.91C6.67689 174.486 7.14469 174.143 7.66556 173.9C8.18644 173.657 8.75013 173.52 9.32431 173.495C9.8985 173.471 10.4719 173.56 11.0115 173.757C11.5519 173.953 12.0484 174.253 12.4725 174.641C12.8965 175.029 13.2398 175.497 13.4827 176.018C13.7256 176.539 13.8632 177.102 13.8877 177.677C13.9122 178.251 13.8231 178.824 13.6255 179.364L10.9905 186.61C10.9414 186.745 10.8411 186.855 10.7112 186.917C10.5814 186.979 10.4325 186.987 10.2967 186.939Z" fill="#E0E0E0"/>
<path d="M306.111 321.822C306.111 321.927 238.946 322.004 156.14 322.004C73.3335 322.004 6.16895 321.927 6.16895 321.822C6.16895 321.717 73.3195 321.64 156.175 321.64C239.03 321.64 306.111 321.724 306.111 321.822Z" fill="#263238"/>
<path d="M248.848 12.2305H79.9765C76.0674 12.2305 72.8984 15.3994 72.8984 19.3085V246.893C72.8984 250.802 76.0674 253.971 79.9765 253.971H248.848C252.757 253.971 255.926 250.802 255.926 246.893V19.3085C255.926 15.3994 252.757 12.2305 248.848 12.2305Z" fill="#455A64"/>
<path d="M243.662 23.6533H85.1484V237.362H243.662V23.6533Z" fill="white"/>
<path d="M243.669 237.362C243.669 235.904 243.599 150.19 243.501 23.6183L243.669 23.7795H85.1693L85.3515 23.5972C85.3515 103.299 85.3515 177.149 85.3515 237.341L85.1974 237.187L243.718 237.341L85.1974 237.488H85.0502V237.341C85.0502 177.184 85.0502 103.334 85.0151 23.5972V23.415H85.2184H243.718H243.879V23.5832C243.739 150.169 243.669 235.904 243.669 237.362Z" fill="#263238"/>
<path d="M188.622 44.3408H161.417V51.0755H188.622V44.3408Z" fill="#E0E0E0"/>
<path d="M228.518 48.5943C228.518 48.6994 221.076 48.7765 211.895 48.7765C202.715 48.7765 195.279 48.6994 195.279 48.5943C195.279 48.4892 202.715 48.4121 211.895 48.4121C221.076 48.4121 228.518 48.4962 228.518 48.5943Z" fill="#263238"/>
<path d="M227.895 56.6746C227.895 56.7727 213.01 56.8568 194.656 56.8568C176.302 56.8568 161.417 56.7727 161.417 56.6746C161.417 56.5765 176.295 56.4854 194.656 56.4854C213.017 56.4854 227.895 56.5694 227.895 56.6746Z" fill="#263238"/>
<path d="M227.895 64.5865C227.895 64.6846 213.01 64.7687 194.656 64.7687C176.302 64.7687 161.417 64.6846 161.417 64.5865C161.417 64.4884 176.295 64.4043 194.656 64.4043C213.017 64.4043 227.895 64.4814 227.895 64.5865Z" fill="#263238"/>
<path d="M238.266 85.6951C238.266 85.7932 205.195 85.8773 164.416 85.8773C123.636 85.8773 90.5586 85.7932 90.5586 85.6951C90.5586 85.597 123.615 85.5059 164.416 85.5059C205.216 85.5059 238.266 85.5759 238.266 85.6951Z" fill="#263238"/>
<path d="M238.266 205.153C238.266 205.251 205.195 205.335 164.416 205.335C123.636 205.335 90.5586 205.251 90.5586 205.153C90.5586 205.055 123.615 204.971 164.416 204.971C205.216 204.971 238.266 205.048 238.266 205.153Z" fill="#263238"/>
<path d="M148.298 97.7695H102.725V106.319H148.298V97.7695Z" fill="#E0E0E0"/>
<path d="M122.452 217.347H102.725V225.896H122.452V217.347Z" fill="#E0E0E0"/>
<path d="M188.692 217.347H168.964V225.896H188.692V217.347Z" fill="#E0E0E0"/>
<path d="M155.516 223.268C155.516 223.373 149.356 223.45 141.759 223.45C134.163 223.45 127.996 223.373 127.996 223.268C127.996 223.163 134.156 223.086 141.759 223.086C149.363 223.086 155.516 223.17 155.516 223.268Z" fill="#263238"/>
<path d="M226.352 223.268C226.352 223.373 220.192 223.45 212.596 223.45C204.999 223.45 198.832 223.373 198.832 223.268C198.832 223.163 204.992 223.086 212.596 223.086C220.199 223.086 226.352 223.17 226.352 223.268Z" fill="#263238"/>
<path d="M224.719 119.193C224.719 119.291 197.718 119.375 164.451 119.375C131.184 119.375 104.182 119.291 104.182 119.193C104.182 119.095 131.17 119.011 164.451 119.011C197.732 119.011 224.719 119.088 224.719 119.193Z" fill="#263238"/>
<path d="M227.06 128.948C227.06 129.053 199.54 129.13 165.6 129.13C131.661 129.13 104.133 129.053 104.133 128.948C104.133 128.843 131.647 128.766 165.6 128.766C199.554 128.766 227.06 128.85 227.06 128.948Z" fill="#263238"/>
<path d="M163.722 138.711C163.722 138.809 150.064 138.893 133.223 138.893C116.383 138.893 102.725 138.809 102.725 138.711C102.725 138.612 116.376 138.528 133.223 138.528C150.071 138.528 163.722 138.605 163.722 138.711Z" fill="#263238"/>
<path d="M226.156 174.1C226.156 174.1 226.023 174.156 225.75 174.24L224.558 174.605C223.019 175.063 221.453 175.428 219.87 175.698C218.726 175.899 217.569 176.01 216.408 176.027C215.019 176.055 213.634 175.883 212.294 175.516C210.751 175.075 209.33 174.286 208.139 173.21C206.795 171.983 205.913 170.334 205.637 168.536C205.493 167.565 205.611 166.573 205.98 165.663C206.393 164.716 207.069 163.909 207.928 163.336C208.372 163.028 208.873 162.812 209.401 162.701C209.929 162.589 210.474 162.583 211.005 162.684C211.542 162.816 212.047 163.055 212.49 163.385C212.923 163.747 213.284 164.187 213.556 164.682C214.071 165.707 214.328 166.842 214.306 167.989C214.31 169.163 214.097 170.328 213.675 171.423C212.76 173.691 211.252 175.671 209.309 177.156C207.273 178.738 204.856 179.753 202.301 180.099C200.991 180.286 199.66 180.269 198.355 180.05C197.693 179.943 197.039 179.786 196.4 179.581C195.762 179.345 195.139 179.069 194.536 178.754C193.334 178.083 192.263 177.2 191.375 176.147C190.458 175.072 189.816 173.79 189.504 172.411C189.162 170.995 189.338 169.504 190.002 168.207C190.66 166.894 191.752 165.849 193.092 165.249C193.771 164.942 194.516 164.812 195.258 164.871C195.994 164.944 196.697 165.21 197.297 165.642C198.437 166.545 199.223 167.82 199.519 169.244C199.841 170.607 199.917 172.017 199.743 173.406C199.606 174.768 199.302 176.107 198.839 177.394C197.979 179.934 196.46 182.2 194.438 183.961C192.472 185.647 190.014 186.652 187.43 186.827C185.043 187.07 182.647 186.455 180.672 185.093C178.697 183.73 177.272 181.709 176.652 179.391C176.017 177.322 176.101 175.099 176.89 173.084C177.261 172.123 177.898 171.286 178.726 170.673C179.14 170.37 179.621 170.171 180.128 170.092C180.626 170.018 181.134 170.114 181.571 170.365C181.971 170.626 182.306 170.975 182.549 171.386C182.792 171.796 182.937 172.258 182.973 172.734C183.09 173.605 183.054 174.489 182.868 175.348C182.591 176.914 182.12 178.439 181.466 179.889C180.9 181.148 180.194 182.339 179.364 183.442C178.67 184.376 177.886 185.24 177.023 186.021C175.847 187.118 174.521 188.043 173.085 188.768C172.716 188.964 172.337 189.14 171.949 189.294L171.55 189.448L171.935 189.259C172.188 189.132 172.58 188.978 173.057 188.705C174.468 187.949 175.772 187.006 176.932 185.902C178.772 184.168 180.257 182.092 181.305 179.791C181.959 178.358 182.43 176.849 182.707 175.299C182.878 174.462 182.908 173.602 182.798 172.755C182.764 172.319 182.631 171.896 182.41 171.519C182.189 171.141 181.886 170.819 181.522 170.575C181.134 170.354 180.682 170.27 180.24 170.337C179.785 170.418 179.355 170.606 178.985 170.884C178.199 171.466 177.596 172.261 177.247 173.175C176.488 175.135 176.417 177.294 177.044 179.3C177.653 181.543 179.038 183.497 180.953 184.813C182.868 186.13 185.188 186.724 187.5 186.49C190.006 186.31 192.387 185.327 194.291 183.687C196.265 181.966 197.745 179.75 198.58 177.268C199.03 176.005 199.327 174.692 199.463 173.357C199.63 172.009 199.554 170.642 199.238 169.321C198.961 167.979 198.216 166.779 197.136 165.936C196.585 165.539 195.937 165.297 195.261 165.234C194.584 165.171 193.904 165.29 193.289 165.579C192.023 166.149 190.993 167.139 190.373 168.382C189.751 169.599 189.587 170.999 189.911 172.327C190.249 173.627 190.855 174.842 191.69 175.895C192.526 176.947 193.571 177.813 194.76 178.438C195.343 178.742 195.945 179.008 196.561 179.237C198.411 179.84 200.374 180.015 202.301 179.749C203.552 179.575 204.774 179.238 205.938 178.747C207.075 178.262 208.146 177.635 209.127 176.882C211.027 175.431 212.501 173.494 213.395 171.276C213.805 170.219 214.016 169.095 214.018 167.961C214.043 166.867 213.802 165.782 213.317 164.801C213.064 164.342 212.732 163.932 212.336 163.588C211.933 163.265 211.468 163.027 210.97 162.887C210.477 162.793 209.97 162.798 209.479 162.901C208.989 163.005 208.523 163.205 208.11 163.49C207.294 164.027 206.652 164.789 206.26 165.684C205.904 166.55 205.786 167.496 205.917 168.424C206.183 170.165 207.033 171.764 208.328 172.958C209.49 174.016 210.877 174.795 212.385 175.236C213.703 175.606 215.067 175.786 216.436 175.768C217.589 175.761 218.739 175.662 219.877 175.474C221.457 175.215 223.021 174.874 224.565 174.451L225.771 174.121L226.156 174.1Z" fill="#263238"/>
<path d="M190.857 10.1768H137.961V30.4018H190.857V10.1768Z" fill="#E0E0E0"/>
<path d="M190.857 30.3947C190.857 30.3947 190.857 30.2685 190.857 30.0303C190.857 29.792 190.857 29.4346 190.857 28.9791C190.857 28.047 190.857 26.7015 190.857 24.9635C190.857 21.4595 190.815 16.4348 190.787 10.1766L190.913 10.3028L138.024 10.3588L138.206 10.1766C138.206 17.2407 138.206 24.0735 138.206 30.3947L138.031 30.2195L175.874 30.3036L186.898 30.3526H189.862H190.633H190.899C190.818 30.3596 190.735 30.3596 190.654 30.3526H189.904H186.982L175.993 30.4017L138.003 30.4788H137.828V30.3036C137.828 23.9964 137.828 17.1496 137.828 10.0855L138.01 9.90332L190.899 9.95939H191.025V10.0855C191.025 16.3927 190.976 21.4385 190.955 24.9495C190.955 26.6734 190.955 28.012 190.955 28.937C190.955 29.3785 190.955 29.7219 190.955 29.9672C190.955 30.2125 190.857 30.3947 190.857 30.3947Z" fill="#263238"/>
<path d="M254.21 321.513H219.955C219.22 321.514 218.514 321.225 217.99 320.71C217.466 320.195 217.165 319.494 217.152 318.759L216.325 226.373H256.144L256.971 318.703C256.973 319.441 256.684 320.149 256.167 320.675C255.651 321.201 254.947 321.502 254.21 321.513Z" fill="#2FABC0"/>
<g opacity="0.3">
<path d="M249.171 246.879V318.003C249.171 318.003 254.778 319.867 255.051 314.962C255.324 310.056 255.177 246.865 255.177 246.865L249.171 246.879Z" fill="white"/>
</g>
<path d="M252.388 221.685H220.151C219.594 221.685 219.059 221.906 218.665 222.3C218.27 222.695 218.049 223.229 218.049 223.787V225.854H254.49V223.752C254.481 223.2 254.256 222.675 253.862 222.288C253.469 221.901 252.94 221.684 252.388 221.685Z" fill="#FAFAFA"/>
<path d="M252.388 221.685C252.504 221.668 252.622 221.668 252.738 221.685C253.084 221.728 253.412 221.861 253.691 222.07C253.922 222.241 254.117 222.458 254.262 222.706C254.408 222.954 254.502 223.229 254.539 223.514C254.539 224.215 254.539 224.916 254.539 225.813V225.897H254.448C247.769 225.946 234.868 225.988 220.109 225.988H217.831V223.85C217.82 223.502 217.888 223.156 218.03 222.838C218.172 222.52 218.385 222.238 218.651 222.014C218.918 221.792 219.232 221.634 219.569 221.552C219.893 221.494 220.222 221.473 220.55 221.489H222.414H229.499L241.413 221.531L249.423 221.587L241.413 221.643L229.499 221.685H222.414H220.55C220.25 221.667 219.949 221.686 219.653 221.741C219.371 221.812 219.108 221.943 218.882 222.126C217.873 222.89 218.28 224.362 218.182 225.63L217.999 225.448H220.102C234.882 225.448 247.783 225.483 254.441 225.539L254.35 225.63C254.35 224.768 254.35 223.99 254.35 223.353C254.323 223.08 254.241 222.815 254.11 222.574C253.979 222.334 253.801 222.122 253.586 221.951C253.217 221.759 252.803 221.667 252.388 221.685Z" fill="#263238"/>
<path d="M258.506 224.853H213.998C212.976 224.853 212.148 225.681 212.148 226.703V245.015C212.148 246.036 212.976 246.865 213.998 246.865H258.506C259.528 246.865 260.356 246.036 260.356 245.015V226.703C260.356 225.681 259.528 224.853 258.506 224.853Z" fill="#FAFAFA"/>
<path d="M258.506 246.879C258.506 246.879 258.632 246.879 258.856 246.823C259.192 246.752 259.501 246.587 259.746 246.346C260.566 245.729 260.237 244.244 260.286 242.541C260.286 239.037 260.251 234.026 260.23 227.824C260.23 227.439 260.23 227.046 260.23 226.647C260.218 226.272 260.082 225.913 259.844 225.624C259.596 225.329 259.259 225.123 258.884 225.035C258.479 224.991 258.071 224.979 257.665 225H252.381H240.719H214.012C213.745 224.998 213.481 225.061 213.243 225.183C213.005 225.305 212.8 225.482 212.645 225.701C212.495 225.908 212.397 226.148 212.358 226.401C212.344 226.686 212.344 226.972 212.358 227.256V237.558C212.358 239.787 212.358 241.98 212.358 244.132V244.938C212.359 245.179 212.412 245.418 212.512 245.638C212.612 245.857 212.757 246.051 212.939 246.208C213.12 246.365 213.333 246.482 213.563 246.549C213.803 246.616 214.052 246.64 214.299 246.62H216.626L238.442 246.655L253.159 246.718H257.153L253.159 246.753L238.442 246.809L216.626 246.851H214.299C214.021 246.871 213.741 246.842 213.472 246.767C213.194 246.686 212.936 246.547 212.716 246.359C212.496 246.17 212.319 245.936 212.197 245.673C212.078 245.407 212.016 245.118 212.015 244.825V244.02C212.015 241.87 212.015 239.679 212.015 237.446C212.015 235.211 212.015 232.933 212.015 230.627V227.123C212.015 226.822 212.015 226.549 212.015 226.219C212.063 225.897 212.185 225.589 212.372 225.322C212.56 225.057 212.809 224.841 213.098 224.692C213.387 224.543 213.708 224.466 214.033 224.467H240.74H252.402H257.686C258.114 224.446 258.543 224.462 258.968 224.516C259.402 224.626 259.79 224.872 260.075 225.217C260.347 225.557 260.501 225.974 260.517 226.408V227.593C260.517 233.788 260.468 238.806 260.454 242.31C260.454 243.172 260.454 243.942 260.454 244.615C260.475 244.904 260.431 245.194 260.324 245.464C260.217 245.733 260.051 245.975 259.837 246.171C259.579 246.413 259.254 246.571 258.905 246.627C258.791 246.737 258.655 246.823 258.506 246.879Z" fill="#263238"/>
<path d="M214.951 246.5C214.846 246.5 214.769 241.812 214.769 236.037C214.769 230.263 214.846 225.567 214.951 225.567C215.056 225.567 215.133 230.256 215.133 236.037C215.133 241.819 215.049 246.5 214.951 246.5Z" fill="#263238"/>
<path d="M218.595 246.5C218.49 246.5 218.413 241.812 218.413 236.037C218.413 230.263 218.49 225.567 218.595 225.567C218.7 225.567 218.778 230.256 218.778 236.037C218.778 241.819 218.693 246.5 218.595 246.5Z" fill="#263238"/>
<path d="M222.239 246.5C222.141 246.5 222.057 241.812 222.057 236.037C222.057 230.263 222.141 225.567 222.239 225.567C222.337 225.567 222.421 230.256 222.421 236.037C222.421 241.819 222.337 246.5 222.239 246.5Z" fill="#263238"/>
<path d="M225.883 246.5C225.785 246.5 225.701 241.812 225.701 236.037C225.701 230.263 225.785 225.567 225.883 225.567C225.981 225.567 226.066 230.256 226.066 236.037C226.066 241.819 225.988 246.5 225.883 246.5Z" fill="#263238"/>
<path d="M229.535 246.5C229.43 246.5 229.353 241.812 229.353 236.037C229.353 230.263 229.43 225.567 229.535 225.567C229.64 225.567 229.717 230.256 229.717 236.037C229.717 241.819 229.633 246.5 229.535 246.5Z" fill="#263238"/>
<path d="M233.179 246.5C233.074 246.5 232.997 241.812 232.997 236.037C232.997 230.263 233.074 225.567 233.179 225.567C233.284 225.567 233.361 230.256 233.361 236.037C233.361 241.819 233.277 246.5 233.179 246.5Z" fill="#263238"/>
<path d="M236.823 246.5C236.725 246.5 236.641 241.812 236.641 236.037C236.641 230.263 236.725 225.567 236.823 225.567C236.921 225.567 237.006 230.256 237.006 236.037C237.006 241.819 236.921 246.5 236.823 246.5Z" fill="#263238"/>
<path d="M240.467 246.5C240.369 246.5 240.285 241.812 240.285 236.037C240.285 230.263 240.369 225.567 240.467 225.567C240.565 225.567 240.649 230.256 240.649 236.037C240.649 241.819 240.572 246.5 240.467 246.5Z" fill="#263238"/>
<path d="M244.111 246.5C244.013 246.5 243.929 241.812 243.929 236.037C243.929 230.263 244.013 225.567 244.111 225.567C244.21 225.567 244.301 230.256 244.301 236.037C244.301 241.819 244.217 246.5 244.111 246.5Z" fill="#263238"/>
<path d="M247.762 246.5C247.657 246.5 247.58 241.812 247.58 236.037C247.58 230.263 247.657 225.567 247.762 225.567C247.867 225.567 247.944 230.256 247.944 236.037C247.944 241.819 247.86 246.5 247.762 246.5Z" fill="#263238"/>
<path d="M251.407 246.5C251.309 246.5 251.225 241.812 251.225 236.037C251.225 230.263 251.309 225.567 251.407 225.567C251.505 225.567 251.589 230.256 251.589 236.037C251.589 241.819 251.505 246.5 251.407 246.5Z" fill="#263238"/>
<path d="M255.05 246.5C254.952 246.5 254.868 241.812 254.868 236.037C254.868 230.263 254.952 225.567 255.05 225.567C255.148 225.567 255.233 230.256 255.233 236.037C255.233 241.819 255.155 246.5 255.05 246.5Z" fill="#263238"/>
<path d="M258.695 246.5C258.597 246.5 258.513 241.812 258.513 236.037C258.513 230.263 258.597 225.567 258.695 225.567C258.793 225.567 258.877 230.256 258.877 236.037C258.877 241.819 258.8 246.5 258.695 246.5Z" fill="#263238"/>
<path d="M253.936 263.445H219.464V291.05H253.936V263.445Z" fill="white"/>
<path d="M225.385 272.234L224.579 271.07H223.696V272.234H222.715V268.071H224.516C224.844 268.063 225.17 268.128 225.469 268.26C225.727 268.367 225.946 268.547 226.1 268.779C226.25 269.02 226.326 269.301 226.317 269.585C226.325 269.868 226.247 270.146 226.093 270.384C225.938 270.613 225.719 270.791 225.462 270.895L226.395 272.234H225.385ZM225.14 269.045C224.949 268.907 224.716 268.84 224.481 268.856H223.696V270.307H224.481C224.716 270.322 224.949 270.255 225.14 270.117C225.211 270.047 225.268 269.964 225.307 269.872C225.346 269.78 225.366 269.681 225.366 269.581C225.366 269.481 225.346 269.382 225.307 269.29C225.268 269.198 225.211 269.115 225.14 269.045Z" fill="#263238"/>
<path d="M227.488 275.106L226.535 273.74L225.603 275.106H224.559L226.017 273.102L224.615 271.168H225.652L226.556 272.443L227.446 271.168H228.434L227.033 273.067L228.498 275.106H227.488Z" fill="#263238"/>
<path d="M251.407 268.063H231.721V271.056H251.407V268.063Z" fill="#E0E0E0"/>
<path d="M249.171 278.485C249.171 278.583 243.425 278.667 236.333 278.667C229.241 278.667 223.494 278.583 223.494 278.485C223.494 278.387 229.241 278.303 236.333 278.303C243.425 278.303 249.171 278.415 249.171 278.485Z" fill="#263238"/>
<path d="M249.171 281.596C249.171 281.701 243.425 281.778 236.333 281.778C229.241 281.778 223.494 281.701 223.494 281.596C223.494 281.491 229.241 281.414 236.333 281.414C243.425 281.414 249.171 281.498 249.171 281.596Z" fill="#263238"/>
<path d="M234.938 285.5H221.637V288.065H234.938V285.5Z" fill="#E0E0E0"/>
<path d="M253.151 290.194C253.151 290.194 253.151 290.026 253.151 289.704C253.151 289.382 253.151 288.905 253.151 288.302C253.151 287.062 253.151 285.275 253.116 282.997C253.116 278.428 253.067 271.925 253.039 264.076L253.186 264.23H220.144C220.102 264.265 220.487 263.886 220.326 264.055V271.007C220.326 273.291 220.326 275.534 220.326 277.72C220.326 282.1 220.326 286.277 220.326 290.166L220.165 290.005L243.992 290.089L250.762 290.131H252.57H253.2C253.2 290.131 253.158 290.131 253.053 290.131H252.605H250.832L244.097 290.173L220.158 290.258H219.997V290.089C219.997 286.2 219.997 282.023 219.997 277.643C219.997 275.457 219.997 273.214 219.997 270.93V263.978C219.835 264.132 220.221 263.746 220.179 263.788H253.222H253.376V263.943C253.376 271.827 253.313 278.372 253.299 282.962C253.299 285.219 253.264 286.999 253.257 288.232C253.257 288.821 253.257 289.276 253.257 289.634C253.257 289.991 253.151 290.194 253.151 290.194Z" fill="#263238"/>
<path d="M218.595 313.98C218.49 313.98 218.413 299.571 218.413 281.799C218.413 264.027 218.49 249.618 218.595 249.618C218.7 249.618 218.778 264.027 218.778 281.799C218.778 299.571 218.693 313.98 218.595 313.98Z" fill="white"/>
<path d="M253.971 320.014C253.971 320.112 246.452 320.196 237.152 320.196C227.853 320.196 220.333 320.112 220.333 320.014C220.333 319.916 227.853 319.832 237.152 319.832C246.452 319.832 253.971 319.916 253.971 320.014Z" fill="#263238"/>
<path d="M288.135 321.471H260.384C259.789 321.471 259.218 321.236 258.795 320.818C258.373 320.399 258.133 319.831 258.127 319.236L257.426 244.397H289.663L290.329 319.194C290.336 319.786 290.11 320.357 289.7 320.783C289.289 321.209 288.727 321.457 288.135 321.471Z" fill="#455A64"/>
<g opacity="0.3">
<path d="M284.05 260.993V318.627C284.05 318.627 288.591 320.134 288.815 316.16C289.04 312.186 288.913 260.993 288.913 260.993H284.05Z" fill="white"/>
</g>
<path d="M286.257 240.571H260.91C260.352 240.571 259.817 240.793 259.423 241.187C259.029 241.581 258.807 242.116 258.807 242.674V243.928H288.339V242.674C288.339 242.12 288.12 241.588 287.73 241.194C287.341 240.801 286.811 240.577 286.257 240.571Z" fill="#FAFAFA"/>
<path d="M286.258 240.572C286.357 240.558 286.459 240.558 286.559 240.572C286.857 240.597 287.146 240.693 287.4 240.852C287.822 241.109 288.143 241.502 288.311 241.966C288.407 242.262 288.45 242.573 288.437 242.884C288.437 243.214 288.437 243.585 288.437 243.922V244.076H288.346C282.887 244.132 272.634 244.167 260.91 244.167H258.625V243.985C258.625 243.452 258.625 242.968 258.625 242.408C258.705 241.858 258.984 241.356 259.409 240.997C259.833 240.638 260.375 240.447 260.931 240.46H262.416H268.058L277.547 240.495L283.903 240.551L285.627 240.586C285.826 240.582 286.025 240.594 286.222 240.621C286.024 240.636 285.825 240.636 285.627 240.621L283.903 240.656L277.547 240.712L268.058 240.754H260.966C260.501 240.743 260.048 240.899 259.69 241.195C259.324 241.496 259.086 241.924 259.024 242.394C258.982 242.856 259.024 243.41 259.024 243.922L258.842 243.739H260.945C272.669 243.739 282.922 243.774 288.381 243.83L288.29 243.922C288.29 243.557 288.29 243.221 288.29 242.884C288.313 242.591 288.28 242.296 288.192 242.015C288.049 241.573 287.76 241.192 287.372 240.936C287.034 240.729 286.652 240.604 286.258 240.572Z" fill="#263238"/>
<path d="M291.268 243.164H255.913C254.891 243.164 254.062 243.992 254.062 245.014V259.149C254.062 260.171 254.891 260.999 255.913 260.999H291.268C292.29 260.999 293.118 260.171 293.118 259.149V245.014C293.118 243.992 292.29 243.164 291.268 243.164Z" fill="#FAFAFA"/>
<path d="M291.261 260.993C291.633 260.965 291.991 260.84 292.298 260.628C292.654 260.364 292.902 259.981 292.999 259.549C293.043 259.266 293.055 258.979 293.034 258.694C293.034 258.386 293.034 258.049 293.034 257.706C293.034 254.903 292.999 250.845 292.978 245.855C292.978 245.547 292.978 245.218 292.978 244.909C292.959 244.608 292.86 244.318 292.69 244.068C292.516 243.808 292.275 243.6 291.993 243.466C291.711 243.331 291.397 243.276 291.086 243.305H286.825H277.434H255.912C255.48 243.306 255.065 243.475 254.754 243.775C254.444 244.075 254.261 244.484 254.245 244.916C254.245 245.855 254.245 246.788 254.245 247.72V253.214C254.245 255.017 254.245 256.783 254.245 258.512C254.206 258.92 254.247 259.331 254.364 259.724C254.512 260.085 254.776 260.386 255.114 260.579C255.467 260.755 255.863 260.828 256.256 260.79H257.503L275.079 260.832L286.93 260.888H290.154L286.93 260.923L275.079 260.979L257.503 261.021H256.256C255.818 261.099 255.367 261.055 254.952 260.895C254.544 260.662 254.226 260.299 254.048 259.864C253.962 259.641 253.915 259.404 253.908 259.164V258.512C253.908 256.783 253.908 255.017 253.908 253.214V244.944C253.928 244.418 254.151 243.92 254.53 243.554C254.908 243.189 255.414 242.984 255.941 242.982H277.462H286.853H291.114C291.471 242.964 291.828 243.038 292.149 243.196C292.47 243.354 292.746 243.592 292.95 243.886C293.139 244.177 293.248 244.513 293.265 244.86C293.265 245.197 293.265 245.505 293.265 245.82C293.265 250.81 293.216 254.854 293.202 257.671C293.202 258.014 293.202 258.372 293.202 258.659C293.216 258.952 293.197 259.246 293.146 259.535C293.037 259.993 292.759 260.394 292.368 260.656C292.132 260.817 291.86 260.918 291.576 260.951C291.474 260.983 291.368 260.998 291.261 260.993Z" fill="#263238"/>
<path d="M256.355 260.698C256.256 260.698 256.172 256.907 256.172 252.226C256.172 247.544 256.256 243.746 256.355 243.746C256.453 243.746 256.537 247.537 256.537 252.226C256.537 256.914 256.425 260.698 256.355 260.698Z" fill="#263238"/>
<path d="M259.276 260.698C259.178 260.698 259.094 256.907 259.094 252.226C259.094 247.544 259.178 243.746 259.276 243.746C259.375 243.746 259.459 247.537 259.459 252.226C259.459 256.914 259.382 260.698 259.276 260.698Z" fill="#263238"/>
<path d="M262.234 260.698C262.129 260.698 262.052 256.907 262.052 252.226C262.052 247.544 262.129 243.746 262.234 243.746C262.339 243.746 262.416 247.537 262.416 252.226C262.416 256.914 262.332 260.698 262.234 260.698Z" fill="#263238"/>
<path d="M265.184 260.698C265.086 260.698 265.002 256.907 265.002 252.226C265.002 247.544 265.086 243.746 265.184 243.746C265.282 243.746 265.366 247.537 265.366 252.226C265.366 256.914 265.289 260.698 265.184 260.698Z" fill="#263238"/>
<path d="M268.141 260.698C268.036 260.698 267.959 256.907 267.959 252.226C267.959 247.544 268.036 243.746 268.141 243.746C268.246 243.746 268.323 247.537 268.323 252.226C268.323 256.914 268.267 260.698 268.141 260.698Z" fill="#263238"/>
<path d="M271.071 260.698C270.973 260.698 270.889 256.907 270.889 252.226C270.889 247.544 270.973 243.746 271.071 243.746C271.169 243.746 271.253 247.537 271.253 252.226C271.253 256.914 271.197 260.698 271.071 260.698Z" fill="#263238"/>
<path d="M274.049 260.698C273.944 260.698 273.867 256.907 273.867 252.226C273.867 247.544 273.944 243.746 274.049 243.746C274.155 243.746 274.232 247.537 274.232 252.226C274.232 256.914 274.148 260.698 274.049 260.698Z" fill="#263238"/>
<path d="M277 260.698C276.902 260.698 276.818 256.907 276.818 252.226C276.818 247.544 276.902 243.746 277 243.746C277.098 243.746 277.182 247.537 277.182 252.226C277.182 256.914 277.098 260.698 277 260.698Z" fill="#263238"/>
<path d="M279.957 260.698C279.852 260.698 279.768 256.907 279.768 252.226C279.768 247.544 279.852 243.746 279.957 243.746C280.062 243.746 280.139 247.537 280.139 252.226C280.139 256.914 280.055 260.698 279.957 260.698Z" fill="#263238"/>
<path d="M282.908 260.698C282.81 260.698 282.726 256.907 282.726 252.226C282.726 247.544 282.81 243.746 282.908 243.746C283.006 243.746 283.09 247.537 283.09 252.226C283.09 256.914 282.985 260.698 282.908 260.698Z" fill="#263238"/>
<path d="M285.858 260.698C285.76 260.698 285.676 256.907 285.676 252.226C285.676 247.544 285.76 243.746 285.858 243.746C285.956 243.746 286.04 247.537 286.04 252.226C286.04 256.914 285.963 260.698 285.858 260.698Z" fill="#263238"/>
<path d="M288.816 260.698C288.71 260.698 288.633 256.907 288.633 252.226C288.633 247.544 288.71 243.746 288.816 243.746C288.921 243.746 288.998 247.537 288.998 252.226C288.998 256.914 288.914 260.698 288.816 260.698Z" fill="#263238"/>
<path d="M291.766 260.698C291.668 260.698 291.583 256.907 291.583 252.226C291.583 247.544 291.668 243.746 291.766 243.746C291.864 243.746 291.948 247.537 291.948 252.226C291.948 256.914 291.871 260.698 291.766 260.698Z" fill="#263238"/>
<path d="M287.911 274.427H259.984V296.789H287.911V274.427Z" fill="white"/>
<path d="M264.764 281.547L264.119 280.608H263.418V281.547H262.662V278.176H264.063C264.33 278.17 264.595 278.22 264.841 278.324C265.048 278.412 265.224 278.561 265.346 278.751C265.464 278.946 265.527 279.171 265.527 279.399C265.527 279.628 265.464 279.852 265.346 280.048C265.22 280.233 265.042 280.377 264.834 280.461L265.591 281.547H264.764ZM264.568 278.961C264.412 278.853 264.224 278.801 264.035 278.814H263.397V279.984H264.063C264.254 279.999 264.443 279.944 264.596 279.83C264.658 279.777 264.707 279.71 264.739 279.635C264.771 279.559 264.784 279.477 264.778 279.396C264.782 279.313 264.766 279.231 264.732 279.155C264.698 279.079 264.646 279.013 264.582 278.961H264.568Z" fill="#263238"/>
<path d="M266.488 283.873L265.717 282.766L264.96 283.873H264.112L265.29 282.247L264.168 280.685H265.009L265.71 281.715L266.411 280.685H267.21L266.166 282.219L267.35 283.873H266.488Z" fill="#263238"/>
<path d="M285.858 278.169H269.915V280.594H285.858V278.169Z" fill="#E0E0E0"/>
<path d="M284.05 286.607C284.05 286.712 279.396 286.789 273.65 286.789C267.903 286.789 263.25 286.712 263.25 286.607C263.25 286.502 267.903 286.425 273.65 286.425C279.396 286.425 284.05 286.509 284.05 286.607Z" fill="#263238"/>
<path d="M284.05 289.136C284.05 289.234 279.396 289.319 273.65 289.319C267.903 289.319 263.25 289.234 263.25 289.136C263.25 289.038 267.903 288.954 273.65 288.954C279.396 288.954 284.05 289.031 284.05 289.136Z" fill="#263238"/>
<path d="M272.522 292.29H261.744V294.364H272.522V292.29Z" fill="#E0E0E0"/>
<path d="M287.273 296.103C287.273 296.103 287.273 295.956 287.273 295.696C287.273 295.437 287.273 295.038 287.273 294.561C287.273 293.545 287.273 292.094 287.238 290.258C287.238 286.551 287.189 281.288 287.161 274.939L287.308 275.093H260.545L260.727 274.911V277.714C260.727 278.66 260.727 279.592 260.727 280.517V285.955C260.727 289.501 260.727 292.879 260.727 296.04L260.566 295.872L279.859 295.956L285.353 295.998H286.818H287.196H287.329H286.853H285.451L279.992 296.04L260.594 296.124H260.426V295.963C260.426 292.802 260.426 289.424 260.426 285.878V274.806C260.265 274.967 260.65 274.581 260.615 274.623H287.379H287.533V274.911C287.533 281.295 287.47 286.6 287.456 290.328C287.456 292.15 287.421 293.587 287.414 294.589C287.414 295.059 287.414 295.43 287.414 295.703C287.378 295.84 287.331 295.974 287.273 296.103Z" fill="#263238"/>
<path d="M259.276 315.367C259.178 315.367 259.094 303.692 259.094 289.297C259.094 274.903 259.178 263.228 259.276 263.228C259.375 263.228 259.459 274.896 259.459 289.297C259.459 303.699 259.382 315.367 259.276 315.367Z" fill="white"/>
<path d="M287.939 320.253C287.939 320.358 281.842 320.435 274.33 320.435C266.817 320.435 260.727 320.358 260.727 320.253C260.727 320.147 266.817 320.07 274.33 320.07C281.842 320.07 287.939 320.154 287.939 320.253Z" fill="#263238"/>
<path d="M63.8507 291.54L59.2044 308.044C59.2044 308.044 74.0123 318.43 73.4446 321.562L41.9087 313.454L48.1248 287.44L63.8507 291.54Z" fill="#455A64"/>
<path d="M49.7867 304.14C49.4564 304.162 49.1459 304.306 48.9145 304.542C48.6831 304.779 48.547 305.092 48.5322 305.423C48.5335 305.754 48.6613 306.072 48.8893 306.311C49.1173 306.551 49.4283 306.694 49.7586 306.712C50.1097 306.693 50.4407 306.543 50.686 306.291C50.9314 306.039 51.0731 305.704 51.0831 305.353C51.0201 304.687 50.2982 303.993 49.6815 304.154" fill="#E0E0E0"/>
<g opacity="0.6">
<path d="M41.9092 313.454L42.61 310.861L72.5901 319.586C72.5901 319.586 73.8446 320.567 73.4381 321.542L41.9092 313.454Z" fill="white"/>
</g>
<path d="M59.7591 308.008C59.71 308.169 58.9251 308.008 58.0421 308.352C57.1591 308.695 56.5914 309.228 56.4653 309.13C56.3392 309.031 56.7947 308.176 57.8669 307.819C58.9391 307.462 59.8221 307.847 59.7591 308.008Z" fill="#263238"/>
<path d="M62.7229 310.259C62.7229 310.427 62.0221 310.518 61.3213 311.058C60.6205 311.597 60.3122 312.256 60.158 312.207C60.0038 312.158 60.158 311.247 60.992 310.602C61.8259 309.957 62.758 310.111 62.7229 310.259Z" fill="#263238"/>
<path d="M63.6337 314.8C63.4866 314.8 63.4655 313.959 64.0682 313.195C64.6709 312.431 65.4698 312.27 65.5119 312.417C65.5539 312.565 64.9863 312.915 64.4957 313.553C64.0051 314.19 63.7669 314.856 63.6337 314.8Z" fill="#263238"/>
<path d="M60.4109 304.134C60.3057 304.26 59.654 303.861 58.771 303.699C57.888 303.538 57.1381 303.643 57.0891 303.482C57.04 303.321 57.8319 302.936 58.8691 303.139C59.9063 303.342 60.516 304.029 60.4109 304.134Z" fill="#263238"/>
<path d="M52.7927 295.43L52.0919 312.586C52.0919 312.586 68.9111 319.11 69.0372 322.299L36.5132 322.039L36.5833 295.255L52.7927 295.43Z" fill="#455A64"/>
<path d="M42.0147 311.064C41.6979 311.163 41.4283 311.374 41.2566 311.658C41.085 311.942 41.0231 312.279 41.0826 312.606C41.1565 312.928 41.3531 313.208 41.6305 313.387C41.908 313.567 42.2444 313.631 42.5683 313.566C42.9045 313.46 43.1902 313.235 43.3711 312.933C43.552 312.63 43.6154 312.272 43.5494 311.926C43.4376 311.602 43.2033 311.335 42.8968 311.181C42.5902 311.028 42.2358 311.001 41.9096 311.106" fill="#E0E0E0"/>
<g opacity="0.6">
<path d="M36.4771 322.038L36.5892 319.34L67.7327 320.594C67.7327 320.594 69.1763 321.253 69.0011 322.297L36.4771 322.038Z" fill="white"/>
</g>
<path d="M52.5897 312.424C52.5897 312.585 51.7908 312.655 50.9989 313.166C50.207 313.678 49.7935 314.365 49.6464 314.302C49.4992 314.239 49.7445 313.3 50.7116 312.69C51.6787 312.08 52.6248 312.269 52.5897 312.424Z" fill="#263238"/>
<path d="M55.988 313.895C55.988 314.05 55.3363 314.323 54.7897 315.01C54.243 315.696 54.0889 316.411 53.9277 316.411C53.7665 316.411 53.6754 315.479 54.3692 314.645C55.063 313.811 55.988 313.741 55.988 313.895Z" fill="#263238"/>
<path d="M57.8945 318.094C57.7473 318.129 57.5371 317.316 57.9505 316.426C58.364 315.536 59.1069 315.186 59.1769 315.326C59.247 315.466 58.7775 315.935 58.4761 316.664C58.1748 317.393 58.0276 318.08 57.8945 318.094Z" fill="#263238"/>
<path d="M52.33 308.492C52.2669 308.639 51.5381 308.408 50.641 308.492C49.744 308.576 49.0362 308.836 48.9591 308.695C48.882 308.555 49.5548 307.995 50.613 307.925C51.6712 307.854 52.4211 308.366 52.33 308.492Z" fill="#263238"/>
<path d="M32.6725 169.868V183.436L36.2256 236.29C36.2256 236.29 34.011 261.932 32.6515 276.411C31.4742 288.976 33.4014 310.869 33.4014 310.869H54.1029L61.5314 237.867L66.1286 192.315L74.1458 171.613L32.6725 169.868Z" fill="#263238"/>
<path d="M87.1872 172.23L83.2207 245.975L62.2808 301.191L61.3137 304.512L48.9517 301.45L58.1461 170.793L87.1872 172.23Z" fill="#263238"/>
<path d="M66.0583 192.875C66.0659 192.978 66.0659 193.081 66.0583 193.183C66.0583 193.408 66.0583 193.702 66.0583 194.08C66.0583 194.893 66.0022 196.057 65.9532 197.542C65.8691 200.542 65.6589 204.88 65.3645 210.241C64.7408 220.963 63.5775 235.757 61.7554 252.043C59.9333 268.33 57.9921 283.033 56.5485 293.671C55.8477 298.969 55.224 303.265 54.8105 306.285C54.6003 307.757 54.4321 308.906 54.3199 309.705C54.2569 310.084 54.2148 310.406 54.1798 310.595C54.168 310.697 54.1469 310.798 54.1167 310.897V310.588C54.1167 310.371 54.1798 310.077 54.2218 309.698C54.3199 308.892 54.4601 307.743 54.6423 306.264C55.0207 303.272 55.5744 298.969 56.2611 293.65C57.6627 283.005 59.5619 268.302 61.3559 252.015C63.15 235.729 64.3764 220.963 65.0702 210.248C65.3996 204.894 65.6518 200.556 65.771 197.556C65.8481 196.071 65.9041 194.914 65.9462 194.101C65.9462 193.723 65.9882 193.401 66.0022 193.204C66.0089 193.093 66.0277 192.982 66.0583 192.875Z" fill="#455A64"/>
<path d="M67.3693 174.429C67.3638 174.639 67.2967 174.842 67.1763 175.013C67.056 175.185 66.8878 175.317 66.6927 175.393C66.4976 175.469 66.2844 175.487 66.0796 175.442C65.8749 175.398 65.6877 175.295 65.5415 175.145C65.3954 174.994 65.2966 174.805 65.2578 174.599C65.2189 174.393 65.2416 174.18 65.3229 173.987C65.4043 173.794 65.5408 173.63 65.7153 173.514C65.8898 173.398 66.0946 173.336 66.3041 173.336C66.4461 173.337 66.5865 173.366 66.7172 173.422C66.8478 173.477 66.9662 173.558 67.0653 173.66C67.1644 173.762 67.2423 173.882 67.2945 174.014C67.3467 174.146 67.3721 174.287 67.3693 174.429Z" fill="#455A64"/>
<path d="M85.5691 184.732C85.018 184.338 84.527 183.865 84.1114 183.33C83.0408 182.064 82.1624 180.647 81.5044 179.125C80.8423 177.606 80.4033 175.998 80.201 174.353C80.0836 173.677 80.0671 172.987 80.1519 172.307C80.215 172.307 80.257 173.085 80.4673 174.318C80.75 175.916 81.2205 177.476 81.8689 178.964C82.5207 180.442 83.3465 181.837 84.3287 183.12C85.0715 184.129 85.6111 184.683 85.5691 184.732Z" fill="#455A64"/>
<path d="M83.0952 103.341C83.0952 103.341 87.0547 104.897 88.8908 110.699C90.1663 114.736 96.1371 144.786 96.1371 144.786L87.8116 150.273L84.4267 122.136L83.0952 103.341Z" fill="#E0E0E0"/>
<path d="M51.4331 88.9883L48.8261 93.6136C48.8261 93.6136 31.3973 102.472 31.4603 103.341C31.4603 103.341 32.4344 136.404 32.6166 160.659C32.6867 169.818 32.3503 178.235 32.1681 182.279C31.6846 192.896 31.3062 234.138 31.3062 234.138L94.378 232.645L83.0952 103.341L74.195 99.4512L73.0597 97.1316L68.9741 93.8098L51.4331 88.9883Z" fill="#E0E0E0"/>
<path d="M79.0516 232.989C79.0609 232.895 79.0609 232.802 79.0516 232.708C79.0516 232.505 79.0516 232.232 79.0165 231.888C78.9745 231.139 78.9184 230.073 78.8413 228.714C78.6801 225.946 78.4419 221.965 78.1405 217.067C77.5448 207.213 76.7389 193.632 75.8209 178.628C74.9028 163.624 74.174 150.042 73.6064 140.182C73.3471 135.276 73.1298 131.303 72.9826 128.528C72.9056 127.168 72.8495 126.11 72.8074 125.36C72.8074 125.017 72.7654 124.743 72.7514 124.54C72.746 124.446 72.7343 124.352 72.7163 124.26C72.7085 124.353 72.7085 124.447 72.7163 124.54C72.7163 124.743 72.7163 125.017 72.7163 125.367C72.7163 126.11 72.7724 127.175 72.8215 128.535C72.9196 131.289 73.0948 135.276 73.326 140.196C73.7886 150.007 74.5314 163.638 75.4284 178.656C76.3255 193.674 77.1944 207.248 77.8602 217.081C78.1966 221.986 78.4769 225.953 78.6661 228.728C78.7712 230.08 78.8553 231.146 78.9114 231.888L78.9815 232.715C78.9945 232.809 79.0181 232.9 79.0516 232.989Z" fill="#263238"/>
<path d="M68.9739 93.8097L70.4385 103.936L73.0595 124.259L61.6365 104.651L51.7202 91.6582L68.0628 103.109L68.2661 93.6204" fill="#2FABC0"/>
<path d="M48.7495 94.2305C48.8291 94.5039 48.9347 94.7691 49.0649 95.0224C49.3101 95.576 49.6325 96.3118 50.039 97.2159L53.585 104.925L53.6271 105.023H53.7392H56.1219L56.0098 104.7L54.2578 106.137L54.0966 106.27L54.2438 106.417L57.5656 109.669L68.2527 120.034L71.5185 123.138L72.4225 123.972C72.5212 124.076 72.6317 124.168 72.7519 124.246C72.6747 124.123 72.5803 124.012 72.4715 123.916L71.6236 123.033L68.4349 119.838L57.8319 109.396C56.6896 108.274 55.5683 107.188 54.5031 106.151V106.424L56.2481 104.981L56.6335 104.658H56.1289H53.7462L53.9004 104.756C52.4077 101.645 51.1462 99.0099 50.2282 97.1037C49.7867 96.2137 49.4363 95.4919 49.17 94.9523C49.0489 94.7011 48.9083 94.4597 48.7495 94.2305Z" fill="#263238"/>
<path d="M73.0596 124.239C73.1685 123.825 73.2458 123.403 73.2908 122.977C73.417 122.101 73.5782 120.938 73.7744 119.529C74.1668 116.614 74.6854 112.585 75.2321 108.134L75.7366 103.986V103.825L75.5754 103.782L72.7092 103.082V103.418L75.5825 102.906L75.7787 102.871L75.6946 102.696L73.8024 98.5825C73.5852 98.141 73.41 97.7696 73.2628 97.4683C73.2106 97.3316 73.1373 97.2039 73.0456 97.0898C73.0749 97.233 73.1219 97.3719 73.1857 97.5033C73.3119 97.8117 73.466 98.2041 73.6482 98.6526C74.0968 99.7038 74.6994 101.112 75.4213 102.815L75.5334 102.612L72.6531 103.082L71.8262 103.215L72.6391 103.418L75.4983 104.119L75.3582 103.923C75.19 105.24 75.0218 106.635 74.8396 108.064C74.293 112.521 73.8164 116.551 73.4941 119.473C73.3469 120.875 73.2208 122.059 73.1297 122.977C73.0736 123.395 73.0502 123.817 73.0596 124.239Z" fill="#263238"/>
<path d="M63.3114 178.347H62.9049L61.6925 178.424L57.0392 178.761L40.3742 180.043H40.2061V180.211C40.4724 183.344 40.7667 186.75 41.075 190.338C41.2292 192.141 41.3881 193.985 41.5516 195.867C41.6357 196.813 41.7128 197.759 41.7969 198.72C41.8263 199.216 41.9037 199.709 42.0281 200.191C42.176 200.689 42.3981 201.161 42.6869 201.593C43.6301 202.866 45.0381 203.715 46.6043 203.955C48.078 204.137 49.5626 204.217 51.0474 204.193C53.8502 204.2 56.645 203.895 59.3799 203.282C60.0285 203.125 60.6636 202.916 61.2791 202.658C61.5856 202.534 61.881 202.384 62.1621 202.21C62.3046 202.114 62.4383 202.006 62.5615 201.887C62.6746 201.763 62.78 201.632 62.8769 201.495C63.4743 200.396 63.8437 199.187 63.9631 197.942C64.2391 195.755 64.3492 193.551 64.2925 191.347C64.2294 187.311 63.9421 184.059 63.7249 181.816C63.6197 180.695 63.5146 179.833 63.4375 179.244C63.4375 178.964 63.3674 178.747 63.3464 178.544C63.3425 178.467 63.3259 178.391 63.2974 178.319C63.2974 178.319 63.2974 178.396 63.2974 178.551C63.2974 178.705 63.2974 178.943 63.3534 179.251C63.4095 179.868 63.4796 180.73 63.5707 181.83C63.7459 184.073 63.9912 187.325 64.0192 191.347C64.051 193.535 63.9269 195.722 63.6478 197.893C63.5238 199.089 63.1641 200.249 62.5896 201.306C62.2275 201.799 61.7164 202.162 61.1319 202.343C60.5345 202.59 59.9182 202.79 59.2888 202.938C56.5803 203.536 53.814 203.832 51.0404 203.821C49.579 203.843 48.1178 203.764 46.6674 203.583C45.1984 203.36 43.8765 202.567 42.9882 201.376C42.7302 200.985 42.5274 200.56 42.3855 200.114C42.2697 199.655 42.1969 199.186 42.1683 198.713C42.0842 197.752 42.0001 196.799 41.923 195.853C41.7548 193.975 41.5936 192.125 41.4325 190.331C41.1101 186.736 40.8087 183.323 40.5284 180.204L40.3813 180.387L56.9271 178.943L61.6084 178.516L62.8559 178.396C63.0087 178.391 63.1609 178.374 63.3114 178.347Z" fill="#263238"/>
<g opacity="0.3">
<path d="M42.0635 199.742C43.8436 204.381 48.4899 204.648 53.4936 203.947C58.1959 203.246 62.7231 202.272 63.0735 200.927C62.9473 203.386 61.1393 205.272 58.8687 206.26C56.5633 207.141 54.0883 207.488 51.6294 207.276C49.0575 207.157 46.836 207.276 44.7126 205.811C42.5891 204.346 42.0565 201.859 42.0635 199.742Z" fill="black"/>
</g>
<path d="M89.7668 179.784C89.7606 179.725 89.7606 179.667 89.7668 179.608L89.7038 179.104C89.6571 178.637 89.587 177.985 89.4935 177.149C89.3253 175.411 89.0871 172.944 88.7927 169.944C88.2181 163.861 87.4472 155.452 86.6343 146.166C85.8214 136.881 85.1206 128.464 84.651 122.339C84.4198 119.291 84.2516 116.824 84.1535 115.121C84.0974 114.266 84.0764 113.607 84.0623 113.152C84.0623 112.948 84.0623 112.78 84.0623 112.64C84.0521 112.582 84.0521 112.523 84.0623 112.465C84.2305 114.441 85.4009 127.833 86.9987 146.103C87.7976 155.382 88.5264 163.777 89.052 169.895C89.2973 172.916 89.5006 175.369 89.6407 177.107C89.7038 177.933 89.7528 178.592 89.7879 179.069C89.7879 179.272 89.7879 179.44 89.7879 179.58C89.7908 179.649 89.7837 179.717 89.7668 179.784Z" fill="#263238"/>
<path d="M98.9048 145.452C99.1739 146.422 99.2735 147.432 99.1992 148.437C99.052 149.972 98.9819 153.742 94.8963 155.031C90.8106 156.321 88.8274 155.088 87.5729 153.357L86.9492 145.858L91.3222 142.971L98.9048 145.452Z" fill="#E0E0E0"/>
<g opacity="0.3">
<path d="M64.7699 150.273C64.7699 150.273 54.321 160.596 46.2058 162.082C38.0905 163.568 35.1892 160.68 33.0308 153.413L64.7699 150.273Z" fill="black"/>
</g>
<path d="M31.6492 103.089C31.6492 103.089 25.0127 109.242 26.9048 123.811C28.6568 137.351 31.8104 156.202 35.9311 158.396C40.0518 160.589 49.0571 159.489 55.6236 155.768C62.19 152.047 81.2167 141.983 81.2167 141.983L73.3397 127.967L47.9638 137.778C47.9638 137.778 44.6841 115.353 42.7148 111.456" fill="#E0E0E0"/>
<path d="M42.61 111.197C42.61 111.197 42.6801 111.344 42.8063 111.631C42.8623 111.771 42.9464 111.947 43.0305 112.164C43.1146 112.381 43.1847 112.647 43.2828 112.935C43.6542 114.098 44.0957 115.843 44.5793 118.114C45.5604 122.648 46.7447 129.263 47.9922 137.505L47.81 137.393L73.1719 127.511L73.312 127.455L73.3891 127.588C75.8769 132.018 78.526 136.699 81.2731 141.604L81.3642 141.773L81.196 141.864L64.9235 150.631L56.9414 154.927C55.6309 155.627 54.3274 156.363 52.9748 156.945C51.6253 157.515 50.2393 157.995 48.8261 158.382C46.0736 159.153 43.2164 159.484 40.3605 159.363C38.9683 159.301 37.5965 159.005 36.3028 158.487L35.8263 158.276C35.6721 158.199 35.525 158.087 35.3708 157.989C35.1104 157.768 34.8754 157.519 34.67 157.246C34.2529 156.708 33.8935 156.128 33.5978 155.515C32.5044 153.158 31.6499 150.698 31.0469 148.171C30.4091 145.739 29.9046 143.349 29.449 141.03C28.552 136.398 27.8863 132.053 27.3466 128.079C26.807 124.105 26.2954 120.489 26.4426 117.287C26.5118 114.549 26.9986 111.839 27.8863 109.249C28.4616 107.617 29.2713 106.078 30.29 104.679C30.5576 104.318 30.8479 103.974 31.159 103.649C31.2653 103.54 31.3776 103.437 31.4954 103.341L31.187 103.677C30.89 104.01 30.6116 104.358 30.3531 104.721C29.3665 106.13 28.5832 107.671 28.0264 109.298C27.1569 111.877 26.6843 114.573 26.6248 117.294C26.4987 120.475 27.0032 124.07 27.5779 128.037C28.1526 132.003 28.8323 136.348 29.7434 140.974C30.1989 143.279 30.7105 145.662 31.3552 148.087C31.9553 150.589 32.8027 153.026 33.8851 155.361C34.1681 155.947 34.5085 156.503 34.9012 157.022C35.1083 157.281 35.3434 157.516 35.602 157.723C35.7314 157.814 35.8673 157.896 36.0085 157.968L36.457 158.171C37.7191 158.665 39.0553 158.942 40.4095 158.991C43.2256 159.106 46.0422 158.778 48.756 158.017C50.1489 157.638 51.5159 157.17 52.8487 156.616C54.1942 156.034 55.4697 155.312 56.7872 154.611L64.7693 150.308L81.0488 141.548L80.9717 141.801L73.1088 127.785L73.326 127.862L47.9361 137.673L47.7749 137.736V137.568C46.5625 129.333 45.4202 122.711 44.4882 118.17C44.0327 115.899 43.6122 114.147 43.2618 112.984C43.1777 112.696 43.1006 112.437 43.0305 112.213L42.8273 111.673C42.6871 111.351 42.61 111.197 42.61 111.197Z" fill="#263238"/>
<path d="M51.7206 127.987H64.314V123.797H51.7206V127.987Z" fill="white"/>
<path d="M54.3271 125.641C55.6262 125.452 56.9404 125.388 58.2516 125.451C59.5651 125.388 60.8817 125.452 62.1831 125.641C60.8809 125.821 59.5649 125.882 58.2516 125.823C56.9406 125.881 55.627 125.821 54.3271 125.641Z" fill="#263238"/>
<g opacity="0.3">
<path d="M72.4221 123.986L53.886 108.947L54.3275 107.637H52.7156L50.0386 97.2158L53.893 104.784L56.1215 104.679L54.5027 106.165L72.4221 123.986Z" fill="black"/>
</g>
<path d="M49.5271 106.845L50.2279 106.564C50.2279 106.529 48.7071 102.906 47.2144 99.0659C46.6783 97.8859 46.4608 96.5859 46.5837 95.2956C46.6677 94.8897 46.8924 94.5265 47.218 94.2701C47.5437 94.0136 47.9495 93.8804 48.3637 93.894L48.8543 93.6347L49.1066 93.1862C47.8101 92.9059 46.0721 93.9921 45.8619 95.1905C45.7252 96.6155 45.9669 98.0515 46.5627 99.3532C47.9993 103.215 49.506 106.81 49.5271 106.845Z" fill="#455A64"/>
<path d="M48.4336 115.31L49.3657 114.946C48.6018 112.977 47.5576 109.494 48.0061 108.513C48.2273 108.163 48.5203 107.863 48.8659 107.635C49.2114 107.407 49.6015 107.254 50.0104 107.188C50.5109 107.056 51.0353 107.042 51.5424 107.146C52.0494 107.251 52.5253 107.471 52.9327 107.791C53.9979 108.695 55.6098 111.877 56.1424 113.033L57.0464 112.612C56.9693 112.437 55.0351 108.253 53.5775 107.006C53.0529 106.586 52.438 106.294 51.7812 106.153C51.1244 106.012 50.4438 106.026 49.7931 106.193C49.2284 106.291 48.6931 106.515 48.2271 106.849C47.7611 107.182 47.3765 107.617 47.1021 108.12C46.3452 109.746 48.0762 114.427 48.4336 115.31Z" fill="#455A64"/>
<path d="M58.4972 130.503C59.6465 130.503 60.7818 129.887 61.8681 128.667L61.4896 128.331C60.2983 129.683 59.0649 130.216 57.8455 129.929C52.8628 128.758 49.0645 114.918 49.0295 114.777L48.5459 114.903C48.7071 115.485 52.4564 129.179 57.7264 130.412C57.9787 130.474 58.2375 130.504 58.4972 130.503Z" fill="#263238"/>
<path d="M60.9084 129.235C61.0097 129.337 61.144 129.398 61.2869 129.408C61.4298 129.419 61.5716 129.377 61.6863 129.291L62.7655 128.486C62.8461 128.435 62.9155 128.369 62.9697 128.291C63.0239 128.213 63.0616 128.125 63.0806 128.032C63.0996 127.938 63.0995 127.842 63.0803 127.749C63.061 127.656 63.0231 127.568 62.9688 127.49C62.9115 127.4 62.8345 127.325 62.7436 127.269C62.6528 127.214 62.5504 127.179 62.4443 127.169C62.3382 127.159 62.2312 127.173 62.1314 127.211C62.0317 127.248 61.9417 127.308 61.8685 127.385L60.8944 128.394C60.785 128.508 60.725 128.66 60.7276 128.818C60.7302 128.975 60.7953 129.126 60.9084 129.235Z" fill="#263238"/>
<path d="M56.3802 130.959C57.0286 131.008 57.6791 130.895 58.2727 130.63C58.8663 130.364 59.3841 129.955 59.7791 129.438C62.8416 125.142 57.067 113.215 56.8217 112.71L56.3732 112.927C56.4293 113.053 62.267 125.093 59.3727 129.151C58.6158 130.209 57.2703 130.629 55.4342 130.398L55.3711 130.889C55.7055 130.935 56.0427 130.959 56.3802 130.959Z" fill="#263238"/>
<path d="M56.4722 130.686C56.4625 130.829 56.402 130.963 56.3017 131.064C56.2014 131.166 56.0679 131.228 55.9255 131.24L54.58 131.352C54.4868 131.367 54.3916 131.362 54.3 131.34C54.2085 131.317 54.1225 131.276 54.0472 131.219C53.9719 131.162 53.909 131.09 53.862 131.008C53.8151 130.926 53.7852 130.836 53.7741 130.742C53.7566 130.637 53.7635 130.529 53.794 130.427C53.8245 130.325 53.878 130.231 53.9503 130.152C54.0226 130.074 54.1119 130.013 54.2113 129.974C54.3107 129.936 54.4176 129.92 54.5239 129.929L55.9255 130.048C56.0817 130.063 56.2262 130.137 56.3282 130.256C56.4303 130.375 56.4819 130.53 56.4722 130.686Z" fill="#263238"/>
<path d="M80.4531 116.053C82.4193 116.053 84.0132 114.459 84.0132 112.493C84.0132 110.527 82.4193 108.933 80.4531 108.933C78.487 108.933 76.8931 110.527 76.8931 112.493C76.8931 114.459 78.487 116.053 80.4531 116.053Z" fill="#263238"/>
<path d="M80.4531 116.053C82.4193 116.053 84.0132 114.459 84.0132 112.493C84.0132 110.527 82.4193 108.933 80.4531 108.933C78.487 108.933 76.8931 110.527 76.8931 112.493C76.8931 114.459 78.487 116.053 80.4531 116.053Z" fill="#263238"/>
<path d="M77.8252 112.493C77.8238 113.015 77.9774 113.525 78.2664 113.96C78.5554 114.394 78.9668 114.733 79.4486 114.933C79.9304 115.134 80.4608 115.186 80.9725 115.085C81.4843 114.984 81.9545 114.732 82.3234 114.363C82.6924 113.995 82.9435 113.524 83.0449 113.013C83.1464 112.501 83.0936 111.97 82.8933 111.489C82.693 111.007 82.3542 110.595 81.9198 110.306C81.4854 110.017 80.9749 109.864 80.4532 109.865C79.7562 109.865 79.0878 110.142 78.5949 110.635C78.1021 111.128 77.8252 111.796 77.8252 112.493Z" fill="#E0E0E0"/>
<path d="M72.8986 96.9844C73.2349 97.468 76.9562 105.324 78.9885 109.283L79.5842 108.975C79.2828 108.393 73.8727 97.2297 73.4522 96.606L69.5137 93.4033L69.3735 94.1532L72.8986 96.9844Z" fill="#455A64"/>
<path d="M71.4058 112.409C73.9847 114.981 80.5162 121.674 80.5162 121.674L82.2612 120.623L73.0667 110.811C72.8802 110.613 72.6291 110.486 72.3582 110.456C72.0874 110.425 71.8144 110.491 71.588 110.643C71.4465 110.737 71.3276 110.861 71.2397 111.006C71.1518 111.151 71.0972 111.314 71.0798 111.483C71.0624 111.652 71.0826 111.823 71.1389 111.983C71.1953 112.143 71.2864 112.288 71.4058 112.409Z" fill="#263238"/>
<path d="M73.2627 127.68L75.4562 121.499C75.6838 120.832 76.1071 120.249 76.671 119.826C77.2348 119.404 77.9129 119.161 78.6168 119.13H78.9462C80.2637 119.277 86.9703 119.719 86.9703 119.719L89.5633 122.627C89.7766 122.869 89.8943 123.18 89.8943 123.503C89.8943 123.825 89.7766 124.137 89.5633 124.379L90.3131 129.635L88.8625 130.644L89.0096 134.316C89.0096 134.316 87.6991 135.185 87.1175 134.898L86.5288 134.604L85.6598 133.728L83.179 137.232L79.7521 139.215L73.2627 127.68Z" fill="#FFBF9D"/>
<path d="M89.6056 124.673C89.3125 124.316 88.9989 123.977 88.6665 123.656C88.2934 123.336 87.8694 123.08 87.4121 122.9C86.8165 122.759 86.2086 122.677 85.597 122.654C83.987 122.566 82.3866 122.35 80.8105 122.01C82.4222 121.971 84.0344 122.06 85.632 122.276C86.2747 122.297 86.9124 122.396 87.5312 122.57C88.0224 122.778 88.4695 123.078 88.8487 123.453C89.2286 123.765 89.4946 124.194 89.6056 124.673Z" fill="#FF9A6C"/>
<path d="M89.4586 129.502C89.3086 129.044 89.1283 128.597 88.919 128.163C88.3205 127.17 87.408 126.406 86.326 125.991C85.225 125.594 84.0622 125.397 82.8921 125.409C82.4013 125.442 81.9085 125.428 81.4204 125.367C81.8946 125.209 82.3923 125.133 82.8921 125.143C84.1048 125.049 85.3236 125.216 86.4662 125.633C87.6288 126.075 88.5871 126.931 89.1572 128.037C89.4202 128.477 89.5264 128.993 89.4586 129.502Z" fill="#FF9A6C"/>
<path d="M88.7992 134.007C88.5566 133.566 88.4357 133.067 88.4488 132.564C88.4203 132.047 88.3091 131.538 88.1194 131.057C87.99 130.781 87.7942 130.541 87.5497 130.359C87.3052 130.177 87.0194 130.058 86.7178 130.013C85.5626 129.765 84.3919 129.597 83.2138 129.508C82.7135 129.488 82.2213 129.374 81.7632 129.172C82.2571 129.16 82.7513 129.184 83.2419 129.242C84.4415 129.252 85.6369 129.386 86.8089 129.641C87.162 129.729 87.4951 129.884 87.7901 130.097C88.0642 130.311 88.277 130.594 88.4068 130.917C88.5982 131.437 88.6909 131.988 88.6801 132.543C88.7151 133.454 88.8623 133.986 88.7992 134.007Z" fill="#FF9A6C"/>
<path d="M92.4578 122.417L63.5288 152.292L64.6431 153.42L85.3657 151.087L113.25 124.519L113.222 123.244L92.4578 122.417Z" fill="#455A64"/>
<g opacity="0.3">
<path d="M97.8746 136.348C97.193 135.726 96.3888 135.254 95.5138 134.962C94.6387 134.67 93.7122 134.564 92.7939 134.652C90.9542 134.84 89.2123 135.572 87.7902 136.754C86.5857 137.637 85.7082 138.894 85.2953 140.328C84.7066 142.837 86.774 146.348 89.0516 147.568C91.9389 145.248 94.7491 141.688 97.6364 139.375C98.1048 139.072 98.4577 138.621 98.6385 138.093C98.6628 137.762 98.606 137.43 98.4728 137.126C98.3397 136.822 98.1344 136.555 97.8746 136.348Z" fill="black"/>
</g>
<path d="M113.138 124.463C113.012 124.472 112.886 124.472 112.76 124.463H111.653L107.504 124.414L93.0675 124.161L93.2006 124.105L85.9544 131.625L70.9222 147.092L66.339 151.745L65.0776 152.999C64.9352 153.149 64.783 153.29 64.6221 153.42C64.7457 153.258 64.8841 153.108 65.0355 152.971L66.2479 151.668L70.747 146.93C74.5944 142.929 79.8574 137.442 85.6951 131.387C88.253 128.738 90.7128 126.201 92.9554 123.888L93.0114 123.832H93.0675L107.483 124.245L111.625 124.393L112.732 124.449C112.867 124.438 113.004 124.443 113.138 124.463Z" fill="#263238"/>
<path d="M95.0299 133.223C95.0299 133.223 97.8331 133.279 98.7512 133.734C99.6692 134.19 102.178 136.853 102.178 136.853C102.178 136.853 102.178 138.675 101.477 138.745C101.567 139.153 101.616 139.568 101.624 139.985C101.695 141.009 101.842 141.59 100.454 142.466C100.454 142.466 100.601 144.141 100.09 144.569C99.7438 144.859 99.3786 145.126 98.9965 145.367C98.9965 145.367 98.9194 147.211 96.4455 147.19L94.1259 148.213C94.1259 148.213 88.968 147.729 89.5146 147.119C90.0613 146.51 91.3017 143.489 91.3017 143.489C91.3017 143.489 87.7977 140.917 87.8397 140.119C87.8818 139.32 88.2041 139.243 88.2041 139.243C88.2041 139.243 88.064 137.715 89.2974 137.568C89.2974 137.568 90.2505 135.668 91.1966 135.598C92.1426 135.528 98.562 137.855 98.562 137.855L96.1582 135.816C96.1582 135.816 93.7475 135.451 93.8246 134.645C93.9016 133.839 95.0299 133.223 95.0299 133.223Z" fill="#FFBF9D"/>
<path d="M94.6097 142.831C93.497 142.362 92.4093 141.835 91.351 141.254C90.2382 140.777 89.1505 140.244 88.0923 139.656C89.2927 139.88 90.4496 140.294 91.5192 140.883C92.645 141.366 93.6879 142.024 94.6097 142.831Z" fill="#FF9A6C"/>
<path d="M97.9732 140.602C96.5354 140.269 95.1287 139.814 93.7684 139.242C92.3709 138.789 91.0155 138.214 89.7178 137.525C91.1555 137.858 92.5622 138.313 93.9226 138.885C95.3201 139.338 96.6754 139.913 97.9732 140.602Z" fill="#FF9A6C"/>
<path d="M52.2955 76.0233C51.3629 72.8451 50.7018 69.5934 50.3193 66.3033C49.9371 62.9973 50.3801 59.6481 51.6087 56.5551C51.812 56.0926 53.4659 53.0512 53.9564 53.0932C54.3138 53.1423 53.2556 56.0366 53.4098 56.3589C54.9796 59.4004 55.2599 62.9815 54.8114 66.3803C54.3434 69.6772 53.509 72.9116 52.3235 76.0233" fill="#263238"/>
<path d="M52.6245 63.3885C52.7786 55.0771 57.7473 48.2513 66.0448 48.6718L66.8086 48.7559C70.5249 49.1393 73.9598 50.91 76.428 53.7145C78.8961 56.5191 80.2158 60.1513 80.1238 63.8861C79.9486 71.0833 79.6613 79.0304 79.2128 82.8567C78.2807 90.7687 70.2215 91.1682 70.2215 91.1682L68.3854 103.376L51.4331 91.5887L52.6245 63.3885Z" fill="#FFBF9D"/>
<path d="M70.1933 91.1954C66.5328 90.7978 63.0626 89.3606 60.1929 87.0537C60.1929 87.0537 61.7767 93.8304 69.7588 93.9496L70.1933 91.1954Z" fill="#FF9A6C"/>
<path d="M77.0753 70.4799C77.0468 70.775 76.904 71.0472 76.6774 71.2384C76.4509 71.4296 76.1586 71.5246 75.8629 71.5031C75.7178 71.4995 75.5748 71.4669 75.4425 71.4072C75.3102 71.3475 75.1913 71.2619 75.0926 71.1554C74.994 71.0489 74.9176 70.9237 74.8682 70.7872C74.8187 70.6508 74.7972 70.5058 74.8047 70.3608C74.8332 70.0652 74.9757 69.7923 75.2021 69.5999C75.4284 69.4076 75.7207 69.311 76.0171 69.3306C76.1625 69.3351 76.3056 69.3685 76.4379 69.429C76.5703 69.4895 76.6892 69.5758 76.7878 69.6828C76.8863 69.7899 76.9625 69.9155 77.0119 70.0524C77.0612 70.1893 77.0828 70.3346 77.0753 70.4799Z" fill="#263238"/>
<path d="M78.0562 66.9619C77.902 67.0881 77.1101 66.3663 75.8907 66.2611C74.6713 66.156 73.7182 66.6536 73.5991 66.4924C73.48 66.3312 73.7112 66.163 74.1317 65.9248C74.6974 65.6121 75.3469 65.4846 75.9888 65.5603C76.6214 65.6244 77.2174 65.8869 77.6918 66.3102C78.0351 66.6186 78.1333 66.8989 78.0562 66.9619Z" fill="#263238"/>
<path d="M66.6549 69.9901C66.6264 70.2857 66.4838 70.5586 66.2575 70.7509C66.0312 70.9432 65.7388 71.0398 65.4425 71.0202C65.297 71.0158 65.154 70.9823 65.0216 70.9218C64.8893 70.8614 64.7704 70.7751 64.6718 70.668C64.5732 70.561 64.497 70.4353 64.4477 70.2985C64.3983 70.1616 64.3767 70.0162 64.3843 69.8709C64.4211 69.5816 64.5673 69.3174 64.7927 69.1324C65.0181 68.9474 65.3057 68.8556 65.5967 68.8758C65.7393 68.8794 65.8799 68.9111 66.0103 68.9691C66.1407 69.0271 66.2584 69.1102 66.3566 69.2137C66.4549 69.3172 66.5318 69.439 66.583 69.5722C66.6342 69.7054 66.6586 69.8474 66.6549 69.9901Z" fill="#263238"/>
<path d="M66.0733 66.1914C65.9191 66.3246 65.1272 65.6028 63.9078 65.4906C62.6884 65.3785 61.7353 65.8831 61.6162 65.7149C61.497 65.5467 61.7283 65.3925 62.1488 65.1543C62.7145 64.8416 63.364 64.7141 64.0059 64.7898C64.6384 64.8539 65.2345 65.1164 65.7088 65.5397C66.0522 65.8551 66.1504 66.1354 66.0733 66.1914Z" fill="#263238"/>
<path d="M69.458 76.0166C70.1215 75.8796 70.8 75.8301 71.4763 75.8695C71.7847 75.8695 72.086 75.8695 72.1771 75.6312C72.2368 75.3118 72.1977 74.9817 72.065 74.6851L71.3992 72.2183C70.4742 68.7143 69.8434 65.841 69.9976 65.806C70.1518 65.7709 70.9998 68.6092 71.9248 72.1132C72.1421 72.9752 72.3523 73.8021 72.5555 74.587C72.7006 74.9877 72.7006 75.4267 72.5555 75.8274C72.4997 75.9317 72.4208 76.0219 72.3249 76.0911C72.229 76.1603 72.1185 76.2068 72.0019 76.2269C71.8228 76.25 71.6414 76.25 71.4623 76.2269C70.7881 76.2393 70.115 76.1686 69.458 76.0166Z" fill="#263238"/>
<path d="M65.7852 76.479C65.9814 76.479 65.8483 77.8105 66.8784 78.8687C67.9086 79.9269 69.3312 79.9269 69.3242 80.1161C69.3172 80.3053 68.9808 80.3404 68.3852 80.2913C67.6101 80.2214 66.8849 79.8787 66.3388 79.3242C65.8116 78.7952 65.5122 78.0808 65.5049 77.3339C65.5119 76.7733 65.6941 76.465 65.7852 76.479Z" fill="#263238"/>
<path d="M66.5285 61.2441C66.3743 61.5595 65.176 61.2441 63.7253 61.3002C62.2747 61.3562 61.0833 61.5875 60.9221 61.3002C60.852 61.146 61.0903 60.8587 61.6229 60.5994C62.2744 60.2684 62.9946 60.0956 63.7253 60.0948C64.4541 60.0909 65.1739 60.2564 65.8277 60.5783C66.3603 60.8026 66.5986 61.0899 66.5285 61.2441Z" fill="#263238"/>
<path d="M77.979 62.8556C77.7337 63.1079 76.9278 62.7365 75.9187 62.6173C74.9095 62.4982 74.0405 62.6173 73.8723 62.295C73.8023 62.1478 73.9635 61.8815 74.3629 61.6572C74.8956 61.3904 75.4978 61.295 76.0869 61.3839C76.678 61.443 77.2351 61.6885 77.6777 62.0847C78 62.4351 78.0912 62.7295 77.979 62.8556Z" fill="#263238"/>
<path d="M52.6526 69.3235C52.5195 69.2464 47.3756 67.137 46.9762 72.5752C46.5767 78.0134 52.12 77.2916 52.141 77.1374C52.1621 76.9833 52.6526 69.3235 52.6526 69.3235Z" fill="#FFBF9D"/>
<path d="M50.6273 74.9514C50.6273 74.9514 50.5292 75.0144 50.361 75.0775C50.1303 75.1511 49.8804 75.1361 49.6602 75.0355C49.1066 74.7832 48.6861 73.8371 48.7281 72.856C48.7515 72.3887 48.8758 71.9321 49.0926 71.5175C49.1526 71.3457 49.2545 71.1917 49.3891 71.0693C49.5238 70.947 49.6868 70.8601 49.8634 70.8167C49.9745 70.7946 50.0898 70.8128 50.1887 70.868C50.2876 70.9232 50.3636 71.0118 50.403 71.118C50.4661 71.2722 50.403 71.3773 50.4521 71.3913C50.5012 71.4053 50.5712 71.3072 50.5432 71.083C50.5232 70.9456 50.4563 70.8193 50.354 70.7256C50.2846 70.6639 50.2036 70.6167 50.1158 70.5866C50.028 70.5566 49.935 70.5442 49.8424 70.5504C49.6152 70.576 49.3986 70.6606 49.2142 70.7958C49.0297 70.9311 48.8839 71.1122 48.7912 71.3212C48.527 71.7739 48.3755 72.2834 48.3497 72.8069C48.3077 73.9072 48.7912 74.9724 49.5621 75.2597C49.705 75.3128 49.858 75.3328 50.0097 75.3182C50.1615 75.3036 50.3079 75.2549 50.4381 75.1756C50.6133 75.0845 50.6483 74.9654 50.6273 74.9514Z" fill="#FF9A6C"/>
<path d="M77.1595 54.6071C78.0705 54.1796 75.6107 51.1592 73.5083 50.0379C70.3337 48.342 65.4001 47.1086 62.2955 47.7673C58.5953 48.5662 55.4627 50.1781 53.4304 53.3737C51.4589 56.6254 50.3874 60.3428 50.3259 64.145C50.2058 65.3002 50.397 66.4664 50.8795 67.5228C51.5803 68.7703 52.9819 69.6252 52.7997 71.2791C52.76 71.5779 52.7798 71.8815 52.858 72.1726C52.9362 72.4637 53.0712 72.7364 53.2552 72.9751C54.1873 74.1033 55.4627 73.1853 56.0935 72.2252C57.425 70.1648 57.7193 67.635 57.9856 65.2172C58.2695 63.4979 58.2695 61.7436 57.9856 60.0243C57.7754 59.0992 57.404 58.2162 57.2848 57.2772C57.1775 56.8148 57.1721 56.3346 57.2689 55.8699C57.3657 55.4052 57.5624 54.9672 57.8455 54.5861C57.9889 54.4341 58.1461 54.2957 58.315 54.1726C59.117 53.5607 60.0675 53.1732 61.0688 53.0501C62.07 52.9269 63.0861 53.0725 64.0125 53.4718C67.0049 54.7543 72.1347 56.7095 73.5714 55.7564C75.6317 54.3899 76.1643 53.4438 76.1643 53.4438L77.1595 54.6071Z" fill="#263238"/>
<rect x="95.8906" y="47.4795" width="49.5761" height="15.6556" fill="#2FABC0"/>
<rect x="112.851" y="80.0957" width="49.5761" height="15.6556" transform="rotate(-90 112.851 80.0957)" fill="#2FABC0"/>
</svg>
