<svg width="73" height="55" viewBox="0 0 73 55" fill="none" xmlns="http://www.w3.org/2000/svg">
<path d="M48.537 38.087C48.9037 37.8106 49.3341 37.6309 49.7886 37.5644C50.243 37.4979 50.7068 37.5467 51.1373 37.7065C50.8897 37.4785 50.5974 37.3044 50.279 37.1952C49.9606 37.086 49.623 37.0442 49.2875 37.0723C48.7801 37.0723 48.3468 37.3788 47.8922 37.0723C47.5963 36.8609 47.3638 36.6706 47.1418 36.4909C47.5734 36.3165 47.9761 36.0777 48.3362 35.7827C48.6148 35.3619 48.7688 34.8708 48.7802 34.3663C48.7802 34.2711 49.203 32.4636 49.4144 32.7173C49.2135 32.3368 48.1882 34.3874 48.1459 34.4826C48.0125 34.7564 47.8256 35.0008 47.5963 35.2013C47.7126 35.0745 47.5117 35.2013 47.4377 35.2013C47.0889 35.2753 46.7189 35.3282 46.3807 35.4127C46.5313 34.9152 46.6409 34.4061 46.7084 33.8906C46.7084 32.6856 45.7782 31.692 46.1587 30.4658C45.609 31.3326 45.8839 32.1888 45.8839 33.1401C45.8609 33.6804 45.6728 34.2006 45.3448 34.6305C45.2362 34.8121 45.1442 35.0032 45.07 35.2013C44.3512 34.0915 44.5732 32.4213 43.4738 31.6074C44.2666 32.6645 43.6007 34.102 43.8861 35.3282C43.2215 35.4255 42.5433 35.3602 41.9095 35.1379C41.1167 34.768 41.0427 33.6264 40.1653 33.4255C40.6093 33.6581 40.715 34.1126 40.863 34.546C40.9533 34.8635 41.1116 35.1574 41.327 35.4075C41.5424 35.6576 41.8097 35.8578 42.1103 35.9941C42.6057 36.2119 43.1284 36.3613 43.6641 36.438C43.3233 36.696 43.0018 36.9787 42.7022 37.2837C42.4714 37.5805 42.1688 37.8138 41.8231 37.9618C41.4773 38.1097 41.0997 38.1673 40.7256 38.1293L39.3726 37.9602C40.5247 38.4147 41.5712 38.9644 42.7657 38.3301C43.0933 38.161 43.3999 37.9707 43.7064 37.8016C43.4351 38.4797 43.2538 39.1905 43.1673 39.9157C42.9136 40.9727 42.1737 40.8565 41.402 41.3427C42.3745 41.015 43.1145 41.3427 43.6958 40.2328C43.9407 39.5822 44.2713 38.9672 44.6789 38.4041L44.9326 38.2667C44.9103 38.4279 44.8749 38.587 44.8269 38.7424C44.4358 40.18 45.2814 41.4061 45.5879 42.7485C45.5879 41.4907 45.2074 40.2434 45.831 39.0701V39.1335C45.8768 39.0761 45.9191 39.0161 45.9578 38.9538C46.0263 39.0915 46.1078 39.2225 46.201 39.3449C46.4085 39.5512 46.6565 39.7123 46.9295 39.8178C47.2024 39.9233 47.4942 39.9711 47.7866 39.958C47.9935 39.9851 48.1919 40.0572 48.3679 40.1694C48.5385 40.4734 48.6903 40.7876 48.8224 41.1101C48.7696 40.6768 48.8224 40.0531 48.4207 39.736C48.026 39.4212 47.5835 39.1714 47.11 38.9961C46.9713 38.6114 46.8859 38.2095 46.8564 37.8016C47.3729 38.0704 47.9607 38.1702 48.537 38.087Z" fill="#634E42"/>
<path d="M45.2497 46.8392C43.3451 46.8392 41.4834 46.2744 39.8998 45.2163C38.3162 44.1582 37.082 42.6543 36.3531 40.8947C35.6243 39.1351 35.4336 37.199 35.8051 35.331C36.1767 33.4631 37.0938 31.7472 38.4406 30.4005C39.7873 29.0538 41.5031 28.1367 43.371 27.7651C45.239 27.3935 47.1752 27.5843 48.9348 28.3131C50.6943 29.0419 52.1983 30.2762 53.2564 31.8597C54.3145 33.4433 54.8792 35.3051 54.8792 37.2096C54.8764 39.7627 53.861 42.2104 52.0557 44.0157C50.2504 45.821 47.8027 46.8364 45.2497 46.8392ZM45.2497 29.5145C43.7272 29.5124 42.2385 29.9619 40.9716 30.8062C39.7047 31.6505 38.7167 32.8516 38.1327 34.2575C37.5486 35.6634 37.3948 37.211 37.6905 38.7044C37.9862 40.1978 38.7183 41.57 39.794 42.6472C40.8698 43.7245 42.241 44.4584 43.734 44.7562C45.227 45.054 46.7747 44.9022 48.1815 44.3201C49.5882 43.738 50.7907 42.7517 51.6367 41.486C52.4827 40.2203 52.9343 38.7321 52.9343 37.2096C52.9315 35.1714 52.1213 33.2174 50.6811 31.7751C49.2408 30.3329 47.2879 29.52 45.2497 29.5145Z" fill="#DF8676"/>
<path d="M44.4554 39.0358C44.3468 39.0358 44.2408 39.0023 44.1519 38.9399C44.063 38.8775 43.9956 38.7892 43.9586 38.687L43.4406 37.186C43.3944 37.0459 43.4057 36.8931 43.4721 36.7612C43.5385 36.6294 43.6546 36.5294 43.7948 36.4831C43.9349 36.4369 44.0877 36.4482 44.2195 36.5146C44.3514 36.581 44.4514 36.697 44.4977 36.8372L45.0051 38.3382C45.0493 38.4714 45.0398 38.6166 44.9786 38.743C44.9174 38.8693 44.8093 38.9668 44.6774 39.0147C44.6065 39.041 44.53 39.0483 44.4554 39.0358Z" fill="white"/>
<path d="M39.7521 22.4826C39.6297 22.4847 39.5105 22.4434 39.4157 22.366C39.3209 22.2886 39.2566 22.1801 39.2341 22.0598L38.9382 20.4954C38.9257 20.426 38.927 20.3548 38.942 20.2859C38.957 20.217 38.9854 20.1517 39.0257 20.0938C39.0659 20.0359 39.1172 19.9865 39.1765 19.9484C39.2359 19.9103 39.3021 19.8843 39.3715 19.8718C39.4409 19.8593 39.5121 19.8606 39.581 19.8756C39.6499 19.8906 39.7152 19.919 39.7731 19.9593C39.831 19.9995 39.8805 20.0508 39.9186 20.1101C39.9567 20.1695 39.9827 20.2358 39.9952 20.3052L40.2912 21.859C40.3161 21.9976 40.2858 22.1404 40.2068 22.2569C40.1278 22.3735 40.0063 22.4545 39.8683 22.4826H39.7521Z" fill="white"/>
<path d="M71.04 12.695C70.5496 10.6089 69.6118 8.65411 68.2917 6.96593C66.6072 4.88073 64.4214 3.25664 61.9389 2.24548C59.4563 1.23433 56.7578 0.869124 54.0958 1.18397C47.4153 2.1353 43.4409 7.52616 40.534 12.4202C39.9949 13.3504 39.477 14.2806 38.8428 15.2213C37.1454 11.8857 36.2411 8.20323 36.2002 4.46077V4.20706C33.5359 5.5494 30.7891 6.72154 27.9765 7.71642C28.5053 12.813 30.2371 17.7111 33.0291 22.0075C31.4981 23.1966 29.744 24.0664 27.8708 24.5655C22.8182 25.9185 16.402 24.7241 12.6495 27.7366C11.8826 28.343 11.2795 29.1315 10.8949 30.0303C8.81256 31.1154 6.96519 32.6013 5.45894 34.4027C3.9527 36.204 2.81728 38.2852 2.11791 40.5267C1.41855 42.7682 1.16905 45.1259 1.38372 47.4641C1.59839 49.8024 2.273 52.0751 3.36882 54.1518C3.95018 53.8241 4.54211 53.4965 5.14462 53.1794C7.03671 52.1752 8.99222 51.319 10.9583 50.4945C10.2874 49.241 9.89392 47.8579 9.80455 46.439C9.71519 45.0201 9.93204 43.5985 10.4404 42.2708C11.0277 40.8476 11.9571 39.5913 13.1464 38.6135C13.9015 39.4432 14.7293 40.2037 15.6198 40.8861C24.9745 48.2113 40.1535 49.5749 51.5589 44.9451C62.9642 40.3153 70.3423 30.3897 71.4628 20.0414C71.7755 17.5875 71.6322 15.0969 71.04 12.695Z" fill="#F9DFB1"/>
<path d="M11.3706 30.939L11.6771 30.7699L11.8145 30.4528C12.1389 29.7064 12.6394 29.0499 13.2732 28.5395C15.3873 26.8377 18.5584 26.6051 21.9197 26.3726C24.013 26.288 26.0937 26.0085 28.1351 25.5375C30.134 25.0042 32.0064 24.077 33.6422 22.8104L34.3821 22.2502L33.8747 21.468C31.1347 17.2281 29.4526 12.3923 28.9701 7.36719L27.0569 8.04367C27.5878 12.8837 29.1639 17.5507 31.6761 21.7217C30.4347 22.5584 29.0631 23.1835 27.6171 23.5715C25.6954 24.0016 23.7392 24.2599 21.7717 24.3431C18.2518 24.5968 14.6156 24.8505 12.0153 26.954C11.2178 27.5926 10.5686 28.3968 10.1127 29.3111C6.30503 31.4075 3.32315 34.7361 1.65644 38.7504C0.669058 41.3014 0.230278 44.0319 0.368695 46.7638C0.507112 49.4957 1.21963 52.1678 2.45979 54.6059L4.21443 53.6335C3.18638 51.6725 2.55517 49.5281 2.35689 47.3229C2.1586 45.1177 2.39714 42.8951 3.05889 40.7822C3.72063 38.6693 4.79256 36.7077 6.21334 35.0096C7.63412 33.3115 9.37585 31.9103 11.3388 30.8861L11.3706 30.939Z" fill="#DF8676"/>
<path d="M72.0229 12.4518C71.4884 10.2297 70.4866 8.14689 69.0843 6.34219C67.5102 4.39358 65.5266 2.81523 63.2742 1.71916C61.0218 0.623095 58.5557 0.036172 56.0511 3.78331e-07C55.3438 -0.000157785 54.6374 0.0492749 53.937 0.147968C46.8654 1.205 42.7431 6.64872 39.646 11.881C39.424 12.2721 39.1808 12.6632 38.9483 13.0543C37.819 10.3169 37.22 7.38993 37.1831 4.42897V3.65732C36.5277 4.00614 35.8512 4.34439 35.1853 4.71435C35.2654 8.53046 36.201 12.2799 37.923 15.6863L38.7264 17.2719L39.6671 15.7603C40.2696 14.8196 40.8299 13.8788 41.3795 12.9486C44.2335 8.12857 47.9859 3.07594 54.2224 2.18803C54.8212 2.103 55.4252 2.06062 56.03 2.06119C58.2277 2.08728 60.3928 2.59707 62.3713 3.55435C64.3498 4.51164 66.0932 5.89294 67.4776 7.60006C68.709 9.18109 69.5851 11.009 70.0462 12.9592C70.6078 15.2508 70.7474 17.6256 70.4584 19.9673C69.3379 30.2945 61.7696 39.7444 51.1676 44.0465C46.7109 45.7983 41.9611 46.6845 37.1725 46.6574C29.1496 46.6574 21.5178 44.279 16.2221 40.1249C15.38 39.4898 14.5948 38.7824 13.8755 38.0108L13.2308 37.2921L12.4802 37.9157C11.1637 39.0014 10.136 40.3958 9.48882 41.9747C8.93736 43.4247 8.69934 44.9751 8.79044 46.5237C8.88153 48.0724 9.29968 49.5841 10.0173 50.9595L11.8671 50.1773C11.248 49.0462 10.8811 47.7944 10.7917 46.508C10.7023 45.2216 10.8925 43.9311 11.3492 42.7252C11.7501 41.7433 12.339 40.8492 13.0828 40.0932C13.6824 40.6808 14.3141 41.2348 14.9748 41.7527C20.6194 46.1711 28.7162 48.708 37.1725 48.708C42.2364 48.7437 47.2601 47.8071 51.9709 45.9492C63.2389 41.3722 71.3041 31.2775 72.4985 20.221C72.8159 17.6239 72.6547 14.9908 72.0229 12.4518Z" fill="#DF8676"/>
<path d="M52.5211 34.4701C52.0982 32.9268 50.9672 31.6161 50.5232 30.1046C50.3905 29.5105 50.4184 28.8918 50.6042 28.3121C50.79 27.7325 51.1269 27.2128 51.5803 26.8066C48.8003 28.0011 48.6523 29.0581 48.5149 30.3583C47.6164 26.3416 42.3841 24.9357 46.5805 20.401C45.061 20.6817 43.6861 21.4813 42.6907 22.6631C42.353 23.1993 42.1905 23.8273 42.2256 24.46C41.1413 23.9361 40.2739 23.0501 39.7733 21.9549C39.0862 20.0839 40.1961 18.1178 41.3165 16.5957C38.5048 17.9276 35.6508 20.0416 36.5493 25.7285C36.8559 27.7051 36.6761 28.6247 36.1371 28.8044C36.2428 26.6904 33.6319 25.1048 32.6065 24.0372C33.1226 24.8664 33.4809 25.7838 33.6636 26.7432C33.9173 30.2631 31.8666 29.65 31.243 34.227C31.0978 33.585 30.7751 32.9968 30.3115 32.5295C29.848 32.0623 29.2624 31.7347 28.6216 31.5844C29.0037 31.8843 29.2817 32.2968 29.4164 32.7635C29.5511 33.2301 29.5356 33.7274 29.372 34.1847C28.918 35.2554 28.6775 36.4044 28.6638 37.5672C28.916 40.0728 30.1282 42.3835 32.0464 44.0151C34.3295 46.1292 46.6757 49.8394 52.056 41.6791C53.3667 39.6919 53.1553 36.7533 52.5211 34.4701Z" fill="#F39200"/>
<path d="M49.2968 38.6352C49.0114 37.5782 48.2397 36.7537 47.9755 35.7495C47.8843 35.3583 47.9 34.9497 48.0208 34.5667C48.1417 34.1836 48.3633 33.84 48.6625 33.572C46.8233 34.3648 46.7282 35.0624 46.633 35.9186C46.0411 33.2655 42.5846 32.3458 45.354 29.3439C44.3513 29.5278 43.4456 30.0593 42.796 30.8449C42.5682 31.1962 42.4572 31.6106 42.4789 32.0287C41.7657 31.6822 41.1942 31.0996 40.8616 30.3798C40.4071 29.143 41.147 27.8323 41.9187 26.8281C40.0688 27.716 38.1873 29.1113 38.7476 32.8638C38.9484 34.1745 38.8216 34.777 38.4728 34.8933C38.5468 33.5086 36.8132 32.4515 36.1367 31.7222C36.4768 32.2688 36.7099 32.875 36.8238 33.5086C36.9929 35.834 35.6399 35.4324 35.2277 38.4449C35.13 38.0227 34.9157 37.6363 34.6092 37.3298C34.3028 37.0234 33.9164 36.8091 33.4941 36.7114C33.7491 36.9062 33.9349 37.1776 34.0243 37.4858C34.1137 37.794 34.102 38.1227 33.9909 38.4238C33.6952 39.1308 33.5373 39.8878 33.5258 40.6541C33.7042 42.2959 34.5019 43.808 35.7562 44.8822C37.2678 46.3092 45.4175 48.7298 48.9691 43.339C49.3389 42.6178 49.5586 41.8292 49.6149 41.0207C49.6712 40.2122 49.563 39.4006 49.2968 38.6352Z" fill="#FFED00"/>
<path d="M46.1361 42.186C45.9882 41.6152 45.5653 41.129 45.3962 40.5794C45.3492 40.3602 45.3605 40.1326 45.4292 39.9193C45.4978 39.7059 45.6213 39.5144 45.7873 39.3638C44.7303 39.8077 44.7303 40.1988 44.6563 40.6745C44.3286 39.1946 42.4048 38.6767 43.9481 37.0066C43.3884 37.1148 42.8817 37.4091 42.5105 37.8416C42.3929 38.0434 42.3343 38.2742 42.3414 38.5076C41.9437 38.3153 41.6259 37.99 41.4429 37.588C41.3719 37.2377 41.3857 36.8755 41.4831 36.5317C41.5806 36.1878 41.7589 35.8723 42.0031 35.6113C41.3399 35.8454 40.7907 36.323 40.4668 36.9473C40.1429 37.5715 40.0686 38.2957 40.2591 38.9727C40.3648 39.702 40.259 40.0297 40.1005 40.1037C40.1005 39.3321 39.1809 38.7401 38.8003 38.349C38.9912 38.652 39.1205 38.9897 39.1809 39.3426C39.276 40.6428 38.5255 40.3997 38.2929 42.1015C38.2411 41.865 38.1232 41.648 37.9529 41.4759C37.7826 41.3037 37.567 41.1834 37.3311 41.129C37.471 41.2386 37.5729 41.3895 37.6223 41.5603C37.6716 41.731 37.6659 41.913 37.6059 42.0804C37.4395 42.4756 37.3499 42.8989 37.3416 43.3276C37.4397 44.2502 37.8858 45.1007 38.5889 45.706C39.424 46.4882 43.9692 47.82 45.9881 44.8392C46.1924 44.4304 46.3109 43.9842 46.3363 43.5279C46.3618 43.0717 46.2937 42.615 46.1361 42.186Z" fill="white"/>
</svg>
