<svg width="352" height="426" viewBox="0 0 352 426" fill="none" xmlns="http://www.w3.org/2000/svg">
<rect x="84.6509" y="8.49609" width="196.266" height="408.258" rx="21" fill="#E0E0E0"/>
<path d="M160.453 97.7342C160.162 97.621 148.888 94.6631 149.567 106.066C150.245 117.469 161.552 114.431 161.56 114.099C161.568 113.768 160.453 97.7342 160.453 97.7342Z" fill="#B78876"/>
<path d="M157.817 109.992C157.76 109.951 157.623 110.137 157.3 110.315C156.838 110.546 156.304 110.586 155.813 110.428C154.584 110.064 153.453 108.214 153.275 106.161C153.187 105.201 153.308 104.233 153.631 103.324C153.716 102.961 153.889 102.624 154.134 102.342C154.379 102.06 154.689 101.843 155.037 101.708C155.262 101.634 155.505 101.641 155.725 101.728C155.946 101.815 156.128 101.977 156.241 102.185C156.411 102.492 156.354 102.726 156.411 102.742C156.467 102.758 156.645 102.532 156.524 102.072C156.446 101.791 156.271 101.548 156.031 101.385C155.869 101.275 155.688 101.198 155.496 101.159C155.305 101.12 155.107 101.12 154.916 101.158C154.454 101.279 154.031 101.516 153.687 101.847C153.343 102.179 153.09 102.592 152.952 103.049C152.518 104.068 152.346 105.18 152.451 106.282C152.661 108.577 153.97 110.654 155.643 111.034C155.955 111.105 156.279 111.105 156.591 111.033C156.903 110.962 157.195 110.821 157.445 110.622C157.809 110.266 157.857 110.008 157.817 109.992Z" fill="#AA6550"/>
<path d="M188.915 57.0098C194.71 57.0098 200.609 57.0098 207.858 60.8C212.433 63.2245 215.277 66.9663 217.661 71.5405C219.563 75.2594 220.492 79.3993 220.361 83.574C220.15 87.5179 220.134 90.2737 218.558 93.8942" fill="#263238"/>
<path d="M186.596 57.9068C190.669 57.6166 194.758 58.1415 198.626 59.4507C202.494 60.76 206.061 62.8274 209.12 65.5319C212.179 68.2365 214.668 71.5239 216.441 75.2018C218.215 78.8798 219.237 82.8744 219.448 86.9521C220.191 101.232 220.846 116.676 220.692 124.451C220.353 141.147 203.632 143.612 203.632 143.612C203.632 143.612 204.004 148.558 204.44 154.7C204.635 157.634 204.239 160.578 203.276 163.356C202.314 166.135 200.804 168.692 198.836 170.877C196.868 173.062 194.482 174.83 191.818 176.077C189.155 177.324 186.269 178.025 183.331 178.137C180.444 178.247 177.563 177.787 174.854 176.783C172.145 175.779 169.66 174.251 167.542 172.286C165.423 170.321 163.713 167.958 162.509 165.331C161.305 162.705 160.631 159.867 160.525 156.979L158.044 89.6918C157.741 81.717 160.555 73.9377 165.889 68.0017C171.223 62.0657 178.659 58.4393 186.62 57.8906L186.596 57.9068Z" fill="#B78876"/>
<path d="M203.632 143.612C203.632 143.612 193.368 144.146 182.216 137.01C182.216 137.01 187.267 149.132 203.931 147.791L203.632 143.612Z" fill="#AA6550"/>
<path d="M213.047 96.2381C213.06 96.8655 212.825 97.4726 212.392 97.9269C211.959 98.3811 211.363 98.6456 210.736 98.6625C210.434 98.6833 210.13 98.6434 209.844 98.5452C209.557 98.447 209.293 98.2924 209.067 98.0905C208.841 97.8887 208.658 97.6437 208.528 97.37C208.399 97.0963 208.325 96.7993 208.312 96.4967C208.311 95.8728 208.551 95.2727 208.981 94.8211C209.412 94.3695 210 94.1013 210.623 94.0722C210.925 94.0525 211.228 94.0932 211.514 94.1919C211.8 94.2905 212.064 94.4452 212.289 94.6468C212.515 94.8484 212.698 95.093 212.828 95.3662C212.959 95.6394 213.033 95.9358 213.047 96.2381Z" fill="#263238"/>
<path d="M215.366 92.8584C215.067 93.1655 213.273 91.8158 210.703 91.7997C208.133 91.7835 206.25 93.0604 205.975 92.7452C205.838 92.5998 206.145 92.0421 206.969 91.4522C208.083 90.6883 209.409 90.2926 210.759 90.3207C212.093 90.3219 213.391 90.7526 214.461 91.5491C215.245 92.1553 215.511 92.721 215.366 92.8584Z" fill="#263238"/>
<path d="M187.888 96.2376C187.901 96.8664 187.665 97.4747 187.23 97.9292C186.795 98.3837 186.198 98.6472 185.569 98.662C185.267 98.6817 184.964 98.641 184.678 98.5424C184.392 98.4437 184.128 98.2891 183.903 98.0874C183.677 97.8858 183.494 97.6413 183.364 97.3681C183.233 97.0949 183.159 96.7985 183.145 96.4962C183.144 95.871 183.385 95.2697 183.817 94.8179C184.249 94.3661 184.839 94.0988 185.464 94.0717C185.766 94.0531 186.068 94.0946 186.354 94.1937C186.639 94.2927 186.903 94.4474 187.128 94.6488C187.354 94.8503 187.537 95.0944 187.667 95.3671C187.798 95.6398 187.873 95.9356 187.888 96.2376Z" fill="#263238"/>
<path d="M190.144 93.1404C189.845 93.4475 188.042 92.0979 185.481 92.0817C182.919 92.0656 181.028 93.3344 180.745 93.0192C180.615 92.8818 180.914 92.3161 181.747 91.7261C182.863 90.9667 184.187 90.5715 185.537 90.5947C186.87 90.6038 188.165 91.0337 189.239 91.8231C189.998 92.4373 190.289 92.995 190.144 93.1404Z" fill="#263238"/>
<path d="M199.301 112.214C199.301 112.069 200.917 111.81 203.471 111.495C204.126 111.431 204.748 111.309 204.861 110.865C204.926 110.188 204.78 109.507 204.441 108.917C203.843 107.301 203.204 105.685 202.542 103.915C199.907 96.7867 198.008 90.9356 198.299 90.8305C198.59 90.7255 200.958 96.4149 203.584 103.543C204.223 105.297 204.829 106.97 205.403 108.578C205.809 109.37 205.923 110.28 205.726 111.148C205.626 111.378 205.477 111.583 205.288 111.747C205.099 111.912 204.876 112.033 204.635 112.101C204.273 112.191 203.901 112.24 203.528 112.247C200.925 112.384 199.309 112.384 199.301 112.214Z" fill="#263238"/>
<path d="M191.735 113.953C192.155 113.953 192.131 116.717 194.499 118.713C196.867 120.71 199.841 120.427 199.857 120.815C199.857 120.992 199.186 121.356 197.934 121.38C196.3 121.384 194.718 120.811 193.464 119.764C192.263 118.759 191.496 117.329 191.323 115.772C191.226 114.64 191.541 113.937 191.735 113.953Z" fill="#263238"/>
<path d="M190.879 83.1217C190.621 83.8167 188.067 83.4692 185.052 83.8086C182.038 84.1481 179.597 84.9481 179.201 84.3178C179.032 84.0187 179.46 83.3641 180.446 82.7014C181.762 81.8863 183.246 81.3812 184.786 81.2244C186.327 81.0676 187.882 81.2631 189.336 81.7963C190.443 82.2085 190.992 82.758 190.879 83.1217Z" fill="#263238"/>
<path d="M215.003 83.7289C214.551 84.3107 212.789 83.6884 210.663 83.648C208.538 83.6076 206.736 84.0036 206.324 83.3894C206.146 83.0904 206.429 82.5085 207.221 81.9671C208.283 81.3125 209.515 80.9891 210.762 81.038C212.008 81.087 213.212 81.5061 214.219 82.2418C214.963 82.848 215.205 83.446 215.003 83.7289Z" fill="#263238"/>
<path d="M158.213 94.9207C158.213 94.9207 158.94 98.7837 159.134 100.521C159.207 101.16 159.134 108.231 160.839 108.603C162.318 108.91 165.252 107.56 166.561 104.635C167.87 101.709 170.36 94.6863 170.085 91.4941C169.721 87.1462 169.519 82.7174 170.392 78.4342C171.265 74.1509 173.309 69.9808 176.744 67.2816C180.179 64.5823 185.149 63.6529 189.06 65.6087C191.485 66.8209 193.271 68.9625 195.526 70.4576C197.526 71.8743 199.975 72.5096 202.411 72.2437C203.62 72.0919 204.761 71.6017 205.703 70.8296C206.646 70.0575 207.351 69.0349 207.737 67.8796C208.448 65.3339 207.139 62.5457 205.094 60.8567C203.05 59.1676 200.423 58.3918 197.821 57.8746C190.597 56.3234 183.082 56.8502 176.146 59.3939C169.301 62.0527 163.215 67.1603 160.306 73.8923C156.928 81.6749 157.316 86.4511 158.213 94.9045" fill="#263238"/>
<path d="M196.375 96.3434C196.294 95.4183 196.149 94.5001 195.938 93.5957C195.291 91.1403 193.836 88.9741 191.808 87.4456C190.422 86.3965 188.808 85.6879 187.097 85.3767C185.132 85.0176 183.107 85.1877 181.23 85.8696C180.219 86.2303 179.27 86.7456 178.417 87.3971C177.506 88.052 176.709 88.8519 176.057 89.765C174.656 91.6735 173.9 93.9796 173.9 96.3475C173.9 98.7154 174.656 101.021 176.057 102.93C176.714 103.839 177.51 104.639 178.417 105.298C179.27 105.947 180.219 106.46 181.23 106.817C183.106 107.501 185.131 107.674 187.097 107.318C188.809 107.006 190.423 106.294 191.808 105.241C193.838 103.716 195.295 101.553 195.946 99.0993C196.152 98.1916 196.296 97.2708 196.375 96.3434C196.387 96.4048 196.387 96.4679 196.375 96.5293V97.0708C196.378 97.366 196.354 97.661 196.302 97.9517C196.264 98.35 196.193 98.7445 196.092 99.1316C195.49 101.658 194.038 103.901 191.978 105.484C190.453 106.659 188.656 107.431 186.753 107.727C184.85 108.024 182.903 107.836 181.092 107.181C180.042 106.817 179.055 106.29 178.167 105.621C177.235 104.947 176.417 104.128 175.742 103.197C174.283 101.219 173.495 98.8256 173.495 96.3677C173.495 93.9097 174.283 91.5164 175.742 89.5387C177.098 87.693 178.967 86.2875 181.117 85.4979C183.056 84.8054 185.145 84.6408 187.17 85.0211C188.935 85.3564 190.597 86.1041 192.019 87.2031C194.077 88.7835 195.529 91.0233 196.132 93.5472C196.234 93.9369 196.304 94.3342 196.342 94.7352C196.394 95.0231 196.419 95.3154 196.415 95.608V96.1495C196.391 96.2868 196.383 96.3434 196.375 96.3434Z" fill="#263238"/>
<path d="M225.768 96.3439C225.682 95.4194 225.536 94.5016 225.331 93.5962C224.682 91.1397 223.224 88.9733 221.193 87.446C219.807 86.3957 218.193 85.6869 216.482 85.3771C214.52 85.018 212.497 85.1881 210.623 85.8701C208.553 86.6323 206.754 87.9872 205.45 89.7655C204.044 91.672 203.285 93.9788 203.285 96.3479C203.285 98.7171 204.044 101.024 205.45 102.93C206.104 103.84 206.898 104.639 207.802 105.298C208.657 105.949 209.609 106.462 210.623 106.818C212.497 107.502 214.519 107.675 216.482 107.319C218.194 107.006 219.808 106.295 221.193 105.242C223.223 103.717 224.68 101.553 225.331 99.0997C225.537 98.1917 225.683 97.2711 225.768 96.3439C225.771 96.4058 225.771 96.4679 225.768 96.5298C225.768 96.6752 225.768 96.853 225.768 97.0712C225.771 97.3662 225.749 97.6608 225.703 97.9521C225.662 98.3506 225.589 98.7451 225.485 99.1321C224.89 101.661 223.436 103.906 221.371 105.484C219.949 106.582 218.288 107.327 216.522 107.658C214.496 108.047 212.402 107.882 210.461 107.181C208.308 106.402 206.439 104.994 205.095 103.141C203.63 101.165 202.84 98.7708 202.84 96.3116C202.84 93.8524 203.63 91.4583 205.095 89.4826C205.768 88.55 206.587 87.7315 207.519 87.0581C208.409 86.3895 209.395 85.8607 210.445 85.4903C212.387 84.7974 214.479 84.6329 216.506 85.0135C218.272 85.3477 219.934 86.0954 221.355 87.1955C223.418 88.7718 224.871 91.0134 225.469 93.5396C225.573 93.9292 225.646 94.3264 225.687 94.7276C225.733 95.0162 225.754 95.3082 225.751 95.6004C225.751 95.8186 225.751 95.9964 225.751 96.1419C225.761 96.2088 225.767 96.2763 225.768 96.3439Z" fill="#263238"/>
<path d="M203.341 95.1323C203.341 95.197 202.929 94.9868 202.29 94.7767C201.456 94.496 200.575 94.3807 199.696 94.4373C198.827 94.5018 197.978 94.7265 197.191 95.1C196.585 95.399 196.245 95.6576 196.205 95.6011C196.165 95.5445 196.447 95.2212 197.013 94.8414C197.81 94.3614 198.709 94.0787 199.637 94.0168C200.565 93.955 201.494 94.1158 202.347 94.4858C203.05 94.7929 203.373 95.1 203.341 95.1323Z" fill="#263238"/>
<path d="M207.892 66.9599C208.061 66.0951 207.77 65.6102 208.263 65.2546C208.756 64.8991 209.88 65.9173 210.251 66.3376C210.381 66.475 210.769 65.9416 210.922 65.8446C211.091 65.4981 211.189 65.1219 211.213 64.7374C211.14 64.1313 210.195 63.9293 209.75 63.5575C209.291 63.1545 208.755 62.8493 208.174 62.6605C207.938 62.5434 207.675 62.49 207.411 62.5056C207.147 62.5212 206.892 62.6052 206.671 62.7494C206.54 62.9045 206.442 63.085 206.384 63.2797C206.325 63.4744 206.308 63.679 206.332 63.8808C206.329 64.2851 206.406 64.6859 206.558 65.0607C206.71 65.4377 206.999 65.7436 207.366 65.9173" fill="#263238"/>
<path d="M157.591 86.0463C157.591 86.0463 165.778 89.0446 170.037 90.8549L169.794 86.6686L157.89 81.957C157.89 81.957 157.583 85.0685 157.591 86.0463Z" fill="#EBEBEB"/>
<path d="M158.358 79.54C160.337 80.1527 162.272 80.8951 164.153 81.7625C166.096 82.5028 167.986 83.375 169.81 84.3728C167.832 83.7602 165.896 83.0178 164.016 82.1504C162.073 81.4101 160.182 80.5379 158.358 79.54Z" fill="#EBEBEB"/>
<path d="M160.823 167.729L160.193 147.921C160.193 147.921 164.129 166.048 184.745 165.814C204.44 165.587 204.084 149.844 204.084 149.844L204.787 157.829V190.083L191.938 242.702L175.524 244.755L157.389 172.828L160.823 167.729Z" fill="#E95262"/>
<path d="M202.249 161.391C202.188 161.54 202.11 161.681 202.015 161.811C201.768 162.209 201.499 162.592 201.207 162.959C200.17 164.322 198.933 165.521 197.538 166.515C195.467 167.997 193.145 169.092 190.685 169.747C187.67 170.556 184.528 170.773 181.431 170.386C178.347 169.961 175.348 169.059 172.541 167.711C170.264 166.621 168.098 165.311 166.076 163.799C164.708 162.795 163.397 161.716 162.148 160.567C161.704 160.163 161.381 159.823 161.154 159.597C161.034 159.491 160.925 159.371 160.831 159.241C160.968 159.327 161.095 159.427 161.211 159.54L162.261 160.445C163.167 161.254 164.508 162.328 166.254 163.581C168.286 165.045 170.451 166.317 172.719 167.379C175.493 168.688 178.449 169.565 181.488 169.982C184.528 170.363 187.614 170.163 190.579 169.392C193.004 168.762 195.3 167.718 197.368 166.305C198.757 165.345 200.005 164.197 201.077 162.894C201.853 161.924 202.217 161.367 202.249 161.391Z" fill="#263238"/>
<path d="M187.945 330.508L187.646 237.003L161.09 168.786L160.201 148.251L144.038 160.487C144.038 160.487 120.496 241.521 120.1 238.725C119.704 235.928 120.1 330.508 120.1 330.508H187.945Z" fill="#EBEBEB"/>
<path d="M187.307 330.248C187.194 330.248 187.097 309.18 187.097 283.189C187.097 257.199 187.194 236.13 187.307 236.13C187.42 236.13 187.517 257.199 187.517 283.189C187.517 309.18 187.42 330.248 187.307 330.248Z" fill="#263238"/>
<path d="M144.256 173.806L147.537 176.295L145.234 191.424L183.993 232.026L148.79 185.791L151.788 173.806H144.256Z" fill="#E0E0E0"/>
<path d="M189.4 282.607L129.911 265.167L127.94 219.982L144.256 160.453C144.256 160.453 105.368 179.857 102.717 192.222C100.066 204.587 93.6897 234.586 93.0189 256.285C92.4128 275.681 92.3239 288.611 96.7526 294.842C109.441 312.573 193.037 315.741 226.43 294.842" fill="#EBEBEB"/>
<path d="M184.745 233.002C184.745 233.002 184.673 232.938 184.551 232.784C184.43 232.631 184.236 232.396 184.018 232.121L181.998 229.535C180.236 227.256 177.723 223.991 174.627 219.967L150.439 188.311L148.621 185.887L148.556 185.806V185.709C149.59 181.571 150.601 177.554 151.562 173.724L151.756 173.982H144.224H144.03V173.788C144.03 168.939 144.03 164.414 144.03 160.438V160.357L144.095 160.308L155.789 151.418L159.022 148.994L159.83 148.372C159.922 148.296 160.022 148.231 160.129 148.178L159.862 148.412L159.054 149.067L155.894 151.54L144.289 160.543L144.354 160.413C144.354 164.389 144.354 168.875 144.354 173.764L144.16 173.578H151.692H152.015L151.95 173.837L148.96 185.822L148.92 185.644L150.746 188.028L174.829 219.765L182.103 229.406C182.911 230.537 183.598 231.418 184.059 232.041C184.269 232.332 184.43 232.566 184.56 232.736L184.745 233.002Z" fill="#263238"/>
<path d="M211.261 156.931C206.517 148.639 204.052 149.496 204.052 149.496L204.303 152.454V158.668L202.048 185.338L187.639 243.275L187.938 330.508H242.416L249.196 224.024L248.582 178.145L211.261 156.931Z" fill="#EBEBEB"/>
<path d="M248.59 178.145C248.59 178.145 262.692 188.554 263.945 205.307C264.939 218.908 267.177 256.156 267.622 264.262C268.268 276.886 258.433 306.456 232.831 298.084C217.476 293.057 160.759 273.782 160.759 273.782L164.533 249.691L231.853 253.732L233.194 197.581L248.59 178.145Z" fill="#EBEBEB"/>
<path d="M163.733 252.463C163.733 252.463 144.677 250.402 140.296 251.469C136.054 252.495 130.017 257.683 130.017 257.683L130.106 265.207L160.759 273.782L163.733 252.463Z" fill="#B78876"/>
<path d="M187.647 234.562C187.668 234.473 187.698 234.387 187.736 234.304C187.801 234.118 187.898 233.867 188.019 233.56C188.286 232.881 188.674 231.944 189.159 230.716L193.426 220.274L199.794 204.806C200.4 203.359 200.998 201.848 201.75 200.369C202.501 198.89 203.318 197.411 204.174 195.932C206.032 192.917 208.05 190.003 210.219 187.204C211.319 185.79 212.426 184.408 213.573 183.082V183.301L211.197 177.264L211.116 177.062L211.319 176.989L221.235 173.635L221.13 173.91C216.523 166.216 212.636 159.719 209.872 155.112C208.514 152.833 207.35 151.007 206.114 150.263C205.648 149.982 205.141 149.778 204.611 149.657C204.422 149.622 204.236 149.576 204.053 149.52C204.243 149.532 204.432 149.557 204.619 149.592C205.168 149.691 205.696 149.885 206.179 150.166C206.928 150.653 207.576 151.282 208.086 152.017C208.8 152.971 209.461 153.964 210.066 154.991L221.461 173.724L221.582 173.926L221.356 173.999L211.44 177.401L211.561 177.134L213.945 183.171L213.994 183.285L213.905 183.381C212.773 184.691 211.666 186.073 210.575 187.487C208.414 190.266 206.401 193.158 204.546 196.15C203.681 197.621 202.833 199.068 202.122 200.547C201.41 202.026 200.78 203.497 200.174 204.951C197.749 210.754 195.551 215.983 193.709 220.387C191.866 224.792 190.363 228.299 189.32 230.772C188.803 231.976 188.391 232.922 188.108 233.593C187.971 233.9 187.866 234.134 187.777 234.32C187.745 234.406 187.701 234.488 187.647 234.562Z" fill="#263238"/>
<path d="M256.324 293.396C256.255 293.488 256.176 293.572 256.089 293.647L255.362 294.35C254.405 295.225 253.369 296.01 252.267 296.693C250.51 297.763 248.603 298.563 246.61 299.069C243.968 299.723 241.231 299.899 238.528 299.587C236.952 299.403 235.396 299.073 233.881 298.601C232.265 298.1 230.713 297.477 229.032 296.895C225.71 295.683 222.138 294.471 218.389 293.113C210.873 290.479 202.589 287.666 193.861 284.797C176.405 279.067 160.484 274.235 148.943 270.784L135.269 266.743L131.552 265.636L130.59 265.345C130.479 265.314 130.37 265.274 130.267 265.224L130.606 265.296L131.576 265.555L135.318 266.581C138.55 267.487 143.246 268.82 149.056 270.501C160.613 273.871 176.534 278.663 194.014 284.401C202.751 287.262 211.034 290.058 218.542 292.742C222.292 294.075 225.856 295.344 229.177 296.564C230.842 297.162 232.41 297.793 234.026 298.294C235.519 298.767 237.054 299.1 238.609 299.288C241.286 299.616 244.001 299.465 246.626 298.843C248.612 298.357 250.517 297.586 252.283 296.556C253.385 295.888 254.428 295.128 255.402 294.285L256.154 293.614C256.205 293.537 256.262 293.465 256.324 293.396Z" fill="#263238"/>
<path d="M130.074 265.343C130.074 265.432 128.999 265.198 127.294 265.271C126.297 265.312 125.309 265.474 124.352 265.756C123.184 266.106 122.069 266.614 121.039 267.267C119.177 268.495 117.603 270.11 116.424 272.003C115.527 273.457 115.131 274.427 115.058 274.427C115.101 274.178 115.177 273.937 115.284 273.708C115.529 273.065 115.826 272.443 116.173 271.849C117.306 269.858 118.896 268.166 120.812 266.911C121.877 266.239 123.034 265.724 124.247 265.384C125.238 265.116 126.259 264.977 127.286 264.972C127.974 264.962 128.662 265.024 129.338 265.158C129.591 265.185 129.838 265.248 130.074 265.343Z" fill="#263238"/>
<path d="M111.332 259.447C111.332 259.447 111.332 259.366 111.405 259.228C111.501 259.036 111.627 258.858 111.777 258.703C112.354 258.138 113.095 257.77 113.894 257.653C115.05 257.462 116.229 257.462 117.385 257.653C118.799 257.839 120.189 258.178 121.531 258.663C123.985 259.525 126.225 260.903 128.101 262.704C128.661 263.254 129.172 263.852 129.629 264.49C129.806 264.716 129.956 264.963 130.073 265.225C130.001 265.282 129.338 264.247 127.899 262.922C126.003 261.225 123.789 259.92 121.386 259.083C120.074 258.613 118.721 258.269 117.345 258.057C116.225 257.855 115.08 257.822 113.95 257.96C113.199 258.046 112.488 258.349 111.906 258.833C111.502 259.18 111.364 259.463 111.332 259.447Z" fill="#263238"/>
<path d="M133.541 207.577C133.409 207.18 133.317 206.771 133.266 206.357C133.145 205.969 132.975 205.508 132.789 204.975C132.604 204.441 132.28 203.859 131.909 203.245C131.039 201.798 130.023 200.444 128.878 199.204C127.461 197.698 125.905 196.329 124.231 195.115C121.193 192.894 117.738 191.308 114.072 190.452C112.957 190.216 111.825 190.07 110.686 190.015C110.267 190.018 109.848 189.985 109.434 189.919C109.851 189.859 110.273 189.838 110.694 189.854C111.847 189.841 112.997 189.944 114.129 190.161C117.868 190.941 121.396 192.514 124.473 194.776C126.174 195.999 127.745 197.393 129.161 198.938C130.313 200.207 131.321 201.6 132.167 203.092C132.531 203.73 132.765 204.352 132.975 204.878C133.185 205.403 133.299 205.912 133.396 206.308C133.476 206.727 133.524 207.151 133.541 207.577Z" fill="#263238"/>
<path d="M246.479 276.645C246.469 276.548 246.469 276.451 246.479 276.354V275.505C246.479 274.762 246.422 273.671 246.317 272.273C246.024 268.301 245.209 264.386 243.893 260.627C243.497 259.382 242.954 258.188 242.277 257.071C241.52 255.882 240.422 254.949 239.125 254.396C236.417 253.233 233.161 253.386 229.847 253.2L208.156 252.287C190.231 251.479 174.286 250.832 164.265 250.299L164.402 250.186C163.796 253.871 163.311 256.788 162.98 258.817C162.81 259.795 162.681 260.554 162.584 261.096C162.543 261.338 162.503 261.532 162.479 261.686L162.43 261.88C162.423 261.813 162.423 261.745 162.43 261.678L162.511 261.088C162.584 260.546 162.697 259.779 162.834 258.793C163.141 256.764 163.578 253.839 164.135 250.145V250.032H164.257L208.148 251.859L229.839 252.837C231.504 252.917 233.128 252.958 234.688 253.087C236.242 253.173 237.772 253.518 239.214 254.105C240.572 254.676 241.726 255.641 242.527 256.877C243.211 258.02 243.754 259.241 244.143 260.514C245.442 264.297 246.214 268.24 246.439 272.232C246.527 273.639 246.527 274.738 246.519 275.465C246.519 275.821 246.519 276.104 246.519 276.314C246.487 276.54 246.479 276.645 246.479 276.645Z" fill="#263238"/>
<path d="M233.639 223.935C233.752 223.935 233.849 230.456 233.849 238.481C233.849 246.507 233.752 253.028 233.639 253.028C233.526 253.028 233.429 246.507 233.429 238.481C233.429 230.456 233.526 223.935 233.639 223.935Z" fill="#263238"/>
<path d="M103.185 190.745C103.185 190.745 103.137 190.931 103.024 191.278C102.911 191.626 102.709 192.151 102.539 192.895C102.143 194.293 101.642 196.378 101.084 199.102C99.9609 204.549 98.579 212.517 97.0435 222.49C96.2757 227.484 95.4272 232.996 94.619 238.903C94.2068 241.869 93.9482 244.957 93.7381 248.157C93.528 251.357 93.3583 254.622 93.229 258.049C92.9865 264.845 92.841 272.022 93.035 279.497C93.0996 281.364 93.1643 283.255 93.3178 285.155C93.3663 286.108 93.528 287.046 93.6411 287.991C93.8137 288.936 94.0431 289.87 94.328 290.787C94.9032 292.642 95.8125 294.376 97.0111 295.903C98.2131 297.456 99.7937 298.675 101.601 299.443C105.449 301.33 109.46 302.861 113.587 304.017C117.765 305.27 122.08 306.28 126.461 307.177C135.991 309.145 145.668 310.323 155.393 310.701C160 310.819 164.61 310.7 169.204 310.345C173.706 310.03 178.094 309.537 182.337 308.931C190.337 307.797 198.223 305.963 205.903 303.451C212.479 301.28 218.855 298.543 224.959 295.273V295.539L198.888 286.27L191.849 283.756L190.031 283.094C189.618 282.94 189.416 282.851 189.416 282.851L190.039 283.053L191.873 283.676L198.936 286.1L225.121 295.232L225.436 295.337L225.145 295.499C219.03 298.796 212.64 301.556 206.048 303.75C198.352 306.286 190.447 308.138 182.426 309.286C178.175 309.925 173.778 310.401 169.269 310.717C164.661 311.077 160.038 311.202 155.417 311.088C145.668 310.716 135.967 309.538 126.412 307.565C122.016 306.66 117.692 305.649 113.481 304.397C109.331 303.225 105.296 301.681 101.424 299.782C99.5403 298.99 97.8926 297.727 96.6394 296.113C95.4137 294.544 94.4852 292.763 93.8997 290.86C93.6066 289.927 93.3718 288.977 93.1966 288.015C93.0754 287.046 92.9219 286.092 92.8734 285.138C92.7198 283.231 92.6552 281.332 92.5986 279.481C92.4046 271.982 92.5986 264.805 92.8249 258C92.9542 254.606 93.1293 251.306 93.3502 248.1C93.5684 244.868 93.8351 241.797 94.2553 238.831C95.0635 232.891 95.9201 227.403 96.6798 222.417C98.2961 212.444 99.7023 204.484 100.874 199.045C101.456 196.321 101.973 194.236 102.394 192.838C102.571 192.135 102.798 191.618 102.911 191.27C103.024 190.923 103.185 190.745 103.185 190.745Z" fill="#263238"/>
<path d="M129.984 259.763C139.933 248.748 139.496 229.166 133.783 215.273C133.257 230.321 131.479 243.672 130.122 258.3" fill="#E0E0E0"/>
<path d="M133.806 218.085C133.823 218.246 133.823 218.409 133.806 218.57C133.806 218.934 133.757 219.378 133.717 219.944C133.62 221.196 133.491 222.91 133.321 224.995C132.965 229.31 132.513 235.169 131.955 241.651L130.646 258.315C130.492 260.4 130.363 262.114 130.266 263.366L130.145 264.732C130.135 264.892 130.114 265.052 130.08 265.209C130.057 265.051 130.057 264.89 130.08 264.732C130.08 264.368 130.08 263.924 130.121 263.35C130.161 262.154 130.25 260.425 130.363 258.291C130.614 254.024 131.018 248.124 131.551 241.619C132.084 235.113 132.618 229.229 133.046 224.97C133.264 222.885 133.442 221.18 133.571 219.928C133.644 219.37 133.701 218.917 133.741 218.562C133.741 218.401 133.763 218.24 133.806 218.085Z" fill="#263238"/>
<path d="M158.325 198.188C158.538 201.031 158.609 203.882 158.535 206.731C158.608 209.58 158.538 212.431 158.325 215.273C158.212 215.273 158.115 211.442 158.115 206.731C158.115 202.019 158.212 198.188 158.325 198.188Z" fill="#263238"/>
<path d="M151.845 226.562C152.014 228.214 152.65 229.784 153.679 231.088C154.617 232.308 156.516 233.512 158.043 233.407C159.194 233.466 160.341 233.225 161.37 232.708C162.4 232.191 163.278 231.416 163.919 230.458C165.777 227.5 166.238 221.333 164.727 217.689C163.7 215.183 161.397 212.84 158.69 212.783C155.134 212.702 152.903 215.272 152.144 217.875" fill="#E0E0E0"/>
<path d="M152.161 217.876C152.278 217.261 152.5 216.67 152.816 216.13C153.167 215.48 153.617 214.889 154.149 214.376C154.861 213.693 155.726 213.189 156.671 212.905C157.218 212.737 157.787 212.645 158.36 212.631C158.986 212.596 159.614 212.679 160.21 212.873C161.512 213.333 162.655 214.155 163.508 215.241C164.469 216.414 165.137 217.799 165.455 219.282C165.791 220.856 165.91 222.468 165.811 224.074C165.649 226.604 165.148 229.125 163.75 231.049C163.055 231.952 162.128 232.651 161.067 233.069C160.103 233.456 159.066 233.629 158.028 233.578C157.27 233.585 156.523 233.401 155.854 233.045C155.266 232.737 154.722 232.351 154.238 231.897C153.477 231.139 152.873 230.238 152.46 229.246C152.183 228.62 151.993 227.96 151.894 227.283C151.867 227.106 151.851 226.928 151.846 226.749C151.835 226.688 151.835 226.625 151.846 226.563C152.01 227.46 152.282 228.334 152.654 229.166C153.086 230.115 153.695 230.974 154.448 231.695C154.936 232.122 155.48 232.481 156.064 232.762C156.689 233.084 157.382 233.248 158.085 233.239C159.109 233.29 160.13 233.096 161.064 232.675C161.999 232.253 162.82 231.615 163.459 230.814C164.76 229.012 165.261 226.531 165.415 224.058C165.593 220.825 165.051 217.641 163.233 215.491C162.42 214.461 161.333 213.679 160.097 213.237C159.537 213.051 158.949 212.967 158.36 212.986C157.813 212.992 157.269 213.071 156.743 213.221C155.84 213.481 155.01 213.949 154.319 214.586C153.79 215.07 153.336 215.628 152.969 216.243C152.669 216.772 152.399 217.317 152.161 217.876Z" fill="#263238"/>
<path d="M149.954 226.724C150.125 228.376 150.761 229.945 151.789 231.249C152.718 232.47 154.625 233.674 156.153 233.569C157.303 233.627 158.45 233.385 159.479 232.868C160.509 232.351 161.387 231.576 162.028 230.619C163.887 227.653 164.347 221.495 162.836 217.85C161.81 215.337 159.507 213.001 156.799 212.945C155.295 212.932 153.831 213.427 152.643 214.349C151.455 215.271 150.613 216.568 150.253 218.028" fill="#E0E0E0"/>
<path d="M150.268 218.028C150.387 217.416 150.608 216.829 150.923 216.291C151.275 215.641 151.724 215.05 152.256 214.537C153.389 213.445 154.893 212.822 156.467 212.791C157.093 212.758 157.721 212.84 158.318 213.034C159.619 213.494 160.763 214.316 161.615 215.402C162.577 216.573 163.242 217.959 163.554 219.443C163.897 221.016 164.019 222.628 163.918 224.235C163.757 226.765 163.255 229.278 161.857 231.209C161.162 232.113 160.235 232.811 159.174 233.23C158.21 233.617 157.173 233.79 156.136 233.739C155.377 233.743 154.63 233.557 153.962 233.198C153.372 232.896 152.828 232.512 152.345 232.058C151.58 231.3 150.975 230.396 150.567 229.399C150.291 228.776 150.1 228.118 150.002 227.443C150.002 227.209 149.953 227.031 149.945 226.91C149.936 226.848 149.936 226.786 149.945 226.724C150.11 227.618 150.382 228.489 150.753 229.318C151.18 230.273 151.789 231.136 152.547 231.856C153.035 232.283 153.579 232.642 154.164 232.923C154.789 233.241 155.482 233.405 156.184 233.4C157.207 233.449 158.226 233.255 159.159 232.834C160.092 232.412 160.912 231.775 161.55 230.975C162.859 229.165 163.361 226.692 163.514 224.219C163.692 220.986 163.15 217.802 161.332 215.652C160.532 214.613 159.453 213.823 158.221 213.373C157.663 213.188 157.078 213.103 156.491 213.123C154.991 213.146 153.552 213.721 152.45 214.739C151.922 215.222 151.467 215.781 151.101 216.396C150.789 216.922 150.511 217.467 150.268 218.028Z" fill="#263238"/>
<path d="M153.388 217.122C152.491 217.008 151.582 217.191 150.799 217.641C150.015 218.092 149.4 218.787 149.048 219.619C148.377 221.314 148.377 223.201 149.048 224.896C149.326 225.774 149.786 226.584 150.398 227.272C151.021 227.966 151.892 228.387 152.822 228.444C153.496 228.406 154.15 228.207 154.731 227.864C155.312 227.521 155.802 227.044 156.16 226.472C156.785 225.582 157.211 224.567 157.408 223.498C157.604 222.428 157.568 221.328 157.3 220.274C156.928 218.867 155.893 217.437 154.447 217.397" fill="#E0E0E0"/>
<path d="M154.44 217.397C154.44 217.397 154.553 217.397 154.763 217.397C155.074 217.433 155.375 217.535 155.644 217.696C156.12 218.014 156.529 218.424 156.845 218.901C157.161 219.378 157.379 219.914 157.486 220.477C157.881 222.135 157.704 223.877 156.985 225.423C156.582 226.349 155.961 227.164 155.175 227.799C154.752 228.163 154.249 228.421 153.706 228.552C153.164 228.683 152.598 228.682 152.055 228.55C150.997 228.213 150.107 227.485 149.566 226.514C149.071 225.644 148.721 224.7 148.532 223.717C148.33 222.897 148.297 222.043 148.436 221.21C148.575 220.376 148.883 219.579 149.34 218.868C149.668 218.399 150.085 217.999 150.567 217.691C151.05 217.383 151.589 217.173 152.152 217.074C152.461 217.029 152.774 217.029 153.082 217.074C153.284 217.115 153.389 217.147 153.389 217.163C152.986 217.149 152.583 217.174 152.185 217.236C151.119 217.483 150.189 218.128 149.582 219.038C149.164 219.725 148.889 220.489 148.773 221.285C148.658 222.081 148.705 222.892 148.912 223.669C149.1 224.604 149.442 225.503 149.922 226.328C150.41 227.205 151.213 227.864 152.169 228.17C152.648 228.287 153.147 228.288 153.627 228.173C154.106 228.058 154.551 227.83 154.924 227.508C155.658 226.911 156.244 226.153 156.638 225.293C157.337 223.824 157.533 222.165 157.195 220.574C157.025 219.497 156.446 218.527 155.579 217.866C155.231 217.641 154.845 217.482 154.44 217.397Z" fill="#263238"/>
<path d="M157.462 230.411C157.397 230.411 157.308 230.152 157.033 229.829C156.663 229.413 156.185 229.108 155.651 228.948C155.099 228.789 154.529 228.7 153.954 228.681C153.51 228.681 153.219 228.609 153.219 228.552C153.219 228.495 153.494 228.431 153.954 228.382C154.568 228.317 155.188 228.372 155.781 228.544C156.398 228.722 156.929 229.118 157.276 229.659C157.526 230.079 157.51 230.403 157.462 230.411Z" fill="#263238"/>
<path d="M158.101 216.024C158.101 216.024 157.971 216.307 157.6 216.606C157.1 216.988 156.515 217.244 155.894 217.35C155.276 217.463 154.639 217.429 154.036 217.253C153.583 217.099 153.341 216.921 153.365 216.873C154.167 216.998 154.982 217.02 155.789 216.938C156.595 216.73 157.371 216.423 158.101 216.024Z" fill="#263238"/>
<path d="M213.629 158.136C213.629 158.136 213.726 158.136 213.896 158.233C214.142 158.343 214.382 158.467 214.615 158.604C215.481 159.095 216.294 159.674 217.039 160.334C219.524 162.523 221.331 165.378 222.244 168.561C223.2 171.687 223.863 174.896 224.224 178.146C224.369 179.39 224.442 180.401 224.491 181.096C224.531 181.458 224.531 181.824 224.491 182.187C224.4 181.834 224.34 181.475 224.313 181.112C224.208 180.344 224.07 179.358 223.917 178.186C223.47 174.968 222.77 171.79 221.824 168.682C220.925 165.57 219.199 162.761 216.829 160.552C215.824 159.669 214.754 158.861 213.629 158.136Z" fill="#263238"/>
<path d="M203.56 247.09C205.903 247.002 207.778 244.666 210.122 244.795C210.547 244.831 210.96 244.951 211.338 245.146C211.717 245.342 212.053 245.611 212.327 245.936C212.602 246.262 212.81 246.639 212.939 247.045C213.068 247.451 213.116 247.878 213.08 248.303C213.044 248.727 212.924 249.14 212.729 249.519C212.533 249.897 212.264 250.233 211.939 250.508C211.613 250.783 211.236 250.99 210.83 251.12C210.424 251.249 209.997 251.297 209.572 251.261C207.108 250.978 205.669 248.093 203.261 247.543" fill="#263238"/>
<path d="M223.425 249.084C222.691 249.083 221.959 249.024 221.235 248.907L221.364 248.099C224.257 248.559 226.69 248.099 228.589 246.684C231.013 244.931 232.525 241.787 233.171 237.342V237.172C233.438 235.41 233.801 200.845 233.801 194.283C233.801 184.028 224.807 182.629 224.419 182.573C224.031 182.516 215.876 181.142 211.537 192.335C206.995 204.062 199.729 226.658 199.253 229.309C199.188 229.632 199.099 230.036 199.002 230.497C198.242 233.891 196.675 240.946 201.378 245.003C206.623 249.537 210.761 247.783 210.93 247.711L211.262 248.446C211.068 248.527 206.51 250.507 200.853 245.618C195.777 241.237 197.418 233.867 198.21 230.319C198.315 229.866 198.396 229.511 198.452 229.163C198.937 226.496 206.227 203.803 210.785 192.044C215.343 180.286 224.459 181.757 224.524 181.781C224.588 181.805 234.577 183.316 234.577 194.283C234.577 199.69 234.222 235.418 233.939 237.293V237.455C233.26 242.126 231.611 245.448 229.033 247.339C227.401 248.511 225.434 249.124 223.425 249.084Z" fill="#263238"/>
<path d="M234.23 200.904C233.872 199.481 233.305 198.12 232.549 196.863C231.689 195.537 230.61 194.367 229.357 193.404C227.814 192.239 226.044 191.413 224.16 190.979C220.701 190.218 217.085 190.69 213.937 192.313C212.651 193.015 211.455 193.87 210.373 194.859C210.424 194.77 210.487 194.688 210.559 194.616C210.744 194.385 210.946 194.169 211.165 193.97C211.951 193.216 212.834 192.572 213.792 192.054C216.985 190.306 220.704 189.778 224.257 190.567C226.198 191.026 228.017 191.897 229.591 193.121C230.879 194.119 231.975 195.343 232.824 196.733C233.392 197.665 233.812 198.679 234.068 199.74C234.144 200.027 234.201 200.318 234.238 200.613C234.238 200.79 234.246 200.904 234.23 200.904Z" fill="#263238"/>
<path d="M254.813 265.509C254.515 264.338 254.142 263.189 253.698 262.066C252.549 259.387 250.645 257.101 248.219 255.487C246.86 254.657 245.349 254.107 243.774 253.871C242.475 253.669 241.167 253.534 239.854 253.467L237.195 253.281C236.868 253.272 236.543 253.229 236.226 253.152C236.55 253.112 236.879 253.112 237.203 253.152L239.87 253.2C241.196 253.23 242.518 253.338 243.83 253.524C245.464 253.737 247.035 254.287 248.445 255.14C250.943 256.793 252.873 259.174 253.973 261.961C254.309 262.792 254.559 263.656 254.716 264.539C254.791 264.856 254.824 265.182 254.813 265.509Z" fill="#263238"/>
<path d="M214.042 252.027C214.042 252.027 221.994 239.994 224.023 238.418C226.051 236.842 243.419 229.003 245.431 230.264C247.443 231.524 246.239 234.256 246.239 234.256C246.239 234.256 253.577 231.686 254.361 232.696C254.783 233.304 255.009 234.026 255.009 234.765C255.009 235.505 254.783 236.226 254.361 236.834C254.361 236.834 258.402 236.212 258.402 237.464C258.386 238.305 258.164 239.13 257.755 239.865C257.347 240.601 256.764 241.225 256.058 241.683C254.183 243.089 241.988 251.203 241.01 253.45L237.058 253.207L214.042 252.027Z" fill="#B78876"/>
<path d="M236.912 248.577C237.002 248.31 237.124 248.055 237.276 247.817C237.663 247.159 238.101 246.532 238.585 245.942C240.21 244.004 242.16 242.363 244.347 241.093C246.523 239.82 248.805 238.739 251.168 237.861C252.065 237.513 252.784 237.254 253.31 237.052C253.569 236.945 253.84 236.869 254.118 236.826C253.886 236.987 253.633 237.115 253.366 237.206L251.273 238.103C248.966 239.047 246.725 240.146 244.565 241.392C242.417 242.646 240.476 244.224 238.811 246.072C237.551 247.567 236.985 248.617 236.912 248.577Z" fill="#AA6550"/>
<path d="M226.835 248.383C226.929 248.075 227.059 247.779 227.223 247.502C227.498 246.944 227.894 246.144 228.443 245.174C229.077 244.035 229.81 242.953 230.633 241.942C231.122 241.326 231.681 240.77 232.298 240.285C232.969 239.832 233.672 239.412 234.407 238.976C236.893 237.494 239.486 236.203 242.166 235.113C242.978 234.792 243.809 234.522 244.655 234.304C244.966 234.215 245.286 234.158 245.609 234.135C245.609 234.208 244.291 234.515 242.279 235.42C239.65 236.585 237.091 237.905 234.618 239.372C233.89 239.8 233.187 240.228 232.533 240.657C231.937 241.115 231.395 241.638 230.916 242.216C230.088 243.204 229.342 244.258 228.686 245.368L227.344 247.615C227.202 247.888 227.032 248.146 226.835 248.383Z" fill="#AA6550"/>
<path d="M4.62339 203.896C4.62339 203.896 -5.9129 207.53 4.82581 230.039C15.5645 252.549 23.115 263.774 23.115 263.774C23.115 263.774 24.9875 268.976 20.6252 269.664C16.2629 270.353 6.73875 268.571 4.66388 273.824C2.50804 279.28 6.37437 284.583 14.3601 289.36C22.3458 294.138 39.4812 305.251 41.0196 306.263C42.5581 307.275 44.056 309.694 41.1209 310.635C38.1857 311.577 16.6678 313.247 18.0645 323.429C19.4612 333.611 43.9143 343.246 46.6167 344.37C49.3191 345.493 49.8859 346.627 49.6531 348.094C49.4203 349.562 42.1026 349.43 35.9893 350.119C29.8761 350.807 22.9126 352.75 24.2183 358.56C25.5239 364.369 39.8152 376.879 75.2297 381.323L91.778 382.335L101.09 368.55C119.389 337.902 118.296 318.955 114.551 314.33C110.806 309.704 104.976 314.046 100.644 318.378C96.3124 322.71 91.9197 328.581 90.604 327.882C89.2882 327.184 88.7619 325.989 89.521 323.216C90.2801 320.443 97.7192 295.241 90.5331 287.862C83.347 280.484 68.7925 296.466 66.242 298.166C63.6914 299.866 62.7096 297.154 62.8614 295.393C63.0133 293.632 64.7946 273.217 65.8978 264.017C67.0011 254.816 65.2399 248.47 59.6125 246.81C54.1976 245.211 49.7442 253.804 46.5155 256.82C43.2868 259.837 40.3415 255.16 40.3415 255.16C40.3415 255.16 36.1513 242.306 25.0077 219.989C13.8642 197.671 4.41084 203.987 4.41084 203.987" fill="#E0E0E0"/>
<path d="M92.4461 386.262C84.3491 369.835 70.3918 340.402 58.2968 315.2C46.2018 289.998 35.2303 267.195 27.194 250.728L17.6597 231.244L15.0687 225.94C14.7853 225.343 14.5626 224.928 14.4108 224.554C14.259 224.179 14.1982 224.078 14.1982 224.078C14.1982 224.078 14.2893 224.23 14.4513 224.534L15.1598 225.89L17.8419 231.153C20.1597 235.718 23.4694 242.357 27.5179 250.566C35.6149 266.992 46.6674 289.776 58.7624 314.978C70.8574 340.18 84.7438 369.633 92.7801 386.1" fill="#E0E0E0"/>
<path d="M17.8823 276.851C18.2739 276.932 18.6569 277.051 19.026 277.205C19.7548 277.468 20.7973 277.863 22.0624 278.369C24.6231 279.381 28.1352 280.889 31.951 282.61L41.7484 287.043L44.7139 288.369C45.0949 288.504 45.4584 288.684 45.7969 288.905C45.4008 288.833 45.0138 288.718 44.6431 288.561C43.9144 288.298 42.882 287.903 41.6067 287.377C39.0662 286.365 35.5339 284.796 31.7485 283.075L21.9309 278.703L18.9552 277.397C18.5736 277.266 18.2124 277.082 17.8823 276.851Z" fill="#E0E0E0"/>
<path d="M46.961 287.873C46.8295 287.823 49.6027 280.474 53.1452 271.456C56.6876 262.438 59.6734 255.191 59.7746 255.191C59.8758 255.191 57.133 262.59 53.5905 271.608C50.048 280.626 47.0926 287.924 46.961 287.873Z" fill="#E0E0E0"/>
<path d="M63.8232 327.415C64.0201 327.054 64.2542 326.715 64.5216 326.403L66.5459 323.771C68.2665 321.544 70.5944 318.457 73.0944 314.966C75.5943 311.474 77.7097 308.235 79.238 305.856L81.0497 303.063C81.2459 302.697 81.4874 302.357 81.7683 302.051C81.6234 302.433 81.4403 302.799 81.2218 303.144C80.8372 303.832 80.2704 304.824 79.5416 306.028C78.0943 308.437 75.9992 311.717 73.4689 315.219C70.9385 318.721 68.5803 321.777 66.7989 323.943C65.8981 325.026 65.1593 325.886 64.633 326.474C64.3986 326.816 64.127 327.132 63.8232 327.415Z" fill="#E0E0E0"/>
<path d="M35.2905 323.236C35.6674 323.198 36.0472 323.198 36.4241 323.236L39.4605 323.559C42.0414 323.863 45.6042 324.308 49.5818 324.835C53.5595 325.361 57.0615 325.847 59.6222 326.252L62.6586 326.738C63.0346 326.775 63.4049 326.856 63.7618 326.98C63.3867 327.015 63.0088 326.998 62.6383 326.93L59.6019 326.606C57.0311 326.312 53.4684 325.867 49.5413 325.341C45.6143 324.814 42.0617 324.329 39.4909 323.924L36.4545 323.438C36.0596 323.419 35.6687 323.351 35.2905 323.236Z" fill="#E0E0E0"/>
<path d="M45.7163 360.037C46.1999 360.011 46.6849 360.034 47.1637 360.107L51.0806 360.512C54.3903 360.877 58.955 361.413 63.9954 362.041C69.0358 362.668 73.6005 363.255 76.89 363.711L80.7968 364.277C81.2774 364.319 81.7523 364.41 82.2138 364.551C81.7299 364.569 81.2453 364.542 80.7664 364.47L76.8495 364.065C73.5398 363.711 68.9751 363.174 63.9347 362.547C58.8943 361.919 54.3397 361.332 51.0401 360.877L47.1434 360.31C46.6608 360.259 46.1834 360.168 45.7163 360.037Z" fill="#E0E0E0"/>
<path d="M81.373 364.197C81.6153 363.739 81.9 363.306 82.2232 362.901C82.8609 362.021 83.6908 360.877 84.6827 359.47C86.707 356.575 89.6017 352.557 92.628 348.043C95.6542 343.529 98.2858 339.369 100.168 336.343L102.395 332.76C102.654 332.311 102.945 331.882 103.265 331.475C103.079 331.959 102.845 332.423 102.567 332.861C102.091 333.742 101.383 334.997 100.472 336.535C98.6704 339.572 96.0793 343.802 93.0531 348.327C90.0268 352.851 87.1321 356.839 84.956 359.693C83.8831 361.11 82.9925 362.254 82.3649 363.023C82.069 363.442 81.7372 363.835 81.373 364.197Z" fill="#E0E0E0"/>
<path d="M272.1 332.112C246.422 319.43 236.584 290.129 233.386 262.943C232.849 258.399 231.635 253.712 233.173 249.431C234.712 245.15 239.317 241.668 243.649 242.953C247.252 244.026 249.306 247.7 251.665 250.646C254.834 254.564 259.044 257.511 263.81 259.148C266.907 260.16 270.612 260.575 273.213 258.581C276.776 255.838 276.421 250.382 275.703 245.899L271.715 220.778C271.007 216.294 270.298 211.668 271.047 207.235C271.796 202.802 274.276 198.329 278.365 196.486C282.454 194.644 288.112 196.294 289.691 200.535C290.338 202.306 290.257 204.26 290.703 206.102C291.148 207.944 292.292 209.877 294.144 210.15C295.996 210.424 297.626 208.855 298.759 207.337C302.707 202.104 304.964 195.778 307.018 189.523C309.073 183.268 311.067 176.881 314.478 171.305C317.889 165.728 323.152 160.92 329.528 159.574C335.904 158.228 343.364 161.163 345.955 167.226C348.546 173.288 345.833 180.292 342.585 186.031C337.782 194.545 331.772 202.318 324.741 209.108C323.475 210.322 322.109 211.648 321.826 213.389C321.299 216.537 324.589 219.077 327.696 219.614C331.218 220.221 334.781 219.32 338.364 219.199C341.947 219.077 345.955 220.039 347.777 223.146C350.317 227.458 347.21 232.852 343.91 236.587C337.298 244.077 329.444 250.37 320.692 255.19C317.565 256.901 314.255 258.49 311.947 261.263C309.64 264.036 308.638 268.267 310.733 271.182C312.828 274.097 317.109 274.491 320.469 273.328C323.83 272.164 326.643 269.805 329.751 268.064C335.57 264.795 343.607 264.016 348.374 268.732C351.501 271.85 352.473 276.698 351.795 281.07C351.117 285.443 349.001 289.461 346.674 293.216C338.576 306.374 327.311 317.598 313.749 324.744C300.186 331.889 287.12 335.148 272.1 332.112Z" fill="#455A64"/>
<path d="M276.502 314.086C278.753 298.673 281.885 283.402 285.884 268.347C286.93 264.339 287.942 260.385 288.921 256.485C289.933 252.588 290.945 248.732 292.17 245.018C294.525 237.886 297.275 230.892 300.408 224.067C303.354 217.528 306.38 211.435 309.255 205.757C312.129 200.079 314.933 194.846 317.686 190.18C321.998 182.795 326.892 175.766 332.321 169.158C334.234 166.82 335.772 165.049 336.835 163.865C337.351 163.308 337.746 162.853 338.05 162.529C338.181 162.371 338.327 162.225 338.485 162.094C338.376 162.27 338.25 162.436 338.11 162.59L336.957 163.976C335.944 165.201 334.446 167.013 332.574 169.361C327.277 176.037 322.483 183.098 318.232 190.484C315.53 195.16 312.767 200.403 309.912 206.081C307.058 211.759 304.062 217.862 301.147 224.39C298.054 231.199 295.331 238.169 292.99 245.271C291.775 248.965 290.783 252.801 289.761 256.698C288.739 260.594 287.737 264.562 286.724 268.56C282.733 283.592 279.584 298.834 277.291 314.217" fill="#E0E0E0"/>
<path d="M292.444 244.929C292.13 244.342 291.886 243.72 291.715 243.077C291.29 241.872 290.703 240.111 290.076 237.925C288.76 233.542 287.15 227.439 285.399 220.719C283.648 213.998 281.958 207.915 280.582 203.573C279.893 201.397 279.327 199.646 278.912 198.432C278.668 197.805 278.495 197.153 278.396 196.488C278.745 197.052 279.03 197.653 279.246 198.28C279.752 199.454 280.41 201.185 281.169 203.34C282.697 207.652 284.489 213.715 286.229 220.466C287.97 227.217 289.478 233.127 290.663 237.733C291.209 239.808 291.675 241.548 292.039 242.955C292.243 243.597 292.378 244.259 292.444 244.929Z" fill="#E0E0E0"/>
<path d="M348.547 225.354C347.81 225.625 347.052 225.831 346.28 225.971C344.822 226.335 342.707 226.841 340.106 227.55C334.903 228.926 327.788 231.072 320.035 233.795C312.282 236.517 305.379 239.291 300.44 241.446C297.971 242.459 295.987 243.41 294.61 244.027C293.917 244.393 293.192 244.694 292.444 244.928C293.08 244.467 293.758 244.067 294.469 243.734C295.805 243.025 297.748 242.023 300.207 240.9C305.096 238.602 311.989 235.738 319.762 232.995C326.402 230.628 333.158 228.601 340.004 226.922C342.626 226.295 344.772 225.91 346.259 225.617C347.011 225.454 347.778 225.366 348.547 225.354Z" fill="#E0E0E0"/>
<path d="M277.049 312.883C276.86 312.686 276.694 312.468 276.553 312.235C276.199 311.709 275.763 311.071 275.247 310.292C274.114 308.612 272.555 306.122 270.662 303.025C266.867 296.83 261.897 288.116 256.543 278.42C251.189 268.723 246.3 259.979 242.646 253.714L238.294 246.315L237.12 244.291C236.966 244.062 236.843 243.813 236.756 243.552C236.953 243.744 237.123 243.962 237.262 244.2L238.568 246.133C239.691 247.823 241.26 250.313 243.153 253.41C246.948 259.594 251.918 268.319 257.272 278.015C262.626 287.711 267.504 296.456 271.168 302.721L275.521 310.12C275.986 310.929 276.371 311.597 276.695 312.144C276.849 312.371 276.968 312.62 277.049 312.883Z" fill="#E0E0E0"/>
<path d="M350.023 276.516C349.799 276.683 349.558 276.826 349.304 276.941C348.737 277.234 348.039 277.599 347.189 278.024L339.375 281.941C332.786 285.25 323.727 289.916 313.727 295.098C303.728 300.28 294.588 304.855 287.948 308.023C284.619 309.612 281.876 310.867 280.013 311.697L277.837 312.639C277.587 312.765 277.321 312.86 277.048 312.922C277.264 312.741 277.506 312.594 277.766 312.487L279.882 311.404L287.685 307.487C294.284 304.187 303.343 299.511 313.343 294.329C323.343 289.147 332.452 284.542 339.122 281.404C342.452 279.815 345.195 278.56 347.047 277.73L349.233 276.789C349.482 276.661 349.748 276.569 350.023 276.516Z" fill="#E0E0E0"/>
<path d="M40.1085 25.4359C42.1529 25.1601 44.2319 25.3014 46.2202 25.8511C48.2085 26.4007 50.0648 27.3475 51.6772 28.6343C54.8817 31.2355 57.4444 34.5393 59.167 38.29C62.6993 45.3749 63.2155 54.5651 62.6183 62.4901C53.8735 61.2249 47.0922 53.5327 43.8939 49.4235C38.8332 42.9154 33.6714 28.0978 40.1288 25.3853" fill="#F5F5F5"/>
<path d="M76.1708 69.2506C74.5661 67.5985 73.4262 65.552 72.8663 63.3179C72.3065 61.0839 72.3466 58.7416 72.9826 56.5281C73.6602 54.3267 74.7688 52.282 76.2441 50.5131C77.7193 48.7442 79.5316 47.2864 81.5756 46.2246C83.4379 45.2125 85.695 44.4938 87.6484 45.3035C88.5461 45.7347 89.3117 46.3989 89.8653 47.2267C90.419 48.0545 90.7404 49.0156 90.7961 50.01C90.8803 52.0059 90.437 53.9888 89.5107 55.7589C86.6262 61.9227 82.7092 67.368 76.1607 69.2506" fill="#F5F5F5"/>
<path d="M79.47 88.8871C78.6314 87.348 77.9531 85.7268 77.4457 84.0491C76.8116 82.2326 76.397 80.3468 76.2109 78.4318C75.913 76.1125 75.7676 73.7762 75.7757 71.4379C75.8012 67.1338 76.8894 62.9026 78.9437 59.1203C79.5842 57.9984 80.3407 56.9467 81.2007 55.9827C81.8384 55.3147 82.2129 54.9706 82.2635 55.0313C82.3141 55.092 80.9679 56.5798 79.4902 59.4239C77.6647 63.1751 76.6999 67.2866 76.6664 71.4582C76.6588 73.7607 76.7804 76.0619 77.0308 78.3508C77.178 80.216 77.5171 82.0611 78.0429 83.8568C78.6368 85.4978 79.1137 87.1787 79.47 88.8871Z" fill="#E0E0E0"/>
<path d="M45.0581 36.3164C45.6675 36.9622 46.2195 37.6598 46.7079 38.4014C47.72 39.7779 49.1775 41.7819 50.9487 44.2718C54.4811 49.2616 59.2988 56.2149 64.4202 64.0185C69.5416 71.822 73.9747 79.0284 77.0718 84.2611C78.6305 86.8926 79.8552 89.0485 80.675 90.5464C81.1415 91.3046 81.5444 92.1002 81.8795 92.9249C81.3133 92.2371 80.8119 91.4985 80.3815 90.7185L76.5354 84.585C73.3067 79.4028 68.7825 72.2673 63.6712 64.4638L50.4325 44.6665L46.384 38.5937C45.8723 37.8774 45.4284 37.115 45.0581 36.3164Z" fill="#E0E0E0"/>
<path d="M69.3796 77.2559C65.6455 74.1512 61.2253 71.981 56.4853 70.9249C51.7453 69.8688 46.8219 69.9573 42.1229 71.1831C39.7343 71.8308 37.0623 73.2073 36.7789 75.6364C36.4955 78.0656 38.7222 80.0797 40.9084 81.2335C45.5026 83.5738 50.6869 84.5016 55.8077 83.9C60.9284 83.2984 65.7565 81.1943 69.6833 77.853" fill="#F5F5F5"/>
<path d="M47.9121 75.4963C48.3433 75.3146 48.8016 75.2052 49.2684 75.1724C50.159 75.0105 51.4445 74.8587 53.0537 74.7068C57.2582 74.2963 61.5023 74.6634 65.5738 75.7898C67.8167 76.4747 69.9328 77.5208 71.8389 78.8869C73.367 80.0179 74.7297 81.3567 75.8874 82.8646C76.6816 83.8642 77.3765 84.9387 77.9623 86.0731C78.2183 86.4687 78.4097 86.9026 78.5291 87.3585C78.3671 87.4496 77.4461 85.6783 75.4016 83.2594C72.7435 80.1154 69.2261 77.815 65.2803 76.64C61.3001 75.5574 57.1728 75.1167 53.0537 75.3344C51.3446 75.491 49.6277 75.5451 47.9121 75.4963Z" fill="#E0E0E0"/>
<path d="M255.379 0.131585L110.887 6.51891e-06C106.749 -0.00265645 102.651 0.81057 98.8277 2.39316C95.0043 3.97575 91.5306 6.29664 88.6051 9.22306C85.6796 12.1495 83.3599 15.624 81.7785 19.4478C80.1971 23.2716 79.3852 27.3697 79.3892 31.5077L79.3184 393.77C79.3264 402.11 82.6432 410.107 88.5408 416.004C94.4384 421.902 102.435 425.219 110.775 425.227L255.277 425.308C259.411 425.31 263.504 424.499 267.323 422.919C271.143 421.34 274.614 419.023 277.538 416.102C280.462 413.181 282.781 409.712 284.365 405.894C285.948 402.076 286.764 397.984 286.765 393.851L286.836 31.5886C286.833 23.2465 283.518 15.2469 277.619 9.3481C271.72 3.44934 263.721 0.134267 255.379 0.131585ZM277.19 388.578C277.186 391.472 276.612 394.337 275.5 397.01C274.389 399.682 272.761 402.109 270.711 404.153C268.661 406.196 266.229 407.816 263.553 408.919C260.877 410.022 258.01 410.587 255.115 410.581L110.907 410.5C108.012 410.499 105.146 409.927 102.472 408.818C99.7978 407.709 97.3684 406.085 95.3223 404.037C93.2763 401.989 91.6536 399.558 90.547 396.883C89.4404 394.208 88.8716 391.341 88.8729 388.446L88.9437 34.8578C88.9424 31.9617 89.512 29.0937 90.62 26.4179C91.728 23.7422 93.3526 21.311 95.4009 19.2636C97.4493 17.2163 99.8811 15.5928 102.557 14.486C105.234 13.3792 108.102 12.8109 110.998 12.8136H145.411C147.25 12.8561 148.999 13.6252 150.273 14.9528C151.548 16.2804 152.245 18.0585 152.212 19.8985V24.9592C152.179 26.7992 152.877 28.5773 154.151 29.9049C155.426 31.2325 157.174 32.0016 159.014 32.0441H213.669C215.511 32.0069 217.264 31.2398 218.541 29.9113C219.818 28.5828 220.516 26.8017 220.48 24.9592V19.8985C220.445 18.0577 221.141 16.2781 222.416 14.9499C223.691 13.6217 225.441 12.8535 227.282 12.8136H255.298C258.193 12.8242 261.059 13.4052 263.73 14.5235C266.401 15.6418 268.826 17.2754 270.865 19.331C272.905 21.3866 274.519 23.8239 275.617 26.5037C276.714 29.1834 277.273 32.0532 277.261 34.9489L277.19 388.578Z" fill="#263238"/>
<path d="M225.126 331.179H150.147V364.559H225.126V331.179Z" fill="#263238"/>
<path d="M277.201 331.179H212.708C212.708 345.399 200.562 356.968 185.745 356.968C170.927 356.968 158.792 345.399 158.792 331.179H88.9546V389.022C88.9573 394.86 91.2754 400.458 95.4004 404.589C99.5255 408.72 105.121 411.045 110.958 411.056L255.167 411.137C258.063 411.14 260.931 410.571 263.607 409.465C266.284 408.358 268.716 406.734 270.764 404.687C272.812 402.64 274.437 400.209 275.545 397.533C276.653 394.857 277.223 391.989 277.221 389.093L277.201 331.179Z" fill="#EB7B8B"/>
<path d="M162.557 366.604H166.97C170.148 366.604 172.334 368.528 172.334 371.463C172.334 374.398 170.148 376.321 166.97 376.321H162.557V366.604ZM166.858 374.479C167.286 374.535 167.721 374.498 168.135 374.372C168.548 374.246 168.929 374.034 169.253 373.749C169.578 373.464 169.838 373.113 170.016 372.72C170.194 372.326 170.286 371.9 170.286 371.468C170.286 371.036 170.194 370.609 170.016 370.216C169.838 369.822 169.578 369.472 169.253 369.187C168.929 368.902 168.548 368.689 168.135 368.563C167.721 368.437 167.286 368.401 166.858 368.457H164.834V374.479H166.858Z" fill="white"/>
<path d="M180.471 372.058V376.319H178.447V375.398C178.192 375.754 177.846 376.036 177.446 376.214C177.045 376.392 176.605 376.46 176.169 376.41C174.418 376.41 173.376 375.398 173.376 374.153C173.376 372.908 174.307 371.916 176.584 371.916H178.305C178.305 370.985 177.748 370.449 176.584 370.449C175.814 370.442 175.062 370.684 174.439 371.137L173.659 369.629C174.617 369.011 175.738 368.694 176.878 368.718C179.206 368.738 180.471 369.801 180.471 372.058ZM178.305 373.961V373.202H176.827C175.815 373.202 175.491 373.576 175.491 374.072C175.491 374.568 175.947 374.973 176.706 374.973C177.046 374.998 177.385 374.913 177.673 374.731C177.961 374.549 178.182 374.279 178.305 373.961Z" fill="white"/>
<path d="M190.065 372.05V376.321H187.899V372.384C187.899 371.18 187.343 370.623 186.381 370.623C185.42 370.623 184.59 371.26 184.59 372.647V376.331H182.424V368.872H184.448V369.742C184.765 369.409 185.149 369.147 185.575 368.973C186 368.798 186.458 368.716 186.918 368.73C188.729 368.74 190.065 369.773 190.065 372.05Z" fill="white"/>
<path d="M191.757 366.604C191.76 366.435 191.799 366.268 191.869 366.114C191.94 365.96 192.042 365.822 192.168 365.709C192.294 365.596 192.442 365.511 192.603 365.457C192.764 365.404 192.934 365.385 193.103 365.4C193.269 365.382 193.437 365.398 193.596 365.447C193.756 365.497 193.903 365.579 194.03 365.688C194.156 365.798 194.258 365.932 194.331 366.082C194.403 366.233 194.443 366.397 194.449 366.564C194.45 366.737 194.414 366.908 194.346 367.066C194.277 367.225 194.176 367.367 194.05 367.485C193.924 367.603 193.774 367.693 193.611 367.751C193.448 367.808 193.275 367.831 193.103 367.819C192.934 367.833 192.763 367.812 192.603 367.757C192.442 367.703 192.294 367.616 192.168 367.502C192.041 367.389 191.94 367.25 191.869 367.096C191.799 366.941 191.76 366.774 191.757 366.604ZM192.02 368.861H194.186V376.321H192.02V368.861Z" fill="white"/>
<path d="M203.497 373.203H197.85C197.972 373.664 198.253 374.068 198.644 374.342C199.035 374.616 199.51 374.743 199.985 374.701C200.33 374.715 200.674 374.659 200.996 374.536C201.318 374.412 201.611 374.224 201.858 373.982L203.012 375.227C202.623 375.636 202.15 375.955 201.626 376.163C201.101 376.371 200.538 376.462 199.975 376.431C197.394 376.431 195.714 374.812 195.714 372.585C195.708 372.067 195.808 371.554 196.007 371.076C196.207 370.598 196.502 370.165 196.874 369.805C197.247 369.445 197.689 369.165 198.173 368.982C198.658 368.798 199.174 368.716 199.692 368.739C200.2 368.725 200.705 368.815 201.177 369.005C201.648 369.194 202.076 369.478 202.433 369.84C202.79 370.202 203.069 370.633 203.252 371.107C203.435 371.581 203.518 372.088 203.497 372.595C203.497 372.788 203.497 373.021 203.497 373.203ZM197.819 371.938H201.473C201.395 371.506 201.167 371.116 200.831 370.836C200.494 370.555 200.069 370.401 199.631 370.401C199.193 370.401 198.768 370.555 198.432 370.836C198.095 371.116 197.868 371.506 197.789 371.938H197.819Z" fill="white"/>
<path d="M204.954 366.026H207.12V376.32H204.954V366.026Z" fill="white"/>
<path d="M176.463 383.305V389.003H176.048V383.73H174.661V383.355L176.463 383.305Z" fill="white"/>
<path d="M177.91 386.157C177.91 384.376 178.831 383.263 180.137 383.263C181.442 383.263 182.374 384.376 182.374 386.157C182.374 387.939 181.453 389.042 180.137 389.042C178.821 389.042 177.91 387.939 177.91 386.157ZM181.959 386.157C181.959 384.568 181.22 383.647 180.137 383.647C179.054 383.647 178.325 384.568 178.325 386.157C178.325 387.746 179.064 388.657 180.137 388.657C181.21 388.657 181.959 387.777 181.959 386.157Z" fill="white"/>
<path d="M183.253 385.065C183.245 385.016 183.247 384.965 183.26 384.916C183.273 384.868 183.297 384.823 183.329 384.785C183.361 384.746 183.401 384.715 183.447 384.694C183.492 384.673 183.542 384.662 183.592 384.662C183.642 384.662 183.692 384.673 183.737 384.694C183.783 384.715 183.823 384.746 183.855 384.785C183.888 384.823 183.911 384.868 183.924 384.916C183.937 384.965 183.94 385.016 183.931 385.065C183.94 385.114 183.937 385.165 183.924 385.214C183.911 385.262 183.888 385.307 183.855 385.345C183.823 385.384 183.783 385.415 183.737 385.436C183.692 385.457 183.642 385.468 183.592 385.468C183.542 385.468 183.492 385.457 183.447 385.436C183.401 385.415 183.361 385.384 183.329 385.345C183.297 385.307 183.273 385.262 183.26 385.214C183.247 385.165 183.245 385.114 183.253 385.065ZM183.253 388.688C183.245 388.639 183.247 388.588 183.26 388.54C183.273 388.491 183.297 388.446 183.329 388.408C183.361 388.37 183.401 388.339 183.447 388.318C183.492 388.297 183.542 388.286 183.592 388.286C183.642 388.286 183.692 388.297 183.737 388.318C183.783 388.339 183.823 388.37 183.855 388.408C183.888 388.446 183.911 388.491 183.924 388.54C183.937 388.588 183.94 388.639 183.931 388.688C183.94 388.738 183.937 388.789 183.924 388.837C183.911 388.885 183.888 388.93 183.855 388.969C183.823 389.007 183.783 389.038 183.737 389.059C183.692 389.08 183.642 389.091 183.592 389.091C183.542 389.091 183.492 389.08 183.447 389.059C183.401 389.038 183.361 389.007 183.329 388.969C183.297 388.93 183.273 388.885 183.26 388.837C183.247 388.789 183.245 388.738 183.253 388.688Z" fill="white"/>
<path d="M184.895 386.157C184.895 384.376 185.816 383.263 187.131 383.263C188.447 383.263 189.358 384.376 189.358 386.157C189.358 387.939 188.437 389.042 187.131 389.042C185.826 389.042 184.895 387.939 184.895 386.157ZM188.943 386.157C188.943 384.568 188.204 383.647 187.131 383.647C186.058 383.647 185.31 384.568 185.31 386.157C185.31 387.746 186.058 388.657 187.131 388.657C188.204 388.657 188.943 387.777 188.943 386.157Z" fill="white"/>
<path d="M195.016 387.424H193.811V389.003H193.376V387.424H190.127V387.12L193.224 383.305H193.69L190.653 387.06H193.376V385.663H193.771V387.06H194.975L195.016 387.424Z" fill="white"/>
<path d="M125.563 358.192H112.668C110.181 358.192 108.164 360.209 108.164 362.696V375.591C108.164 378.078 110.181 380.095 112.668 380.095H125.563C128.05 380.095 130.067 378.078 130.067 375.591V362.696C130.067 360.209 128.05 358.192 125.563 358.192Z" fill="#FAFAFA"/>
<path d="M255.753 378.598H243.608C242.347 378.595 241.138 378.093 240.247 377.201C239.355 376.31 238.853 375.102 238.851 373.841V361.695C238.853 360.435 239.356 359.228 240.247 358.338C241.139 357.448 242.348 356.948 243.608 356.948H255.753C257.013 356.948 258.222 357.448 259.113 358.338C260.005 359.228 260.508 360.435 260.51 361.695V373.841C260.508 375.102 260.005 376.31 259.114 377.201C258.222 378.093 257.014 378.595 255.753 378.598ZM243.608 357.444C242.482 357.444 241.402 357.891 240.605 358.686C239.808 359.481 239.359 360.559 239.357 361.685V373.831C239.359 374.957 239.808 376.037 240.605 376.834C241.401 377.63 242.481 378.079 243.608 378.082H255.753C256.881 378.082 257.962 377.634 258.759 376.836C259.556 376.039 260.004 374.958 260.004 373.831V361.685C260.001 360.559 259.552 359.481 258.755 358.686C257.959 357.891 256.879 357.444 255.753 357.444H243.608Z" fill="white"/>
<path d="M123.103 365.582H115.117C114.849 365.582 114.591 365.689 114.401 365.878C114.212 366.068 114.105 366.326 114.105 366.594V371.877C114.105 372.146 114.212 372.403 114.401 372.593C114.591 372.783 114.849 372.89 115.117 372.89H115.795V375.218L118.488 372.89H123.103C123.371 372.89 123.629 372.783 123.819 372.593C124.008 372.403 124.115 372.146 124.115 371.877V366.625C124.119 366.489 124.096 366.354 124.047 366.228C123.998 366.102 123.924 365.986 123.829 365.889C123.735 365.792 123.622 365.715 123.497 365.662C123.372 365.609 123.238 365.582 123.103 365.582ZM116.575 370.238C116.418 370.24 116.264 370.195 116.132 370.109C116.001 370.023 115.898 369.9 115.837 369.755C115.776 369.611 115.76 369.451 115.79 369.297C115.82 369.143 115.895 369.001 116.006 368.89C116.117 368.779 116.259 368.704 116.413 368.674C116.567 368.644 116.727 368.66 116.871 368.721C117.016 368.782 117.139 368.885 117.225 369.016C117.311 369.147 117.356 369.301 117.354 369.458C117.354 369.665 117.272 369.863 117.126 370.01C116.98 370.156 116.781 370.238 116.575 370.238ZM119.004 370.238C118.847 370.238 118.694 370.191 118.564 370.104C118.434 370.017 118.333 369.893 118.273 369.748C118.214 369.603 118.199 369.444 118.23 369.291C118.262 369.137 118.338 368.997 118.449 368.887C118.561 368.777 118.702 368.702 118.856 368.673C119.01 368.644 119.169 368.661 119.313 368.722C119.457 368.783 119.58 368.886 119.665 369.017C119.751 369.148 119.795 369.302 119.793 369.458C119.791 369.666 119.706 369.864 119.558 370.01C119.411 370.156 119.211 370.238 119.004 370.238ZM121.605 370.238C121.448 370.238 121.295 370.191 121.165 370.104C121.035 370.017 120.934 369.893 120.875 369.748C120.815 369.603 120.8 369.444 120.831 369.291C120.863 369.137 120.939 368.997 121.05 368.887C121.162 368.777 121.303 368.702 121.457 368.673C121.611 368.644 121.77 368.661 121.914 368.722C122.058 368.783 122.181 368.886 122.266 369.017C122.352 369.148 122.396 369.302 122.394 369.458C122.392 369.666 122.307 369.864 122.16 370.01C122.012 370.156 121.813 370.238 121.605 370.238Z" fill="#EB7B8B"/>
<path d="M246.897 370.571C246.835 370.569 246.776 370.544 246.731 370.501C246.687 370.458 246.659 370.401 246.654 370.339C246.047 365.278 249.812 363.689 249.852 363.679C249.913 363.655 249.98 363.655 250.041 363.68C250.101 363.704 250.15 363.751 250.176 363.81C250.191 363.841 250.2 363.874 250.201 363.908C250.202 363.941 250.197 363.975 250.184 364.007C250.172 364.038 250.153 364.066 250.129 364.09C250.105 364.114 250.076 364.132 250.045 364.144C249.903 364.205 246.593 365.632 247.15 370.288C247.154 370.321 247.152 370.354 247.143 370.386C247.134 370.417 247.118 370.447 247.097 370.473C247.077 370.498 247.051 370.519 247.022 370.534C246.992 370.55 246.96 370.559 246.927 370.561L246.897 370.571Z" fill="white"/>
<path d="M246.897 370.571C246.823 370.567 246.754 370.534 246.705 370.48L245.116 368.608C245.091 368.584 245.072 368.556 245.058 368.524C245.045 368.493 245.038 368.46 245.038 368.426C245.038 368.392 245.045 368.358 245.058 368.327C245.072 368.295 245.091 368.267 245.116 368.243C245.164 368.199 245.227 368.175 245.293 368.175C245.358 368.175 245.421 368.199 245.47 368.243L246.856 369.883L248.081 368.253C248.104 368.229 248.131 368.21 248.162 368.197C248.192 368.184 248.225 368.177 248.258 368.177C248.291 368.177 248.324 368.184 248.355 368.197C248.385 368.21 248.413 368.229 248.435 368.253C248.462 368.273 248.484 368.298 248.501 368.327C248.518 368.356 248.529 368.387 248.534 368.42C248.539 368.453 248.537 368.486 248.529 368.519C248.52 368.551 248.506 368.581 248.486 368.608L247.069 370.48C247.046 370.51 247.017 370.534 246.984 370.552C246.951 370.569 246.914 370.579 246.877 370.581L246.897 370.571Z" fill="white"/>
<path d="M249.407 371.888C249.356 371.887 249.307 371.871 249.266 371.843C249.224 371.814 249.192 371.773 249.174 371.726C249.15 371.665 249.15 371.598 249.175 371.538C249.199 371.477 249.246 371.429 249.306 371.402C249.447 371.341 252.757 369.904 252.2 365.258C252.196 365.225 252.198 365.191 252.207 365.159C252.216 365.127 252.232 365.096 252.252 365.07C252.273 365.044 252.299 365.022 252.328 365.005C252.357 364.989 252.39 364.979 252.423 364.975C252.489 364.971 252.554 364.992 252.607 365.033C252.659 365.074 252.694 365.132 252.706 365.198C253.303 370.258 249.538 371.847 249.498 371.868L249.407 371.888Z" fill="white"/>
<path d="M251.067 367.353C251.013 367.355 250.959 367.337 250.916 367.302C250.862 367.262 250.826 367.202 250.817 367.136C250.808 367.069 250.825 367.002 250.865 366.948L252.282 365.076C252.304 365.045 252.333 365.02 252.366 365.003C252.4 364.985 252.437 364.975 252.474 364.975C252.548 364.979 252.617 365.012 252.667 365.066L254.256 366.938C254.302 366.985 254.328 367.049 254.328 367.115C254.328 367.181 254.302 367.245 254.256 367.292C254.207 367.339 254.141 367.366 254.074 367.366C254.006 367.366 253.94 367.339 253.891 367.292L252.505 365.653L251.28 367.272C251.254 367.303 251.222 367.326 251.184 367.34C251.147 367.355 251.107 367.359 251.067 367.353Z" fill="white"/>
<path d="M118.954 66.7805C127.182 66.7805 133.852 60.1102 133.852 51.882C133.852 43.6537 127.182 36.9834 118.954 36.9834C110.725 36.9834 104.055 43.6537 104.055 51.882C104.055 60.1102 110.725 66.7805 118.954 66.7805Z" fill="#EBEBEB"/>
<path d="M118.154 56.2344C118.085 56.2313 118.02 56.2024 117.972 56.1535L114.085 52.1049C114.041 52.0565 114.017 51.9933 114.017 51.9278C114.017 51.8623 114.041 51.7991 114.085 51.7507L117.972 47.7022C118.021 47.6552 118.086 47.6289 118.154 47.6289C118.222 47.6289 118.287 47.6552 118.336 47.7022C118.361 47.7258 118.38 47.7541 118.393 47.7854C118.407 47.8167 118.414 47.8503 118.414 47.8843C118.414 47.9184 118.407 47.952 118.393 47.9833C118.38 48.0146 118.361 48.0429 118.336 48.0665L114.622 51.9734L118.336 55.8903C118.361 55.9139 118.38 55.9422 118.393 55.9735C118.407 56.0048 118.414 56.0385 118.414 56.0725C118.414 56.1065 118.407 56.1402 118.393 56.1715C118.38 56.2028 118.361 56.2311 118.336 56.2547C118.275 56.2675 118.211 56.2605 118.154 56.2344Z" fill="#263238"/>
<path d="M124.905 52.134H114.267C114.2 52.134 114.136 52.1073 114.088 52.0599C114.041 52.0124 114.014 51.9481 114.014 51.881C114.017 51.8147 114.044 51.7517 114.091 51.7048C114.138 51.6579 114.201 51.6304 114.267 51.6279H124.905C124.972 51.6279 125.036 51.6546 125.084 51.702C125.131 51.7495 125.158 51.8139 125.158 51.881C125.158 51.9481 125.131 52.0124 125.084 52.0599C125.036 52.1073 124.972 52.134 124.905 52.134Z" fill="#263238"/>
<path d="M265.785 314.568C266.976 307.264 262.02 300.377 254.715 299.186C247.411 297.995 240.524 302.951 239.333 310.255C238.142 317.56 243.098 324.447 250.403 325.638C257.707 326.829 264.594 321.873 265.785 314.568Z" fill="#EB7B8B"/>
<path d="M252.545 315.39C251.905 315.39 251.291 315.137 250.838 314.685C250.385 314.234 250.129 313.621 250.126 312.981V307.708C250.126 307.067 250.381 306.451 250.834 305.998C251.288 305.544 251.903 305.289 252.545 305.289C253.187 305.289 253.802 305.544 254.255 305.998C254.709 306.451 254.964 307.067 254.964 307.708V312.981C254.961 313.621 254.705 314.234 254.252 314.685C253.799 315.137 253.185 315.39 252.545 315.39ZM252.545 305.805C252.039 305.805 251.554 306.005 251.196 306.362C250.837 306.719 250.635 307.202 250.632 307.708V312.981C250.632 313.489 250.834 313.975 251.192 314.334C251.551 314.693 252.038 314.894 252.545 314.894C253.052 314.894 253.539 314.693 253.898 314.334C254.256 313.975 254.458 313.489 254.458 312.981V307.708C254.458 307.201 254.256 306.714 253.898 306.355C253.539 305.997 253.052 305.795 252.545 305.795V305.805Z" fill="white"/>
<path d="M252.545 317.091C251.916 317.126 251.287 317.024 250.702 316.791C250.116 316.559 249.588 316.202 249.155 315.745C248.182 314.463 247.724 312.864 247.869 311.261C247.876 311.194 247.909 311.132 247.961 311.09C248.013 311.047 248.08 311.027 248.147 311.033C248.215 311.04 248.276 311.073 248.319 311.126C248.362 311.178 248.382 311.245 248.375 311.312C248.252 312.773 248.662 314.229 249.529 315.411C249.92 315.815 250.394 316.129 250.918 316.332C251.442 316.535 252.004 316.621 252.565 316.585C253.125 316.61 253.684 316.519 254.207 316.317C254.729 316.115 255.205 315.806 255.602 315.411C256.541 314.247 257.033 312.786 256.988 311.292C256.988 311.226 257.014 311.163 257.059 311.116C257.104 311.069 257.166 311.041 257.231 311.039C257.265 311.037 257.298 311.042 257.329 311.054C257.36 311.065 257.389 311.083 257.413 311.105C257.438 311.128 257.457 311.155 257.471 311.185C257.485 311.216 257.493 311.248 257.494 311.281C257.549 312.912 257.005 314.507 255.966 315.765C255.519 316.212 254.984 316.56 254.395 316.789C253.806 317.017 253.176 317.12 252.545 317.091Z" fill="white"/>
<path d="M252.545 320.795C252.478 320.795 252.414 320.769 252.366 320.721C252.319 320.674 252.292 320.61 252.292 320.542V316.838C252.292 316.771 252.319 316.707 252.366 316.659C252.414 316.612 252.478 316.585 252.545 316.585C252.612 316.585 252.677 316.612 252.724 316.659C252.771 316.707 252.798 316.771 252.798 316.838V320.542C252.798 320.61 252.771 320.674 252.724 320.721C252.677 320.769 252.612 320.795 252.545 320.795Z" fill="white"/>
<path d="M185.744 353.588C198.757 353.588 209.306 343.038 209.306 330.025C209.306 317.012 198.757 306.463 185.744 306.463C172.731 306.463 162.182 317.012 162.182 330.025C162.182 343.038 172.731 353.588 185.744 353.588Z" fill="#EB7B8B"/>
<path d="M183.648 323.508C183.186 323.14 182.648 322.879 182.074 322.741C181.5 322.604 180.903 322.593 180.324 322.711C179.746 322.829 179.2 323.072 178.725 323.422C178.25 323.773 177.858 324.224 177.575 324.742C177.305 325.236 177.214 325.808 177.317 326.362C177.42 326.915 177.712 327.416 178.142 327.779C180.308 329.904 184.852 334.165 186.826 336.017C187.359 336.525 188 336.907 188.701 337.133C189.402 337.359 190.145 337.424 190.875 337.323C191.447 337.24 191.995 337.04 192.487 336.735C192.978 336.431 193.401 336.028 193.729 335.552C195.966 332.516 190.622 330.107 190.622 330.107L188.284 332.556L182.838 327.303L185.227 324.672L183.648 323.508Z" fill="white"/>
</svg>
