<svg width="31" height="42" viewBox="0 0 31 42" fill="none" xmlns="http://www.w3.org/2000/svg">
<path fill-rule="evenodd" clip-rule="evenodd" d="M24.5666 37.7452C-18.5121 22.0484 13.9247 -35.5696 24.5666 37.7452Z" fill="#8C9152"/>
<path d="M25.5227 40.6286C25.6022 40.7259 25.7 40.8065 25.8105 40.866C25.9211 40.9254 26.0423 40.9625 26.1672 40.9751C26.2921 40.9878 26.4183 40.9756 26.5385 40.9395C26.6587 40.9033 26.7707 40.8439 26.868 40.7645C26.9652 40.6851 27.0458 40.5873 27.1053 40.4767C27.1648 40.3661 27.2018 40.2449 27.2144 40.12C27.227 39.9951 27.215 39.8689 27.1788 39.7487C27.1427 39.6285 27.0831 39.5165 27.0037 39.4193C23.3559 34.9912 20.0886 30.263 17.2367 25.2849C14.0723 19.7416 11.4962 13.8825 9.55062 7.80323C9.45098 7.58763 9.27576 7.41602 9.05813 7.32089C8.8405 7.22576 8.59558 7.21372 8.36966 7.28702C8.14374 7.36031 7.95251 7.51387 7.83218 7.71864C7.71184 7.92341 7.67073 8.16519 7.71664 8.39822C9.69854 14.5935 12.3092 20.5698 15.5079 26.2336C18.4229 31.2796 21.7546 36.0732 25.4683 40.5641L25.5227 40.6286Z" fill="black"/>
</svg>
