<svg width="1186" height="789" viewBox="0 0 1186 789" fill="none" xmlns="http://www.w3.org/2000/svg">
<path fill-rule="evenodd" clip-rule="evenodd" d="M752.997 58.8398C814.475 58.8398 874.572 77.0703 925.688 111.226C976.804 145.381 1016.64 193.928 1040.17 250.726C1063.7 307.524 1069.85 370.023 1057.85 430.319C1045.86 490.615 1016.25 546 972.78 589.47C929.307 632.939 873.921 662.541 813.624 674.532C753.327 686.523 690.829 680.365 634.032 656.835C577.235 633.306 528.692 593.462 494.54 542.343C460.388 491.225 442.162 431.126 442.166 369.649C442.166 328.831 450.206 288.413 465.827 250.702C481.448 212.992 504.344 178.727 533.208 149.866C562.071 121.004 596.337 98.1108 634.049 82.4924C671.761 66.8741 712.179 58.8369 752.997 58.8398Z" fill="#E85463"/>
<path fill-rule="evenodd" clip-rule="evenodd" d="M464.689 134.298C475.047 134.294 485.24 136.891 494.334 141.849C503.428 146.808 511.133 153.969 516.741 162.678C519.944 161.744 523.262 161.267 526.599 161.263C532.397 161.267 538.103 162.713 543.203 165.471C548.304 168.228 552.638 172.211 555.817 177.06C558.996 181.909 560.919 187.473 561.413 193.25C561.907 199.027 560.957 204.836 558.648 210.155H361.557C360.075 205.655 359.329 200.945 359.347 196.208C359.355 189.18 361.064 182.258 364.328 176.034C367.592 169.81 372.314 164.468 378.091 160.465C383.868 156.463 390.528 153.918 397.502 153.049C404.477 152.179 411.557 153.011 418.14 155.472C423.95 148.821 431.115 143.491 439.155 139.839C447.196 136.186 455.924 134.297 464.755 134.298H464.689Z" fill="white"/>
<path d="M464.688 132.884C475.104 132.87 485.362 135.429 494.551 140.334C503.739 145.239 511.574 152.337 517.359 160.999C518.69 160.648 520.041 160.375 521.404 160.181C523.124 159.934 524.86 159.809 526.598 159.805C536.239 159.811 545.484 163.644 552.301 170.461C559.119 177.278 562.951 186.523 562.957 196.164C562.954 198.659 562.702 201.146 562.206 203.591C561.7 206.014 560.959 208.383 559.995 210.664L559.62 211.526H360.695L360.363 210.553C359.58 208.248 358.989 205.883 358.595 203.48C357.533 197.05 357.884 190.466 359.622 184.185C361.361 177.904 364.445 172.076 368.662 167.107C372.878 162.137 378.126 158.145 384.04 155.407C389.954 152.669 396.394 151.251 402.911 151.252C407.977 151.233 413.009 152.085 417.786 153.771C423.628 147.297 430.737 142.091 438.673 138.476C446.885 134.748 455.802 132.826 464.821 132.84L464.688 132.884ZM493.599 143.073C481.532 136.487 467.581 134.211 454.047 136.622C440.513 139.033 428.206 145.987 419.157 156.335L418.493 157.087L417.587 156.733C415.228 155.849 412.794 155.176 410.316 154.722C407.827 154.284 405.305 154.062 402.778 154.059C391.641 154.059 380.959 158.483 373.083 166.359C365.208 174.234 360.783 184.916 360.783 196.054C360.775 198.349 360.96 200.641 361.336 202.906C361.639 204.822 362.082 206.713 362.662 208.564H557.763C558.507 206.734 559.084 204.84 559.487 202.906C560.502 198.028 560.417 192.985 559.238 188.144C558.06 183.303 555.817 178.786 552.673 174.92C549.53 171.055 545.564 167.939 541.065 165.798C536.566 163.658 531.647 162.547 526.664 162.546C525.06 162.544 523.457 162.655 521.868 162.878C520.291 163.101 518.732 163.441 517.204 163.894L516.188 164.182L515.613 163.298C510.121 154.772 502.573 147.765 493.665 142.919L493.599 143.073Z" fill="black"/>
<path fill-rule="evenodd" clip-rule="evenodd" d="M937.621 71.084C944.565 71.0873 951.398 72.8308 957.495 76.1552C963.591 79.4796 968.758 84.2789 972.522 90.1145C974.678 89.4982 976.91 89.1858 979.152 89.1862C982.232 89.1862 985.281 89.7928 988.127 90.9713C990.972 92.1498 993.557 93.8772 995.735 96.0548C997.912 98.2325 999.64 100.818 1000.82 103.663C1002 106.508 1002.6 109.558 1002.6 112.637C1002.61 115.855 1001.95 119.039 1000.66 121.987H868.395C866.916 117.593 866.502 112.91 867.19 108.326C867.877 103.741 869.646 99.3852 872.35 95.619C875.054 91.8529 878.615 88.7841 882.739 86.6663C886.863 84.5485 891.432 83.4424 896.068 83.4395C899.571 83.428 903.047 84.0572 906.324 85.2961C910.22 80.826 915.03 77.244 920.43 74.7922C925.829 72.3405 931.691 71.0759 937.621 71.084Z" fill="white"/>
<path d="M937.622 69.6475C944.635 69.6508 951.542 71.3682 957.74 74.6503C963.938 77.9325 969.24 82.6798 973.185 88.4791C973.993 88.2778 974.812 88.1229 975.638 88.015C976.809 87.8379 977.991 87.7492 979.175 87.7497C985.774 87.7556 992.101 90.3795 996.767 95.0456C1001.43 99.7117 1004.06 106.039 1004.06 112.637C1004.05 116.052 1003.35 119.43 1001.98 122.562L1001.61 123.401H867.379L867.047 122.451C866.525 120.871 866.126 119.252 865.854 117.611C865.588 115.966 865.455 114.303 865.456 112.637C865.45 108.615 866.238 104.63 867.774 100.912C869.31 97.1945 871.564 93.816 874.408 90.9705C877.251 88.1249 880.628 85.8682 884.345 84.3294C888.062 82.7906 892.046 82.0001 896.068 82.003C897.907 82.0047 899.742 82.1748 901.55 82.5114C903.051 82.77 904.529 83.1469 905.97 83.6386C909.983 79.2213 914.876 75.6941 920.336 73.2842C925.795 70.8744 931.698 69.6356 937.666 69.6475H937.622ZM956.807 77.3614C948.798 72.9861 939.534 71.4774 930.551 73.0853C921.567 74.6931 913.402 79.3209 907.407 86.2025L906.744 86.9319L905.838 86.6004C904.287 86.0014 902.68 85.5572 901.042 85.2742C897.037 84.5456 892.921 84.7058 888.985 85.7435C885.05 86.7812 881.39 88.671 878.265 91.2792C875.14 93.8874 872.627 97.1504 870.902 100.837C869.178 104.524 868.284 108.545 868.285 112.615C868.29 114.097 868.416 115.575 868.661 117.036C868.838 118.195 869.096 119.34 869.435 120.462H999.841C1000.27 119.341 1000.6 118.188 1000.84 117.014C1001.14 115.56 1001.3 114.079 1001.3 112.593C1001.3 106.731 998.971 101.109 994.826 96.9642C990.681 92.8191 985.059 90.4905 979.197 90.4905C978.147 90.4847 977.097 90.5586 976.058 90.7115C975.02 90.862 973.994 91.0836 972.986 91.3746L971.969 91.684L971.395 90.7778C967.743 85.125 962.736 80.475 956.829 77.2509L956.807 77.3614Z" fill="black"/>
<path d="M1034.41 210.624L1034.41 210.624C1048.11 210.618 1061.59 214.051 1073.62 220.61C1085.65 227.168 1095.84 236.641 1103.26 248.16L1103.66 248.789L1104.38 248.578C1112.74 246.127 1121.62 246.107 1129.99 248.523C1138.35 250.939 1145.86 255.69 1151.62 262.219C1157.39 268.747 1161.17 276.784 1162.53 285.386C1163.86 293.773 1162.82 302.359 1159.56 310.186H896.946C893.692 300.113 893.291 289.331 895.794 279.036C898.353 268.508 903.844 258.922 911.63 251.389C919.416 243.855 929.177 238.683 939.783 236.472C950.389 234.261 961.405 235.102 971.552 238.897L972.201 239.139L972.656 238.617C980.346 229.805 989.839 222.745 1000.49 217.916C1011.14 213.086 1022.71 210.6 1034.41 210.624Z" fill="white" stroke="black" stroke-width="2"/>
<path fill-rule="evenodd" clip-rule="evenodd" d="M389.583 565.236C383.439 458.192 319.054 504.365 389.583 565.236Z" fill="#80854D"/>
<path fill-rule="evenodd" clip-rule="evenodd" d="M399.132 652.653C303.626 510.311 293.039 669.605 399.132 652.653Z" fill="#80854D"/>
<path d="M405.895 654.487C406.238 654.642 406.505 654.928 406.638 655.28C406.771 655.632 406.758 656.023 406.603 656.366C406.447 656.709 406.162 656.976 405.81 657.109C405.457 657.241 405.067 657.228 404.724 657.073C391.76 651.265 379.309 644.374 367.503 636.473C354.407 627.608 342.267 617.408 331.276 606.038C331.147 605.904 331.046 605.747 330.977 605.574C330.909 605.401 330.876 605.217 330.879 605.031C330.882 604.845 330.921 604.662 330.995 604.491C331.069 604.321 331.176 604.167 331.309 604.038C331.443 603.908 331.601 603.807 331.773 603.739C331.946 603.67 332.131 603.637 332.316 603.64C332.502 603.643 332.686 603.683 332.856 603.756C333.026 603.83 333.181 603.937 333.31 604.071C344.177 615.292 356.176 625.358 369.116 634.108C380.784 641.93 393.096 648.748 405.917 654.487H405.895Z" fill="black"/>
<path fill-rule="evenodd" clip-rule="evenodd" d="M628.448 108.726C545.452 123.38 540.258 4.48894 628.448 108.726Z" fill="#8C9152"/>
<path d="M633.642 109.278C633.818 109.339 633.98 109.433 634.118 109.557C634.257 109.68 634.371 109.83 634.452 109.997C634.533 110.165 634.58 110.346 634.591 110.532C634.602 110.717 634.576 110.903 634.515 111.079C634.454 111.255 634.359 111.416 634.236 111.555C634.112 111.694 633.963 111.807 633.795 111.889C633.628 111.97 633.446 112.017 633.261 112.028C633.075 112.039 632.889 112.013 632.714 111.952C622.792 108.576 613.179 104.354 603.98 99.3313C593.791 93.7074 584.213 87.0409 575.401 79.4388C575.108 79.1955 574.924 78.8458 574.888 78.4665C574.853 78.0873 574.97 77.7095 575.213 77.4164C575.457 77.1233 575.806 76.9389 576.186 76.9036C576.565 76.8684 576.943 76.9853 577.236 77.2285C585.928 84.747 595.381 91.3397 605.439 96.9C614.472 101.829 623.907 105.985 633.642 109.322V109.278Z" fill="black"/>
<path fill-rule="evenodd" clip-rule="evenodd" d="M376.322 28.1608C323.518 -31.5166 259.044 21.1101 376.322 28.1608Z" fill="#80854D"/>
<path fill-rule="evenodd" clip-rule="evenodd" d="M188.537 325.31C102.933 353.182 70.751 283.204 188.537 325.31Z" fill="#8C9152"/>
<path fill-rule="evenodd" clip-rule="evenodd" d="M212.761 347.501C127.71 387.286 74.7075 326.614 212.761 347.501Z" fill="#80854D"/>
<path fill-rule="evenodd" clip-rule="evenodd" d="M169.174 302.457C95.1743 314.061 69.5351 238.115 169.174 302.457Z" fill="#8C9152"/>
<path fill-rule="evenodd" clip-rule="evenodd" d="M159.14 288.575C132.97 172.602 90.4002 248.105 159.14 288.575Z" fill="#80854D"/>
<path fill-rule="evenodd" clip-rule="evenodd" d="M163.428 294.742C199.168 190.97 125.721 233.098 163.428 294.742Z" fill="#8C9152"/>
<path fill-rule="evenodd" clip-rule="evenodd" d="M179.033 314.789C226.333 204.85 150.697 250.382 179.033 314.789Z" fill="#8C9152"/>
<path fill-rule="evenodd" clip-rule="evenodd" d="M198.925 335.61C246.821 209.889 165.085 271.269 198.925 335.61Z" fill="#8C9152"/>
<path fill-rule="evenodd" clip-rule="evenodd" d="M241.738 366.554C138.673 426.232 101.341 346.883 241.738 366.554Z" fill="#80854D"/>
<path fill-rule="evenodd" clip-rule="evenodd" d="M225.559 356.874C251.728 227.948 183.21 296.29 225.559 356.874Z" fill="#80854D"/>
<path fill-rule="evenodd" clip-rule="evenodd" d="M286.385 383.574C172.401 457.971 116.747 381.363 286.385 383.574Z" fill="#8C9152"/>
<path fill-rule="evenodd" clip-rule="evenodd" d="M259.022 374.821C259.42 229.561 194.814 320.183 259.022 374.821Z" fill="#8C9152"/>
<path d="M156.929 287.802C156.823 287.648 156.748 287.474 156.711 287.291C156.673 287.107 156.673 286.918 156.71 286.734C156.747 286.55 156.821 286.376 156.927 286.222C157.033 286.067 157.169 285.936 157.327 285.835C157.481 285.73 157.654 285.657 157.836 285.619C158.018 285.582 158.206 285.58 158.389 285.615C158.572 285.65 158.746 285.72 158.901 285.823C159.056 285.925 159.19 286.057 159.294 286.211C179.187 315.718 201.953 339.545 227.813 356.608C252.488 373.087 280.855 383.209 310.389 386.071C310.584 386.073 310.777 386.116 310.956 386.197C311.134 386.278 311.293 386.394 311.424 386.54C311.555 386.685 311.654 386.856 311.715 387.042C311.777 387.228 311.799 387.424 311.781 387.619C311.762 387.813 311.704 388.002 311.609 388.173C311.513 388.344 311.384 388.493 311.228 388.612C311.073 388.73 310.894 388.815 310.704 388.861C310.514 388.907 310.316 388.913 310.124 388.878C280.084 386.011 251.225 375.736 226.133 358.973C200.03 341.711 176.822 317.619 156.929 287.802Z" fill="black"/>
<path fill-rule="evenodd" clip-rule="evenodd" d="M1112.43 281.503C1177.9 263.71 1137.23 174.725 1112.43 281.503Z" fill="#8C9152"/>
<path d="M1110.66 285.637C1110.54 285.77 1110.38 285.877 1110.21 285.951C1110.04 286.025 1109.86 286.064 1109.67 286.067C1109.49 286.07 1109.3 286.037 1109.13 285.969C1108.96 285.9 1108.8 285.799 1108.66 285.67C1108.53 285.541 1108.42 285.386 1108.35 285.216C1108.28 285.045 1108.24 284.862 1108.23 284.676C1108.23 284.491 1108.26 284.306 1108.33 284.133C1108.4 283.961 1108.5 283.803 1108.63 283.669C1114.56 277.594 1119.96 271.028 1124.79 264.042C1130.14 256.262 1134.67 247.943 1138.29 239.221C1138.47 238.915 1138.75 238.684 1139.08 238.571C1139.41 238.458 1139.77 238.47 1140.1 238.606C1140.42 238.742 1140.68 238.993 1140.84 239.31C1140.99 239.626 1141.02 239.988 1140.92 240.326C1137.23 249.214 1132.64 257.702 1127.22 265.656C1122.29 272.734 1116.79 279.388 1110.75 285.548L1110.66 285.637Z" fill="black"/>
<path fill-rule="evenodd" clip-rule="evenodd" d="M969.427 363.261C1069.64 286.011 1060.51 363.393 969.427 363.261Z" fill="#8C9152"/>
<path fill-rule="evenodd" clip-rule="evenodd" d="M954.663 392.37C1081 329.223 1048.93 404.173 954.663 392.37Z" fill="#80854D"/>
<path fill-rule="evenodd" clip-rule="evenodd" d="M980.965 335.323C1056.8 242.337 1055.8 323.41 980.965 335.323Z" fill="#80854D"/>
<path fill-rule="evenodd" clip-rule="evenodd" d="M986.269 318.746C1039.78 258.361 975.218 198.971 986.269 318.746Z" fill="#80854D"/>
<path fill-rule="evenodd" clip-rule="evenodd" d="M984.059 325.995C1001.14 254.935 917.309 237.297 984.059 325.995Z" fill="#8C9152"/>
<path fill-rule="evenodd" clip-rule="evenodd" d="M975.262 350.176C982.468 279.448 895.471 259.113 975.262 350.176Z" fill="#8C9152"/>
<path fill-rule="evenodd" clip-rule="evenodd" d="M962.598 376.5C975.108 304.025 877.325 270.407 962.598 376.5Z" fill="#8C9152"/>
<path fill-rule="evenodd" clip-rule="evenodd" d="M929.045 429.812C1049.09 419.335 1033.79 331.875 929.045 429.812Z" fill="#80854D"/>
<path fill-rule="evenodd" clip-rule="evenodd" d="M944.628 408.417C966.509 336.915 879.27 292.532 944.628 408.417Z" fill="#80854D"/>
<path d="M985.452 316.513C985.5 316.333 985.584 316.164 985.699 316.016C985.813 315.868 985.955 315.745 986.118 315.652C986.28 315.56 986.459 315.5 986.645 315.477C986.83 315.455 987.018 315.469 987.198 315.519C987.56 315.627 987.865 315.873 988.047 316.203C988.229 316.534 988.273 316.924 988.171 317.287C980.871 342.919 970.48 367.568 957.227 390.69C944.097 413.621 928.18 434.839 909.838 453.86C909.709 453.992 909.554 454.098 909.383 454.169C909.212 454.241 909.029 454.278 908.844 454.278C908.658 454.278 908.475 454.241 908.304 454.169C908.134 454.098 907.979 453.992 907.849 453.86C907.717 453.73 907.612 453.576 907.54 453.405C907.468 453.234 907.431 453.051 907.431 452.865C907.431 452.68 907.468 452.497 907.54 452.326C907.612 452.155 907.717 452 907.849 451.871C926.032 433.022 941.815 411.997 954.84 389.276C967.945 366.344 978.231 341.913 985.474 316.513H985.452Z" fill="black"/>
<path fill-rule="evenodd" clip-rule="evenodd" d="M236.345 80.92C244.788 78.1792 249.098 73.5597 253.187 60.0107C256.768 70.8853 262.316 77.693 270.118 80.2348C260.636 83.1302 256.016 92.3029 252.436 101.188C251.021 92.7449 246.424 83.3734 236.433 80.92H236.345Z" fill="white"/>
<path d="M108.635 452.888C107.739 451.801 106.542 451.003 105.195 450.594C103.848 450.184 102.409 450.181 101.06 450.584C99.711 450.987 98.5106 451.779 97.6092 452.862C96.7078 453.944 96.1454 455.267 95.9925 456.667C95.8858 457.588 95.9617 458.52 96.2158 459.412C96.4699 460.303 96.8973 461.135 97.4734 461.861L97.5839 462.016C98.7724 463.459 100.478 464.38 102.337 464.583C104.195 464.785 106.059 464.253 107.53 463.099L107.663 462.966C109.106 461.778 110.027 460.072 110.229 458.214C110.432 456.355 109.899 454.491 108.746 453.02V452.888H108.635ZM104.215 447.495C106.823 447.809 109.204 449.135 110.846 451.186C112.504 453.254 113.274 455.894 112.989 458.53C112.703 461.165 111.384 463.579 109.32 465.243C107.249 466.903 104.605 467.674 101.966 467.388C99.327 467.102 96.909 465.782 95.241 463.718C94.0055 462.177 93.2532 460.306 93.0787 458.339C92.9042 456.372 93.3153 454.397 94.2603 452.663C95.2053 450.929 96.6419 449.513 98.3896 448.593C100.137 447.674 102.118 447.291 104.082 447.495H104.215Z" fill="#8C9152"/>
<path fill-rule="evenodd" clip-rule="evenodd" d="M0 339.611C9.6147 336.472 14.4994 331.234 19.141 315.851C23.23 328.184 29.5514 336.03 38.3925 338.837C27.6064 342.109 22.368 352.541 18.2127 362.62C16.5771 353.05 11.3608 342.374 0 339.611Z" fill="#EBB763"/>
<path fill-rule="evenodd" clip-rule="evenodd" d="M1130 506.774C1129.07 505.619 1127.82 504.766 1126.4 504.323C1124.98 503.88 1123.46 503.866 1122.04 504.285C1120.62 504.703 1119.35 505.534 1118.39 506.673C1117.44 507.812 1116.85 509.208 1116.69 510.684C1116.53 512.161 1116.81 513.651 1117.49 514.968C1118.18 516.285 1119.24 517.369 1120.54 518.084C1121.84 518.798 1123.33 519.111 1124.81 518.982C1126.29 518.854 1127.7 518.29 1128.85 517.361C1130.41 516.109 1131.4 514.29 1131.62 512.305C1131.83 510.321 1131.25 508.331 1130 506.774Z" fill="#8C9152"/>
<path fill-rule="evenodd" clip-rule="evenodd" d="M362.485 716.441C353.777 679.794 398.911 670.953 442.409 700.306C432.22 639.59 520.94 670.777 547.441 703.621C559.023 638.926 666.973 744.379 650.683 787.501H324.734C244.346 758.768 302.056 676.103 362.574 716.441H362.485Z" fill="#A7A17F"/>
<path d="M804.298 271.512C836.258 122.716 476.889 231.727 409.763 376.92C418.273 443.582 484.913 426.121 502.153 486.881C510.994 526.512 590.453 558.782 640.472 555.002C770.878 535.308 879.314 336.339 804.298 271.512Z" fill="black"/>
<path d="M413.322 373.826C413.233 373.99 413.113 374.135 412.969 374.252C412.824 374.37 412.658 374.458 412.479 374.511C412.301 374.565 412.113 374.582 411.928 374.563C411.743 374.544 411.563 374.489 411.399 374.4C411.235 374.312 411.09 374.192 410.972 374.047C410.855 373.903 410.767 373.736 410.713 373.558C410.66 373.379 410.642 373.192 410.661 373.007C410.68 372.821 410.736 372.641 410.824 372.477C466.943 268.263 599.958 206.707 697.696 194.926C723.026 191.876 746.013 192.141 764.712 195.854C783.41 199.567 798.175 206.906 806.442 217.957C816.675 231.528 817.206 250.581 804.231 275.269C804.148 275.439 804.031 275.591 803.887 275.714C803.744 275.838 803.577 275.932 803.397 275.99C803.217 276.048 803.027 276.07 802.838 276.053C802.65 276.037 802.466 275.982 802.299 275.894C802.132 275.805 801.984 275.683 801.865 275.536C801.745 275.389 801.656 275.22 801.604 275.038C801.551 274.856 801.535 274.666 801.558 274.477C801.58 274.289 801.64 274.108 801.734 273.943C814.023 250.36 813.647 232.346 804.077 219.659C796.274 209.271 782.305 202.33 764.093 198.705C745.88 195.081 722.981 194.793 697.939 197.821C601.063 209.624 469.021 270.495 413.322 373.826Z" fill="black"/>
<path fill-rule="evenodd" clip-rule="evenodd" d="M671.305 613.353C675.04 617.221 697.585 629.4 715.312 632.539C760.6 640.54 826.975 637.843 827.815 613.53L831.639 503.215L880.618 488.959C851.885 367.991 644.605 371.814 616.49 483.124L665.47 497.38L671.305 613.353Z" fill="#FFFAFF"/>
<path fill-rule="evenodd" clip-rule="evenodd" d="M776.736 717.369L766.281 715.512L756.025 786.948C790.285 786.948 878.607 793.579 893.704 774.018C898.964 767.188 876.176 762.127 837.563 742.897C812.387 730.365 814.885 697.83 776.736 717.369Z" fill="black"/>
<path fill-rule="evenodd" clip-rule="evenodd" d="M783.499 787.502C763.606 787.855 760.379 785.048 743.581 787.502C389.009 768.825 434.96 554.716 666.332 628.826C667.306 623.473 668.978 618.272 671.305 613.354C712.615 624.406 773.973 623.698 827.815 613.531C830.332 620.056 832.19 626.816 833.363 633.711C1099.86 533.828 1132.13 757.376 783.499 787.502Z" fill="#EBA1B2"/>
<path d="M753.948 717.723C753.599 717.863 753.208 717.86 752.862 717.712C752.516 717.565 752.243 717.287 752.102 716.938C751.961 716.589 751.965 716.199 752.112 715.853C752.259 715.506 752.538 715.233 752.887 715.092L949.601 636.76C949.947 636.635 950.329 636.65 950.664 636.801C950.999 636.952 951.263 637.228 951.398 637.571C951.533 637.913 951.53 638.295 951.388 638.634C951.247 638.974 950.978 639.245 950.64 639.39L753.925 717.723H753.948Z" fill="black"/>
<path d="M576.595 641.711C576.243 641.579 575.958 641.313 575.803 640.971C575.647 640.629 575.634 640.24 575.766 639.888C575.898 639.536 576.164 639.251 576.506 639.096C576.848 638.94 577.238 638.927 577.589 639.059L765.109 710.628C765.284 710.694 765.444 710.794 765.579 710.922C765.715 711.05 765.824 711.204 765.9 711.375C765.976 711.545 766.018 711.729 766.022 711.916C766.027 712.102 765.995 712.288 765.927 712.462C765.863 712.636 765.765 712.795 765.639 712.931C765.513 713.066 765.361 713.176 765.193 713.252C765.024 713.328 764.842 713.37 764.657 713.374C764.471 713.379 764.287 713.347 764.115 713.28L576.595 641.711Z" fill="black"/>
<path d="M783.388 788.916C775.233 789.049 769.906 788.673 765.264 788.342C758.108 787.602 750.887 787.795 743.78 788.916H743.427C609.838 781.888 532.832 747.076 501.048 710.319C487.786 695.002 482.349 679.375 483.874 665.008C485.399 650.641 493.909 637.866 508.629 628.406C538.048 609.486 592.509 604.093 665.249 626.991C665.748 624.655 666.368 622.346 667.106 620.073C667.878 617.535 668.861 615.065 670.045 612.691C670.199 612.406 670.444 612.181 670.74 612.053C671.037 611.925 671.369 611.9 671.681 611.984C691.883 617.355 716.903 619.918 743.493 619.963C771.67 619.931 799.785 617.312 827.483 612.138C827.799 612.076 828.126 612.123 828.412 612.271C828.697 612.42 828.923 612.662 829.053 612.956C830.383 616.133 831.469 619.406 832.302 622.748C833.075 625.754 833.739 628.804 834.357 631.788C918.458 600.579 979.285 601.573 1012.11 618.526C1028.46 626.969 1037.97 639.347 1040.07 653.736C1042.17 668.125 1036.86 684.215 1023.65 700.35C992.016 738.986 914.524 777.71 783.543 788.938L783.388 788.916ZM765.463 785.512C770.083 785.844 775.387 786.22 783.344 786.087C913.463 774.837 990.27 736.665 1021.48 698.538C1034.17 683.066 1039.16 667.594 1037.28 654.111C1035.4 640.629 1026.34 629.025 1010.76 620.957C978.357 604.248 917.928 603.452 833.937 634.926L833.606 635.037C833.423 635.072 833.235 635.071 833.053 635.033C832.87 634.995 832.697 634.922 832.543 634.817C832.389 634.713 832.257 634.579 832.155 634.423C832.053 634.267 831.983 634.093 831.948 633.909C831.241 630.395 830.467 626.77 829.605 623.389C828.893 620.564 827.999 617.788 826.931 615.078C799.399 620.141 771.465 622.7 743.471 622.725C717.124 622.725 692.259 620.184 672.035 614.945C671.176 616.872 670.438 618.85 669.824 620.869C668.96 623.533 668.266 626.25 667.747 629.003C667.754 629.061 667.754 629.121 667.747 629.18C667.692 629.359 667.601 629.525 667.481 629.67C667.361 629.814 667.213 629.932 667.046 630.019C666.88 630.105 666.697 630.157 666.51 630.173C666.323 630.188 666.135 630.166 665.956 630.108C593.371 606.856 539.241 612.094 510.22 630.727C496.251 639.7 488.118 651.769 486.747 665.229C485.377 678.69 490.571 693.697 503.258 708.396C534.6 744.666 610.899 779.014 743.559 786.021C750.828 784.889 758.212 784.696 765.529 785.446L765.463 785.512Z" fill="black"/>
<path d="M665.868 630.151C665.513 630.028 665.222 629.769 665.058 629.431C664.895 629.093 664.872 628.704 664.995 628.35C665.118 627.995 665.377 627.704 665.715 627.54C666.053 627.376 666.441 627.354 666.796 627.477C670.097 628.641 673.331 629.856 676.499 631.124C679.748 632.428 682.821 633.71 685.716 634.992C686.059 635.144 686.327 635.426 686.462 635.777C686.597 636.127 686.587 636.516 686.434 636.859C686.282 637.202 686 637.471 685.649 637.605C685.299 637.74 684.91 637.73 684.567 637.578C681.583 636.274 678.555 634.992 675.438 633.754C672.322 632.516 669.227 631.367 665.868 630.151Z" fill="black"/>
<path d="M832.876 632.362C833.231 632.236 833.621 632.256 833.961 632.418C834.301 632.58 834.563 632.87 834.689 633.224C834.815 633.579 834.795 633.969 834.633 634.309C834.471 634.649 834.181 634.911 833.827 635.037C829.126 636.716 824.661 638.433 820.432 640.187C816.012 642.021 811.857 643.9 807.944 645.779C807.777 645.868 807.592 645.923 807.403 645.94C807.213 645.957 807.023 645.935 806.842 645.876C806.661 645.818 806.493 645.723 806.35 645.598C806.206 645.474 806.089 645.321 806.006 645.15C805.923 644.979 805.875 644.793 805.865 644.603C805.855 644.413 805.884 644.223 805.95 644.044C806.015 643.866 806.116 643.702 806.246 643.563C806.376 643.425 806.533 643.314 806.707 643.237C810.685 641.314 814.885 639.413 819.327 637.578C823.77 635.744 828.168 634.064 832.876 632.362Z" fill="black"/>
<path fill-rule="evenodd" clip-rule="evenodd" d="M742.984 718.253L753.417 716.419L763.695 787.855C729.435 787.855 641.113 794.486 625.994 774.903C620.734 768.095 643.544 763.011 682.135 743.804C707.31 731.25 704.813 698.736 742.984 718.253Z" fill="black"/>
<path fill-rule="evenodd" clip-rule="evenodd" d="M667.26 532.944L665.47 497.38L616.49 483.124L593.437 563.114L499.191 598.633C492.56 591.472 482.172 584.266 471.96 576.818C461.97 589.836 490.217 602.236 477.928 607.762C464.887 603.142 475.718 576.155 462.721 574.607C463.473 567.689 459.981 564.44 453.416 564.064L452.267 571.646C452.399 571.861 452.451 572.116 452.415 572.367C452.378 572.617 452.256 572.847 452.068 573.016L452.267 571.646C451.537 570.452 448.266 569.833 444.752 570.275C442.011 578.851 437.723 606.435 445.194 624.515C448.487 632.428 476.978 640.319 488.493 640.518C532.08 642.242 584.574 636.451 621.419 622.703C652.363 611.143 662.751 573.856 665.625 539.552C666.133 537.431 666.708 535.198 667.26 532.944Z" fill="#F26E3F"/>
<path d="M453.615 620.736C453.753 621.088 453.745 621.48 453.594 621.826C453.443 622.172 453.16 622.444 452.808 622.582C452.457 622.72 452.065 622.712 451.719 622.561C451.373 622.409 451.101 622.127 450.963 621.775C444.332 604.734 448.753 581.239 451.095 569.038C451.471 566.982 451.803 565.258 452.024 563.888C452.08 563.516 452.281 563.181 452.583 562.957C452.886 562.733 453.265 562.639 453.637 562.694C454.01 562.75 454.344 562.951 454.568 563.254C454.792 563.557 454.887 563.936 454.831 564.308C454.632 565.59 454.278 567.402 453.88 569.568C451.67 581.482 447.25 604.469 453.615 620.736Z" fill="black"/>
<path d="M465.064 619.741C465.159 619.919 465.215 620.115 465.229 620.316C465.243 620.518 465.214 620.719 465.145 620.909C465.076 621.098 464.967 621.271 464.827 621.416C464.686 621.56 464.517 621.674 464.329 621.749C464.142 621.824 463.941 621.858 463.74 621.851C463.538 621.843 463.34 621.792 463.159 621.703C462.979 621.614 462.819 621.487 462.69 621.332C462.561 621.177 462.466 620.996 462.412 620.802C460.027 613.945 458.823 606.733 458.854 599.473C458.623 591.017 459.463 582.565 461.351 574.32C461.479 573.993 461.722 573.724 462.034 573.564C462.346 573.404 462.706 573.364 463.046 573.451C463.385 573.538 463.681 573.746 463.878 574.037C464.075 574.327 464.159 574.679 464.114 575.027C462.277 582.996 461.46 591.165 461.683 599.34C461.647 606.254 462.79 613.123 465.064 619.652V619.741Z" fill="black"/>
<path d="M481.84 607.165C482.025 607.189 482.202 607.25 482.363 607.344C482.524 607.437 482.665 607.561 482.778 607.709C482.891 607.856 482.973 608.025 483.021 608.205C483.069 608.385 483.081 608.572 483.056 608.756C483.031 608.941 482.971 609.118 482.877 609.279C482.784 609.44 482.66 609.581 482.512 609.694C482.364 609.807 482.196 609.889 482.016 609.937C481.836 609.985 481.649 609.997 481.465 609.972C478.446 609.703 475.635 608.325 473.574 606.104C471.908 604.066 470.654 601.724 469.883 599.208C469.82 599.032 469.793 598.846 469.803 598.66C469.812 598.474 469.858 598.291 469.938 598.123C470.018 597.955 470.131 597.804 470.269 597.679C470.408 597.554 470.569 597.458 470.745 597.395C470.92 597.333 471.106 597.306 471.293 597.315C471.479 597.325 471.661 597.371 471.829 597.451C471.998 597.531 472.149 597.643 472.273 597.782C472.398 597.92 472.495 598.082 472.557 598.257C473.209 600.424 474.275 602.443 475.696 604.203C477.308 605.915 479.497 606.97 481.84 607.165Z" fill="black"/>
<path fill-rule="evenodd" clip-rule="evenodd" d="M1052.38 576.221C1048.84 575.779 1045.57 576.42 1044.84 577.591L1045.06 578.962C1044.88 578.791 1044.76 578.563 1044.72 578.314C1044.68 578.066 1044.72 577.812 1044.84 577.591L1043.69 570.01C1037.06 570.386 1033.66 573.635 1034.39 580.553C1021.48 582.034 1032.18 609.021 1019.2 613.707C1006.89 608.093 1035.14 595.693 1025.17 582.763C1014.96 590.212 1004.5 597.44 997.94 604.579L903.671 569.082L880.618 489.092L831.638 503.348L829.848 538.911C830.401 541.122 830.997 543.332 831.616 545.542C834.357 579.846 844.723 617.133 875.689 628.693C912.557 642.441 965.051 648.232 1008.62 646.508C1020.15 646.309 1048.64 638.418 1051.91 630.505C1059.41 612.381 1055.1 584.797 1052.38 576.221Z" fill="#F26E3F"/>
<path d="M1046.15 627.676C1046.01 628.025 1045.74 628.305 1045.39 628.454C1045.05 628.603 1044.66 628.61 1044.31 628.472C1044.14 628.406 1043.98 628.306 1043.84 628.177C1043.71 628.049 1043.6 627.894 1043.53 627.723C1043.45 627.552 1043.41 627.368 1043.41 627.181C1043.41 626.995 1043.44 626.81 1043.52 626.638C1049.86 610.37 1045.5 587.383 1043.25 575.47C1042.83 573.259 1042.5 571.491 1042.3 570.209C1042.24 569.837 1042.34 569.458 1042.56 569.155C1042.79 568.853 1043.12 568.651 1043.49 568.596C1043.87 568.54 1044.24 568.634 1044.55 568.858C1044.85 569.082 1045.05 569.417 1045.11 569.789C1045.31 571.16 1045.64 572.884 1046.04 574.939C1048.25 587.14 1052.8 610.635 1046.04 627.676H1046.15Z" fill="black"/>
<path d="M1034.7 626.637C1034.56 626.986 1034.29 627.266 1033.94 627.415C1033.6 627.564 1033.21 627.57 1032.86 627.433C1032.51 627.29 1032.23 627.016 1032.08 626.668C1031.93 626.32 1031.93 625.928 1032.07 625.576C1034.34 619.048 1035.48 612.177 1035.43 605.264C1035.65 597.09 1034.84 588.921 1033.02 580.951C1032.97 580.603 1033.06 580.251 1033.25 579.96C1033.45 579.67 1033.75 579.462 1034.09 579.375C1034.43 579.288 1034.79 579.328 1035.1 579.488C1035.41 579.648 1035.65 579.917 1035.78 580.243C1037.66 588.445 1038.49 596.853 1038.26 605.264C1038.31 612.526 1037.1 619.742 1034.7 626.593V626.637Z" fill="black"/>
<path d="M1015.58 615.807C1015.39 615.832 1015.21 615.82 1015.03 615.772C1014.85 615.724 1014.68 615.641 1014.54 615.528C1014.39 615.415 1014.27 615.274 1014.18 615.113C1014.09 614.952 1014.03 614.775 1014.01 614.591C1013.98 614.407 1014 614.22 1014.04 614.04C1014.09 613.86 1014.17 613.691 1014.29 613.543C1014.4 613.396 1014.54 613.272 1014.7 613.178C1014.86 613.085 1015.04 613.024 1015.22 613C1017.57 612.805 1019.76 611.75 1021.37 610.038C1022.78 608.277 1023.84 606.257 1024.49 604.093C1024.62 603.741 1024.88 603.454 1025.22 603.293C1025.55 603.132 1025.94 603.109 1026.3 603.231C1026.48 603.29 1026.64 603.384 1026.78 603.509C1026.92 603.633 1027.03 603.784 1027.11 603.953C1027.19 604.123 1027.24 604.306 1027.25 604.494C1027.26 604.681 1027.23 604.868 1027.16 605.043C1026.41 607.567 1025.15 609.912 1023.47 611.939C1021.41 614.164 1018.6 615.543 1015.58 615.807Z" fill="black"/>
<path d="M669.294 545.188C669.303 545.374 669.275 545.56 669.212 545.735C669.149 545.91 669.052 546.071 668.927 546.208C668.802 546.346 668.651 546.457 668.482 546.537C668.314 546.616 668.131 546.661 667.946 546.669C667.76 546.678 667.574 546.65 667.399 546.587C667.224 546.524 667.063 546.427 666.925 546.302C666.788 546.177 666.676 546.026 666.597 545.857C666.518 545.689 666.473 545.507 666.465 545.321L662.663 469.42C662.651 469.234 662.677 469.047 662.739 468.87C662.8 468.694 662.897 468.532 663.023 468.394C663.149 468.255 663.301 468.144 663.471 468.066C663.641 467.988 663.825 467.945 664.011 467.939C664.197 467.93 664.383 467.958 664.558 468.021C664.733 468.084 664.894 468.181 665.031 468.306C665.169 468.431 665.28 468.582 665.36 468.751C665.439 468.919 665.484 469.102 665.492 469.287L669.294 545.188Z" fill="black"/>
<path d="M831.064 558.406C831.061 558.592 831.021 558.776 830.948 558.946C830.874 559.117 830.767 559.271 830.634 559.4C830.5 559.53 830.343 559.631 830.17 559.7C829.997 559.768 829.813 559.802 829.627 559.799C829.25 559.787 828.892 559.628 828.632 559.355C828.371 559.082 828.229 558.717 828.235 558.34L830.445 466.901C830.445 466.714 830.482 466.53 830.555 466.358C830.628 466.186 830.734 466.03 830.868 465.9C831.002 465.771 831.161 465.669 831.335 465.602C831.509 465.534 831.695 465.503 831.881 465.509C832.255 465.52 832.609 465.676 832.869 465.945C833.129 466.213 833.274 466.572 833.274 466.945L831.064 558.406Z" fill="black"/>
<path d="M605.616 556.969C605.958 556.886 606.318 556.932 606.629 557.097C606.939 557.262 607.179 557.535 607.301 557.865C607.424 558.194 607.421 558.558 607.294 558.885C607.167 559.213 606.924 559.483 606.611 559.644L550.359 580.951C550.185 581.018 549.999 581.051 549.813 581.046C549.626 581.041 549.442 581 549.271 580.924C549.101 580.848 548.947 580.739 548.819 580.603C548.691 580.467 548.591 580.308 548.525 580.133C548.457 579.959 548.425 579.773 548.429 579.586C548.434 579.4 548.475 579.216 548.551 579.045C548.627 578.875 548.736 578.721 548.872 578.593C549.008 578.465 549.168 578.365 549.342 578.298L605.616 556.969Z" fill="black"/>
<path d="M890.432 565.479C890.079 565.345 889.793 565.077 889.636 564.734C889.479 564.39 889.463 563.999 889.592 563.644C889.731 563.295 889.999 563.012 890.341 562.856C890.682 562.7 891.071 562.681 891.427 562.804L947.855 584.067C948.204 584.206 948.487 584.474 948.643 584.816C948.8 585.158 948.818 585.547 948.695 585.902C948.629 586.076 948.529 586.236 948.4 586.372C948.272 586.508 948.118 586.617 947.948 586.693C947.777 586.769 947.593 586.81 947.407 586.815C947.22 586.82 947.034 586.787 946.86 586.72L890.432 565.479Z" fill="black"/>
<path fill-rule="evenodd" clip-rule="evenodd" d="M730.452 338.063C735.823 330.681 760.048 322.591 764.026 326.194C763.916 351.59 772.249 388.325 776.338 401.344C760.866 410.627 729.281 408.748 715.842 402.603C722.318 390.292 731.137 347.501 730.452 338.063Z" fill="#F26E3F"/>
<path d="M778.15 398.139C778.28 398.006 778.435 397.901 778.605 397.829C778.776 397.758 778.96 397.721 779.145 397.721C779.33 397.721 779.514 397.758 779.684 397.829C779.855 397.901 780.01 398.006 780.14 398.139C780.403 398.407 780.55 398.768 780.55 399.144C780.55 399.52 780.403 399.881 780.14 400.15C774.26 405.853 762.457 408.394 750.102 408.792C735.116 409.256 719.158 406.582 712.35 402.427C712.188 402.333 712.046 402.208 711.934 402.059C711.821 401.909 711.739 401.739 711.694 401.557C711.649 401.376 711.64 401.187 711.669 401.002C711.699 400.817 711.765 400.64 711.864 400.482C711.955 400.32 712.078 400.179 712.226 400.066C712.373 399.954 712.542 399.872 712.721 399.827C712.901 399.781 713.088 399.773 713.271 399.802C713.455 399.831 713.63 399.897 713.787 399.995C720.263 403.863 735.514 406.405 750.013 405.941C761.728 405.587 772.846 403.266 778.172 398.117L778.15 398.139Z" fill="black"/>
<path fill-rule="evenodd" clip-rule="evenodd" d="M710.803 299.119C704.702 296.025 699.508 298.633 699.177 304.932C699.264 308.431 700.272 311.844 702.1 314.829C703.927 317.813 706.51 320.262 709.587 321.929C715.688 325.024 720.904 322.438 721.235 316.138C721.15 312.634 720.14 309.214 718.308 306.225C716.476 303.237 713.887 300.785 710.803 299.119Z" fill="#F26E3F"/>
<path d="M704.437 305.816C704.249 305.779 704.07 305.705 703.911 305.597C703.752 305.489 703.617 305.349 703.513 305.187C703.41 305.025 703.341 304.844 703.31 304.654C703.28 304.465 703.288 304.271 703.334 304.084C703.381 303.898 703.465 303.723 703.581 303.57C703.698 303.417 703.844 303.29 704.011 303.195C704.179 303.101 704.364 303.041 704.555 303.021C704.746 303 704.939 303.019 705.123 303.075C707.166 303.561 708.955 304.79 710.14 306.523C711.34 308.418 711.955 310.624 711.908 312.867C711.914 313.053 711.883 313.239 711.815 313.413C711.748 313.587 711.646 313.746 711.516 313.88C711.386 314.014 711.231 314.121 711.059 314.193C710.887 314.266 710.702 314.304 710.516 314.303C710.272 314.311 710.032 314.253 709.818 314.137C709.604 314.02 709.426 313.849 709.3 313.64C708.75 312.855 708.096 312.149 707.355 311.541C706.737 311.031 706.033 310.634 705.277 310.369C704.92 310.249 704.625 309.992 704.457 309.654C704.289 309.316 704.262 308.925 704.382 308.568C704.502 308.21 704.76 307.915 705.098 307.747C705.435 307.579 705.826 307.552 706.184 307.673C706.844 307.898 707.475 308.202 708.062 308.579L707.797 308.115C706.98 306.997 705.787 306.213 704.437 305.904V305.816Z" fill="black"/>
<path fill-rule="evenodd" clip-rule="evenodd" d="M781.687 298.986C769.574 298.566 771.21 282.364 762.325 276.883C752.887 291.161 726.187 299.825 709.278 298.477C707.886 329.421 719.246 352.607 743.803 352.43C763.562 352.253 773.929 339.986 778.106 322.901C792.053 327.321 804.254 289.747 781.775 299.03L781.687 298.986Z" fill="#ED7C53"/>
<path fill-rule="evenodd" clip-rule="evenodd" d="M767.209 282.254C766.059 280.069 764.38 278.207 762.324 276.839C752.887 291.117 726.186 299.782 709.278 298.433C734.143 305.351 761.507 290.896 767.298 282.254H767.209Z" fill="#F26E3F"/>
<path fill-rule="evenodd" clip-rule="evenodd" d="M723.755 317.088C723.12 316.943 722.462 316.928 721.82 317.045C721.179 317.162 720.569 317.408 720.026 317.769C719.483 318.13 719.02 318.597 718.664 319.143C718.308 319.689 718.067 320.302 717.956 320.944C717.844 321.586 717.865 322.244 718.017 322.878C718.168 323.512 718.447 324.108 718.837 324.631C719.227 325.153 719.719 325.591 720.283 325.917C720.847 326.242 721.472 326.45 722.119 326.526C723.338 326.67 724.565 326.341 725.549 325.608C726.533 324.874 727.198 323.791 727.407 322.582C727.617 321.373 727.355 320.13 726.676 319.108C725.996 318.086 724.951 317.363 723.755 317.088Z" fill="#DE5138"/>
<path fill-rule="evenodd" clip-rule="evenodd" d="M765.551 316.734C764.617 316.569 763.654 316.685 762.786 317.067C761.917 317.449 761.181 318.08 760.671 318.881C760.161 319.681 759.901 320.615 759.922 321.564C759.943 322.513 760.245 323.434 760.79 324.211C761.335 324.988 762.098 325.586 762.982 325.929C763.867 326.272 764.834 326.345 765.76 326.139C766.687 325.932 767.531 325.456 768.186 324.769C768.841 324.083 769.278 323.217 769.442 322.282C769.553 321.662 769.54 321.026 769.405 320.411C769.269 319.796 769.013 319.214 768.651 318.698C768.29 318.183 767.83 317.744 767.298 317.407C766.766 317.07 766.172 316.841 765.551 316.734Z" fill="#DE5138"/>
<path d="M742.188 319.21C742.564 319.21 742.923 319.359 743.189 319.624C743.454 319.89 743.603 320.249 743.603 320.624C743.603 321 743.454 321.359 743.189 321.625C742.923 321.89 742.564 322.039 742.188 322.039C741.97 322.008 741.748 322.046 741.553 322.15C741.358 322.253 741.202 322.415 741.105 322.614C741.027 322.911 741.027 323.223 741.105 323.52C741.164 323.873 741.309 324.207 741.525 324.492C741.651 324.697 741.84 324.855 742.063 324.943C742.286 325.03 742.532 325.043 742.763 324.979C743.124 324.87 743.513 324.91 743.844 325.088C744.176 325.266 744.423 325.569 744.531 325.929C744.64 326.29 744.601 326.678 744.422 327.01C744.244 327.342 743.941 327.589 743.581 327.697C742.78 327.972 741.909 327.971 741.108 327.695C740.308 327.419 739.622 326.883 739.16 326.172C738.69 325.514 738.372 324.759 738.232 323.962C738.082 323.17 738.15 322.352 738.431 321.597C738.698 320.846 739.203 320.202 739.869 319.763C740.535 319.324 741.326 319.115 742.122 319.166L742.188 319.21Z" fill="black"/>
<path d="M737.304 298.036C737.674 298.106 738 298.32 738.211 298.631C738.423 298.942 738.502 299.324 738.432 299.694C738.361 300.063 738.147 300.389 737.836 300.601C737.525 300.812 737.143 300.891 736.774 300.821C733.728 300.461 730.646 300.543 727.623 301.064C724.71 301.321 721.854 302.029 719.158 303.164C719.003 303.276 718.827 303.355 718.64 303.397C718.454 303.439 718.26 303.443 718.072 303.408C717.884 303.373 717.705 303.301 717.546 303.195C717.387 303.089 717.251 302.952 717.146 302.791C717.041 302.631 716.97 302.452 716.937 302.263C716.903 302.075 716.909 301.882 716.952 301.696C716.995 301.509 717.076 301.334 717.189 301.18C717.303 301.026 717.446 300.896 717.611 300.799C720.651 299.421 723.901 298.562 727.225 298.257C730.557 297.696 733.952 297.622 737.304 298.036Z" fill="black"/>
<path d="M768.778 300.246C768.949 300.322 769.102 300.431 769.229 300.568C769.356 300.704 769.455 300.865 769.519 301.04C769.583 301.215 769.611 301.402 769.601 301.588C769.592 301.774 769.545 301.957 769.463 302.125C769.301 302.466 769.01 302.729 768.654 302.858C768.298 302.986 767.906 302.969 767.563 302.81C764.901 301.603 762.053 300.855 759.141 300.599C756.294 300.38 753.435 300.38 750.588 300.599C750.401 300.614 750.214 300.592 750.036 300.533C749.859 300.474 749.695 300.379 749.555 300.256C749.414 300.132 749.3 299.981 749.22 299.812C749.139 299.643 749.093 299.46 749.085 299.273C749.066 298.899 749.195 298.533 749.442 298.252C749.69 297.972 750.038 297.799 750.411 297.77C753.404 297.518 756.413 297.518 759.407 297.77C762.649 298.027 765.821 298.85 768.778 300.202V300.246Z" fill="black"/>
<path d="M748.974 330.88C749.185 330.57 749.511 330.355 749.88 330.285C750.249 330.214 750.631 330.293 750.941 330.504C751.252 330.716 751.466 331.041 751.537 331.41C751.607 331.779 751.528 332.161 751.317 332.472C750.899 333.074 750.425 333.637 749.903 334.151C748.413 335.621 746.477 336.554 744.399 336.804C742.152 337.019 739.904 336.406 738.078 335.08C737.372 334.598 736.72 334.043 736.133 333.422C736.003 333.287 735.902 333.128 735.834 332.954C735.767 332.78 735.734 332.594 735.738 332.407C735.746 332.03 735.904 331.672 736.177 331.411C736.449 331.15 736.814 331.008 737.192 331.016C737.569 331.025 737.927 331.182 738.188 331.455C738.639 331.945 739.143 332.382 739.691 332.759C740.964 333.697 742.537 334.138 744.112 333.997C745.566 333.813 746.919 333.152 747.958 332.118C748.339 331.736 748.687 331.322 748.996 330.88H748.974Z" fill="black"/>
<path d="M768.712 310.524C768.926 310.217 769.254 310.007 769.622 309.94C769.991 309.874 770.371 309.957 770.679 310.17C770.988 310.389 771.198 310.72 771.265 311.092C771.331 311.465 771.248 311.848 771.033 312.16C769.508 314.37 765.595 315.652 761.241 315.74C757.3 315.901 753.395 314.927 749.991 312.933C749.705 312.721 749.509 312.408 749.444 312.058C749.378 311.707 749.447 311.345 749.637 311.044C749.827 310.742 750.124 310.523 750.468 310.431C750.812 310.339 751.179 310.38 751.494 310.546C754.435 312.227 757.79 313.046 761.175 312.911C764.689 312.911 767.695 311.939 768.712 310.524Z" fill="black"/>
<path d="M772.006 312.446C772.372 312.526 772.692 312.747 772.895 313.062C773.098 313.377 773.167 313.76 773.089 314.126C773.052 314.309 772.979 314.482 772.874 314.637C772.769 314.791 772.635 314.922 772.478 315.023C772.321 315.124 772.146 315.193 771.962 315.224C771.779 315.256 771.591 315.251 771.409 315.209C770.816 315.091 770.232 314.929 769.663 314.723C769.082 314.504 768.514 314.254 767.961 313.971C767.627 313.798 767.375 313.5 767.261 313.141C767.147 312.783 767.18 312.394 767.353 312.06C767.526 311.725 767.825 311.474 768.183 311.36C768.542 311.246 768.931 311.279 769.265 311.452C769.703 311.691 770.162 311.891 770.635 312.048C771.084 312.207 771.542 312.34 772.006 312.446Z" fill="black"/>
<path d="M769.464 314.502C769.795 314.683 770.04 314.989 770.146 315.352C770.252 315.715 770.209 316.104 770.027 316.436C769.846 316.767 769.54 317.012 769.177 317.118C768.814 317.224 768.425 317.181 768.093 316.999C767.564 316.702 767.054 316.369 766.568 316.005C766.072 315.638 765.599 315.239 765.154 314.811C764.884 314.547 764.73 314.187 764.726 313.81C764.722 313.433 764.868 313.069 765.132 312.8C765.395 312.53 765.756 312.376 766.133 312.372C766.51 312.368 766.873 312.514 767.143 312.778C767.493 313.124 767.87 313.442 768.27 313.728C768.646 314.019 769.045 314.278 769.464 314.502Z" fill="black"/>
<path d="M716.129 312.204C715.917 311.9 715.83 311.525 715.888 311.158C715.946 310.791 716.143 310.461 716.439 310.237C716.589 310.125 716.761 310.045 716.942 310C717.124 309.955 717.313 309.947 717.498 309.976C717.683 310.005 717.861 310.07 718.02 310.168C718.18 310.266 718.319 310.394 718.428 310.546C719.511 312.027 722.606 313.066 726.208 313.243C729.56 313.46 732.902 312.691 735.823 311.032C735.981 310.929 736.159 310.858 736.345 310.824C736.531 310.79 736.722 310.794 736.907 310.835C737.092 310.876 737.266 310.954 737.42 311.064C737.574 311.174 737.705 311.313 737.804 311.475C737.903 311.636 737.969 311.815 737.997 312.002C738.026 312.19 738.016 312.38 737.97 312.564C737.923 312.747 737.84 312.919 737.726 313.07C737.611 313.221 737.468 313.347 737.304 313.442C733.893 315.379 729.989 316.27 726.076 316.006C721.655 315.807 717.699 314.304 716.129 312.138V312.204Z" fill="black"/>
<path d="M716.13 315.077C715.764 315.155 715.381 315.086 715.066 314.883C714.751 314.679 714.529 314.36 714.45 313.994C714.377 313.625 714.448 313.242 714.65 312.925C714.852 312.608 715.168 312.381 715.533 312.292C715.999 312.203 716.457 312.078 716.903 311.916C717.368 311.739 717.832 311.54 718.274 311.319C718.605 311.148 718.991 311.114 719.347 311.226C719.703 311.338 720.001 311.586 720.175 311.916C720.347 312.251 720.381 312.64 720.269 312.999C720.158 313.359 719.91 313.66 719.578 313.839C719.029 314.123 718.46 314.367 717.876 314.568C717.308 314.781 716.724 314.951 716.13 315.077Z" fill="black"/>
<path d="M719.334 316.868C719.17 316.958 718.99 317.014 718.804 317.035C718.618 317.055 718.43 317.039 718.25 316.986C718.071 316.934 717.903 316.847 717.757 316.73C717.612 316.613 717.49 316.468 717.4 316.304C717.31 316.14 717.253 315.96 717.233 315.774C717.213 315.588 717.229 315.4 717.281 315.22C717.334 315.041 717.421 314.873 717.538 314.727C717.655 314.581 717.8 314.46 717.964 314.37C718.386 314.149 718.793 313.898 719.179 313.619C719.555 313.309 719.931 313 720.285 312.646C720.553 312.383 720.914 312.235 721.29 312.235C721.666 312.235 722.027 312.383 722.296 312.646C722.428 312.776 722.533 312.93 722.605 313.101C722.677 313.272 722.714 313.455 722.714 313.641C722.714 313.826 722.677 314.009 722.605 314.18C722.533 314.351 722.428 314.506 722.296 314.635C721.851 315.07 721.378 315.476 720.881 315.851C720.395 316.208 719.886 316.533 719.356 316.823L719.334 316.868Z" fill="black"/>
<path d="M786.858 303.075C787.042 303.018 787.235 303 787.426 303.02C787.617 303.041 787.802 303.1 787.97 303.195C788.137 303.289 788.283 303.417 788.4 303.569C788.516 303.722 788.6 303.897 788.647 304.084C788.693 304.27 788.702 304.464 788.671 304.654C788.64 304.843 788.571 305.025 788.468 305.187C788.364 305.349 788.229 305.488 788.07 305.596C787.911 305.704 787.732 305.779 787.544 305.815C786.196 306.129 785.005 306.913 784.184 308.026L783.919 308.49C784.508 308.117 785.139 307.813 785.797 307.584C785.974 307.525 786.161 307.502 786.347 307.516C786.533 307.53 786.715 307.58 786.881 307.664C787.048 307.749 787.196 307.865 787.317 308.007C787.438 308.148 787.53 308.313 787.588 308.49C787.65 308.665 787.676 308.852 787.665 309.037C787.654 309.223 787.606 309.405 787.524 309.572C787.441 309.739 787.326 309.887 787.186 310.009C787.045 310.131 786.881 310.223 786.704 310.28C785.948 310.545 785.244 310.942 784.626 311.452C783.891 312.066 783.237 312.772 782.681 313.551C782.555 313.76 782.377 313.931 782.163 314.048C781.949 314.164 781.709 314.222 781.465 314.215C781.279 314.215 781.094 314.177 780.922 314.104C780.75 314.032 780.595 313.925 780.465 313.791C780.335 313.657 780.233 313.498 780.166 313.324C780.099 313.15 780.067 312.964 780.073 312.778C780.036 310.537 780.65 308.333 781.841 306.434C783.027 304.701 784.815 303.472 786.858 302.986V303.075Z" fill="black"/>
<path d="M776.625 322.68C776.644 322.494 776.7 322.315 776.79 322.151C776.88 321.988 777.001 321.844 777.148 321.729C777.294 321.613 777.462 321.529 777.642 321.479C777.822 321.43 778.009 321.417 778.194 321.442C778.568 321.492 778.907 321.686 779.139 321.984C779.371 322.282 779.476 322.659 779.432 323.033C778.483 330.558 775.062 337.555 769.707 342.926C762.457 350.242 753.196 353.425 749.284 353.491C748.909 353.491 748.549 353.342 748.283 353.077C748.018 352.811 747.869 352.452 747.869 352.076C747.869 351.701 748.018 351.341 748.283 351.076C748.549 350.811 748.909 350.662 749.284 350.662C752.754 350.662 761.065 347.678 767.74 340.937C772.601 336.015 775.707 329.63 776.581 322.768L776.625 322.68Z" fill="black"/>
<path fill-rule="evenodd" clip-rule="evenodd" d="M1120.48 734.433C1126.95 707.069 1093.25 700.461 1060.8 722.387C1068.4 677.032 1002.16 700.284 982.357 724.862C973.715 676.546 893.084 755.298 905.263 787.501H1148.72C1208.76 766.106 1165.66 704.307 1120.48 734.455V734.433Z" fill="#8C9152"/>
<path d="M54.4847 789C54.3244 789 54.1657 788.961 54.0176 788.886C53.8695 788.81 53.735 788.7 53.6216 788.561C53.5083 788.421 53.4184 788.256 53.3571 788.074C53.2957 787.892 53.2642 787.697 53.2642 787.5C53.2642 787.102 53.3928 786.721 53.6216 786.439C53.8505 786.158 54.161 786 54.4847 786H1184.04C1184.37 786 1184.68 786.158 1184.91 786.439C1185.14 786.721 1185.26 787.102 1185.26 787.5C1185.26 787.697 1185.23 787.892 1185.17 788.074C1185.11 788.256 1185.02 788.421 1184.91 788.561C1184.79 788.7 1184.66 788.81 1184.51 788.886C1184.36 788.961 1184.2 789 1184.04 789H54.4847Z" fill="black"/>
</svg>
