<svg width="518" height="345" viewBox="0 0 518 345" fill="none" xmlns="http://www.w3.org/2000/svg">
<path fill-rule="evenodd" clip-rule="evenodd" d="M329.085 25.7148C355.953 25.7148 382.217 33.6822 404.556 48.6093C426.896 63.5364 444.307 84.7528 454.589 109.576C464.87 134.398 467.56 161.712 462.318 188.064C457.075 214.415 444.136 238.62 425.137 257.618C406.138 276.616 381.932 289.553 355.581 294.793C329.229 300.034 301.915 297.342 277.093 287.059C252.271 276.776 231.056 259.363 216.13 237.022C201.205 214.681 193.239 188.417 193.241 161.549C193.241 143.71 196.755 126.046 203.582 109.565C210.409 93.0844 220.415 78.1098 233.029 65.4963C245.644 52.8828 260.619 42.8775 277.1 36.0518C293.582 29.2261 311.246 25.7136 329.085 25.7148Z" fill="#E85463"/>
<path fill-rule="evenodd" clip-rule="evenodd" d="M203.084 58.6924C207.611 58.6909 212.066 59.8257 216.04 61.9926C220.015 64.1596 223.382 67.2895 225.833 71.0954C227.233 70.6871 228.683 70.479 230.141 70.4772C232.675 70.479 235.169 71.1109 237.398 72.3161C239.627 73.5212 241.521 75.2617 242.91 77.3809C244.3 79.5002 245.14 81.9316 245.356 84.4564C245.572 86.9811 245.157 89.5199 244.148 91.8443H158.012C157.365 89.8778 157.038 87.8195 157.047 85.749C157.05 82.6775 157.797 79.6525 159.223 76.9324C160.65 74.2122 162.714 71.8778 165.238 70.1285C167.763 68.3792 170.674 67.2671 173.722 66.8871C176.77 66.5071 179.864 66.8705 182.741 67.9463C185.28 65.0397 188.412 62.71 191.925 61.1139C195.439 59.5178 199.254 58.6921 203.113 58.6924H203.084Z" fill="white"/>
<path d="M203.085 58.074C207.637 58.0679 212.12 59.1863 216.135 61.3299C220.151 63.4734 223.575 66.5757 226.103 70.3611C226.685 70.2077 227.275 70.0883 227.871 70.0037C228.623 69.8958 229.382 69.841 230.141 69.8395C234.355 69.842 238.395 71.517 241.374 74.4964C244.354 77.4758 246.029 81.5161 246.031 85.7296C246.03 86.8197 245.92 87.907 245.703 88.9753C245.482 90.0345 245.158 91.0697 244.737 92.0663L244.573 92.4431H157.636L157.491 92.018C157.149 91.0107 156.89 89.9768 156.718 88.927C156.254 86.1167 156.407 83.2392 157.167 80.4941C157.927 77.749 159.275 75.2022 161.118 73.0304C162.961 70.8585 165.254 69.1138 167.839 67.9172C170.423 66.7207 173.238 66.101 176.086 66.1012C178.3 66.093 180.499 66.4655 182.587 67.2024C185.14 64.3729 188.247 62.0978 191.715 60.5179C195.304 58.8886 199.201 58.0486 203.142 58.0547L203.085 58.074ZM215.719 62.5271C210.446 59.6486 204.349 58.6541 198.434 59.7078C192.519 60.7615 187.141 63.8004 183.186 68.3229L182.896 68.6514L182.5 68.4968C181.469 68.1104 180.405 67.8163 179.322 67.6178C178.234 67.4265 177.132 67.3295 176.028 67.328C171.16 67.328 166.492 69.2616 163.05 72.7035C159.608 76.1455 157.675 80.8137 157.675 85.6813C157.671 86.6845 157.752 87.6862 157.916 88.6758C158.049 89.5131 158.242 90.3396 158.496 91.1487H243.761C244.086 90.3487 244.338 89.5211 244.515 88.6758C244.958 86.544 244.921 84.3402 244.406 82.2245C243.891 80.1089 242.911 78.1346 241.537 76.4453C240.163 74.756 238.43 73.3941 236.464 72.4586C234.498 71.5231 232.348 71.0376 230.17 71.0373C229.469 71.0365 228.768 71.0849 228.074 71.1822C227.385 71.2799 226.703 71.4285 226.036 71.6265L225.592 71.7521L225.34 71.3657C222.94 67.6399 219.642 64.5773 215.748 62.4595L215.719 62.5271Z" fill="black"/>
<path fill-rule="evenodd" clip-rule="evenodd" d="M409.772 31.0664C412.807 31.0679 415.793 31.8298 418.457 33.2827C421.122 34.7356 423.379 36.833 425.024 39.3834C425.967 39.114 426.942 38.9775 427.922 38.9777C429.268 38.9777 430.601 39.2428 431.844 39.7578C433.088 40.2729 434.218 41.0278 435.169 41.9795C436.121 42.9312 436.876 44.061 437.391 45.3045C437.906 46.5479 438.171 47.8807 438.171 49.2266C438.174 50.6328 437.885 52.0242 437.321 53.3126H379.518C378.871 51.3924 378.69 49.3459 378.991 47.3422C379.291 45.3385 380.064 43.435 381.246 41.789C382.428 40.1431 383.984 38.8019 385.786 37.8764C387.589 36.9508 389.585 36.4675 391.612 36.4662C393.143 36.4612 394.662 36.7361 396.094 37.2776C397.796 35.324 399.899 33.7586 402.258 32.687C404.618 31.6155 407.18 31.0629 409.772 31.0664Z" fill="white"/>
<path d="M409.772 30.4385C412.837 30.4399 415.856 31.1905 418.565 32.6249C421.273 34.0593 423.591 36.134 425.315 38.6685C425.668 38.5806 426.026 38.5128 426.387 38.4657C426.898 38.3883 427.415 38.3496 427.932 38.3498C430.816 38.3523 433.581 39.4991 435.621 41.5383C437.66 43.5776 438.807 46.3426 438.809 49.2265C438.805 50.719 438.496 52.1949 437.901 53.5637L437.737 53.9308H379.074L378.929 53.5154C378.701 52.8248 378.526 52.1175 378.407 51.4C378.291 50.6813 378.233 49.9545 378.233 49.2265C378.231 47.4685 378.575 45.7271 379.246 44.1023C379.918 42.4774 380.903 41.0009 382.146 39.7573C383.388 38.5137 384.864 37.5275 386.489 36.855C388.113 36.1825 389.854 35.837 391.612 35.8383C392.416 35.839 393.218 35.9134 394.008 36.0604C394.664 36.1735 395.31 36.3382 395.94 36.5531C397.693 34.6226 399.832 33.081 402.218 32.0279C404.603 30.9747 407.183 30.4333 409.791 30.4385H409.772ZM418.157 33.8097C414.656 31.8976 410.608 31.2382 406.682 31.9409C402.756 32.6436 399.187 34.6661 396.567 37.6736L396.278 37.9924L395.882 37.8475C395.204 37.5857 394.502 37.3916 393.785 37.2679C392.035 36.9495 390.237 37.0195 388.517 37.473C386.796 37.9265 385.197 38.7524 383.831 39.8923C382.466 41.0322 381.367 42.4582 380.614 44.0695C379.86 45.6808 379.469 47.438 379.47 49.2169C379.472 49.8642 379.527 50.5104 379.634 51.1488C379.711 51.6552 379.824 52.1556 379.972 52.646H436.964C437.15 52.1564 437.295 51.6524 437.399 51.1391C437.534 50.504 437.602 49.8565 437.602 49.2072C437.602 46.6453 436.584 44.1883 434.772 42.3768C432.961 40.5653 430.504 39.5476 427.942 39.5476C427.483 39.545 427.024 39.5773 426.57 39.6442C426.117 39.7099 425.668 39.8068 425.228 39.9339L424.783 40.0692L424.532 39.6731C422.936 37.2027 420.748 35.1705 418.166 33.7614L418.157 33.8097Z" fill="black"/>
<path d="M452.071 92.0504L452.072 92.0504C458.059 92.0477 463.952 93.5482 469.209 96.4143C474.466 99.2804 478.92 103.421 482.161 108.455L482.338 108.73L482.652 108.638C486.304 107.566 490.186 107.558 493.842 108.614C497.499 109.669 500.779 111.746 503.298 114.599C505.817 117.452 507.471 120.964 508.065 124.724C508.644 128.389 508.193 132.141 506.765 135.562H391.995C390.574 131.16 390.398 126.448 391.492 121.949C392.611 117.348 395.01 113.158 398.413 109.866C401.816 106.573 406.082 104.313 410.717 103.347C415.352 102.381 420.166 102.748 424.601 104.406L424.884 104.512L425.083 104.284C428.444 100.433 432.593 97.3475 437.249 95.237C441.904 93.1264 446.959 92.0397 452.071 92.0504Z" fill="white" stroke="black" stroke-width="0.874067"/>
<path fill-rule="evenodd" clip-rule="evenodd" d="M170.261 247.027C167.575 200.245 139.437 220.424 170.261 247.027Z" fill="#80854D"/>
<path fill-rule="evenodd" clip-rule="evenodd" d="M174.434 285.231C132.695 223.023 128.068 292.64 174.434 285.231Z" fill="#80854D"/>
<path d="M177.39 286.033C177.54 286.1 177.656 286.225 177.714 286.379C177.772 286.533 177.767 286.704 177.699 286.854C177.631 287.004 177.506 287.12 177.352 287.178C177.198 287.236 177.028 287.231 176.878 287.163C171.212 284.624 165.771 281.613 160.611 278.16C154.888 274.286 149.582 269.828 144.779 264.859C144.722 264.8 144.678 264.731 144.648 264.656C144.618 264.58 144.604 264.5 144.605 264.419C144.606 264.337 144.624 264.257 144.656 264.183C144.688 264.108 144.735 264.041 144.793 263.984C144.852 263.928 144.921 263.884 144.996 263.854C145.072 263.824 145.152 263.809 145.233 263.811C145.315 263.812 145.395 263.829 145.469 263.862C145.544 263.894 145.611 263.941 145.668 263.999C150.417 268.903 155.661 273.302 161.316 277.126C166.416 280.545 171.796 283.524 177.399 286.033H177.39Z" fill="black"/>
<path fill-rule="evenodd" clip-rule="evenodd" d="M274.653 47.5167C238.381 53.921 236.111 1.96179 274.653 47.5167Z" fill="#8C9152"/>
<path d="M276.923 47.7586C276.999 47.7852 277.07 47.8267 277.131 47.8807C277.192 47.9347 277.241 48.0001 277.276 48.0732C277.312 48.1463 277.333 48.2257 277.337 48.3068C277.342 48.3879 277.331 48.4691 277.304 48.5459C277.278 48.6226 277.236 48.6934 277.182 48.7541C277.128 48.8148 277.063 48.8643 276.99 48.8997C276.916 48.9351 276.837 48.9558 276.756 48.9606C276.675 48.9653 276.594 48.9541 276.517 48.9274C272.181 47.4521 267.979 45.6068 263.959 43.4118C259.506 40.9539 255.321 38.0404 251.469 34.7181C251.341 34.6118 251.261 34.4589 251.245 34.2932C251.23 34.1274 251.281 33.9623 251.387 33.8342C251.494 33.7061 251.647 33.6255 251.812 33.6101C251.978 33.5947 252.143 33.6458 252.271 33.7521C256.07 37.0379 260.201 39.9192 264.597 42.3492C268.545 44.5035 272.668 46.3196 276.923 47.7779V47.7586Z" fill="black"/>
<path fill-rule="evenodd" clip-rule="evenodd" d="M164.465 12.3072C141.388 -13.7738 113.211 9.2258 164.465 12.3072Z" fill="#80854D"/>
<path fill-rule="evenodd" clip-rule="evenodd" d="M82.397 142.171C44.9852 154.352 30.9208 123.769 82.397 142.171Z" fill="#8C9152"/>
<path fill-rule="evenodd" clip-rule="evenodd" d="M92.9839 151.87C55.8135 169.258 32.6497 142.742 92.9839 151.87Z" fill="#80854D"/>
<path fill-rule="evenodd" clip-rule="evenodd" d="M73.935 132.183C41.5945 137.255 30.3893 104.064 73.935 132.183Z" fill="#8C9152"/>
<path fill-rule="evenodd" clip-rule="evenodd" d="M69.5497 126.117C58.1127 75.4332 39.5082 108.431 69.5497 126.117Z" fill="#80854D"/>
<path fill-rule="evenodd" clip-rule="evenodd" d="M71.4234 128.812C87.043 83.4604 54.944 101.872 71.4234 128.812Z" fill="#8C9152"/>
<path fill-rule="evenodd" clip-rule="evenodd" d="M78.2433 137.573C98.9149 89.5262 65.8596 109.425 78.2433 137.573Z" fill="#8C9152"/>
<path fill-rule="evenodd" clip-rule="evenodd" d="M86.9369 146.673C107.869 91.7288 72.148 118.554 86.9369 146.673Z" fill="#8C9152"/>
<path fill-rule="evenodd" clip-rule="evenodd" d="M105.647 160.196C60.6044 186.277 44.2893 151.599 105.647 160.196Z" fill="#80854D"/>
<path fill-rule="evenodd" clip-rule="evenodd" d="M98.5765 155.965C110.013 99.6207 80.0686 129.488 98.5765 155.965Z" fill="#80854D"/>
<path fill-rule="evenodd" clip-rule="evenodd" d="M125.16 167.635C75.3454 200.149 51.0224 166.669 125.16 167.635Z" fill="#8C9152"/>
<path fill-rule="evenodd" clip-rule="evenodd" d="M113.201 163.81C113.375 100.326 85.1399 139.931 113.201 163.81Z" fill="#8C9152"/>
<path d="M68.5837 125.779C68.5371 125.712 68.5045 125.636 68.4881 125.556C68.4716 125.476 68.4714 125.393 68.4877 125.313C68.5039 125.232 68.5362 125.156 68.5825 125.089C68.6289 125.021 68.6884 124.964 68.7575 124.92C68.8247 124.874 68.9003 124.842 68.9799 124.825C69.0595 124.809 69.1416 124.808 69.2215 124.823C69.3013 124.839 69.3774 124.87 69.4453 124.914C69.5132 124.959 69.5716 125.017 69.6173 125.084C78.3109 137.98 88.2604 148.393 99.5622 155.85C110.346 163.052 122.743 167.475 135.651 168.726C135.736 168.727 135.82 168.746 135.898 168.781C135.976 168.816 136.046 168.867 136.103 168.931C136.16 168.995 136.203 169.069 136.23 169.15C136.257 169.232 136.267 169.317 136.259 169.403C136.251 169.488 136.225 169.57 136.184 169.645C136.142 169.72 136.085 169.785 136.017 169.837C135.949 169.888 135.871 169.925 135.788 169.945C135.705 169.965 135.619 169.968 135.535 169.953C122.406 168.7 109.794 164.209 98.828 156.883C87.42 149.339 77.2773 138.81 68.5837 125.779Z" fill="black"/>
<path fill-rule="evenodd" clip-rule="evenodd" d="M486.17 123.026C514.782 115.25 497.009 76.3605 486.17 123.026Z" fill="#8C9152"/>
<path d="M485.398 124.832C485.341 124.891 485.274 124.937 485.199 124.97C485.125 125.002 485.045 125.019 484.963 125.021C484.882 125.022 484.802 125.007 484.726 124.977C484.651 124.948 484.582 124.903 484.523 124.847C484.465 124.79 484.418 124.723 484.386 124.648C484.354 124.574 484.336 124.494 484.335 124.413C484.334 124.332 484.348 124.251 484.378 124.175C484.408 124.1 484.452 124.031 484.509 123.973C487.1 121.317 489.462 118.448 491.57 115.395C493.91 111.995 495.888 108.359 497.472 104.547C497.548 104.414 497.67 104.312 497.816 104.263C497.961 104.213 498.12 104.219 498.261 104.279C498.403 104.338 498.518 104.447 498.584 104.586C498.65 104.724 498.664 104.882 498.622 105.03C497.008 108.915 495.001 112.624 492.633 116.1C490.48 119.193 488.073 122.101 485.436 124.794L485.398 124.832Z" fill="black"/>
<path fill-rule="evenodd" clip-rule="evenodd" d="M423.672 158.757C467.469 124.997 463.479 158.815 423.672 158.757Z" fill="#8C9152"/>
<path fill-rule="evenodd" clip-rule="evenodd" d="M417.22 171.479C472.434 143.882 458.418 176.637 417.22 171.479Z" fill="#80854D"/>
<path fill-rule="evenodd" clip-rule="evenodd" d="M428.714 146.548C461.857 105.909 461.422 141.341 428.714 146.548Z" fill="#80854D"/>
<path fill-rule="evenodd" clip-rule="evenodd" d="M431.033 139.303C454.419 112.913 426.203 86.9571 431.033 139.303Z" fill="#80854D"/>
<path fill-rule="evenodd" clip-rule="evenodd" d="M430.067 142.471C437.534 111.415 400.895 103.707 430.067 142.471Z" fill="#8C9152"/>
<path fill-rule="evenodd" clip-rule="evenodd" d="M426.222 153.039C429.371 122.128 391.351 113.241 426.222 153.039Z" fill="#8C9152"/>
<path fill-rule="evenodd" clip-rule="evenodd" d="M420.688 164.543C426.155 132.869 383.421 118.177 420.688 164.543Z" fill="#8C9152"/>
<path fill-rule="evenodd" clip-rule="evenodd" d="M406.024 187.842C458.485 183.263 451.801 145.04 406.024 187.842Z" fill="#80854D"/>
<path fill-rule="evenodd" clip-rule="evenodd" d="M412.834 178.492C422.397 147.243 384.271 127.847 412.834 178.492Z" fill="#80854D"/>
<path d="M430.675 138.327C430.697 138.248 430.733 138.174 430.783 138.109C430.833 138.045 430.895 137.991 430.966 137.95C431.037 137.91 431.115 137.884 431.197 137.874C431.278 137.864 431.36 137.87 431.438 137.892C431.597 137.939 431.73 138.046 431.809 138.191C431.889 138.336 431.908 138.506 431.863 138.665C428.673 149.867 424.132 160.639 418.34 170.744C412.602 180.766 405.646 190.039 397.63 198.352C397.573 198.409 397.505 198.455 397.431 198.487C397.356 198.518 397.276 198.534 397.195 198.534C397.114 198.534 397.034 198.518 396.959 198.487C396.885 198.455 396.817 198.409 396.76 198.352C396.702 198.295 396.657 198.227 396.625 198.153C396.594 198.078 396.578 197.998 396.578 197.917C396.578 197.836 396.594 197.756 396.625 197.681C396.657 197.607 396.702 197.539 396.76 197.482C404.707 189.244 411.604 180.056 417.297 170.126C423.024 160.104 427.519 149.427 430.685 138.327H430.675Z" fill="black"/>
<path fill-rule="evenodd" clip-rule="evenodd" d="M103.291 35.3646C106.981 34.1668 108.864 32.1479 110.651 26.2266C112.216 30.9791 114.641 33.9543 118.05 35.0651C113.906 36.3306 111.888 40.3393 110.323 44.2225C109.705 40.5325 107.695 36.4368 103.329 35.3646H103.291Z" fill="white"/>
<path d="M47.4775 197.927C47.0858 197.452 46.5628 197.104 45.974 196.925C45.3852 196.745 44.7566 196.744 44.1669 196.92C43.5772 197.097 43.0526 197.443 42.6587 197.916C42.2648 198.389 42.019 198.967 41.9521 199.579C41.9055 199.981 41.9387 200.389 42.0498 200.778C42.1608 201.168 42.3476 201.532 42.5994 201.849L42.6476 201.916C43.167 202.547 43.9125 202.95 44.7247 203.038C45.5369 203.127 46.3515 202.894 46.9945 202.39L47.0524 202.332C47.6831 201.812 48.0856 201.067 48.1741 200.255C48.2625 199.443 48.0298 198.628 47.5258 197.985V197.927H47.4775ZM45.5455 195.57C46.6854 195.708 47.7259 196.287 48.4434 197.183C49.1681 198.087 49.5049 199.241 49.38 200.393C49.2551 201.544 48.6786 202.6 47.7769 203.327C46.8716 204.052 45.7159 204.389 44.5627 204.264C43.4095 204.139 42.3527 203.563 41.6237 202.66C41.0838 201.987 40.755 201.169 40.6787 200.309C40.6025 199.45 40.7821 198.587 41.1951 197.829C41.6081 197.071 42.236 196.452 42.9998 196.05C43.7635 195.648 44.6291 195.481 45.4876 195.57H45.5455Z" fill="#8C9152"/>
<path fill-rule="evenodd" clip-rule="evenodd" d="M0 148.421C4.20195 147.05 6.33673 144.76 8.36526 138.037C10.1523 143.427 12.9149 146.856 16.7788 148.083C12.0649 149.513 9.77556 154.072 7.95955 158.477C7.24473 154.294 4.96506 149.629 0 148.421Z" fill="#EBB763"/>
<path fill-rule="evenodd" clip-rule="evenodd" d="M493.85 221.477C493.442 220.972 492.894 220.599 492.274 220.405C491.655 220.212 490.992 220.206 490.369 220.389C489.747 220.572 489.192 220.935 488.776 221.433C488.359 221.93 488.099 222.54 488.029 223.186C487.959 223.831 488.082 224.482 488.382 225.058C488.682 225.633 489.146 226.107 489.715 226.419C490.284 226.732 490.932 226.868 491.579 226.812C492.225 226.756 492.841 226.509 493.347 226.104C494.027 225.556 494.461 224.762 494.556 223.894C494.65 223.027 494.396 222.157 493.85 221.477Z" fill="#8C9152"/>
<path fill-rule="evenodd" clip-rule="evenodd" d="M158.418 313.109C154.612 297.093 174.337 293.229 193.347 306.057C188.894 279.522 227.668 293.152 239.25 307.506C244.312 279.232 291.489 325.318 284.37 344.164H141.919C106.787 331.607 132.009 295.48 158.457 313.109H158.418Z" fill="#A7A17F"/>
<path d="M351.505 118.66C365.473 53.6316 208.417 101.273 179.081 164.727C182.8 193.861 211.923 186.23 219.458 212.784C223.322 230.104 258.048 244.207 279.908 242.555C336.9 233.948 384.29 146.992 351.505 118.66Z" fill="black"/>
<path d="M180.636 163.375C180.597 163.446 180.545 163.51 180.481 163.561C180.418 163.613 180.346 163.651 180.268 163.674C180.189 163.698 180.108 163.705 180.027 163.697C179.946 163.689 179.867 163.665 179.795 163.626C179.724 163.587 179.66 163.535 179.609 163.472C179.557 163.408 179.519 163.336 179.496 163.258C179.472 163.18 179.465 163.098 179.473 163.017C179.481 162.936 179.505 162.857 179.544 162.786C204.07 117.24 262.202 90.3382 304.917 85.1896C315.987 83.8566 326.033 83.9725 334.205 85.5953C342.377 87.2181 348.829 90.4251 352.442 95.255C356.915 101.186 357.146 109.513 351.476 120.302C351.44 120.377 351.389 120.443 351.326 120.497C351.263 120.551 351.19 120.592 351.112 120.617C351.033 120.643 350.95 120.652 350.867 120.645C350.785 120.638 350.705 120.614 350.632 120.575C350.559 120.536 350.494 120.483 350.442 120.419C350.39 120.355 350.351 120.281 350.328 120.201C350.305 120.122 350.298 120.039 350.308 119.956C350.318 119.874 350.344 119.795 350.385 119.723C355.755 109.416 355.591 101.543 351.409 95.9988C347.999 91.4587 341.894 88.4256 333.934 86.8414C325.975 85.2572 315.967 85.1317 305.023 86.455C262.685 91.6133 204.978 118.216 180.636 163.375Z" fill="black"/>
<path fill-rule="evenodd" clip-rule="evenodd" d="M293.383 268.056C295.015 269.747 304.868 275.069 312.615 276.441C332.408 279.938 361.416 278.759 361.783 268.134L363.454 219.922L384.86 213.692C372.302 160.825 281.714 162.496 269.427 211.142L290.833 217.372L293.383 268.056Z" fill="#FFFAFF"/>
<path fill-rule="evenodd" clip-rule="evenodd" d="M339.459 313.515L334.89 312.703L330.408 343.923C345.381 343.923 383.981 346.821 390.578 338.272C392.877 335.287 382.918 333.075 366.043 324.671C355.04 319.194 356.132 304.975 339.459 313.515Z" fill="black"/>
<path fill-rule="evenodd" clip-rule="evenodd" d="M342.415 344.165C333.721 344.319 332.311 343.093 324.97 344.165C170.01 336.002 190.092 242.429 291.209 274.818C291.635 272.479 292.365 270.206 293.383 268.056C311.436 272.886 338.252 272.577 361.783 268.134C362.882 270.985 363.695 273.94 364.207 276.953C480.673 233.301 494.777 330.999 342.415 344.165Z" fill="#EBA1B2"/>
<path d="M329.5 313.669C329.348 313.731 329.177 313.729 329.026 313.665C328.875 313.6 328.755 313.479 328.694 313.326C328.632 313.174 328.634 313.003 328.698 312.852C328.763 312.701 328.884 312.581 329.037 312.52L415.008 278.286C415.159 278.231 415.326 278.238 415.472 278.304C415.619 278.37 415.734 278.491 415.793 278.64C415.852 278.79 415.85 278.956 415.789 279.105C415.727 279.253 415.609 279.372 415.462 279.435L329.491 313.669H329.5Z" fill="black"/>
<path d="M251.991 280.45C251.837 280.392 251.713 280.276 251.645 280.126C251.577 279.977 251.571 279.806 251.629 279.653C251.686 279.499 251.803 279.374 251.952 279.306C252.102 279.239 252.272 279.233 252.426 279.29L334.378 310.568C334.454 310.597 334.524 310.641 334.584 310.697C334.643 310.753 334.691 310.82 334.724 310.895C334.757 310.969 334.775 311.05 334.777 311.131C334.779 311.213 334.765 311.294 334.736 311.37C334.708 311.446 334.665 311.516 334.61 311.575C334.555 311.634 334.488 311.682 334.415 311.715C334.341 311.748 334.261 311.767 334.18 311.769C334.099 311.771 334.019 311.757 333.943 311.727L251.991 280.45Z" fill="black"/>
<path d="M342.367 344.783C338.803 344.841 336.475 344.677 334.446 344.532C331.319 344.208 328.163 344.293 325.057 344.783H324.903C266.52 341.711 232.865 326.497 218.975 310.433C213.179 303.739 210.803 296.91 211.469 290.631C212.136 284.352 215.855 278.769 222.288 274.634C235.145 266.366 258.947 264.009 290.736 274.016C290.954 272.995 291.225 271.986 291.548 270.993C291.885 269.883 292.315 268.804 292.833 267.766C292.9 267.642 293.007 267.544 293.136 267.488C293.266 267.432 293.411 267.421 293.547 267.457C302.376 269.805 313.311 270.925 324.932 270.944C337.246 270.931 349.533 269.786 361.638 267.525C361.776 267.498 361.919 267.518 362.044 267.583C362.169 267.648 362.267 267.754 362.324 267.882C362.905 269.271 363.38 270.701 363.744 272.162C364.082 273.475 364.372 274.808 364.642 276.112C401.397 262.473 427.981 262.908 442.325 270.317C449.473 274.007 453.627 279.416 454.545 285.704C455.462 291.993 453.144 299.025 447.368 306.077C433.545 322.962 399.678 339.885 342.435 344.792L342.367 344.783ZM334.533 343.295C336.552 343.44 338.87 343.604 342.348 343.546C399.214 338.63 432.782 321.947 446.421 305.284C451.966 298.523 454.149 291.761 453.328 285.869C452.507 279.976 448.546 274.905 441.736 271.379C427.575 264.076 401.165 263.729 364.459 277.484L364.314 277.532C364.234 277.548 364.152 277.547 364.072 277.531C363.992 277.514 363.917 277.482 363.849 277.436C363.782 277.391 363.724 277.332 363.68 277.264C363.635 277.196 363.605 277.12 363.589 277.04C363.28 275.504 362.942 273.92 362.566 272.442C362.254 271.207 361.864 269.994 361.397 268.81C349.364 271.022 337.156 272.141 324.922 272.152C313.408 272.152 302.54 271.041 293.702 268.752C293.327 269.594 293.004 270.458 292.736 271.34C292.358 272.505 292.055 273.692 291.828 274.895C291.831 274.921 291.831 274.947 291.828 274.973C291.804 275.051 291.764 275.124 291.712 275.187C291.659 275.25 291.595 275.302 291.522 275.339C291.449 275.377 291.369 275.4 291.288 275.407C291.206 275.413 291.123 275.404 291.046 275.378C259.323 265.216 235.667 267.506 222.984 275.649C216.879 279.57 213.324 284.845 212.725 290.727C212.126 296.61 214.396 303.169 219.941 309.593C233.638 325.444 266.983 340.455 324.961 343.517C328.137 343.023 331.364 342.938 334.562 343.266L334.533 343.295Z" fill="black"/>
<path d="M291.007 275.397C290.852 275.344 290.724 275.23 290.653 275.083C290.581 274.935 290.571 274.765 290.625 274.61C290.679 274.455 290.792 274.328 290.94 274.256C291.087 274.185 291.257 274.175 291.412 274.229C292.855 274.737 294.268 275.269 295.653 275.822C297.073 276.392 298.416 276.953 299.681 277.513C299.831 277.579 299.948 277.703 300.007 277.856C300.066 278.009 300.062 278.179 299.995 278.329C299.928 278.479 299.805 278.596 299.652 278.655C299.499 278.714 299.329 278.71 299.179 278.643C297.875 278.073 296.551 277.513 295.189 276.972C293.827 276.431 292.475 275.929 291.007 275.397Z" fill="black"/>
<path d="M363.995 276.364C364.15 276.309 364.32 276.318 364.469 276.388C364.617 276.459 364.732 276.586 364.787 276.741C364.842 276.896 364.833 277.066 364.762 277.215C364.692 277.363 364.565 277.478 364.41 277.533C362.356 278.267 360.404 279.017 358.556 279.783C356.624 280.585 354.808 281.406 353.098 282.227C353.025 282.266 352.945 282.29 352.862 282.298C352.779 282.305 352.696 282.296 352.617 282.27C352.537 282.244 352.464 282.203 352.402 282.149C352.339 282.094 352.288 282.027 352.251 281.953C352.215 281.878 352.194 281.797 352.19 281.714C352.186 281.631 352.198 281.548 352.227 281.469C352.255 281.391 352.299 281.32 352.356 281.259C352.413 281.199 352.481 281.15 352.558 281.116C354.296 280.276 356.132 279.445 358.073 278.644C360.015 277.842 361.937 277.108 363.995 276.364Z" fill="black"/>
<path fill-rule="evenodd" clip-rule="evenodd" d="M324.709 313.901L329.268 313.099L333.76 344.319C318.788 344.319 280.188 347.217 273.581 338.659C271.282 335.684 281.25 333.462 298.116 325.068C309.118 319.581 308.027 305.372 324.709 313.901Z" fill="black"/>
<path fill-rule="evenodd" clip-rule="evenodd" d="M291.615 232.914L290.833 217.372L269.427 211.142L259.352 246.1L218.163 261.623C215.265 258.493 210.725 255.344 206.262 252.089C201.896 257.778 214.241 263.197 208.871 265.612C203.171 263.593 207.905 251.799 202.225 251.123C202.553 248.099 201.027 246.679 198.158 246.515L197.656 249.829C197.713 249.923 197.736 250.034 197.72 250.144C197.705 250.253 197.651 250.353 197.569 250.427L197.656 249.829C197.337 249.307 195.907 249.036 194.371 249.23C193.174 252.978 191.3 265.033 194.565 272.934C196.004 276.393 208.455 279.841 213.488 279.928C232.537 280.681 255.478 278.151 271.581 272.142C285.104 267.09 289.644 250.794 290.9 235.803C291.122 234.875 291.374 233.9 291.615 232.914Z" fill="#F26E3F"/>
<path d="M198.245 271.282C198.305 271.436 198.302 271.607 198.236 271.759C198.169 271.91 198.046 272.029 197.892 272.089C197.739 272.149 197.567 272.146 197.416 272.08C197.265 272.013 197.146 271.89 197.086 271.736C194.188 264.289 196.12 254.02 197.144 248.688C197.308 247.79 197.453 247.037 197.549 246.438C197.574 246.275 197.662 246.129 197.794 246.031C197.926 245.933 198.092 245.892 198.254 245.916C198.417 245.94 198.564 246.028 198.661 246.161C198.759 246.293 198.8 246.458 198.776 246.621C198.689 247.181 198.535 247.974 198.361 248.92C197.395 254.127 195.463 264.173 198.245 271.282Z" fill="black"/>
<path d="M203.249 270.847C203.29 270.925 203.315 271.011 203.321 271.099C203.327 271.187 203.314 271.275 203.284 271.358C203.254 271.441 203.206 271.516 203.145 271.579C203.083 271.643 203.009 271.692 202.927 271.725C202.846 271.758 202.758 271.773 202.67 271.769C202.582 271.766 202.495 271.744 202.416 271.705C202.337 271.666 202.267 271.611 202.211 271.543C202.155 271.475 202.113 271.396 202.09 271.311C201.047 268.314 200.521 265.162 200.534 261.99C200.434 258.294 200.8 254.6 201.626 250.997C201.682 250.854 201.788 250.737 201.924 250.667C202.061 250.597 202.218 250.579 202.366 250.617C202.515 250.655 202.644 250.746 202.73 250.873C202.816 251 202.853 251.154 202.833 251.306C202.031 254.789 201.674 258.359 201.771 261.932C201.755 264.953 202.255 267.955 203.249 270.809V270.847Z" fill="black"/>
<path d="M210.581 265.351C210.661 265.362 210.739 265.389 210.809 265.429C210.879 265.47 210.941 265.524 210.99 265.589C211.04 265.654 211.076 265.727 211.097 265.806C211.117 265.884 211.123 265.966 211.112 266.047C211.101 266.127 211.074 266.205 211.034 266.275C210.993 266.346 210.939 266.407 210.874 266.456C210.809 266.506 210.736 266.542 210.657 266.563C210.579 266.584 210.497 266.589 210.416 266.578C209.097 266.461 207.869 265.858 206.968 264.888C206.24 263.997 205.692 262.974 205.355 261.874C205.327 261.797 205.315 261.716 205.32 261.634C205.324 261.553 205.344 261.473 205.379 261.4C205.414 261.326 205.463 261.26 205.524 261.206C205.584 261.151 205.655 261.109 205.731 261.082C205.808 261.054 205.889 261.043 205.971 261.047C206.052 261.051 206.132 261.071 206.205 261.106C206.279 261.141 206.345 261.19 206.4 261.251C206.454 261.311 206.496 261.382 206.523 261.458C206.808 262.405 207.274 263.288 207.895 264.057C208.6 264.805 209.556 265.266 210.581 265.351Z" fill="black"/>
<path fill-rule="evenodd" clip-rule="evenodd" d="M459.925 251.827C458.379 251.634 456.949 251.914 456.631 252.426L456.727 253.025C456.647 252.95 456.593 252.851 456.576 252.742C456.558 252.634 456.578 252.523 456.631 252.426L456.128 249.113C453.231 249.277 451.743 250.697 452.062 253.721C446.42 254.368 451.096 266.162 445.426 268.21C440.045 265.757 452.39 260.338 448.034 254.687C443.571 257.942 439.002 261.101 436.133 264.221L394.935 248.707L384.86 213.749L363.454 219.98L362.671 235.522C362.913 236.488 363.174 237.454 363.444 238.42C364.642 253.412 369.172 269.707 382.705 274.759C398.818 280.768 421.759 283.298 440.799 282.545C445.841 282.458 458.292 279.01 459.722 275.551C462.996 267.631 461.113 255.575 459.925 251.827Z" fill="#F26E3F"/>
<path d="M457.2 274.315C457.14 274.468 457.022 274.59 456.871 274.655C456.721 274.72 456.551 274.723 456.399 274.663C456.322 274.634 456.253 274.591 456.194 274.534C456.135 274.478 456.087 274.411 456.055 274.336C456.023 274.261 456.005 274.181 456.005 274.099C456.004 274.018 456.02 273.937 456.051 273.861C458.823 266.752 456.92 256.706 455.935 251.499C455.751 250.533 455.606 249.761 455.52 249.2C455.495 249.038 455.536 248.872 455.634 248.74C455.732 248.607 455.878 248.519 456.041 248.495C456.204 248.471 456.37 248.512 456.502 248.61C456.634 248.708 456.722 248.854 456.746 249.017C456.833 249.616 456.978 250.369 457.152 251.267C458.118 256.6 460.108 266.868 457.152 274.315H457.2Z" fill="black"/>
<path d="M452.197 273.861C452.137 274.014 452.018 274.136 451.868 274.201C451.718 274.266 451.548 274.269 451.395 274.209C451.242 274.147 451.12 274.027 451.055 273.875C450.99 273.723 450.987 273.551 451.047 273.398C452.043 270.545 452.539 267.542 452.516 264.52C452.615 260.948 452.261 257.378 451.463 253.895C451.443 253.743 451.48 253.589 451.566 253.462C451.652 253.335 451.781 253.244 451.93 253.206C452.078 253.168 452.236 253.186 452.372 253.256C452.508 253.326 452.614 253.443 452.67 253.586C453.492 257.17 453.856 260.844 453.752 264.52C453.775 267.694 453.249 270.848 452.197 273.842V273.861Z" fill="black"/>
<path d="M443.842 269.128C443.762 269.139 443.68 269.133 443.602 269.112C443.524 269.091 443.451 269.055 443.388 269.006C443.324 268.956 443.27 268.895 443.231 268.824C443.191 268.754 443.165 268.677 443.156 268.596C443.145 268.516 443.15 268.434 443.171 268.355C443.192 268.277 443.228 268.203 443.277 268.139C443.327 268.074 443.388 268.02 443.459 267.979C443.529 267.938 443.607 267.912 443.687 267.901C444.711 267.816 445.668 267.355 446.373 266.607C446.99 265.837 447.453 264.954 447.735 264.008C447.791 263.854 447.906 263.729 448.054 263.659C448.202 263.588 448.372 263.578 448.527 263.631C448.604 263.657 448.676 263.699 448.737 263.753C448.799 263.807 448.848 263.873 448.884 263.947C448.919 264.021 448.939 264.102 448.942 264.183C448.945 264.265 448.932 264.347 448.903 264.423C448.574 265.526 448.025 266.552 447.29 267.437C446.391 268.41 445.161 269.012 443.842 269.128Z" fill="black"/>
<path d="M292.504 238.266C292.508 238.347 292.495 238.428 292.468 238.505C292.44 238.581 292.398 238.652 292.343 238.712C292.289 238.772 292.222 238.821 292.149 238.855C292.075 238.89 291.996 238.91 291.914 238.913C291.833 238.917 291.752 238.905 291.676 238.877C291.599 238.85 291.529 238.808 291.469 238.753C291.408 238.698 291.36 238.632 291.325 238.559C291.291 238.485 291.271 238.405 291.267 238.324L289.606 205.153C289.601 205.071 289.612 204.99 289.639 204.912C289.666 204.835 289.708 204.765 289.763 204.704C289.818 204.644 289.885 204.595 289.959 204.561C290.033 204.527 290.113 204.508 290.195 204.506C290.276 204.502 290.357 204.514 290.434 204.541C290.51 204.569 290.581 204.611 290.641 204.666C290.701 204.721 290.75 204.787 290.784 204.86C290.819 204.934 290.838 205.014 290.842 205.095L292.504 238.266Z" fill="black"/>
<path d="M363.202 244.042C363.201 244.123 363.184 244.204 363.152 244.278C363.119 244.353 363.073 244.42 363.014 244.477C362.956 244.533 362.887 244.578 362.812 244.607C362.736 244.637 362.656 244.652 362.574 244.651C362.41 244.646 362.253 244.576 362.14 244.457C362.026 244.337 361.963 244.178 361.966 244.013L362.932 204.051C362.932 203.97 362.948 203.889 362.98 203.814C363.012 203.739 363.058 203.671 363.117 203.614C363.175 203.557 363.245 203.513 363.321 203.483C363.397 203.454 363.478 203.44 363.56 203.443C363.723 203.448 363.878 203.516 363.991 203.633C364.105 203.751 364.168 203.907 364.168 204.071L363.202 244.042Z" fill="black"/>
<path d="M264.674 243.414C264.824 243.378 264.981 243.398 265.117 243.47C265.253 243.542 265.357 243.661 265.411 243.805C265.465 243.95 265.463 244.108 265.408 244.252C265.352 244.395 265.246 244.513 265.109 244.583L240.525 253.895C240.449 253.924 240.368 253.939 240.286 253.937C240.205 253.935 240.124 253.916 240.05 253.883C239.975 253.85 239.908 253.802 239.852 253.743C239.796 253.684 239.752 253.614 239.724 253.538C239.694 253.461 239.68 253.38 239.682 253.299C239.684 253.217 239.702 253.137 239.735 253.062C239.768 252.988 239.816 252.92 239.875 252.864C239.935 252.808 240.005 252.765 240.081 252.736L264.674 243.414Z" fill="black"/>
<path d="M389.149 247.133C388.994 247.074 388.869 246.957 388.801 246.807C388.732 246.657 388.725 246.486 388.782 246.331C388.842 246.178 388.959 246.055 389.109 245.987C389.258 245.918 389.428 245.91 389.583 245.964L414.244 255.257C414.397 255.317 414.52 255.434 414.589 255.584C414.657 255.733 414.665 255.903 414.611 256.058C414.582 256.135 414.539 256.204 414.483 256.264C414.427 256.323 414.36 256.371 414.285 256.404C414.21 256.437 414.13 256.455 414.049 256.457C413.967 256.459 413.886 256.445 413.81 256.416L389.149 247.133Z" fill="black"/>
<path fill-rule="evenodd" clip-rule="evenodd" d="M319.232 147.746C321.58 144.519 332.166 140.984 333.905 142.558C333.857 153.657 337.499 169.712 339.286 175.401C332.524 179.458 318.72 178.637 312.847 175.952C315.677 170.571 319.532 151.87 319.232 147.746Z" fill="#F26E3F"/>
<path d="M340.077 174C340.134 173.942 340.202 173.896 340.276 173.865C340.351 173.834 340.431 173.817 340.512 173.817C340.593 173.817 340.673 173.834 340.748 173.865C340.823 173.896 340.89 173.942 340.947 174C341.062 174.117 341.126 174.275 341.126 174.44C341.126 174.604 341.062 174.762 340.947 174.879C338.377 177.371 333.219 178.482 327.819 178.656C321.27 178.859 314.296 177.69 311.321 175.874C311.25 175.833 311.188 175.779 311.139 175.713C311.089 175.648 311.054 175.573 311.034 175.494C311.014 175.415 311.01 175.332 311.023 175.251C311.036 175.171 311.065 175.093 311.108 175.024C311.148 174.953 311.202 174.892 311.266 174.842C311.331 174.793 311.404 174.758 311.483 174.738C311.561 174.718 311.643 174.714 311.723 174.727C311.803 174.74 311.88 174.768 311.949 174.811C314.779 176.502 321.444 177.613 327.781 177.41C332.9 177.255 337.759 176.241 340.087 173.99L340.077 174Z" fill="black"/>
<path fill-rule="evenodd" clip-rule="evenodd" d="M310.644 130.725C307.978 129.372 305.708 130.512 305.563 133.265C305.601 134.794 306.042 136.286 306.841 137.59C307.64 138.894 308.768 139.965 310.113 140.693C312.779 142.046 315.059 140.916 315.204 138.163C315.167 136.631 314.725 135.136 313.925 133.83C313.124 132.524 311.992 131.453 310.644 130.725Z" fill="#F26E3F"/>
<path d="M307.862 133.652C307.78 133.636 307.702 133.603 307.632 133.556C307.563 133.509 307.504 133.448 307.459 133.377C307.414 133.306 307.383 133.227 307.37 133.144C307.356 133.061 307.36 132.977 307.38 132.895C307.401 132.814 307.437 132.737 307.488 132.67C307.539 132.604 307.603 132.548 307.676 132.507C307.749 132.465 307.83 132.439 307.914 132.43C307.997 132.421 308.082 132.429 308.162 132.454C309.055 132.666 309.837 133.204 310.355 133.961C310.879 134.789 311.148 135.753 311.127 136.733C311.13 136.815 311.116 136.896 311.087 136.972C311.057 137.048 311.013 137.118 310.956 137.176C310.899 137.235 310.831 137.281 310.756 137.313C310.681 137.345 310.6 137.361 310.519 137.361C310.413 137.364 310.307 137.339 310.214 137.288C310.121 137.237 310.042 137.163 309.988 137.071C309.747 136.728 309.461 136.42 309.138 136.154C308.867 135.931 308.56 135.758 308.229 135.642C308.073 135.589 307.944 135.477 307.871 135.329C307.797 135.182 307.786 135.011 307.838 134.855C307.891 134.698 308.003 134.569 308.151 134.496C308.299 134.423 308.469 134.411 308.626 134.463C308.914 134.562 309.19 134.695 309.447 134.859L309.331 134.657C308.974 134.168 308.452 133.825 307.862 133.691V133.652Z" fill="black"/>
<path fill-rule="evenodd" clip-rule="evenodd" d="M341.623 130.666C336.33 130.483 337.044 123.402 333.161 121.007C329.037 127.247 317.368 131.034 309.978 130.444C309.369 143.968 314.335 154.101 325.066 154.024C333.702 153.946 338.233 148.585 340.058 141.118C346.153 143.05 351.486 126.629 341.662 130.686L341.623 130.666Z" fill="#ED7C53"/>
<path fill-rule="evenodd" clip-rule="evenodd" d="M335.296 123.355C334.793 122.4 334.059 121.586 333.161 120.988C329.037 127.228 317.368 131.015 309.978 130.426C320.845 133.449 332.804 127.132 335.335 123.355H335.296Z" fill="#F26E3F"/>
<path fill-rule="evenodd" clip-rule="evenodd" d="M316.305 138.579C316.027 138.515 315.74 138.508 315.46 138.559C315.179 138.611 314.913 138.718 314.675 138.876C314.438 139.034 314.236 139.238 314.08 139.477C313.924 139.715 313.819 139.983 313.771 140.264C313.722 140.544 313.731 140.832 313.797 141.109C313.863 141.386 313.985 141.646 314.156 141.875C314.326 142.103 314.541 142.294 314.788 142.437C315.034 142.579 315.307 142.67 315.59 142.703C316.123 142.766 316.659 142.622 317.089 142.302C317.519 141.981 317.81 141.508 317.901 140.979C317.993 140.451 317.878 139.908 317.581 139.461C317.285 139.014 316.828 138.699 316.305 138.579Z" fill="#DE5138"/>
<path fill-rule="evenodd" clip-rule="evenodd" d="M334.572 138.424C334.163 138.351 333.743 138.402 333.363 138.569C332.983 138.736 332.662 139.012 332.439 139.362C332.216 139.712 332.102 140.12 332.111 140.534C332.121 140.949 332.253 141.352 332.491 141.691C332.729 142.031 333.062 142.292 333.449 142.442C333.836 142.592 334.258 142.624 334.663 142.534C335.068 142.443 335.437 142.235 335.723 141.935C336.01 141.635 336.201 141.257 336.272 140.848C336.32 140.577 336.315 140.299 336.256 140.031C336.196 139.762 336.085 139.507 335.927 139.282C335.768 139.057 335.567 138.865 335.335 138.717C335.102 138.57 334.843 138.47 334.572 138.424Z" fill="#DE5138"/>
<path d="M324.361 139.505C324.525 139.505 324.682 139.57 324.798 139.686C324.914 139.802 324.979 139.959 324.979 140.123C324.979 140.287 324.914 140.444 324.798 140.56C324.682 140.676 324.525 140.741 324.361 140.741C324.266 140.728 324.169 140.745 324.084 140.79C323.998 140.835 323.93 140.906 323.888 140.993C323.853 141.122 323.853 141.259 323.888 141.389C323.914 141.543 323.977 141.689 324.071 141.814C324.126 141.903 324.209 141.972 324.306 142.01C324.404 142.049 324.511 142.054 324.612 142.026C324.77 141.979 324.94 141.996 325.085 142.074C325.23 142.152 325.338 142.284 325.385 142.442C325.433 142.599 325.415 142.769 325.338 142.914C325.26 143.059 325.127 143.167 324.97 143.214C324.62 143.334 324.239 143.334 323.889 143.213C323.539 143.092 323.24 142.858 323.038 142.548C322.832 142.26 322.694 141.93 322.632 141.582C322.566 141.236 322.596 140.878 322.719 140.548C322.836 140.22 323.057 139.939 323.348 139.747C323.639 139.555 323.984 139.463 324.332 139.486L324.361 139.505Z" fill="black"/>
<path d="M322.226 130.252C322.388 130.283 322.53 130.376 322.623 130.512C322.715 130.648 322.75 130.815 322.719 130.976C322.688 131.138 322.595 131.28 322.459 131.373C322.323 131.465 322.156 131.5 321.994 131.469C320.663 131.312 319.316 131.348 317.995 131.575C316.722 131.687 315.474 131.997 314.296 132.493C314.228 132.542 314.151 132.577 314.069 132.595C313.988 132.613 313.903 132.615 313.821 132.6C313.739 132.584 313.661 132.553 313.591 132.506C313.522 132.46 313.462 132.4 313.416 132.33C313.371 132.26 313.339 132.182 313.325 132.099C313.31 132.017 313.313 131.933 313.332 131.851C313.351 131.77 313.386 131.693 313.435 131.626C313.485 131.558 313.547 131.502 313.619 131.459C314.948 130.857 316.369 130.482 317.821 130.348C319.277 130.103 320.761 130.071 322.226 130.252Z" fill="black"/>
<path d="M335.982 131.217C336.056 131.251 336.123 131.298 336.179 131.358C336.235 131.418 336.278 131.488 336.306 131.564C336.333 131.641 336.346 131.722 336.342 131.804C336.337 131.885 336.317 131.965 336.281 132.038C336.21 132.188 336.083 132.303 335.928 132.359C335.772 132.415 335.601 132.407 335.451 132.338C334.287 131.81 333.043 131.484 331.77 131.372C330.526 131.276 329.276 131.276 328.032 131.372C327.951 131.378 327.869 131.369 327.791 131.343C327.713 131.317 327.642 131.276 327.581 131.222C327.519 131.167 327.47 131.102 327.434 131.028C327.399 130.954 327.379 130.874 327.375 130.792C327.367 130.629 327.423 130.469 327.532 130.346C327.64 130.223 327.792 130.148 327.955 130.135C329.263 130.025 330.578 130.025 331.886 130.135C333.303 130.248 334.689 130.607 335.982 131.198V131.217Z" fill="black"/>
<path d="M327.327 144.606C327.419 144.47 327.561 144.377 327.723 144.346C327.884 144.315 328.051 144.35 328.187 144.442C328.322 144.534 328.416 144.677 328.447 144.838C328.477 144.999 328.443 145.166 328.351 145.302C328.168 145.565 327.961 145.811 327.733 146.036C327.081 146.678 326.235 147.086 325.327 147.195C324.345 147.289 323.363 147.021 322.565 146.441C322.256 146.231 321.971 145.988 321.715 145.717C321.658 145.658 321.614 145.588 321.584 145.512C321.555 145.436 321.54 145.355 321.542 145.273C321.546 145.109 321.615 144.952 321.734 144.838C321.853 144.724 322.013 144.662 322.177 144.666C322.342 144.669 322.499 144.738 322.613 144.857C322.81 145.071 323.03 145.263 323.27 145.427C323.826 145.837 324.513 146.03 325.202 145.968C325.837 145.888 326.428 145.599 326.882 145.147C327.049 144.98 327.201 144.799 327.336 144.606H327.327Z" fill="black"/>
<path d="M335.953 135.709C336.047 135.575 336.19 135.483 336.351 135.454C336.512 135.425 336.678 135.461 336.813 135.555C336.948 135.65 337.04 135.795 337.069 135.958C337.098 136.12 337.061 136.288 336.967 136.424C336.301 137.39 334.591 137.95 332.688 137.989C330.965 138.059 329.259 137.633 327.771 136.762C327.646 136.669 327.561 136.533 327.532 136.38C327.503 136.226 327.534 136.068 327.617 135.936C327.7 135.804 327.829 135.709 327.98 135.669C328.13 135.628 328.29 135.646 328.428 135.719C329.714 136.453 331.18 136.812 332.659 136.752C334.195 136.752 335.509 136.327 335.953 135.709Z" fill="black"/>
<path d="M337.392 136.55C337.552 136.585 337.692 136.681 337.781 136.819C337.87 136.957 337.9 137.124 337.866 137.284C337.85 137.364 337.818 137.44 337.772 137.507C337.726 137.574 337.667 137.632 337.599 137.676C337.53 137.72 337.454 137.75 337.373 137.764C337.293 137.778 337.211 137.776 337.131 137.757C336.872 137.706 336.617 137.635 336.368 137.545C336.114 137.449 335.866 137.34 335.625 137.216C335.479 137.141 335.369 137.01 335.319 136.854C335.269 136.697 335.283 136.527 335.359 136.381C335.434 136.235 335.565 136.125 335.722 136.075C335.878 136.025 336.048 136.04 336.194 136.115C336.386 136.22 336.586 136.307 336.793 136.376C336.99 136.445 337.189 136.504 337.392 136.55Z" fill="black"/>
<path d="M336.281 137.448C336.426 137.528 336.533 137.661 336.58 137.82C336.626 137.978 336.607 138.149 336.528 138.294C336.448 138.438 336.315 138.546 336.156 138.592C335.998 138.638 335.827 138.619 335.683 138.54C335.451 138.41 335.228 138.264 335.016 138.105C334.799 137.945 334.593 137.77 334.398 137.584C334.28 137.468 334.213 137.311 334.211 137.146C334.209 136.981 334.273 136.822 334.388 136.704C334.503 136.587 334.661 136.519 334.826 136.518C334.991 136.516 335.149 136.58 335.267 136.695C335.42 136.846 335.585 136.985 335.76 137.11C335.924 137.237 336.098 137.35 336.281 137.448Z" fill="black"/>
<path d="M312.973 136.443C312.88 136.31 312.842 136.146 312.867 135.986C312.892 135.826 312.979 135.681 313.108 135.583C313.174 135.535 313.248 135.499 313.328 135.48C313.407 135.46 313.49 135.457 313.571 135.469C313.652 135.482 313.729 135.51 313.799 135.553C313.869 135.596 313.929 135.652 313.977 135.719C314.45 136.366 315.803 136.82 317.377 136.897C318.842 136.992 320.303 136.656 321.579 135.931C321.648 135.886 321.726 135.855 321.807 135.84C321.889 135.825 321.972 135.827 322.053 135.845C322.134 135.863 322.21 135.897 322.277 135.945C322.345 135.993 322.402 136.054 322.445 136.124C322.488 136.195 322.517 136.273 322.529 136.355C322.542 136.437 322.538 136.52 322.517 136.6C322.497 136.68 322.461 136.756 322.411 136.822C322.361 136.888 322.298 136.943 322.226 136.984C320.736 137.83 319.03 138.22 317.319 138.104C315.387 138.018 313.658 137.361 312.973 136.414V136.443Z" fill="black"/>
<path d="M312.973 137.699C312.812 137.734 312.645 137.703 312.508 137.615C312.37 137.526 312.273 137.386 312.238 137.226C312.206 137.065 312.238 136.898 312.326 136.759C312.414 136.621 312.552 136.521 312.712 136.482C312.915 136.444 313.116 136.389 313.311 136.318C313.513 136.241 313.716 136.154 313.91 136.057C314.054 135.982 314.223 135.968 314.379 136.017C314.534 136.066 314.664 136.174 314.74 136.318C314.816 136.464 314.83 136.634 314.782 136.792C314.733 136.949 314.624 137.081 314.479 137.159C314.24 137.283 313.991 137.389 313.736 137.477C313.487 137.57 313.232 137.645 312.973 137.699Z" fill="black"/>
<path d="M314.373 138.482C314.301 138.521 314.223 138.546 314.141 138.555C314.06 138.563 313.978 138.556 313.9 138.533C313.821 138.511 313.748 138.472 313.684 138.421C313.62 138.37 313.567 138.307 313.528 138.235C313.489 138.164 313.464 138.085 313.455 138.004C313.446 137.922 313.453 137.84 313.476 137.762C313.499 137.683 313.537 137.61 313.588 137.546C313.639 137.482 313.703 137.429 313.774 137.39C313.959 137.293 314.136 137.184 314.306 137.062C314.47 136.926 314.634 136.791 314.789 136.637C314.906 136.521 315.064 136.457 315.228 136.457C315.392 136.457 315.55 136.521 315.668 136.637C315.725 136.693 315.771 136.761 315.803 136.835C315.834 136.91 315.85 136.99 315.85 137.071C315.85 137.152 315.834 137.232 315.803 137.307C315.771 137.382 315.725 137.449 315.668 137.506C315.473 137.696 315.266 137.873 315.049 138.037C314.837 138.193 314.614 138.335 314.383 138.462L314.373 138.482Z" fill="black"/>
<path d="M343.884 132.455C343.964 132.43 344.048 132.422 344.132 132.431C344.215 132.44 344.296 132.466 344.369 132.507C344.442 132.548 344.506 132.604 344.557 132.671C344.608 132.738 344.645 132.814 344.665 132.896C344.686 132.977 344.689 133.062 344.676 133.145C344.662 133.228 344.632 133.307 344.587 133.378C344.542 133.449 344.483 133.509 344.413 133.557C344.344 133.604 344.266 133.636 344.183 133.652C343.594 133.789 343.074 134.132 342.715 134.618L342.599 134.821C342.857 134.658 343.132 134.525 343.42 134.425C343.497 134.4 343.579 134.39 343.66 134.396C343.742 134.402 343.821 134.424 343.894 134.46C343.966 134.497 344.031 134.548 344.084 134.61C344.137 134.672 344.177 134.744 344.202 134.821C344.23 134.898 344.241 134.979 344.236 135.061C344.232 135.142 344.211 135.221 344.175 135.294C344.138 135.367 344.088 135.432 344.027 135.485C343.965 135.538 343.893 135.579 343.816 135.604C343.486 135.72 343.178 135.893 342.908 136.116C342.587 136.384 342.301 136.693 342.058 137.033C342.003 137.124 341.925 137.199 341.832 137.25C341.738 137.301 341.633 137.326 341.527 137.323C341.445 137.323 341.364 137.307 341.289 137.275C341.214 137.243 341.146 137.197 341.089 137.138C341.033 137.08 340.988 137.01 340.959 136.934C340.929 136.858 340.916 136.777 340.918 136.695C340.902 135.716 341.171 134.753 341.691 133.923C342.209 133.165 342.991 132.628 343.884 132.416V132.455Z" fill="black"/>
<path d="M339.411 141.022C339.419 140.941 339.444 140.862 339.483 140.791C339.522 140.72 339.575 140.657 339.639 140.606C339.703 140.556 339.777 140.519 339.855 140.497C339.934 140.476 340.016 140.47 340.097 140.481C340.26 140.503 340.409 140.588 340.51 140.718C340.611 140.848 340.657 141.013 340.638 141.176C340.223 144.465 338.728 147.523 336.387 149.87C333.219 153.067 329.172 154.458 327.462 154.487C327.298 154.487 327.141 154.422 327.025 154.306C326.909 154.19 326.844 154.033 326.844 153.869C326.844 153.705 326.909 153.548 327.025 153.432C327.141 153.316 327.298 153.251 327.462 153.251C328.979 153.251 332.611 151.947 335.528 149.001C337.652 146.85 339.01 144.06 339.392 141.061L339.411 141.022Z" fill="black"/>
<path fill-rule="evenodd" clip-rule="evenodd" d="M489.686 320.972C492.516 309.014 477.785 306.125 463.605 315.708C466.928 295.886 437.978 306.048 429.323 316.79C425.546 295.674 390.308 330.091 395.63 344.165H502.031C528.267 334.814 509.43 307.806 489.686 320.982V320.972Z" fill="#8C9152"/>
<path d="M23.8117 344.819C23.7417 344.819 23.6723 344.802 23.6076 344.769C23.5429 344.736 23.4841 344.688 23.4346 344.627C23.385 344.566 23.3457 344.494 23.3189 344.414C23.2921 344.335 23.2783 344.249 23.2783 344.163C23.2783 343.989 23.3345 343.823 23.4346 343.7C23.5346 343.577 23.6703 343.508 23.8117 343.508H517.467C517.608 343.508 517.744 343.577 517.844 343.7C517.944 343.823 518 343.989 518 344.163C518 344.249 517.986 344.335 517.96 344.414C517.933 344.494 517.893 344.566 517.844 344.627C517.794 344.688 517.736 344.736 517.671 344.769C517.606 344.802 517.537 344.819 517.467 344.819H23.8117Z" fill="black"/>
</svg>
