<svg width="641" height="424" viewBox="0 0 641 424" fill="none" xmlns="http://www.w3.org/2000/svg">
<path d="M323.349 201.374L323.375 201.382L323.366 201.356L323.349 201.365V201.374Z" fill="#F5F5F5"/>
<path d="M323.464 201.588L323.473 201.604L323.464 201.588Z" fill="#F5F5F5"/>
<path d="M323.517 201.471L323.526 201.497L323.543 201.463L323.517 201.471Z" fill="#F5F5F5"/>
<path d="M365.264 115.096L365.451 115.193L433.344 2.25195L396.527 2.42994C396.527 2.42994 374.137 2.26085 367.605 2.42994L339.492 106.846L339.883 106.908L323.74 200.351L365.264 115.096Z" fill="#F5F5F5"/>
<path d="M618.442 0H544.222L387.887 130.482L388.065 130.633L323.696 201.152L620.524 2.42952C619.951 1.52333 619.25 0.704986 618.442 0Z" fill="#F5F5F5"/>
<path d="M640.147 125.899L325.066 203.554L323.633 201.837L324.425 203.688L324.06 203.777L323.749 203.679L323.927 203.572L323.651 203.643L323.891 203.18L323.607 203.492V203.616L323.446 202.112L323.286 203.474L323.188 203.349L323.242 203.492L322.948 203.394L322.405 202.887L322.957 201.997L322.254 202.771L321.8 202.335L322.93 201.65L321.48 202.041L113.698 6.25586H26.3954L244.429 150.007L321.035 202.148L318.098 202.94L0 147.835V198.562L199.043 205.334L197.841 208.004L313.328 204.231L231.08 226.336C231.08 226.221 231.027 226.114 230.991 225.998L0 318.258V379.138L257.351 241.563L318.97 204.026L321.133 203.964L126.522 417.138H192.537L321.756 203.91L323.215 203.866L297.416 417.138H346.006L323.633 203.999L323.847 204.195L323.624 203.919L324.933 204.809L360.886 289.513L360.699 289.593L441.808 417.138H506.666L384.015 275.416C383.988 275.432 383.963 275.453 383.944 275.479L327.567 206.607L402.481 257.591C402.438 257.644 402.399 257.7 402.366 257.76L627.75 419.63H640.147V364.979L414.469 233.011L414.415 233.162L325.983 204.684L325.2 203.723L640.147 178.155V125.899ZM321.533 203.554L320.18 203.323L321.515 202.504L322.111 202.913L321.533 203.554ZM323.233 203.812H323.135L321.96 203.608L322.307 203.029L322.806 203.376L322.467 203.26L323.224 203.777L323.233 203.812ZM323.624 203.937V203.83H324.069L323.678 203.937H324.568L324.176 203.812H324.514L324.719 204.293L323.624 203.937Z" fill="#F5F5F5"/>
<path d="M286.033 113.182L323.277 200.965L312.295 106.187L299.293 2.25195C299.293 2.25195 230.19 2.42994 234.239 2.42994L286.033 113.182Z" fill="#F5F5F5"/>
<path d="M323.206 201.686L323.091 202.398L323.393 201.775L323.367 201.517L323.206 201.686Z" fill="#F5F5F5"/>
<path d="M323.483 201.472L323.499 201.488V201.472H323.483Z" fill="#F5F5F5"/>
<path d="M501.371 126.077C503.738 123.683 632.342 42.8145 632.342 42.8145L634.523 59.9813L501.371 126.077Z" fill="#EBEBEB"/>
<path d="M244.749 79.0705L195.607 7.89355H178.485L244.749 79.0705Z" fill="#EBEBEB"/>
<path d="M10.9907 54.5264V74.8792L99.1386 114.366L10.9907 54.5264Z" fill="#EBEBEB"/>
<path d="M30.9703 404.252C33.6401 402.926 100.314 365.148 100.314 365.148L52.8449 411.541L30.9703 404.252Z" fill="#EBEBEB"/>
<path d="M160.428 87.1598L153.033 83.164L145.54 86.9908L147.061 78.7144L141.108 72.7785L149.437 71.6661L153.246 64.1729L156.886 71.7551L165.189 73.0544L159.102 78.8568L160.428 87.1598Z" fill="#E0E0E0"/>
<path d="M374.412 43.8113L367.017 39.8155L359.524 43.6422L361.046 35.3658L355.092 29.43L363.422 28.3176L367.231 20.8154L370.871 28.3977L379.174 29.7059L373.087 35.5082L374.412 43.8113Z" fill="#E0E0E0"/>
<path d="M170.423 375.222L163.027 371.218L155.534 375.053L157.056 366.777L151.102 360.841L159.432 359.729L163.241 352.227L166.881 359.809L175.184 361.117L169.097 366.919L170.423 375.222Z" fill="#E0E0E0"/>
<path d="M486.936 372.17L479.532 368.165L472.047 371.992L473.56 363.724L467.606 357.788L475.945 356.676L479.754 349.174L483.385 356.756L491.697 358.064L485.601 363.858L486.936 372.17Z" fill="#E0E0E0"/>
<path d="M106 93.1233L102.164 91.0497L98.2843 93.0343L99.0764 88.7448L95.9883 85.6656L100.304 85.0871L102.28 81.207L104.167 85.1316L108.465 85.808L105.315 88.816L106 93.1233Z" fill="#E0E0E0"/>
<path d="M211.048 393.191L207.213 391.117L203.333 393.102L204.116 388.812L201.028 385.733L205.353 385.155L207.328 381.274L209.206 385.208L213.513 385.875L210.354 388.883L211.048 393.191Z" fill="#E0E0E0"/>
<path d="M441.834 326.526L437.999 324.452L434.119 326.428L434.911 322.147L431.823 319.068L436.139 318.489L438.114 314.609L440.001 318.534L444.308 319.21L441.149 322.218L441.834 326.526Z" fill="#E0E0E0"/>
<path d="M533.631 91.343L529.795 89.2694L525.915 91.254L526.707 86.9734L523.619 83.8942L527.935 83.3158L529.911 79.4268L531.797 83.3603L536.105 84.0366L532.945 87.0446L533.631 91.343Z" fill="#E0E0E0"/>
<path d="M625.339 116.777H472.6V329.08H625.339V116.777Z" fill="white"/>
<path d="M625.339 116.777H472.6V193.623H625.339V116.777Z" fill="#2FABC0"/>
<path d="M598.89 212.454C598.89 212.588 577.888 212.694 551.991 212.694C526.094 212.694 505.091 212.588 505.091 212.454C505.091 212.321 526.085 212.223 551.991 212.223C577.897 212.223 598.89 212.303 598.89 212.454Z" fill="#263238"/>
<path d="M598.89 233.128C598.89 233.252 577.888 233.359 551.991 233.359C526.094 233.359 505.091 233.252 505.091 233.128C505.091 233.003 526.085 232.896 551.991 232.896C577.897 232.896 598.89 233.003 598.89 233.128Z" fill="#263238"/>
<path d="M598.89 253.827C598.89 253.952 577.888 254.059 551.991 254.059C526.094 254.059 505.091 253.952 505.091 253.827C505.091 253.703 526.085 253.587 551.991 253.587C577.897 253.587 598.89 253.694 598.89 253.827Z" fill="#263238"/>
<path d="M598.498 277.687H506.755C497.731 277.687 490.415 285.002 490.415 294.026V295.725C490.415 304.749 497.731 312.065 506.755 312.065H598.498C607.522 312.065 614.837 304.749 614.837 295.725V294.026C614.837 285.002 607.522 277.687 598.498 277.687Z" fill="#2FABC0"/>
<path d="M518.396 169.301C519.048 169.564 519.601 170.023 519.981 170.615C520.36 171.206 520.547 171.901 520.514 172.603C520.532 173.303 520.343 173.994 519.971 174.587C519.582 175.163 519.035 175.614 518.396 175.887C517.639 176.208 516.824 176.366 516.002 176.349H514.222V179.019H511.348V168.847H515.993C516.818 168.823 517.637 168.977 518.396 169.301ZM517.168 173.697C517.452 173.402 517.611 173.008 517.611 172.598C517.611 172.188 517.452 171.794 517.168 171.499C516.786 171.21 516.311 171.07 515.833 171.108H514.231V174.08H515.86C516.327 174.109 516.79 173.973 517.168 173.697Z" fill="white"/>
<path d="M526.351 176.305H524.758V178.975H521.91V168.847H526.538C527.36 168.827 528.176 168.985 528.932 169.31C529.396 169.531 529.809 169.846 530.145 170.234C530.481 170.623 530.733 171.077 530.884 171.568C531.036 172.059 531.084 172.577 531.025 173.087C530.966 173.598 530.802 174.09 530.542 174.534C530.179 175.091 529.667 175.535 529.065 175.816L531.254 179.011H528.175L526.351 176.305ZM527.721 171.499C527.339 171.21 526.864 171.071 526.386 171.108H524.758V174.08H526.36C526.836 174.115 527.309 173.98 527.694 173.698C527.979 173.402 528.138 173.008 528.138 172.599C528.138 172.189 527.979 171.795 527.694 171.499H527.721Z" fill="white"/>
<path d="M540.777 176.786V179.002H532.616V168.848H540.626V171.072H535.5V172.781H540.012V174.935H535.5V176.795L540.777 176.786Z" fill="white"/>
<path d="M551.581 179.002V173.662L548.965 178.05H547.692L545.094 173.805V179.046H542.424V168.848H544.791L548.351 174.712L551.83 168.848H554.198V179.011L551.581 179.002Z" fill="white"/>
<path d="M556.262 168.848H559.136V179.011H556.262V168.848Z" fill="white"/>
<path d="M562.35 177.969C561.913 177.503 561.576 176.952 561.36 176.351C561.144 175.749 561.054 175.11 561.095 174.472V168.848H563.97V174.392C563.97 176.021 564.61 176.83 565.901 176.83C567.191 176.83 567.814 176.021 567.814 174.392V168.848H570.644V174.481C570.685 175.119 570.595 175.758 570.379 176.36C570.164 176.961 569.827 177.512 569.389 177.978C568.391 178.779 567.149 179.216 565.87 179.216C564.59 179.216 563.348 178.779 562.35 177.978V177.969Z" fill="white"/>
<path d="M581.768 179.002V173.662L579.16 178.05H577.879L575.28 173.805V179.046H572.61V168.848H574.977L578.537 174.712L582.017 168.848H584.384V179.011L581.768 179.002Z" fill="white"/>
<path d="M529.324 298.35C528.557 297.942 527.922 297.325 527.491 296.571C527.048 295.805 526.815 294.936 526.815 294.052C526.815 293.168 527.048 292.299 527.491 291.534C527.93 290.797 528.565 290.197 529.324 289.798C530.146 289.364 531.065 289.146 531.994 289.166C532.755 289.152 533.511 289.301 534.21 289.602C534.859 289.874 535.433 290.299 535.883 290.839L534.477 292.139C534.19 291.787 533.827 291.504 533.416 291.312C533.004 291.119 532.555 291.021 532.101 291.026C531.553 291.019 531.014 291.154 530.534 291.418C530.083 291.666 529.71 292.036 529.458 292.486C529.201 292.968 529.069 293.506 529.075 294.052C529.067 294.598 529.199 295.137 529.458 295.618C529.707 296.072 530.08 296.446 530.534 296.695C531.014 296.957 531.554 297.089 532.101 297.078C532.556 297.083 533.006 296.985 533.418 296.79C533.829 296.596 534.191 296.311 534.477 295.957L535.883 297.256C535.433 297.801 534.859 298.231 534.21 298.511C533.502 298.803 532.742 298.948 531.976 298.938C531.056 298.971 530.144 298.769 529.324 298.35Z" fill="white"/>
<path d="M543.749 292.255C544.045 292.577 544.273 292.956 544.417 293.369C544.561 293.783 544.618 294.221 544.585 294.658V298.778H542.476V294.942C542.512 294.484 542.379 294.028 542.102 293.661C541.962 293.515 541.791 293.401 541.602 293.327C541.413 293.254 541.21 293.222 541.008 293.234C540.773 293.222 540.539 293.259 540.32 293.344C540.101 293.428 539.901 293.557 539.735 293.723C539.394 294.133 539.225 294.659 539.264 295.191V298.751H537.154V288.802H539.264V292.308C539.552 292.024 539.898 291.806 540.278 291.667C540.691 291.514 541.128 291.439 541.569 291.445C541.968 291.426 542.367 291.488 542.741 291.627C543.116 291.766 543.459 291.98 543.749 292.255Z" fill="white"/>
<path d="M547.968 298.449C547.378 298.146 546.885 297.683 546.544 297.114C546.206 296.527 546.028 295.861 546.028 295.183C546.028 294.505 546.206 293.839 546.544 293.252C546.886 292.686 547.379 292.227 547.968 291.926C548.607 291.61 549.31 291.445 550.023 291.445C550.737 291.445 551.44 291.61 552.079 291.926C552.664 292.228 553.154 292.688 553.494 293.252C553.832 293.839 554.01 294.505 554.01 295.183C554.01 295.861 553.832 296.527 553.494 297.114C553.156 297.682 552.666 298.144 552.079 298.449C551.438 298.76 550.736 298.921 550.023 298.921C549.311 298.921 548.609 298.76 547.968 298.449ZM551.358 296.669C551.718 296.267 551.903 295.739 551.874 295.201C551.89 294.936 551.852 294.67 551.763 294.419C551.675 294.169 551.537 293.938 551.358 293.741C551.183 293.566 550.975 293.427 550.746 293.332C550.517 293.237 550.271 293.188 550.023 293.188C549.775 293.188 549.53 293.237 549.301 293.332C549.072 293.427 548.864 293.566 548.689 293.741C548.507 293.937 548.367 294.167 548.277 294.417C548.187 294.668 548.148 294.935 548.163 295.201C548.149 295.468 548.188 295.736 548.278 295.988C548.368 296.24 548.508 296.472 548.689 296.669C549.046 297.017 549.525 297.212 550.023 297.212C550.522 297.212 551.001 297.017 551.358 296.669Z" fill="white"/>
<path d="M556.796 298.449C556.208 298.143 555.715 297.681 555.372 297.114C555.04 296.525 554.865 295.859 554.865 295.183C554.865 294.506 555.04 293.841 555.372 293.252C555.714 292.686 556.208 292.227 556.796 291.926C557.435 291.599 558.144 291.434 558.861 291.445C559.572 291.432 560.276 291.597 560.908 291.926C561.496 292.227 561.989 292.686 562.331 293.252C562.664 293.841 562.838 294.506 562.838 295.183C562.838 295.859 562.664 296.525 562.331 297.114C561.988 297.681 561.496 298.143 560.908 298.449C560.274 298.77 559.571 298.932 558.861 298.921C558.145 298.932 557.436 298.77 556.796 298.449ZM560.187 296.669C560.549 296.268 560.737 295.74 560.712 295.201C560.725 294.935 560.686 294.669 560.596 294.418C560.505 294.168 560.366 293.937 560.187 293.741C560.016 293.562 559.81 293.421 559.582 293.326C559.354 293.231 559.108 293.184 558.861 293.189C558.612 293.183 558.365 293.229 558.135 293.324C557.905 293.419 557.697 293.561 557.526 293.741C557.343 293.936 557.201 294.165 557.109 294.416C557.018 294.667 556.978 294.934 556.992 295.201C556.978 295.469 557.019 295.737 557.11 295.989C557.202 296.241 557.343 296.472 557.526 296.669C557.698 296.848 557.906 296.988 558.136 297.082C558.366 297.175 558.613 297.219 558.861 297.212C559.11 297.217 559.358 297.17 559.588 297.073C559.818 296.977 560.025 296.833 560.196 296.651L560.187 296.669Z" fill="white"/>
<path d="M564.929 298.698C564.441 298.592 563.974 298.402 563.55 298.137L564.253 296.624C564.615 296.854 565.012 297.026 565.428 297.132C565.867 297.261 566.323 297.327 566.78 297.327C567.67 297.327 568.115 297.114 568.115 296.669C568.112 296.565 568.075 296.465 568.009 296.384C567.943 296.304 567.852 296.248 567.751 296.224C567.386 296.107 567.01 296.029 566.629 295.993C566.133 295.924 565.642 295.82 565.161 295.681C564.775 295.569 564.427 295.353 564.155 295.058C563.854 294.708 563.701 294.255 563.728 293.794C563.721 293.355 563.862 292.925 564.128 292.575C564.427 292.193 564.829 291.903 565.285 291.739C565.856 291.534 566.459 291.435 567.065 291.445C567.58 291.444 568.094 291.501 568.596 291.614C569.038 291.705 569.464 291.861 569.86 292.077L569.157 293.581C568.52 293.218 567.798 293.031 567.065 293.038C566.717 293.017 566.369 293.081 566.051 293.225C565.955 293.267 565.872 293.336 565.813 293.422C565.753 293.508 565.718 293.61 565.713 293.714C565.713 293.822 565.749 293.927 565.815 294.012C565.881 294.097 565.973 294.159 566.077 294.186C566.454 294.307 566.842 294.394 567.234 294.444C567.726 294.521 568.214 294.625 568.694 294.756C569.072 294.869 569.413 295.081 569.682 295.37C569.975 295.716 570.125 296.162 570.1 296.616C570.107 297.05 569.965 297.474 569.699 297.817C569.387 298.193 568.978 298.476 568.516 298.636C567.924 298.841 567.3 298.937 566.674 298.92C566.085 298.92 565.499 298.846 564.929 298.698Z" fill="white"/>
<path d="M578.492 295.779H573.002C573.088 296.213 573.34 296.596 573.705 296.847C574.112 297.118 574.594 297.255 575.084 297.238C575.426 297.241 575.767 297.184 576.09 297.069C576.392 296.947 576.668 296.765 576.899 296.535L578.021 297.746C577.641 298.151 577.175 298.466 576.658 298.67C576.141 298.873 575.585 298.958 575.031 298.92C574.277 298.934 573.531 298.772 572.85 298.449C572.247 298.15 571.741 297.688 571.391 297.114C571.059 296.526 570.884 295.862 570.884 295.187C570.884 294.512 571.059 293.848 571.391 293.26C571.722 292.696 572.202 292.234 572.779 291.925C573.384 291.618 574.054 291.458 574.732 291.458C575.411 291.458 576.08 291.618 576.686 291.925C577.255 292.226 577.728 292.683 578.047 293.242C578.384 293.852 578.553 294.54 578.537 295.236C578.537 295.236 578.528 295.423 578.492 295.779ZM573.571 293.438C573.238 293.72 573.025 294.118 572.975 294.551H576.535C576.482 294.121 576.269 293.727 575.938 293.447C575.606 293.172 575.186 293.026 574.755 293.038C574.325 293.024 573.904 293.166 573.571 293.438Z" fill="white"/>
<path d="M495.551 216.29C495.224 216.294 494.907 216.177 494.661 215.961L492.044 213.656C491.779 213.42 491.618 213.088 491.597 212.733C491.576 212.379 491.697 212.03 491.933 211.765C492.169 211.499 492.501 211.338 492.856 211.318C493.21 211.297 493.559 211.418 493.824 211.654L495.453 213.086L499.137 209.011C499.379 208.769 499.703 208.63 500.045 208.621C500.386 208.611 500.718 208.733 500.972 208.961C501.226 209.189 501.383 209.506 501.411 209.846C501.439 210.186 501.335 210.524 501.122 210.79L496.547 215.836C496.423 215.978 496.27 216.092 496.098 216.17C495.926 216.248 495.74 216.289 495.551 216.29Z" fill="#455A64"/>
<path d="M495.55 236.981C495.223 236.985 494.906 236.868 494.66 236.652L492.044 234.356C491.912 234.239 491.804 234.097 491.727 233.939C491.65 233.78 491.604 233.608 491.594 233.432C491.572 233.077 491.692 232.727 491.928 232.46C492.164 232.194 492.497 232.032 492.852 232.01C493.208 231.988 493.557 232.109 493.824 232.345L495.453 233.777L499.137 229.71C499.25 229.569 499.392 229.452 499.552 229.367C499.712 229.282 499.888 229.23 500.069 229.215C500.25 229.201 500.432 229.223 500.604 229.281C500.776 229.339 500.934 229.431 501.069 229.552C501.204 229.673 501.313 229.821 501.39 229.985C501.466 230.15 501.508 230.329 501.512 230.51C501.517 230.691 501.485 230.872 501.418 231.04C501.351 231.209 501.25 231.362 501.121 231.49L496.547 236.536C496.423 236.678 496.269 236.791 496.097 236.868C495.925 236.944 495.739 236.983 495.55 236.981Z" fill="#455A64"/>
<path d="M495.551 257.681C495.224 257.685 494.907 257.567 494.661 257.352L492.044 255.047C491.779 254.811 491.618 254.479 491.597 254.124C491.576 253.769 491.697 253.421 491.933 253.156C492.169 252.89 492.501 252.729 492.856 252.708C493.21 252.687 493.559 252.808 493.824 253.044L495.453 254.477L499.137 250.401C499.379 250.16 499.703 250.02 500.045 250.011C500.386 250.002 500.718 250.124 500.972 250.352C501.226 250.58 501.383 250.896 501.411 251.237C501.439 251.577 501.335 251.915 501.122 252.181L496.547 257.227C496.423 257.369 496.27 257.483 496.098 257.561C495.926 257.639 495.74 257.68 495.551 257.681Z" fill="#455A64"/>
<path d="M558.069 137.309L560.267 141.767L565.197 142.488L561.629 145.959L562.474 150.862L558.069 148.548L553.664 150.862L554.5 145.959L550.941 142.488L555.862 141.767L558.069 137.309Z" fill="white"/>
<path d="M540.76 137.309L542.967 141.767L547.888 142.488L544.329 145.959L545.165 150.862L540.76 148.548L536.355 150.862L537.2 145.959L533.632 142.488L538.562 141.767L540.76 137.309Z" fill="white"/>
<path d="M554.758 155.694L548.964 152.571L543.117 155.561L544.301 149.1L539.646 144.455L546.161 143.582L549.133 137.718L551.981 143.645L558.478 144.668L553.716 149.207L554.758 155.694Z" fill="white"/>
<path d="M538.499 144.063L545.814 143.093L549.151 136.517L552.337 143.164L559.626 144.312L554.286 149.394L555.452 156.683L548.965 153.176L542.397 156.531L543.723 149.278L538.499 144.063ZM557.33 145.024L551.625 144.134L549.125 138.919L546.508 144.072L540.777 144.82L544.862 148.896L543.83 154.609L548.973 151.939L554.055 154.689L553.165 148.985L557.33 145.024Z" fill="#455A64"/>
<path d="M625.321 329.08C625.321 327.211 625.232 242.267 625.108 116.778L625.321 116.991H472.6L472.831 116.76C472.831 196.195 472.831 269.695 472.831 329.062L472.644 328.875L625.383 329.062L472.644 329.249H472.448V329.062C472.448 269.695 472.448 196.195 472.448 116.76V116.528H472.697H625.419H625.624V116.733C625.419 242.267 625.321 327.256 625.321 329.08Z" fill="#263238"/>
<path d="M501.896 89.7681C502.364 88.9056 502.655 87.9584 502.752 86.9821C502.849 86.0057 502.749 85.0199 502.46 84.0823C502.171 83.1448 501.697 82.2745 501.067 81.5225C500.437 80.7704 499.663 80.1518 498.79 79.7029C499.07 77.2924 498.41 74.8671 496.948 72.93C495.487 70.9929 493.336 69.6929 490.941 69.2996C488.645 69.0237 486.322 69.6289 484.018 69.4509C481.713 69.2729 479.719 68.383 477.53 67.9825C475.341 67.582 472.822 67.8134 471.3 69.4509C469.636 71.2307 469.885 74.2476 471.211 76.339C472.537 78.4303 474.673 79.8186 476.747 81.1535C476.125 81.1524 475.524 81.3775 475.055 81.7868C474.587 82.1962 474.284 82.7618 474.202 83.3783C474.072 84.6428 474.414 85.9107 475.163 86.9381C476.293 88.6711 477.88 90.0584 479.749 90.9472C481.617 91.836 483.695 92.1917 485.753 91.9751L491.564 91.806C492.373 92.3609 493.284 92.7487 494.245 92.9467C495.206 93.1448 496.196 93.149 497.159 92.9592C498.121 92.7694 499.036 92.3893 499.849 91.8414C500.663 91.2934 501.359 90.5885 501.896 89.7681Z" fill="#263238"/>
<path d="M483.537 95.5073C482.94 95.5605 482.344 95.3908 481.864 95.031C481.384 94.6712 481.055 94.1467 480.938 93.5584C480.847 92.9638 480.921 92.3556 481.151 91.8C481.382 91.2445 481.761 90.763 482.247 90.408C483.239 89.727 484.438 89.4124 485.637 89.5181C486.833 89.6194 488.008 89.8921 489.126 90.3279C490.884 90.9065 492.567 91.6953 494.136 92.6774C494.703 93.0089 495.189 93.4617 495.56 94.0034C495.744 94.2765 495.851 94.5943 495.87 94.9231C495.889 95.252 495.819 95.5799 495.667 95.8722C495.186 96.6554 494.109 96.7622 493.193 96.7622C489.753 96.7779 486.318 96.48 482.932 95.8722" fill="#FF725E"/>
<path d="M481.623 93.5499C480.938 87.0355 471.745 81.1887 467.776 82.2299C466.765 80.3506 465.07 78.9324 463.042 78.2696C461.014 77.6068 458.808 77.7502 456.883 78.6702L446.061 73.8734C444.21 73.0547 442.27 72.2093 440.259 72.3872C438.248 72.5652 436.201 74.1671 436.272 76.1695C432.365 74.6121 427.48 78.5545 428.192 82.7105C427.609 82.8431 427.06 83.0935 426.577 83.4463C426.095 83.7992 425.69 84.247 425.388 84.7622C425.085 85.2774 424.891 85.8491 424.818 86.4421C424.744 87.0351 424.793 87.6368 424.961 88.2103C420.109 89.4116 415.498 91.4343 411.327 94.1906C409.547 95.3386 407.83 96.7536 407.26 98.756C406.691 100.758 407.963 103.375 410.046 103.393C409.113 103.704 408.289 104.277 407.674 105.044C407.058 105.811 406.677 106.739 406.575 107.718C404.964 106.596 402.704 108.688 402.953 110.637C403.202 112.586 404.866 113.992 406.468 115.086C408.07 116.181 409.841 117.373 410.482 119.224C410.327 119.409 410.135 119.561 409.919 119.669C409.704 119.778 409.468 119.842 409.227 119.856C404.902 120.07 401.351 123.3 401.298 127.625C401.298 128.026 401.298 128.4 401.298 128.729C401.298 130.705 402.65 133.552 403.523 135.314C405.721 139.764 408.106 141.001 411.665 144.499C408.693 146.278 410.989 156.708 422.496 156.548C434.35 171.357 443.899 180.683 459.161 191.941C461.342 193.552 464.18 195.18 466.583 193.934C468.007 195.714 470.517 196.284 472.768 195.963C474.996 195.505 477.129 194.671 479.078 193.498C481.366 194.333 483.856 194.439 486.206 193.802C488.557 193.164 490.652 191.815 492.204 189.939C494.224 189.868 496.207 189.379 498.027 188.501C499.847 187.623 501.465 186.376 502.777 184.839C507.271 186.414 512.789 183.131 513.554 178.432C516.075 173.338 517.735 167.862 518.466 162.226C521.368 163.516 524.785 160.838 525.479 157.732C526.173 154.626 524.998 151.502 523.842 148.503C525.354 150.372 528.71 149.215 529.644 147.008C530.578 144.801 529.84 142.256 528.905 140.04C527.547 136.791 525.799 133.719 523.699 130.891C525.221 126.949 523.762 120.105 521.75 116.386C513.634 101.372 506.007 93.4876 481.641 93.4698" fill="#263238"/>
<path d="M455.397 104.692C456.226 103.36 457.527 102.391 459.04 101.977C460.553 101.563 462.166 101.735 463.558 102.458L495.925 113.671C505.429 118.566 504.157 133.383 498.861 142.674C492.979 152.997 485.397 165.367 479.372 171.989C467.251 185.338 452.781 178.271 452.781 178.271L445.661 189.004L437.429 201.561C433.674 198.072 410.909 173.581 410.909 173.581L455.397 104.692Z" fill="#FFBF9D"/>
<path d="M469.129 154.501C469.191 154.377 470.615 154.991 472.857 156.085C473.418 156.379 473.979 156.602 474.299 156.299C474.699 155.787 474.934 155.167 474.975 154.519C475.314 152.929 475.67 151.259 476.043 149.509C477.619 142.389 479.122 136.72 479.407 136.783C479.692 136.845 478.651 142.656 477.076 149.749C476.675 151.529 476.292 153.149 475.919 154.742C475.835 155.59 475.453 156.381 474.842 156.975C474.645 157.109 474.42 157.197 474.184 157.231C473.948 157.265 473.707 157.244 473.48 157.171C473.139 157.061 472.813 156.908 472.51 156.717C470.357 155.498 469.057 154.608 469.129 154.501Z" fill="#263238"/>
<path d="M452.781 178.263C452.781 178.263 444.184 173.814 438.177 161.354C438.177 161.354 433.309 174 449.372 183.398L452.781 178.263Z" fill="#FF9A6C"/>
<path d="M476.702 126.22C476.132 126.647 474.255 125.036 471.656 123.746C469.057 122.455 466.681 121.832 466.69 121.129C466.69 120.791 467.384 120.489 468.523 120.462C470.006 120.489 471.462 120.852 472.783 121.525C474.104 122.197 475.256 123.16 476.15 124.342C476.755 125.285 476.916 126.015 476.702 126.22Z" fill="#263238"/>
<path d="M496.005 139.711C495.337 139.942 494.225 138.527 492.552 137.388C490.879 136.249 489.214 135.608 489.197 134.941C489.197 134.612 489.739 134.291 490.665 134.265C491.858 134.271 493.019 134.65 493.984 135.35C494.973 136.024 495.729 136.988 496.147 138.109C496.432 138.981 496.28 139.586 496.005 139.711Z" fill="#263238"/>
<path d="M500.338 154.27C501.926 151.943 502.665 149.14 502.429 146.332C502.234 144.819 501.655 143.36 501.62 141.829C501.539 138.527 503.898 135.733 505.081 132.654C505.826 130.653 506.083 128.503 505.831 126.382C505.579 124.262 504.824 122.232 503.631 120.462C501.62 117.543 498.46 115.46 496.903 112.283C495.746 109.934 495.559 107.175 494.233 104.906C491.715 100.456 485.966 99.2457 480.884 98.8008C478.143 101.115 478.214 104.843 478.214 108.43C478.237 110.223 478.646 111.99 479.414 113.61C480.182 115.231 481.29 116.666 482.664 117.819C484.818 119.599 487.808 120.969 488.235 123.719C488.68 126.611 485.886 129.121 485.85 132.04C485.805 136.222 491.02 138.385 492.711 142.212C494.011 145.157 493.014 148.548 492.444 151.725C491.875 154.902 492.071 158.791 494.776 160.553C496.863 158.678 498.729 156.57 500.338 154.27Z" fill="#263238"/>
<path d="M482.834 107.993C476.305 103.13 468.894 99.5788 461.013 97.5366C458.672 96.9314 456.136 96.4686 453.894 97.3853C451.927 98.1862 450.503 99.9127 449.275 101.657C445.448 107.094 442.849 115.273 441.265 121.752L445.092 130.651C451.17 133.17 455.255 122.49 458.254 117.818C460.656 118.297 463.143 118.092 465.434 117.226C467.725 116.361 469.726 114.87 471.212 112.924C473.395 113.032 475.575 112.645 477.588 111.791C479.601 110.937 481.394 109.639 482.834 107.993Z" fill="#263238"/>
<path d="M446.445 128.649C448.474 125.41 445.11 122.073 441.31 121.752C439.227 121.574 436.86 122.509 434.697 125.926C428.895 135.021 439.227 138.981 439.414 138.723C439.601 138.465 444.068 132.431 446.445 128.649Z" fill="#FFBF9D"/>
<path d="M438.827 133.508C438.827 133.446 438.596 133.508 438.249 133.508C437.768 133.431 437.337 133.169 437.047 132.778C436.308 131.808 436.478 129.771 437.474 128.097C437.951 127.303 438.598 126.625 439.37 126.113C439.636 125.884 439.955 125.723 440.297 125.644C440.64 125.564 440.997 125.57 441.337 125.659C441.55 125.726 441.733 125.867 441.854 126.055C441.974 126.244 442.024 126.469 441.995 126.691C441.995 127.021 441.782 127.163 441.826 127.216C441.871 127.27 442.111 127.216 442.28 126.763C442.37 126.503 442.37 126.221 442.28 125.962C442.149 125.613 441.887 125.329 441.55 125.17C441.129 125.008 440.674 124.956 440.227 125.019C439.781 125.081 439.357 125.255 438.996 125.526C438.102 126.064 437.356 126.817 436.825 127.715C435.712 129.584 435.552 131.897 436.629 133.117C436.828 133.343 437.075 133.522 437.352 133.641C437.629 133.759 437.93 133.814 438.231 133.802C438.667 133.713 438.845 133.544 438.827 133.508Z" fill="#FF9A6C"/>
<path d="M435.195 136.48C435.195 136.48 435.195 136.48 435.088 136.578C434.982 136.675 434.862 136.756 434.732 136.819C434.213 137.075 433.62 137.138 433.059 136.997C432.164 136.805 431.318 136.429 430.576 135.893C430.098 135.565 429.651 135.192 429.241 134.781C428.76 134.326 428.355 133.797 428.04 133.214H428.182C427.53 133.87 426.718 134.345 425.827 134.592C424.935 134.84 423.995 134.852 423.098 134.627C422.201 134.401 421.377 133.947 420.709 133.308C420.04 132.669 419.549 131.867 419.283 130.981L419.452 131.061C418.899 131.263 418.289 131.241 417.752 130.998C417.21 130.754 416.75 130.358 416.426 129.859C416.078 129.334 415.912 128.708 415.955 128.079C415.998 127.445 416.203 126.832 416.551 126.3C417.274 125.219 418.355 124.428 419.603 124.066C420.883 123.716 422.201 123.521 423.528 123.487L423.403 123.701C423.205 123.21 423.112 122.683 423.13 122.154C423.149 121.625 423.278 121.106 423.51 120.631C423.962 119.64 424.696 118.805 425.619 118.228C426.576 117.673 427.63 117.307 428.725 117.151C429.828 116.993 430.94 116.907 432.054 116.893L431.902 117.08C431.832 116.517 431.881 115.945 432.046 115.402C432.212 114.859 432.49 114.357 432.863 113.929C433.609 113.029 434.607 112.372 435.729 112.043C437.883 111.42 440.09 111.803 442.136 112.141L441.958 112.247C442.382 111.166 443.063 110.205 443.943 109.448C444.822 108.69 445.874 108.159 447.006 107.901C448.138 107.643 449.316 107.666 450.437 107.967C451.558 108.269 452.589 108.84 453.439 109.631L453.198 109.684C453.598 108.831 454.189 108.08 454.925 107.491C455.661 106.901 456.523 106.489 457.443 106.285C458.292 106.064 459.178 106.029 460.041 106.182C460.905 106.336 461.725 106.675 462.445 107.175H462.258C462.815 106.445 463.531 105.851 464.351 105.438C465.171 105.025 466.074 104.803 466.992 104.79C467.796 104.752 468.598 104.877 469.352 105.156C470.106 105.436 470.796 105.866 471.38 106.418H471.211C471.833 105.657 472.634 105.061 473.542 104.683C474.327 104.329 475.167 104.113 476.025 104.042C477.396 103.89 478.778 104.204 479.95 104.932L480.288 105.146C480.395 105.226 480.493 105.315 480.582 105.395C480.758 105.54 480.928 105.695 481.089 105.858C481.332 106.119 481.555 106.399 481.756 106.694C481.899 106.935 482.006 107.121 482.095 107.255L482.201 107.451C482.151 107.396 482.106 107.337 482.068 107.273L481.703 106.73C481.497 106.444 481.271 106.173 481.027 105.92C480.867 105.761 480.698 105.612 480.519 105.475L480.226 105.235L479.887 105.03C478.728 104.349 477.378 104.067 476.043 104.229C475.205 104.314 474.387 104.536 473.622 104.888C472.748 105.252 471.98 105.83 471.389 106.57L471.309 106.668L471.228 106.579C470.665 106.05 469.999 105.642 469.272 105.379C468.546 105.115 467.773 105.003 467.001 105.048C466.112 105.072 465.24 105.3 464.452 105.715C463.665 106.13 462.984 106.721 462.463 107.442L462.382 107.558L462.276 107.477C461.583 107.008 460.798 106.695 459.973 106.558C459.148 106.421 458.303 106.465 457.497 106.685C456.621 106.881 455.801 107.274 455.1 107.836C454.4 108.397 453.838 109.112 453.456 109.925L453.367 110.121L453.216 109.978C452.399 109.231 451.414 108.694 450.344 108.411C449.274 108.129 448.151 108.11 447.072 108.357C445.993 108.604 444.99 109.109 444.149 109.828C443.308 110.547 442.654 111.46 442.243 112.488V112.612H442.11C440.063 112.274 437.909 111.909 435.88 112.506C434.834 112.822 433.905 113.441 433.21 114.285C432.865 114.678 432.607 115.14 432.454 115.64C432.3 116.141 432.255 116.668 432.321 117.187V117.365H432.134C429.927 117.427 427.684 117.543 425.86 118.646C424.987 119.183 424.293 119.967 423.866 120.898C423.651 121.334 423.529 121.81 423.509 122.296C423.489 122.782 423.572 123.267 423.75 123.719L423.839 123.923H423.617C422.314 123.953 421.02 124.141 419.764 124.484C418.578 124.818 417.55 125.563 416.862 126.584C416.524 127.044 416.33 127.594 416.305 128.165C416.279 128.735 416.424 129.3 416.72 129.788C416.98 130.253 417.39 130.616 417.883 130.818C418.376 131.02 418.923 131.049 419.434 130.901L419.559 130.856L419.603 130.99C419.896 131.901 420.433 132.716 421.157 133.343C421.88 133.971 422.762 134.388 423.706 134.549C424.506 134.67 425.324 134.605 426.095 134.36C426.867 134.114 427.572 133.695 428.156 133.134L428.245 133.045L428.298 133.152C428.601 133.72 428.988 134.239 429.446 134.692C429.846 135.1 430.284 135.469 430.754 135.795C431.477 136.331 432.3 136.715 433.175 136.925C433.719 137.068 434.296 137.024 434.812 136.801C435.044 136.605 435.186 136.463 435.195 136.48Z" fill="#455A64"/>
<path d="M408.667 103.073C408.655 102.816 408.673 102.56 408.72 102.307C408.839 101.573 409.106 100.871 409.503 100.243C410.124 99.2273 411.063 98.4452 412.173 98.0179C412.92 97.7404 413.716 97.6216 414.512 97.6691C415.307 97.7166 416.084 97.9293 416.792 98.2938H416.65C417.432 96.5984 418.828 95.2627 420.556 94.5561C421.509 94.1468 422.537 93.9465 423.573 93.9687C424.658 94.0696 425.731 94.2722 426.777 94.5739C427.313 94.7014 427.865 94.7494 428.415 94.7163C428.971 94.676 429.511 94.5053 429.99 94.2179C430.986 93.6662 431.823 92.7673 432.962 92.2156C434.158 91.6752 435.488 91.5059 436.781 91.7296C438.074 91.9533 439.27 92.5597 440.215 93.4704H439.957C440.572 92.2992 441.447 91.285 442.517 90.5064C443.586 89.7279 444.82 89.2057 446.123 88.9803C447.427 88.7549 448.764 88.8323 450.033 89.2066C451.302 89.5809 452.467 90.242 453.44 91.1388H453.19C453.912 89.8807 454.979 88.856 456.266 88.1861C457.552 87.5163 459.004 87.2295 460.448 87.3597C461.893 87.4899 463.269 88.0317 464.415 88.9208C465.561 89.8098 466.428 91.0089 466.913 92.3758L466.762 92.2868C468.237 92.0808 469.74 92.1962 471.167 92.6249C472.444 92.9837 473.67 93.504 474.816 94.1734C476.691 95.2319 478.361 96.6184 479.746 98.2671C480.65 99.3077 481.377 100.489 481.9 101.765C482.039 102.099 482.152 102.445 482.238 102.797C482.276 102.913 482.305 103.032 482.327 103.153C482.327 103.153 482.184 102.672 481.828 101.8C481.275 100.55 480.533 99.3916 479.63 98.365C478.239 96.7526 476.573 95.3997 474.709 94.3692C473.575 93.7126 472.361 93.2069 471.096 92.8652C469.704 92.4598 468.242 92.3537 466.806 92.5537H466.7V92.447C466.22 91.1439 465.378 90.005 464.274 89.1641C463.169 88.3232 461.847 87.8154 460.463 87.7004C459.079 87.5854 457.692 87.868 456.463 88.515C455.235 89.1619 454.217 90.1463 453.529 91.3523L453.431 91.5303L453.279 91.3968C452.341 90.5194 451.212 89.8714 449.981 89.5037C448.75 89.136 447.451 89.0586 446.185 89.2776C444.919 89.4967 443.721 90.0061 442.685 90.766C441.65 91.5259 440.804 92.5156 440.215 93.6573L440.108 93.8531L439.957 93.6929C439.057 92.8375 437.923 92.2703 436.699 92.0642C435.475 91.858 434.217 92.0223 433.087 92.5359C432.01 93.0432 431.173 93.9331 430.123 94.5294C429.604 94.8314 429.023 95.0109 428.423 95.0545C427.849 95.0829 427.274 95.0289 426.715 94.8943C425.682 94.5965 424.625 94.3939 423.556 94.2891C422.558 94.2573 421.565 94.4425 420.645 94.832C418.974 95.4981 417.614 96.7689 416.837 98.3917L416.783 98.4985L416.685 98.4451C416.005 98.0888 415.258 97.8779 414.492 97.8258C413.726 97.7738 412.958 97.8816 412.236 98.1425C411.137 98.5403 410.199 99.2875 409.566 100.269C409.167 100.882 408.89 101.564 408.747 102.281C408.685 102.806 408.685 103.073 408.667 103.073Z" fill="#455A64"/>
<path d="M490.514 165.848C490.537 165.696 490.593 165.55 490.678 165.422C490.762 165.293 490.873 165.183 491.003 165.1C491.312 164.897 491.667 164.774 492.035 164.745C492.536 164.727 493.035 164.808 493.504 164.985C494.075 165.206 494.674 165.347 495.284 165.403C496.006 165.394 496.705 165.15 497.277 164.709C497.948 164.211 498.514 163.585 498.941 162.867C499.431 162.128 499.831 161.283 500.463 160.464C501.647 158.791 503.56 157.616 505.304 156.103C506.216 155.332 506.964 154.384 507.502 153.318C507.793 152.767 507.96 152.159 507.994 151.537C508.028 150.915 507.927 150.293 507.698 149.714C507.061 148.538 506.284 147.445 505.384 146.456C504.936 145.899 504.584 145.27 504.343 144.596C504.127 143.89 504.09 143.14 504.236 142.416C504.612 140.997 505.137 139.622 505.803 138.313C506.105 137.65 506.306 136.945 506.399 136.222C506.472 135.501 506.306 134.776 505.927 134.158C505.287 133.38 504.555 132.684 503.747 132.084C503.349 131.744 503.009 131.341 502.741 130.891C502.483 130.43 502.354 129.907 502.367 129.379C502.459 128.386 502.693 127.412 503.062 126.486C503.369 125.598 503.481 124.654 503.391 123.719C503.316 122.827 503.056 121.961 502.629 121.175C502.201 120.389 501.615 119.701 500.908 119.153C499.573 118.132 497.901 117.652 496.227 117.809H496.031V117.614C496.308 116.183 496.277 114.709 495.939 113.291C495.601 111.873 494.965 110.543 494.073 109.391C493.324 108.432 492.396 107.628 491.341 107.023C490.451 106.5 489.474 106.138 488.458 105.956C487.021 105.712 485.545 105.885 484.204 106.454C483.849 106.598 483.507 106.771 483.18 106.97L482.922 107.104H482.824L482.905 107.041L483.154 106.881C483.477 106.669 483.82 106.487 484.177 106.338C485.523 105.721 487.022 105.516 488.484 105.751C489.526 105.92 490.527 106.279 491.439 106.81C492.525 107.418 493.483 108.231 494.26 109.204C495.182 110.381 495.842 111.743 496.195 113.196C496.548 114.65 496.586 116.162 496.307 117.631L496.147 117.462C497.894 117.284 499.644 117.777 501.041 118.842C501.794 119.409 502.42 120.127 502.879 120.95C503.339 121.773 503.622 122.682 503.711 123.621C503.803 124.595 503.688 125.578 503.373 126.504C503.018 127.403 502.787 128.346 502.688 129.307C502.702 129.787 502.823 130.258 503.043 130.685C503.264 131.112 503.577 131.483 503.96 131.772C504.799 132.383 505.553 133.101 506.203 133.908C506.617 134.589 506.798 135.385 506.719 136.178C506.63 136.935 506.423 137.674 506.105 138.367C505.449 139.656 504.93 141.01 504.557 142.407C504.412 143.077 504.442 143.773 504.646 144.427C504.875 145.071 505.209 145.672 505.633 146.207C506.55 147.214 507.336 148.333 507.974 149.536C508.24 150.158 508.347 150.837 508.285 151.511C508.226 152.161 508.048 152.794 507.76 153.38C507.207 154.48 506.435 155.455 505.491 156.246C503.711 157.776 501.807 158.915 500.65 160.535C500.071 161.336 499.618 162.173 499.119 162.92C498.652 163.654 498.047 164.292 497.339 164.798C496.732 165.255 495.99 165.499 495.23 165.492C494.618 165.434 494.018 165.284 493.45 165.047C492.998 164.865 492.514 164.774 492.026 164.78C491.67 164.798 491.325 164.905 491.021 165.092C490.766 165.274 490.586 165.543 490.514 165.848Z" fill="#455A64"/>
<path d="M517.256 164.576C517.244 164.499 517.244 164.421 517.256 164.345L517.372 163.677C517.478 163.081 517.638 162.227 517.843 161.132C518.048 160.037 518.333 158.685 518.511 157.101C518.79 155.323 518.562 153.503 517.852 151.85C517.425 150.96 516.793 150.07 516.232 149.18C515.936 148.694 515.706 148.17 515.547 147.623C515.378 147.044 515.353 146.433 515.476 145.843C515.716 144.641 516.446 143.6 516.793 142.426C516.971 141.846 516.971 141.226 516.793 140.646C516.575 140.041 516.259 139.476 515.859 138.973C515.433 138.439 515.058 137.867 514.737 137.264C514.424 136.615 514.318 135.884 514.435 135.173C514.824 133.79 515.399 132.467 516.143 131.239C516.474 130.613 516.671 129.925 516.722 129.219C516.732 128.868 516.673 128.518 516.548 128.19C516.423 127.861 516.234 127.561 515.992 127.306C515.013 126.229 513.491 125.739 512.361 124.636C511.803 124.058 511.439 123.321 511.32 122.527C511.231 121.767 511.231 120.999 511.32 120.24C511.382 119.492 511.462 118.753 511.453 118.032C511.462 117.329 511.293 116.634 510.964 116.012C510.27 114.775 508.899 114.179 507.636 113.654C506.309 113.217 505.093 112.494 504.076 111.536C503.228 110.531 502.574 109.379 502.145 108.136C501.781 106.973 501.307 105.846 500.73 104.772C499.461 102.996 497.697 101.634 495.657 100.857C493.984 100.197 492.182 99.9265 490.389 100.065C489.035 100.183 487.708 100.51 486.455 101.035C485.668 101.378 484.911 101.789 484.195 102.263L483.625 102.619L483.421 102.735L483.607 102.592L484.159 102.201C484.868 101.704 485.622 101.275 486.411 100.919C487.671 100.365 489.01 100.014 490.38 99.8778C492.195 99.7218 494.021 99.9836 495.719 100.643C497.81 101.426 499.621 102.81 500.926 104.621C501.561 105.676 502.092 106.791 502.51 107.95C502.933 109.155 503.573 110.274 504.396 111.251C505.378 112.167 506.547 112.859 507.822 113.28C508.483 113.543 509.123 113.855 509.736 114.215C510.395 114.583 510.939 115.127 511.309 115.784C511.68 116.442 511.862 117.189 511.836 117.943C511.835 118.693 511.793 119.441 511.712 120.186C511.623 120.919 511.623 121.66 511.712 122.393C511.813 123.121 512.143 123.797 512.655 124.324C513.705 125.383 515.227 125.873 516.295 126.994C516.837 127.574 517.128 128.345 517.105 129.139C517.053 129.889 516.844 130.62 516.49 131.284C515.876 132.601 515.031 133.793 514.809 135.128C514.697 135.782 514.793 136.454 515.084 137.05C515.393 137.636 515.753 138.193 516.161 138.715C516.589 139.246 516.92 139.849 517.14 140.494C517.34 141.135 517.34 141.821 517.14 142.461C516.766 143.698 516.046 144.722 515.814 145.852C515.638 146.96 515.893 148.093 516.526 149.02C517.06 149.963 517.701 150.8 518.137 151.743C518.842 153.429 519.061 155.279 518.769 157.083C518.573 158.676 518.253 160.02 518.039 161.123C517.825 162.227 517.63 163.054 517.505 163.659C517.443 163.935 517.398 164.149 517.363 164.318C517.338 164.408 517.302 164.495 517.256 164.576Z" fill="#455A64"/>
<path d="M514.569 148.708L514.747 148.797C514.911 148.908 515.046 149.058 515.138 149.233C515.277 149.589 515.327 149.974 515.284 150.354C515.241 150.734 515.105 151.098 514.889 151.413C514.567 151.851 514.187 152.243 513.759 152.579C513.256 152.966 512.81 153.422 512.433 153.932C512.076 154.558 511.889 155.267 511.89 155.988C511.89 156.762 511.89 157.59 511.801 158.471C511.769 158.944 511.628 159.403 511.391 159.813C511.153 160.224 510.825 160.574 510.431 160.838C509.612 161.381 508.651 161.612 507.805 162.173C506.995 162.81 506.46 163.733 506.31 164.754C506.07 165.795 505.999 166.925 505.687 168.055C505.543 168.636 505.293 169.185 504.949 169.675C504.577 170.167 504.107 170.576 503.569 170.876C502.458 171.414 501.299 171.846 500.107 172.167C498.906 172.477 497.865 173.227 497.188 174.267C496.683 175.456 496.321 176.702 496.112 177.978C495.946 178.637 495.662 179.261 495.275 179.82C494.863 180.36 494.334 180.798 493.727 181.102C492.548 181.607 491.314 181.974 490.051 182.196C488.864 182.424 487.734 182.89 486.732 183.567C485.824 184.322 484.863 185.012 483.857 185.631C483.341 185.917 482.765 186.075 482.175 186.094C481.608 186.094 481.045 185.994 480.511 185.8C480.013 185.623 479.505 185.474 478.989 185.355C478.489 185.274 477.98 185.259 477.476 185.311C476.519 185.469 475.586 185.751 474.7 186.148C473.81 186.512 472.991 186.877 472.155 187.153C470.641 187.656 469.005 187.656 467.491 187.153C466.353 186.798 465.309 186.189 464.439 185.373C463.891 184.856 463.428 184.255 463.068 183.593C462.942 183.365 462.835 183.127 462.748 182.881C463.191 183.778 463.794 184.587 464.528 185.266C465.394 186.053 466.425 186.636 467.545 186.975C469.029 187.429 470.619 187.398 472.083 186.886C472.902 186.61 473.721 186.245 474.602 185.872C475.508 185.451 476.465 185.151 477.45 184.982C477.975 184.906 478.508 184.906 479.034 184.982C479.562 185.098 480.082 185.246 480.591 185.427C481.096 185.61 481.629 185.703 482.166 185.703C482.712 185.679 483.245 185.529 483.724 185.266C484.712 184.645 485.658 183.959 486.554 183.211C487.585 182.51 488.748 182.026 489.971 181.787C491.196 181.563 492.39 181.199 493.531 180.701C494.094 180.424 494.585 180.019 494.964 179.518C495.331 178.996 495.596 178.411 495.747 177.791C495.963 176.487 496.337 175.214 496.859 174C497.187 173.422 497.651 172.933 498.212 172.576C498.769 172.231 499.367 171.956 499.992 171.757C501.157 171.476 502.298 171.098 503.4 170.627C503.898 170.342 504.333 169.961 504.682 169.506C505.005 169.044 505.243 168.529 505.385 167.984C505.687 166.898 505.759 165.777 506.008 164.709C506.179 163.62 506.762 162.639 507.636 161.968C508.526 161.372 509.505 161.149 510.306 160.642C510.672 160.401 510.978 160.079 511.2 159.701C511.423 159.323 511.555 158.899 511.588 158.462C511.694 157.625 511.641 156.789 511.694 156.005C511.703 155.25 511.912 154.51 512.3 153.861C512.687 153.339 513.149 152.878 513.67 152.49C514.098 152.172 514.479 151.794 514.8 151.369C515.014 151.071 515.152 150.726 515.203 150.364C515.254 150.001 515.217 149.632 515.094 149.286C514.978 149.047 514.796 148.846 514.569 148.708Z" fill="#455A64"/>
<path d="M460.737 152.891C461.06 152.697 461.446 152.636 461.813 152.719C462.181 152.801 462.503 153.022 462.712 153.336C464.047 155.321 465.382 157.305 466.726 159.299L467.18 159.957C466.101 160.888 464.904 161.672 463.62 162.289C463.062 162.548 462.455 162.682 461.84 162.682C461.225 162.682 460.618 162.548 460.06 162.289C459.209 161.761 458.548 160.975 458.174 160.046C457.559 158.542 457.061 157.003 457.746 155.534C458.245 154.457 459.793 153.496 460.737 152.891Z" fill="#FF9A6C"/>
<path d="M431.066 131.31C430.464 131.146 429.838 131.083 429.215 131.123C427.483 131.201 425.835 131.895 424.57 133.081C423.686 133.886 423.001 134.885 422.568 136C422.093 137.287 421.928 138.668 422.087 140.031C422.251 141.541 422.8 142.984 423.68 144.223C424.636 145.556 425.973 146.567 427.516 147.124C429.048 147.696 430.71 147.826 432.312 147.498C433.807 147.189 435.179 146.454 436.264 145.38C437.178 144.48 437.873 143.382 438.296 142.171C438.719 140.959 438.858 139.667 438.702 138.394C438.535 137.424 438.175 136.498 437.643 135.67C437.258 135.042 436.788 134.47 436.246 133.971C435.9 133.658 435.51 133.397 435.089 133.196C434.946 133.117 434.789 133.068 434.626 133.054C435.184 133.312 435.692 133.664 436.13 134.095C437.327 135.266 438.126 136.781 438.417 138.429C438.546 139.654 438.395 140.892 437.976 142.049C437.556 143.207 436.88 144.255 435.997 145.113C434.96 146.125 433.653 146.817 432.232 147.106C430.702 147.407 429.119 147.278 427.658 146.732C426.194 146.205 424.923 145.25 424.009 143.991C423.162 142.809 422.629 141.431 422.461 139.987C422.299 138.681 422.446 137.355 422.888 136.115C423.291 135.044 423.933 134.079 424.766 133.294C425.977 132.138 427.547 131.428 429.215 131.283C430.426 131.203 431.057 131.363 431.066 131.31Z" fill="#E0E0E0"/>
<path d="M467.099 138.313C466.77 138.828 466.252 139.193 465.656 139.33C465.06 139.466 464.434 139.363 463.913 139.043C463.649 138.902 463.416 138.709 463.228 138.476C463.039 138.243 462.9 137.975 462.817 137.687C462.734 137.399 462.709 137.097 462.745 136.8C462.78 136.503 462.875 136.215 463.023 135.955C463.354 135.442 463.873 135.078 464.468 134.942C465.063 134.806 465.688 134.907 466.209 135.225C466.475 135.365 466.71 135.557 466.9 135.789C467.09 136.022 467.23 136.291 467.314 136.579C467.397 136.868 467.421 137.17 467.384 137.468C467.347 137.766 467.25 138.054 467.099 138.313Z" fill="#263238"/>
<path d="M485.699 151.298C485.367 151.809 484.849 152.171 484.254 152.307C483.66 152.443 483.035 152.343 482.514 152.027C482.249 151.885 482.016 151.691 481.827 151.458C481.639 151.224 481.499 150.955 481.416 150.666C481.333 150.378 481.309 150.075 481.345 149.777C481.38 149.479 481.475 149.191 481.624 148.93C481.956 148.419 482.474 148.057 483.069 147.921C483.663 147.784 484.288 147.885 484.81 148.201C485.074 148.343 485.307 148.536 485.496 148.77C485.684 149.004 485.824 149.273 485.907 149.562C485.99 149.85 486.014 150.152 485.979 150.451C485.943 150.749 485.848 151.037 485.699 151.298Z" fill="#263238"/>
<path d="M491.021 146.172C490.638 146.332 489.9 144.294 487.888 143.155C485.877 142.016 483.75 142.363 483.697 141.945C483.697 141.758 484.177 141.375 485.121 141.197C486.338 140.975 487.595 141.192 488.667 141.81C489.74 142.427 490.558 143.406 490.976 144.57C491.288 145.478 491.208 146.11 491.021 146.172Z" fill="#263238"/>
<path d="M472.128 134.843C471.656 134.95 470.962 132.556 468.702 130.954C466.441 129.352 463.949 129.396 463.914 128.925C463.914 128.702 464.519 128.364 465.64 128.311C467.106 128.274 468.544 128.718 469.734 129.574C470.916 130.422 471.78 131.641 472.19 133.036C472.484 134.14 472.341 134.798 472.128 134.843Z" fill="#263238"/>
<path d="M461.804 162.467C461.804 162.467 461.484 162.592 460.914 162.467C460.078 162.264 459.326 161.807 458.76 161.159C457.896 160.225 457.324 159.059 457.114 157.804C456.978 157.036 457.064 156.246 457.363 155.525C457.706 154.777 458.214 154.117 458.849 153.594C459.458 153.088 460.124 152.655 460.834 152.304C461.031 152.181 461.252 152.102 461.483 152.073C461.713 152.044 461.947 152.065 462.169 152.135C462.554 152.328 462.866 152.64 463.059 153.025L464.981 156.086C465.614 157.016 466.142 158.013 466.556 159.059C465.776 158.248 465.089 157.353 464.509 156.389C463.869 155.499 463.183 154.475 462.454 153.416C462.062 152.776 461.777 152.624 461.136 152.971C460.48 153.31 459.862 153.718 459.294 154.191C458.745 154.594 458.312 155.137 458.04 155.762C457.768 156.387 457.667 157.073 457.746 157.75C457.921 158.888 458.394 159.96 459.116 160.856C459.601 161.469 460.24 161.942 460.967 162.227C461.484 162.396 461.813 162.405 461.804 162.467Z" fill="#263238"/>
<path d="M542.424 127.848C542.087 126.761 541.621 125.718 541.036 124.742C540.308 123.635 539.378 122.675 538.295 121.912C536.87 120.907 535.2 120.308 533.462 120.177H533.186V119.892C533.357 117.581 532.619 115.296 531.131 113.52C530.316 112.473 529.281 111.619 528.097 111.019C526.914 110.419 525.613 110.088 524.287 110.049H523.94V109.702C523.866 105.977 522.366 102.422 519.748 99.7706C517.699 97.7187 515.061 96.3562 512.202 95.8727C509.589 95.4187 506.902 95.6896 504.433 96.6559L504.273 96.7181L504.121 96.6203C501.614 94.9384 498.783 93.7987 495.809 93.2741C493.496 92.8459 491.13 92.7829 488.797 93.0872C486.743 93.3996 484.728 93.9214 482.781 94.6446C482.781 94.6446 482.896 94.5556 483.145 94.431C483.395 94.3064 483.768 94.1106 484.267 93.9149C485.701 93.3466 487.193 92.9377 488.716 92.6957C491.089 92.3124 493.508 92.3124 495.88 92.6957C498.947 93.1947 501.873 94.3349 504.468 96.0418H504.157C506.733 94.9959 509.549 94.6878 512.291 95.1519C515.303 95.6397 518.084 97.0661 520.238 99.2278C522.993 102.01 524.563 105.752 524.616 109.667L524.269 109.32C525.696 109.368 527.094 109.731 528.363 110.384C529.632 111.036 530.742 111.961 531.611 113.093C533.186 114.996 533.953 117.44 533.747 119.901L533.498 119.607C535.328 119.765 537.076 120.434 538.544 121.538C539.652 122.349 540.584 123.375 541.285 124.555C541.728 125.296 542.064 126.096 542.282 126.931C542.364 127.231 542.412 127.538 542.424 127.848Z" fill="#263238"/>
<path d="M485.415 81.9896C484.493 81.8335 483.618 81.4748 482.852 80.9395C481.763 80.2375 480.826 79.3246 480.095 78.2547C479.364 77.1849 478.855 75.9796 478.598 74.71C478.246 72.911 478.454 71.0474 479.194 69.3704C480.035 67.4341 481.464 65.8119 483.279 64.7338C485.337 63.5736 487.762 63.2516 490.051 63.835C492.555 64.4178 494.728 65.9617 496.103 68.1334L495.702 67.9643C497.263 67.5951 498.903 67.7742 500.348 68.4715C501.585 69.0285 502.642 69.9191 503.4 71.0434C504.101 72.151 504.448 73.4451 504.397 74.7545C504.364 75.9861 504.016 77.1886 503.384 78.2467C502.753 79.3048 501.861 80.183 500.793 80.7971L500.659 80.1564C501.621 80.2687 502.54 80.6156 503.336 81.1664C504.132 81.7173 504.781 82.4554 505.225 83.3156C505.647 84.0796 505.901 84.9255 505.969 85.796C506.036 86.6666 505.916 87.5415 505.616 88.3615C505.121 89.6892 504.275 90.8578 503.169 91.7432C502.063 92.6285 500.737 93.1975 499.333 93.3897C497.514 93.6352 495.663 93.3606 493.994 92.5976C493.554 92.4088 493.131 92.1825 492.73 91.9213C492.463 91.7344 492.33 91.6365 492.338 91.6187C492.347 91.6009 492.926 91.9569 494.074 92.3929C495.709 93.0424 497.488 93.2422 499.226 92.9714C500.535 92.7655 501.764 92.2116 502.785 91.3677C503.805 90.5238 504.581 89.421 505.029 88.1747C505.291 87.4317 505.39 86.641 505.319 85.8563C505.249 85.0716 505.01 84.3114 504.619 83.6271C504.222 82.8659 503.645 82.2133 502.937 81.7263C502.23 81.2392 501.414 80.9325 500.561 80.8327L499.413 80.7437L500.419 80.192C501.376 79.6326 502.175 78.8378 502.739 77.883C503.303 76.9282 503.613 75.8452 503.641 74.7367C503.68 73.572 503.37 72.4221 502.751 71.435C502.087 70.4382 501.164 69.6413 500.081 69.1301C498.789 68.5058 497.322 68.3425 495.925 68.6673L495.667 68.7385L495.524 68.5071C494.255 66.4964 492.249 65.0622 489.936 64.5113C487.807 63.9611 485.549 64.2578 483.635 65.339C481.921 66.3342 480.561 67.8402 479.746 69.6462C479.033 71.2075 478.81 72.9481 479.105 74.6388C479.571 77.0991 480.979 79.2801 483.03 80.717C483.78 81.2196 484.579 81.646 485.415 81.9896Z" fill="#263238"/>
<path d="M427.454 74.6659C427.456 74.512 427.48 74.3592 427.525 74.212C427.623 73.7834 427.757 73.3637 427.925 72.9572C428.552 71.406 429.512 70.0115 430.737 68.8724C432.608 67.0904 435.033 66.0036 437.608 65.7932C439.237 65.6696 440.875 65.8797 442.42 66.4107C443.966 66.9416 445.387 67.7823 446.596 68.8813L446.196 68.8279C449.229 67.2249 452.738 66.7638 456.083 67.5286C458.602 68.1249 460.905 69.4133 462.731 71.2485C464.396 72.9219 465.619 74.9831 466.29 77.2467L466.014 77.0153C468.659 77.3857 471.167 78.4206 473.303 80.0233C474.959 81.2533 476.369 82.7839 477.459 84.5352C478.163 85.6652 478.708 86.8871 479.079 88.1661C479.221 88.6144 479.314 89.077 479.355 89.5455C478.808 87.8616 478.058 86.2508 477.121 84.7488C476.016 83.0795 474.614 81.6284 472.983 80.4682C470.902 78.9633 468.48 77.9999 465.934 77.6649H465.721L465.658 77.4602C464.996 75.315 463.816 73.3653 462.223 71.7825C460.496 70.0312 458.314 68.7982 455.923 68.2227C452.747 67.4956 449.416 67.9215 446.525 69.4241L446.302 69.5398L446.124 69.3708C444.986 68.3272 443.649 67.5237 442.194 67.0084C440.738 66.4931 439.193 66.2766 437.652 66.3717C435.194 66.5401 432.863 67.527 431.031 69.175C429.816 70.2499 428.832 71.561 428.139 73.0284C427.658 74.0785 427.507 74.6837 427.454 74.6659Z" fill="#263238"/>
<path d="M372.891 141.508C372.891 141.508 373.852 139.8 381.266 140.77C388.679 141.74 418.047 162.075 418.047 162.075C418.047 162.075 412.707 183.086 428.859 187.091C440.624 190.01 446.863 186.726 446.863 186.726C446.863 186.726 466.557 211.217 468.168 221.202C468.168 221.202 373.256 287.609 388.661 280.391L372.891 280.569V141.508Z" fill="#E85463"/>
<path d="M466.628 216.708C466.886 217.411 470.561 221.79 466.922 241.297C463.611 259.015 449.123 276.894 449.123 276.894L420.236 250.899L466.628 216.708Z" fill="#E85463"/>
<path d="M451.561 230.6C451.429 230.76 451.28 230.906 451.116 231.036L449.79 232.193C448.616 233.18 446.907 234.595 444.762 236.304C440.482 239.721 434.501 244.358 427.854 249.413C421.206 254.468 415.128 258.997 410.722 262.29L405.49 266.117L404.048 267.14C403.89 267.271 403.717 267.381 403.532 267.47C403.674 267.322 403.829 267.188 403.994 267.069L405.383 265.974L410.527 262.032L427.569 249.084C434.226 244.029 440.233 239.437 444.558 236.082L449.675 232.086L451.054 231C451.211 230.852 451.381 230.718 451.561 230.6Z" fill="#263238"/>
<path d="M403.531 62.8027H193.32V354.977H403.531V62.8027Z" fill="white"/>
<path d="M403.531 62.8027H193.32V168.554H403.531V62.8027Z" fill="#E85463"/>
<path d="M381.63 71.2754H344.271C338.727 71.2754 334.233 75.7698 334.233 81.3138V82.3551C334.233 87.8991 338.727 92.3935 344.271 92.3935H381.63C387.175 92.3935 391.669 87.8991 391.669 82.3551V81.3138C391.669 75.7698 387.175 71.2754 381.63 71.2754Z" fill="#263238"/>
<path d="M367.133 194.451C367.133 194.576 338.228 194.682 302.595 194.682C266.962 194.682 238.039 194.576 238.039 194.451C238.039 194.327 266.935 194.22 302.595 194.22C338.255 194.22 367.133 194.318 367.133 194.451Z" fill="#263238"/>
<path d="M367.133 222.929C367.133 223.053 338.228 223.16 302.595 223.16C266.962 223.16 238.039 223.053 238.039 222.929C238.039 222.804 266.935 222.697 302.595 222.697C338.255 222.697 367.133 222.804 367.133 222.929Z" fill="#263238"/>
<path d="M367.133 251.415C367.133 251.54 338.228 251.646 302.595 251.646C266.962 251.646 238.039 251.54 238.039 251.415C238.039 251.29 266.935 251.184 302.595 251.184C338.255 251.184 367.133 251.281 367.133 251.415Z" fill="#263238"/>
<path d="M366.599 284.245H240.327C227.912 284.245 217.847 294.31 217.847 306.725V309.083C217.847 321.498 227.912 331.563 240.327 331.563H366.599C379.015 331.563 389.079 321.498 389.079 309.083V306.725C389.079 294.31 379.015 284.245 366.599 284.245Z" fill="#E85463"/>
<path d="M248.282 152.196C247.356 151.982 246.476 151.602 245.684 151.075L246.983 148.165C247.658 148.601 248.392 148.936 249.163 149.162C249.953 149.408 250.775 149.537 251.602 149.544C253.115 149.544 253.88 149.162 253.88 148.405C253.879 148.207 253.815 148.015 253.699 147.856C253.582 147.696 253.418 147.577 253.23 147.515C252.554 147.246 251.854 147.041 251.139 146.901C250.232 146.726 249.34 146.482 248.469 146.171C247.766 145.916 247.139 145.488 246.645 144.926C246.116 144.274 245.846 143.45 245.889 142.612C245.878 141.786 246.123 140.978 246.592 140.298C247.114 139.565 247.837 138.999 248.674 138.669C249.758 138.242 250.918 138.039 252.082 138.073C252.996 138.074 253.907 138.179 254.797 138.385C255.624 138.557 256.42 138.857 257.155 139.274L255.936 142.211C254.756 141.533 253.425 141.163 252.065 141.134C251.471 141.09 250.877 141.21 250.347 141.482C250.186 141.568 250.05 141.697 249.955 141.853C249.86 142.009 249.808 142.188 249.804 142.371C249.808 142.561 249.872 142.744 249.987 142.895C250.103 143.045 250.263 143.155 250.445 143.208C251.111 143.465 251.799 143.662 252.501 143.795C253.407 143.971 254.299 144.212 255.171 144.516C255.853 144.786 256.463 145.213 256.95 145.762C257.492 146.404 257.765 147.229 257.716 148.067C257.724 148.88 257.482 149.675 257.022 150.345C256.487 151.073 255.76 151.638 254.921 151.974C253.841 152.403 252.684 152.609 251.522 152.579C250.43 152.591 249.341 152.463 248.282 152.196Z" fill="white"/>
<path d="M262.371 141.491H258.073V138.35H270.603V141.491H266.322V152.339H262.371V141.491Z" fill="white"/>
<path d="M280.747 149.625H274.838L273.735 152.294H269.703L275.87 138.305H279.768L285.998 152.294H281.886L280.747 149.625ZM279.59 146.706L277.811 142.256L276.031 146.706H279.59Z" fill="white"/>
<path d="M300.388 138.35V152.339H297.131L290.955 144.891V152.339H287.083V138.35H290.341L296.508 145.807V138.35H300.388Z" fill="white"/>
<path d="M303.166 138.349H309.778C311.186 138.333 312.58 138.638 313.854 139.239C314.99 139.767 315.949 140.614 316.612 141.678C317.254 142.803 317.591 144.076 317.591 145.371C317.591 146.666 317.254 147.939 316.612 149.064C315.951 150.129 314.992 150.977 313.854 151.502C312.581 152.108 311.187 152.413 309.778 152.392H303.166V138.349ZM309.618 149.18C310.677 149.23 311.714 148.866 312.51 148.165C313.208 147.393 313.594 146.389 313.594 145.349C313.594 144.308 313.208 143.304 312.51 142.532C311.717 141.825 310.679 141.457 309.618 141.508H307.126V149.18H309.618Z" fill="white"/>
<path d="M328.857 149.625H322.948L321.845 152.294H317.813L323.98 138.305H327.878L334.108 152.294H329.952L328.857 149.625ZM327.7 146.706L325.92 142.256L324.141 146.706H327.7Z" fill="white"/>
<path d="M341.307 148.619H339.145V152.339H335.202V138.349H341.592C342.722 138.325 343.844 138.541 344.885 138.981C345.778 139.35 346.537 139.984 347.059 140.797C347.58 141.61 347.841 142.563 347.804 143.529C347.847 144.459 347.609 145.38 347.122 146.174C346.635 146.967 345.921 147.596 345.072 147.979L348.089 152.375H343.853L341.307 148.619ZM343.185 142.007C342.654 141.616 342.001 141.427 341.343 141.473H339.145V145.567H341.343C342.001 145.613 342.654 145.424 343.185 145.033C343.394 144.845 343.558 144.612 343.664 144.351C343.77 144.091 343.817 143.81 343.799 143.529C343.818 143.248 343.776 142.966 343.674 142.703C343.573 142.44 343.415 142.203 343.212 142.007H343.185Z" fill="white"/>
<path d="M349.976 138.349H356.561C357.97 138.333 359.363 138.638 360.637 139.239C361.772 139.77 362.73 140.616 363.396 141.678C364.037 142.803 364.375 144.076 364.375 145.371C364.375 146.666 364.037 147.939 363.396 149.064C362.732 150.127 361.774 150.974 360.637 151.502C359.365 152.108 357.97 152.413 356.561 152.392H349.976V138.349ZM356.428 149.18C357.485 149.232 358.52 148.868 359.311 148.165C360.015 147.396 360.405 146.391 360.405 145.349C360.405 144.306 360.015 143.301 359.311 142.532C358.523 141.823 357.486 141.456 356.428 141.508H353.891V149.18H356.428Z" fill="white"/>
<path d="M352.112 79.3376C352.369 79.459 352.599 79.6328 352.785 79.848C352.972 80.0632 353.112 80.3149 353.195 80.5871C353.279 80.8594 353.305 81.1461 353.272 81.4289C353.239 81.7118 353.146 81.9846 353.002 82.2298C352.783 82.5487 352.473 82.7939 352.112 82.9329C351.702 83.1091 351.258 83.1941 350.812 83.1821H349.673V84.7395H348.365V79.0884H350.812C351.258 79.0807 351.701 79.1655 352.112 79.3376ZM351.631 81.865C351.735 81.7766 351.817 81.6657 351.871 81.5408C351.925 81.4158 351.949 81.2801 351.943 81.1441C351.952 81.0052 351.929 80.866 351.875 80.7377C351.821 80.6095 351.737 80.4957 351.631 80.4055C351.372 80.2219 351.058 80.1338 350.741 80.1563H349.682V82.1142H350.741C351.049 82.1305 351.353 82.0427 351.604 81.865H351.631Z" fill="white"/>
<path d="M354.906 84.5172C354.539 84.3446 354.23 84.0695 354.016 83.7252C353.812 83.3737 353.705 82.9746 353.705 82.5683C353.705 82.1619 353.812 81.7628 354.016 81.4113C354.233 81.0692 354.541 80.7948 354.906 80.6193C355.288 80.4322 355.708 80.335 356.134 80.335C356.56 80.335 356.98 80.4322 357.362 80.6193C357.629 80.7606 357.864 80.9542 358.054 81.1885C358.244 81.4228 358.385 81.693 358.468 81.983C358.551 82.2729 358.574 82.5767 358.537 82.876C358.5 83.1754 358.403 83.4642 358.252 83.7252C358.037 84.0682 357.728 84.3429 357.362 84.5172C356.98 84.7043 356.56 84.8015 356.134 84.8015C355.708 84.8015 355.288 84.7043 354.906 84.5172ZM356.926 83.4404C357.136 83.1915 357.252 82.8762 357.252 82.5505C357.252 82.2247 357.136 81.9094 356.926 81.6605C356.825 81.5521 356.703 81.4665 356.566 81.4097C356.429 81.3529 356.282 81.3262 356.134 81.3312C355.985 81.3266 355.836 81.3535 355.698 81.4103C355.56 81.467 355.436 81.5523 355.333 81.6605C355.123 81.9094 355.008 82.2247 355.008 82.5505C355.008 82.8762 355.123 83.1915 355.333 83.4404C355.436 83.5486 355.56 83.6339 355.698 83.6906C355.836 83.7474 355.985 83.7743 356.134 83.7697C356.284 83.7714 356.432 83.7405 356.569 83.679C356.706 83.6175 356.828 83.527 356.926 83.4137V83.4404Z" fill="white"/>
<path d="M363.022 80.6098C363.354 80.7896 363.626 81.0616 363.806 81.3929C363.993 81.7562 364.091 82.1589 364.091 82.5676C364.091 82.9763 363.993 83.3791 363.806 83.7424C363.626 84.0736 363.354 84.3457 363.022 84.5255C362.688 84.7123 362.311 84.8075 361.928 84.8014C361.684 84.8168 361.441 84.7777 361.214 84.6868C360.988 84.596 360.785 84.4557 360.62 84.2763V86.3054H359.356V80.3962H360.557V80.8946C360.728 80.7027 360.94 80.5525 361.177 80.4553C361.415 80.3581 361.672 80.3166 361.928 80.3339C362.311 80.3278 362.688 80.4229 363.022 80.6098ZM362.497 83.4398C362.707 83.1909 362.823 82.8756 362.823 82.5498C362.823 82.2241 362.707 81.9088 362.497 81.6599C362.287 81.4501 362.002 81.3323 361.705 81.3323C361.408 81.3323 361.123 81.4501 360.913 81.6599C360.703 81.9088 360.588 82.2241 360.588 82.5498C360.588 82.8756 360.703 83.1909 360.913 83.4398C361.123 83.6495 361.408 83.7674 361.705 83.7674C362.002 83.7674 362.287 83.6495 362.497 83.4398Z" fill="white"/>
<path d="M369.305 80.3966V84.7395H368.13V84.2233C367.965 84.41 367.762 84.5587 367.534 84.6594C367.297 84.7569 367.042 84.8053 366.786 84.8018C366.538 84.8148 366.29 84.7782 366.056 84.6941C365.822 84.6101 365.608 84.4803 365.424 84.3123C365.248 84.1146 365.113 83.8836 365.028 83.6329C364.942 83.3823 364.908 83.117 364.926 82.8528V80.3966H366.19V82.6659C366.19 83.369 366.484 83.716 367.08 83.716C367.214 83.7212 367.348 83.6977 367.472 83.647C367.596 83.5964 367.708 83.5198 367.801 83.4224C368.006 83.1735 368.105 82.8538 368.076 82.5324V80.3877L369.305 80.3966Z" fill="white"/>
<path d="M370.47 78.75H371.734V84.7393H370.47V78.75Z" fill="white"/>
<path d="M376.202 80.8155C376.396 81.0008 376.546 81.2275 376.64 81.4787C376.734 81.7299 376.77 81.9991 376.745 82.2661V84.7401H375.571V84.1973C375.426 84.4097 375.226 84.5784 374.992 84.6851C374.758 84.7918 374.5 84.8324 374.245 84.8024C373.939 84.8136 373.635 84.7558 373.355 84.6334C373.128 84.5348 372.934 84.3744 372.794 84.1706C372.665 83.9653 372.597 83.7277 372.598 83.4853C372.593 83.3011 372.633 83.1184 372.713 82.9527C372.794 82.787 372.913 82.643 373.061 82.5331C373.481 82.2705 373.973 82.1489 374.467 82.186H375.464C375.47 82.069 375.452 81.9518 375.409 81.8427C375.366 81.7336 375.299 81.6352 375.215 81.5542C375 81.393 374.735 81.314 374.467 81.3317C374.234 81.3304 374.002 81.3695 373.782 81.4474C373.576 81.51 373.383 81.6095 373.212 81.7411L372.767 80.8511C373.025 80.6735 373.311 80.541 373.613 80.4596C373.947 80.3704 374.291 80.3255 374.636 80.3261C375.201 80.2855 375.761 80.4604 376.202 80.8155ZM375.135 83.8057C375.3 83.7085 375.424 83.553 375.482 83.3696V82.9247H374.592C374.076 82.9247 373.817 83.0938 373.817 83.4319C373.814 83.5072 373.831 83.582 373.865 83.6491C373.899 83.7161 373.95 83.7732 374.013 83.8146C374.164 83.9192 374.346 83.9694 374.529 83.957C374.742 83.9685 374.953 83.9158 375.135 83.8057Z" fill="white"/>
<path d="M379.699 80.4946C379.982 80.383 380.285 80.3285 380.589 80.3344V81.4913H380.304C380.15 81.4824 379.996 81.5045 379.851 81.5565C379.705 81.6085 379.572 81.6892 379.459 81.7939C379.349 81.9136 379.265 82.0541 379.212 82.207C379.158 82.36 379.136 82.5222 379.147 82.6838V84.7307H377.919V80.3878H379.12V80.9574C379.27 80.7556 379.469 80.5962 379.699 80.4946Z" fill="white"/>
<path d="M271.385 312.697C270.34 312.143 269.469 311.311 268.866 310.294C268.26 309.239 267.94 308.044 267.94 306.827C267.94 305.611 268.26 304.416 268.866 303.361C269.472 302.348 270.343 301.52 271.385 300.967C272.414 300.448 273.542 300.156 274.693 300.11C275.845 300.064 276.992 300.265 278.059 300.7C278.95 301.079 279.737 301.665 280.356 302.409L278.424 304.189C278.027 303.706 277.527 303.319 276.96 303.055C276.393 302.792 275.774 302.659 275.149 302.667C274.397 302.654 273.655 302.838 272.996 303.201C272.373 303.543 271.861 304.056 271.518 304.678C271.174 305.344 270.994 306.082 270.994 306.832C270.994 307.581 271.174 308.32 271.518 308.985C271.863 309.606 272.375 310.118 272.996 310.463C273.656 310.822 274.398 311.003 275.149 310.988C275.776 310.998 276.396 310.865 276.963 310.6C277.531 310.335 278.03 309.944 278.424 309.457L280.356 311.237C279.736 311.989 278.946 312.581 278.051 312.963C277.078 313.369 276.034 313.572 274.98 313.56C273.729 313.574 272.493 313.278 271.385 312.697Z" fill="white"/>
<path d="M291.249 304.304C291.657 304.748 291.969 305.271 292.167 305.84C292.364 306.41 292.443 307.014 292.397 307.615V313.337H289.496V308.06C289.542 307.424 289.359 306.792 288.979 306.28C288.785 306.077 288.549 305.92 288.288 305.819C288.027 305.717 287.746 305.674 287.467 305.692C287.138 305.673 286.809 305.724 286.502 305.842C286.195 305.961 285.917 306.143 285.687 306.378C285.215 306.937 284.982 307.659 285.037 308.389V313.337H282.136V299.543H285.037V304.375C285.432 303.98 285.909 303.676 286.434 303.485C287.004 303.278 287.607 303.175 288.214 303.183C288.77 303.153 289.325 303.237 289.847 303.43C290.369 303.623 290.846 303.92 291.249 304.304Z" fill="white"/>
<path d="M297.051 312.821C296.237 312.406 295.555 311.771 295.084 310.988C294.604 310.181 294.361 309.256 294.381 308.318C294.363 307.38 294.607 306.456 295.084 305.648C295.558 304.87 296.239 304.238 297.051 303.824C297.925 303.373 298.897 303.147 299.881 303.165C300.861 303.145 301.831 303.372 302.702 303.824C303.511 304.239 304.189 304.87 304.66 305.648C305.137 306.456 305.38 307.38 305.363 308.318C305.383 309.256 305.139 310.181 304.66 310.988C304.192 311.77 303.513 312.405 302.702 312.821C301.831 313.273 300.861 313.499 299.881 313.48C298.897 313.498 297.925 313.272 297.051 312.821ZM301.714 310.356C302.175 309.783 302.426 309.071 302.426 308.336C302.426 307.601 302.175 306.888 301.714 306.316C301.478 306.069 301.193 305.875 300.877 305.747C300.561 305.618 300.222 305.557 299.881 305.568C299.539 305.559 299.198 305.62 298.881 305.749C298.564 305.877 298.277 306.07 298.039 306.316C297.573 306.886 297.319 307.6 297.319 308.336C297.319 309.072 297.573 309.786 298.039 310.356C298.277 310.601 298.564 310.794 298.881 310.923C299.198 311.052 299.539 311.113 299.881 311.103C300.222 311.113 300.562 311.051 300.878 310.921C301.194 310.79 301.479 310.595 301.714 310.347V310.356Z" fill="white"/>
<path d="M309.217 312.821C308.405 312.405 307.727 311.77 307.259 310.988C306.779 310.181 306.535 309.256 306.556 308.318C306.538 307.38 306.782 306.456 307.259 305.648C307.73 304.87 308.407 304.239 309.217 303.824C310.102 303.392 311.08 303.187 312.064 303.228C313.045 303.208 314.015 303.434 314.885 303.886C315.69 304.304 316.364 304.935 316.834 305.711C317.311 306.518 317.555 307.443 317.537 308.38C317.558 309.319 317.314 310.244 316.834 311.05C316.368 311.83 315.693 312.465 314.885 312.883C314.015 313.335 313.045 313.562 312.064 313.542C311.07 313.544 310.09 313.296 309.217 312.821ZM313.844 310.347C314.31 309.777 314.564 309.063 314.564 308.327C314.564 307.591 314.31 306.877 313.844 306.307C313.61 306.061 313.326 305.867 313.012 305.738C312.697 305.609 312.359 305.548 312.02 305.559C311.678 305.548 311.337 305.609 311.019 305.738C310.702 305.866 310.415 306.06 310.178 306.307C309.706 306.874 309.447 307.589 309.447 308.327C309.447 309.065 309.706 309.78 310.178 310.347C310.415 310.594 310.702 310.788 311.019 310.916C311.337 311.045 311.678 311.106 312.02 311.095C312.359 311.106 312.697 311.045 313.012 310.916C313.326 310.787 313.61 310.593 313.844 310.347Z" fill="white"/>
<path d="M320.394 313.177C319.724 313.023 319.084 312.762 318.499 312.403L319.469 310.32C319.968 310.633 320.511 310.87 321.079 311.023C321.684 311.197 322.31 311.287 322.939 311.29C324.167 311.29 324.781 310.994 324.781 310.401C324.777 310.256 324.725 310.118 324.633 310.007C324.541 309.895 324.415 309.818 324.274 309.786C323.777 309.623 323.264 309.512 322.744 309.457C322.058 309.361 321.38 309.218 320.714 309.03C320.184 308.86 319.708 308.553 319.335 308.14C319.124 307.897 318.963 307.615 318.862 307.309C318.761 307.004 318.722 306.681 318.748 306.36C318.741 305.754 318.935 305.162 319.299 304.678C319.711 304.154 320.264 303.759 320.892 303.539C321.687 303.249 322.529 303.11 323.375 303.13C324.085 303.127 324.792 303.205 325.484 303.361C326.094 303.477 326.681 303.694 327.22 304.002L326.259 306.067C325.38 305.569 324.385 305.311 323.375 305.319C322.896 305.292 322.417 305.38 321.978 305.577C321.847 305.635 321.735 305.728 321.653 305.846C321.572 305.964 321.524 306.102 321.515 306.245C321.513 306.394 321.563 306.54 321.655 306.659C321.747 306.777 321.877 306.86 322.023 306.894C322.541 307.065 323.074 307.185 323.616 307.25C324.294 307.356 324.966 307.502 325.627 307.686C326.145 307.844 326.611 308.135 326.98 308.532C327.387 309.004 327.594 309.617 327.558 310.24C327.562 310.839 327.365 311.422 326.997 311.896C326.571 312.416 326.007 312.804 325.369 313.017C324.557 313.3 323.701 313.436 322.841 313.417C322.019 313.442 321.196 313.361 320.394 313.177Z" fill="white"/>
<path d="M339.065 309.155H331.51C331.63 309.749 331.974 310.275 332.471 310.623C333.031 310.994 333.694 311.181 334.366 311.157C334.84 311.168 335.311 311.089 335.755 310.926C336.173 310.76 336.555 310.511 336.876 310.196L338.416 311.869C337.89 312.425 337.249 312.858 336.536 313.136C335.824 313.415 335.058 313.532 334.295 313.48C333.257 313.503 332.229 313.277 331.296 312.821C330.467 312.415 329.772 311.778 329.294 310.988C328.814 310.181 328.57 309.256 328.591 308.318C328.575 307.382 328.815 306.459 329.285 305.648C329.741 304.872 330.403 304.237 331.198 303.815C332.035 303.366 332.972 303.14 333.921 303.156C334.851 303.137 335.769 303.355 336.591 303.788C337.372 304.189 338.021 304.807 338.46 305.568C338.925 306.406 339.158 307.352 339.136 308.309C339.136 308.309 339.101 308.674 339.065 309.155ZM332.284 305.942C331.827 306.326 331.534 306.871 331.465 307.464H336.395C336.32 306.872 336.026 306.331 335.572 305.945C335.117 305.56 334.535 305.359 333.939 305.381C333.338 305.361 332.75 305.561 332.284 305.942Z" fill="white"/>
<path d="M224.913 199.257C224.584 199.259 224.267 199.138 224.023 198.919L220.463 195.759C220.33 195.645 220.221 195.504 220.142 195.347C220.064 195.189 220.017 195.018 220.006 194.842C219.994 194.667 220.017 194.49 220.075 194.324C220.132 194.158 220.222 194.004 220.339 193.873C220.574 193.623 220.896 193.473 221.238 193.453C221.581 193.433 221.918 193.545 222.181 193.766L224.788 196.062L230.19 190.099C230.432 189.858 230.756 189.719 231.098 189.709C231.439 189.7 231.771 189.822 232.025 190.05C232.279 190.278 232.436 190.595 232.464 190.935C232.492 191.275 232.388 191.613 232.175 191.879L225.883 198.821C225.76 198.956 225.61 199.065 225.444 199.14C225.277 199.215 225.096 199.255 224.913 199.257Z" fill="#FF725E"/>
<path d="M224.913 227.735C224.586 227.74 224.268 227.623 224.023 227.405L220.463 224.237C220.332 224.12 220.225 223.979 220.148 223.82C220.071 223.662 220.026 223.49 220.016 223.315C220.006 223.139 220.03 222.963 220.088 222.797C220.145 222.631 220.235 222.478 220.352 222.346C220.469 222.215 220.611 222.107 220.769 222.031C220.927 221.954 221.099 221.909 221.275 221.899C221.629 221.878 221.978 221.999 222.243 222.235L224.851 224.531L230.253 218.559C230.494 218.318 230.819 218.179 231.16 218.169C231.501 218.16 231.833 218.282 232.087 218.51C232.341 218.738 232.498 219.055 232.526 219.395C232.554 219.735 232.451 220.073 232.237 220.339L225.945 227.281C225.818 227.428 225.659 227.545 225.48 227.624C225.302 227.702 225.108 227.74 224.913 227.735Z" fill="#FF725E"/>
<path d="M224.913 256.221C224.584 256.223 224.267 256.102 224.023 255.883L220.463 252.723C220.332 252.607 220.225 252.465 220.148 252.307C220.071 252.148 220.026 251.977 220.016 251.801C220.006 251.625 220.03 251.449 220.088 251.283C220.145 251.117 220.235 250.964 220.352 250.832C220.469 250.701 220.611 250.594 220.769 250.517C220.927 250.44 221.099 250.395 221.275 250.385C221.629 250.364 221.978 250.485 222.243 250.721L224.851 253.008L230.253 247.046C230.494 246.804 230.819 246.665 231.16 246.656C231.501 246.647 231.833 246.768 232.087 246.996C232.341 247.224 232.498 247.541 232.526 247.881C232.554 248.221 232.451 248.559 232.237 248.826L225.945 255.767C225.817 255.914 225.658 256.031 225.48 256.109C225.301 256.188 225.108 256.226 224.913 256.221Z" fill="#FF725E"/>
<path d="M312.581 94.5645L316.149 101.791L324.123 102.948L318.356 108.572L319.718 116.51L312.581 112.764L305.452 116.51L306.814 108.572L301.047 102.948L309.021 101.791L312.581 94.5645Z" fill="white"/>
<path d="M298.724 94.5645L303.441 104.113L313.977 105.644L306.351 113.075L308.148 123.567L298.724 118.61L289.308 123.567L291.106 113.075L283.479 105.644L294.016 104.113L298.724 94.5645Z" fill="white"/>
<path d="M309.297 125.143L298.715 119.59L288.143 125.143L290.163 113.378L281.611 105.039L293.429 103.322L298.715 92.6426L303.993 103.322L315.811 105.039L307.259 113.369L309.297 125.143ZM285.366 106.241L292.059 112.773L290.475 121.993L298.76 117.632L307.036 121.993L305.425 112.782L312.118 106.25L302.862 104.906L298.715 96.5138L294.568 104.897L285.366 106.241Z" fill="#FF725E"/>
<path d="M403.532 354.986C403.532 353.117 403.443 235.548 403.318 62.8029L403.532 63.0165H193.347L193.578 62.7851C193.578 172.113 193.578 273.263 193.534 354.968L193.347 354.781L403.558 354.968L193.347 355.155H193.16V354.968C193.16 273.263 193.16 172.113 193.116 62.7851V62.5537H193.374H403.558H403.727V62.7584C403.612 235.592 403.532 353.117 403.532 354.986Z" fill="#263238"/>
<path d="M300.665 238.573C300.665 238.573 297.55 233.892 303.788 233.634C310.027 233.376 340.694 238.573 351.088 243.771L360.183 249.484L350.332 268.974H327.692C325.093 268.974 317.822 264.524 324.577 261.445C324.577 261.445 317.822 256.764 324.061 252.866C324.061 252.866 319.122 249.226 324.319 244.287L300.665 238.573Z" fill="#FFBF9D"/>
<path d="M352.912 245.702L404.528 272.738L423.893 254.21L446.969 274.999C446.969 274.999 424.098 301.857 410.846 304.198C397.595 306.538 345.988 265.04 345.988 265.04L352.912 245.702Z" fill="#FFBF9D"/>
<path d="M407.064 162.618L406.584 162.894C405.834 163.279 405.034 163.557 404.208 163.722C403.815 163.765 403.425 163.837 403.042 163.935C402.814 164.059 402.596 164.202 402.392 164.362C400.977 165.19 399.18 165.252 397.596 165.457C395.816 165.644 393.902 165.92 392.514 167.068C391.126 168.216 390.503 170.503 391.722 171.829C391.148 171.839 390.597 172.057 390.173 172.444C389.749 172.83 389.48 173.359 389.417 173.929C389.376 174.503 389.481 175.078 389.724 175.6C389.967 176.122 390.339 176.573 390.805 176.911C391.749 177.579 392.856 177.979 394.009 178.067C393.344 178.179 392.748 178.545 392.348 179.088C391.948 179.631 391.774 180.309 391.864 180.978C391.985 181.643 392.272 182.267 392.701 182.79C393.129 183.313 393.683 183.718 394.312 183.968C395.571 184.458 396.923 184.665 398.272 184.573C400.011 184.51 401.752 184.546 403.487 184.68C403.487 184.68 403.487 186.397 403.487 187.171C403.487 188.222 403.487 187.403 403.487 187.403C404.426 187.951 405.439 188.362 406.495 188.622C408.835 189.387 410.348 190.01 412.457 190.553C414.033 190.963 415.581 191.158 416.427 190.099C418.464 187.554 413.107 183.87 413.107 183.87C414.682 182.98 414.255 177.934 411.915 177.249C413.072 176.679 413.801 176.741 414.486 175.638C414.841 175.096 415.062 174.479 415.133 173.836C415.205 173.193 415.123 172.542 414.896 171.936C414.644 171.34 414.204 170.843 413.643 170.522C413.082 170.2 412.431 170.072 411.79 170.156C412.547 169.504 413.089 168.638 413.345 167.673C413.601 166.707 413.558 165.686 413.223 164.745C412.782 163.621 411.943 162.699 410.864 162.155C410.33 161.885 409.751 161.713 409.156 161.648C408.932 161.608 408.703 161.608 408.479 161.648C408.38 161.679 408.286 161.727 408.204 161.791C407.812 161.995 407.474 162.342 407.064 162.618Z" fill="#FFBF9D"/>
<path d="M409.566 156.815C409.55 156.257 409.413 155.709 409.166 155.209C408.919 154.708 408.567 154.267 408.133 153.914C407.048 153.176 405.09 153.265 403.799 153.549C403.719 155.116 403.799 155.908 403.693 157.474C403.693 157.803 403.791 158.061 403.639 158.364C403.239 159.138 401.539 159.254 400.756 159.654C400.109 160.047 399.638 160.673 399.437 161.403C399.237 162.132 399.324 162.911 399.679 163.579C400.071 164.228 400.64 164.752 401.32 165.088C401.999 165.424 402.761 165.558 403.515 165.474C405.032 165.282 406.422 164.53 407.413 163.365C408.202 162.48 408.801 161.442 409.172 160.315C409.542 159.188 409.677 157.997 409.566 156.815Z" fill="#FFBF9D"/>
<path d="M412.226 170.066C412.226 170.191 407.661 170.689 402.001 171.17C396.341 171.651 391.74 171.944 391.731 171.811C391.722 171.677 396.296 171.188 401.956 170.707C407.616 170.227 412.217 169.933 412.226 170.066Z" fill="#FF9A6C"/>
<path d="M412.226 177.213C411.356 177.479 410.462 177.658 409.556 177.747C407.379 178.071 405.187 178.285 402.989 178.388C400.408 178.521 398.076 178.494 396.385 178.388C395.471 178.392 394.558 178.303 393.662 178.121C394.57 178.031 395.483 178.01 396.394 178.058C398.076 178.058 400.399 178.058 402.962 177.898C405.525 177.738 407.839 177.569 409.512 177.4C410.411 177.274 411.318 177.212 412.226 177.213Z" fill="#FF9A6C"/>
<path d="M412.227 184.199C411.499 184.405 410.749 184.525 409.993 184.555C408.605 184.697 406.683 184.804 404.556 184.831C402.429 184.858 400.507 184.831 399.118 184.831C398.363 184.866 397.605 184.824 396.858 184.706C397.599 184.559 398.354 184.49 399.109 184.502C400.507 184.439 402.429 184.413 404.547 184.377C406.665 184.341 408.587 184.297 409.976 184.235C410.724 184.16 411.477 184.148 412.227 184.199Z" fill="#FF9A6C"/>
<path d="M409.148 159.111C409.321 159.702 409.27 160.336 409.005 160.891C408.468 162.231 407.453 163.325 406.157 163.961C405.476 164.326 404.76 164.624 404.022 164.851C403.422 165.064 402.802 165.21 402.171 165.287C401.722 165.338 401.27 165.234 400.889 164.994C400.631 164.816 400.56 164.647 400.578 164.629C401.037 164.929 401.592 165.05 402.135 164.967C402.742 164.842 403.337 164.666 403.915 164.442C404.622 164.2 405.31 163.902 405.971 163.552C407.18 162.957 408.155 161.973 408.738 160.758C408.922 160.222 409.058 159.671 409.148 159.111Z" fill="#FF9A6C"/>
<path d="M167.547 116.777H14.8079V329.08H167.547V116.777Z" fill="white"/>
<path d="M167.547 116.777H14.8079V193.623H167.547V116.777Z" fill="#2FABC0"/>
<path d="M141.108 212.454C141.108 212.588 120.105 212.694 94.2081 212.694C68.311 212.694 47.3086 212.588 47.3086 212.454C47.3086 212.321 68.3021 212.223 94.2081 212.223C120.114 212.223 141.108 212.303 141.108 212.454Z" fill="#263238"/>
<path d="M141.108 233.127C141.108 233.251 120.105 233.358 94.2081 233.358C68.311 233.358 47.3086 233.251 47.3086 233.127C47.3086 233.002 68.3021 232.896 94.2081 232.896C120.114 232.896 141.108 233.002 141.108 233.127Z" fill="#263238"/>
<path d="M141.108 253.827C141.108 253.952 120.105 254.059 94.2081 254.059C68.311 254.059 47.3086 253.952 47.3086 253.827C47.3086 253.703 68.3021 253.587 94.2081 253.587C120.114 253.587 141.108 253.694 141.108 253.827Z" fill="#263238"/>
<path d="M140.716 277.687H48.973C39.9491 277.687 32.6338 285.002 32.6338 294.026V295.725C32.6338 304.749 39.9491 312.065 48.973 312.065H140.716C149.74 312.065 157.055 304.749 157.055 295.725V294.026C157.055 285.002 149.74 277.687 140.716 277.687Z" fill="#2FABC0"/>
<path d="M76.9967 174.659C77.3308 175.108 77.5033 175.657 77.4862 176.216C77.5016 176.624 77.4104 177.029 77.2216 177.391C77.0328 177.753 76.7528 178.06 76.4094 178.281C75.4666 178.819 74.387 179.07 73.3035 179.002H67.8215V168.848H73.0187C74.0541 168.781 75.0851 169.032 75.9733 169.568C76.2934 169.779 76.555 170.068 76.7339 170.407C76.9128 170.746 77.0032 171.125 76.9967 171.508C77.0006 171.966 76.8773 172.416 76.6408 172.808C76.3899 173.191 76.0391 173.499 75.6262 173.698C76.1688 173.874 76.6461 174.209 76.9967 174.659ZM70.6604 170.921V172.879H72.6717C73.6417 172.879 74.1223 172.55 74.1223 171.891C74.1223 171.233 73.6417 170.921 72.6717 170.921H70.6604ZM74.585 175.896C74.585 175.211 74.0778 174.863 73.0721 174.863H70.6604V176.928H73.0721C74.0778 176.928 74.585 176.581 74.585 175.896Z" fill="white"/>
<path d="M85.7894 177.026H81.491L80.699 179.002H77.7622L82.2119 168.839H85.0419L89.5805 179.002H86.5903L85.7894 177.026ZM84.944 174.908L83.6447 171.66L82.3365 174.908H84.944Z" fill="white"/>
<path d="M91.5656 178.904C90.8929 178.745 90.254 178.468 89.679 178.085L90.6223 175.967C91.1135 176.283 91.6467 176.529 92.2064 176.697C92.7821 176.879 93.3823 176.972 93.9862 176.973C95.0897 176.973 95.6415 176.697 95.6415 176.145C95.6399 176.001 95.5936 175.861 95.5091 175.745C95.4246 175.629 95.3061 175.541 95.1698 175.495C94.6783 175.306 94.1724 175.158 93.657 175.05C93.0048 174.92 92.3625 174.744 91.7347 174.525C91.2277 174.344 90.7746 174.038 90.4176 173.635C90.0287 173.164 89.8317 172.563 89.8658 171.953C89.8588 171.354 90.0358 170.767 90.3731 170.271C90.7546 169.741 91.2794 169.33 91.886 169.088C92.6742 168.783 93.5152 168.638 94.36 168.661C95.0249 168.658 95.6879 168.733 96.3357 168.883C96.9384 169.014 97.5176 169.236 98.0532 169.542L97.1633 171.677C96.307 171.183 95.3396 170.914 94.3511 170.894C93.9208 170.862 93.4899 170.948 93.1052 171.143C92.9866 171.208 92.8876 171.303 92.8186 171.419C92.7497 171.535 92.7134 171.667 92.7136 171.802C92.7154 171.94 92.7612 172.074 92.8444 172.185C92.9276 172.295 93.0439 172.376 93.1764 172.416C93.6609 172.601 94.1614 172.741 94.6715 172.834C95.3235 172.969 95.9657 173.147 96.5937 173.368C97.0984 173.554 97.5504 173.859 97.9108 174.258C98.3159 174.732 98.5202 175.345 98.4804 175.967C98.4872 176.558 98.3099 177.136 97.9731 177.622C97.59 178.155 97.0617 178.565 96.4514 178.806C95.6655 179.121 94.8237 179.272 93.9773 179.251C93.1617 179.241 92.3509 179.124 91.5656 178.904Z" fill="white"/>
<path d="M99.7874 168.848H102.662V179.011H99.7874V168.848Z" fill="white"/>
<path d="M106.907 178.53C106.078 178.102 105.385 177.451 104.905 176.652C104.432 175.821 104.183 174.881 104.183 173.924C104.183 172.968 104.432 172.028 104.905 171.197C105.385 170.394 106.078 169.741 106.907 169.31C107.793 168.855 108.777 168.626 109.773 168.642C110.634 168.628 111.489 168.795 112.282 169.132C113.01 169.447 113.649 169.936 114.142 170.556L112.309 172.211C112.029 171.841 111.667 171.541 111.252 171.334C110.837 171.127 110.379 171.019 109.915 171.019C109.402 171.01 108.896 171.136 108.447 171.383C108.018 171.618 107.668 171.974 107.441 172.407C107.195 172.873 107.073 173.393 107.085 173.92C107.074 174.449 107.196 174.972 107.441 175.442C107.67 175.873 108.02 176.228 108.447 176.465C108.896 176.712 109.402 176.838 109.915 176.83C110.379 176.829 110.837 176.721 111.252 176.514C111.667 176.307 112.029 176.007 112.309 175.637L114.142 177.293C113.646 177.91 113.008 178.399 112.282 178.716C111.489 179.053 110.634 179.22 109.773 179.206C108.776 179.224 107.791 178.991 106.907 178.53Z" fill="white"/>
<path d="M71.5324 298.351C70.7678 297.939 70.133 297.323 69.6992 296.571C69.2614 295.804 69.0311 294.936 69.0311 294.052C69.0311 293.169 69.2614 292.301 69.6992 291.534C70.1524 290.829 70.7851 290.258 71.5324 289.879C72.2793 289.499 73.0992 289.286 73.9361 289.252C74.7731 289.218 75.6075 289.365 76.3826 289.683C77.027 289.958 77.5972 290.382 78.0467 290.92L76.6406 292.219C76.3552 291.868 75.9939 291.586 75.5839 291.395C75.1738 291.204 74.7258 291.108 74.2734 291.116C73.7268 291.103 73.1866 291.235 72.7071 291.498C72.2555 291.747 71.8824 292.117 71.6303 292.566C71.3698 293.047 71.238 293.586 71.2476 294.132C71.2355 294.679 71.3675 295.219 71.6303 295.699C71.8765 296.132 72.2366 296.489 72.6715 296.731C73.151 296.994 73.6912 297.126 74.2378 297.114C74.6917 297.119 75.1409 297.021 75.5512 296.827C75.9614 296.633 76.3219 296.347 76.605 295.992L78.0111 297.292C77.5663 297.842 76.9913 298.274 76.3381 298.547C75.6332 298.839 74.8762 298.984 74.1132 298.974C73.2148 298.981 72.3284 298.767 71.5324 298.351Z" fill="white"/>
<path d="M85.9672 292.255C86.2605 292.578 86.485 292.958 86.6272 293.371C86.7695 293.784 86.8265 294.222 86.7949 294.658V298.778H84.6946V294.942C84.7278 294.483 84.5917 294.027 84.3119 293.661C84.1722 293.513 84.0016 293.399 83.8124 293.325C83.6232 293.251 83.42 293.22 83.2173 293.234C82.9841 293.222 82.7511 293.26 82.5334 293.344C82.3157 293.428 82.1181 293.557 81.9536 293.723C81.6084 294.131 81.4388 294.659 81.4819 295.191V298.751H79.3728V288.802H81.4819V292.308C81.7599 292.026 82.0932 291.805 82.4609 291.658C82.8767 291.505 83.3171 291.43 83.7602 291.436C84.1644 291.415 84.5687 291.477 84.9482 291.618C85.3277 291.758 85.6745 291.975 85.9672 292.255Z" fill="white"/>
<path d="M90.1767 298.448C89.5886 298.142 89.096 297.68 88.7528 297.113C88.4206 296.523 88.2461 295.858 88.2461 295.182C88.2461 294.505 88.4206 293.84 88.7528 293.251C89.099 292.688 89.591 292.23 90.1767 291.925C90.8153 291.598 91.5242 291.433 92.2413 291.444C92.9529 291.432 93.6563 291.597 94.2882 291.925C94.8735 292.227 95.3633 292.686 95.7032 293.251C96.0413 293.838 96.2192 294.504 96.2192 295.182C96.2192 295.859 96.0413 296.525 95.7032 297.113C95.3646 297.681 94.8746 298.143 94.2882 298.448C93.6555 298.772 92.9521 298.934 92.2413 298.919C91.5249 298.934 90.8159 298.772 90.1767 298.448ZM93.5673 296.668C93.9269 296.266 94.1125 295.738 94.0835 295.2C94.0976 294.934 94.0593 294.669 93.9708 294.418C93.8822 294.168 93.7451 293.937 93.5673 293.74C93.3968 293.561 93.1908 293.419 92.9624 293.324C92.7341 293.229 92.4885 293.183 92.2413 293.188C91.9911 293.181 91.7421 293.226 91.5106 293.321C91.279 293.416 91.0701 293.559 90.8975 293.74C90.7182 293.937 90.5794 294.167 90.4893 294.417C90.3992 294.668 90.3595 294.934 90.3725 295.2C90.3469 295.739 90.5356 296.267 90.8975 296.668C91.0709 296.848 91.2801 296.989 91.5117 297.082C91.7432 297.176 91.9918 297.22 92.2413 297.211C92.4892 297.215 92.7352 297.167 92.9635 297.07C93.1919 296.974 93.3975 296.831 93.5673 296.65V296.668Z" fill="white"/>
<path d="M99.0233 298.448C98.4335 298.145 97.9404 297.682 97.5994 297.113C97.3341 296.684 97.1602 296.204 97.0884 295.705C97.0166 295.205 97.0485 294.696 97.1821 294.209C97.3157 293.722 97.5481 293.268 97.8649 292.875C98.1816 292.482 98.576 292.159 99.0233 291.925C99.6624 291.609 100.366 291.444 101.079 291.444C101.792 291.444 102.496 291.609 103.135 291.925C103.72 292.227 104.21 292.687 104.55 293.251C104.888 293.838 105.066 294.504 105.066 295.182C105.066 295.86 104.888 296.526 104.55 297.113C104.211 297.681 103.721 298.143 103.135 298.448C102.494 298.759 101.791 298.92 101.079 298.92C100.367 298.92 99.6641 298.759 99.0233 298.448ZM102.414 296.668C102.769 296.271 102.954 295.75 102.93 295.218C102.944 294.952 102.906 294.687 102.817 294.437C102.729 294.186 102.592 293.956 102.414 293.758C102.242 293.578 102.035 293.436 101.805 293.341C101.575 293.246 101.328 293.2 101.079 293.206C100.83 293.2 100.583 293.246 100.353 293.341C100.123 293.436 99.9157 293.578 99.7441 293.758C99.5647 293.955 99.426 294.185 99.3359 294.436C99.2458 294.686 99.2061 294.952 99.219 295.218C99.1934 295.757 99.3822 296.285 99.7441 296.686C99.9165 296.865 100.124 297.005 100.354 297.099C100.584 297.192 100.831 297.237 101.079 297.229C101.33 297.232 101.578 297.182 101.808 297.082C102.038 296.983 102.245 296.836 102.414 296.651V296.668Z" fill="white"/>
<path d="M107.139 298.697C106.653 298.591 106.189 298.401 105.768 298.137L106.471 296.633C106.835 296.857 107.232 297.025 107.646 297.131C108.082 297.26 108.535 297.326 108.99 297.327C109.88 297.327 110.325 297.113 110.325 296.668C110.323 296.564 110.286 296.463 110.22 296.382C110.154 296.301 110.062 296.245 109.96 296.223C109.598 296.107 109.226 296.029 108.848 295.992C108.348 295.926 107.854 295.822 107.37 295.68C106.988 295.565 106.642 295.354 106.365 295.066C106.062 294.714 105.908 294.257 105.938 293.794C105.931 293.354 106.072 292.925 106.338 292.574C106.64 292.192 107.044 291.902 107.504 291.738C108.074 291.532 108.677 291.433 109.284 291.444C109.799 291.443 110.312 291.499 110.814 291.613C111.257 291.703 111.683 291.859 112.078 292.076L111.375 293.58C110.738 293.217 110.017 293.03 109.284 293.037C108.935 293.018 108.588 293.082 108.269 293.224C108.173 293.267 108.091 293.335 108.031 293.421C107.971 293.508 107.937 293.609 107.931 293.714C107.931 293.821 107.967 293.926 108.033 294.011C108.099 294.097 108.192 294.158 108.296 294.185C108.676 294.306 109.066 294.393 109.462 294.443C109.953 294.521 110.441 294.625 110.921 294.755C111.298 294.87 111.636 295.085 111.9 295.378C112.048 295.546 112.162 295.742 112.233 295.954C112.305 296.167 112.334 296.391 112.318 296.615C112.325 297.049 112.184 297.473 111.918 297.816C111.606 298.192 111.196 298.475 110.734 298.635C110.142 298.84 109.518 298.936 108.892 298.92C108.301 298.92 107.711 298.846 107.139 298.697Z" fill="white"/>
<path d="M120.728 295.779H115.237C115.321 296.211 115.57 296.594 115.931 296.847C116.339 297.117 116.821 297.254 117.311 297.238C117.654 297.247 117.995 297.19 118.316 297.069C118.622 296.947 118.9 296.765 119.135 296.535L120.256 297.754C119.873 298.157 119.405 298.47 118.887 298.671C118.368 298.873 117.812 298.958 117.257 298.92C116.506 298.938 115.762 298.776 115.086 298.449C114.48 298.154 113.973 297.69 113.626 297.114C113.291 296.527 113.114 295.863 113.114 295.187C113.114 294.511 113.291 293.847 113.626 293.26C113.96 292.695 114.444 292.233 115.023 291.925C115.631 291.6 116.31 291.435 116.999 291.445C117.672 291.434 118.336 291.593 118.93 291.908C119.499 292.206 119.969 292.664 120.283 293.225C120.606 293.838 120.76 294.526 120.728 295.218C120.728 295.218 120.728 295.432 120.728 295.779ZM115.78 293.438C115.452 293.719 115.242 294.113 115.193 294.542H118.752C118.694 294.114 118.482 293.722 118.156 293.438C117.822 293.161 117.398 293.015 116.964 293.029C116.532 293.017 116.112 293.163 115.78 293.438Z" fill="white"/>
<path d="M37.7603 216.289C37.4335 216.292 37.1171 216.175 36.8703 215.96L34.2628 213.655C33.9973 213.419 33.8364 213.087 33.8155 212.733C33.7947 212.378 33.9156 212.03 34.1516 211.764C34.3876 211.499 34.7194 211.338 35.0741 211.317C35.4288 211.296 35.7772 211.417 36.0427 211.653L37.6713 213.086L41.3556 209.01C41.6 208.783 41.9204 208.656 42.2538 208.653C42.5872 208.651 42.9095 208.773 43.1572 208.996C43.4049 209.22 43.5602 209.527 43.5924 209.859C43.6246 210.191 43.5314 210.523 43.3313 210.79L38.7659 215.836C38.6389 215.977 38.4839 216.09 38.3108 216.168C38.1377 216.246 37.9502 216.288 37.7603 216.289Z" fill="#455A64"/>
<path d="M37.7591 236.98C37.4323 236.983 37.1159 236.866 36.8691 236.651L34.2616 234.355C34.1296 234.238 34.0218 234.097 33.9445 233.938C33.8673 233.78 33.822 233.607 33.8112 233.431C33.7895 233.076 33.9099 232.726 34.1459 232.46C34.382 232.193 34.7143 232.031 35.0698 232.009C35.4253 231.988 35.7748 232.108 36.0415 232.344L37.6612 233.812L41.3455 229.745C41.4568 229.597 41.5977 229.474 41.7593 229.383C41.9209 229.292 42.0996 229.236 42.2841 229.218C42.4686 229.2 42.6547 229.221 42.8308 229.279C43.0068 229.337 43.1688 229.431 43.3065 229.555C43.4442 229.679 43.5546 229.83 43.6306 230C43.7066 230.169 43.7465 230.352 43.7479 230.537C43.7493 230.722 43.712 230.906 43.6386 231.076C43.5651 231.246 43.457 231.399 43.3212 231.525L38.7558 236.571C38.6272 236.705 38.4722 236.81 38.3006 236.881C38.129 236.951 37.9445 236.985 37.7591 236.98Z" fill="#455A64"/>
<path d="M37.7603 257.68C37.4334 257.682 37.1171 257.565 36.8703 257.351L34.2628 255.046C34.1313 254.929 34.0242 254.788 33.9474 254.629C33.8707 254.471 33.8259 254.299 33.8155 254.124C33.8052 253.948 33.8296 253.772 33.8872 253.606C33.9449 253.44 34.0347 253.286 34.1516 253.155C34.2685 253.023 34.4101 252.916 34.5684 252.84C34.7266 252.763 34.8985 252.718 35.0741 252.708C35.2497 252.697 35.4256 252.722 35.5918 252.779C35.758 252.837 35.9112 252.927 36.0427 253.044L37.6713 254.477L41.3556 250.401C41.4669 250.252 41.6078 250.129 41.7694 250.038C41.931 249.947 42.1097 249.891 42.2942 249.873C42.4787 249.856 42.6648 249.876 42.8409 249.934C43.0169 249.992 43.1789 250.086 43.3166 250.21C43.4543 250.334 43.5647 250.486 43.6407 250.655C43.7166 250.824 43.7566 251.007 43.758 251.192C43.7594 251.378 43.7221 251.561 43.6487 251.731C43.5752 251.901 43.4671 252.054 43.3312 252.18L38.7659 257.226C38.6389 257.368 38.4839 257.481 38.3108 257.559C38.1377 257.637 37.9502 257.678 37.7603 257.68Z" fill="#455A64"/>
<path d="M96.9668 155.694L91.1822 152.571L85.3265 155.561L86.5101 149.1L81.8557 144.455L88.37 143.582L91.3513 137.718L94.1991 143.645L100.696 144.668L95.9345 149.207L96.9668 155.694Z" fill="white"/>
<path d="M167.547 329.08C167.547 327.211 167.467 242.267 167.343 116.777L167.547 116.991L14.826 117.009L15.0574 116.777C15.0574 196.213 15.0574 269.712 15.0129 329.08L14.826 328.893L167.565 329.08L14.826 329.267H14.6391V329.08C14.6391 269.712 14.6391 196.213 14.5946 116.777V116.546H14.826H167.547H167.761V116.751C167.636 242.267 167.556 327.255 167.547 329.08Z" fill="#263238"/>
</svg>
