<svg width="34" height="6" viewBox="0 0 34 6" fill="none" xmlns="http://www.w3.org/2000/svg">
<path opacity="0.35" d="M23.314 0.293708H30.5442C31.3663 0.293708 32.0328 0.960164 32.0328 1.78228V3.90881C32.0328 4.73092 31.3663 5.39738 30.5442 5.39738H23.314C22.4919 5.39738 21.8254 4.73093 21.8254 3.90881V1.78228C21.8254 0.960164 22.4919 0.293708 23.314 0.293708Z" stroke="black" stroke-width="0.425306"/>
<path opacity="0.4" d="M32.6709 2.20703V4.00197C33.032 3.84995 33.2668 3.49631 33.2668 3.1045C33.2668 2.7127 33.032 2.35905 32.6709 2.20703" fill="black"/>
<path d="M22.4634 1.78225C22.4634 1.31247 22.8442 0.931641 23.314 0.931641H30.5442C31.014 0.931641 31.3948 1.31247 31.3948 1.78225V3.90878C31.3948 4.37856 31.014 4.7594 30.5442 4.7594H23.314C22.8442 4.7594 22.4634 4.37856 22.4634 3.90878V1.78225Z" fill="black"/>
<path fill-rule="evenodd" clip-rule="evenodd" d="M15.0211 1.60733C16.0701 1.60737 17.079 2.01882 17.8393 2.75663C17.8966 2.81359 17.9881 2.81287 18.0445 2.75502L18.5917 2.19124C18.6203 2.1619 18.6362 2.12215 18.636 2.08079C18.6357 2.03944 18.6194 1.99988 18.5905 1.97088C16.595 0.0188202 13.4468 0.0188202 11.4513 1.97088C11.4224 1.99986 11.406 2.0394 11.4058 2.08076C11.4055 2.12212 11.4214 2.16187 11.4499 2.19124L11.9973 2.75502C12.0537 2.81296 12.1453 2.81368 12.2025 2.75663C12.9629 2.01877 13.9719 1.60732 15.0211 1.60733ZM15.0361 3.30934C15.6125 3.3093 16.1683 3.52798 16.5956 3.92289C16.6534 3.97893 16.7444 3.97772 16.8007 3.92015L17.3474 3.35637C17.3761 3.3268 17.3921 3.28668 17.3917 3.245C17.3913 3.20331 17.3745 3.16353 17.3452 3.13457C16.0441 1.89922 14.0293 1.89922 12.7282 3.13457C12.6988 3.16353 12.6821 3.20333 12.6817 3.24503C12.6813 3.28673 12.6973 3.32684 12.7262 3.35637L13.2727 3.92015C13.329 3.97772 13.42 3.97893 13.4778 3.92289C13.9048 3.52824 14.4601 3.30958 15.0361 3.30934ZM16.1477 4.40975C16.1486 4.45155 16.1325 4.49186 16.1032 4.52114L15.1577 5.49519C15.1299 5.52382 15.0922 5.53993 15.0527 5.53993C15.0133 5.53993 14.9755 5.52382 14.9478 5.49519L14.0021 4.52114C13.9728 4.49183 13.9568 4.45152 13.9576 4.40971C13.9585 4.36791 13.9762 4.32832 14.0066 4.3003C14.6105 3.77895 15.4949 3.77895 16.0988 4.3003C16.1292 4.32835 16.1469 4.36795 16.1477 4.40975Z" fill="black"/>
<path d="M4.60072 1.78275C4.60072 1.54786 4.79113 1.35745 5.02602 1.35745H5.45133C5.68622 1.35745 5.87664 1.54786 5.87664 1.78275V5.1852C5.87664 5.42009 5.68622 5.61051 5.45133 5.61051H5.02602C4.79113 5.61051 4.60072 5.42009 4.60072 5.1852V1.78275Z" fill="black"/>
<path d="M6.72725 0.932142C6.72725 0.697252 6.91766 0.506836 7.15255 0.506836H7.57786C7.81275 0.506836 8.00317 0.697252 8.00317 0.932142V5.1852C8.00317 5.42009 7.81275 5.61051 7.57786 5.61051H7.15255C6.91766 5.61051 6.72725 5.42009 6.72725 5.1852V0.932142Z" fill="black"/>
<path d="M2.47419 3.27133C2.47419 3.03644 2.6646 2.84602 2.89949 2.84602H3.3248C3.55969 2.84602 3.7501 3.03644 3.7501 3.27133V5.1852C3.7501 5.42009 3.55969 5.61051 3.3248 5.61051H2.89949C2.6646 5.61051 2.47419 5.42009 2.47419 5.1852V3.27133Z" fill="black"/>
<path d="M0.347656 4.33459C0.347656 4.0997 0.538072 3.90928 0.772962 3.90928H1.19827C1.43316 3.90928 1.62357 4.0997 1.62357 4.33459V5.1852C1.62357 5.42009 1.43316 5.61051 1.19827 5.61051H0.772962C0.538072 5.61051 0.347656 5.42009 0.347656 5.1852V4.33459Z" fill="black"/>
</svg>
