<svg width="58" height="10" viewBox="0 0 58 10" fill="none" xmlns="http://www.w3.org/2000/svg">
<path opacity="0.35" d="M40.0543 0.371413H52.5828C54.0073 0.371413 55.1621 1.52624 55.1621 2.9508V6.63563C55.1621 8.06018 54.0073 9.21501 52.5827 9.21501H40.0543C38.6298 9.21501 37.4749 8.06019 37.4749 6.63563V2.9508C37.4749 1.52624 38.6298 0.371413 40.0543 0.371413Z" stroke="black" stroke-width="0.736967"/>
<path opacity="0.4" d="M56.2676 3.68848V6.79873C56.8933 6.53531 57.3002 5.92252 57.3002 5.2436C57.3002 4.56469 56.8933 3.9519 56.2676 3.68848" fill="black"/>
<path d="M38.5806 2.95147C38.5806 2.13744 39.2405 1.47754 40.0545 1.47754H52.5829C53.397 1.47754 54.0569 2.13744 54.0569 2.95147V6.63631C54.0569 7.45034 53.397 8.11024 52.5829 8.11024H40.0545C39.2405 8.11024 38.5806 7.45034 38.5806 6.63631V2.95147Z" fill="black"/>
<path fill-rule="evenodd" clip-rule="evenodd" d="M25.684 2.64716C27.5018 2.64724 29.25 3.36019 30.5674 4.63866C30.6666 4.73736 30.8252 4.73611 30.9229 4.63586L31.8712 3.65895C31.9207 3.60811 31.9483 3.53924 31.9479 3.46757C31.9475 3.39591 31.9191 3.32737 31.869 3.27712C28.4112 -0.105395 22.9562 -0.105395 19.4984 3.27712C19.4483 3.32734 19.4199 3.39586 19.4194 3.46752C19.419 3.53918 19.4465 3.60807 19.4959 3.65895L20.4445 4.63586C20.5422 4.73626 20.7009 4.73751 20.8 4.63866C22.1176 3.36011 23.866 2.64715 25.684 2.64716ZM25.7101 5.59638C26.7089 5.59632 27.672 5.97525 28.4123 6.65954C28.5124 6.75666 28.6702 6.75455 28.7678 6.6548L29.715 5.67789C29.7649 5.62665 29.7925 5.55713 29.7918 5.4849C29.7911 5.41266 29.762 5.34374 29.7112 5.29354C27.4567 3.15295 23.9654 3.15295 21.711 5.29354C21.6601 5.34374 21.631 5.4127 21.6303 5.48495C21.6297 5.55721 21.6575 5.62672 21.7074 5.67789L22.6544 6.6548C22.752 6.75455 22.9097 6.75666 23.0099 6.65954C23.7497 5.9757 24.712 5.59681 25.7101 5.59638ZM27.6363 7.50317C27.6377 7.57561 27.6098 7.64544 27.5592 7.69619L25.9207 9.38401C25.8727 9.43361 25.8072 9.46153 25.7389 9.46153C25.6705 9.46153 25.605 9.43361 25.557 9.38401L23.9183 7.69619C23.8676 7.6454 23.8398 7.57555 23.8413 7.50311C23.8428 7.43067 23.8735 7.36208 23.9262 7.31352C24.9726 6.41012 26.5051 6.41012 27.5515 7.31352C27.6042 7.36212 27.6348 7.43073 27.6363 7.50317Z" fill="black"/>
<path d="M7.62797 2.95113C7.62797 2.54412 7.95792 2.21417 8.36494 2.21417H9.1019C9.50892 2.21417 9.83887 2.54412 9.83887 2.95113V8.84687C9.83887 9.25388 9.50892 9.58384 9.1019 9.58384H8.36494C7.95792 9.58384 7.62797 9.25388 7.62797 8.84687V2.95113Z" fill="black"/>
<path d="M11.3128 1.4772C11.3128 1.07019 11.6428 0.740234 12.0498 0.740234H12.7867C13.1938 0.740234 13.5237 1.07019 13.5237 1.4772V8.84687C13.5237 9.25388 13.1938 9.58384 12.7867 9.58384H12.0498C11.6428 9.58384 11.3128 9.25388 11.3128 8.84687V1.4772Z" fill="black"/>
<path d="M3.94313 5.53052C3.94313 5.1235 4.27309 4.79355 4.6801 4.79355H5.41707C5.82408 4.79355 6.15404 5.1235 6.15404 5.53052V8.84687C6.15404 9.25388 5.82408 9.58384 5.41707 9.58384H4.6801C4.27309 9.58384 3.94313 9.25388 3.94313 8.84687V5.53052Z" fill="black"/>
<path d="M0.258301 7.37294C0.258301 6.96592 0.588252 6.63597 0.995268 6.63597H1.73223C2.13925 6.63597 2.4692 6.96592 2.4692 7.37294V8.84687C2.4692 9.25388 2.13925 9.58384 1.73223 9.58384H0.995268C0.588252 9.58384 0.258301 9.25388 0.258301 8.84687V7.37294Z" fill="black"/>
</svg>
