<svg width="34" height="6" viewBox="0 0 34 6" fill="none" xmlns="http://www.w3.org/2000/svg">
<path opacity="0.35" d="M23.3662 0.452457H30.5818C31.4023 0.452457 32.0674 1.11756 32.0674 1.93802V4.06024C32.0674 4.88069 31.4023 5.5458 30.5818 5.5458H23.3662C22.5458 5.5458 21.8807 4.88069 21.8807 4.06024V1.93801C21.8807 1.11756 22.5458 0.452457 23.3662 0.452457Z" stroke="black" stroke-width="0.424445"/>
<path opacity="0.4" d="M32.7036 2.3623V4.15361C33.064 4.0019 33.2983 3.64897 33.2983 3.25796C33.2983 2.86695 33.064 2.51402 32.7036 2.3623" fill="black"/>
<path d="M22.5171 1.93776C22.5171 1.46893 22.8972 1.08887 23.366 1.08887H30.5816C31.0504 1.08887 31.4304 1.46893 31.4304 1.93776V4.05998C31.4304 4.52881 31.0504 4.90887 30.5815 4.90887H23.366C22.8971 4.90887 22.5171 4.52881 22.5171 4.05998V1.93776Z" fill="black"/>
<path fill-rule="evenodd" clip-rule="evenodd" d="M15.0904 1.76233C16.1373 1.76237 17.1442 2.17299 17.903 2.9093C17.9601 2.96615 18.0514 2.96543 18.1077 2.90769L18.6538 2.34506C18.6823 2.31577 18.6982 2.27611 18.698 2.23483C18.6978 2.19356 18.6814 2.15409 18.6526 2.12515C16.6611 0.177035 13.5194 0.177035 11.5279 2.12515C11.4991 2.15407 11.4827 2.19353 11.4824 2.2348C11.4822 2.27607 11.498 2.31575 11.5265 2.34506L12.0728 2.90769C12.129 2.96552 12.2204 2.96623 12.2775 2.9093C13.0364 2.17294 14.0434 1.76232 15.0904 1.76233ZM15.1054 3.46089C15.6807 3.46086 16.2353 3.67909 16.6617 4.0732C16.7194 4.12913 16.8102 4.12792 16.8665 4.07047L17.412 3.50783C17.4407 3.47832 17.4567 3.43828 17.4562 3.39668C17.4558 3.35508 17.4391 3.31538 17.4098 3.28647C16.1114 2.05363 14.1006 2.05363 12.8022 3.28647C12.7729 3.31538 12.7561 3.3551 12.7558 3.39671C12.7554 3.43833 12.7714 3.47836 12.8002 3.50783L13.3455 4.07047C13.4018 4.12792 13.4926 4.12913 13.5503 4.0732C13.9764 3.67935 14.5306 3.46113 15.1054 3.46089ZM16.2148 4.55908C16.2156 4.60079 16.1996 4.64102 16.1704 4.67024L15.2267 5.64232C15.1991 5.67089 15.1614 5.68697 15.122 5.68697C15.0826 5.68697 15.0449 5.67089 15.0173 5.64232L14.0735 4.67024C14.0443 4.64099 14.0283 4.60076 14.0291 4.55904C14.03 4.51732 14.0477 4.47782 14.078 4.44985C14.6807 3.92955 15.5633 3.92955 16.166 4.44985C16.1963 4.47784 16.214 4.51736 16.2148 4.55908Z" fill="black"/>
<path d="M4.69074 1.93837C4.69074 1.70396 4.88077 1.51393 5.11519 1.51393H5.53963C5.77405 1.51393 5.96408 1.70396 5.96408 1.93837V5.33394C5.96408 5.56835 5.77405 5.75838 5.53963 5.75838H5.11519C4.88077 5.75838 4.69074 5.56835 4.69074 5.33394V1.93837Z" fill="black"/>
<path d="M6.81297 1.08948C6.81297 0.85507 7.003 0.665039 7.23741 0.665039H7.66186C7.89627 0.665039 8.0863 0.85507 8.0863 1.08948V5.33394C8.0863 5.56835 7.89627 5.75838 7.66186 5.75838H7.23741C7.003 5.75838 6.81297 5.56835 6.81297 5.33394V1.08948Z" fill="black"/>
<path d="M2.56852 3.42393C2.56852 3.18952 2.75855 2.99949 2.99296 2.99949H3.41741C3.65182 2.99949 3.84185 3.18952 3.84185 3.42393V5.33394C3.84185 5.56835 3.65182 5.75838 3.41741 5.75838H2.99296C2.75855 5.75838 2.56852 5.56835 2.56852 5.33394V3.42393Z" fill="black"/>
<path d="M0.446289 4.48505C0.446289 4.25063 0.63632 4.0606 0.870734 4.0606H1.29518C1.52959 4.0606 1.71962 4.25063 1.71962 4.48505V5.33394C1.71962 5.56835 1.52959 5.75838 1.29518 5.75838H0.870734C0.63632 5.75838 0.446289 5.56835 0.446289 5.33394V4.48505Z" fill="black"/>
</svg>
