<svg width="58" height="10" viewBox="0 0 58 10" fill="none" xmlns="http://www.w3.org/2000/svg">
<path opacity="0.35" d="M40.0764 0.399504H52.6303C54.0577 0.399504 55.2149 1.55668 55.2149 2.98412V6.67643C55.2149 8.10387 54.0577 9.26104 52.6302 9.26104H40.0764C38.649 9.26104 37.4918 8.10387 37.4918 6.67643V2.98412C37.4918 1.55667 38.649 0.399504 40.0764 0.399504Z" stroke="black" stroke-width="0.738461"/>
<path opacity="0.4" d="M56.3228 3.72168V6.83824C56.9498 6.57429 57.3575 5.96025 57.3575 5.27996C57.3575 4.59967 56.9498 3.98563 56.3228 3.72168" fill="black"/>
<path d="M38.5996 2.98376C38.5996 2.16808 39.2609 1.50684 40.0765 1.50684H52.6304C53.4461 1.50684 54.1073 2.16808 54.1073 2.98376V6.67607C54.1073 7.49175 53.4461 8.15299 52.6304 8.15299H40.0765C39.2609 8.15299 38.5996 7.49175 38.5996 6.67607V2.98376Z" fill="black"/>
<path fill-rule="evenodd" clip-rule="evenodd" d="M25.6772 2.67934C27.4986 2.67943 29.2504 3.39382 30.5705 4.67488C30.6699 4.77378 30.8288 4.77254 30.9267 4.67209L31.8769 3.69319C31.9265 3.64225 31.9542 3.57323 31.9537 3.50143C31.9533 3.42962 31.9249 3.36094 31.8748 3.31059C28.41 -0.0787899 22.9438 -0.0787899 19.479 3.31059C19.4288 3.3609 19.4004 3.42956 19.3999 3.50137C19.3994 3.57317 19.427 3.64221 19.4766 3.69319L20.4271 4.67209C20.5249 4.77269 20.6839 4.77394 20.7833 4.67488C22.1035 3.39374 23.8555 2.67934 25.6772 2.67934ZM25.7033 5.63455C26.7041 5.63449 27.6692 6.01419 28.411 6.69987C28.5113 6.79718 28.6694 6.79507 28.7672 6.69511L29.7163 5.71622C29.7663 5.66488 29.7941 5.59522 29.7933 5.52284C29.7926 5.45046 29.7635 5.3814 29.7125 5.3311C27.4535 3.18617 23.9551 3.18617 21.6961 5.3311C21.6451 5.3814 21.616 5.45049 21.6153 5.5229C21.6146 5.5953 21.6425 5.66495 21.6925 5.71622L22.6414 6.69511C22.7392 6.79507 22.8973 6.79718 22.9976 6.69987C23.7389 6.01464 24.7032 5.63498 25.7033 5.63455ZM27.6334 7.54521C27.6349 7.61779 27.6069 7.68777 27.5562 7.73862L25.9144 9.42986C25.8662 9.47957 25.8006 9.50754 25.7321 9.50754C25.6637 9.50754 25.5981 9.47957 25.5499 9.42986L23.9079 7.73862C23.8571 7.68773 23.8292 7.61773 23.8307 7.54515C23.8322 7.47256 23.863 7.40383 23.9158 7.35517C24.9643 6.44994 26.5 6.44994 27.5485 7.35517C27.6012 7.40387 27.632 7.47262 27.6334 7.54521Z" fill="black"/>
<path d="M7.58432 2.98394C7.58432 2.5761 7.91494 2.24548 8.32278 2.24548H9.06124C9.46909 2.24548 9.79971 2.5761 9.79971 2.98394V8.89163C9.79971 9.29947 9.46909 9.63009 9.06124 9.63009H8.32278C7.91494 9.63009 7.58432 9.29947 7.58432 8.89163V2.98394Z" fill="black"/>
<path d="M11.2766 1.50702C11.2766 1.09918 11.6072 0.768555 12.0151 0.768555H12.7536C13.1614 0.768555 13.492 1.09918 13.492 1.50702V8.89163C13.492 9.29947 13.1614 9.63009 12.7536 9.63009H12.0151C11.6072 9.63009 11.2766 9.29947 11.2766 8.89163V1.50702Z" fill="black"/>
<path d="M3.89201 5.56855C3.89201 5.16071 4.22264 4.83009 4.63048 4.83009H5.36894C5.77678 4.83009 6.1074 5.16071 6.1074 5.56855V8.89163C6.1074 9.29947 5.77678 9.63009 5.36894 9.63009H4.63048C4.22264 9.63009 3.89201 9.29947 3.89201 8.89163V5.56855Z" fill="black"/>
<path d="M0.199707 7.41471C0.199707 7.00687 0.530328 6.67625 0.938169 6.67625H1.67663C2.08447 6.67625 2.41509 7.00687 2.41509 7.41471V8.89163C2.41509 9.29947 2.08447 9.63009 1.67663 9.63009H0.938168C0.530327 9.63009 0.199707 9.29947 0.199707 8.89163V7.41471Z" fill="black"/>
</svg>
