<svg width="10" height="10" viewBox="0 0 10 10" fill="none" xmlns="http://www.w3.org/2000/svg">
<g clip-path="url(#clip0_202_100968)">
<path d="M6.09315 8.70757V7.96911C6.09315 7.57741 5.93754 7.20175 5.66057 6.92477C5.38359 6.64779 5.00793 6.49219 4.61623 6.49219H2.03161C1.63991 6.49219 1.26425 6.64779 0.987268 6.92477C0.710291 7.20175 0.554688 7.57741 0.554688 7.96911V8.70757" stroke="white" stroke-width="1.10769" stroke-linecap="round" stroke-linejoin="round"/>
<path d="M3.3236 5.01439C4.13928 5.01439 4.80053 4.35315 4.80053 3.53747C4.80053 2.72179 4.13928 2.06055 3.3236 2.06055C2.50792 2.06055 1.84668 2.72179 1.84668 3.53747C1.84668 4.35315 2.50792 5.01439 3.3236 5.01439Z" stroke="white" stroke-width="1.10769" stroke-linecap="round" stroke-linejoin="round"/>
<path d="M6.4624 5.01581L7.20086 5.75427L8.67779 4.27734" stroke="white" stroke-width="1.10769" stroke-linecap="round" stroke-linejoin="round"/>
</g>
<defs>
<clipPath id="clip0_202_100968">
<rect width="8.86154" height="8.86154" fill="white" transform="translate(0.185059 0.953125)"/>
</clipPath>
</defs>
</svg>
