<svg width="6" height="6" viewBox="0 0 6 6" fill="none" xmlns="http://www.w3.org/2000/svg">
<g clip-path="url(#clip0_202_106200)">
<path d="M3.82212 4.61674V4.19143C3.82212 3.96584 3.7325 3.74948 3.57298 3.58996C3.41346 3.43044 3.1971 3.34082 2.97151 3.34082H1.48294C1.25734 3.34082 1.04098 3.43044 0.881463 3.58996C0.721942 3.74948 0.632324 3.96584 0.632324 4.19143V4.61674" stroke="white" stroke-width="0.637959" stroke-linecap="round" stroke-linejoin="round"/>
<path d="M2.22708 2.48931C2.69686 2.48931 3.07769 2.10848 3.07769 1.6387C3.07769 1.16892 2.69686 0.788086 2.22708 0.788086C1.7573 0.788086 1.37646 1.16892 1.37646 1.6387C1.37646 2.10848 1.7573 2.48931 2.22708 2.48931Z" stroke="white" stroke-width="0.637959" stroke-linecap="round" stroke-linejoin="round"/>
<path d="M4.03516 2.48976L4.46046 2.91507L5.31107 2.06445" stroke="white" stroke-width="0.637959" stroke-linecap="round" stroke-linejoin="round"/>
</g>
<defs>
<clipPath id="clip0_202_106200">
<rect width="5.10367" height="5.10367" fill="white" transform="translate(0.419434 0.150391)"/>
</clipPath>
</defs>
</svg>
