<svg width="11" height="11" viewBox="0 0 11 11" fill="none" xmlns="http://www.w3.org/2000/svg">
<g clip-path="url(#clip0_202_111098)">
<path d="M7.26191 8.9366V8.08599C7.26191 7.6348 7.08268 7.20208 6.76364 6.88304C6.4446 6.564 6.01188 6.38477 5.56069 6.38477H2.58355C2.13236 6.38477 1.69964 6.564 1.3806 6.88304C1.06156 7.20208 0.882324 7.6348 0.882324 8.08599V8.9366" stroke="#333333" stroke-width="0.850612" stroke-linecap="round" stroke-linejoin="round"/>
<path d="M4.07183 4.6837C5.01139 4.6837 5.77305 3.92203 5.77305 2.98247C5.77305 2.04291 5.01139 1.28125 4.07183 1.28125C3.13227 1.28125 2.37061 2.04291 2.37061 2.98247C2.37061 3.92203 3.13227 4.6837 4.07183 4.6837Z" stroke="#333333" stroke-width="0.850612" stroke-linecap="round" stroke-linejoin="round"/>
<path d="M7.68701 4.6846L8.53762 5.53521L10.2388 3.83398" stroke="#333333" stroke-width="0.850612" stroke-linecap="round" stroke-linejoin="round"/>
</g>
<defs>
<clipPath id="clip0_202_111098">
<rect width="10.2073" height="10.2073" fill="white" transform="translate(0.457031 0.00585938)"/>
</clipPath>
</defs>
</svg>
