<svg width="19" height="19" viewBox="0 0 19 19" fill="none" xmlns="http://www.w3.org/2000/svg">
<g clip-path="url(#clip0_202_111041)">
<path d="M12.7464 16.048V14.571C12.7464 13.7876 12.4351 13.0363 11.8812 12.4823C11.3272 11.9284 10.5759 11.6172 9.79251 11.6172H4.62328C3.83987 11.6172 3.08855 11.9284 2.5346 12.4823C1.98064 13.0363 1.66943 13.7876 1.66943 14.571V16.048" stroke="#333333" stroke-width="1.47692" stroke-linecap="round" stroke-linejoin="round"/>
<path d="M7.20775 8.66355C8.83912 8.66355 10.1616 7.34107 10.1616 5.70971C10.1616 4.07834 8.83912 2.75586 7.20775 2.75586C5.57639 2.75586 4.25391 4.07834 4.25391 5.70971C4.25391 7.34107 5.57639 8.66355 7.20775 8.66355Z" stroke="#333333" stroke-width="1.47692" stroke-linecap="round" stroke-linejoin="round"/>
<path d="M13.4849 8.66247L14.9618 10.1394L17.9156 7.18555" stroke="#333333" stroke-width="1.47692" stroke-linecap="round" stroke-linejoin="round"/>
</g>
<defs>
<clipPath id="clip0_202_111041">
<rect width="17.7231" height="17.7231" fill="white" transform="translate(0.931152 0.539062)"/>
</clipPath>
</defs>
</svg>
