<svg width="136" height="51" viewBox="0 0 136 51" fill="none" xmlns="http://www.w3.org/2000/svg">
<path d="M70.7533 1.00004L70.7542 1.00004C77.5312 1.00323 84.1993 2.70478 90.1492 5.94918C96.0992 9.19358 101.141 13.8774 104.814 19.5725L105.216 20.1958L105.93 19.992C107.997 19.4013 110.136 19.1018 112.285 19.1022H112.286C115.234 19.1022 118.153 19.6829 120.877 20.8112C123.601 21.9394 126.076 23.5932 128.161 25.678C130.246 27.7627 131.899 30.2377 133.028 32.9616C134.156 35.6855 134.737 38.6049 134.737 41.5532L134.737 41.5553C134.743 44.4175 134.195 47.2518 133.127 49.9027H2.25668C1.00762 45.8584 0.683415 41.5818 1.31211 37.3898C1.9762 32.9619 3.68439 28.7555 6.29555 25.1182C8.90671 21.4809 12.3459 18.5172 16.3289 16.4719C20.312 14.4265 24.7245 13.3583 29.202 13.3555L29.2047 13.3555C32.5859 13.3444 35.9406 13.9517 39.1034 15.1475L39.7539 15.3934L40.2109 14.8692C44.0132 10.5069 48.7074 7.01141 53.9764 4.61878C59.2454 2.22616 64.9665 0.992129 70.7533 1.00004Z" fill="white" stroke="black" stroke-width="2"/>
</svg>
