<svg width="203" height="76" viewBox="0 0 203 76" fill="none" xmlns="http://www.w3.org/2000/svg">
<path d="M80.2224 6.45129C88.1263 2.86097 96.7065 1.00235 105.388 1.00001C115.563 1.00424 125.575 3.55843 134.509 8.42947C143.456 13.3077 151.036 20.3536 156.553 28.9214L156.958 29.549L157.674 29.34C160.786 28.4323 164.011 27.9695 167.253 27.9654C172.884 27.9697 178.427 29.3743 183.381 32.0527C188.336 34.7314 192.546 38.6001 195.634 43.3106C198.722 48.021 200.59 53.4254 201.07 59.0372C201.531 64.4319 200.696 69.8554 198.638 74.8567H2.94042C1.63797 70.6679 0.983276 66.3031 1.00033 61.9137L1.00033 61.911C1.00803 55.0443 2.67779 48.2815 5.86695 42.2003C9.05611 36.1191 13.6699 30.9003 19.3142 26.9896C24.9585 23.0789 31.4655 20.5926 38.2794 19.7431C45.0934 18.8935 52.0117 19.706 58.4435 22.1111L59.0916 22.3535L59.5468 21.8323C65.2624 15.2889 72.3121 10.0445 80.2224 6.45129Z" fill="white" stroke="black" stroke-width="2"/>
</svg>
