<svg width="98" height="36" viewBox="0 0 98 36" fill="none" xmlns="http://www.w3.org/2000/svg">
<path d="M39.0885 3.54326C42.854 1.86848 46.9425 1.00112 51.0797 1C55.9291 1.002 60.6998 2.19399 64.9555 4.46594C69.2175 6.74121 72.8257 10.0262 75.4511 14.018L75.8548 14.6318L76.5612 14.4301C78.0242 14.0123 79.5406 13.7991 81.065 13.7972C83.7128 13.7993 86.3176 14.446 88.6446 15.6779C90.972 16.9099 92.9475 18.6881 94.3952 20.8504C95.8427 23.0126 96.7174 25.4917 96.9421 28.0644C97.1482 30.4235 96.8021 32.7951 95.9329 35H1.80384C1.26356 33.1765 0.992614 31.2857 1.00016 29.3851L1.00016 29.3823C1.00379 26.212 1.79105 23.0888 3.29591 20.2791C4.80082 17.4693 6.9792 15.0558 9.64669 13.2461C12.3143 11.4364 15.3912 10.2849 18.6147 9.89135C21.8382 9.49783 25.1109 9.87428 28.1526 10.988L28.7905 11.2215L29.2426 10.7146C31.9632 7.66503 35.32 5.21938 39.0885 3.54326Z" fill="white" stroke="black" stroke-width="2"/>
</svg>
