<svg width="166" height="162" viewBox="0 0 166 162" fill="none" xmlns="http://www.w3.org/2000/svg">
<path d="M9.34156 62.782H17.5762L16.8509 66.4756H2.01752L2.60486 63.5389L11.5333 56.542C13.7407 54.7761 14.4148 53.7433 14.4148 52.4543C14.4148 51.1653 13.4332 50.2981 11.5333 50.2981C10.7313 50.3101 9.94202 50.4998 9.22223 50.8536C8.50243 51.2074 7.87004 51.7163 7.37061 52.3439L4.31958 50.1325C5.89634 47.9763 8.82517 46.5493 12.2034 46.5493C16.3463 46.5493 19.0583 48.7607 19.0583 51.8117C19.0583 54.1335 17.998 56.0926 14.5527 58.7534L9.34156 62.782Z" fill="#263238"/>
<path d="M37.1951 62.3641H33.9785L33.1665 66.4755H28.7437L29.5833 62.3641H19.0308L19.6182 59.3131L31.1522 46.8843H36.1032L25.3576 58.6666H30.5057L31.2349 55.0006H35.4606L34.7314 58.6666H37.9519L37.1951 62.3641Z" fill="#263238"/>
<path d="M50.1245 42.9111H54.2123L39.8283 69.2745H35.7523L50.1245 42.9111Z" fill="#263238"/>
<path d="M68.7933 46.8843L68.206 49.8249L57.7403 66.4755H52.7025L62.7465 50.5778H56.3961L55.7496 53.7708H51.721L53.0967 46.8843H68.7933Z" fill="#263238"/>
<path d="M0.18457 81.9326L1.33166 79.7566C2.35402 80.4098 3.54006 80.761 4.75323 80.7697C5.87273 80.7697 6.5192 80.4189 6.5192 79.8591C6.5192 78.4755 1.52087 79.2402 1.52087 76.0079C1.52087 73.7886 3.41693 72.334 6.46007 72.334C7.75073 72.2912 9.02918 72.5962 10.1615 73.217L9.10508 75.3772C8.25678 74.855 7.27878 74.5819 6.28269 74.5888C5.07646 74.5888 4.42999 75.0303 4.42999 75.5901C4.42999 77.0013 9.42832 76.1932 9.42832 79.3664C9.42832 81.5699 7.4889 83.0245 4.4773 83.0245C2.71133 83.0323 1.11092 82.5633 0.18457 81.9326Z" fill="#263238"/>
<path d="M14.6119 74.7897L14.2769 76.5241H18.8455L18.408 78.6961H13.8354L13.4648 80.5804H18.8613L18.3883 82.8272H10.13L12.2034 72.5586H20.2567L19.7995 74.8094L14.6119 74.7897Z" fill="#263238"/>
<path d="M27.7621 79.7407L29.5123 82.8272H26.4691L24.9397 80.0955H23.4733L22.9293 82.8272H20.0202L22.0739 72.5586H26.4691C29.0984 72.5586 30.612 73.7806 30.612 75.8383C30.6327 76.7117 30.3646 77.5676 29.8493 78.2731C29.334 78.9787 28.6004 79.4946 27.7621 79.7407ZM26.0592 74.8331H24.5297L23.9266 77.8447H25.661C26.9421 77.8447 27.6911 77.2297 27.6911 76.0984C27.6753 75.2312 27.0565 74.8331 26.0592 74.8331Z" fill="#263238"/>
<path d="M43.3642 72.5586L36.9349 82.8272H34.0692L31.7119 72.5586H34.6959L36.1663 79.2598L40.3683 72.5586H43.3642Z" fill="#263238"/>
<path d="M43.9791 72.5586H46.8921L44.8187 82.8272H41.9096L43.9791 72.5586Z" fill="#263238"/>
<path d="M47.3454 78.507C47.3454 74.9356 49.9746 72.334 53.7943 72.334C55.6904 72.334 57.2356 73.0278 57.9688 74.2734L55.856 75.9487C55.6199 75.5664 55.2852 75.2548 54.887 75.0467C54.4888 74.8386 54.0419 74.7417 53.5933 74.7661C51.5948 74.7661 50.2703 76.3074 50.2703 78.3336C50.2703 79.7172 51.2124 80.6435 52.7852 80.6435C53.2654 80.6458 53.74 80.5408 54.1745 80.3362C54.6089 80.1316 54.9921 79.8326 55.2962 79.4609L57.0149 81.1481C55.856 82.5474 54.3423 83.0599 52.5053 83.0599C49.3597 83.0323 47.3454 81.1954 47.3454 78.507Z" fill="#263238"/>
<path d="M62.2142 74.7897L61.8752 76.5241H66.4439L66.0181 78.6961H61.4337L61.0671 80.5804H66.4596L65.9906 82.8272H57.748L59.7978 72.5586H67.8511L67.3978 74.8094L62.2142 74.7897Z" fill="#263238"/>
<path d="M11.3716 41.0867H5.6283C5.6283 33.0925 8.86459 24.9249 14.5054 18.6573C20.4419 12.0704 28.1483 8.44385 36.1859 8.44385C52.6118 8.44385 64.0866 20.4351 64.0866 37.6139H58.3551C58.3551 23.6083 49.4504 14.199 36.1977 14.199C23.2052 14.1872 11.3716 27.0062 11.3716 41.0867Z" fill="#00ABC8"/>
<path d="M14.5212 39.4897C15.4397 39.4897 16.1847 39.5804 16.1807 39.6632C16.1768 39.7459 15.4357 39.809 14.5212 39.809C13.6067 39.809 12.8577 39.7341 12.8577 39.6356C12.8577 39.537 13.6067 39.4739 14.5212 39.4897Z" fill="#263238"/>
<path d="M18.4868 26.8996C19.2752 27.4041 19.8073 27.9205 19.7206 28.0585C19.6339 28.1964 18.9322 27.9166 18.1438 27.4396C17.3555 26.9626 16.8312 26.4384 16.914 26.2807C16.9968 26.123 17.7181 26.3989 18.4868 26.8996Z" fill="#263238"/>
<path d="M28.4204 18.2231C28.7948 19.0627 28.9801 19.7999 28.8145 19.8629C28.649 19.926 28.2272 19.315 27.8251 18.4912C27.4231 17.6673 27.2378 16.9144 27.4309 16.8513C27.6241 16.7883 28.0498 17.3717 28.4204 18.2231Z" fill="#263238"/>
<path d="M41.5075 17.1909C41.2789 18.0818 40.9675 18.7677 40.8137 18.7361C40.66 18.7046 40.6915 17.9478 40.8886 17.0451C41.0857 16.1424 41.3932 15.4683 41.5824 15.5038C41.7716 15.5393 41.7362 16.304 41.5075 17.1909Z" fill="#263238"/>
<path d="M52.1979 24.7039C51.4332 25.2085 50.7433 25.516 50.6527 25.3898C50.562 25.2637 51.0942 24.7197 51.8352 24.1797C52.5763 23.6396 53.2701 23.3361 53.3805 23.4938C53.4908 23.6515 52.9626 24.1954 52.1979 24.7039Z" fill="#263238"/>
<path d="M55.718 37.0814C54.8035 37.0814 54.0585 37.0104 54.0585 36.9316C54.0585 36.8528 54.7995 36.7739 55.718 36.7621C56.6365 36.7503 57.3775 36.8173 57.3815 36.9119C57.3854 37.0065 56.6444 37.0814 55.718 37.0814Z" fill="#263238"/>
<path d="M34.6288 38.7922C34.3427 38.7942 34.0645 38.6982 33.8405 38.5202L24.1868 31.0306C23.9191 30.8215 23.7455 30.5147 23.7041 30.1776C23.6627 29.8405 23.7569 29.5007 23.966 29.2331C24.1751 28.9655 24.4819 28.7919 24.819 28.7505C25.1561 28.7091 25.4959 28.8033 25.7635 29.0124L34.5697 35.8397L46.7305 24.6723C46.9788 24.4418 47.3085 24.3194 47.647 24.3319C47.9856 24.3445 48.3053 24.4911 48.5358 24.7394C48.7664 24.9876 48.8888 25.3173 48.8763 25.6559C48.8637 25.9945 48.7171 26.3142 48.4688 26.5447L35.5118 38.4493C35.2719 38.6718 34.9561 38.7945 34.6288 38.7922Z" fill="#00ABC8"/>
<path d="M41.1763 0H30.1074C29.9354 0 29.796 0.139423 29.796 0.31141V4.32032C29.796 4.49231 29.9354 4.63173 30.1074 4.63173H41.1763C41.3483 4.63173 41.4877 4.49231 41.4877 4.32032V0.31141C41.4877 0.139423 41.3483 0 41.1763 0Z" fill="#00ABC8"/>
<path d="M38.6613 2.31787H32.6184V7.79711H38.6613V2.31787Z" fill="#00ABC8"/>
<path d="M10.6978 14.1751L6.15845 19.7968C5.98202 20.0153 6.01612 20.3354 6.23462 20.5118L9.33831 23.018C9.55681 23.1944 9.87697 23.1603 10.0534 22.9418L14.5927 17.3202C14.7691 17.1017 14.735 16.7816 14.5165 16.6051L11.4128 14.099C11.1943 13.9225 10.8742 13.9566 10.6978 14.1751Z" fill="#00ABC8"/>
<path d="M41.1763 4.63144C41.1763 4.69845 38.6969 4.7497 35.6577 4.7497C32.6185 4.7497 30.139 4.69845 30.139 4.63144C30.139 4.56443 32.6145 4.51318 35.6577 4.51318C38.7008 4.51318 41.1763 4.56837 41.1763 4.63144Z" fill="#263238"/>
<path d="M10.5951 21.9764C10.532 22.0474 9.69631 21.4088 8.66353 20.6323C7.63076 19.8557 6.79113 19.225 6.84238 19.1462C6.89362 19.0673 7.81997 19.5798 8.86457 20.3642C9.90917 21.1486 10.6542 21.9094 10.5951 21.9764Z" fill="#263238"/>
<path d="M11.5569 20.5609C11.4939 20.6319 10.6582 19.9933 9.62541 19.2167C8.59264 18.4402 7.74907 17.8095 7.80031 17.7306C7.85156 17.6518 8.78185 18.1642 9.82645 18.9526C10.8711 19.741 11.6161 20.4939 11.5569 20.5609Z" fill="#263238"/>
<path d="M12.7356 19.3744C12.6765 19.4453 11.8408 18.8068 10.808 18.0302C9.77523 17.2537 8.94743 16.623 8.98291 16.5441C9.01839 16.4653 9.96444 16.9777 11.0051 17.7661C12.0458 18.5545 12.7987 19.3074 12.7356 19.3744Z" fill="#263238"/>
<path d="M13.8786 17.9594C13.8195 18.0303 12.9799 17.3917 11.9471 16.6152C10.9143 15.8386 10.0747 15.2079 10.1299 15.1291C10.1851 15.0502 11.1114 15.5627 12.1521 16.3511C13.1927 17.1394 13.9378 17.8923 13.8786 17.9594Z" fill="#263238"/>
<path d="M63.4272 15.9519L58.5411 10.629C58.3512 10.4221 58.0295 10.4083 57.8226 10.5983L54.8838 13.2959C54.6769 13.4858 54.6632 13.8075 54.8531 14.0144L59.7392 19.3373C59.9291 19.5442 60.2508 19.558 60.4577 19.368L63.3965 16.6704C63.6034 16.4805 63.6171 16.1588 63.4272 15.9519Z" fill="#00ABC8"/>
<path d="M55.7259 14.6996C55.6668 14.6286 56.4197 13.9112 57.3421 12.9888C58.2645 12.0664 59.0095 11.345 59.0805 11.412C59.1514 11.479 58.5089 12.3187 57.5747 13.2332C56.6404 14.1477 55.7811 14.7666 55.7259 14.6996Z" fill="#263238"/>
<path d="M56.9833 15.8583C56.9203 15.7873 57.6771 15.0699 58.5956 14.1475C59.514 13.2251 60.2669 12.5037 60.3379 12.5707C60.4088 12.6377 59.7624 13.4774 58.8321 14.3919C57.9018 15.3064 57.0385 15.9253 56.9833 15.8583Z" fill="#263238"/>
<path d="M57.9806 17.2025C57.9176 17.1315 58.6744 16.4141 59.5929 15.4917C60.5113 14.5693 61.2642 13.848 61.3352 13.915C61.4061 13.982 60.7597 14.8177 59.8254 15.7322C58.8912 16.6467 58.0358 17.2695 57.9806 17.2025Z" fill="#263238"/>
<path d="M59.2105 18.5546C59.1474 18.4836 59.9043 17.7662 60.8228 16.8438C61.7412 15.9214 62.4941 15.2 62.5651 15.267C62.636 15.334 61.9895 16.1736 61.0553 17.0882C60.1211 18.0027 59.2657 18.6097 59.2105 18.5546Z" fill="#263238"/>
<path d="M31.3492 4.62774C31.2585 4.62774 31.1836 3.60285 31.1836 2.34538C31.1836 1.08792 31.2585 0.059082 31.3492 0.059082C31.4398 0.059082 31.5187 1.08397 31.5187 2.34538C31.5187 3.60679 31.4438 4.62774 31.3492 4.62774Z" fill="#263238"/>
<path d="M33.5172 4.62774C33.4265 4.62774 33.3517 3.60285 33.3517 2.34538C33.3517 1.08792 33.4265 0.059082 33.5172 0.059082C33.6079 0.059082 33.6828 1.08397 33.6828 2.34538C33.6828 3.60679 33.6079 4.62774 33.5172 4.62774Z" fill="#263238"/>
<path d="M35.6813 4.62774C35.5906 4.62774 35.5157 3.60285 35.5157 2.34538C35.5157 1.08792 35.5906 0.059082 35.6813 0.059082C35.7719 0.059082 35.8468 1.08397 35.8468 2.34538C35.8468 3.60679 35.7759 4.62774 35.6813 4.62774Z" fill="#263238"/>
<path d="M37.8493 4.62774C37.7547 4.62774 37.6838 3.60285 37.6838 2.34538C37.6838 1.08792 37.7547 0.059082 37.8493 0.059082C37.9439 0.059082 38.0149 1.08397 38.0149 2.34538C38.0149 3.60679 37.94 4.62774 37.8493 4.62774Z" fill="#263238"/>
<path d="M40.0134 4.62774C39.9228 4.62774 39.8479 3.60285 39.8479 2.34538C39.8479 1.08792 39.9228 0.059082 40.0134 0.059082C40.1041 0.059082 40.179 1.08397 40.179 2.34538C40.179 3.60679 40.0883 4.62774 40.0134 4.62774Z" fill="#263238"/>
<path d="M36.9719 39.1221C38.1018 37.9922 38.1018 36.1602 36.9719 35.0303C35.8419 33.9003 34.01 33.9003 32.88 35.0303C31.7501 36.1602 31.7501 37.9922 32.88 39.1221C34.01 40.252 35.8419 40.252 36.9719 39.1221Z" fill="#00ABC8"/>
<path d="M37.8178 37.0814C37.7902 37.0814 37.7942 36.8252 37.672 36.3876C37.4967 35.7771 37.1237 35.2419 36.6116 34.8661C36.2011 34.5612 35.7139 34.3765 35.2045 34.3324C34.6951 34.2883 34.1834 34.3866 33.7267 34.6163C33.2699 34.8461 32.8859 35.1983 32.6176 35.6335C32.3493 36.0688 32.2072 36.5701 32.2072 37.0814C32.2072 37.5927 32.3493 38.094 32.6176 38.5293C32.8859 38.9645 33.2699 39.3167 33.7267 39.5465C34.1834 39.7762 34.6951 39.8746 35.2045 39.8305C35.7139 39.7864 36.2011 39.6016 36.6116 39.2968C37.1229 38.9201 37.4956 38.3852 37.672 37.7752C37.7942 37.3376 37.7902 37.0814 37.8178 37.0814C37.8454 37.0814 37.8178 37.1445 37.8178 37.2667C37.824 37.4471 37.8055 37.6274 37.7626 37.8028C37.6211 38.4609 37.2528 39.0483 36.722 39.4623C36.3254 39.7737 35.8564 39.9796 35.3588 40.061C34.8611 40.1423 34.351 40.0964 33.8759 39.9275C33.2877 39.719 32.7786 39.3334 32.4185 38.8238C32.0584 38.3141 31.8651 37.7054 31.8651 37.0814C31.8651 36.4574 32.0584 35.8487 32.4185 35.339C32.7786 34.8294 33.2877 34.4438 33.8759 34.2354C34.3509 34.067 34.8606 34.021 35.358 34.1016C35.8554 34.1822 36.3245 34.3868 36.722 34.6966C37.2525 35.1125 37.6207 35.701 37.7626 36.36C37.8055 36.5354 37.824 36.7158 37.8178 36.8961C37.8375 37.0105 37.8296 37.0814 37.8178 37.0814Z" fill="#263238"/>
<path d="M25.6177 94.2381C24.581 93.7454 22.8347 92.7165 21.7546 92.3144C20.687 91.8577 19.4959 91.7771 18.3764 92.0858C17.7418 92.2987 17.1071 92.8072 17.1032 93.4773L21.3407 96.6032L25.6177 95.4759V94.2381Z" fill="#FF9A6C"/>
<path d="M20.982 94.1953C20.982 94.1953 13.3702 92.5437 12.1009 91.8932C10.8316 91.2428 4.21711 87.9316 3.10944 87.9316C2.00177 87.9316 1.05571 88.2312 0.854675 89.335L2.30135 90.4584L2.48662 91.0339L4.96213 92.3229L5.39968 93.1349L11.7067 96.5013C11.7067 96.5013 18.3212 99.8598 19.425 100.049C20.5287 100.238 26.0395 100.699 28.3967 102.706L37.8573 98.8192C37.8573 98.8192 35.1255 94.9403 33.0206 93.9825C31.1442 93.131 27.9946 93.131 25.7911 94.0337L20.982 94.1953Z" fill="#FFBF9D"/>
<path d="M27.3127 100.545C27.3127 100.545 39.3552 126.806 41.2946 132.08C41.2946 132.08 54.7562 129.864 55.2174 122.395L37.873 98.7432L27.3127 100.545Z" fill="#FFBF9D"/>
<path d="M16.1296 94.7903C16.1296 94.7903 16.0823 94.7903 15.9995 94.7903C15.8763 94.778 15.7548 94.7529 15.6368 94.7154C15.2051 94.584 14.7857 94.4152 14.3833 94.2109C13.8709 93.9625 13.2756 93.6354 12.6213 93.2688C12.2941 93.0874 11.9511 92.8943 11.5924 92.709C11.2337 92.5237 10.8435 92.3621 10.4453 92.1887C9.70819 91.8548 8.94648 91.5781 8.16693 91.3609C7.45345 91.1835 6.76755 91.0495 6.25117 91.2229C6.05087 91.3031 5.86916 91.4235 5.71728 91.5768C5.5654 91.73 5.44658 91.9128 5.36818 92.1138C5.30995 92.2673 5.24282 92.4174 5.16714 92.5632C5.16714 92.5632 5.16714 92.5159 5.18685 92.437C5.2132 92.3162 5.24878 92.1976 5.29329 92.0822C5.36294 91.8983 5.45708 91.7246 5.57316 91.5659C5.72657 91.3487 5.94041 91.1815 6.1881 91.0849C6.49366 90.9826 6.81834 90.9502 7.13809 90.9903C7.49566 91.0256 7.8501 91.0876 8.19846 91.1756C8.99464 91.3854 9.77244 91.6596 10.5242 91.9955C10.9184 92.169 11.3126 92.3306 11.6792 92.5237C12.0458 92.7169 12.3848 92.9179 12.7119 93.1032C13.3623 93.4777 13.9457 93.8167 14.4464 94.0768C14.8343 94.2887 15.2359 94.4744 15.6486 94.6327C15.9561 94.747 16.1296 94.7706 16.1296 94.7903Z" fill="#FF9A6C"/>
<path d="M8.86857 91.0138C8.49745 90.9388 8.13814 90.8142 7.80031 90.6432C6.98731 90.2595 6.15134 89.9265 5.29721 89.6459C4.82985 89.5135 4.34142 89.4721 3.85842 89.5238C3.6657 89.5296 3.47617 89.5745 3.30134 89.6558C3.12652 89.7372 2.97004 89.8531 2.84141 89.9968C2.68724 90.2105 2.58593 90.4577 2.54577 90.7181C2.54219 90.8192 2.52222 90.9191 2.48664 91.0138C2.4682 90.9135 2.4682 90.8106 2.48664 90.7103C2.50138 90.4289 2.59121 90.1567 2.7468 89.9219C2.86746 89.7576 3.0238 89.6228 3.20406 89.5277C3.41024 89.4296 3.63145 89.367 3.85842 89.3424C4.36684 89.2784 4.88294 89.3173 5.37605 89.4567C6.24232 89.7346 7.08147 90.0909 7.88309 90.521C8.22018 90.6675 8.54915 90.832 8.86857 91.0138Z" fill="#FF9A6C"/>
<path d="M27.8685 93.4499C27.8685 93.4499 27.7621 93.513 27.5611 93.5839C27.2728 93.6881 26.9794 93.7776 26.682 93.852C25.7035 94.1066 24.7005 94.256 23.6901 94.2974C22.6801 94.341 21.6682 94.2803 20.6706 94.1161C20.2765 94.0491 19.9848 93.9821 19.7758 93.923C19.6641 93.9061 19.5561 93.8701 19.4565 93.8165C19.4565 93.785 19.9296 93.8757 20.6943 93.9703C21.6852 94.0928 22.6846 94.1337 23.6823 94.0925C24.6806 94.041 25.6733 93.9091 26.6505 93.6983C27.3798 93.5564 27.841 93.4223 27.8685 93.4499Z" fill="#FF9A6C"/>
<path d="M139.992 77.8601L122.474 74.2335L118.138 70.9814L94.9989 75.4437C94.6284 76.1217 90.8797 81.3565 90.8797 81.3565L81.766 84.4509C77.8925 85.4687 74.4352 87.6743 71.8797 90.7579C69.4497 93.759 67.4589 97.0904 65.9669 100.652C61.8673 110.274 55.9505 121.39 55.9505 121.39L52.2412 115.415L36.6076 122.778C36.6076 122.778 45.7647 141.238 48.796 143.875C52.1663 146.804 59.9161 147.143 65.2731 141.679C68.5015 138.384 77.832 125.36 79.7753 122.1L82.6608 135.731L85.3137 151.29L81.0249 162H143.622L141.032 151.877C141.032 151.877 143.583 125.494 144.288 120.582C145.948 108.997 139.992 77.8601 139.992 77.8601Z" fill="#00ABC8"/>
<path d="M139.992 77.8594C139.992 77.8594 152.527 81.3755 155.286 93.8359C156.958 101.385 162.634 122.903 164.633 140.618C165.815 151.151 165.784 160.884 165.815 161.999H146.579L138.427 81.3755L139.992 77.8594Z" fill="#00ABC8"/>
<path d="M107.842 88.5574C107.842 88.5574 107.842 88.6047 107.79 88.6875L107.613 89.0502C107.455 89.3694 107.219 89.8385 106.963 90.4338C106.407 91.6163 105.752 93.3705 104.696 95.3296L104.645 95.4281L104.558 95.3532C103.257 94.2456 101.846 92.9132 100.388 91.4744C97.8056 88.9122 95.543 86.5273 93.8716 84.8363L91.881 82.8377L91.333 82.2977C91.2664 82.238 91.2057 82.172 91.1517 82.1006C91.2279 82.1486 91.298 82.2055 91.3606 82.2701L91.9283 82.7825C92.4171 83.2319 93.1108 83.8981 93.9662 84.7338C95.6652 86.4012 97.9475 88.7703 100.522 91.3286C101.98 92.7674 103.383 94.0879 104.668 95.2153L104.527 95.2389C105.591 93.3074 106.269 91.5611 106.852 90.3865C107.14 89.7912 107.38 89.334 107.554 89.0226C107.633 88.8846 107.7 88.7663 107.755 88.6757C107.78 88.6333 107.809 88.5936 107.842 88.5574Z" fill="black"/>
<path d="M122.718 74.6787C122.717 74.7717 122.705 74.8643 122.683 74.9546C122.644 75.1517 122.596 75.4119 122.537 75.743C122.395 76.421 122.143 77.3986 121.82 78.5891C121.138 80.9542 120.034 84.222 118.666 87.75C117.945 89.6185 117.235 91.3845 116.573 92.9494L116.522 93.0716L116.423 92.9849C114.638 91.4081 113.037 90.1664 111.953 89.244C111.409 88.7828 110.983 88.4123 110.696 88.1521L110.376 87.8525C110.301 87.7816 110.266 87.7461 110.27 87.7421C110.315 87.7659 110.358 87.795 110.396 87.8289L110.735 88.1088L112.024 89.1573C113.132 90.056 114.744 91.2741 116.549 92.843L116.4 92.8784C117.05 91.3017 117.756 89.5436 118.473 87.6791C119.825 84.1314 120.949 80.9187 121.662 78.5497C122.017 77.3671 122.277 76.3974 122.45 75.7233C122.525 75.404 122.588 75.1478 122.636 74.9349C122.657 74.8476 122.684 74.7619 122.718 74.6787Z" fill="black"/>
<path d="M82.1681 133.984C82.1516 133.957 82.1397 133.928 82.1326 133.898L82.0499 133.629C81.9789 133.367 81.8804 133.02 81.7542 132.589C81.6202 132.139 81.4901 131.584 81.3324 130.937C81.1748 130.291 81.0053 129.55 80.8358 128.73C79.9637 124.453 79.3502 120.127 78.9988 115.777C78.5534 110.68 78.4549 106.048 78.4785 102.701C78.4785 101.026 78.5219 99.67 78.5692 98.7358C78.5928 98.2786 78.6086 97.9198 78.6204 97.6557C78.6204 97.5454 78.6204 97.4507 78.6401 97.3759C78.636 97.3445 78.636 97.3126 78.6401 97.2812C78.6434 97.314 78.6434 97.347 78.6401 97.3798V97.6597C78.6401 97.9238 78.6401 98.2825 78.6401 98.7358C78.6401 99.674 78.6086 101.026 78.6165 102.701C78.6165 106.044 78.7505 110.672 79.1959 115.757C79.5505 120.101 80.1426 124.423 80.9698 128.702C81.1314 129.522 81.2812 130.279 81.4349 130.91C81.5887 131.54 81.703 132.12 81.8291 132.569L82.0893 133.618L82.1484 133.89C82.1681 133.953 82.1721 133.984 82.1681 133.984Z" fill="black"/>
<path d="M141.033 91.6807C141.056 91.7147 141.075 91.7519 141.088 91.791C141.123 91.8738 141.17 91.9802 141.226 92.1143C141.352 92.4138 141.521 92.8356 141.742 93.3678C141.852 93.6437 141.983 93.9433 142.109 94.2784L142.483 95.3821C142.617 95.7763 142.759 96.206 142.913 96.6553C143.067 97.1047 143.169 97.5974 143.307 98.106C144.49 102.162 145.081 108.032 144.742 114.453C144.403 120.874 143.646 126.673 143.165 130.836C142.925 132.917 142.728 134.608 142.59 135.79C142.523 136.362 142.467 136.815 142.428 137.135L142.381 137.485C142.378 137.526 142.37 137.565 142.357 137.604C142.352 137.565 142.352 137.525 142.357 137.485L142.385 137.131C142.416 136.807 142.459 136.342 142.511 135.783C142.621 134.6 142.795 132.913 143.019 130.82C143.449 126.633 144.174 120.855 144.521 114.445C144.868 108.036 144.285 102.198 143.153 98.1414L142.759 96.6908L142.365 95.4215C142.239 95.0273 142.12 94.6529 142.01 94.3138C141.9 93.9748 141.766 93.6713 141.659 93.3954C141.454 92.8553 141.297 92.4336 141.178 92.13C141.131 91.9921 141.092 91.8856 141.06 91.7989C141.045 91.7612 141.036 91.7213 141.033 91.6807Z" fill="black"/>
<path d="M56.0531 134.813C55.9979 134.813 55.9309 131.809 55.9072 128.111C55.8836 124.414 55.9072 121.41 55.9664 121.41C56.0255 121.41 56.0885 124.414 56.1122 128.111C56.1359 131.809 56.1122 134.813 56.0531 134.813Z" fill="black"/>
<path d="M112.935 153.004V152.839C112.935 152.721 112.966 152.563 112.99 152.358C113.045 151.924 113.12 151.305 113.218 150.509C113.27 150.115 113.325 149.662 113.388 149.177C113.451 148.692 113.498 148.156 113.557 147.6C113.672 146.457 113.829 145.16 113.952 143.717C114.011 143 114.07 142.243 114.137 141.459C114.204 140.674 114.235 139.854 114.287 139.007C114.405 137.312 114.456 135.494 114.523 133.587C114.61 129.767 114.598 125.565 114.401 121.162C114.204 116.759 113.802 112.572 113.356 108.776C113.108 106.88 112.891 105.079 112.611 103.403C112.481 102.564 112.367 101.752 112.217 100.975C112.067 100.199 111.945 99.4537 111.823 98.7402C111.583 97.3172 111.307 96.04 111.082 94.9126C110.968 94.3489 110.865 93.8246 110.767 93.3358C110.668 92.847 110.562 92.4174 110.471 92.0232L110.077 90.206C110.037 90.0049 110.002 89.8473 109.978 89.7329C109.954 89.6186 109.951 89.5674 109.951 89.5674C109.971 89.6186 109.986 89.6713 109.998 89.7251L110.12 90.1941L110.558 92.0074L110.869 93.3161C110.972 93.797 111.082 94.3174 111.204 94.8929C111.437 96.0163 111.724 97.2935 111.973 98.7165C112.104 99.4287 112.236 100.174 112.367 100.952C112.509 101.74 112.623 102.528 112.761 103.38C113.045 105.059 113.27 106.86 113.526 108.757C113.979 112.557 114.365 116.747 114.586 121.154C114.807 125.561 114.791 129.771 114.693 133.594C114.618 135.506 114.563 137.323 114.436 139.018C114.381 139.866 114.342 140.686 114.275 141.474C114.208 142.263 114.137 143.016 114.074 143.737C113.963 145.18 113.794 146.496 113.68 147.616C113.613 148.187 113.55 148.719 113.494 149.193C113.439 149.666 113.364 150.123 113.305 150.525C113.191 151.313 113.1 151.936 113.041 152.366L112.966 152.847C112.96 152.9 112.95 152.953 112.935 153.004Z" fill="black"/>
<path d="M121.268 110.456H121.347L121.595 110.428L122.561 110.318L126.254 109.923L139.4 108.56H139.499V108.658C139.598 112.635 139.716 117.137 139.838 121.911V121.954L139.81 121.982L138.234 123.689L132.486 129.83L132.435 129.885L132.368 129.85L122.683 125.041L122.64 125.021V124.985C122.218 120.59 121.851 116.956 121.626 114.405C121.508 113.152 121.418 112.166 121.354 111.484C121.327 111.157 121.303 110.905 121.287 110.72C121.272 110.534 121.287 110.467 121.287 110.467C121.287 110.467 121.287 110.562 121.323 110.736C121.358 110.909 121.374 111.181 121.414 111.524C121.485 112.214 121.591 113.203 121.729 114.465C121.993 116.995 122.368 120.61 122.825 124.982L122.777 124.915L132.475 129.696L132.36 129.716L138.096 123.551L139.672 121.848L139.645 121.919C139.531 117.145 139.42 112.647 139.326 108.666L139.428 108.753L126.321 110.006L122.604 110.353L121.615 110.44L121.358 110.464L121.268 110.456Z" fill="black"/>
<path d="M139.523 113.23C139.299 113.292 139.071 113.335 138.841 113.36C138.399 113.431 137.761 113.521 136.968 113.624C135.392 113.825 133.188 114.058 130.764 114.29L124.551 114.897L122.671 115.094C122.443 115.131 122.212 115.148 121.981 115.146C122.205 115.083 122.433 115.04 122.663 115.015C123.105 114.944 123.743 114.854 124.536 114.751C126.112 114.55 128.316 114.318 130.744 114.085L136.953 113.478L138.833 113.281C139.061 113.244 139.292 113.227 139.523 113.23Z" fill="black"/>
<g opacity="0.3">
<path d="M143.33 128.734L143.993 136.787C145.455 129.889 147.753 122.474 147.395 115.434C147.036 108.394 146.374 101.657 142.408 95.2832C144.132 100.082 144.923 105.167 144.738 110.262C144.375 118.501 143.33 128.734 143.33 128.734Z" fill="black"/>
</g>
<path d="M53.4435 113.743C53.2306 113.258 52.8538 112.863 52.3792 112.627C51.8273 112.438 51.2282 112.706 50.7039 112.966L36.4027 120.085C35.4606 120.554 34.4318 121.11 34.0849 122.096C33.6315 123.357 34.4791 124.689 35.2674 125.773C36.584 127.583 38.1608 129.554 40.3919 129.81L52.6946 121.374C54.1964 121.153 55.1306 119.478 55.0597 117.961C54.9887 116.443 54.2082 115.059 53.4435 113.743Z" fill="#00ABC8"/>
<path d="M54.9966 118.898C54.9602 118.949 54.9178 118.996 54.8705 119.036L54.4763 119.403C54.1373 119.718 53.6366 120.164 53.0099 120.7C51.7524 121.776 49.9667 123.207 47.8854 124.665C45.8041 126.124 43.9002 127.326 42.4535 128.138C41.7361 128.552 41.1487 128.875 40.7388 129.088L40.2657 129.329C40.1554 129.384 40.0962 129.408 40.0923 129.4C40.1378 129.357 40.1897 129.321 40.246 129.293L40.6993 129.017L42.3786 128.012C43.7937 127.161 45.7213 125.939 47.779 124.484C49.8367 123.03 51.6342 121.622 52.9034 120.578L54.4132 119.328L54.8074 118.993C54.9414 118.93 54.9927 118.891 54.9966 118.898Z" fill="black"/>
<g opacity="0.3">
<path d="M122.533 75.5811C120.85 81.1707 118.493 87.4935 116.502 92.9254C114.807 91.4866 112.434 89.5827 110.735 88.1399C112.197 91.0407 113.953 93.7841 115.974 96.3273C116.21 96.6229 116.526 96.9461 116.892 96.8752C117.259 96.8042 117.424 96.4258 117.551 96.0868L120.653 87.8758C122.103 84.0364 123.503 79.5584 122.533 75.5811Z" fill="black"/>
</g>
<path d="M95.9253 14.7695C101.05 13.2952 105.843 14.7695 110.569 17.2213C115.296 19.6732 119.108 23.7215 121.575 28.4321C124.177 33.3949 125.328 39.1777 124.386 44.7003C123.444 50.2229 120.322 55.4262 115.647 58.4969C109.257 62.7069 100.451 62.4861 93.8716 58.5876C87.2926 54.6891 82.9604 47.503 81.8134 39.9385C81.025 34.7273 81.6636 29.2323 84.0957 24.5651C86.5279 19.8979 90.8285 16.1137 95.9214 14.7655" fill="#263238"/>
<path d="M112.749 30.8089C111.76 28.905 111.803 26.6463 111.263 24.565C110.081 19.9884 105.902 16.6812 101.361 15.3606C97.1394 14.1268 92.2554 15.0532 87.5646 17.1739C84.3559 18.6285 81.4349 20.8596 79.5192 23.816C78.2662 25.7976 77.5051 28.0501 77.2994 30.3856C77.0937 32.7211 77.4493 35.072 78.3366 37.2421L101.748 31.0849C104.184 32.6616 106.679 34.2896 109.497 35.0268C110.317 35.2805 111.189 35.3199 112.028 35.1411C112.445 35.0426 112.824 34.8263 113.121 34.5181C113.418 34.2098 113.62 33.8226 113.703 33.4027C113.802 32.4645 113.179 31.6407 112.749 30.8089Z" fill="#263238"/>
<path d="M118.335 72.3215L112.292 29.82C112.024 27.8097 111.11 25.7599 109.087 25.8545L87.8011 23.8047C81.1314 24.1122 78.0016 32.871 78.5928 39.5053C79.2511 46.8924 80.3431 55.8838 82.042 61.2133C85.4596 71.9234 94.0884 72.0338 94.0884 72.0338C94.0884 72.0338 94.6127 74.1624 95.271 78.1437L109.068 87.3205L118.335 72.3215Z" fill="#FFBF9D"/>
<path d="M83.737 47.59C83.7899 47.9576 83.9844 48.2899 84.279 48.516C84.5736 48.7421 84.945 48.8441 85.3137 48.8001C85.495 48.7873 85.6719 48.7383 85.834 48.6559C85.996 48.5736 86.1399 48.4596 86.2571 48.3207C86.3743 48.1818 86.4625 48.0208 86.5165 47.8472C86.5704 47.6736 86.589 47.491 86.5712 47.3101C86.5173 46.9427 86.3227 46.6106 86.0284 46.3841C85.7342 46.1575 85.3634 46.0542 84.9944 46.096C84.8131 46.1099 84.6364 46.1597 84.4746 46.2426C84.3128 46.3256 84.1692 46.4399 84.0521 46.5791C83.935 46.7182 83.8469 46.8792 83.7927 47.0528C83.7386 47.2264 83.7197 47.409 83.737 47.59Z" fill="#263238"/>
<path d="M81.2536 43.8645C81.4546 44.0222 82.4007 43.0761 83.9183 42.8436C85.4359 42.611 86.6579 43.2062 86.7959 42.9934C86.8629 42.8988 86.6343 42.5992 86.0982 42.3154C85.3728 41.9634 84.557 41.8423 83.7606 41.9685C82.972 42.0856 82.2414 42.4516 81.6754 43.0131C81.2615 43.4388 81.155 43.7817 81.2536 43.8645Z" fill="#263238"/>
<path d="M97.7426 45.3115C97.7946 45.6798 97.9888 46.0131 98.2835 46.24C98.5782 46.4669 98.95 46.5694 99.3194 46.5256C99.5007 46.5128 99.6776 46.4637 99.8396 46.3814C100.002 46.299 100.146 46.185 100.263 46.0461C100.38 45.9072 100.468 45.7462 100.522 45.5726C100.576 45.3991 100.595 45.2164 100.577 45.0355C100.525 44.6673 100.331 44.334 100.036 44.107C99.7413 43.8801 99.3694 43.7776 99.0001 43.8214C98.819 43.8348 98.6423 43.8842 98.4806 43.9667C98.3188 44.0492 98.1751 44.1632 98.058 44.302C97.9409 44.4408 97.8526 44.6016 97.7985 44.7749C97.7443 44.9483 97.7253 45.1307 97.7426 45.3115Z" fill="#263238"/>
<path d="M95.6691 41.8582C95.8702 42.0158 96.8202 41.0698 98.3339 40.8372C99.8476 40.6046 101.073 41.1999 101.211 40.987C101.278 40.8924 101.05 40.5928 100.514 40.309C99.7872 39.9562 98.9698 39.8351 98.1722 39.9621C97.3736 40.0798 96.6341 40.4516 96.0633 41.0225C95.6691 41.4167 95.5627 41.8109 95.6691 41.8582Z" fill="#263238"/>
<path d="M92.4053 53.9478C92.4053 53.8611 91.4316 53.8414 89.8785 53.8808C89.4843 53.8808 89.0901 53.8808 88.9995 53.6246C88.9088 53.3684 88.964 52.919 89.0822 52.442C89.303 51.4513 89.5356 50.4119 89.78 49.324C90.726 44.8854 91.3567 41.2628 91.1714 41.2273C90.9862 41.1918 90.0795 44.775 89.1295 49.1899C88.9049 50.2818 88.6881 51.3264 88.487 52.3237C88.4082 52.785 88.2308 53.321 88.5185 53.869C88.5941 53.9978 88.6986 54.1073 88.8238 54.1887C88.9491 54.2701 89.0915 54.3212 89.2399 54.3381C89.4623 54.3682 89.6877 54.3682 89.91 54.3381C91.4592 54.1725 92.4131 54.0306 92.4053 53.9478Z" fill="#263238"/>
<path d="M94.0923 72.0334C99.2752 71.321 104.158 69.1825 108.196 65.8564C108.196 65.8564 104.755 74.4695 94.794 75.3367L94.0923 72.0334Z" fill="#FF9A6C"/>
<path d="M93.6036 57.504C93.8362 57.0973 94.1685 56.7566 94.5692 56.5138C94.9698 56.2711 95.4257 56.1343 95.8939 56.1165C96.2341 56.0969 96.5748 56.1465 96.8952 56.2624C97.2157 56.3782 97.5094 56.5579 97.7584 56.7905C97.9994 57.0126 98.1665 57.3033 98.237 57.6234C98.3075 57.9434 98.278 58.2774 98.1526 58.5802C97.8333 59.2148 96.9976 59.4789 96.2447 59.3685C95.4904 59.2249 94.7723 58.9328 94.1319 58.5092C93.9411 58.4114 93.7711 58.2775 93.6312 58.115C93.5625 58.0402 93.5176 57.9467 93.5022 57.8464C93.4868 57.746 93.5015 57.6433 93.5445 57.5513" fill="#FF9A6C"/>
<path d="M97.0251 54.3145C96.7728 54.3382 97.0251 55.9859 95.7912 57.3656C94.5574 58.7452 92.7875 58.8359 92.8072 59.0645C92.8072 59.1749 93.2487 59.3247 93.9898 59.234C94.9558 59.1001 95.8436 58.6297 96.4969 57.9056C97.1237 57.2118 97.4559 56.3014 97.4232 55.367C97.3798 54.6693 97.1354 54.2909 97.0251 54.3145Z" fill="#263238"/>
<path d="M95.2356 37.3332C95.4484 37.7274 96.9306 37.2978 98.7399 37.2386C100.549 37.1795 102.063 37.4476 102.24 37.0415C102.319 36.8484 102.012 36.5015 101.369 36.1901C100.521 35.8197 99.5997 35.6471 98.675 35.6854C97.7504 35.7236 96.8465 35.9717 96.0318 36.4108C95.4208 36.7735 95.141 37.148 95.2356 37.3332Z" fill="#263238"/>
<path d="M80.6899 37.1754C81.0092 37.4789 81.9986 36.9625 83.2521 36.7536C84.5056 36.5447 85.6172 36.6314 85.7907 36.2333C85.8735 36.0401 85.6527 35.7248 85.1403 35.4686C84.4569 35.1743 83.7016 35.0891 82.9699 35.2238C82.2381 35.3585 81.5627 35.7071 81.0289 36.2254C80.6307 36.6472 80.5401 37.0256 80.6899 37.1754Z" fill="#263238"/>
<path d="M116.195 27.1708C113.325 21.0845 102.942 13.5279 96.3511 14.88L86.5792 22.6691C87.166 24.4366 88.2192 26.0128 89.6277 27.2312C91.0362 28.4496 92.7476 29.2649 94.5812 29.5911C96.5324 29.9144 98.8187 29.7685 100.151 31.2349C101.483 32.7013 101.164 35.2241 102.453 36.7811C104.239 38.9413 108.244 38.2948 109.687 40.6994C110.321 41.7479 110.246 43.1118 110.893 44.1525C111.76 45.5361 115.737 46.9118 117.2 46.2102C118.662 45.5085 118.331 42.8911 118.65 41.4444C119.198 38.9807 118.678 37.81 118.221 36.5328C117.153 33.5054 117.566 30.072 116.195 27.1708Z" fill="#263238"/>
<path d="M112.836 48.118C112.714 47.298 113.364 45.2285 114.153 44.9644C116.258 44.3022 120.172 43.8804 121.043 49.3518C122.226 56.8414 114.484 56.4827 114.433 56.2698C114.381 56.0569 113.262 50.9325 112.836 48.118Z" fill="#FFBF9D"/>
<path d="M116.266 53.0771C116.297 53.0456 116.411 53.1481 116.66 53.2112C116.991 53.2966 117.342 53.2485 117.637 53.0771C118.378 52.6632 118.844 51.3033 118.666 49.9473C118.583 49.3037 118.356 48.6869 118.004 48.1419C117.897 47.9192 117.737 47.7259 117.539 47.5789C117.34 47.4319 117.109 47.3356 116.865 47.2983C116.709 47.2822 116.552 47.3215 116.422 47.4095C116.293 47.4975 116.198 47.6284 116.155 47.7792C116.088 48.0039 116.155 48.1458 116.12 48.1734C116.084 48.201 115.942 48.0749 115.95 47.7556C115.963 47.5646 116.041 47.3838 116.171 47.2431C116.351 47.0535 116.599 46.9429 116.861 46.9357C117.444 46.8844 118.043 47.3299 118.406 47.8778C118.828 48.4754 119.099 49.1667 119.194 49.8921C119.388 51.4058 118.84 52.9392 117.807 53.4398C117.616 53.5305 117.407 53.5776 117.196 53.5776C116.984 53.5776 116.776 53.5305 116.585 53.4398C116.309 53.2427 116.242 53.0929 116.266 53.0771Z" fill="#FF9A6C"/>
<path d="M88.5028 20.1499C88.1598 23.3034 83.9538 27.738 82.1957 30.3515C78.8175 35.338 78.2184 36.9345 79.4088 47.0888C77.1698 43.7894 75.3723 40.5098 75.0727 36.5324C74.7732 32.555 75.7744 28.4279 78.2026 25.2665C80.6308 22.1051 84.5372 20.0237 88.5225 20.142" fill="#263238"/>
<path d="M106.363 9.45594C107.94 7.71756 110.219 6.58624 112.584 5.99496C115.954 5.15139 119.656 5.38002 122.722 6.84641C125.789 8.31279 128.162 11.0642 128.781 14.2178C129.085 15.8377 128.942 17.5099 128.367 19.0546C127.792 20.5993 126.807 21.958 125.517 22.9845C127.271 24.6847 129.409 25.9368 131.749 26.6347C131.111 27.5926 129.932 28.1524 128.742 28.3534C127.545 28.503 126.334 28.4951 125.139 28.3297C125.954 29.5484 127.175 30.4392 128.584 30.8447C126.644 31.2925 124.621 31.2259 122.714 30.6515C120.85 30.0864 119.066 29.2849 117.405 28.2667C111.638 24.92 108.457 21.9872 104.562 16.8352C104.054 14.6119 104.775 11.1983 106.363 9.45594Z" fill="#263238"/>
<path d="M118.796 25.2548C114.563 19.07 109.174 15.7627 104.298 14.7339Z" fill="#263238"/>
<path d="M104.298 14.7339C104.521 14.8233 104.752 14.8932 104.988 14.9428C105.433 15.0689 106.076 15.2621 106.848 15.5577C108.86 16.3392 110.751 17.4008 112.466 18.7113C114.18 20.0185 115.743 21.514 117.125 23.1695C117.645 23.8121 118.067 24.3521 118.339 24.7069C118.474 24.908 118.627 25.0966 118.796 25.2706C118.682 25.055 118.55 24.8493 118.402 24.6556C118.15 24.2615 117.748 23.7293 117.239 23.0789C115.892 21.3736 114.341 19.8405 112.619 18.5142C110.884 17.1906 108.957 16.1404 106.904 15.4001C106.284 15.1798 105.653 14.9968 105.011 14.8521C104.777 14.7937 104.539 14.7542 104.298 14.7339Z" fill="#455A64"/>
<path d="M123.842 30.5253L123.747 30.5568L123.471 30.6672C123.235 30.7697 122.88 30.9037 122.415 31.0614C121.1 31.5015 119.737 31.7795 118.355 31.8892C116.306 32.0417 114.245 31.909 112.233 31.495C109.768 30.9771 107.358 30.2261 105.035 29.252C102.552 28.239 100.21 27.1983 98.1249 26.1774C96.2727 25.2812 94.49 24.2482 92.7915 23.0869C91.6496 22.3004 90.5715 21.4252 89.567 20.4695C89.2043 20.1344 88.9442 19.8546 88.7786 19.6811L88.5697 19.4722C88.5224 19.4288 88.4987 19.4052 88.4948 19.4091C88.4909 19.4131 88.4948 19.4367 88.5539 19.488L88.7471 19.7126C88.9166 19.9097 89.1689 20.1975 89.5355 20.5444C90.5232 21.528 91.5927 22.426 92.7323 23.2288C94.4249 24.4179 96.2082 25.4723 98.0657 26.3823C100.155 27.4191 102.492 28.4676 104.98 29.4846C107.317 30.4614 109.744 31.2099 112.225 31.7197C114.257 32.1254 116.337 32.2395 118.402 32.0587C119.782 31.9325 121.141 31.6332 122.446 31.1678C122.908 30.9904 123.258 30.8446 123.491 30.7263L123.755 30.5962C123.814 30.545 123.846 30.5292 123.842 30.5253Z" fill="#455A64"/>
<path d="M101.507 67.6462L100.794 66.2508C100.845 66.2232 105.796 63.6846 107.7 62.0842C112.186 58.3158 116.309 52.2965 116.352 52.2295L117.653 53.1164C117.48 53.3726 113.368 59.3762 108.713 63.2865C106.663 64.9973 101.716 67.5398 101.507 67.6462Z" fill="#455A64"/>
<path d="M105.193 63.291C105.193 63.291 98.4284 66.3105 98.4284 66.9806C98.4284 67.6508 99.5006 68.991 100.305 68.924C101.109 68.857 103.435 67.5483 103.852 67.0122C104.27 66.4761 105.011 65.0964 105.823 64.4263L105.193 63.291Z" fill="#263238"/>
<path d="M117.598 42.9935L116.021 42.9186C116.078 38.3717 115.295 33.8534 113.711 29.591C110.29 20.777 103.711 16.0467 94.1634 15.5264C93.2949 15.4883 92.4248 15.5478 91.5696 15.7037L92.2594 15.0494C92.5937 14.7338 92.9823 14.4814 93.4065 14.3044C93.9879 14.0613 94.6198 13.9639 95.2474 14.0206C107.302 15.0652 112.749 22.7282 115.197 29.0668C116.865 33.5171 117.679 38.2417 117.598 42.9935Z" fill="#455A64"/>
<path d="M116.809 57.3301C119.568 57.3301 121.804 54.1145 121.804 50.148C121.804 46.1814 119.568 42.9658 116.809 42.9658C114.051 42.9658 111.815 46.1814 111.815 50.148C111.815 54.1145 114.051 57.3301 116.809 57.3301Z" fill="#455A64"/>
<path d="M121.804 50.1481C121.799 50.1155 121.799 50.0823 121.804 50.0496C121.804 49.9707 121.804 49.8761 121.78 49.7579C121.763 49.3855 121.724 49.0144 121.666 48.6463C121.462 47.2882 120.933 45.9995 120.125 44.8896C119.852 44.5308 119.537 44.2065 119.186 43.9239C118.804 43.623 118.374 43.3897 117.913 43.234C117.42 43.0743 116.898 43.0245 116.384 43.0882C115.84 43.1699 115.319 43.3646 114.854 43.6598C113.87 44.3443 113.111 45.3042 112.67 46.4191C112.178 47.6062 111.925 48.8788 111.925 50.1639C111.925 51.449 112.178 52.7216 112.67 53.9087C113.11 55.0238 113.87 55.9839 114.854 56.668C115.319 56.9632 115.84 57.1579 116.384 57.2396C116.898 57.3014 117.42 57.2517 117.913 57.0938C118.374 56.9381 118.804 56.7048 119.186 56.4039C119.536 56.1203 119.851 55.7961 120.125 55.4382C120.933 54.3283 121.462 53.0396 121.666 51.6815C121.724 51.3133 121.762 50.9423 121.78 50.5699C121.78 50.4517 121.78 50.3571 121.804 50.2782C121.799 50.2456 121.799 50.2123 121.804 50.1797C121.81 50.2122 121.81 50.2457 121.804 50.2782V50.5699C121.8 50.9456 121.773 51.3208 121.725 51.6934C121.549 53.0757 121.031 54.3924 120.219 55.5249C119.943 55.8962 119.623 56.2324 119.265 56.5261C118.871 56.8445 118.424 57.0913 117.945 57.2554C117.428 57.425 116.881 57.4801 116.34 57.417C115.77 57.3352 115.223 57.1337 114.736 56.8257C113.716 56.1318 112.927 55.149 112.469 54.0033C111.962 52.7924 111.701 51.4926 111.701 50.1797C111.701 48.8667 111.962 47.5669 112.469 46.356C112.927 45.2104 113.716 44.2275 114.736 43.5336C115.223 43.2256 115.77 43.0241 116.34 42.9423C116.881 42.8792 117.428 42.9344 117.945 43.104C118.424 43.268 118.871 43.5148 119.265 43.8332C119.624 44.1259 119.944 44.4622 120.219 44.8345C121.032 45.9663 121.55 47.2833 121.725 48.666C121.773 49.0373 121.8 49.4111 121.804 49.7855V50.0811C121.806 50.1034 121.806 50.1259 121.804 50.1481Z" fill="#263238"/>
<path d="M117.578 54.3185C119.335 54.3185 120.759 52.2713 120.759 49.7459C120.759 47.2206 119.335 45.1733 117.578 45.1733C115.821 45.1733 114.397 47.2206 114.397 49.7459C114.397 52.2713 115.821 54.3185 117.578 54.3185Z" fill="#455A64"/>
<path d="M120.759 49.746C120.736 49.746 120.759 49.3991 120.645 48.7881C120.513 47.9315 120.175 47.1198 119.659 46.423C119.309 45.945 118.823 45.5837 118.264 45.3863C117.954 45.2864 117.626 45.2555 117.302 45.2956C116.961 45.3464 116.635 45.4686 116.344 45.6543C115.726 46.0852 115.247 46.6883 114.969 47.3887C114.657 48.1382 114.497 48.9422 114.499 49.7539C114.496 50.5657 114.655 51.3701 114.969 52.119C115.247 52.8195 115.726 53.4226 116.344 53.8535C116.635 54.0391 116.961 54.1614 117.302 54.2122C117.626 54.2523 117.954 54.2213 118.264 54.1215C118.823 53.924 119.309 53.5627 119.659 53.0848C120.175 52.388 120.513 51.5763 120.645 50.7196C120.743 50.1086 120.736 49.7618 120.759 49.7657C120.764 49.8484 120.764 49.9313 120.759 50.014C120.759 50.2539 120.743 50.4936 120.712 50.7315C120.607 51.6159 120.281 52.4594 119.762 53.1833C119.401 53.6941 118.892 54.0821 118.303 54.2949C117.972 54.4078 117.619 54.4455 117.271 54.4053C116.901 54.348 116.548 54.2137 116.234 54.0111C115.579 53.5665 115.071 52.9365 114.775 52.2018C114.45 51.4259 114.283 50.5931 114.283 49.7519C114.283 48.9107 114.45 48.0779 114.775 47.302C115.071 46.5673 115.579 45.9373 116.234 45.4927C116.547 45.2907 116.899 45.1565 117.267 45.0985C117.616 45.0585 117.97 45.0962 118.303 45.2089C118.892 45.4218 119.401 45.8097 119.762 46.3205C120.281 47.0445 120.607 47.888 120.712 48.7723C120.743 49.0102 120.759 49.2499 120.759 49.4898C120.764 49.5751 120.764 49.6607 120.759 49.746Z" fill="#263238"/>
<path d="M117.799 53.0336C119.062 53.0336 120.085 51.5617 120.085 49.746C120.085 47.9304 119.062 46.4585 117.799 46.4585C116.536 46.4585 115.513 47.9304 115.513 49.746C115.513 51.5617 116.536 53.0336 117.799 53.0336Z" fill="#455A64"/>
<path d="M120.085 49.746C120.066 49.746 120.066 49.4977 119.995 49.0602C119.893 48.4451 119.647 47.8628 119.277 47.3612C119.028 47.021 118.682 46.7641 118.284 46.6241C118.057 46.5516 117.817 46.5313 117.582 46.5648C117.346 46.5982 117.121 46.6845 116.924 46.8172C116.069 47.3809 115.615 48.5635 115.611 49.7421C115.607 50.9207 116.069 52.1072 116.924 52.6709C117.121 52.8036 117.346 52.8899 117.582 52.9234C117.817 52.9568 118.057 52.9366 118.284 52.8641C118.682 52.7241 119.028 52.4671 119.277 52.1269C119.647 51.6253 119.893 51.0431 119.995 50.428C120.066 49.9904 120.066 49.7421 120.085 49.746C120.095 49.8048 120.095 49.8647 120.085 49.9234C120.087 50.096 120.078 50.2685 120.058 50.4398C119.987 51.0805 119.753 51.6924 119.38 52.2176C119.114 52.5811 118.744 52.8559 118.319 53.006C118.077 53.0873 117.82 53.1156 117.566 53.0888C117.297 53.0516 117.039 52.9575 116.81 52.8128C116.332 52.4899 115.963 52.0313 115.749 51.4962C115.512 50.9349 115.39 50.3318 115.39 49.7224C115.39 49.113 115.512 48.5098 115.749 47.9485C115.963 47.4135 116.332 46.9549 116.81 46.6319C117.039 46.4873 117.297 46.3932 117.566 46.356C117.82 46.3292 118.077 46.3574 118.319 46.4388C118.744 46.5889 119.114 46.8637 119.38 47.2272C119.753 47.7524 119.987 48.3643 120.058 49.005C120.078 49.1763 120.087 49.3488 120.085 49.5214C120.099 49.5956 120.099 49.6718 120.085 49.746Z" fill="#263238"/>
</svg>
