<svg width="230" height="162" viewBox="0 0 230 162" fill="none" xmlns="http://www.w3.org/2000/svg">
<path d="M225.43 0.131836H4.05813C1.87911 0.131836 0.112671 1.89827 0.112671 4.07729V157.927C0.112671 160.106 1.87911 161.873 4.05813 161.873H225.43C227.609 161.873 229.376 160.106 229.376 157.927V4.07729C229.376 1.89827 227.609 0.131836 225.43 0.131836Z" fill="#FAFAFA"/>
<path d="M221.667 129.265H180.85C179.981 129.264 179.148 128.918 178.533 128.303C177.919 127.689 177.573 126.856 177.572 125.987V40.1765C177.573 39.3075 177.919 38.4744 178.533 37.8599C179.148 37.2454 179.981 36.8996 180.85 36.8984H221.667C222.536 36.8996 223.369 37.2454 223.983 37.8599C224.598 38.4744 224.943 39.3075 224.945 40.1765V125.987C224.943 126.856 224.598 127.689 223.983 128.303C223.369 128.918 222.536 129.264 221.667 129.265ZM180.85 37.3343C180.101 37.3355 179.384 37.6334 178.854 38.1628C178.325 38.6921 178.027 39.4097 178.026 40.1583V125.969C178.024 126.341 178.096 126.71 178.237 127.054C178.378 127.399 178.586 127.712 178.848 127.976C179.11 128.24 179.422 128.45 179.766 128.593C180.109 128.736 180.478 128.81 180.85 128.811H221.667C222.415 128.81 223.133 128.512 223.662 127.982C224.192 127.453 224.489 126.735 224.491 125.987V40.1765C224.489 39.4279 224.192 38.7103 223.662 38.1809C223.133 37.6516 222.415 37.3537 221.667 37.3525L180.85 37.3343Z" fill="#E0E0E0"/>
<path d="M16.9342 0.294922H4.40316C1.98343 0.294922 0.0218506 2.2565 0.0218506 4.67624V157.618C0.0218506 160.038 1.98343 162 4.40316 162H16.9342C19.3539 162 21.3155 160.038 21.3155 157.618V4.67624C21.3155 2.2565 19.3539 0.294922 16.9342 0.294922Z" fill="#FF725E"/>
<path d="M20.1714 70.0016H3.82655C3.65982 70.0016 3.49472 70.0346 3.34074 70.0985C3.18676 70.1624 3.04691 70.2562 2.92923 70.3743C2.81154 70.4924 2.71833 70.6325 2.65494 70.7868C2.59155 70.941 2.55922 71.1062 2.55982 71.2729V84.1762C2.55922 84.343 2.59155 84.5082 2.65494 84.6624C2.71833 84.8166 2.81154 84.9568 2.92923 85.0749C3.04691 85.193 3.18676 85.2867 3.34074 85.3506C3.49472 85.4146 3.65982 85.4475 3.82655 85.4475H21.5334C21.7113 85.4472 21.8871 85.4095 22.0495 85.337C22.2119 85.2645 22.3573 85.1587 22.4763 85.0265C22.5952 84.8943 22.6851 84.7385 22.7401 84.5694C22.7951 84.4003 22.814 84.2215 22.7956 84.0446L24.3892 69.9199L20.1714 70.0016Z" fill="#FAFAFA"/>
<path d="M200.704 15.3872L200.818 15.3191C200.921 15.2571 201.01 15.1753 201.081 15.0785C201.33 14.7039 201.457 14.2614 201.444 13.8118C201.464 13.4882 201.522 13.1682 201.617 12.8583C201.671 12.6556 201.774 12.4693 201.916 12.3156C202.059 12.162 202.237 12.0458 202.435 11.9772C202.634 11.9086 202.846 11.8897 203.053 11.9222C203.26 11.9547 203.456 12.0377 203.624 12.1637C203.965 12.4807 204.176 12.9124 204.218 13.3759C204.248 13.5745 204.266 13.7746 204.273 13.9752C204.26 14.1517 204.282 14.3291 204.336 14.4974C204.469 14.8119 204.68 15.0871 204.949 15.2964L205.195 15.4962H204.881C203.628 15.4962 202.543 15.4417 201.817 15.419L200.704 15.3872L201.939 15.3555C202.693 15.3282 203.696 15.2783 204.881 15.2737L204.818 15.4735C204.508 15.238 204.267 14.9247 204.119 14.5655C204.052 14.373 204.024 14.1693 204.037 13.9661C204.032 13.7761 204.015 13.5866 203.987 13.3986C203.95 12.9946 203.772 12.6166 203.483 12.3317C203.334 12.2267 203.163 12.159 202.983 12.1345C202.802 12.11 202.619 12.1294 202.448 12.1909C202.293 12.2544 202.155 12.3519 202.044 12.4761C201.932 12.6003 201.85 12.748 201.803 12.9083C201.706 13.2031 201.64 13.5075 201.608 13.8163C201.59 14.0818 201.54 14.344 201.458 14.5972C201.391 14.7907 201.288 14.9695 201.154 15.1239C201.068 15.2218 200.961 15.298 200.841 15.3464C200.811 15.3541 200.779 15.3541 200.75 15.3464L200.704 15.3872Z" fill="#263238"/>
<path d="M203.987 13.4978C204.481 13.4978 204.881 13.0974 204.881 12.6034C204.881 12.1094 204.481 11.709 203.987 11.709C203.493 11.709 203.093 12.1094 203.093 12.6034C203.093 13.0974 203.493 13.4978 203.987 13.4978Z" fill="#FF725E"/>
<path fill-rule="evenodd" clip-rule="evenodd" d="M202.234 15.9546H203.465C203.469 16.0418 203.454 16.1289 203.421 16.2097C203.387 16.2906 203.337 16.3633 203.273 16.4229C203.21 16.4824 203.133 16.5274 203.051 16.5547C202.968 16.5821 202.88 16.5911 202.793 16.5811C202.711 16.5917 202.628 16.5821 202.55 16.5531C202.473 16.5242 202.403 16.4768 202.348 16.4151C202.293 16.3534 202.254 16.2792 202.234 16.199C202.215 16.1187 202.215 16.0348 202.234 15.9546Z" fill="#263238"/>
<path d="M217.263 9.58936H211.86C210.729 9.58936 209.812 10.5061 209.812 11.637V17.0399C209.812 18.1707 210.729 19.0875 211.86 19.0875H217.263C218.393 19.0875 219.31 18.1707 219.31 17.0399V11.637C219.31 10.5061 218.393 9.58936 217.263 9.58936Z" fill="#FF725E"/>
<path d="M108.66 92.0988C104.574 92.0988 102.758 88.8934 101.015 85.7924C99.5617 83.2363 98.0634 80.5939 95.6072 80.5939C92.883 80.5939 91.521 81.6245 89.9591 82.8186C88.2611 84.1216 86.3269 85.5972 82.5586 85.5972C78.4133 85.5972 76.6971 81.7108 74.8765 77.5973C73.4781 74.4192 71.889 70.8415 69.5099 70.8415C67.1309 70.8415 65.5418 74.4283 64.1434 77.5928C62.3273 81.7108 60.602 85.5972 56.4613 85.5972C52.5568 85.5972 50.6362 83.5269 48.9337 81.7062C47.3809 80.0354 46.0325 78.5916 43.4082 78.5916V78.2057C46.2004 78.2057 47.5988 79.704 49.2197 81.4429C50.8406 83.1818 52.7293 85.2068 56.4613 85.2068C60.3523 85.2068 62.0186 81.4338 63.7893 77.4384C65.2331 74.1649 66.8766 70.4556 69.5099 70.4556C72.1433 70.4556 73.7823 74.1649 75.2306 77.4384C76.9968 81.4338 78.6676 85.2068 82.5586 85.2068C86.1907 85.2068 88.0704 83.7766 89.7185 82.5144C91.3666 81.2522 92.7287 80.208 95.6208 80.208C98.3041 80.208 99.8568 82.9321 101.364 85.6018C103.067 88.6074 104.828 91.7084 108.674 91.7084C112.519 91.7084 114.267 88.8026 115.975 85.9877C117.546 83.3997 119.026 80.9571 121.723 80.9571C124.506 80.9571 125.904 82.5099 127.525 84.3078C129.146 86.1057 131.035 88.2078 134.789 88.2078C138.689 88.2078 140.356 84.1897 142.122 79.931C143.575 76.426 145.218 72.4533 147.842 72.4533C150.467 72.4533 152.065 75.5043 153.572 78.4554C155.275 81.7789 157.027 85.2068 160.896 85.2068C164.628 85.2068 166.494 83.2091 168.16 81.4429C169.826 79.6768 171.179 78.2057 173.971 78.2057V78.5916C171.347 78.5916 170.003 80.0354 168.446 81.7062C166.743 83.5223 164.814 85.5972 160.918 85.5972C156.832 85.5972 155.016 82.0558 153.254 78.6325C151.792 75.7858 150.29 72.8392 147.865 72.8392C145.441 72.8392 143.906 76.6848 142.503 80.0763C140.687 84.4576 138.971 88.5938 134.812 88.5938C130.898 88.5938 128.973 86.4553 127.275 84.5711C125.713 82.8368 124.369 81.343 121.759 81.343C119.28 81.343 117.854 83.6949 116.342 86.1874C114.563 89.0932 112.719 92.0988 108.66 92.0988Z" fill="#FF725E"/>
<path d="M43.9167 97.4651L44.0166 97.347C44.0538 97.4077 44.1058 97.458 44.1678 97.4929C44.2297 97.5279 44.2996 97.5464 44.3708 97.5468C44.5705 97.5468 44.6704 97.4288 44.6704 97.1881V96.2074H44.0757V96.0576H44.8384V97.1836C44.8384 97.5286 44.6795 97.6966 44.3844 97.6966C44.2933 97.7002 44.2028 97.6809 44.121 97.6405C44.0393 97.6 43.9691 97.5397 43.9167 97.4651Z" fill="#E0E0E0"/>
<path d="M46.2415 96.9252V97.6834H46.0871V97.4927C46.0414 97.5611 45.978 97.6159 45.9036 97.651C45.8293 97.6862 45.7467 97.7005 45.6649 97.6925C45.3879 97.6925 45.2108 97.5517 45.2108 97.3383C45.2108 97.1249 45.3289 96.9933 45.6649 96.9933H46.0508V96.9206C46.0508 96.7118 45.9327 96.5983 45.7057 96.5983C45.5573 96.596 45.4127 96.6458 45.2971 96.739L45.2245 96.6164C45.3655 96.5062 45.5404 96.4484 45.7193 96.453C45.786 96.4428 45.854 96.4475 45.9186 96.4669C45.9832 96.4863 46.0426 96.5198 46.0926 96.565C46.1426 96.6102 46.1819 96.666 46.2076 96.7283C46.2334 96.7906 46.245 96.8579 46.2415 96.9252ZM46.078 97.3156V97.1159H45.6967C45.4606 97.1159 45.3834 97.2112 45.3834 97.3338C45.3834 97.4564 45.4969 97.5653 45.6921 97.5653C45.7762 97.5689 45.8593 97.5452 45.9288 97.4978C45.9983 97.4503 46.0507 97.3816 46.078 97.302V97.3156Z" fill="#E0E0E0"/>
<path d="M47.8214 96.9748V97.6831H47.6534V96.9884C47.6612 96.9379 47.6574 96.8863 47.6423 96.8375C47.6271 96.7887 47.601 96.744 47.566 96.7067C47.531 96.6695 47.4879 96.6408 47.4401 96.6227C47.3923 96.6047 47.3411 96.5977 47.2902 96.6025C47.2306 96.5978 47.1706 96.6066 47.1149 96.6282C47.0591 96.6498 47.0089 96.6836 46.9679 96.7272C46.927 96.7707 46.8963 96.823 46.8782 96.88C46.8601 96.937 46.8551 96.9973 46.8634 97.0565V97.6967H46.6954V96.4754H46.8543V96.6978C46.9036 96.6234 46.9713 96.5629 47.0508 96.5223C47.1304 96.4817 47.2191 96.4624 47.3083 96.4663C47.3776 96.4566 47.4481 96.4631 47.5145 96.4851C47.5808 96.5072 47.6411 96.5443 47.6908 96.5935C47.7405 96.6427 47.7781 96.7027 47.8007 96.7688C47.8234 96.835 47.8304 96.9055 47.8214 96.9748Z" fill="#E0E0E0"/>
<path d="M61.6465 96.2078V96.848H62.4909V96.9978H61.6465V97.6879H61.4785V96.0625H62.5908V96.2123L61.6465 96.2078Z" fill="#E0E0E0"/>
<path d="M63.9347 97.1252H62.9132C62.9213 97.2448 62.9765 97.3564 63.0667 97.4356C63.1569 97.5147 63.2747 97.5549 63.3944 97.5474C63.4642 97.5487 63.5334 97.5351 63.5976 97.5078C63.6617 97.4804 63.7194 97.4397 63.7667 97.3885L63.8575 97.4929C63.8009 97.5572 63.7309 97.6083 63.6525 97.6428C63.5741 97.6773 63.4892 97.6943 63.4035 97.6927C63.3197 97.6978 63.2357 97.6853 63.1569 97.6561C63.0781 97.6269 63.0063 97.5816 62.9461 97.523C62.8858 97.4645 62.8385 97.394 62.807 97.3161C62.7755 97.2383 62.7607 97.1546 62.7633 97.0707C62.759 96.9904 62.7712 96.91 62.7992 96.8346C62.8273 96.7592 62.8705 96.6904 62.9263 96.6325C62.9821 96.5746 63.0493 96.5287 63.1236 96.4979C63.1979 96.4671 63.2777 96.4518 63.3581 96.4532C63.4384 96.4518 63.518 96.467 63.5921 96.4979C63.6661 96.5288 63.733 96.5747 63.7884 96.6327C63.8439 96.6907 63.8867 96.7596 63.9142 96.835C63.9418 96.9103 63.9534 96.9906 63.9483 97.0707L63.9347 97.1252ZM62.9132 97.0026H63.7804C63.7516 96.91 63.694 96.8291 63.616 96.7717C63.538 96.7142 63.4437 96.6832 63.3468 96.6832C63.2499 96.6832 63.1555 96.7142 63.0775 96.7717C62.9995 96.8291 62.9419 96.91 62.9132 97.0026Z" fill="#E0E0E0"/>
<path d="M65.5284 97.0707C65.5328 97.1524 65.5202 97.2341 65.4914 97.3107C65.4626 97.3873 65.4182 97.457 65.361 97.5155C65.3037 97.574 65.235 97.6199 65.1591 97.6505C65.0832 97.681 65.0017 97.6954 64.92 97.6927C64.8293 97.6933 64.7399 97.6707 64.6604 97.627C64.581 97.5833 64.514 97.5199 64.466 97.443V97.6836H64.3116V95.9629H64.475V96.6939C64.5239 96.6183 64.5912 96.5566 64.6707 96.5144C64.7502 96.4723 64.8391 96.4512 64.929 96.4532C65.0097 96.4519 65.0897 96.4671 65.1642 96.4979C65.2387 96.5287 65.3061 96.5745 65.3623 96.6323C65.4185 96.6902 65.4622 96.7589 65.4907 96.8343C65.5193 96.9097 65.5321 96.9902 65.5284 97.0707ZM65.3649 97.0707C65.3605 96.982 65.3301 96.8966 65.2776 96.8249C65.2251 96.7533 65.1527 96.6987 65.0695 96.6678C64.9862 96.6369 64.8957 96.631 64.8092 96.651C64.7227 96.671 64.6439 96.716 64.5827 96.7803C64.5214 96.8446 64.4804 96.9255 64.4646 97.0129C64.4489 97.1003 64.4591 97.1904 64.494 97.272C64.529 97.3536 64.5871 97.4233 64.6612 97.4722C64.7353 97.5212 64.8221 97.5473 64.9109 97.5474C64.9709 97.5451 65.0299 97.5309 65.0844 97.5056C65.1389 97.4803 65.1879 97.4445 65.2284 97.4001C65.2689 97.3558 65.3003 97.3038 65.3206 97.2473C65.3409 97.1907 65.3498 97.1307 65.3468 97.0707H65.3649Z" fill="#E0E0E0"/>
<path d="M81.2829 96.0576V97.683H81.1149V96.3936L80.4792 97.4832H80.3975L79.7573 96.3936V97.6876H79.603V96.0621H79.7437L80.452 97.2653L81.1512 96.0621L81.2829 96.0576Z" fill="#E0E0E0"/>
<path d="M82.6994 96.9245V97.6827H82.5405V97.492C82.4952 97.5597 82.4325 97.614 82.359 97.6491C82.2855 97.6843 82.2039 97.699 82.1228 97.6918C81.8458 97.6918 81.6688 97.551 81.6688 97.3376C81.6688 97.1243 81.7868 96.9926 82.1228 96.9926H82.5133V96.92C82.5133 96.7111 82.3952 96.5976 82.1682 96.5976C82.0197 96.5953 81.8752 96.6451 81.7596 96.7383L81.6869 96.6157C81.8279 96.5055 82.0029 96.4478 82.1818 96.4523C82.2481 96.4428 82.3157 96.4482 82.3796 96.4679C82.4436 96.4876 82.5025 96.5212 82.5519 96.5664C82.6014 96.6115 82.6403 96.667 82.6658 96.7289C82.6913 96.7908 82.7028 96.8576 82.6994 96.9245ZM82.5359 97.3149V97.1152H82.15C81.9139 97.1152 81.8368 97.2105 81.8368 97.3331C81.8368 97.4557 81.9503 97.5647 82.1455 97.5647C82.2301 97.5678 82.3135 97.544 82.3836 97.4966C82.4538 97.4493 82.5071 97.3809 82.5359 97.3013V97.3149Z" fill="#E0E0E0"/>
<path d="M83.7619 96.4525V96.6114H83.7255C83.6668 96.608 83.6081 96.6178 83.5536 96.64C83.4991 96.6622 83.4503 96.6963 83.4107 96.7399C83.3711 96.7834 83.3417 96.8352 83.3247 96.8915C83.3077 96.9478 83.3035 97.0072 83.3124 97.0654V97.6874H83.1489V96.4661H83.3078V96.7067C83.3483 96.6229 83.4136 96.5536 83.4948 96.5081C83.576 96.4626 83.6692 96.4432 83.7619 96.4525Z" fill="#E0E0E0"/>
<path d="M97.9001 97.2476H96.9921L96.7969 97.7016H96.6198L97.3644 96.0762H97.5324L98.277 97.7016H98.0954L97.9001 97.2476ZM97.8366 97.1113L97.4461 96.2351L97.0557 97.1113H97.8366Z" fill="#E0E0E0"/>
<path d="M99.748 97.0705C99.7525 97.1522 99.7399 97.2339 99.7111 97.3105C99.6823 97.3871 99.6378 97.4568 99.5806 97.5153C99.5234 97.5738 99.4547 97.6197 99.3788 97.6503C99.3029 97.6808 99.2214 97.6952 99.1396 97.6925C99.0497 97.6945 98.9608 97.6735 98.8813 97.6313C98.8018 97.5892 98.7345 97.5274 98.6856 97.4519V98.1329H98.5176V96.4621H98.672V96.7027C98.7197 96.6255 98.7866 96.5619 98.8662 96.5182C98.9457 96.4744 99.0352 96.452 99.126 96.453C99.2085 96.4485 99.291 96.4613 99.3683 96.4907C99.4455 96.52 99.5157 96.5653 99.5743 96.6235C99.6329 96.6817 99.6787 96.7516 99.7086 96.8286C99.7385 96.9056 99.752 96.988 99.748 97.0705ZM99.5846 97.0705C99.5802 96.9818 99.5498 96.8964 99.4973 96.8247C99.4448 96.7531 99.3724 96.6985 99.2892 96.6676C99.2059 96.6367 99.1154 96.6308 99.0289 96.6508C98.9424 96.6708 98.8636 96.7158 98.8024 96.7801C98.7411 96.8444 98.7001 96.9253 98.6843 97.0127C98.6686 97.1001 98.6788 97.1902 98.7137 97.2718C98.7486 97.3534 98.8068 97.4231 98.8809 97.472C98.9549 97.521 99.0418 97.5471 99.1306 97.5472C99.1918 97.5467 99.2522 97.5338 99.3083 97.5093C99.3644 97.4848 99.415 97.4492 99.4569 97.4047C99.4989 97.3602 99.5315 97.3076 99.5526 97.2502C99.5738 97.1927 99.5831 97.1316 99.5801 97.0705H99.5846Z" fill="#E0E0E0"/>
<path d="M100.701 96.4529V96.6118H100.661C100.406 96.6118 100.252 96.7707 100.252 97.0658V97.6878H100.084V96.4665H100.243V96.7072C100.284 96.6226 100.35 96.5527 100.432 96.5071C100.514 96.4616 100.608 96.4427 100.701 96.4529Z" fill="#E0E0E0"/>
<path d="M117.518 96.0576V97.683H117.355V96.3936L116.715 97.4832H116.633L115.993 96.3936V97.6876H115.829V96.0621H115.97L116.678 97.2653L117.378 96.0621L117.518 96.0576Z" fill="#E0E0E0"/>
<path d="M118.935 96.9245V97.6827H118.776V97.492C118.731 97.5597 118.668 97.614 118.595 97.6491C118.521 97.6843 118.439 97.699 118.358 97.6918C118.081 97.6918 117.904 97.551 117.904 97.3376C117.904 97.1243 118.022 96.9926 118.358 96.9926H118.749V96.92C118.749 96.7111 118.631 96.5976 118.404 96.5976C118.255 96.5953 118.111 96.6451 117.995 96.7383L117.922 96.6157C118.063 96.5055 118.238 96.4478 118.417 96.4523C118.484 96.4428 118.551 96.4482 118.615 96.4679C118.679 96.4876 118.738 96.5212 118.787 96.5664C118.837 96.6115 118.876 96.667 118.901 96.7289C118.927 96.7908 118.938 96.8576 118.935 96.9245ZM118.771 97.3149V97.1152H118.386C118.149 97.1152 118.072 97.2105 118.072 97.3331C118.072 97.4557 118.186 97.5647 118.381 97.5647C118.466 97.5678 118.549 97.544 118.619 97.4966C118.689 97.4493 118.743 97.3809 118.771 97.3013V97.3149Z" fill="#E0E0E0"/>
<path d="M120.388 96.4616L119.775 97.8236C119.675 98.0643 119.543 98.1415 119.371 98.1415C119.261 98.1437 119.155 98.103 119.076 98.0279L119.148 97.9053C119.208 97.9636 119.288 97.9962 119.371 97.9962C119.48 97.9962 119.557 97.9462 119.625 97.7918L119.679 97.6738L119.135 96.457H119.307L119.761 97.4922L120.215 96.457L120.388 96.4616Z" fill="#E0E0E0"/>
<path d="M132.842 97.4651L132.942 97.347C132.978 97.4077 133.029 97.458 133.09 97.493C133.151 97.528 133.221 97.5465 133.291 97.5468C133.491 97.5468 133.595 97.4288 133.595 97.1881V96.2074H133.001V96.0576H133.763V97.1836C133.763 97.5286 133.6 97.6966 133.309 97.6966C133.218 97.7011 133.127 97.6822 133.045 97.6416C132.964 97.6011 132.893 97.5403 132.842 97.4651Z" fill="#E0E0E0"/>
<path d="M135.343 96.4622V97.6835H135.189V97.4611C135.141 97.5372 135.074 97.599 134.994 97.6398C134.914 97.6806 134.824 97.6988 134.735 97.6926C134.664 97.7036 134.591 97.6976 134.523 97.6752C134.455 97.6528 134.393 97.6145 134.343 97.5636C134.292 97.5126 134.255 97.4504 134.233 97.3821C134.211 97.3138 134.206 97.2413 134.217 97.1705V96.4622H134.385V97.1523C134.385 97.4157 134.517 97.5473 134.753 97.5473C134.811 97.5499 134.87 97.5395 134.924 97.517C134.978 97.4945 135.026 97.4604 135.066 97.4171C135.105 97.3737 135.135 97.3223 135.152 97.2663C135.169 97.2104 135.174 97.1513 135.166 97.0933V96.4531L135.343 96.4622Z" fill="#E0E0E0"/>
<path d="M136.932 96.9748V97.6831H136.764V96.9884C136.772 96.9379 136.768 96.8863 136.753 96.8375C136.738 96.7887 136.712 96.744 136.677 96.7067C136.642 96.6695 136.599 96.6408 136.551 96.6227C136.503 96.6047 136.452 96.5977 136.401 96.6025C136.342 96.5978 136.282 96.6066 136.226 96.6282C136.17 96.6498 136.12 96.6836 136.079 96.7272C136.038 96.7707 136.007 96.823 135.989 96.88C135.971 96.937 135.966 96.9973 135.974 97.0565V97.6967H135.806V96.4754H135.965V96.6978C136.015 96.6237 136.083 96.5634 136.162 96.5229C136.242 96.4824 136.33 96.4629 136.419 96.4663C136.489 96.4566 136.559 96.4631 136.625 96.4851C136.692 96.5072 136.752 96.5443 136.802 96.5935C136.851 96.6427 136.889 96.7027 136.912 96.7688C136.934 96.835 136.941 96.9055 136.932 96.9748Z" fill="#E0E0E0"/>
<path d="M150.957 97.4651L151.062 97.347C151.097 97.408 151.148 97.4585 151.21 97.4936C151.271 97.5286 151.34 97.547 151.411 97.5468C151.611 97.5468 151.711 97.4288 151.711 97.1881V96.2074H151.116V96.0576H151.879V97.1836C151.879 97.5286 151.72 97.6966 151.425 97.6966C151.334 97.7002 151.243 97.6809 151.161 97.6405C151.08 97.6 151.009 97.5397 150.957 97.4651Z" fill="#E0E0E0"/>
<path d="M153.463 96.4622V97.6835H153.304V97.4611C153.257 97.5372 153.19 97.599 153.11 97.6398C153.03 97.6806 152.94 97.6988 152.85 97.6926C152.78 97.7028 152.708 97.6962 152.64 97.6734C152.573 97.6507 152.512 97.6123 152.462 97.5615C152.412 97.5106 152.374 97.4487 152.353 97.3808C152.331 97.3129 152.326 97.2408 152.337 97.1705V96.4622H152.501V97.1523C152.501 97.4157 152.637 97.5473 152.869 97.5473C152.928 97.5506 152.986 97.5407 153.041 97.5185C153.096 97.4963 153.145 97.4623 153.185 97.4189C153.225 97.3755 153.254 97.3238 153.272 97.2675C153.29 97.2112 153.294 97.1517 153.286 97.0933V96.4531L153.463 96.4622Z" fill="#E0E0E0"/>
<path d="M153.926 95.9629H154.09V97.6836H153.926V95.9629Z" fill="#E0E0E0"/>
<path d="M169.536 97.2476H168.628L168.432 97.7016H168.255L168.995 96.0762H169.168L169.908 97.7016H169.726L169.536 97.2476ZM169.477 97.1113L169.086 96.2351L168.696 97.1113H169.477Z" fill="#E0E0E0"/>
<path d="M171.225 96.4622V97.6835H171.07V97.4611C171.023 97.5372 170.955 97.599 170.875 97.6398C170.795 97.6806 170.706 97.6988 170.616 97.6926C170.546 97.7028 170.474 97.6962 170.406 97.6734C170.339 97.6507 170.278 97.6123 170.228 97.5615C170.178 97.5106 170.14 97.4487 170.119 97.3808C170.097 97.3129 170.092 97.2408 170.103 97.1705V96.4622H170.267V97.1523C170.267 97.4157 170.398 97.5473 170.634 97.5473C170.693 97.5499 170.751 97.5395 170.805 97.517C170.859 97.4945 170.908 97.4604 170.947 97.4171C170.987 97.3737 171.016 97.3223 171.034 97.2663C171.051 97.2104 171.056 97.1513 171.048 97.0933V96.4531L171.225 96.4622Z" fill="#E0E0E0"/>
<path d="M172.818 96.462V97.5335C172.831 97.6165 172.825 97.7015 172.799 97.7815C172.773 97.8615 172.729 97.9343 172.669 97.994C172.61 98.0536 172.538 98.0985 172.458 98.125C172.378 98.1515 172.293 98.1588 172.21 98.1464C172.004 98.1547 171.802 98.0868 171.643 97.9557L171.724 97.8331C171.86 97.9438 172.031 98.0018 172.206 97.9966C172.514 97.9966 172.66 97.8558 172.66 97.5426V97.3836C172.607 97.4613 172.536 97.5242 172.453 97.5664C172.369 97.6085 172.276 97.6285 172.183 97.6243C172.101 97.6315 172.018 97.6215 171.94 97.595C171.862 97.5685 171.79 97.526 171.729 97.4703C171.668 97.4146 171.62 97.3468 171.587 97.2713C171.553 97.1958 171.536 97.1143 171.536 97.0318C171.536 96.9493 171.553 96.8677 171.587 96.7922C171.62 96.7167 171.668 96.649 171.729 96.5932C171.79 96.5375 171.862 96.4951 171.94 96.4686C172.018 96.4421 172.101 96.4321 172.183 96.4393C172.278 96.4349 172.373 96.4551 172.458 96.4981C172.543 96.541 172.616 96.6052 172.669 96.6845V96.4484L172.818 96.462ZM172.66 97.0431C172.66 96.9533 172.633 96.8655 172.583 96.7909C172.533 96.7162 172.462 96.658 172.379 96.6237C172.296 96.5893 172.205 96.5803 172.117 96.5978C172.029 96.6154 171.948 96.6586 171.884 96.7221C171.821 96.7856 171.778 96.8665 171.76 96.9546C171.743 97.0426 171.752 97.1339 171.786 97.2169C171.82 97.2998 171.879 97.3707 171.953 97.4206C172.028 97.4705 172.116 97.4971 172.206 97.4971C172.267 97.4996 172.328 97.4897 172.385 97.4679C172.442 97.4462 172.494 97.4132 172.538 97.3708C172.582 97.3284 172.618 97.2775 172.641 97.2212C172.665 97.1649 172.678 97.1043 172.678 97.0431H172.66Z" fill="#E0E0E0"/>
<path d="M35.4085 96.7067C35.4085 96.3526 35.5947 96.1392 35.8625 96.1392C36.1304 96.1392 36.3166 96.3526 36.3166 96.7067C36.3166 97.0608 36.1304 97.2742 35.8625 97.2742C35.5947 97.2742 35.4085 97.0654 35.4085 96.7067ZM36.1803 96.7067C36.1803 96.4116 36.0487 96.2527 35.8534 96.2527C35.6582 96.2527 35.522 96.4161 35.522 96.7067C35.522 96.9973 35.6582 97.1607 35.8534 97.1607C36.0487 97.1607 36.1803 97.0063 36.1803 96.7067Z" fill="#E0E0E0"/>
<path d="M34.396 90.873V91.9899H34.2825V90.9729H34.0192V90.873H34.396Z" fill="#E0E0E0"/>
<path d="M34.6547 91.4313C34.6547 91.0772 34.8408 90.8638 35.1087 90.8638C35.3766 90.8638 35.5627 91.0772 35.5627 91.4313C35.5627 91.7854 35.3766 91.9988 35.1087 91.9988C34.8408 91.9988 34.6547 91.7854 34.6547 91.4313ZM35.4265 91.4313C35.4265 91.1316 35.2948 90.9773 35.0996 90.9773C34.9044 90.9773 34.7682 91.1407 34.7682 91.4313C34.7682 91.7219 34.9044 91.8853 35.0996 91.8853C35.2948 91.8853 35.4356 91.7264 35.4356 91.4313H35.4265Z" fill="#E0E0E0"/>
<path d="M34.8499 87.522V87.6219H34.069V87.5402L34.523 87.0862C34.6456 86.9636 34.6728 86.8864 34.6728 86.8137C34.6728 86.7411 34.582 86.6049 34.4095 86.6049C34.3528 86.6004 34.2958 86.6091 34.243 86.6304C34.1902 86.6517 34.1431 86.6849 34.1053 86.7275L34.0236 86.6594C34.0735 86.6052 34.1348 86.5628 34.2031 86.5353C34.2715 86.5078 34.3451 86.4959 34.4186 86.5005C34.6456 86.5005 34.7909 86.614 34.7909 86.8001C34.7883 86.8687 34.7702 86.9357 34.7379 86.9963C34.7057 87.0568 34.6602 87.1093 34.6047 87.1497L34.2279 87.522H34.8499Z" fill="#E0E0E0"/>
<path d="M34.9862 87.0635C34.9862 86.7093 35.1724 86.5005 35.4402 86.5005C35.7081 86.5005 35.8943 86.7093 35.8943 87.0635C35.8943 87.4176 35.7081 87.631 35.4402 87.631C35.1724 87.631 34.9862 87.4222 34.9862 87.0635ZM35.758 87.0635C35.758 86.7684 35.6264 86.6095 35.4312 86.6095C35.2359 86.6095 35.1043 86.7729 35.1043 87.0635C35.1043 87.3541 35.2359 87.5175 35.4312 87.5175C35.6264 87.5175 35.758 87.3631 35.758 87.0635Z" fill="#E0E0E0"/>
<path d="M34.8273 82.7735C34.8273 82.9597 34.6911 83.105 34.4187 83.105C34.272 83.1083 34.1294 83.0565 34.0192 82.9597L34.0736 82.8689C34.1668 82.9565 34.2908 83.0038 34.4187 83.0006C34.6048 83.0006 34.7093 82.9143 34.7093 82.7735C34.7093 82.6328 34.6139 82.5511 34.4051 82.5511H34.3279V82.4693L34.6366 82.0789H34.0646V81.979H34.7819V82.0607L34.4686 82.4557C34.7047 82.483 34.8273 82.6101 34.8273 82.7735Z" fill="#E0E0E0"/>
<path d="M34.9862 82.5504C34.9862 82.1963 35.1724 81.9829 35.4402 81.9829C35.7081 81.9829 35.8943 82.1963 35.8943 82.5504C35.8943 82.9046 35.7081 83.118 35.4402 83.118C35.1724 83.118 34.9862 82.9046 34.9862 82.5504ZM35.758 82.5504C35.758 82.2508 35.6264 82.0964 35.4312 82.0964C35.2359 82.0964 35.1043 82.2599 35.1043 82.5504C35.1043 82.841 35.2359 83.0045 35.4312 83.0045C35.6264 83.0045 35.758 82.8456 35.758 82.5504Z" fill="#E0E0E0"/>
<path d="M35.0361 78.4507H34.8136V78.7413H34.7001V78.4507H34.069V78.369L34.6592 77.6289H34.7863L34.2007 78.3463H34.6819V78.092H34.7954V78.3463H35.0179L35.0361 78.4507Z" fill="#E0E0E0"/>
<path d="M35.1405 78.1872C35.1405 77.8285 35.3267 77.6196 35.5945 77.6196C35.8624 77.6196 36.0485 77.8285 36.0485 78.1872C36.0485 78.5458 35.8624 78.7547 35.5945 78.7547C35.3267 78.7547 35.1405 78.5413 35.1405 78.1872ZM35.9123 78.1872C35.9123 77.8875 35.7807 77.7331 35.5854 77.7331C35.3902 77.7331 35.2585 77.8966 35.2585 78.1872C35.2585 78.4777 35.3902 78.6412 35.5854 78.6412C35.7807 78.6412 35.9123 78.4823 35.9123 78.1872Z" fill="#E0E0E0"/>
<path d="M34.8455 74.228C34.8455 74.4187 34.7138 74.564 34.4414 74.564C34.2952 74.5694 34.1524 74.5191 34.0419 74.4232L34.0964 74.3324C34.1896 74.4164 34.3114 74.4619 34.4369 74.4595C34.6276 74.4595 34.7274 74.3687 34.7274 74.2325C34.7274 74.0963 34.6412 74.001 34.3551 74.001H34.1191L34.1735 73.438H34.7865V73.5424H34.278L34.2371 73.8965H34.3824C34.7184 73.8965 34.8455 74.0282 34.8455 74.228Z" fill="#E0E0E0"/>
<path d="M34.9908 73.9972C34.9908 73.6431 35.177 73.4297 35.4448 73.4297C35.7127 73.4297 35.8989 73.6431 35.8989 73.9972C35.8989 74.3514 35.7082 74.5647 35.4448 74.5647C35.1815 74.5647 34.9908 74.3559 34.9908 73.9972ZM35.7627 73.9972C35.7627 73.7021 35.6264 73.5432 35.4358 73.5432C35.2451 73.5432 35.1043 73.7066 35.1043 73.9972C35.1043 74.2878 35.2405 74.4512 35.4358 74.4512C35.631 74.4512 35.7627 74.2969 35.7627 73.9972Z" fill="#E0E0E0"/>
<path d="M34.9271 69.8604C34.9267 69.9085 34.9163 69.9561 34.8965 69.9999C34.8766 70.0438 34.8478 70.0831 34.8119 70.1151C34.776 70.1472 34.7337 70.1714 34.6879 70.1862C34.642 70.2009 34.5936 70.2059 34.5457 70.2009C34.2506 70.2009 34.0917 69.9966 34.0917 69.6424C34.0917 69.2883 34.3006 69.0658 34.6002 69.0658C34.6931 69.0623 34.7853 69.0826 34.8681 69.1248L34.8227 69.2202C34.7572 69.1806 34.6812 69.1616 34.6048 69.1657C34.3641 69.1657 34.2098 69.3201 34.2098 69.6197C34.2076 69.65 34.2076 69.6803 34.2098 69.7105C34.2416 69.6489 34.2908 69.5979 34.3514 69.564C34.4119 69.5301 34.4811 69.5148 34.5503 69.5198C34.5979 69.5147 34.6462 69.5197 34.6918 69.5345C34.7374 69.5493 34.7793 69.5736 34.8149 69.6058C34.8505 69.6379 34.8789 69.6772 34.8982 69.7211C34.9175 69.7649 34.9274 69.8124 34.9271 69.8604ZM34.8136 69.8604C34.8136 69.7151 34.7046 69.6197 34.5321 69.6197C34.497 69.616 34.4615 69.6194 34.4279 69.6299C34.3942 69.6404 34.3629 69.6576 34.3362 69.6806C34.3094 69.7035 34.2876 69.7317 34.2721 69.7634C34.2566 69.7951 34.2477 69.8297 34.2461 69.8649C34.2461 69.9875 34.346 70.1055 34.5412 70.1055C34.5756 70.1094 34.6104 70.1059 34.6434 70.0953C34.6764 70.0847 34.7067 70.0673 34.7324 70.0441C34.7582 70.0209 34.7787 69.9926 34.7927 69.9609C34.8067 69.9293 34.8138 69.895 34.8136 69.8604Z" fill="#E0E0E0"/>
<path d="M35.0589 69.6339C35.0589 69.2798 35.2451 69.0664 35.513 69.0664C35.7808 69.0664 35.967 69.2798 35.967 69.6339C35.967 69.9881 35.7808 70.2015 35.513 70.2015C35.2451 70.2015 35.0589 69.9881 35.0589 69.6339ZM35.8308 69.6339C35.8308 69.3343 35.6991 69.1799 35.5039 69.1799C35.3086 69.1799 35.1724 69.3434 35.1724 69.6339C35.1724 69.9245 35.3086 70.088 35.5039 70.088C35.6991 70.088 35.8308 69.9336 35.8308 69.6339Z" fill="#E0E0E0"/>
<g opacity="0.62">
<path d="M174.366 69.9062H40.7704V70.0198H174.366V69.9062Z" fill="#E0E0E0"/>
<path d="M174.367 74.2603H40.7705V74.3738H174.367V74.2603Z" fill="#E0E0E0"/>
<path d="M174.367 78.6143H40.7705V78.7278H174.367V78.6143Z" fill="#E0E0E0"/>
<path d="M174.367 82.9688H40.7705V83.0823H174.367V82.9688Z" fill="#E0E0E0"/>
<path d="M174.367 87.3228H40.7705V87.4363H174.367V87.3228Z" fill="#E0E0E0"/>
<path d="M174.367 91.6807H40.7705V91.7942H174.367V91.6807Z" fill="#E0E0E0"/>
</g>
<path d="M70.8087 70.8417C70.8096 70.5784 70.7323 70.3207 70.5867 70.1014C70.4411 69.882 70.2336 69.7108 69.9906 69.6094C69.7476 69.508 69.48 69.481 69.2217 69.5318C68.9633 69.5827 68.7258 69.709 68.5393 69.8949C68.3528 70.0807 68.2257 70.3178 68.174 70.5759C68.1223 70.8341 68.1484 71.1018 68.2489 71.3451C68.3495 71.5885 68.52 71.7965 68.7388 71.9429C68.9577 72.0893 69.2151 72.1674 69.4784 72.1674C69.8304 72.1674 70.1681 72.0279 70.4174 71.7794C70.6668 71.5309 70.8075 71.1937 70.8087 70.8417Z" fill="#FF725E"/>
<path d="M109.877 91.7763C109.876 91.5143 109.798 91.2584 109.652 91.041C109.505 90.8236 109.298 90.6543 109.056 90.5547C108.813 90.455 108.547 90.4294 108.29 90.4811C108.033 90.5328 107.797 90.6594 107.612 90.845C107.428 91.0306 107.302 91.2668 107.251 91.5239C107.2 91.7809 107.227 92.0472 107.327 92.2892C107.428 92.5312 107.598 92.738 107.815 92.8835C108.033 93.0289 108.29 93.1066 108.552 93.1066C108.726 93.1066 108.899 93.0721 109.06 93.0052C109.221 92.9383 109.367 92.8403 109.491 92.7167C109.614 92.5931 109.711 92.4464 109.778 92.285C109.844 92.1236 109.878 91.9508 109.877 91.7763Z" fill="#455A64"/>
<path d="M13.8332 34.856C13.7917 34.8565 13.7514 34.842 13.7197 34.8152L10.6687 32.0502L7.6131 34.8152C7.58037 34.8455 7.5374 34.8623 7.49279 34.8623C7.44817 34.8623 7.4052 34.8455 7.37247 34.8152C7.35641 34.7995 7.34364 34.7808 7.33492 34.7601C7.3262 34.7395 7.32172 34.7173 7.32172 34.6949C7.32172 34.6724 7.3262 34.6502 7.33492 34.6296C7.34364 34.6089 7.35641 34.5902 7.37247 34.5745L10.5506 31.7097C10.5824 31.6809 10.6236 31.665 10.6664 31.665C10.7092 31.665 10.7505 31.6809 10.7822 31.7097L13.9603 34.5745C13.9764 34.5902 13.9892 34.6089 13.9979 34.6296C14.0066 34.6502 14.0111 34.6724 14.0111 34.6949C14.0111 34.7173 14.0066 34.7395 13.9979 34.7601C13.9892 34.7808 13.9764 34.7995 13.9603 34.8152C13.9429 34.8301 13.9227 34.8414 13.9009 34.8484C13.8791 34.8554 13.856 34.858 13.8332 34.856Z" fill="#FAFAFA"/>
<path d="M12.9661 37.2754H8.36685C8.32229 37.2754 8.27956 37.2577 8.24805 37.2262C8.21655 37.1946 8.19885 37.1519 8.19885 37.1074V33.9292C8.19825 33.9068 8.20215 33.8844 8.21032 33.8635C8.21849 33.8426 8.23077 33.8236 8.24643 33.8075C8.26209 33.7914 8.28081 33.7786 8.30149 33.7699C8.32217 33.7612 8.3444 33.7567 8.36685 33.7567C8.4126 33.7567 8.45648 33.7749 8.48884 33.8072C8.52119 33.8396 8.53937 33.8835 8.53937 33.9292V36.9167H12.7981V33.8884C12.7975 33.8659 12.8014 33.8436 12.8096 33.8227C12.8177 33.8018 12.83 33.7827 12.8457 33.7666C12.8613 33.7505 12.8801 33.7378 12.9007 33.729C12.9214 33.7203 12.9436 33.7158 12.9661 33.7158C13.0118 33.7158 13.0557 33.734 13.0881 33.7664C13.1204 33.7987 13.1386 33.8426 13.1386 33.8884V37.0665C13.1441 37.092 13.1438 37.1184 13.1376 37.1437C13.1314 37.169 13.1196 37.1927 13.103 37.2128C13.0864 37.2329 13.0654 37.2489 13.0417 37.2598C13.018 37.2706 12.9922 37.2759 12.9661 37.2754Z" fill="#FAFAFA"/>
<path d="M13.5246 57.1026H7.53147C7.48649 57.1027 7.44329 57.0851 7.41106 57.0537C7.37883 57.0224 7.36013 56.9796 7.35895 56.9347V53.1072C7.35895 52.8797 7.44935 52.6614 7.61028 52.5005C7.7712 52.3395 7.98947 52.2491 8.21705 52.2491H9.77889C9.97238 52.2461 10.1623 52.3011 10.3242 52.4071C10.4861 52.5131 10.6125 52.6653 10.6869 52.8439L10.9548 53.4841H12.8481C13.0757 53.4841 13.2939 53.5745 13.4548 53.7354C13.6158 53.8963 13.7062 54.1146 13.7062 54.3422V56.9347C13.7063 56.9579 13.7015 56.9809 13.6922 57.0022C13.6829 57.0236 13.6693 57.0427 13.6523 57.0585C13.6352 57.0743 13.615 57.0864 13.593 57.094C13.5711 57.1016 13.5478 57.1045 13.5246 57.1026ZM7.69946 56.7621H13.352V54.3422C13.352 54.2049 13.2975 54.0733 13.2004 53.9762C13.1034 53.8791 12.9717 53.8246 12.8345 53.8246H10.8277C10.7939 53.8247 10.7608 53.8148 10.7325 53.7963C10.7043 53.7777 10.6821 53.7512 10.6688 53.7202L10.3555 52.9756C10.3091 52.8609 10.2293 52.7628 10.1265 52.694C10.0237 52.6252 9.9026 52.5888 9.77889 52.5897H8.21705C8.07978 52.5897 7.94813 52.6442 7.85106 52.7413C7.75399 52.8383 7.69946 52.97 7.69946 53.1072V56.7621Z" fill="#FAFAFA"/>
<path d="M8.82998 127.322C8.73535 127.321 8.64329 127.291 8.56664 127.236C8.4962 127.185 8.44168 127.116 8.4095 127.035C8.37732 126.955 8.36883 126.867 8.38504 126.782L8.63475 125.188C8.6379 125.171 8.63664 125.153 8.63109 125.136C8.62553 125.12 8.61586 125.105 8.60297 125.093L7.46337 123.948C7.40479 123.889 7.36364 123.815 7.34443 123.734C7.32523 123.653 7.32871 123.568 7.3545 123.489C7.38029 123.41 7.42739 123.339 7.49064 123.285C7.55389 123.23 7.63085 123.195 7.71309 123.181L9.3067 122.927C9.3242 122.925 9.34087 122.918 9.35516 122.908C9.36945 122.898 9.3809 122.884 9.38843 122.868L10.1239 121.429C10.162 121.354 10.2199 121.292 10.2912 121.248C10.3625 121.205 10.4445 121.182 10.528 121.182C10.6116 121.182 10.6935 121.205 10.7648 121.248C10.8361 121.292 10.894 121.354 10.9321 121.429L11.6631 122.868C11.6715 122.883 11.6832 122.896 11.6973 122.907C11.7115 122.917 11.7277 122.924 11.7448 122.927L13.3384 123.181C13.4207 123.195 13.4976 123.23 13.5609 123.285C13.6241 123.339 13.6712 123.41 13.697 123.489C13.7228 123.568 13.7263 123.653 13.7071 123.734C13.6879 123.815 13.6467 123.889 13.5881 123.948L12.4485 125.093C12.4365 125.105 12.4275 125.12 12.422 125.137C12.4165 125.153 12.4147 125.171 12.4168 125.188L12.671 126.782C12.6872 126.867 12.6787 126.955 12.6465 127.035C12.6144 127.116 12.5598 127.185 12.4894 127.236C12.4236 127.281 12.347 127.308 12.2673 127.315C12.1875 127.321 12.1075 127.306 12.0354 127.272L10.5961 126.545C10.5801 126.537 10.5622 126.532 10.5439 126.532C10.5257 126.532 10.5077 126.537 10.4917 126.545L9.05699 127.272C8.98693 127.308 8.9087 127.325 8.82998 127.322ZM10.528 126.191C10.5991 126.192 10.6691 126.209 10.7323 126.241L12.1716 126.972C12.1902 126.982 12.211 126.986 12.2317 126.984C12.2525 126.982 12.2724 126.975 12.2892 126.963C12.3061 126.951 12.3193 126.934 12.3274 126.915C12.3354 126.896 12.3381 126.875 12.335 126.854L12.0808 125.261C12.0698 125.19 12.0756 125.118 12.0977 125.05C12.1198 124.982 12.1575 124.921 12.2079 124.87L13.3475 123.726C13.3618 123.711 13.3719 123.693 13.3767 123.673C13.3815 123.653 13.3808 123.633 13.3748 123.613C13.3687 123.594 13.3575 123.576 13.3423 123.562C13.3271 123.549 13.3085 123.539 13.2885 123.535L11.6949 123.281C11.6238 123.27 11.5563 123.243 11.4979 123.201C11.4395 123.159 11.3919 123.104 11.3589 123.04L10.6279 121.601C10.6185 121.583 10.6041 121.568 10.5865 121.557C10.5688 121.547 10.5485 121.542 10.528 121.542C10.5074 121.541 10.4869 121.546 10.4691 121.557C10.4514 121.567 10.4371 121.583 10.4281 121.601L9.68354 123.04C9.65101 123.104 9.60407 123.158 9.5465 123.2C9.48893 123.242 9.42234 123.27 9.35211 123.281L7.75848 123.535C7.73728 123.537 7.71722 123.546 7.70099 123.56C7.68476 123.573 7.67314 123.592 7.66768 123.613C7.66099 123.632 7.66 123.653 7.66482 123.673C7.66964 123.693 7.68008 123.712 7.69492 123.726L8.83452 124.87C8.8849 124.921 8.92266 124.982 8.94475 125.05C8.96684 125.118 8.97263 125.19 8.96165 125.261L8.71193 126.854C8.70878 126.875 8.71135 126.896 8.71935 126.915C8.72736 126.934 8.74051 126.951 8.75734 126.963C8.77528 126.974 8.79564 126.979 8.81636 126.979C8.83708 126.979 8.85744 126.974 8.87538 126.963L10.3101 126.232C10.3786 126.202 10.4532 126.188 10.528 126.191Z" fill="#FAFAFA"/>
<path d="M13.8924 103.395H7.15926C7.11429 103.394 7.07156 103.375 7.04018 103.343C7.0088 103.31 6.99126 103.267 6.99127 103.222V98.9771C6.99127 98.9326 7.00897 98.8898 7.04047 98.8583C7.07198 98.8268 7.1147 98.8091 7.15926 98.8091H13.8924C13.9149 98.8085 13.9372 98.8124 13.9581 98.8206C13.979 98.8288 13.9981 98.841 14.0141 98.8567C14.0302 98.8724 14.043 98.8911 14.0517 98.9118C14.0605 98.9325 14.0649 98.9547 14.0649 98.9771V103.204C14.0675 103.228 14.0649 103.253 14.0574 103.276C14.0499 103.299 14.0376 103.32 14.0213 103.338C14.005 103.356 13.9851 103.37 13.9629 103.38C13.9407 103.39 13.9167 103.395 13.8924 103.395ZM7.33179 103.054H13.7244V99.1497H7.33179V103.054Z" fill="#FAFAFA"/>
<path d="M10.5915 102.2C10.5705 102.2 10.5497 102.197 10.5302 102.189C10.5107 102.181 10.493 102.169 10.478 102.155L7.02742 99.1037C7.00647 99.0902 6.9887 99.0723 6.97532 99.0512C6.96194 99.0302 6.95328 99.0065 6.94993 98.9818C6.94658 98.9571 6.94862 98.932 6.95592 98.9082C6.96322 98.8843 6.9756 98.8624 6.9922 98.8438C7.0088 98.8252 7.02924 98.8104 7.0521 98.8004C7.07496 98.7905 7.0997 98.7856 7.12463 98.7862C7.14955 98.7867 7.17406 98.7926 7.19647 98.8036C7.21888 98.8145 7.23865 98.8301 7.25443 98.8494L10.587 101.801L13.7651 98.854C13.7808 98.8379 13.7995 98.8251 13.8201 98.8164C13.8408 98.8077 13.863 98.8032 13.8854 98.8032C13.9079 98.8032 13.9301 98.8077 13.9507 98.8164C13.9714 98.8251 13.9901 98.8379 14.0058 98.854C14.0371 98.8862 14.0546 98.9293 14.0546 98.9743C14.0546 99.0192 14.0371 99.0624 14.0058 99.0946L10.7186 102.146C10.7022 102.163 10.6824 102.176 10.6606 102.186C10.6388 102.195 10.6153 102.2 10.5915 102.2Z" fill="#FAFAFA"/>
<path d="M7.25897 103.204C7.21319 103.204 7.16925 103.186 7.13639 103.155C7.12032 103.139 7.10756 103.12 7.09884 103.099C7.09013 103.079 7.08563 103.057 7.08563 103.034C7.08563 103.012 7.09013 102.99 7.09884 102.969C7.10756 102.948 7.12032 102.93 7.13639 102.914L9.18402 100.866C9.19982 100.85 9.21858 100.838 9.23923 100.829C9.25987 100.821 9.282 100.816 9.30434 100.816C9.32668 100.816 9.34881 100.821 9.36945 100.829C9.3901 100.838 9.40886 100.85 9.42466 100.866C9.44046 100.882 9.453 100.901 9.46155 100.921C9.4701 100.942 9.47449 100.964 9.47449 100.987C9.47449 101.009 9.4701 101.031 9.46155 101.052C9.453 101.072 9.44046 101.091 9.42466 101.107L7.37702 103.155C7.34554 103.186 7.30328 103.204 7.25897 103.204Z" fill="#FAFAFA"/>
<path d="M13.9378 103.349C13.8921 103.348 13.8483 103.331 13.8152 103.299L11.6268 101.111C11.611 101.095 11.5985 101.076 11.5899 101.056C11.5814 101.035 11.577 101.013 11.577 100.99C11.577 100.968 11.5814 100.946 11.5899 100.925C11.5985 100.905 11.611 100.886 11.6268 100.87C11.6426 100.854 11.6614 100.842 11.682 100.833C11.7026 100.825 11.7248 100.82 11.7471 100.82C11.7695 100.82 11.7916 100.825 11.8122 100.833C11.8329 100.842 11.8516 100.854 11.8674 100.87L14.0558 103.059C14.0719 103.074 14.0847 103.093 14.0934 103.114C14.1021 103.134 14.1066 103.156 14.1066 103.179C14.1066 103.201 14.1021 103.223 14.0934 103.244C14.0847 103.265 14.0719 103.284 14.0558 103.299C14.0244 103.33 13.9821 103.348 13.9378 103.349Z" fill="#FAFAFA"/>
<path d="M11.1637 76.1582H10.1694V77.1525H11.1637V76.1582Z" fill="#FF725E"/>
<path d="M13.0388 76.1582H12.0445V77.1525H13.0388V76.1582Z" fill="#FF725E"/>
<path d="M9.2885 76.1582H8.29419V77.1525H9.2885V76.1582Z" fill="#FF725E"/>
<path d="M13.0388 77.7241H12.0445V78.7184H13.0388V77.7241Z" fill="#FF725E"/>
<path d="M11.1637 77.7241H10.1694V78.7184H11.1637V77.7241Z" fill="#FF725E"/>
<path d="M9.2885 77.7241H8.29419V78.7184H9.2885V77.7241Z" fill="#FF725E"/>
<path d="M14.1965 80.4168H7.13646C7.11402 80.4175 7.09168 80.4136 7.07078 80.4054C7.04987 80.3972 7.03081 80.3849 7.01473 80.3693C6.99865 80.3536 6.98586 80.3349 6.97714 80.3142C6.96841 80.2935 6.96392 80.2713 6.96393 80.2489V74.4419C6.96511 74.3969 6.98381 74.3542 7.01604 74.3228C7.04827 74.2915 7.09148 74.2739 7.13646 74.2739H14.1965C14.2415 74.2739 14.2847 74.2915 14.3169 74.3228C14.3492 74.3542 14.3679 74.3969 14.369 74.4419V80.2489C14.369 80.2713 14.3646 80.2935 14.3558 80.3142C14.3471 80.3349 14.3343 80.3536 14.3182 80.3693C14.3022 80.3849 14.2831 80.3972 14.2622 80.4054C14.2413 80.4136 14.2189 80.4175 14.1965 80.4168ZM7.30445 80.0763H14.0285V74.6008H7.30445V80.0763Z" fill="#FF725E"/>
<path d="M9.04343 75.3134C8.99846 75.3122 8.95574 75.2935 8.92436 75.2612C8.89298 75.229 8.87542 75.1858 8.87544 75.1408V73.2703C8.8714 73.2456 8.87276 73.2203 8.87946 73.1962C8.88615 73.1721 8.89801 73.1497 8.91421 73.1307C8.9304 73.1116 8.95056 73.0963 8.97326 73.0858C8.99597 73.0753 9.02068 73.0698 9.0457 73.0698C9.07072 73.0698 9.09543 73.0753 9.11814 73.0858C9.14084 73.0963 9.16099 73.1116 9.17719 73.1307C9.19339 73.1497 9.20524 73.1721 9.21193 73.1962C9.21863 73.2203 9.22 73.2456 9.21596 73.2703V75.1408C9.21596 75.1866 9.19778 75.2305 9.16543 75.2628C9.13307 75.2952 9.08918 75.3134 9.04343 75.3134Z" fill="#FF725E"/>
<path d="M12.1126 75.3134C12.0677 75.3122 12.0249 75.2935 11.9936 75.2612C11.9622 75.229 11.9446 75.1858 11.9447 75.1408V73.2703C11.9406 73.2456 11.942 73.2203 11.9487 73.1962C11.9554 73.1721 11.9672 73.1497 11.9834 73.1307C11.9996 73.1116 12.0198 73.0963 12.0425 73.0858C12.0652 73.0753 12.0899 73.0698 12.1149 73.0698C12.1399 73.0698 12.1646 73.0753 12.1874 73.0858C12.2101 73.0963 12.2302 73.1116 12.2464 73.1307C12.2626 73.1497 12.2745 73.1721 12.2812 73.1962C12.2878 73.2203 12.2892 73.2456 12.2852 73.2703V75.1408C12.2852 75.1866 12.267 75.2305 12.2346 75.2628C12.2023 75.2952 12.1584 75.3134 12.1126 75.3134Z" fill="#FF725E"/>
<path d="M62.9177 136.92H60.6567V144.502H62.9177V136.92Z" fill="#FF725E"/>
<path d="M44.0121 135.821H41.751V144.502H44.0121V135.821Z" fill="#FF725E"/>
<path d="M48.7385 134.01H46.4774V144.498H48.7385V134.01Z" fill="#FF725E"/>
<path d="M53.4648 134.586H51.2038V144.497H53.4648V134.586Z" fill="#FF725E"/>
<path d="M58.1912 131.236H55.9301V144.502H58.1912V131.236Z" fill="#FF725E"/>
<path d="M67.6441 131.299H65.3831V144.502H67.6441V131.299Z" fill="#FF725E"/>
<path d="M72.3705 135.635H70.1094V144.502H72.3705V135.635Z" fill="#FF725E"/>
<path d="M77.0922 131.88H74.8312V144.502H77.0922V131.88Z" fill="#FF725E"/>
<path d="M81.8186 129.038H79.5576V144.502H81.8186V129.038Z" fill="#FF725E"/>
<path d="M86.5449 131.817H84.2839V144.502H86.5449V131.817Z" fill="#FF725E"/>
<path d="M91.2804 153.9H35.6082C34.3915 153.896 33.2258 153.411 32.3664 152.55C31.5069 151.689 31.0237 150.522 31.0225 149.305V116.021C31.0237 114.803 31.5082 113.635 32.3696 112.773C33.231 111.912 34.399 111.427 35.6172 111.426H91.2804C92.4986 111.427 93.6666 111.912 94.528 112.773C95.3894 113.635 95.8739 114.803 95.8751 116.021V149.305C95.8739 150.524 95.3894 151.692 94.528 152.553C93.6666 153.414 92.4986 153.899 91.2804 153.9ZM35.6082 111.88C34.5103 111.881 33.4578 112.318 32.6816 113.094C31.9053 113.871 31.4687 114.923 31.4675 116.021V149.305C31.4687 150.403 31.9053 151.456 32.6816 152.232C33.4578 153.008 34.5103 153.445 35.6082 153.446H91.2804C92.3782 153.445 93.4307 153.008 94.207 152.232C94.9832 151.456 95.4199 150.403 95.4211 149.305V116.021C95.4199 114.923 94.9832 113.871 94.207 113.094C93.4307 112.318 92.3782 111.881 91.2804 111.88H35.6082Z" fill="#E0E0E0"/>
<path d="M67.2989 122.491C67.2989 122.559 60.8609 122.609 52.92 122.609C44.9792 122.609 38.5366 122.559 38.5366 122.491C38.5366 122.423 44.9746 122.373 52.92 122.373C60.8654 122.373 67.2989 122.428 67.2989 122.491Z" fill="#E0E0E0"/>
<path d="M125.768 142.286C125.188 142.621 124.567 142.879 123.92 143.054C122.616 143.405 121.242 143.405 119.938 143.054C119.292 142.878 118.671 142.62 118.09 142.286C117.509 141.951 116.975 141.541 116.501 141.065C116.027 140.591 115.616 140.056 115.28 139.476C114.944 138.895 114.686 138.272 114.513 137.623C114.168 136.32 114.168 134.95 114.513 133.646C114.686 132.998 114.944 132.375 115.28 131.794C115.616 131.213 116.027 130.679 116.501 130.205C116.975 129.731 117.509 129.321 118.09 128.988C118.67 128.651 119.291 128.392 119.938 128.216C120.588 128.04 121.258 127.952 121.931 127.953V126.441C120.723 126.44 119.527 126.678 118.411 127.14C117.294 127.602 116.28 128.279 115.425 129.133C114.859 129.701 114.369 130.341 113.968 131.036C113.569 131.731 113.263 132.476 113.06 133.251C112.648 134.812 112.648 136.453 113.06 138.014C113.263 138.791 113.568 139.537 113.968 140.234C115.195 142.342 117.203 143.882 119.557 144.52C121.116 144.932 122.756 144.932 124.315 144.52C125.091 144.317 125.836 144.011 126.531 143.612C127.222 143.217 127.857 142.731 128.419 142.168L127.343 141.097C126.874 141.562 126.344 141.962 125.768 142.286Z" fill="#FF725E"/>
<path d="M130.812 133.251C130.392 131.694 129.57 130.274 128.429 129.133C127.288 127.992 125.868 127.17 124.311 126.75C123.534 126.545 122.734 126.441 121.931 126.441V127.953C123.279 127.952 124.603 128.309 125.768 128.988C126.35 129.32 126.884 129.73 127.357 130.205C127.833 130.678 128.244 131.212 128.578 131.794C128.916 132.375 129.175 132.998 129.35 133.646C129.701 134.949 129.701 136.321 129.35 137.623C129.175 138.272 128.916 138.895 128.578 139.476C128.244 140.057 127.833 140.592 127.357 141.065L128.433 142.136C130.157 140.412 131.125 138.073 131.125 135.635C131.124 134.83 131.018 134.029 130.812 133.251Z" fill="#E0E0E0"/>
<path d="M120.465 136.611C120.464 136.726 120.439 136.839 120.391 136.943C120.344 137.048 120.275 137.141 120.19 137.217C120.104 137.294 120.004 137.352 119.895 137.387C119.786 137.423 119.671 137.435 119.557 137.424C118.849 137.424 118.467 136.938 118.467 136.098C118.467 135.258 118.962 134.736 119.68 134.736C119.899 134.726 120.117 134.776 120.311 134.881L120.197 135.099C120.042 135.007 119.864 134.963 119.684 134.972C119.112 134.972 118.744 135.34 118.744 136.062C118.74 136.134 118.74 136.207 118.744 136.28C118.82 136.133 118.936 136.012 119.08 135.931C119.224 135.85 119.388 135.814 119.552 135.826C119.665 135.81 119.78 135.819 119.889 135.851C119.998 135.884 120.099 135.939 120.186 136.013C120.272 136.087 120.341 136.179 120.39 136.282C120.438 136.385 120.463 136.497 120.465 136.611ZM120.197 136.611C120.197 136.266 119.938 136.039 119.53 136.039C119.446 136.03 119.362 136.038 119.282 136.062C119.201 136.087 119.127 136.128 119.063 136.182C118.999 136.236 118.947 136.304 118.91 136.379C118.873 136.454 118.852 136.536 118.849 136.62C118.849 136.911 119.089 137.188 119.548 137.188C119.628 137.196 119.709 137.187 119.786 137.162C119.863 137.138 119.934 137.097 119.994 137.043C120.054 136.989 120.103 136.923 120.136 136.85C120.169 136.776 120.187 136.697 120.188 136.616L120.197 136.611Z" fill="#263238"/>
<path d="M122.572 136.621C122.572 137.075 122.258 137.424 121.609 137.424C121.261 137.436 120.921 137.314 120.66 137.084L120.792 136.866C120.9 136.969 121.028 137.049 121.167 137.102C121.307 137.155 121.455 137.179 121.605 137.174C122.059 137.174 122.295 136.957 122.295 136.634C122.295 136.312 122.086 136.08 121.409 136.08H120.846L120.983 134.75H122.431V134.986H121.219L121.128 135.831H121.468C122.281 135.835 122.572 136.153 122.572 136.621Z" fill="#263238"/>
<path d="M122.844 135.44C122.844 135.008 123.085 134.722 123.439 134.722C123.793 134.722 124.038 135.004 124.038 135.44C124.038 135.875 123.793 136.161 123.439 136.161C123.085 136.161 122.844 135.894 122.844 135.44ZM123.852 135.44C123.852 135.094 123.689 134.89 123.439 134.89C123.189 134.89 123.03 135.099 123.03 135.44C123.03 135.78 123.189 135.989 123.439 135.989C123.689 135.989 123.852 135.794 123.852 135.44ZM125.046 134.74H125.273L123.457 137.392H123.23L125.046 134.74ZM124.469 136.693C124.469 136.261 124.715 135.971 125.069 135.971C125.423 135.971 125.664 136.261 125.664 136.693C125.664 137.124 125.423 137.41 125.069 137.41C124.715 137.41 124.469 137.133 124.469 136.702V136.693ZM125.477 136.693C125.477 136.352 125.318 136.143 125.069 136.143C124.819 136.143 124.656 136.348 124.656 136.693C124.656 137.038 124.819 137.242 125.069 137.242C125.318 137.242 125.459 137.042 125.459 136.702L125.477 136.693Z" fill="#263238"/>
<path d="M157.604 135.64C157.604 136.441 157.5 137.239 157.295 138.014C156.985 139.183 156.446 140.28 155.711 141.241C154.975 142.201 154.057 143.007 153.009 143.612C152.313 144.012 151.566 144.318 150.789 144.52C149.23 144.932 147.59 144.932 146.031 144.52C145.255 144.318 144.51 144.012 143.815 143.612C142.415 142.81 141.254 141.648 140.451 140.248C140.051 139.553 139.746 138.808 139.543 138.032C139.393 137.463 139.296 136.881 139.253 136.293H140.773C140.813 136.753 140.89 137.209 141.005 137.655C141.178 138.303 141.436 138.924 141.772 139.503C142.109 140.086 142.521 140.622 142.998 141.097C143.474 141.57 144.008 141.981 144.587 142.318C145.167 142.653 145.789 142.911 146.435 143.086C147.738 143.431 149.109 143.431 150.412 143.086C151.061 142.912 151.684 142.654 152.265 142.318C152.844 141.981 153.378 141.57 153.854 141.097C154.329 140.622 154.74 140.086 155.075 139.503C155.414 138.925 155.672 138.303 155.842 137.655C156.194 136.353 156.194 134.981 155.842 133.678C155.669 133.022 155.407 132.392 155.062 131.808C154.727 131.225 154.316 130.689 153.84 130.214C152.888 129.26 151.701 128.574 150.399 128.225C149.75 128.051 149.082 127.964 148.41 127.967V126.45C149.213 126.45 150.013 126.554 150.789 126.759C151.566 126.962 152.313 127.267 153.009 127.667C155.119 128.888 156.66 130.894 157.295 133.247C157.501 134.028 157.605 134.832 157.604 135.64Z" fill="#E0E0E0"/>
<path d="M146.344 134.6V134.791L145.227 137.256H144.932L146.022 134.845H144.66V135.34H144.392V134.605L146.344 134.6Z" fill="#263238"/>
<path d="M148.424 136.471C148.424 136.925 148.11 137.274 147.461 137.274C147.113 137.286 146.773 137.164 146.512 136.934L146.644 136.716C146.753 136.819 146.881 136.899 147.022 136.952C147.162 137.005 147.311 137.029 147.461 137.025C147.915 137.025 148.147 136.802 148.147 136.484C148.147 136.166 147.938 135.93 147.239 135.93H146.676L146.812 134.6H148.265V134.841H147.071L146.98 135.685H147.32C148.124 135.685 148.424 136.003 148.424 136.471Z" fill="#263238"/>
<path d="M148.696 135.3C148.696 134.868 148.937 134.578 149.296 134.578C149.654 134.578 149.895 134.864 149.895 135.3C149.895 135.735 149.645 136.021 149.296 136.021C148.946 136.021 148.696 135.731 148.696 135.3ZM149.704 135.3C149.704 134.954 149.541 134.75 149.296 134.75C149.05 134.75 148.887 134.959 148.887 135.3C148.887 135.64 149.046 135.849 149.296 135.849C149.545 135.849 149.704 135.645 149.704 135.3ZM150.903 134.6H151.125L149.309 137.252H149.087L150.903 134.6ZM150.322 136.553C150.322 136.099 150.567 135.831 150.921 135.831C151.275 135.831 151.52 136.117 151.52 136.553C151.52 136.988 151.275 137.27 150.921 137.27C150.567 137.27 150.322 136.984 150.322 136.553ZM151.33 136.553C151.33 136.208 151.171 136.003 150.921 136.003C150.671 136.003 150.512 136.208 150.512 136.553C150.512 136.898 150.676 137.102 150.921 137.102C151.166 137.102 151.339 136.893 151.339 136.553H151.33Z" fill="#263238"/>
<path d="M156.092 135.639C156.093 136.31 156.004 136.977 155.829 137.624C155.658 138.271 155.4 138.893 155.061 139.471C154.726 140.054 154.316 140.59 153.84 141.065C153.365 141.538 152.831 141.949 152.251 142.286C151.67 142.622 151.047 142.88 150.399 143.054C149.095 143.399 147.725 143.399 146.421 143.054C145.775 142.879 145.154 142.621 144.574 142.286C143.994 141.949 143.46 141.538 142.984 141.065C142.507 140.59 142.095 140.054 141.759 139.471C141.422 138.892 141.164 138.271 140.991 137.624C140.876 137.177 140.799 136.721 140.76 136.261C140.76 136.048 140.733 135.839 140.733 135.621C140.733 134.95 140.82 134.282 140.991 133.633C141.345 132.332 142.03 131.146 142.98 130.191C143.694 129.472 144.542 128.902 145.477 128.512C146.412 128.123 147.415 127.922 148.428 127.921V126.409C145.99 126.409 143.651 127.378 141.927 129.102C140.783 130.241 139.962 131.664 139.548 133.224C139.339 134 139.234 134.8 139.234 135.603C139.234 135.817 139.234 136.03 139.257 136.243C139.3 136.831 139.397 137.413 139.548 137.982C139.75 138.758 140.055 139.503 140.456 140.198C141.258 141.598 142.419 142.76 143.82 143.562C144.515 143.962 145.26 144.268 146.035 144.47C147.595 144.882 149.234 144.882 150.794 144.47C151.571 144.268 152.317 143.962 153.014 143.562C155.123 142.341 156.664 140.335 157.3 137.982C157.505 137.207 157.608 136.409 157.609 135.608L156.092 135.639Z" fill="#FF725E"/>
<path d="M164.846 153.32H105.482C104.423 153.318 103.408 152.897 102.66 152.148C101.912 151.399 101.491 150.383 101.491 149.324V116.004C101.493 114.945 101.913 113.931 102.662 113.183C103.41 112.435 104.424 112.014 105.482 112.013H164.846C165.905 112.013 166.92 112.433 167.669 113.181C168.418 113.93 168.84 114.945 168.841 116.004V149.324C168.84 150.384 168.419 151.399 167.67 152.148C166.921 152.897 165.905 153.318 164.846 153.32ZM105.482 112.467C104.545 112.468 103.646 112.841 102.983 113.504C102.32 114.167 101.947 115.066 101.945 116.004V149.324C101.947 150.262 102.32 151.162 102.982 151.825C103.645 152.489 104.544 152.863 105.482 152.866H164.846C165.785 152.864 166.685 152.491 167.349 151.827C168.012 151.163 168.386 150.263 168.387 149.324V116.004C168.386 115.065 168.012 114.166 167.348 113.502C166.684 112.839 165.784 112.467 164.846 112.467H105.482Z" fill="#E0E0E0"/>
<path d="M135.793 121.365C135.793 121.433 129.586 121.483 121.932 121.483C114.277 121.483 108.07 121.433 108.07 121.365C108.07 121.297 114.277 121.247 121.932 121.247C129.586 121.247 135.793 121.306 135.793 121.365Z" fill="#E0E0E0"/>
<path d="M184.841 75.9085C184.59 75.9085 184.349 75.8091 184.171 75.6322C183.994 75.4552 183.893 75.215 183.892 74.9641V57.23C183.893 56.9791 183.994 56.7389 184.171 56.562C184.349 56.385 184.59 56.2856 184.841 56.2856C185.091 56.2856 185.332 56.3851 185.509 56.5622C185.686 56.7393 185.785 56.9796 185.785 57.23V74.9641C185.785 75.2146 185.686 75.4548 185.509 75.6319C185.332 75.809 185.091 75.9085 184.841 75.9085Z" fill="#E0E0E0"/>
<path d="M184.841 75.9945C184.591 75.9945 184.351 75.8958 184.173 75.7198C183.995 75.5438 183.894 75.3048 183.892 75.0547V63.6179C183.893 63.3666 183.994 63.1259 184.171 62.9482C184.349 62.7705 184.59 62.6701 184.841 62.6689C185.092 62.6701 185.332 62.7707 185.509 62.9485C185.686 63.1263 185.785 63.367 185.785 63.6179V75.0547C185.784 75.3044 185.684 75.5434 185.507 75.7195C185.33 75.8956 185.091 75.9945 184.841 75.9945Z" fill="#FF725E"/>
<path d="M184.246 76.7352V78.3106H184.083V76.8714H183.71V76.7261L184.246 76.7352Z" fill="#263238"/>
<path d="M184.618 77.5198C184.618 77.0204 184.882 76.7207 185.249 76.7207C185.617 76.7207 185.88 77.0204 185.88 77.5198C185.88 78.0192 185.613 78.3234 185.249 78.3234C184.886 78.3234 184.618 78.0237 184.618 77.5198ZM185.712 77.5198C185.712 77.1021 185.522 76.8705 185.258 76.8705C184.995 76.8705 184.804 77.1021 184.804 77.5198C184.804 77.9375 184.991 78.1736 185.258 78.1736C185.526 78.1736 185.712 77.942 185.712 77.5198Z" fill="#263238"/>
<path d="M188.618 75.9085C188.493 75.9103 188.369 75.8872 188.253 75.8406C188.137 75.7939 188.031 75.7246 187.942 75.6368C187.853 75.5489 187.782 75.4442 187.734 75.3287C187.685 75.2132 187.66 75.0893 187.66 74.9641V57.23C187.66 56.9796 187.76 56.7393 187.937 56.5622C188.114 56.3851 188.354 56.2856 188.605 56.2856C188.855 56.2856 189.095 56.3851 189.273 56.5622C189.45 56.7393 189.549 56.9796 189.549 57.23V74.9641C189.549 75.2122 189.451 75.4504 189.277 75.6271C189.103 75.8038 188.866 75.9049 188.618 75.9085Z" fill="#E0E0E0"/>
<path d="M188.618 75.9943C188.494 75.9961 188.37 75.9732 188.254 75.9268C188.138 75.8804 188.032 75.8116 187.943 75.7242C187.854 75.6368 187.783 75.5326 187.735 75.4177C187.686 75.3027 187.661 75.1793 187.66 75.0545V60.0173C187.66 59.7664 187.76 59.5257 187.937 59.3479C188.114 59.1701 188.354 59.0696 188.605 59.0684C188.856 59.0696 189.096 59.1701 189.273 59.3479C189.45 59.5257 189.549 59.7664 189.549 60.0173V75.0545C189.548 75.3018 189.45 75.5388 189.276 75.7146C189.102 75.8903 188.866 75.9908 188.618 75.9943Z" fill="#FF725E"/>
<path d="M188.391 78.1649V78.3102H187.288V78.1967L187.942 77.552C188.119 77.3795 188.155 77.2705 188.155 77.1661C188.155 76.9799 188.024 76.871 187.783 76.871C187.703 76.8659 187.624 76.8787 187.55 76.9086C187.476 76.9385 187.41 76.9846 187.356 77.0435L187.238 76.9436C187.31 76.8686 187.397 76.8099 187.493 76.7715C187.589 76.7331 187.693 76.7159 187.796 76.7211C188.119 76.7211 188.319 76.8846 188.319 77.1479C188.315 77.2439 188.29 77.3379 188.245 77.4228C188.201 77.5077 188.137 77.5814 188.06 77.6383L187.524 78.1649H188.391Z" fill="#263238"/>
<path d="M188.568 77.5198C188.568 77.0204 188.832 76.7207 189.195 76.7207C189.558 76.7207 189.826 77.0204 189.826 77.5198C189.826 78.0192 189.558 78.3234 189.195 78.3234C188.832 78.3234 188.568 78.0237 188.568 77.5198ZM189.658 77.5198C189.658 77.1021 189.472 76.8705 189.204 76.8705C188.936 76.8705 188.75 77.1021 188.75 77.5198C188.75 77.9375 188.941 78.1736 189.204 78.1736C189.467 78.1736 189.676 77.942 189.676 77.5198H189.658Z" fill="#263238"/>
<path d="M192.396 75.9085C192.145 75.9085 191.905 75.809 191.728 75.6319C191.551 75.4548 191.451 75.2146 191.451 74.9641V57.23C191.451 56.9796 191.551 56.7393 191.728 56.5622C191.905 56.3851 192.145 56.2856 192.396 56.2856C192.646 56.2856 192.887 56.3851 193.064 56.5622C193.241 56.7393 193.34 56.9796 193.34 57.23V74.9641C193.34 75.2146 193.241 75.4548 193.064 75.6319C192.887 75.809 192.646 75.9085 192.396 75.9085Z" fill="#E0E0E0"/>
<path d="M192.396 75.9947C192.272 75.9947 192.149 75.9703 192.034 75.9228C191.92 75.8754 191.816 75.8058 191.728 75.7181C191.64 75.6304 191.571 75.5263 191.523 75.4118C191.476 75.2972 191.451 75.1744 191.451 75.0504V66.315C191.451 66.0645 191.551 65.8243 191.728 65.6472C191.905 65.4701 192.145 65.3706 192.396 65.3706C192.646 65.3706 192.887 65.4701 193.064 65.6472C193.241 65.8243 193.34 66.0645 193.34 66.315V75.0549C193.339 75.3046 193.239 75.5436 193.062 75.7197C192.885 75.8959 192.646 75.9947 192.396 75.9947Z" fill="#FF725E"/>
<path d="M192.151 77.8558C192.151 78.1191 191.96 78.3098 191.579 78.3098C191.37 78.3175 191.167 78.2443 191.011 78.1055L191.088 77.9783C191.223 78.0992 191.398 78.1642 191.579 78.16C191.842 78.16 191.983 78.0374 191.983 77.8421C191.983 77.6469 191.851 77.5289 191.56 77.5289H191.447V77.4108L191.901 76.866H191.093V76.7207H192.11V76.8705L191.656 77.4335C191.983 77.429 192.151 77.606 192.151 77.8558Z" fill="#263238"/>
<path d="M192.378 77.5198C192.378 77.0204 192.641 76.7207 193.004 76.7207C193.367 76.7207 193.635 77.0204 193.635 77.5198C193.635 78.0192 193.372 78.3234 193.004 78.3234C192.636 78.3234 192.378 78.0237 192.378 77.5198ZM193.467 77.5198C193.467 77.1021 193.281 76.8705 193.013 76.8705C192.745 76.8705 192.559 77.1021 192.559 77.5198C192.559 77.9375 192.75 78.1736 193.013 78.1736C193.277 78.1736 193.467 77.942 193.467 77.5198Z" fill="#263238"/>
<path d="M196.173 75.9085C195.923 75.9085 195.683 75.809 195.505 75.6319C195.328 75.4548 195.229 75.2146 195.229 74.9641V57.23C195.229 56.9796 195.328 56.7393 195.505 56.5622C195.683 56.3851 195.923 56.2856 196.173 56.2856C196.424 56.2856 196.664 56.3851 196.841 56.5622C197.018 56.7393 197.118 56.9796 197.118 57.23V74.9641C197.118 75.2146 197.018 75.4548 196.841 75.6319C196.664 75.809 196.424 75.9085 196.173 75.9085Z" fill="#E0E0E0"/>
<path d="M196.173 75.9943C196.049 75.9943 195.926 75.9699 195.812 75.9224C195.697 75.875 195.593 75.8054 195.505 75.7177C195.418 75.63 195.348 75.5259 195.301 75.4113C195.253 75.2968 195.229 75.174 195.229 75.05V60.0173C195.229 59.7664 195.328 59.5257 195.505 59.3479C195.682 59.1701 195.922 59.0696 196.173 59.0684C196.424 59.0696 196.664 59.1701 196.841 59.3479C197.018 59.5257 197.118 59.7664 197.118 60.0173V75.0545C197.116 75.3042 197.016 75.5432 196.839 75.7193C196.662 75.8955 196.423 75.9943 196.173 75.9943Z" fill="#FF725E"/>
<path d="M196.182 77.8967H195.869V78.3098H195.706V77.8967H194.798V77.7786L195.633 76.7344H195.815L195.006 77.7514H195.692V77.3882H195.851V77.7514H196.164L196.182 77.8967Z" fill="#263238"/>
<path d="M196.332 77.5198C196.332 77.0204 196.595 76.7207 196.959 76.7207C197.322 76.7207 197.59 77.0204 197.59 77.5198C197.59 78.0192 197.322 78.3234 196.959 78.3234C196.595 78.3234 196.332 78.0237 196.332 77.5198ZM197.422 77.5198C197.422 77.1021 197.231 76.8705 196.968 76.8705C196.704 76.8705 196.514 77.1021 196.514 77.5198C196.514 77.9375 196.7 78.1736 196.968 78.1736C197.236 78.1736 197.422 77.942 197.422 77.5198Z" fill="#263238"/>
<path d="M199.955 75.9085C199.705 75.9073 199.466 75.8074 199.289 75.6306C199.112 75.4537 199.012 75.2142 199.011 74.9641V57.23C199.012 56.9791 199.113 56.7389 199.29 56.562C199.468 56.385 199.709 56.2856 199.96 56.2856C200.21 56.2856 200.451 56.3851 200.628 56.5622C200.805 56.7393 200.904 56.9796 200.904 57.23V74.9641C200.904 75.0885 200.88 75.2117 200.832 75.3266C200.784 75.4414 200.714 75.5457 200.626 75.6335C200.538 75.7213 200.433 75.7907 200.318 75.8379C200.203 75.8851 200.08 75.9091 199.955 75.9085Z" fill="#E0E0E0"/>
<path d="M199.955 75.9946C199.706 75.9934 199.467 75.8941 199.29 75.7183C199.114 75.5424 199.013 75.3041 199.011 75.0547V62.896C199.012 62.6451 199.113 62.405 199.29 62.228C199.468 62.051 199.709 61.9517 199.96 61.9517C200.084 61.9517 200.207 61.9761 200.321 62.0235C200.436 62.071 200.54 62.1406 200.628 62.2283C200.715 62.316 200.785 62.4201 200.832 62.5346C200.88 62.6492 200.904 62.772 200.904 62.896V75.0547C200.904 75.1788 200.879 75.3014 200.831 75.4158C200.783 75.5301 200.713 75.6339 200.624 75.7212C200.536 75.8085 200.432 75.8775 200.317 75.9244C200.202 75.9713 200.079 75.9952 199.955 75.9946Z" fill="#FF725E"/>
<path d="M199.869 77.8465C199.869 78.1144 199.683 78.3005 199.297 78.3005C199.09 78.3089 198.887 78.2356 198.734 78.0962L198.811 77.9691C198.943 78.0909 199.117 78.1561 199.297 78.1507C199.565 78.1507 199.706 78.019 199.706 77.8283C199.706 77.6376 199.578 77.5014 199.179 77.5014H198.843L198.925 76.7114H199.787V76.8703H199.065L199.011 77.3698H199.215C199.687 77.3788 199.869 77.565 199.869 77.8465Z" fill="#263238"/>
<path d="M200.073 77.5198C200.073 77.0204 200.337 76.7207 200.7 76.7207C201.063 76.7207 201.331 77.0204 201.331 77.5198C201.331 78.0192 201.068 78.3234 200.7 78.3234C200.332 78.3234 200.073 78.0237 200.073 77.5198ZM201.168 77.5198C201.168 77.1021 200.977 76.8705 200.714 76.8705C200.45 76.8705 200.26 77.1021 200.26 77.5198C200.26 77.9375 200.45 78.1736 200.714 78.1736C200.977 78.1736 201.168 77.942 201.168 77.5198Z" fill="#263238"/>
<path d="M203.733 75.9085C203.482 75.9085 203.242 75.809 203.065 75.6319C202.888 75.4548 202.788 75.2146 202.788 74.9641V57.23C202.788 56.9796 202.888 56.7393 203.065 56.5622C203.242 56.3851 203.482 56.2856 203.733 56.2856C203.857 56.2856 203.98 56.3101 204.094 56.3575C204.209 56.405 204.313 56.4745 204.401 56.5622C204.488 56.6499 204.558 56.754 204.605 56.8686C204.653 56.9832 204.677 57.106 204.677 57.23V74.9641C204.677 75.0881 204.653 75.2109 204.605 75.3255C204.558 75.4401 204.488 75.5442 204.401 75.6319C204.313 75.7196 204.209 75.7891 204.094 75.8366C203.98 75.8841 203.857 75.9085 203.733 75.9085Z" fill="#E0E0E0"/>
<path d="M203.733 75.9086C203.494 75.9185 203.261 75.834 203.084 75.6734C202.908 75.5128 202.801 75.289 202.788 75.0505V66.3152C202.78 66.185 202.798 66.0545 202.841 65.9315C202.884 65.8085 202.952 65.6956 203.041 65.5996C203.129 65.5037 203.236 65.4267 203.355 65.3733C203.474 65.3199 203.602 65.2912 203.733 65.2891C203.857 65.2891 203.98 65.3135 204.094 65.3609C204.209 65.4084 204.313 65.478 204.401 65.5657C204.488 65.6533 204.558 65.7575 204.605 65.872C204.653 65.9866 204.677 66.1094 204.677 66.2334V74.9643C204.677 75.0883 204.653 75.2111 204.605 75.3257C204.558 75.4402 204.488 75.5444 204.401 75.632C204.313 75.7197 204.209 75.7893 204.094 75.8368C203.98 75.8842 203.857 75.9086 203.733 75.9086Z" fill="#FF725E"/>
<path d="M203.606 77.8381C203.605 77.9061 203.591 77.9733 203.563 78.0354C203.535 78.0976 203.495 78.1532 203.445 78.1989C203.394 78.2446 203.335 78.2793 203.27 78.3008C203.206 78.3224 203.138 78.3302 203.07 78.3239C202.652 78.3239 202.425 78.0333 202.425 77.5339C202.425 77.0345 202.716 76.7212 203.142 76.7212C203.274 76.7142 203.404 76.7441 203.519 76.8075L203.451 76.9346C203.358 76.883 203.253 76.8579 203.147 76.862C202.806 76.862 202.589 77.0799 202.589 77.5067C202.589 77.543 202.589 77.5884 202.589 77.6383C202.633 77.5506 202.702 77.4779 202.788 77.4294C202.874 77.381 202.972 77.3589 203.07 77.3659C203.137 77.3576 203.205 77.3635 203.269 77.3834C203.334 77.4033 203.393 77.4367 203.444 77.4813C203.495 77.526 203.535 77.5809 203.563 77.6424C203.591 77.7039 203.605 77.7706 203.606 77.8381ZM203.447 77.8381C203.447 77.6338 203.297 77.4976 203.052 77.4976C203.001 77.4874 202.949 77.4886 202.898 77.5012C202.848 77.5137 202.801 77.5372 202.761 77.57C202.721 77.6028 202.689 77.644 202.667 77.6908C202.645 77.7376 202.633 77.7886 202.633 77.8404C202.633 77.8921 202.645 77.9432 202.667 77.99C202.689 78.0367 202.721 78.078 202.761 78.1108C202.801 78.1436 202.848 78.1671 202.898 78.1796C202.949 78.1921 203.001 78.1933 203.052 78.1832C203.101 78.1903 203.15 78.1869 203.198 78.1731C203.245 78.1592 203.289 78.1354 203.327 78.1031C203.364 78.0708 203.394 78.0308 203.415 77.9859C203.436 77.941 203.447 77.8921 203.447 77.8426V77.8381Z" fill="#263238"/>
<path d="M203.792 77.5198C203.792 77.0204 204.055 76.7207 204.423 76.7207C204.791 76.7207 205.054 77.0204 205.054 77.5198C205.054 78.0192 204.786 78.3234 204.423 78.3234C204.06 78.3234 203.792 78.0237 203.792 77.5198ZM204.886 77.5198C204.886 77.1021 204.695 76.8705 204.432 76.8705C204.169 76.8705 203.978 77.1021 203.978 77.5198C203.978 77.9375 204.164 78.1736 204.432 78.1736C204.7 78.1736 204.886 77.942 204.886 77.5198Z" fill="#263238"/>
<path d="M207.51 75.9085C207.26 75.9085 207.02 75.809 206.842 75.6319C206.665 75.4548 206.566 75.2146 206.566 74.9641V57.23C206.566 56.9796 206.665 56.7393 206.842 56.5622C207.02 56.3851 207.26 56.2856 207.51 56.2856C207.761 56.2856 208.001 56.3851 208.178 56.5622C208.355 56.7393 208.455 56.9796 208.455 57.23V74.9641C208.455 75.2146 208.355 75.4548 208.178 75.6319C208.001 75.809 207.761 75.9085 207.51 75.9085Z" fill="#E0E0E0"/>
<path d="M207.51 75.9944C207.386 75.9944 207.263 75.9699 207.149 75.9225C207.034 75.875 206.93 75.8054 206.842 75.7178C206.755 75.6301 206.685 75.526 206.638 75.4114C206.59 75.2968 206.566 75.174 206.566 75.05V59.1138C206.566 58.8633 206.665 58.6231 206.842 58.446C207.02 58.2689 207.26 58.1694 207.51 58.1694C207.761 58.1694 208.001 58.2689 208.178 58.446C208.355 58.6231 208.455 58.8633 208.455 59.1138V75.0545C208.453 75.3042 208.353 75.5432 208.176 75.7194C207.999 75.8955 207.76 75.9944 207.51 75.9944Z" fill="#FF725E"/>
<path d="M207.31 76.7344V76.8706L206.647 78.3325H206.475L207.12 76.9024H206.311V77.1929H206.153V76.7389L207.31 76.7344Z" fill="#263238"/>
<path d="M207.478 77.5198C207.478 77.0204 207.742 76.7207 208.105 76.7207C208.468 76.7207 208.736 77.0204 208.736 77.5198C208.736 78.0192 208.468 78.3234 208.105 78.3234C207.742 78.3234 207.478 78.0237 207.478 77.5198ZM208.568 77.5198C208.568 77.1021 208.382 76.8705 208.114 76.8705C207.846 76.8705 207.66 77.1021 207.66 77.5198C207.66 77.9375 207.851 78.1736 208.114 78.1736C208.377 78.1736 208.568 77.942 208.568 77.5198Z" fill="#263238"/>
<path d="M211.27 75.9085C211.025 75.8991 210.795 75.7955 210.625 75.6194C210.456 75.4433 210.361 75.2084 210.362 74.9641V57.23C210.362 57.106 210.386 56.9832 210.433 56.8686C210.481 56.754 210.55 56.6499 210.638 56.5622C210.726 56.4745 210.83 56.405 210.945 56.3575C211.059 56.3101 211.182 56.2856 211.306 56.2856C211.556 56.2856 211.797 56.3851 211.974 56.5622C212.151 56.7393 212.25 56.9796 212.25 57.23V74.9641C212.25 75.0913 212.225 75.2171 212.175 75.3341C212.125 75.4511 212.053 75.5569 211.961 75.6451C211.869 75.7333 211.761 75.802 211.642 75.8473C211.523 75.8926 211.397 75.9134 211.27 75.9085Z" fill="#E0E0E0"/>
<path d="M211.27 75.9945C211.026 75.9851 210.796 75.8821 210.627 75.707C210.458 75.5319 210.363 75.2982 210.362 75.0547V68.1172C210.362 67.9932 210.386 67.8704 210.433 67.7558C210.481 67.6412 210.55 67.5371 210.638 67.4495C210.726 67.3618 210.83 67.2922 210.945 67.2447C211.059 67.1973 211.182 67.1729 211.306 67.1729C211.556 67.1729 211.797 67.2723 211.974 67.4495C212.151 67.6266 212.25 67.8668 212.25 68.1172V75.0547C212.25 75.1814 212.224 75.3068 212.174 75.4233C212.124 75.5397 212.051 75.645 211.959 75.7327C211.868 75.8204 211.76 75.8887 211.641 75.9337C211.523 75.9787 211.396 75.9994 211.27 75.9945Z" fill="#FF725E"/>
<path d="M211.101 77.8694C211.101 78.1509 210.865 78.3234 210.489 78.3234C210.112 78.3234 209.88 78.1509 209.88 77.8694C209.88 77.7802 209.91 77.6934 209.965 77.6234C210.02 77.5533 210.097 77.504 210.184 77.4835C210.111 77.4602 210.048 77.4141 210.003 77.352C209.958 77.2899 209.934 77.2151 209.935 77.1384C209.935 76.8796 210.157 76.7207 210.489 76.7207C210.82 76.7207 211.042 76.8796 211.042 77.1384C211.044 77.2152 211.02 77.2904 210.975 77.3527C210.93 77.4149 210.866 77.4608 210.793 77.4835C210.88 77.5031 210.959 77.552 211.015 77.6222C211.071 77.6923 211.102 77.7795 211.101 77.8694ZM210.933 77.8694C210.933 77.6741 210.765 77.5516 210.479 77.5516C210.193 77.5516 210.025 77.6741 210.025 77.8694C210.025 78.0646 210.189 78.1872 210.479 78.1872C210.77 78.1872 210.933 78.0646 210.933 77.8694ZM210.479 77.4154C210.725 77.4154 210.87 77.3064 210.87 77.1339C210.87 76.9613 210.716 76.8478 210.479 76.8478C210.243 76.8478 210.089 76.9568 210.089 77.1339C210.089 77.3109 210.243 77.4244 210.489 77.4244L210.479 77.4154Z" fill="#263238"/>
<path d="M211.324 77.5198C211.324 77.0204 211.587 76.7207 211.955 76.7207C212.323 76.7207 212.582 77.0204 212.582 77.5198C212.582 78.0192 212.318 78.3234 211.955 78.3234C211.592 78.3234 211.324 78.0237 211.324 77.5198ZM212.418 77.5198C212.418 77.1021 212.227 76.8705 211.964 76.8705C211.701 76.8705 211.51 77.1021 211.51 77.5198C211.51 77.9375 211.701 78.1736 211.964 78.1736C212.227 78.1736 212.418 77.942 212.418 77.5198Z" fill="#263238"/>
<path d="M215.065 75.9085C214.815 75.9085 214.574 75.809 214.397 75.6319C214.22 75.4548 214.121 75.2146 214.121 74.9641V57.23C214.121 56.9796 214.22 56.7393 214.397 56.5622C214.574 56.3851 214.815 56.2856 215.065 56.2856C215.316 56.2856 215.557 56.385 215.734 56.562C215.912 56.7389 216.013 56.9791 216.014 57.23V74.9641C216.013 75.215 215.912 75.4552 215.734 75.6322C215.557 75.8091 215.316 75.9085 215.065 75.9085Z" fill="#E0E0E0"/>
<path d="M215.065 75.9086C214.826 75.9185 214.594 75.834 214.417 75.6734C214.24 75.5127 214.134 75.289 214.121 75.0505V72.6169C214.112 72.4868 214.13 72.3563 214.173 72.2333C214.217 72.1103 214.285 71.9974 214.373 71.9014C214.461 71.8054 214.568 71.7284 214.687 71.675C214.806 71.6216 214.935 71.593 215.065 71.5908C215.316 71.5908 215.557 71.6902 215.734 71.8671C215.912 72.0441 216.013 72.2843 216.014 72.5352V74.9642C216.013 75.2151 215.912 75.4553 215.734 75.6323C215.557 75.8092 215.316 75.9086 215.065 75.9086Z" fill="#FF725E"/>
<path d="M214.784 77.5063C214.784 78.042 214.489 78.3235 214.062 78.3235C213.932 78.3302 213.803 78.3003 213.689 78.2373L213.753 78.1056C213.846 78.1607 213.954 78.1875 214.062 78.1828C214.398 78.1828 214.62 77.9649 214.62 77.5335C214.62 77.4972 214.62 77.4518 214.62 77.4064C214.575 77.4938 214.506 77.5661 214.42 77.6145C214.335 77.6629 214.237 77.6853 214.139 77.6788C214.072 77.6865 214.004 77.6799 213.94 77.6595C213.875 77.639 213.816 77.6051 213.766 77.56C213.716 77.515 213.676 77.4598 213.648 77.3981C213.621 77.3364 213.607 77.2696 213.608 77.2021C213.608 77.1343 213.623 77.0672 213.65 77.0053C213.678 76.9434 213.718 76.888 213.769 76.8427C213.819 76.7973 213.879 76.7631 213.943 76.7421C214.008 76.7211 214.076 76.7139 214.144 76.7208C214.557 76.7208 214.784 77.0114 214.784 77.5063ZM214.561 77.193C214.561 77.0205 214.416 76.857 214.144 76.857C214.095 76.8513 214.046 76.8558 214 76.8702C213.954 76.8847 213.911 76.9088 213.874 76.9409C213.838 76.9731 213.809 77.0126 213.789 77.0568C213.768 77.101 213.758 77.149 213.758 77.1976C213.758 77.4064 213.912 77.5381 214.153 77.5381C214.202 77.5444 214.253 77.5403 214.301 77.5261C214.35 77.5118 214.394 77.4877 214.433 77.4553C214.471 77.4228 214.502 77.3828 214.524 77.3376C214.547 77.2925 214.559 77.2433 214.561 77.193Z" fill="#263238"/>
<path d="M215.015 77.5198C215.015 77.0204 215.279 76.7207 215.646 76.7207C216.014 76.7207 216.273 77.0204 216.273 77.5198C216.273 78.0192 216.009 78.3234 215.646 78.3234C215.283 78.3234 215.015 78.0237 215.015 77.5198ZM216.109 77.5198C216.109 77.1021 215.919 76.8705 215.655 76.8705C215.392 76.8705 215.201 77.1021 215.201 77.5198C215.201 77.9375 215.392 78.1736 215.655 78.1736C215.919 78.1736 216.109 77.942 216.109 77.5198Z" fill="#263238"/>
<path d="M218.847 75.9085C218.597 75.9085 218.356 75.809 218.179 75.6319C218.002 75.4548 217.903 75.2146 217.903 74.9641V57.23C217.903 56.9796 218.002 56.7393 218.179 56.5622C218.356 56.3851 218.597 56.2856 218.847 56.2856C218.971 56.2856 219.094 56.3101 219.208 56.3575C219.323 56.405 219.427 56.4745 219.515 56.5622C219.603 56.6499 219.672 56.754 219.72 56.8686C219.767 56.9832 219.791 57.106 219.791 57.23V74.9641C219.791 75.0881 219.767 75.2109 219.72 75.3255C219.672 75.4401 219.603 75.5442 219.515 75.6319C219.427 75.7196 219.323 75.7891 219.208 75.8366C219.094 75.8841 218.971 75.9085 218.847 75.9085Z" fill="#E0E0E0"/>
<path d="M218.847 75.9086C218.608 75.9185 218.376 75.834 218.199 75.6734C218.022 75.5128 217.916 75.289 217.903 75.0505V66.3152C217.894 66.185 217.912 66.0545 217.955 65.9315C217.999 65.8085 218.067 65.6956 218.155 65.5996C218.243 65.5037 218.35 65.4267 218.469 65.3733C218.588 65.3199 218.717 65.2912 218.847 65.2891C218.971 65.2891 219.094 65.3135 219.209 65.3609C219.323 65.4084 219.427 65.478 219.515 65.5657C219.603 65.6533 219.672 65.7575 219.72 65.872C219.767 65.9866 219.791 66.1094 219.791 66.2334V74.9643C219.791 75.0883 219.767 75.2111 219.72 75.3257C219.672 75.4402 219.603 75.5444 219.515 75.632C219.427 75.7197 219.323 75.7893 219.209 75.8368C219.094 75.8842 218.971 75.9086 218.847 75.9086Z" fill="#FF725E"/>
<path d="M217.49 76.7352V78.3106H217.331V76.8714H216.958V76.7261L217.49 76.7352Z" fill="#263238"/>
<path d="M217.866 77.5198C217.866 77.0204 218.13 76.7207 218.497 76.7207C218.865 76.7207 219.124 77.0204 219.124 77.5198C219.124 78.0192 218.861 78.3234 218.497 78.3234C218.134 78.3234 217.866 78.0237 217.866 77.5198ZM218.961 77.5198C218.961 77.1021 218.77 76.8705 218.507 76.8705C218.243 76.8705 218.053 77.1021 218.053 77.5198C218.053 77.9375 218.243 78.1736 218.507 78.1736C218.77 78.1736 218.961 77.942 218.961 77.5198Z" fill="#263238"/>
<path d="M219.356 77.5198C219.356 77.0204 219.619 76.7207 219.987 76.7207C220.354 76.7207 220.613 77.0204 220.613 77.5198C220.613 78.0192 220.35 78.3234 219.987 78.3234C219.623 78.3234 219.356 78.0237 219.356 77.5198ZM220.45 77.5198C220.45 77.1021 220.259 76.8705 219.996 76.8705C219.732 76.8705 219.542 77.1021 219.542 77.5198C219.542 77.9375 219.732 78.1736 219.996 78.1736C220.259 78.1736 220.45 77.942 220.45 77.5198Z" fill="#263238"/>
<path d="M211.27 47.4232C211.27 47.4868 205.118 47.5413 197.531 47.5413C189.944 47.5413 183.792 47.4868 183.792 47.4232C183.792 47.3597 189.944 47.3052 197.531 47.3052C205.118 47.3052 211.27 47.3597 211.27 47.4232Z" fill="#E0E0E0"/>
<path d="M219.792 88.9115C219.792 88.9751 211.728 89.0295 201.78 89.0295C191.833 89.0295 183.769 88.9751 183.769 88.9115C183.769 88.8479 191.833 88.7935 201.78 88.7935C211.728 88.7935 219.792 88.8434 219.792 88.9115Z" fill="#E0E0E0"/>
<path d="M219.792 95.0995C219.792 95.163 211.728 95.2175 201.78 95.2175C191.833 95.2175 183.769 95.163 183.769 95.0995C183.769 95.0359 191.833 94.9814 201.78 94.9814C211.728 94.9814 219.792 95.0314 219.792 95.0995Z" fill="#E0E0E0"/>
<path d="M219.792 101.288C219.792 101.352 211.728 101.407 201.78 101.407C191.833 101.407 183.769 101.352 183.769 101.288C183.769 101.225 191.833 101.17 201.78 101.17C211.728 101.17 219.792 101.22 219.792 101.288Z" fill="#E0E0E0"/>
<path d="M219.792 107.476C219.792 107.54 211.728 107.594 201.78 107.594C191.833 107.594 183.769 107.54 183.769 107.476C183.769 107.413 191.833 107.358 201.78 107.358C211.728 107.358 219.792 107.408 219.792 107.476Z" fill="#E0E0E0"/>
<path d="M219.792 113.647C219.792 113.71 211.728 113.765 201.78 113.765C191.833 113.765 183.769 113.71 183.769 113.647C183.769 113.583 191.833 113.529 201.78 113.529C211.728 113.529 219.792 113.601 219.792 113.647Z" fill="#E0E0E0"/>
<path d="M218.361 134.727C219.971 134.727 221.515 135.366 222.654 136.503C223.793 137.64 224.434 139.183 224.436 140.793V145.841C224.434 147.45 223.793 148.992 222.655 150.13C221.517 151.267 219.975 151.906 218.366 151.907H184.482C182.874 151.906 181.332 151.267 180.194 150.129C179.057 148.992 178.418 147.45 178.416 145.841V140.793C178.418 139.184 179.057 137.642 180.194 136.505C181.332 135.368 182.874 134.728 184.482 134.727H218.379M218.379 134.273H184.482C182.753 134.273 181.095 134.96 179.872 136.183C178.649 137.405 177.962 139.064 177.962 140.793V145.841C177.962 147.571 178.649 149.229 179.872 150.452C181.095 151.674 182.753 152.361 184.482 152.361H218.379C220.107 152.359 221.763 151.671 222.984 150.448C224.204 149.226 224.89 147.569 224.89 145.841V140.793C224.89 139.936 224.721 139.088 224.393 138.297C224.065 137.505 223.585 136.786 222.979 136.181C222.373 135.575 221.654 135.095 220.862 134.768C220.071 134.441 219.222 134.272 218.366 134.273H218.379Z" fill="#FF725E"/>
<path d="M215.519 143.826C215.519 143.889 209.204 143.944 201.413 143.944C193.622 143.944 187.306 143.889 187.306 143.826C187.306 143.762 193.622 143.708 201.413 143.708C209.204 143.708 215.519 143.762 215.519 143.826Z" fill="#FF725E"/>
<path d="M82.9672 20.2407C86.4632 17.5166 89.5505 14.1296 93.5641 12.2227C100.461 8.94465 108.601 10.6064 115.966 12.6359C123.33 14.6653 131.107 17.0172 138.453 14.906C145.264 12.9764 150.68 6.98781 152.192 0.109375H25.8103C27.4947 14.0842 38.028 25.6027 52.0301 28.0272L52.9064 28.168C58.1925 28.9271 63.5773 28.6166 68.7412 27.2548C73.9051 25.8931 78.7428 23.5079 82.9672 20.2407Z" fill="#FF725E"/>
<path d="M168.732 13.0942C172.292 16.3223 177.481 17.1804 182.253 16.6492C185.467 16.2769 188.732 15.2554 191.052 13.017C193.685 10.4654 194.766 6.50182 194.057 2.90596C193.868 1.95239 193.563 1.02543 193.149 0.145508H166.816C163.924 3.94114 165.182 9.87067 168.732 13.0942Z" fill="#FF725E"/>
<g opacity="0.8">
<path d="M82.9672 20.2407C86.4632 17.5166 89.5505 14.1296 93.5641 12.2227C100.461 8.94465 108.601 10.6064 115.966 12.6359C123.33 14.6653 131.107 17.0172 138.453 14.906C145.264 12.9764 150.68 6.98781 152.192 0.109375H25.8103C27.4947 14.0842 38.028 25.6027 52.0301 28.0272L52.9064 28.168C58.1925 28.9271 63.5773 28.6166 68.7412 27.2548C73.9051 25.8931 78.7428 23.5079 82.9672 20.2407Z" fill="#4B4D52"/>
<path d="M168.732 13.0942C172.292 16.3223 177.481 17.1804 182.253 16.6492C185.467 16.2769 188.732 15.2554 191.052 13.017C193.685 10.4654 194.766 6.50182 194.057 2.90596C193.868 1.95239 193.563 1.02543 193.149 0.145508H166.816C163.924 3.94114 165.182 9.87067 168.732 13.0942Z" fill="#4B4D52"/>
</g>
<path d="M194.77 13.5344C194.77 13.5344 194.843 13.4936 194.979 13.5072C195.174 13.5334 195.353 13.6284 195.483 13.775C195.582 13.8883 195.65 14.025 195.681 14.172C195.712 14.319 195.705 14.4715 195.66 14.615C195.602 14.7925 195.491 14.9479 195.342 15.06C195.193 15.1721 195.012 15.2354 194.826 15.2414C194.639 15.2473 194.455 15.1956 194.299 15.0933C194.143 14.9909 194.022 14.843 193.953 14.6695C193.9 14.5289 193.883 14.377 193.906 14.2283C193.928 14.0796 193.988 13.9392 194.08 13.8204C194.199 13.6638 194.373 13.5571 194.566 13.5208C194.698 13.5208 194.77 13.5208 194.77 13.5208C194.77 13.5208 194.453 13.5526 194.216 13.9067C194.152 14.0044 194.113 14.1165 194.103 14.233C194.093 14.3495 194.111 14.4666 194.157 14.5741C194.212 14.7037 194.305 14.8137 194.423 14.8899C194.541 14.966 194.68 15.0047 194.82 15.0009C194.959 14.9953 195.093 14.9494 195.206 14.8687C195.319 14.7881 195.406 14.6762 195.456 14.5469C195.493 14.4362 195.504 14.318 195.485 14.2026C195.467 14.0871 195.421 13.9778 195.351 13.884C195.198 13.7105 194.995 13.5885 194.77 13.5344Z" fill="#263238"/>
<path d="M194.993 12.5176C194.917 12.3875 194.853 12.2507 194.802 12.109H194.843L194.108 12.2316L194.157 12.1771C194.157 12.3179 194.157 12.4677 194.126 12.6312V12.672H194.085C193.941 12.7331 193.807 12.8141 193.685 12.9126L193.649 12.9399H193.604L193.195 12.7583H193.295L192.841 13.353V13.2395L193.131 13.5801L193.168 13.6255V13.6799C193.109 13.8254 193.071 13.9782 193.054 14.134V14.1975H192.995L192.573 14.3564L192.641 14.2429C192.677 14.4745 192.709 14.7242 192.745 14.983L192.655 14.8967L193.109 14.933H193.177L193.204 14.9966C193.265 15.1373 193.342 15.2699 193.436 15.3916L193.476 15.4461L193.449 15.5097L193.263 15.9183L193.227 15.7775L193.822 16.2315H193.676L194.021 15.941L194.076 15.8956L194.144 15.9228C194.29 15.9812 194.442 16.0208 194.598 16.0409L194.698 16.1135V16.1407V16.1952L194.739 16.2996L194.816 16.5085L194.689 16.4359L195.429 16.336L195.329 16.4404L195.37 15.9864V15.9183L195.433 15.891C195.575 15.8335 195.707 15.7572 195.828 15.664L195.883 15.6186L195.946 15.6504L196.355 15.8365L196.219 15.8729L196.673 15.2826V15.4188L196.387 15.0692L196.346 15.0193V14.9603C196.407 14.8152 196.449 14.6625 196.468 14.5063V14.4427H196.523L196.945 14.2929L196.882 14.3973C196.85 14.1385 196.823 13.8933 196.791 13.6572L196.873 13.7344L196.418 13.689H196.369V13.6436C196.31 13.4998 196.234 13.364 196.142 13.2395L196.11 13.1987L196.132 13.1578L196.323 12.7492V12.8355L195.742 12.3814H195.833L195.479 12.6584H195.456C195.161 12.5267 195.002 12.5176 195.002 12.4995C195.042 12.4878 195.085 12.4878 195.125 12.4995C195.249 12.5127 195.371 12.5417 195.488 12.5857H195.447L195.783 12.2816L195.815 12.2543L195.851 12.2816L196.455 12.7356L196.496 12.7719L196.473 12.8218L196.296 13.235V13.1578C196.403 13.2966 196.49 13.4493 196.555 13.6118L196.487 13.5619L196.941 13.5937H197.009V13.6663C197.041 13.9024 197.077 14.1476 197.113 14.4064V14.4836L197.041 14.5108L196.618 14.6743L196.682 14.588C196.663 14.7597 196.621 14.9278 196.555 15.0874V14.9784L196.845 15.3235L196.9 15.3871L196.85 15.4597C196.7 15.6504 196.55 15.8502 196.396 16.0545L196.341 16.1271L196.26 16.0863L195.846 15.9047H195.964C195.827 16.0148 195.674 16.1036 195.51 16.168L195.583 16.0726C195.583 16.2179 195.569 16.3693 195.542 16.5267V16.6175H195.447L194.707 16.7174H194.616L194.584 16.6265L194.503 16.4177L194.462 16.3133V16.2588V16.2315L194.557 16.3042C194.385 16.283 194.217 16.2387 194.058 16.1725H194.176L193.831 16.4631L193.758 16.5221L193.685 16.4631L193.095 16.0091L193.018 15.9501L193.059 15.8683L193.245 15.4597V15.5778C193.141 15.4374 193.054 15.285 192.986 15.1237L193.081 15.1918L192.627 15.151H192.541V15.0647C192.509 14.8105 192.478 14.5607 192.446 14.3247V14.2429L192.523 14.2157L192.945 14.0613L192.882 14.143C192.904 13.9725 192.95 13.806 193.018 13.6482V13.748L192.732 13.3984L192.655 13.3076L192.7 13.2532L193.154 12.6629L193.195 12.6084L193.254 12.6402L193.663 12.8309H193.581C193.72 12.7276 193.872 12.645 194.035 12.5857L193.994 12.6402C193.994 12.4813 194.026 12.3315 194.044 12.1862V12.1363H194.089L194.829 12.0591H194.861V12.0863C194.919 12.2256 194.963 12.37 194.993 12.5176Z" fill="#263238"/>
<path d="M225.43 161.873H225.558C225.639 161.873 225.766 161.873 225.934 161.841C226.858 161.721 227.708 161.276 228.333 160.587C228.959 159.897 229.319 159.008 229.349 158.077C229.349 157.51 229.349 156.901 229.349 156.261C229.349 151.094 229.349 143.48 229.326 133.674C229.326 114.055 229.326 85.6743 229.285 50.5874C229.285 41.8097 229.285 32.6339 229.285 23.0601C229.285 18.2747 229.285 13.3939 229.285 8.41784V4.68123C229.327 4.06819 229.256 3.45267 229.076 2.86514C228.879 2.27772 228.541 1.74766 228.091 1.32147C227.641 0.893948 227.094 0.582297 226.497 0.413422C225.885 0.272203 225.255 0.220213 224.627 0.259056H220.777H154.943H4.08543C3.26813 0.257899 2.47168 0.51685 1.81134 0.998432C1.151 1.48001 0.661044 2.15924 0.412387 2.93779C0.162674 3.70963 0.258017 4.54957 0.239856 5.38497V37.5116C0.239856 50.542 0.239856 63.3727 0.239856 76.0036C0.239856 101.238 0.239856 125.583 0.239856 148.77C0.239856 151.672 0.239856 154.548 0.239856 157.396C0.230354 157.749 0.244002 158.103 0.280716 158.454C0.352779 158.971 0.529705 159.467 0.800629 159.913C1.07155 160.359 1.43076 160.745 1.85617 161.047C2.41982 161.452 3.08439 161.694 3.77669 161.746C4.46681 161.778 5.1887 161.746 5.8879 161.746H54.5409H111.907L225.412 161.827L111.907 161.909H54.5409H5.86519C5.15692 161.909 4.46226 161.909 3.73583 161.909C3.00525 161.852 2.30384 161.598 1.70635 161.174C1.25839 160.857 0.879919 160.452 0.594166 159.983C0.308414 159.515 0.121412 158.993 0.0446297 158.45C0.00626517 158.089 -0.00739268 157.727 0.00376246 157.364V148.738C0.00376246 125.551 0.00376246 101.206 0.00376246 75.9718V4.12278C0.00486206 3.69381 0.0675531 3.26722 0.189913 2.85606C0.453817 2.03038 0.973466 1.31 1.67373 0.799087C2.37399 0.288172 3.21859 0.0131871 4.08543 0.0138833H154.943H220.777H224.627C225.273 -0.0281518 225.922 0.0253938 226.552 0.17279C227.182 0.34978 227.759 0.677503 228.233 1.12762C228.708 1.57774 229.066 2.13671 229.276 2.75618C229.465 3.36838 229.539 4.01032 229.494 4.64945V8.39968C229.494 13.3697 229.494 18.2504 229.494 23.0419C229.494 32.6127 229.494 41.7885 229.494 50.5693C229.494 85.638 229.467 114.019 229.458 133.655C229.458 143.462 229.458 151.076 229.435 156.243C229.435 156.888 229.435 157.496 229.435 158.059C229.41 158.741 229.21 159.404 228.854 159.986C228.498 160.567 227.997 161.047 227.401 161.378C226.961 161.621 226.479 161.775 225.98 161.832C225.798 161.856 225.614 161.87 225.43 161.873Z" fill="#263238"/>
<path d="M168.764 35.3916H132.833C130.433 35.3916 128.488 37.3369 128.488 39.7366V52.1178C128.488 54.5175 130.433 56.4628 132.833 56.4628H168.764C171.164 56.4628 173.109 54.5175 173.109 52.1178V39.7366C173.109 37.3369 171.164 35.3916 168.764 35.3916Z" fill="#E0E0E0"/>
<path d="M154.676 41.5067C154.676 41.5703 150.362 41.6248 145.041 41.6248C139.72 41.6248 135.402 41.5703 135.402 41.5067C135.402 41.4432 139.716 41.3887 145.041 41.3887C150.367 41.3887 154.676 41.4568 154.676 41.5067Z" fill="#263238"/>
<path d="M120.106 35.5054H84.175C81.7753 35.5054 79.83 37.4507 79.83 39.8504V52.2316C79.83 54.6312 81.7753 56.5766 84.175 56.5766H120.106C122.506 56.5766 124.451 54.6312 124.451 52.2316V39.8504C124.451 37.4507 122.506 35.5054 120.106 35.5054Z" fill="#E0E0E0"/>
<path d="M105.51 42.0653C105.51 42.1289 101.6 42.1834 96.7787 42.1834C91.9569 42.1834 88.0433 42.1289 88.0433 42.0653C88.0433 42.0017 91.9524 41.9473 96.7787 41.9473C101.605 41.9473 105.51 41.9972 105.51 42.0653Z" fill="#263238"/>
<path d="M71.2761 35.5054H35.3448C32.9451 35.5054 30.9998 37.4507 30.9998 39.8504V52.2316C30.9998 54.6312 32.9451 56.5766 35.3448 56.5766H71.2761C73.6758 56.5766 75.6211 54.6312 75.6211 52.2316V39.8504C75.6211 37.4507 73.6758 35.5054 71.2761 35.5054Z" fill="#FF725E"/>
<path d="M54.9041 42.0653C54.9041 42.1289 51.3128 42.1834 46.8815 42.1834C42.4502 42.1834 38.8635 42.1289 38.8635 42.0653C38.8635 42.0017 42.4502 41.9473 46.8815 41.9473C51.3128 41.9473 54.9041 41.9972 54.9041 42.0653Z" fill="#4B4D52"/>
<path d="M10.6687 18.2517C9.63797 18.2517 8.64945 17.8423 7.9206 17.1134C7.19175 16.3846 6.78229 15.396 6.78229 14.3653C6.78229 13.8551 6.88284 13.35 7.07821 12.8787C7.27358 12.4074 7.55992 11.9793 7.92087 11.6188C8.28182 11.2582 8.71029 10.9724 9.18179 10.7776C9.65329 10.5828 10.1586 10.4828 10.6687 10.4834C11.6983 10.4834 12.6856 10.8924 13.4136 11.6204C14.1416 12.3484 14.5506 13.3358 14.5506 14.3653C14.5512 14.8755 14.4512 15.3807 14.2564 15.8522C14.0616 16.3237 13.7758 16.7522 13.4152 17.1131C13.0547 17.4741 12.6266 17.7604 12.1553 17.9558C11.684 18.1512 11.1789 18.2517 10.6687 18.2517Z" fill="#4B4D52"/>
</svg>
