<svg width="91" height="162" viewBox="0 0 91 162" fill="none" xmlns="http://www.w3.org/2000/svg">
<path d="M19.7315 162C19.7315 162 17.5746 158.174 20.6464 142.343C22.41 133.26 30.2179 121.548 30.2179 121.548C30.2179 121.548 67.5975 122.476 67.6306 123.072C67.6637 123.668 79.0692 135.256 80.7252 147.307C82.3812 159.358 82.0583 162 82.0583 162H19.7315Z" fill="#263238"/>
<path d="M49.2408 147.974C49.1828 147.974 48.9013 143.205 48.6115 137.322C48.3217 131.439 48.1395 126.661 48.1975 126.657C48.2555 126.653 48.5411 131.422 48.8268 137.309C49.1124 143.196 49.3029 147.97 49.2408 147.974Z" fill="#455A64"/>
<path d="M52.6025 128.156C51.9235 128.123 51.257 128.815 51.0666 129.398C50.922 129.831 50.9318 130.3 51.0943 130.726C51.2568 131.152 51.5619 131.508 51.9578 131.734C52.3536 131.961 52.8157 132.042 53.2651 131.966C53.7146 131.89 54.1237 131.66 54.4228 131.316C54.7219 130.972 54.8924 130.535 54.9052 130.079C54.9181 129.623 54.7726 129.177 54.4935 128.817C54.2143 128.456 53.8188 128.204 53.3743 128.102C52.9299 128.001 52.464 128.056 52.056 128.26" fill="#455A64"/>
<path d="M39.8509 56.3161L42.3059 50.1062L56.953 49.332L62.9352 50.1062L63.5935 51.8243L67.6548 123.669C67.6548 123.669 53.4672 126.529 46.3713 125.536C39.2755 124.542 30.9418 121.305 30.9418 121.305V80.4478L39.8509 56.3161Z" fill="#E0E0E0"/>
<path d="M61.8968 59.2342C61.8707 59.282 61.8372 59.3253 61.7974 59.3625L61.4786 59.7186C61.1971 60.0291 60.7748 60.472 60.2366 61.0185C58.7265 62.5154 57.124 63.9161 55.4384 65.2123L55.3722 65.2702L55.3101 65.204C53.727 63.4671 52.2584 61.6293 50.9135 59.702L50.4788 59.0686H50.6568L47.1337 63.8088C46.9969 63.9981 46.8322 64.1656 46.6452 64.3056C46.4514 64.453 46.2081 64.5197 45.9663 64.4919C45.74 64.4446 45.5343 64.3273 45.3784 64.1566C45.2321 64.0068 45.0939 63.8492 44.9644 63.6846L43.5775 61.9417L41.5821 59.4246L41.048 58.7333C40.9827 58.6559 40.9245 58.5727 40.8741 58.4849C40.9519 58.5508 41.0214 58.6258 41.0811 58.7084C41.2219 58.874 41.4123 59.0934 41.6442 59.3708L43.6934 61.8548L45.101 63.577C45.3536 63.8792 45.6061 64.2477 45.987 64.3098C46.3678 64.3719 46.7115 64.0407 46.9723 63.6929L50.4747 58.9444L50.5616 58.8243L50.6485 58.9485L51.0832 59.5778C52.4233 61.4971 53.8806 63.3318 55.4467 65.0715H55.3143C56.9997 63.7816 58.6126 62.3995 60.1456 60.9316C60.7086 60.3975 61.1391 59.967 61.4331 59.6896C61.5738 59.553 61.6856 59.4453 61.7725 59.3543C61.8084 59.3089 61.8502 59.2685 61.8968 59.2342Z" fill="#263238"/>
<g opacity="0.3">
<path d="M45.1625 63.7915C45.1625 63.7915 47.0172 66.0768 47.5388 65.5055C48.0605 64.9342 50.8135 60.67 51.1447 60.492C51.4759 60.314 54.7961 66.2879 56.1126 65.8739C57.4291 65.4599 62.07 60.8066 62.07 60.8066L62.1611 58.9727L55.384 65.1412L50.5734 59.0141L46.5245 64.2801C46.5245 64.2801 45.6552 64.9466 45.1625 63.7915Z" fill="black"/>
</g>
<path d="M33.517 15.0151C33.517 15.0151 29.6876 29.3393 29.3564 39.478L29.2446 42.8521C29.2446 42.8521 37.7025 49.89 44.7901 50.304L50.735 35.69L33.517 15.0151Z" fill="#263238"/>
<path d="M71.0667 23.8006C69.4521 16.8123 68.8311 8.68149 63.0186 4.12756C58.709 0.745232 53.7948 -0.198674 48.3218 0.0331626C45.6267 0.144941 42.5839 1.38692 40.2324 2.71584C37.0157 4.53742 35.6536 8.23438 34.097 11.5919C30.9879 18.3193 31.3812 27.4271 33.4885 29.9566L61.5945 44.7983C67.2082 41.8797 70.7231 40.7163 71.6214 33.2355C71.9843 30.0821 71.7966 26.8897 71.0667 23.8006Z" fill="#263238"/>
<path d="M62.7247 9.67961L45.0389 4.45914C39.3382 3.63116 35.2562 10.5242 34.6683 16.2538C34.0183 22.6169 33.4719 30.4124 34.039 35.2023C35.1817 44.8318 42.4721 46.3388 42.4721 46.3388L42.4183 50.2055L50.4746 58.7669L62.7868 50.5367L65.6019 13.211C65.6521 12.3689 65.3843 11.5386 64.8514 10.8846C64.3186 10.2306 63.5596 9.80055 62.7247 9.67961Z" fill="#FFBF9D"/>
<path d="M37.9138 24.9681C37.9019 25.2867 38.0131 25.5977 38.2243 25.8366C38.4355 26.0755 38.7304 26.224 39.0481 26.2515C39.2037 26.2704 39.3615 26.2579 39.5122 26.2148C39.6629 26.1716 39.8034 26.0986 39.9254 26.0002C40.0474 25.9018 40.1484 25.7798 40.2224 25.6417C40.2964 25.5035 40.342 25.3519 40.3563 25.1958C40.3681 24.8771 40.2569 24.5662 40.0458 24.3273C39.8346 24.0883 39.5396 23.9398 39.222 23.9124C39.0664 23.8935 38.9085 23.9059 38.7579 23.9491C38.6072 23.9923 38.4667 24.0652 38.3447 24.1637C38.2227 24.2621 38.1217 24.384 38.0477 24.5222C37.9736 24.6604 37.9281 24.812 37.9138 24.9681Z" fill="#263238"/>
<path d="M35.8397 22.0238C35.9846 22.1894 36.9409 21.5394 38.2657 21.6098C39.5905 21.6801 40.5261 22.3632 40.6751 22.2059C40.7496 22.1397 40.6047 21.8457 40.1949 21.5187C39.6397 21.1006 38.9686 20.8648 38.274 20.8439C37.5869 20.814 36.9082 21.004 36.3365 21.3862C35.9183 21.6636 35.7693 21.9492 35.8397 22.0238Z" fill="#263238"/>
<path d="M49.514 24.9681C49.5022 25.2867 49.6134 25.5977 49.8245 25.8366C50.0357 26.0755 50.3307 26.224 50.6483 26.2515C50.804 26.271 50.9621 26.2589 51.113 26.216C51.2639 26.1731 51.4047 26.1002 51.5268 26.0016C51.6489 25.9031 51.7499 25.7809 51.8237 25.6425C51.8976 25.504 51.9427 25.3521 51.9566 25.1958C51.9684 24.8771 51.8572 24.5662 51.646 24.3273C51.4348 24.0883 51.1399 23.9398 50.8222 23.9124C50.6666 23.8935 50.5088 23.9059 50.3581 23.9491C50.2074 23.9923 50.0669 24.0652 49.9449 24.1637C49.8229 24.2621 49.7219 24.384 49.6479 24.5222C49.5739 24.6604 49.5284 24.812 49.514 24.9681Z" fill="#263238"/>
<path d="M48.8351 22.1987C48.98 22.3685 49.9363 21.7143 51.257 21.7847C52.5776 21.8551 53.5215 22.5382 53.6706 22.3809C53.7451 22.3105 53.6002 22.0166 53.1903 21.6936C52.634 21.2742 51.9616 21.0371 51.2653 21.0147C50.5786 20.988 49.9008 21.1777 49.3278 21.557C48.9138 21.822 48.7606 22.1035 48.8351 22.1987Z" fill="#263238"/>
<path d="M43.6886 30.7438C43.6886 30.6693 42.8814 30.4954 41.5566 30.2718C41.2212 30.2263 40.9066 30.1435 40.8569 29.9117C40.8429 29.5626 40.9353 29.2175 41.1219 28.9222L42.219 26.3927C43.7507 22.791 44.8727 19.8226 44.7236 19.7688C44.5746 19.715 43.2208 22.5757 41.6932 26.1816L40.6375 28.7276C40.4076 29.1255 40.3269 29.5922 40.4098 30.0441C40.4529 30.1653 40.5235 30.2748 40.6162 30.3639C40.7089 30.453 40.8211 30.5193 40.9439 30.5575C41.1291 30.6161 41.3211 30.6508 41.5152 30.661C42.8482 30.781 43.6804 30.8183 43.6886 30.7438Z" fill="#263238"/>
<path d="M42.4308 46.3384C46.9338 46.5909 51.4185 45.5876 55.3847 43.4404C55.3847 43.4404 51.9527 50.0147 42.4101 48.7396L42.4308 46.3384Z" fill="#FF9A6C"/>
<path d="M47.9742 33.6793C47.8106 33.4078 47.5826 33.1807 47.3104 33.0183C47.0381 32.8558 46.7301 32.7629 46.4134 32.7478C45.9705 32.6993 45.5227 32.7696 45.116 32.9515C44.7092 33.1334 44.3583 33.4203 44.0992 33.7828C43.9145 34.1247 43.8629 34.5229 43.9543 34.9006C44.033 35.091 43.9543 34.9958 44.1116 35.1324C44.5871 35.6597 45.1839 36.0633 45.8504 36.3082C46.2111 36.4129 46.5949 36.407 46.9521 36.2911C47.3094 36.1752 47.6236 35.9547 47.8541 35.6582C48.053 35.3708 48.1694 35.0344 48.1906 34.6855C48.2117 34.3367 48.1369 33.9887 47.9742 33.6793Z" fill="#FF9A6C"/>
<path d="M47.7751 31.8699C47.564 31.8451 47.4936 33.2817 46.2226 34.2421C44.9516 35.2026 43.4323 34.979 43.4116 35.1778C43.3868 35.2647 43.7387 35.4717 44.3803 35.5172C45.2194 35.5665 46.0489 35.3188 46.7236 34.8176C47.3728 34.3362 47.8081 33.6201 47.9366 32.8221C48.0193 32.226 47.8827 31.8658 47.7751 31.8699Z" fill="#263238"/>
<path d="M48.3341 17.3473C48.4294 17.7158 49.7583 17.6744 51.2859 18.0097C52.8136 18.345 54.0183 18.8874 54.2543 18.5893C54.3619 18.4444 54.1756 18.0842 53.7078 17.6909C53.0765 17.2015 52.3423 16.8619 51.5606 16.6976C50.7789 16.5334 49.9701 16.5489 49.1953 16.7429C48.6074 16.9168 48.2969 17.1693 48.3341 17.3473Z" fill="#263238"/>
<path d="M35.9516 18.473C36.2497 18.7338 37.1936 18.2784 38.4356 18.088C39.6776 17.8975 40.7001 17.9638 40.8947 17.6201C40.9734 17.4545 40.7705 17.1813 40.282 16.9619C39.6235 16.7059 38.9067 16.6385 38.2121 16.7673C37.5005 16.8685 36.8334 17.1733 36.2911 17.645C35.9102 18.0134 35.815 18.3405 35.9516 18.473Z" fill="#263238"/>
<path d="M44.9845 3.42822C44.9845 3.4986 44.9556 3.56484 44.939 3.63522H44.9721L44.9845 3.42822Z" fill="#263238"/>
<path d="M58.9533 49.7533C58.7378 49.8139 58.5121 49.8287 58.2906 49.7965C58.0691 49.7643 57.8568 49.686 57.6675 49.5666C57.4782 49.4471 57.3161 49.2893 57.1917 49.1032C57.0673 48.9171 56.9834 48.707 56.9454 48.4865C56.6414 46.5593 56.6247 44.5978 56.8957 42.6657C57.2062 40.0079 59.0112 37.2258 59.2348 34.5556C59.6488 29.4676 59.2141 26.6152 58.6469 22.3469C56.2499 22.0488 54.0143 20.6122 52.437 18.7493C50.5161 16.5137 49.3569 13.7399 48.2267 11.0159C48.2966 13.7106 49.2071 16.316 50.8307 18.4678C50.2921 18.5509 49.7415 18.5065 49.2231 18.3383C48.7047 18.17 48.233 17.8826 47.8458 17.499C47.0789 16.7243 46.4824 15.7979 46.0946 14.7791C45.0596 12.3532 44.4841 9.75621 44.3973 7.12018C44.0372 10.8919 44.46 14.6973 45.6392 18.298C44.9686 18.091 44.2482 18.2773 43.5693 18.3767C42.8903 18.476 42.0789 18.4595 41.5862 17.9627C41.2884 17.5959 41.1004 17.1525 41.0439 16.6834C40.385 13.478 40.2786 10.1835 40.7293 6.94217C39.8217 8.65966 39.0854 10.4623 38.531 12.3241C37.9814 14.2038 37.9671 16.1995 38.4896 18.0869C38.4124 18.1664 38.32 18.2296 38.218 18.2727C38.1159 18.3159 38.0063 18.3381 37.8955 18.3381C37.7847 18.3381 37.675 18.3159 37.573 18.2727C37.4709 18.2296 37.3786 18.1664 37.3014 18.0869C36.999 17.7562 36.8167 17.3332 36.7839 16.8863C36.5314 15.2759 36.8129 13.6364 37.0985 12.0343C36.1422 13.7317 35.8234 15.7023 35.2935 17.5735C34.7636 19.4448 33.9191 21.374 32.2921 22.4421C32.0171 19.9939 32.098 17.5187 32.5322 15.0937C32.851 13.0858 33.8032 11.0945 34.685 9.26467C35.6193 7.23758 36.9364 5.41011 38.5641 3.88275C41.3875 1.39879 42.5674 2.47517 44.36 3.41494L44.5711 3.50602C44.5711 3.46048 44.5711 3.41494 44.5711 3.37354L44.6498 2.98852C49.367 1.93364 54.2808 2.16382 58.8788 3.65505C62.2735 4.76042 62.6047 12.0716 63.4327 8.59814C63.9336 6.49505 66.6577 8.41598 66.6908 8.47394C70.6941 15.6981 74.9417 27.1575 75.1363 45.2656L58.9533 49.7533Z" fill="#263238"/>
<g opacity="0.3">
<path d="M35.3717 96.9702C32.805 113.806 30.2396 130.642 27.6756 147.477L28.2717 152.95C28.9465 153.72 30.292 153.464 30.9793 152.702C31.6665 151.94 31.8693 150.876 32.0391 149.866C34.9702 132.4 36.5516 114.635 35.3717 96.9702Z" fill="black"/>
</g>
<path d="M35.1317 54.4316L26.4378 56.1289C24.5843 56.5141 22.8684 57.3907 21.47 58.6667C20.0715 59.9428 19.042 61.5715 18.4891 63.3821C18.2149 64.2773 18.0169 65.1941 17.8971 66.1227C17.1395 71.9932 13.5502 87.8657 13.5502 87.8657C13.5502 87.8657 5.54767 91.6703 5.19991 94.9326C4.85216 98.1948 7.96953 104.115 7.96953 104.115C7.96953 104.115 11.4264 113.198 16.0134 115.094C21.0476 117.164 24.55 110.909 24.55 110.909C24.5831 111.48 24.6038 111.799 24.6038 111.799L11.4264 141.606C14.7797 147.588 21.0766 154.593 27.4728 156.117C27.4728 156.117 34.8957 109.795 35.3138 99.6769C35.732 89.5589 42.2275 50.2378 42.2275 50.2378L35.1317 54.4316Z" fill="#00ABC8"/>
<path d="M4.64109 61.2508C4.64109 61.2508 3.25007 60.6961 2.86091 61.8594C2.60838 62.6129 2.09916 64.6042 1.76797 65.9083C1.67327 66.2862 1.66124 66.68 1.73269 67.063C1.80414 67.4459 1.95738 67.809 2.18196 68.1273L3.24179 69.6094C2.8734 70.5476 2.81537 71.5792 3.07619 72.5529C3.07619 72.5529 1.44092 74.2089 1.64791 75.6744C1.64791 75.6744 -0.446896 77.0075 0.0871556 79.2265C0.621208 81.4455 6.82697 88.1687 6.82697 88.1687L10.793 89.4107L15.8976 85.5399C15.8976 85.5399 17.0526 79.33 16.8456 76.6556C16.5972 73.443 15.3966 73.1242 15.3966 73.1242L10.0561 68.0983L8.15175 65.3908C8.15175 65.3908 6.35917 65.6723 6.68208 67.9865L5.08406 66.8563L4.67006 64.9437C4.67006 64.9437 5.84581 62.5508 4.64109 61.2508Z" fill="#FFBF9D"/>
<path d="M0.273335 50.2514C0.59625 50.4336 6.8103 68.4879 6.8103 68.4879L8.31723 69.2413L1.63123 49.854L0.273335 50.2514Z" fill="#263238"/>
<path d="M6.10264 71.9559C6.16961 71.9852 6.23343 72.0213 6.29309 72.0636L6.81471 72.3989L8.72323 73.6409C9.13722 73.8976 9.55122 74.1832 10.0604 74.4689C10.3006 74.6138 10.5531 74.7545 10.818 74.8829C11.0759 75.0277 11.3555 75.1297 11.646 75.1851C11.786 75.2041 11.9285 75.187 12.06 75.1354C12.1882 75.0719 12.2895 74.9647 12.3457 74.8332C12.4641 74.5297 12.5245 74.2067 12.5237 73.881C12.5429 73.7173 12.5429 73.552 12.5237 73.3883C12.476 73.2307 12.4018 73.0823 12.3043 72.9495C12.0998 72.6593 11.8653 72.3915 11.6046 72.1505C10.594 71.2204 9.50684 70.3771 8.35477 69.6293C7.4342 68.9905 6.46529 68.4244 5.45682 67.936C5.26664 67.8603 5.05855 67.8416 4.85789 67.882C4.65722 67.9224 4.47264 68.0203 4.32661 68.1637C4.08269 68.3745 3.86948 68.6183 3.6932 68.8882C3.39098 69.3312 3.27921 69.6044 3.25437 69.5962C3.27024 69.5256 3.29529 69.4574 3.32889 69.3933C3.41416 69.2033 3.51237 69.0193 3.62282 68.8427C3.79162 68.5563 4.00234 68.2967 4.24796 68.0727C4.40391 67.9268 4.59067 67.8178 4.79443 67.7539C5.03033 67.6807 5.28473 67.6954 5.51063 67.7953C6.54129 68.2621 7.53019 68.8161 8.46656 69.4513C9.64266 70.1956 10.7509 71.042 11.7785 71.9808C12.0468 72.2321 12.2895 72.5095 12.503 72.8087C12.6151 72.9626 12.6992 73.1349 12.7514 73.318C12.7804 73.5 12.7874 73.6849 12.7721 73.8686C12.7708 74.2233 12.7019 74.5746 12.5692 74.9036C12.4934 75.0825 12.3571 75.229 12.1842 75.3176C12.0158 75.3834 11.833 75.4034 11.6543 75.3755C11.3385 75.3182 11.0347 75.2076 10.7559 75.0485C10.4868 74.9036 10.2343 74.7545 9.99005 74.6055C9.50568 74.3115 9.06684 74.0176 8.66526 73.7527C7.86626 73.2186 7.22871 72.7674 6.78987 72.4527L6.29309 72.0843C6.15647 72.0139 6.0985 71.9642 6.10264 71.9559Z" fill="#FF9A6C"/>
<path d="M3.29174 75.2812C3.41037 75.2433 3.53237 75.217 3.65606 75.2025L4.69518 75.0286L6.35115 76.2292C7.0301 76.9413 7.84154 77.7817 8.77717 78.6594C9.01314 78.8788 9.2574 79.1023 9.51407 79.3135C9.75099 79.5388 10.0333 79.711 10.3421 79.8185C10.4974 79.8542 10.6599 79.8416 10.8079 79.7824C10.9558 79.7233 11.0822 79.6203 11.17 79.4873C11.3746 79.2044 11.508 78.8764 11.5592 78.531C11.5713 78.363 11.5276 78.1957 11.435 78.0549C11.3507 77.8921 11.2567 77.7345 11.1535 77.583C10.9506 77.2766 10.7395 76.9827 10.5077 76.7012C10.0605 76.1381 9.60101 75.6165 9.15803 75.1238C8.37747 74.2505 7.53933 73.4303 6.64923 72.6689C6.31604 72.375 5.91926 72.1625 5.49005 72.0479C5.16641 71.9686 4.82839 71.9686 4.50475 72.0479C4.22657 72.1236 3.96139 72.2408 3.71816 72.3956C3.76678 72.336 3.82566 72.2855 3.89204 72.2466C4.0731 72.1244 4.27118 72.0295 4.47991 71.9651C4.81546 71.8624 5.17161 71.8467 5.51489 71.9195C5.97304 72.0207 6.39945 72.2324 6.75687 72.5364C7.66805 73.2872 8.52315 74.1035 9.31535 74.9789C9.76661 75.4675 10.2303 75.9891 10.6857 76.5604C10.9092 76.8419 11.1328 77.1359 11.3439 77.4505C11.4474 77.612 11.5509 77.7693 11.642 77.9473C11.7563 78.1285 11.8072 78.3426 11.7869 78.5559C11.7333 78.934 11.5915 79.2942 11.3729 79.6074C11.2531 79.7658 11.095 79.8912 10.9134 79.9717C10.7286 80.049 10.5235 80.0636 10.3296 80.0131C9.98799 79.8969 9.67576 79.7076 9.41471 79.4584C9.15389 79.2431 8.90964 79.0154 8.67367 78.796C7.73804 77.9017 6.93489 77.0531 6.26836 76.312L4.64136 75.07H4.67862L3.63536 75.1942C3.52347 75.2328 3.40853 75.2619 3.29174 75.2812Z" fill="#FF9A6C"/>
<path d="M9.79539 79.5193C9.77986 79.6422 9.74639 79.7621 9.69604 79.8753C9.65353 80.0169 9.60096 80.1553 9.53872 80.2893C9.48495 80.3793 9.41298 80.4571 9.32744 80.5177C9.2419 80.5783 9.14465 80.6204 9.04192 80.6412C8.53433 80.7169 8.01688 80.6929 7.51843 80.5708C6.92919 80.3813 6.36272 80.1273 5.82934 79.8132C5.15039 79.4365 4.52939 79.0556 3.99948 78.7079H4.11954L3.99948 78.8238C3.87379 78.9721 3.70413 79.0765 3.51511 79.1219C3.36271 79.1708 3.2061 79.2054 3.04729 79.2254C2.79323 79.2569 2.53741 79.2721 2.28141 79.2709C2.05949 79.2933 1.83533 79.2693 1.62315 79.2005C1.67947 79.1929 1.73657 79.1929 1.79289 79.2005L2.28141 79.1757C2.48841 79.1757 2.74094 79.1343 3.02245 79.0846C3.17126 79.0581 3.31793 79.0207 3.46129 78.9728C3.60964 78.9332 3.74247 78.8495 3.84216 78.7327L3.96222 78.6085L4.0119 78.5547L4.08228 78.5961C4.61633 78.9273 5.24146 79.2999 5.91213 79.6725C6.42919 79.9777 6.97566 80.2301 7.54327 80.4259C8.01265 80.5507 8.50041 80.5913 8.98397 80.546C9.06733 80.5307 9.14682 80.499 9.21788 80.4529C9.28893 80.4067 9.35015 80.3469 9.39796 80.2769C9.47662 80.1444 9.5263 79.9995 9.58012 79.896C9.6302 79.7592 9.70297 79.6319 9.79539 79.5193Z" fill="#FF9A6C"/>
<path d="M16.0753 83.8838L7.19097 88.2556L7.60497 96.5768C7.60497 96.5768 13.9639 97.4048 19.6108 90.2303L16.0753 83.8838Z" fill="#FFBF9D"/>
<path d="M11.406 141.603C11.4223 141.55 11.4417 141.499 11.464 141.449L11.6503 141.006L12.3789 139.313L15.1196 133.033C17.471 127.688 20.754 120.236 24.4882 111.758V111.803C24.422 109.522 24.3351 107.142 24.2233 104.716C23.9666 99.2428 23.6685 94.0306 23.4698 89.2904C23.2711 84.5501 23.1469 80.2695 23.1096 76.6801C23.0724 73.0908 23.1096 70.1804 23.1096 68.1725L23.1635 65.8625C23.1635 65.6058 23.1635 65.4071 23.1635 65.2622C23.1635 65.1173 23.1635 65.0552 23.1635 65.0552C23.1671 65.1241 23.1671 65.1932 23.1635 65.2622C23.1635 65.4071 23.1635 65.6058 23.1635 65.8625C23.1635 66.4007 23.1635 67.179 23.1635 68.1767C23.1635 70.1846 23.1635 73.0867 23.2131 76.676C23.2628 80.2653 23.4036 84.5419 23.6271 89.278C23.8507 94.014 24.1239 99.2345 24.3972 104.708C24.5089 107.134 24.5917 109.514 24.6621 111.799V111.82V111.845L15.2313 133.087C14.0597 135.74 13.1075 137.868 12.4452 139.359L11.6834 141.015C11.6006 141.201 11.5302 141.342 11.4847 141.449C11.4619 141.502 11.4356 141.553 11.406 141.603Z" fill="#263238"/>
<path d="M34.8212 94.6482C34.8033 94.6145 34.7908 94.5782 34.7839 94.5406L34.7052 94.2177C34.6349 93.9196 34.5396 93.5015 34.4154 92.9757C34.1919 91.891 33.869 90.3137 33.5874 88.3514C33.3059 86.3891 32.9996 84.0417 32.7595 81.4294C32.5193 78.8171 32.3455 75.9357 32.2047 72.9094C32.155 71.7834 32.1053 70.6739 32.0557 69.5975C32.0308 69.0551 32.0101 68.5211 31.9853 67.9953L31.948 67.2087V66.8196V66.6209C31.948 66.5877 31.948 66.5505 31.948 66.5132V66.4428C31.9553 66.4275 31.9651 66.4135 31.977 66.4014C31.9921 66.3868 32.0106 66.3762 32.0308 66.3704C32.0511 66.3646 32.0724 66.3639 32.0929 66.3683C32.1674 66.4097 32.1468 66.4139 32.1675 66.4346L32.0184 66.4014L34.3451 64.7786V64.9483L31.8197 63.7643L31.7493 63.7312L31.77 63.6608C32.1509 62.2242 32.598 60.9491 33.012 59.8189C33.426 58.6887 33.7862 57.7158 34.0967 56.921C34.4072 56.1261 34.6597 55.501 34.8336 55.0787C34.9205 54.88 34.9867 54.7185 35.0364 54.5985C35.059 54.5429 35.0852 54.489 35.1151 54.437C35.1071 54.4958 35.0904 54.553 35.0654 54.6068L34.8832 55.0994L34.2209 56.9748C33.9269 57.7779 33.5709 58.7591 33.1776 59.8728C32.7843 60.9864 32.3496 62.2822 31.9811 63.7063L31.9315 63.6028L34.4651 64.7744L34.6183 64.8448L34.4817 64.9442L32.1633 66.5753L32.0143 66.5422C32.0143 66.5422 32.0888 66.4884 32.0805 66.4884C32.0932 66.5005 32.1089 66.5091 32.126 66.5132H32.1592V66.6002V66.7864V67.1715C32.1592 67.4323 32.184 67.6931 32.2006 67.9539C32.2254 68.4838 32.2461 69.0179 32.2709 69.5602C32.3206 70.6407 32.3744 71.7502 32.4241 72.8722C32.5649 75.8943 32.7429 78.7716 32.9623 81.3839C33.1817 83.9962 33.455 86.3518 33.7323 88.3017C34.0097 90.2516 34.3037 91.8414 34.5024 92.9302C34.61 93.4656 34.6928 93.8796 34.7508 94.1721L34.8087 94.4992C34.817 94.6234 34.8212 94.6482 34.8212 94.6482Z" fill="#263238"/>
<path d="M23.5236 90.9218C23.4864 90.9218 23.4698 90.5492 23.267 89.9903C23.0098 89.2629 22.5331 88.6332 21.9028 88.1883C21.2725 87.7434 20.5196 87.5051 19.748 87.5063C19.156 87.5063 18.7958 87.6181 18.7875 87.5809C19.0838 87.4307 19.4118 87.354 19.7439 87.3573C20.5556 87.3095 21.3596 87.5375 22.0255 88.0042C22.6913 88.4708 23.1799 89.1489 23.4119 89.9282C23.5309 90.245 23.5693 90.5865 23.5236 90.9218Z" fill="#263238"/>
<path d="M20.4227 88.876C20.3352 89.0879 20.2314 89.2928 20.1122 89.4887C19.9904 89.7285 19.8521 89.9595 19.6982 90.1801C19.5161 90.4368 19.3298 90.7473 19.0731 91.0495C18.9489 91.2026 18.8164 91.3641 18.6839 91.5338C18.5515 91.7036 18.3817 91.8568 18.2244 92.0306C17.8836 92.3926 17.5244 92.7367 17.148 93.0615C15.4113 94.5518 13.3543 95.6214 11.1368 96.1871C10.6541 96.3112 10.1649 96.408 9.67129 96.4769C9.4436 96.5101 9.22003 96.5515 9.00476 96.568L8.38376 96.6094C8.02664 96.6299 7.66864 96.6299 7.31152 96.6094C7.04295 96.6124 6.77452 96.5958 6.50837 96.5597C6.27977 96.5448 6.05273 96.5116 5.82943 96.4604C5.82943 96.4066 6.80645 96.5597 8.37135 96.4604L8.98406 96.4065C9.19934 96.3858 9.41876 96.3403 9.64645 96.3072C10.1018 96.2451 10.5821 96.1167 11.083 96.0008C13.2646 95.4197 15.2915 94.3653 17.0197 92.9124C17.3955 92.5972 17.7547 92.2628 18.0961 91.9106C18.2534 91.7408 18.419 91.5918 18.5556 91.4262C18.6922 91.2606 18.8288 91.1074 18.9696 90.9584C19.9425 89.733 20.3772 88.8512 20.4227 88.876Z" fill="#263238"/>
<path d="M10.7476 79.8799C10.8138 79.8799 10.7848 80.7286 11.0705 81.718C11.3561 82.7075 11.8198 83.4195 11.7619 83.4568C11.3449 82.969 11.0384 82.3967 10.8633 81.7793C10.6882 81.1619 10.6488 80.514 10.7476 79.8799Z" fill="#FF9A6C"/>
<path d="M11.0373 75.1899C11.0952 75.2106 11.0124 75.5625 10.9545 76.0179C10.8965 76.4733 10.8841 76.8128 10.822 76.8169C10.7599 76.8211 10.6771 76.4526 10.7392 75.9889C10.8013 75.5253 10.971 75.1899 11.0373 75.1899Z" fill="#FF9A6C"/>
<path d="M75.6206 116.866L84.0537 60.1114L68.4875 54.4066C68.4875 54.4066 64.8402 51.0532 62.8986 49.3145L62.2155 58.0911C62.2155 58.0911 60.0917 93.972 63.4078 112.035C66.7239 130.097 66.2519 129.493 68.6779 141.25C70.4416 149.803 70.7479 157.276 73.3892 158.029C76.0305 158.783 85.2418 145.315 85.2418 145.315L75.6206 116.866Z" fill="#00ABC8"/>
<path d="M84.0372 60.1118C84.0372 60.1118 88.7567 62.426 89.4605 69.0168C90.0856 74.8127 91.1165 110.416 90.9799 113.277C90.8432 116.138 88.3758 124.26 83.942 124.542C76.9248 124.989 74.9955 119.574 74.9955 119.574L76.8627 101.395L84.0372 60.1118Z" fill="#00ABC8"/>
<path d="M66.1852 92.7396V92.632C66.1852 92.5492 66.2183 92.4498 66.2431 92.3215C66.3011 92.0358 66.3798 91.6384 66.4791 91.1374C66.6654 90.1025 66.9511 88.6079 67.216 86.7491C67.7708 83.0232 68.2427 77.8607 68.516 72.1351C68.5822 70.7855 68.6443 69.4649 68.7023 68.1898C68.7313 67.5522 68.7602 66.9229 68.7892 66.3102C68.7892 66.0039 68.8223 65.6975 68.8347 65.3994C68.8347 65.2504 68.8347 65.1014 68.8554 64.9523V64.7329C68.8577 64.6998 68.8577 64.6666 68.8554 64.6336C68.8566 64.6225 68.8566 64.6114 68.8554 64.6004C68.8635 64.6084 68.8733 64.6144 68.8841 64.618C68.8949 64.6216 68.9063 64.6226 68.9175 64.6211C68.9424 64.6211 68.9838 64.5922 68.9755 64.5963L68.8306 64.6253L66.5122 62.9941L66.3798 62.8989L66.5247 62.8327L69.0624 61.6652L69.0169 61.7604C68.7898 60.7423 68.617 59.7127 68.4994 58.6762C68.3835 57.7613 68.2676 56.9747 68.1434 56.3413C68.0192 55.7078 67.8826 55.2152 67.7832 54.8881C67.7335 54.735 67.6921 54.6149 67.6631 54.5155C67.6452 54.4746 67.6327 54.4314 67.6259 54.3872C67.6509 54.4242 67.6705 54.4646 67.6838 54.5073C67.717 54.5901 67.7708 54.7101 67.8287 54.8716C67.9961 55.3457 68.1344 55.8296 68.2427 56.3206C68.3793 56.9581 68.5077 57.7447 68.6567 58.6555C68.8058 59.5663 68.9258 60.6054 69.1991 61.719V61.7853L69.137 61.8143L66.6116 63.0024V62.841L68.9382 64.4638L68.7934 64.4928V64.4638C68.8142 64.4423 68.8422 64.4291 68.872 64.4266C68.9004 64.4245 68.9286 64.4334 68.9507 64.4514L68.9714 64.4762C68.9736 64.4886 68.9736 64.5012 68.9714 64.5135C68.9736 64.5383 68.9736 64.5632 68.9714 64.588C68.9714 64.6336 68.9714 64.6708 68.9714 64.7081V64.9358V65.387C68.9714 65.6892 68.9382 65.9915 68.9258 66.2978C68.8968 66.9147 68.872 67.5398 68.843 68.1773C68.7851 69.4552 68.7243 70.7703 68.6609 72.1227C68.4618 77.0201 68.0058 81.9037 67.2947 86.7532C67.0132 88.6121 66.7027 90.1025 66.4915 91.1333C66.3715 91.6301 66.2804 92.0275 66.2142 92.3132L66.1396 92.6154C66.1621 92.6538 66.1775 92.6958 66.1852 92.7396Z" fill="#263238"/>
<g opacity="0.3">
<path d="M43.2957 121.991C43.2957 121.991 42.2317 123.374 44.5708 123.796C46.9098 124.219 73.3889 122.265 73.3889 122.265L78.423 125.187L77.7648 123.076L73.5503 118.597L43.2957 121.991Z" fill="black"/>
</g>
<path d="M75.1198 77.9467L41.7767 79.6482C41.3981 79.6671 41.04 79.8257 40.7716 80.0934C40.5032 80.361 40.3436 80.7186 40.3236 81.0972L38.1087 120.646C38.0968 120.861 38.1303 121.077 38.2072 121.278C38.2841 121.48 38.4025 121.663 38.5548 121.816C38.7071 121.968 38.8899 122.087 39.0912 122.165C39.2925 122.242 39.5079 122.276 39.7233 122.265L72.0728 120.571C72.4439 120.553 72.7956 120.399 73.0622 120.14C73.3288 119.881 73.4921 119.534 73.5217 119.164L76.7261 79.6026C76.7434 79.385 76.7141 79.1662 76.6402 78.9608C76.5663 78.7554 76.4494 78.5681 76.2974 78.4113C76.1454 78.2546 75.9618 78.1321 75.7587 78.052C75.5556 77.9719 75.3378 77.936 75.1198 77.9467Z" fill="#263238"/>
<path d="M82.1162 69.2773C82.1054 69.397 82.0874 69.5159 82.0624 69.6334C82.0127 69.8859 81.9465 70.2213 81.8678 70.6435L81.135 74.3695C80.5265 77.5034 79.7316 81.8214 78.9699 86.6527C78.2081 91.484 77.6285 95.835 77.2435 99.0021C77.0531 100.575 76.8999 101.85 76.7922 102.757C76.7384 103.171 76.697 103.527 76.668 103.78C76.6573 103.898 76.6379 104.016 76.6101 104.131C76.5991 104.013 76.5991 103.894 76.6101 103.775C76.6349 103.519 76.6598 103.179 76.697 102.749C76.7757 101.859 76.904 100.575 77.0779 98.9855C77.4257 95.8102 77.9845 91.4343 78.7339 86.6154C79.4832 81.7965 80.3195 77.4661 80.9653 74.3405C81.2882 72.7756 81.5615 71.5129 81.7643 70.6435C81.8637 70.2295 81.9382 69.8901 81.9961 69.6417C82.0258 69.5171 82.066 69.3952 82.1162 69.2773Z" fill="#263238"/>
<path d="M75.7983 103.847C75.7983 103.847 77.7192 103.959 79.4166 106.799L82.6664 108.869C82.6664 108.869 85.5106 113.336 82.6664 117.509C79.8223 121.682 76.3903 118.134 76.3903 118.134C76.3903 118.134 72.9541 119.835 71.9978 119.541C71.0415 119.248 64.5459 115.745 63.5772 114.942C63.2957 114.702 61.2009 112.297 61.2009 112.297C61.2009 112.297 58.3029 111.676 57.9634 111.009C57.6239 110.343 57.6074 108.819 59.5656 108.968C59.5656 108.968 57.6612 108.393 57.4418 107.432C57.2224 106.472 57.4418 105.221 60.8158 105.702C64.1899 106.182 70.6565 107.979 71.4058 107.796C71.4841 107.752 71.548 107.687 71.5898 107.607C71.6317 107.528 71.6498 107.438 71.6419 107.348C71.6341 107.259 71.6006 107.173 71.5455 107.102C71.4904 107.031 71.416 106.978 71.3313 106.948C71.0912 106.836 63.4654 103.872 62.2441 103.536C60.9235 103.176 60.733 100.225 63.4654 100.928C66.1978 101.632 75.0986 103.772 75.0986 103.772L75.7983 103.847Z" fill="#FFBF9D"/>
<path d="M70.7765 115.152C70.2974 115.045 69.8259 114.906 69.3648 114.738C68.4995 114.452 67.2948 114.071 65.97 113.682C64.6452 113.293 63.424 112.974 62.5422 112.747C62.0593 112.643 61.5847 112.505 61.1222 112.333C61.2546 112.332 61.3867 112.347 61.5154 112.378C61.768 112.42 62.1323 112.49 62.5794 112.581C63.4695 112.771 64.6949 113.069 66.0321 113.459C67.3693 113.848 68.5616 114.258 69.4145 114.576C69.8285 114.738 70.1845 114.87 70.4205 114.99C70.5457 115.028 70.6654 115.083 70.7765 115.152Z" fill="#FF9A6C"/>
<path d="M71.8693 111.621C71.703 111.626 71.5367 111.615 71.3725 111.588C71.0537 111.551 70.5901 111.493 70.0229 111.406C68.8886 111.236 67.3237 110.967 65.6097 110.578C63.8958 110.189 62.3599 109.82 61.2545 109.506C60.6998 109.352 60.2568 109.22 59.9504 109.121C59.788 109.078 59.63 109.019 59.4785 108.947C59.6457 108.958 59.811 108.989 59.9711 109.038L61.2918 109.361C62.4054 109.634 63.9455 110.002 65.6553 110.367C67.3651 110.731 68.9217 111.029 70.0477 111.236L71.3849 111.485C71.5518 111.508 71.7147 111.554 71.8693 111.621Z" fill="#FF9A6C"/>
<path d="M81.1142 110.859C81.1321 110.976 81.1321 111.095 81.1142 111.211C81.099 111.527 81.0574 111.842 80.99 112.151C80.5513 114.236 79.3381 116.076 77.5952 117.301C77.3334 117.486 77.0564 117.648 76.7672 117.786C76.5644 117.885 76.4485 117.935 76.4443 117.918C76.4402 117.901 76.8583 117.657 77.4959 117.177C78.3124 116.549 79.0189 115.789 79.5865 114.929C80.1516 114.066 80.5711 113.117 80.8285 112.118C81.0397 111.352 81.0728 110.855 81.1142 110.859Z" fill="#FF9A6C"/>
<path d="M82.1904 118.597C82.1573 118.568 82.6044 118.138 83.1095 117.289C83.7727 116.188 84.1419 114.935 84.1818 113.651C84.2217 112.366 83.9309 111.093 83.3372 109.953C82.8901 109.075 82.4678 108.616 82.5092 108.591C82.624 108.68 82.7257 108.784 82.8114 108.901C83.0661 109.207 83.2919 109.535 83.4862 109.882C84.1319 111.034 84.4511 112.34 84.4095 113.66C84.3679 114.98 83.9671 116.263 83.2503 117.372C83.0373 117.705 82.7948 118.018 82.5258 118.307C82.4275 118.418 82.3147 118.516 82.1904 118.597Z" fill="#263238"/>
<path d="M89.6963 104.401C89.6714 104.438 89.1498 104.036 88.21 103.573C87.6591 103.308 87.0872 103.089 86.5002 102.918C85.7855 102.717 85.0538 102.581 84.3143 102.513C83.5675 102.464 82.8176 102.484 82.0746 102.575C81.4697 102.655 80.8728 102.786 80.2903 102.968C79.2926 103.283 78.7171 103.602 78.7006 103.56C78.8205 103.466 78.9511 103.387 79.0897 103.324C79.2454 103.234 79.4073 103.155 79.5741 103.088C79.7914 102.988 80.0139 102.9 80.2406 102.823C80.828 102.618 81.4339 102.469 82.0498 102.38C82.8055 102.276 83.5697 102.248 84.3309 102.297C85.0907 102.361 85.8423 102.5 86.5747 102.711C87.1696 102.893 87.7462 103.13 88.297 103.419C88.5085 103.529 88.7144 103.649 88.9138 103.78C89.0695 103.872 89.2188 103.974 89.3609 104.086C89.4854 104.176 89.5981 104.282 89.6963 104.401Z" fill="#263238"/>
<g opacity="0.3">
<path d="M67.908 55.1226C67.908 55.1226 70.7191 61.6802 70.3258 62.2267C69.9325 62.7732 68.4545 63.1623 68.4545 63.1623C68.4545 63.1623 70.8764 64.2056 70.8722 65.1371C70.8722 66.9876 68.2765 77.9419 68.2765 77.9419L68.9182 64.5616L66.5957 62.9346L69.1252 61.7589L67.908 55.1226Z" fill="black"/>
</g>
<path d="M74.9828 79.3545C74.9212 79.365 74.859 79.3719 74.7965 79.3752L74.2459 79.4166L72.1304 79.5573L64.3556 80.0293L52.8176 80.6999L46.0074 81.0891L44.2189 81.1885L43.3164 81.2423C43.1674 81.2423 43.0018 81.2423 42.8693 81.2671C42.7378 81.2862 42.6143 81.3422 42.5133 81.4286C42.4117 81.5165 42.3371 81.6313 42.298 81.7598C42.2682 81.8958 42.2515 82.0345 42.2483 82.1738L42.1862 83.097L42.062 84.9641C41.3707 94.9786 40.7455 104.041 40.2943 110.632C40.0583 113.906 39.8803 116.56 39.7354 118.402C39.665 119.313 39.6071 120.021 39.5698 120.514C39.5491 120.75 39.5325 120.928 39.5243 121.064C39.516 121.201 39.4994 121.251 39.4994 121.251C39.4994 121.251 39.4994 121.189 39.4994 121.064C39.4994 120.94 39.4994 120.746 39.5284 120.514C39.5574 120.017 39.5988 119.309 39.6485 118.398C39.7644 116.552 39.9341 113.898 40.1411 110.623C40.5799 104.049 41.1802 94.9827 41.8468 84.9558C41.8882 84.3321 41.9296 83.7111 41.971 83.0928L42.0331 82.1696C42.0354 82.0066 42.0548 81.8442 42.091 81.6853C42.1453 81.5242 42.2427 81.381 42.3725 81.2713C42.5061 81.1592 42.668 81.0861 42.8404 81.0601C43.0101 81.0601 43.1467 81.0601 43.304 81.0311L44.2065 80.9815L45.995 80.8821L52.8093 80.5054L64.3473 79.8802L72.1263 79.4662L74.2418 79.3669L74.7924 79.3462L74.9828 79.3545Z" fill="#455A64"/>
</svg>
